<?xml version="1.0" encoding="utf-8"?>
<!-- Generator: Adobe Illustrator 18.1.1, SVG Export Plug-In . SVG Version: 6.00 Build 0)  -->
<!DOCTYPE svg PUBLIC "-//W3C//DTD SVG 1.1//EN" "http://www.w3.org/Graphics/SVG/1.1/DTD/svg11.dtd">
<svg version="1.1" id="Layer_1" xmlns="http://www.w3.org/2000/svg" xmlns:xlink="http://www.w3.org/1999/xlink" x="0px" y="0px"
	 viewBox="0 0 20 20" enable-background="new 0 0 20 20" xml:space="preserve">
<path id="f" fill="#FFFFFF" d="M6.9,13.5v6.1H5.5V0h1.4v6.6L13.6,0l1,1L6.9,8.5v3l6.7-6.6l1,1L6.9,13.5z"/>
<path id="u" fill="#FFFFFF" d="M4.6,19.7V0.3L5.9,0l10.2,19.3L14.8,20L6,3.2v16.5H4.6z"/>
<path id="th" fill="#FFFFFF" d="M6,19.6V0h1.4v4L14,8.8v1.1l-6.7,4.9v4.8H6z M7.4,13.1l5.1-3.7L7.4,5.7V13.1z"/>
<path id="a" fill="#FFFFFF" d="M9.4,19.6v-8L4.4,9.7l0.5-1.3l4.5,1.7V7.2L4.4,5.3L4.9,4l4.5,1.7V0h1.4v6.2L15.6,8l-0.5,1.3l-4.3-1.6
	v2.9l4.8,1.8l-0.5,1.3l-4.3-1.6v7.5H9.4z"/>
<path id="r" fill="#FFFFFF" d="M6.4,19.6V0h1.4l6.1,4.6v1.1L8.2,10l6.1,9.3L13.2,20l-5.4-8.4v8H6.4z M7.8,8.7l4.5-3.5L7.8,1.8V8.7z"
	/>
<path id="k" fill="#FFFFFF" d="M5.5,19.6V0h1.4v6.6L13.6,0l1,1L6.9,8.5v11H5.5z"/>
<path id="h" fill="#FFFFFF" d="M9.2,19.6v-8.9l-2.7,2.4l-0.9-1l3.3-3l-3.3-3l0.9-1l2.7,2.4V0h1.4v7.5L13.3,5l0.9,1l-3.3,3l3.3,3
	l-0.9,1l-2.7-2.4v8.9H9.2z"/>
</svg>
