<?xml version="1.0" encoding="utf-8"?>
<!-- Generator: Adobe Illustrator 18.1.1, SVG Export Plug-In . SVG Version: 6.00 Build 0)  -->
<!DOCTYPE svg PUBLIC "-//W3C//DTD SVG 1.1//EN" "http://www.w3.org/Graphics/SVG/1.1/DTD/svg11.dtd">
<svg xmlns="http://www.w3.org/2000/svg" xmlns:xlink="http://www.w3.org/1999/xlink" version="1.1" id="Layer_1" x="0px" y="0px" viewBox="90 2 430 430" enable-background="new 90 2 430 430" xml:space="preserve">
<g>
	<g>
		<path fill="none" stroke="#DDDDDD" stroke-width="0.7026" stroke-miterlimit="10" d="M245.6,47.4l4.7-6.9l-21-9.9L220,53.2    l15.1,9.1l7.4-9.6l-8.1-4.4v3c0,0-5.7-0.9-5.4-1.7s5.9-10,5.9-10L245.6,47.4z"/>
		<circle fill="none" stroke="#DDDDDD" stroke-width="0.6857" stroke-miterlimit="10" cx="259.3" cy="68.2" r="6.6"/>
		<circle fill="none" stroke="#DDDDDD" stroke-width="0.6857" stroke-miterlimit="10" cx="259.3" cy="68.2" r="14.6"/>
		<path fill="none" stroke="#DDDDDD" stroke-width="0.6857" stroke-miterlimit="10" d="M265.9,97l14.4-2.2c0,0-1.4,8.9-3.9,9.1    s-5.5,0.2-6.7,0S265.9,97,265.9,97z"/>
		<path fill="none" stroke="#DDDDDD" stroke-width="0.6857" stroke-miterlimit="10" d="M281.7,81.7c0,0,6.9,21.2,3.6,24.8    c-3.3,3.6-3.5,6.4-8.6,6.1c-5.2-0.3-14.9-3.6-15.7-6.7c-0.8-3.1-2.8-16.5-2.8-16.5l19.5-2.4L281.7,81.7z"/>
		<path fill="none" stroke="#DDDDDD" stroke-width="0.6857" stroke-miterlimit="10" d="M261.8,112l-2.5,16.3l9-1.3c0,0-0.7,9.5,0,11    s4.1,3.3,5.6,3.7s6.1,1,6.8,0c0.7-1,5.2-9.5,5.2-11.6s0.4-8.5,0.5-9.2s0-4,0-4s-1.4,2-5.7,1.4c-4.3-0.6-10.5-2.1-10.5-2.1    L261.8,112z"/>
		<path fill="none" stroke="#DDDDDD" stroke-width="0.6857" stroke-miterlimit="10" d="M281.6,129.1c0,0-0.7,5.3-2.2,5.7    c-1.5,0.3-1.8,0.6-3.2,0c-1.5-0.6-1.6-0.5-2.2-1.6c-0.7-1-1.1-4-1.2-4.8c-0.2-0.8-0.2-0.8-0.2-0.8L281.6,129.1z"/>
		<path fill="none" stroke="#DDDDDD" stroke-width="0.6857" stroke-miterlimit="10" d="M272.5,155.2c-2.2,4.4-3,8.4-3,8.4    s-4.8-5-7.5-6.9s-6.9-4.6-6.9-4.6s-3.3-2.1-5.4-2.3c-2.1-0.2,2.1-4.4,3.1-6.5s2.5-7.1,2.5-7.1s3.4,5.7,6.3,7.1    c2.9,1.5,7.7,2.9,9,3.3c1.3,0.4,5,1.5,5,1.5S274.7,150.8,272.5,155.2z"/>
		<path fill="none" stroke="#DDDDDD" stroke-width="0.7026" stroke-miterlimit="10" d="M259.3,171.5c0,0-6.2,5.7-6.6,7.1    c-0.4,1.5-5.4-3.6-5.4-3.6l-9.2-8.4l-2.9,24.1c0,0-7,2.7-9.5,2.9s-7.3,2.5-7.3,2.5s-3.3-4.8-1.9-5.4s10.9-1.9,10.7-4    s0-3.3-2.1-3.3s-8.5,2.9-9,3.1c-0.5,0.2-0.5,0.2-0.5,0.2s-2.9-4.8-2.9-5.3s9-1.2,9.8-2s0.8-4.6-1-5.2s-5.2,1.3-6.1,1.5    c-0.8,0.2-5.2,1-5.2,1s0.2-1,0-2.7s1-1.9,1.9-2.1c0.8-0.2,3.3-0.8,7.1-1.7c3.8-0.8,7.7-2.1,7.7-2.1l4.8,17l3.4-20.7l-4.1-0.8    c0,0,4-1.6,6.3-3.7c2.3-2.1,3.3-5.4,3.3-5.4h1.3l2.7,4.1l10.1,10.1L259.3,171.5z"/>
		<circle fill="none" stroke="#DDDDDD" stroke-width="0.6857" stroke-miterlimit="10" cx="207.8" cy="187.5" r="2.4"/>
		<path fill="none" stroke="#DDDDDD" stroke-width="0.7026" stroke-miterlimit="10" d="M204.9,175.1l-1.6,4.1c0,0-0.8,5.1-0.8,6    c0,0.8,0,5.8,0,5.8v5.3v3.9c0,0-8.5-2.2-9-2.3c-0.4-0.1-3-0.3-3.8-0.3s-2.7,0-2.7,0l2.9-5.2l-5.3-9.1l-12.7,6.6l-13-6l7.7-7.9    l0.7-12.3l6.8,3.9l7.2,2.4l-6.1,6.8l-1.3,7.7l11.7-4.6l6.3,8.3l0.8-9.9l-5.2-6.7l9.7,2.2L204.9,175.1z"/>
		<circle fill="none" stroke="#DDDDDD" stroke-width="0.6857" stroke-miterlimit="10" cx="157.7" cy="175.3" r="4"/>
		<circle fill="none" stroke="#DDDDDD" stroke-width="0.6857" stroke-miterlimit="10" cx="142.6" cy="158.6" r="5.4"/>
		<circle fill="none" stroke="#DDDDDD" stroke-width="0.6857" stroke-miterlimit="10" cx="143.1" cy="159.7" r="13.3"/>
		<ellipse fill="none" stroke="#DDDDDD" stroke-width="0.6857" stroke-miterlimit="10" cx="125.5" cy="147" rx="3.4" ry="2.6"/>
		<path fill="none" stroke="#DDDDDD" stroke-width="0.6857" stroke-miterlimit="10" d="M127.9,117.1l9.8,0.4c0,0,5.7,12.1,5.4,13.6    s-2,4.1-2,4.1l-17.6-4.7l3.6,7.4c0,0-4.5,1.9-5.5,1.7s-5.8-19.8-5.4-20.1c0.3-0.3,8.1,4.5,8.1,4.5s8.2,3.8,9.2,3.6    c1-0.2,2.1-0.4,2.1-1.3c0-0.8,0.1-1.4-0.3-2C134.7,123.7,127.9,117.1,127.9,117.1z"/>
		<path fill="none" stroke="#DDDDDD" stroke-width="0.6857" stroke-miterlimit="10" d="M112.9,100.6c0,0,3,2,5.1,2.4    s5.3,0.7,7.5,0.7s10.4-2.6,10.4-2.6s1,7.2,1.3,8s0.3,3.6,0.6,4s-10.6-2.2-12.3-2.1c-1.7,0.1-7.5,2.6-8.3,3s-2.4,2.2-2.4,2.2    L112.9,100.6z"/>
		<path fill="none" stroke="#DDDDDD" stroke-width="0.7026" stroke-miterlimit="10" d="M140.4,87.1l-1.8,9.3c0,0-7.8-3.2-9.8-3.5    c-2-0.2-12.3,0.4-12.3,0.4l0.4-5.5l0.8-7.5l6.7,2.5l3.7,0.9l3.5-8.7c0,0-0.5-0.7-2.6-0.6c-2.1,0.1-5.8,0.7-5.8,0.7    s3.1-13,3.2-13.6s5.4,4,7.3,4.5c1.9,0.5,7.4,2.3,9.4,2.4c1.9,0.1,6,0.2,6,0.2h2.4c0,0-5,10.8-5.2,11.7C146.1,81,136,76,136,76    s-1.9,7.2-2.3,7.6C133.4,84,140.4,87.1,140.4,87.1z"/>
		<path fill="none" stroke="#DDDDDD" stroke-width="0.6857" stroke-miterlimit="10" d="M165.2,57.9c0,0-7,6.8-7.3,7.2    s-0.8,1.2-0.8,1.2l-10.4-16.4l-4.1,11.6l-8.8-10c0,0,8.8-6.6,11.6-9.1c2.7-2.4,7.5-7.3,7.8-7.7s1.5,0.4,1.6,0.7s4.9,6.9,4.9,6.9    s-11.5,4.1-10.2,5.8S165.2,57.9,165.2,57.9z"/>
		<circle fill="none" stroke="#DDDDDD" stroke-width="0.6857" stroke-miterlimit="10" cx="169" cy="33.7" r="3"/>
		<path fill="none" stroke="#DDDDDD" stroke-width="0.6857" stroke-miterlimit="10" d="M177.7,35.1l1.4,5.5l0.7,2.3l0.9,2.7    l-7.4,0.8c0,0-2.3,0.4-2.6,0.7s-3.5,4.1-3.5,4.1l-3-9.4l7.3-0.2L177.7,35.1z"/>
		<circle fill="none" stroke="#DDDDDD" stroke-width="0.6857" stroke-miterlimit="10" cx="173.7" cy="53.6" r="3"/>
	</g>
	<path fill="none" stroke="#DDDDDD" stroke-width="0.6857" stroke-miterlimit="10" d="M234.7,131c0,0-8-1.7-8.9-0.7s3.5,8.3,3.5,9   c0,0.8-0.9,2.3-1.8,2.6c-0.9,0.3-8.3,1.5-8.3,1.5s-3.4-15.8-2.6-17s20.3-2.9,20.3-2.9s-0.5,2.8,0,3.7   C237.3,128.1,234.7,131,234.7,131z"/>
	<path fill="none" stroke="#DDDDDD" stroke-width="0.7026" stroke-miterlimit="10" d="M188.2,123.3c0,0-0.2,0.8,0.9,3.4   s2.2,5.5,2.6,6c0.5,0.5-17.7-2.6-17.7-1.5s4.4,6,4.4,6l3.1,2.8l1.3,1.4l-6.5,1.2h-5.5l-1.2-1.2c0,0-0.3-6.2-1.2-7.2   s-3.9-7.5-3.9-7.5s-0.8-3.7,0-3.4c0.8,0.3,4.9,2,8.1,1.8c3.2-0.2,2.7,0,4.6-0.3s2.6-0.5,4-0.8C182.5,123.8,188.2,123.3,188.2,123.3   z"/>
	<path fill="none" stroke="#DDDDDD" stroke-width="0.6857" stroke-miterlimit="10" d="M183.9,74.6c0,0,0.8,7.1,1.7,8.4   s2.3,4.7,2.3,4.7s0.3,2.3,0.8,3.5s0,7.3,0,7.3s-0.9,1.5-2.3,1.6c-1.4,0.2-2.5-2.9-2.5-2.9s-4.6,1.2-4.8,1.3s-1.5,1.5-2.2,2.3   c-0.6,0.8-1.5-0.7-1.8-1.5s-2.1-1.5-2.4-3.2c-0.3-1.7-0.5-2.8-0.5-2.8s3.1-0.2,4.7-0.2s4,0,5.1-0.3s1.1-0.3,1.1-0.3l-5.1-9.6   c0,0-2,2.8-2.8,3.3s-2.1,0.4-3,1.6s-0.9,1.2-0.9,1.2s-4.3-4.2-4.3-6.1s4.1-2.5,4.6-2.5s3.1-0.2,3.1-0.2s1.7-1.1,2.2-1.4   s0.4-1.2,1-1.8C178.7,76.4,183.9,74.6,183.9,74.6z"/>
	<polygon fill="none" stroke="#DDDDDD" stroke-width="0.6857" stroke-miterlimit="10" points="229.5,91.6 236,97.1 229.5,99.1  "/>
	<polygon fill="none" stroke="#DDDDDD" stroke-width="0.6857" stroke-miterlimit="10" points="224.3,91.6 221.2,99.1 217.4,93.1     "/>
	<polygon fill="none" stroke="#DDDDDD" stroke-width="0.6857" stroke-miterlimit="10" points="225.6,84.8 223,75.9 217.4,81.1  "/>
	<polygon fill="none" stroke="#DDDDDD" stroke-width="0.6857" stroke-miterlimit="10" points="231.2,80.4 229.5,86.5 237.2,84.8     "/>
	<circle fill="none" stroke="#DDDDDD" stroke-width="1.3714" stroke-miterlimit="10" cx="200" cy="111.9" r="56.5"/>
	<circle fill="none" stroke="#DDDDDD" stroke-width="0.8652" stroke-miterlimit="10" cx="200" cy="112" r="93.1"/>
	<path fill="#DDDDDD" d="M200,212c-55.1,0-100-44.9-100-100S144.9,12,200,12s100,44.9,100,100S255.1,212,200,212z M200,14.5   c-53.8,0-97.5,43.8-97.5,97.5s43.8,97.5,97.5,97.5s97.5-43.8,97.5-97.5S253.8,14.5,200,14.5z"/>
	<path fill="none" stroke="#DDDDDD" stroke-width="0.6857" stroke-miterlimit="10" d="M249.2,112.5c-0.9,25.5-22.2,47.6-47.6,48.9"/>
	<path fill="none" stroke="#DDDDDD" stroke-width="0.6857" stroke-miterlimit="10" d="M201.6,62.7c25.5,1.2,46.7,22.5,47.6,48.1"/>
	<path fill="none" stroke="#DDDDDD" stroke-width="0.6857" stroke-miterlimit="10" d="M150.8,109.9c1.1-25.5,22-46.1,47.5-47.2"/>
	<path fill="none" stroke="#DDDDDD" stroke-width="0.6857" stroke-miterlimit="10" d="M198.5,161.3c-25.2-1.7-47-22.7-47.7-48.2"/>
	<circle fill="none" stroke="#DDDDDD" stroke-width="0.6857" stroke-miterlimit="10" cx="200" cy="112" r="53.1"/>
	<polyline fill="none" stroke="#DDDDDD" stroke-width="0.7026" stroke-miterlimit="10" points="205.5,63 205.5,106.5 249,106.5  "/>
	<polyline fill="none" stroke="#DDDDDD" stroke-width="0.7026" stroke-miterlimit="10" points="201.5,63 201.5,110.5 249,110.5  "/>
	<polyline fill="none" stroke="#DDDDDD" stroke-width="0.7026" stroke-miterlimit="10" points="201.5,161 201.5,113.5 249,113.5     "/>
	<polyline fill="none" stroke="#DDDDDD" stroke-width="0.7026" stroke-miterlimit="10" points="197.5,63 197.5,110.5 150,110.5  "/>
	<polyline fill="none" stroke="#DDDDDD" stroke-width="0.7026" stroke-miterlimit="10" points="197.5,161 197.5,113.5 150,113.5     "/>
	<polyline fill="none" stroke="#DDDDDD" stroke-width="0.7026" stroke-miterlimit="10" points="193.5,63 193.5,106.5 151,106.5  "/>
	<polyline fill="none" stroke="#DDDDDD" stroke-width="0.7026" stroke-miterlimit="10" points="249,116.5 205.5,116.5 205.5,161     "/>
	<polyline fill="none" stroke="#DDDDDD" stroke-width="0.7026" stroke-miterlimit="10" points="150,116.5 193.5,116.5 193.5,161     "/>
</g>
<g>
	<g transform="matrix(0.9808,0,0,0.9808,-498.291,-73.1166)">
		<path fill="#DDDDDD" d="M926.1,290.7c-56.2,0-102-45.7-102-102c0-56.2,45.7-102,102-102c56.2,0,102,45.7,102,102    C1027.9,245,982.2,290.7,926.1,290.7z M926.1,89c-55,0-99.8,44.8-99.8,99.8s44.8,99.8,99.8,99.8c55,0,99.8-44.8,99.8-99.8    S981,89,926.1,89z"/>
	</g>
	<g transform="matrix(0.928531,0,0,0.928531,-458.105,78.0692)">
		
			<path fill="none" stroke="#DDDDDD" stroke-width="0.736" stroke-linecap="round" stroke-linejoin="round" stroke-miterlimit="1.4142" d="    M934.9-64.2c55.7,0,100.9,45.2,100.9,100.9s-45.2,100.9-100.9,100.9C879.2,137.4,834,92.3,834,36.5    C834-19.1,879.2-64.2,934.9-64.2z"/>
	</g>
	<g transform="matrix(0.599679,0,0,0.599679,-205.277,1029.25)">
		
			<path fill="none" stroke="#DDDDDD" stroke-width="1.4079" stroke-linecap="round" stroke-linejoin="round" stroke-miterlimit="1.4142" d="    M1026-1623.8c53.3,0,96.5,43.2,96.5,96.5s-43.2,96.5-96.5,96.5s-96.5-43.2-96.5-96.5C929.5-1580.6,972.7-1623.8,1026-1623.8z"/>
	</g>
	<g transform="matrix(0.567644,0,0,0.567644,-180.648,1121.91)">
		
			<path fill="none" stroke="#DDDDDD" stroke-width="0.6869" stroke-linecap="round" stroke-linejoin="round" stroke-miterlimit="1.4142" d="    M1040.5-1873.4c52,0,94.2,42.2,94.2,94.2s-42.2,94.2-94.2,94.2c-52,0-94.2-42.2-94.2-94.2S988.5-1873.4,1040.5-1873.4z"/>
	</g>
	<g transform="matrix(0.527335,0,0,0.527335,-149.657,1238.5)">
		
			<path fill="none" stroke="#DDDDDD" stroke-width="0.6869" stroke-linecap="round" stroke-linejoin="round" stroke-miterlimit="1.4142" d="    M1075.9-2229.4c40.2,6.3,71.9,38,78.2,78.2"/>
		
			<path fill="none" stroke="#DDDDDD" stroke-width="0.6869" stroke-linecap="round" stroke-linejoin="round" stroke-miterlimit="1.4142" d="    M1053.8-2230.2c2.5-0.2,5-0.3,7.5-0.3c2.6,0,4.7,0.1,7.2,0.3"/>
		
			<path fill="none" stroke="#DDDDDD" stroke-width="0.6869" stroke-linecap="round" stroke-linejoin="round" stroke-miterlimit="1.4142" d="    M1053.8-2230.2"/>
		
			<path fill="none" stroke="#DDDDDD" stroke-width="0.6869" stroke-linecap="round" stroke-linejoin="round" stroke-miterlimit="1.4142" d="    M968.2-2150.9c6.2-40.3,38.1-72.2,78.4-78.5"/>
		
			<path fill="none" stroke="#DDDDDD" stroke-width="0.6869" stroke-linecap="round" stroke-linejoin="round" stroke-miterlimit="1.4142" d="    M968.2-2150.9"/>
		
			<path fill="none" stroke="#DDDDDD" stroke-width="0.6869" stroke-linecap="round" stroke-linejoin="round" stroke-miterlimit="1.4142" d="    M967.4-2143.7"/>
		
			<path fill="none" stroke="#DDDDDD" stroke-width="0.6869" stroke-linecap="round" stroke-linejoin="round" stroke-miterlimit="1.4142" d="    M967.4-2128.9c-0.2-2.6-0.3-4.8-0.3-7.5c0-2.5,0.1-4.9,0.3-7.4"/>
		
			<path fill="none" stroke="#DDDDDD" stroke-width="0.6869" stroke-linecap="round" stroke-linejoin="round" stroke-miterlimit="1.4142" d="    M1046.6-2043.4c-40.3-6.3-72.1-38.2-78.4-78.5"/>
		
			<path fill="none" stroke="#DDDDDD" stroke-width="0.6869" stroke-linecap="round" stroke-linejoin="round" stroke-miterlimit="1.4142" d="    M1068.6-2042.6c-2.5,0.2-4.9,0.3-7.5,0.3c-2.5,0-5-0.1-7.4-0.3"/>
		
			<path fill="none" stroke="#DDDDDD" stroke-width="0.6869" stroke-linecap="round" stroke-linejoin="round" stroke-miterlimit="1.4142" d="    M1154.2-2121.5c-6.2,40.1-37.8,71.7-77.8,78.1"/>
		
			<path fill="none" stroke="#DDDDDD" stroke-width="0.6869" stroke-linecap="round" stroke-linejoin="round" stroke-miterlimit="1.4142" d="    M1155.1-2143.7c0.2,2.4,0.3,4.9,0.3,7.3c0,2.6-0.1,5-0.3,7.5"/>
		
			<path fill="none" stroke="#DDDDDD" stroke-width="0.6869" stroke-linecap="round" stroke-linejoin="round" stroke-miterlimit="1.4142" d="    M1155.1-2143.7"/>
		
			<path fill="none" stroke="#DDDDDD" stroke-width="0.6869" stroke-linecap="round" stroke-linejoin="round" stroke-miterlimit="1.4142" d="    M1154.2-2151.1"/>
	</g>
	<g transform="matrix(0.184468,0,0,0.184468,113.946,2230.22)">
		
			<path fill="none" stroke="#DDDDDD" stroke-width="0.3435" stroke-linecap="round" stroke-linejoin="round" stroke-miterlimit="1.4142" d="    M1583.8-11575.3c6.1-1.3,14.4-2.1,20.9-2.1c6.8,0,13.5,0.7,19.9,2.1"/>
		
			<path fill="none" stroke="#DDDDDD" stroke-width="0.3435" stroke-linecap="round" stroke-linejoin="round" stroke-miterlimit="1.4142" d="    M1518.8-11524.4c9.2-17.4,26.4-34.5,44-43.3"/>
		
			<path fill="none" stroke="#DDDDDD" stroke-width="0.3435" stroke-linecap="round" stroke-linejoin="round" stroke-miterlimit="1.4142" d="    M1512.9-11462.2c-1.5-6.8-2.4-13.8-2.4-21.1c0-8,0.7-13.9,2.6-21.4"/>
		
			<path fill="none" stroke="#DDDDDD" stroke-width="0.3435" stroke-linecap="round" stroke-linejoin="round" stroke-miterlimit="1.4142" d="    M1562.2-11399.3c-17.9-9.1-33.2-25.1-42.3-43"/>
		
			<path fill="none" stroke="#DDDDDD" stroke-width="0.3435" stroke-linecap="round" stroke-linejoin="round" stroke-miterlimit="1.4142" d="    M1562.2-11399.3"/>
		
			<path fill="none" stroke="#DDDDDD" stroke-width="0.3435" stroke-linecap="round" stroke-linejoin="round" stroke-miterlimit="1.4142" d="    M1585.3-11391.1"/>
		
			<path fill="none" stroke="#DDDDDD" stroke-width="0.3435" stroke-linecap="round" stroke-linejoin="round" stroke-miterlimit="1.4142" d="    M1625.6-11391.5c-7,1.6-13.5,2.3-20.9,2.3c-6.7,0-15.2-1.9-21.4-3.2"/>
		
			<path fill="none" stroke="#DDDDDD" stroke-width="0.3435" stroke-linecap="round" stroke-linejoin="round" stroke-miterlimit="1.4142" d="    M1689.2-11441.4c-9,19.5-23.7,33.3-43.2,42.7"/>
		
			<path fill="none" stroke="#DDDDDD" stroke-width="0.3435" stroke-linecap="round" stroke-linejoin="round" stroke-miterlimit="1.4142" d="    M1696.6-11503.9c1.5,6.6,2.3,13.5,2.3,20.6c0,7.5-0.8,14.4-2.4,21.3"/>
		
			<path fill="none" stroke="#DDDDDD" stroke-width="0.3435" stroke-linecap="round" stroke-linejoin="round" stroke-miterlimit="1.4142" d="    M1696.6-11503.9"/>
		
			<path fill="none" stroke="#DDDDDD" stroke-width="0.3435" stroke-linecap="round" stroke-linejoin="round" stroke-miterlimit="1.4142" d="    M1687.6-11527.9"/>
		
			<path fill="none" stroke="#DDDDDD" stroke-width="0.3435" stroke-linecap="round" stroke-linejoin="round" stroke-miterlimit="1.4142" d="    M1646.8-11567.5c17.3,8.7,32.8,25.3,41.9,42.3"/>
	</g>
	<g transform="matrix(-1.60812e-16,-1,1,-1.60812e-16,-2502.72,2911.29)">
		<g transform="matrix(0.821657,0,0,0.821657,30.163,480.43)">
			
				<path fill="none" stroke="#DDDDDD" stroke-width="0.6869" stroke-linecap="round" stroke-linejoin="round" stroke-miterlimit="1.4142" d="     M3394.6,2927c1.6-4.3,5.8-7.3,10.6-7.3c6.3,0,11.4,5.1,11.4,11.4c0,6.3-5.1,11.4-11.4,11.4c-0.5,0-1,0-1.5-0.1     c4.7-0.7,8.3-4.7,8.3-9.6c0-5.3-4.3-9.7-9.7-9.7C3399.2,2923.2,3396.4,2924.7,3394.6,2927L3394.6,2927z"/>
		</g>
		<g transform="matrix(0.821657,0,0,0.821657,23.8604,475.046)">
			
				<path fill="none" stroke="#DDDDDD" stroke-width="0.6869" stroke-linecap="round" stroke-linejoin="round" stroke-miterlimit="1.4142" d="     M3409.1,2933.5c3.7,0,6.8,3,6.8,6.8c0,3.8-3,6.8-6.8,6.8c-3.8,0-6.8-3-6.8-6.8C3402.3,2936.5,3405.3,2933.5,3409.1,2933.5z"/>
		</g>
	</g>
	<g transform="matrix(-0.965926,0.258819,-0.258819,-0.965926,1107.01,5384.77)">
		<g transform="matrix(0.821657,0,0,0.821657,30.163,480.43)">
			
				<path fill="none" stroke="#DDDDDD" stroke-width="0.6869" stroke-linecap="round" stroke-linejoin="round" stroke-miterlimit="1.4142" d="     M-851.7,5804.2c1.6-4.3,5.8-7.3,10.6-7.3c6.3,0,11.4,5.1,11.4,11.4s-5.1,11.4-11.4,11.4c-0.5,0-1,0-1.5-0.1     c4.7-0.7,8.3-4.7,8.3-9.6c0-5.3-4.3-9.7-9.7-9.7C-847.1,5800.3-849.9,5801.8-851.7,5804.2L-851.7,5804.2z"/>
		</g>
		<g transform="matrix(0.821657,0,0,0.821657,23.8604,475.046)">
			
				<path fill="none" stroke="#DDDDDD" stroke-width="0.6869" stroke-linecap="round" stroke-linejoin="round" stroke-miterlimit="1.4142" d="     M-837.3,5810.6c3.7,0,6.8,3,6.8,6.8s-3,6.8-6.8,6.8c-3.7,0-6.8-3-6.8-6.8S-841,5810.6-837.3,5810.6z"/>
		</g>
	</g>
	<g transform="matrix(0.258819,0.965926,-0.965926,0.258819,2872.35,1918.34)">
		<g transform="matrix(0.821657,0,0,0.821657,30.163,480.43)">
			
				<path fill="none" stroke="#DDDDDD" stroke-width="0.6869" stroke-linecap="round" stroke-linejoin="round" stroke-miterlimit="1.4142" d="     M-2906.8,1715c1.6-4.3,5.8-7.3,10.6-7.3c6.3,0,11.4,5.1,11.4,11.4c0,6.3-5.1,11.4-11.4,11.4c-0.5,0-1,0-1.5-0.1     c4.7-0.7,8.3-4.7,8.3-9.6c0-5.3-4.3-9.7-9.7-9.7C-2902.3,1711.2-2905.1,1712.7-2906.8,1715L-2906.8,1715z"/>
		</g>
		<g transform="matrix(0.821657,0,0,0.821657,23.8604,475.046)">
			
				<path fill="none" stroke="#DDDDDD" stroke-width="0.6869" stroke-linecap="round" stroke-linejoin="round" stroke-miterlimit="1.4142" d="     M-2892.4,1721.5c3.7,0,6.8,3,6.8,6.8c0,3.7-3,6.8-6.8,6.8c-3.8,0-6.8-3-6.8-6.8C-2899.2,1724.5-2896.1,1721.5-2892.4,1721.5z"/>
		</g>
	</g>
	<g transform="matrix(1,0,0,1,103.743,0)">
		<g transform="matrix(0.821657,0,0,0.821657,30.163,480.43)">
			
				<path fill="none" stroke="#DDDDDD" stroke-width="0.6869" stroke-linecap="round" stroke-linejoin="round" stroke-miterlimit="1.4142" d="     M357.8-484.7c1.6-4.3,5.8-7.3,10.6-7.3c6.3,0,11.4,5.1,11.4,11.4s-5.1,11.4-11.4,11.4c-0.5,0-1,0-1.5-0.1     c4.7-0.7,8.3-4.7,8.3-9.6c0-5.3-4.3-9.7-9.7-9.7C362.4-488.6,359.6-487.1,357.8-484.7L357.8-484.7z"/>
		</g>
		<g transform="matrix(0.821657,0,0,0.821657,23.8604,475.046)">
			
				<path fill="none" stroke="#DDDDDD" stroke-width="0.6869" stroke-linecap="round" stroke-linejoin="round" stroke-miterlimit="1.4142" d="     M372.2-478.2c3.7,0,6.8,3,6.8,6.8c0,3.7-3,6.8-6.8,6.8c-3.7,0-6.8-3-6.8-6.8C365.5-475.2,368.5-478.2,372.2-478.2z"/>
		</g>
	</g>
	<g transform="matrix(0.232733,0,0,0.232733,76.8386,2090.62)">
		
			<path fill="none" stroke="#DDDDDD" stroke-width="0.6869" stroke-linecap="round" stroke-linejoin="round" stroke-miterlimit="1.4142" d="    M1414.4-8594.6c5.5-1,11.2-1.5,17-1.5c6,0,10.6,0.3,16.3,1.4"/>
		
			<path fill="none" stroke="#DDDDDD" stroke-width="0.6869" stroke-linecap="round" stroke-linejoin="round" stroke-miterlimit="1.4142" d="    M1342.7-8534.5c9.4-25.7,29.7-46.4,55.4-55.8"/>
		
			<path fill="none" stroke="#DDDDDD" stroke-width="0.6869" stroke-linecap="round" stroke-linejoin="round" stroke-miterlimit="1.4142" d="    M1338.6-8485.6c-0.9-5.3-1.4-10.8-1.4-16.4c0-6-0.1-10.6,0.9-16.3"/>
		
			<path fill="none" stroke="#DDDDDD" stroke-width="0.6869" stroke-linecap="round" stroke-linejoin="round" stroke-miterlimit="1.4142" d="    M1398.4-8413.8c-25.6-9.6-46-30-55.4-55.6"/>
		
			<path fill="none" stroke="#DDDDDD" stroke-width="0.6869" stroke-linecap="round" stroke-linejoin="round" stroke-miterlimit="1.4142" d="    M1398.4-8413.8"/>
		
			<path fill="none" stroke="#DDDDDD" stroke-width="0.6869" stroke-linecap="round" stroke-linejoin="round" stroke-miterlimit="1.4142" d="    M1414.8-8409.4"/>
		
			<path fill="none" stroke="#DDDDDD" stroke-width="0.6869" stroke-linecap="round" stroke-linejoin="round" stroke-miterlimit="1.4142" d="    M1447.7-8409.3c-5.3,0.9-10.7,1.4-16.3,1.4c-5.7,0-11.2-0.5-16.6-1.5"/>
		
			<path fill="none" stroke="#DDDDDD" stroke-width="0.6869" stroke-linecap="round" stroke-linejoin="round" stroke-miterlimit="1.4142" d="    M1447.7-8409.3"/>
		
			<path fill="none" stroke="#DDDDDD" stroke-width="0.6869" stroke-linecap="round" stroke-linejoin="round" stroke-miterlimit="1.4142" d="    M1465.5-8414.3"/>
		
			<path fill="none" stroke="#DDDDDD" stroke-width="0.6869" stroke-linecap="round" stroke-linejoin="round" stroke-miterlimit="1.4142" d="    M1519.4-8469.3c-9.7,25.5-30.3,46-55.4,55.8"/>
		
			<path fill="none" stroke="#DDDDDD" stroke-width="0.6869" stroke-linecap="round" stroke-linejoin="round" stroke-miterlimit="1.4142" d="    M1524-8518.2c0.8,4.9,1.5,11.1,1.5,16.2c0,5.6-0.5,11-1.5,16.4"/>
		
			<path fill="none" stroke="#DDDDDD" stroke-width="0.6869" stroke-linecap="round" stroke-linejoin="round" stroke-miterlimit="1.4142" d="    M1464.8-8590c25.3,9.7,45.6,29.9,55,54.9"/>
	</g>
	<g transform="matrix(0.583287,0,0,0.583287,125.467,1136.39)">
		
			<path fill="none" stroke="#DDDDDD" stroke-width="0.3435" stroke-linecap="round" stroke-linejoin="round" stroke-miterlimit="1.4142" d="    M527.2-1771.8c-0.5-8.1-7-14.5-15-15c1.8-1.5,4.2-2.4,6.8-2.4c5.9,0,10.7,4.8,10.7,10.7C529.6-1776,528.7-1773.7,527.2-1771.8    L527.2-1771.8z"/>
	</g>
	<g transform="matrix(0.150966,0.563412,-0.563412,0.150966,1794.5,2214.46)">
		
			<path fill="none" stroke="#DDDDDD" stroke-width="0.3435" stroke-linecap="round" stroke-linejoin="round" stroke-miterlimit="1.4142" d="    M-4058.4,1343.5c-0.5-8.1-7-14.5-15-15c1.8-1.5,4.2-2.4,6.8-2.4c5.9,0,10.7,4.8,10.7,10.7    C-4056,1339.3-4056.9,1341.7-4058.4,1343.5L-4058.4,1343.5z"/>
	</g>
	<g transform="matrix(-0.120138,-0.570781,0.570781,-0.120138,-1313.15,3230.41)">
		
			<path fill="none" stroke="#DDDDDD" stroke-width="0.3435" stroke-linecap="round" stroke-linejoin="round" stroke-miterlimit="1.4142" d="    M4660.1,3973.2c-0.5-8.1-7-14.5-15-15c1.8-1.5,4.2-2.4,6.8-2.4c5.9,0,10.7,4.8,10.7,10.7C4662.6,3969,4661.6,3971.3,4660.1,3973.2    L4660.1,3973.2z"/>
	</g>
	<g transform="matrix(-0.583195,0.0103558,-0.0103558,-0.583195,415.015,4387.99)">
		
			<path fill="none" stroke="#DDDDDD" stroke-width="0.3435" stroke-linecap="round" stroke-linejoin="round" stroke-miterlimit="1.4142" d="    M-82.1,7315c-0.5-8.1-7-14.5-15-15c1.8-1.5,4.2-2.4,6.8-2.4c5.9,0,10.7,4.8,10.7,10.7C-79.7,7310.7-80.6,7313.1-82.1,7315    L-82.1,7315z"/>
	</g>
	
		<path fill="none" stroke="#DDDDDD" stroke-width="0.6869" stroke-linecap="round" stroke-linejoin="round" stroke-miterlimit="1.4142" d="   M406,133.5v27.7"/>
	
		<path fill="none" stroke="#DDDDDD" stroke-width="0.6869" stroke-linecap="round" stroke-linejoin="round" stroke-miterlimit="1.4142" d="   M406,128.9"/>
	
		<path fill="none" stroke="#DDDDDD" stroke-width="0.7023" stroke-linecap="round" stroke-linejoin="round" stroke-miterlimit="1.4142" d="   M406.5,120v9"/>
	
		<path fill="none" stroke="#DDDDDD" stroke-width="0.6869" stroke-linecap="round" stroke-linejoin="round" stroke-miterlimit="1.4142" d="   M406,104.9"/>
	
		<path fill="none" stroke="#DDDDDD" stroke-width="0.7023" stroke-linecap="round" stroke-linejoin="round" stroke-miterlimit="1.4142" d="   M406.5,95v10"/>
	
		<path fill="none" stroke="#DDDDDD" stroke-width="0.6869" stroke-linecap="round" stroke-linejoin="round" stroke-miterlimit="1.4142" d="   M406,90.1"/>
	
		<path fill="none" stroke="#DDDDDD" stroke-width="0.7023" stroke-linecap="round" stroke-linejoin="round" stroke-miterlimit="1.4142" d="   M406.5,63.1v27"/>
	
		<path fill="none" stroke="#DDDDDD" stroke-width="0.7023" stroke-linecap="round" stroke-linejoin="round" stroke-miterlimit="1.4142" d="   M402.5,91v-28"/>
	
		<path fill="none" stroke="#DDDDDD" stroke-width="0.6869" stroke-linecap="round" stroke-linejoin="round" stroke-miterlimit="1.4142" d="   M402.4,91.1"/>
	
		<path fill="none" stroke="#DDDDDD" stroke-width="0.7023" stroke-linecap="round" stroke-linejoin="round" stroke-miterlimit="1.4142" d="   M402.5,105v-8"/>
	
		<path fill="none" stroke="#DDDDDD" stroke-width="0.7023" stroke-linecap="round" stroke-linejoin="round" stroke-miterlimit="1.4142" d="   M402.5,116v-8"/>
	
		<path fill="none" stroke="#DDDDDD" stroke-width="0.7023" stroke-linecap="round" stroke-linejoin="round" stroke-miterlimit="1.4142" d="   M402.5,128v-8"/>
	
		<path fill="none" stroke="#DDDDDD" stroke-width="0.6869" stroke-linecap="round" stroke-linejoin="round" stroke-miterlimit="1.4142" d="   M402.4,127.4"/>
	
		<path fill="none" stroke="#DDDDDD" stroke-width="0.7023" stroke-linecap="round" stroke-linejoin="round" stroke-miterlimit="1.4142" d="   M402.5,161v-27"/>
	
		<path fill="none" stroke="#DDDDDD" stroke-width="0.7023" stroke-linecap="round" stroke-linejoin="round" stroke-miterlimit="1.4142" d="   M418.5,133v28"/>
	
		<path fill="none" stroke="#DDDDDD" stroke-width="0.6869" stroke-linecap="round" stroke-linejoin="round" stroke-miterlimit="1.4142" d="   M417.6,127.6"/>
	
		<path fill="none" stroke="#DDDDDD" stroke-width="0.7023" stroke-linecap="round" stroke-linejoin="round" stroke-miterlimit="1.4142" d="   M418.5,120v8"/>
	
		<path fill="none" stroke="#DDDDDD" stroke-width="0.3435" stroke-linecap="round" stroke-linejoin="round" stroke-miterlimit="1.4142" d="   M417.6,115.5"/>
	
		<path fill="none" stroke="#DDDDDD" stroke-width="0.7023" stroke-linecap="round" stroke-linejoin="round" stroke-miterlimit="1.4142" d="   M418.5,108v8"/>
	
		<path fill="none" stroke="#DDDDDD" stroke-width="0.3435" stroke-linecap="round" stroke-linejoin="round" stroke-miterlimit="1.4142" d="   M417.6,104"/>
	
		<path fill="none" stroke="#DDDDDD" stroke-width="0.7023" stroke-linecap="round" stroke-linejoin="round" stroke-miterlimit="1.4142" d="   M418.5,96v9"/>
	
		<path fill="none" stroke="#DDDDDD" stroke-width="0.6869" stroke-linecap="round" stroke-linejoin="round" stroke-miterlimit="1.4142" d="   M417.6,90.8"/>
	
		<path fill="none" stroke="#DDDDDD" stroke-width="0.7023" stroke-linecap="round" stroke-linejoin="round" stroke-miterlimit="1.4142" d="   M418.5,63.1v28"/>
	
		<path fill="none" stroke="#DDDDDD" stroke-width="0.7023" stroke-linecap="round" stroke-linejoin="round" stroke-miterlimit="1.4142" d="   M414.5,90V62.8v0.3"/>
	
		<path fill="none" stroke="#DDDDDD" stroke-width="0.6869" stroke-linecap="round" stroke-linejoin="round" stroke-miterlimit="1.4142" d="   M414,90.3"/>
	
		<path fill="none" stroke="#DDDDDD" stroke-width="0.7023" stroke-linecap="round" stroke-linejoin="round" stroke-miterlimit="1.4142" d="   M414.5,105V95"/>
	
		<path fill="none" stroke="#DDDDDD" stroke-width="0.3435" stroke-linecap="round" stroke-linejoin="round" stroke-miterlimit="1.4142" d="   M414,119.6"/>
	
		<path fill="none" stroke="#DDDDDD" stroke-width="0.3435" stroke-linecap="round" stroke-linejoin="round" stroke-miterlimit="1.4142" d="   M414,128.7v-9.3"/>
	
		<path fill="none" stroke="#DDDDDD" stroke-width="0.6869" stroke-linecap="round" stroke-linejoin="round" stroke-miterlimit="1.4142" d="   M414,128.7"/>
	
		<path fill="none" stroke="#DDDDDD" stroke-width="0.6869" stroke-linecap="round" stroke-linejoin="round" stroke-miterlimit="1.4142" d="   M414,161.3v-27.8"/>
	
		<path fill="none" stroke="#DDDDDD" stroke-width="0.7023" stroke-linecap="round" stroke-linejoin="round" stroke-miterlimit="1.4142" d="   M431,104.5h28"/>
	
		<path fill="none" stroke="#DDDDDD" stroke-width="0.7023" stroke-linecap="round" stroke-linejoin="round" stroke-miterlimit="1.4142" d="   M418,104.5h8"/>
	
		<path fill="none" stroke="#DDDDDD" stroke-width="0.3435" stroke-linecap="round" stroke-linejoin="round" stroke-miterlimit="1.4142" d="   M406,104.3h7.9"/>
	
		<path fill="none" stroke="#DDDDDD" stroke-width="0.3435" stroke-linecap="round" stroke-linejoin="round" stroke-miterlimit="1.4142" d="   M394.1,104.3h8.2"/>
	
		<path fill="none" stroke="#DDDDDD" stroke-width="0.6869" stroke-linecap="round" stroke-linejoin="round" stroke-miterlimit="1.4142" d="   M360.9,104.3h28.2"/>
	
		<path fill="none" stroke="#DDDDDD" stroke-width="0.7023" stroke-linecap="round" stroke-linejoin="round" stroke-miterlimit="1.4142" d="   M388,108.5h-27"/>
	
		<path fill="none" stroke="#DDDDDD" stroke-width="0.6869" stroke-linecap="round" stroke-linejoin="round" stroke-miterlimit="1.4142" d="   M393.1,107.9"/>
	
		<path fill="none" stroke="#DDDDDD" stroke-width="0.7023" stroke-linecap="round" stroke-linejoin="round" stroke-miterlimit="1.4142" d="   M402,108.5h-9"/>
	
		<path fill="none" stroke="#DDDDDD" stroke-width="0.6869" stroke-linecap="round" stroke-linejoin="round" stroke-miterlimit="1.4142" d="   M402.3,107.9"/>
	
		<path fill="none" stroke="#DDDDDD" stroke-width="0.3435" stroke-linecap="round" stroke-linejoin="round" stroke-miterlimit="1.4142" d="   M417.9,107.9"/>
	
		<path fill="none" stroke="#DDDDDD" stroke-width="0.7023" stroke-linecap="round" stroke-linejoin="round" stroke-miterlimit="1.4142" d="   M427,108.5h-9"/>
	
		<path fill="none" stroke="#DDDDDD" stroke-width="0.6869" stroke-linecap="round" stroke-linejoin="round" stroke-miterlimit="1.4142" d="   M431.5,107.9"/>
	
		<path fill="none" stroke="#DDDDDD" stroke-width="0.7023" stroke-linecap="round" stroke-linejoin="round" stroke-miterlimit="1.4142" d="   M460,108.5h-28"/>
	
		<path fill="none" stroke="#DDDDDD" stroke-width="0.7023" stroke-linecap="round" stroke-linejoin="round" stroke-miterlimit="1.4142" d="   M432,116.5h28"/>
	
		<path fill="none" stroke="#DDDDDD" stroke-width="0.6869" stroke-linecap="round" stroke-linejoin="round" stroke-miterlimit="1.4142" d="   M431.6,115.8"/>
	
		<path fill="none" stroke="#DDDDDD" stroke-width="0.7023" stroke-linecap="round" stroke-linejoin="round" stroke-miterlimit="1.4142" d="   M418,116.5h10"/>
	
		<path fill="none" stroke="#DDDDDD" stroke-width="0.3435" stroke-linecap="round" stroke-linejoin="round" stroke-miterlimit="1.4142" d="   M417.6,115.8"/>
	<g>
		
			<path fill="none" stroke="#DDDDDD" stroke-width="0.6869" stroke-linecap="round" stroke-linejoin="round" stroke-miterlimit="1.4142" d="    M406,116.1"/>
		
			<path fill="none" stroke="#DDDDDD" stroke-width="0.7023" stroke-linecap="round" stroke-linejoin="round" stroke-miterlimit="1.4142" d="    M406.5,108v8"/>
		
			<path fill="none" stroke="#DDDDDD" stroke-width="0.6869" stroke-linecap="round" stroke-linejoin="round" stroke-miterlimit="1.4142" d="    M406,107.9"/>
		
			<path fill="none" stroke="#DDDDDD" stroke-width="0.3435" stroke-linecap="round" stroke-linejoin="round" stroke-miterlimit="1.4142" d="    M414,115.7V108"/>
		
			<path fill="none" stroke="#DDDDDD" stroke-width="0.3435" stroke-linecap="round" stroke-linejoin="round" stroke-miterlimit="1.4142" d="    M414,115.8"/>
		
			<path fill="none" stroke="#DDDDDD" stroke-width="0.7023" stroke-linecap="round" stroke-linejoin="round" stroke-miterlimit="1.4142" d="    M414,108.5h-8"/>
		
			<path fill="none" stroke="#DDDDDD" stroke-width="0.7023" stroke-linecap="round" stroke-linejoin="round" stroke-miterlimit="1.4142" d="    M406,116.5h8"/>
	</g>
	
		<path fill="none" stroke="#DDDDDD" stroke-width="0.3435" stroke-linecap="round" stroke-linejoin="round" stroke-miterlimit="1.4142" d="   M393.1,115.8l9.3,0.1"/>
	
		<path fill="none" stroke="#DDDDDD" stroke-width="0.6869" stroke-linecap="round" stroke-linejoin="round" stroke-miterlimit="1.4142" d="   M388.4,115.8"/>
	
		<path fill="none" stroke="#DDDDDD" stroke-width="0.7023" stroke-linecap="round" stroke-linejoin="round" stroke-miterlimit="1.4142" d="   M361,116.5h27"/>
	
		<path fill="none" stroke="#DDDDDD" stroke-width="0.7023" stroke-linecap="round" stroke-linejoin="round" stroke-miterlimit="1.4142" d="   M389,120.5h-28"/>
	
		<path fill="none" stroke="#DDDDDD" stroke-width="0.6869" stroke-linecap="round" stroke-linejoin="round" stroke-miterlimit="1.4142" d="   M394.7,119.4"/>
	
		<path fill="none" stroke="#DDDDDD" stroke-width="0.7023" stroke-linecap="round" stroke-linejoin="round" stroke-miterlimit="1.4142" d="   M402,120.5h-8"/>
	
		<path fill="none" stroke="#DDDDDD" stroke-width="0.7023" stroke-linecap="round" stroke-linejoin="round" stroke-miterlimit="1.4142" d="   M414,120.5h-8"/>
	
		<path fill="none" stroke="#DDDDDD" stroke-width="0.3435" stroke-linecap="round" stroke-linejoin="round" stroke-miterlimit="1.4142" d="   M418,119.4"/>
	
		<path fill="none" stroke="#DDDDDD" stroke-width="0.7023" stroke-linecap="round" stroke-linejoin="round" stroke-miterlimit="1.4142" d="   M426,120.5h-8"/>
	
		<path fill="none" stroke="#DDDDDD" stroke-width="0.6869" stroke-linecap="round" stroke-linejoin="round" stroke-miterlimit="1.4142" d="   M430.7,119.4"/>
	
		<path fill="none" stroke="#DDDDDD" stroke-width="0.7023" stroke-linecap="round" stroke-linejoin="round" stroke-miterlimit="1.4142" d="   M459,120.5h-28"/>
	<g>
		
			
		
			<polygon fill="none" stroke="#DDDDDD" stroke-width="0.6694" stroke-linecap="round" stroke-linejoin="round" stroke-miterlimit="1.4142" points="    452.1,39.6 444.3,50.4 454.7,55.3 451.3,62.7 436,53.4 441,30.5   "/>
		
			<path fill="none" stroke="#DDDDDD" stroke-width="0.6694" stroke-linecap="round" stroke-linejoin="round" stroke-miterlimit="1.4142" d="    M384.6,28.3c0,0,0.1,9.1,0.9,10.5c0.8,1.4,8,10.8,8,10.8s-7.5,2.6-8.5,3.1c-1,0.5-7.8,3.9-7.8,3.9s-1.5-10.3-2.4-12.6    c-0.9-2.3-6.7-10.1-6.7-10.1s7.3-3.1,8.8-3.6C378.4,30,384.6,28.3,384.6,28.3z"/>
		
			<path fill="none" stroke="#DDDDDD" stroke-width="0.6694" stroke-linecap="round" stroke-linejoin="round" stroke-miterlimit="1.4142" d="    M365.2,54.7l9.2,8.7c0,0-9.1,5-10.1,6.5c-1.1,1.5-4.3,5.2-4.3,5.2s-6.6-8.8-9.4-10.6C347.8,62.7,339,60,339,60s10.5-9.8,11.1-9.9    c0.6-0.1,3.9,3.3,4.2,4.9c0.4,1.6,0.7,6.7,1.7,7.3c0.9,0.5,3.9,1.5,5.8,0.3s3.3-1.9,3.7-3.3C365.8,58,365.2,54.7,365.2,54.7z"/>
		
			<path fill="none" stroke="#DDDDDD" stroke-width="0.6201" stroke-linecap="round" stroke-linejoin="round" stroke-miterlimit="1.4142" d="    M349.7,94l-1.6,14.5c0,0-7.2-4.5-9.6-5.2s-9.7,2-10.5,2.5c-0.8,0.5-4.7,2-6.1,1.4c-0.7-0.3-1-1.3-1-2.9s0.4-2.8,0.7-3.1    c0.3-0.3,2-1.6,2.5-2c0.5-0.4,1.4-1.3,1.4-1.3l3.1-3.3l12.3-9.4c0,0-4.5-0.7-6,0c-1.5,0.7-4.5,2-5.6,2.3c-1,0.4-1.6,0.4-2.3,0.9    c-0.7,0.4,4-13.4,4-13.4s4,3.5,7.6,4.2c3.5,0.7,7,0.6,9.9,0.3c2.9-0.3,4.2,0.5,4,1.1c-0.1,0.6-0.5,6.2-0.9,6.9    c-0.4,0.7-0.1,1.9-1.9,2.1c-1.8,0.2-15.7,4.7-15.7,4.7s4.2,1.7,6.6,1.6c2.4-0.1,5.1,0,6.6-0.6C348.7,94.7,349.7,94,349.7,94z"/>
		
			<ellipse fill="none" stroke="#DDDDDD" stroke-width="0.6694" stroke-linecap="round" stroke-linejoin="round" stroke-miterlimit="1.4142" cx="337.3" cy="131.4" rx="5" ry="5.1"/>
		
			<ellipse fill="none" stroke="#DDDDDD" stroke-width="0.6694" stroke-linecap="round" stroke-linejoin="round" stroke-miterlimit="1.4142" cx="337.3" cy="130.9" rx="13" ry="13.3"/>
		
			<path fill="none" stroke="#DDDDDD" stroke-width="0.6353" stroke-linecap="round" stroke-linejoin="round" stroke-miterlimit="1.4142" d="    M356.3,146c0,0,8.7,8.5,9.2,9.1c0.5,0.6,3.9,3.7,3.7,4.7c-0.2,1.1-6.9,8.5-6.9,8.5s-3.4,3.1-4.4,4.3c-1,1.2-2.2,3.6-2.2,4.3    c-0.1,0.7-2.3,1.4-2.3,1.4l-2.5-1.8c0,0-3-2.8-3.5-3.1s-5.7-4-5.7-5.6c0-1.6,1.2-4.5,1.9-5s2.6,0.2,2.9,0.6    c0.3,0.5,0.2,2.8,0.6,3.7c0.4,0.9,1.3,2.4,1.5,2.5c0.2,0.1,5.4-4.6,5.4-4.6l-3.8-4.8l-2.7-0.6c0,0,3.1-3.4,4-3.4s1.3,2.9,1.3,2.9    l1.9,2.3l1.3,0.5l5-5l1.3-1.5l-5.9-5.3l-5.6,1.7L356.3,146z"/>
		
			<path fill="none" stroke="#DDDDDD" stroke-width="0.6134" stroke-linecap="round" stroke-linejoin="round" stroke-miterlimit="1.4142" d="    M406.3,178c0,0-4.3,6.6-4.7,10.8c-0.4,4.2,1.1,13.1,1.1,13.1l-16.3-3.8l4.8-7.1l-7-11c0,0-1.9,4.8-1.8,7.9c0.1,3.1,0.6,10,0.6,10    l-11.1-3.9c0,0,2.9-12.5,2.9-14.9c0-2.4-1.5-6-1.8-7.2s1.3-4.6,1.3-4.6s2.3-0.4,4.2,2.1c1.8,2.4,6.8,4.4,7.5,4.9    c0.7,0.5,0.6,1.6,0.3,1.9s-1.1,1.7-1.1,1.7l6.8,10.5c0,0,3.4-2.5,3.2-5.3c-0.1-2.8-1.1-4.8-1.6-6.1c-0.5-1.4-1.5-2.8-1.5-2.8    s2.4-0.9,4.3-0.3s5.7,1.2,6.6,1.7C403.7,175.9,406.3,178,406.3,178z"/>
		
			<path fill="none" stroke="#DDDDDD" stroke-width="0.7023" stroke-linecap="round" stroke-linejoin="round" stroke-miterlimit="1.4142" d="    M434.5,171.8c0,0,0.6,9.2,1.6,10.9c1,1.7,3,5.5,4.7,7c1.7,1.5,2.4,1.7,2,2.9c-0.4,1.2-4.1,4.8-4.1,4.8l-6.7,4.1h-3.1    c0,0,1.7-3,0.7-5.7c-0.9-2.6-2.5-9-3.5-10.8c-1-1.8-3.9-3.9-5.3-5.6c-1.5-1.7-2.6-2.4-2.6-2.4s5.2-3.3,7.9-4.1    c2.8-0.8,7.1-2,7.6-2S434.5,171.8,434.5,171.8z"/>
		
			<path fill="none" stroke="#DDDDDD" stroke-width="0.6694" stroke-linecap="round" stroke-linejoin="round" stroke-miterlimit="1.4142" d="    M474.8,115.4c0,0-0.9,8.1-2.3,9.7c-1.3,1.6-6.4,8-6.3,8.3c0.2,0.4,2.1,1.4,5.3,0.9c3.1-0.6,6.1-2,8.3-3.1s3.6-1.3,3.6-1.3    s-1.8,7.5-4,9.3s-3.5,2.5-3.5,2.5l7,2.2c0,0,0.5-5.5,1.6-7.3s2.8-4.1,2.8-4.1s3.2-1.2,3.4,0.2s-0.4,4-0.4,4s-0.3,2.6-0.6,3.4    c-0.3,0.8-1.7,2.9-2,3.3c-0.4,0.4-2.8,2.6-2.8,2.6l5.3,2.2c0,0,2.7-8.7,2.9-10.3c0.2-1.5,1.7-4.6,1.7-4.9s0.2-2.5,0.2-2.5l0.7-2.6    c0,0-3.7-0.2-8.6-1.9s-5.5-2.6-7.8-5.3C477.2,118.1,474.8,115.4,474.8,115.4z"/>
		
			<ellipse fill="none" stroke="#DDDDDD" stroke-width="0.6694" stroke-linecap="round" stroke-linejoin="round" stroke-miterlimit="1.4142" cx="482.7" cy="95.5" rx="5.8" ry="5.9"/>
		
			<ellipse fill="none" stroke="#DDDDDD" stroke-width="0.6694" stroke-linecap="round" stroke-linejoin="round" stroke-miterlimit="1.4142" cx="482.2" cy="95.5" rx="13.1" ry="13.4"/>
		
			<path fill="none" stroke="#DDDDDD" stroke-width="0.6694" stroke-linecap="round" stroke-linejoin="round" stroke-miterlimit="1.4142" d="    M457.6,69.9l5.2,1c0,0,3.9,5.6,4.5,6.7c0.6,1,2.5,5.5,2.5,5.5s4.4-2.7,4.5-3.1s-3.3-4.3-4.6-5.3c-1.3-1-4-3.9-3.7-4.8    c0.3-1,2-2.6,3.8-3c1.8-0.3,4.2-0.2,4.6,0c0.4,0.2,1.8,2.1,2,2.8c0.2,0.7-0.4,2.8,0,3.2c0.4,0.4,2.9-1.6,2.9-1.6s1.3-1.1,1.5-1.4    c0.2-0.2,0.6-0.8,0.6-0.8s-3.1-1.7-4.2-3c-1.2-1.4-2.7-2.7-2.8-3.5c-0.1-0.7-0.5-2.6,0.1-3.3c0.6-0.6,5-4.2,5-4.2l-4.6-3.9    c0,0-8.7,8.7-10.5,10.7C462.4,64,457.6,69.9,457.6,69.9z"/>
		
			<path fill="none" stroke="#DDDDDD" stroke-width="0.7023" stroke-linecap="round" stroke-linejoin="round" stroke-miterlimit="1.4142" d="    M463.9,147.1l-12.7,11.7l9.8,4.6c0,0-4.6,4.2-5.9,7.1c-1.2,2.9-4.4,8.1-1.2,10.5c3.2,2.4,7.3,2.9,10,2.2s9.8-6,11-7.5    c1.2-1.5,6.4-10.3,6.4-10.3h-3.2c0,0-5.4-3.9-8.8-9.3C465.9,150.8,463.9,147.1,463.9,147.1z"/>
	</g>
</g>
<circle opacity="0.46" fill="none" stroke="#000000" stroke-width="0.7276" stroke-miterlimit="10" cx="201.8" cy="324.6" r="49.4"/>
<circle opacity="0.46" fill="none" stroke="#000000" stroke-width="1.3526" stroke-miterlimit="10" cx="201.9" cy="324.1" r="55.7"/>
<g opacity="0.46">
	<path fill="none" stroke="#000000" stroke-width="1.4052" stroke-miterlimit="10" d="M201.8,278h-2.7c0,0-4.8,27.6-4,28.9   c0.9,1.4,3.3,3.3,3.3,3.3s3.3-0.7,3.4-1.6C201.9,307.9,201.8,278,201.8,278z"/>
	<path fill="none" stroke="#000000" stroke-width="1.3526" stroke-miterlimit="10" d="M216.7,286.7c0,0-6.4-5.5-8.8-6   c-2.4-0.5-3.6-1-3.6,0s0.9,3.6,2.4,3.8C208.2,284.6,216.7,286.7,216.7,286.7z"/>
	<path fill="none" stroke="#000000" stroke-width="1.3526" stroke-miterlimit="10" d="M217.9,297.2c0,0-5,4.7-7.4,4.1   c-2.4-0.5-6.2-4.1-6.2-4.1l6.8,0.9L217.9,297.2z"/>
	<circle fill="none" stroke="#000000" stroke-width="1.3526" stroke-miterlimit="10" cx="209" cy="291.8" r="3.4"/>
	<path fill="none" stroke="#000000" stroke-width="1.3526" stroke-miterlimit="10" d="M207.4,314.6c-4.7,0.7-7.7,1.6-10-2.9   C201.7,310.6,204,312.3,207.4,314.6z"/>
	<path fill="none" stroke="#000000" stroke-width="1.3526" stroke-miterlimit="10" d="M213.5,320.7   C196.6,330.9,192.9,309.5,213.5,320.7L213.5,320.7z"/>
	<path fill="none" stroke="#000000" stroke-width="1.3526" stroke-miterlimit="10" d="M200.8,324c9.2,2.3,9.7,16.6,1.9,13.1   C199.4,335.6,202.4,326.7,200.8,324z"/>
	<path fill="none" stroke="#000000" stroke-width="0.7276" stroke-miterlimit="10" d="M171.9,362.4c0,0,1.6-33.7,1.9-34.3   c0.3-0.6,2.8-5.4,2.8-5.4s-0.8-2.5-1.4-3.3s-0.6-1.8-3.3-1.9s-4.2,0.8-4.4,1.7c-0.2,0.9-0.5,5.2-0.4,6.3c0.1,1.1-2.3,31-2.3,31   s2.5,3.5,3.4,4.4c1,0.9,3.4,2.9,3.4,2.9L171.9,362.4z"/>
	<circle fill="none" stroke="#000000" stroke-width="0.7276" stroke-miterlimit="10" cx="181.2" cy="310.8" r="5.7"/>
	<circle fill="none" stroke="#000000" stroke-width="0.7276" stroke-miterlimit="10" cx="172.9" cy="297.5" r="5.7"/>
	<circle fill="none" stroke="#000000" stroke-width="0.7276" stroke-miterlimit="10" cx="164.8" cy="310.8" r="5.7"/>
	<path fill="none" stroke="#000000" stroke-width="0.6763" stroke-miterlimit="10" d="M248.4,308.2c0,0-5.6,12.5-6.7,12.5   c-1.1,0-6.4,0.7-7.2-0.6s-2.8-3.5-2.8-3.5s-0.3-0.7,0.3-0.7s3.3,2.1,3.3,2.1l1,1.4l5.1-0.4l6.3-12.6l-2.1-4.6   c0,0-6.4,13.8-7.4,13.8s-1.4-0.7-1-1.1c0.3-0.4,0.8-1.8,2.3-3.8c1.5-2.1,5-9.8,5-9.8l-0.3-0.5l-9.4,12c0,0-3.4-0.1-2.7-2.2   c0.7-2,7.7-8.8,7.7-8.8l2.5-4.2l-0.9-1.2l-2.6,4.7l-5.5,5.5c0,0-2.6,1.9-3.8,0.6s3.4-5.7,3.4-5.7l3.3-4.3l1.2-3l1.1-2.1L235,288   c0,0-4.9,10.9-6.2,11.8s-3.4,2.5-3.6,2.7c-0.2,0.2-1.2,1.9-1.1,0.7c0-1.1-0.3-2.9,0.8-3.6s3.1-1.6,4-2.7s5-9.8,5-9.8l-2.5-1.6   l-3.8,7.2c0,0-1.7,3.1-1.8,3.3c-0.1,0.2-0.3,1.5-1.3,1.5c-0.9,0-1.1-0.6-0.9-0.9c0.2-0.3,1.6-3.5,1.9-4.3c0.3-0.8,1.4-4.1,1.7-4.5   s1.6-1.9,1.7-2.3s0.5-1.3,0.5-1.3"/>
	<path fill="none" stroke="#000000" stroke-width="0.7276" stroke-miterlimit="10" d="M178.1,366.8c1.1,0.5,11.3-8.7,11.3-8.7   s-2.9,11.8-2.5,12.4s2.7,1.6,3.5,1.4c0.7-0.3,2.9-7.2,3-7.5s1-5.6,1-5.6s7.5,8.3,10.2,8.9c2.7,0.5,7.4,1.9,9.5,1.6s2.5-1.6,2.5-1.6   l-4.3-2.1l-6.4-3l-5.8-6.7c0,0,9.7,6.2,13,6.3s9.4-1,12-1.7s10.8-4.9,11.8-6.5s2.3-3.1,1.2-3.9s-3.2-0.9-4.5,0s-7.8,5-12.2,6.2   s-9.9-0.5-12.3-0.8c-2.5-0.3-3.9,0.1-4.8-0.8c-0.8-0.9,1-1.9,1-1.9s15.4,1.8,17.1,0.5c1.7-1.4,7.2-4.5,8.1-4.9   c0.8-0.5,3.8-1.9,4.5-2.5c0.8-0.6,2.7-1,3.2,0s1,2.6,1.6,2.8c0.6,0.3,3,0.5,3.5-0.1c0.5-0.5,2.1-1.9,1.4-2.7   c-0.7-0.8-1.7-1.6-2.6-3.3c-0.9-1.7-3.2-2.6-3.4-5.3c-0.3-2.7-0.3-5-0.3-6s-0.6-1.4-2.4-1.2c-1.8,0.3-3.8,0.5-4.2,1.2   s-0.3,3.8,0,4.7c0.3,0.8,0.9,3.4,1.4,4.1c0.5,0.6,0,1.1,0,1.1s-9.4,3.2-10.4,3.8c-1,0.6-11.6,2.7-13,3.2s-4,1.4-4.8,1.7   c-0.8,0.3-1.9-0.6-1.6-1.6c0.3-1,1.6-2.1,4.4-3.1c2.8-1,14.7-2.9,15.2-3.2c0.5-0.3,5.8-0.8,6-2.1c0.3-1.4,0.8-2.8-0.1-3.4   c-0.8-0.6-3.8-1.4-4.7-0.8s-6.2,2.8-6.2,2.8s-1.1,1-4.1,1.8s-1.7,0.7-4.2,1.2s-0.6,0.8-4.2,0.8c-3.6,0-5.5-0.4-7.4-0.3   s-3.3,0.4-4.1,1.6s-4.6,6-6.1,7.5c-1.6,1.5-9.6,11.2-10.2,12.2c-0.6,0.9-1.3,1.9-1.1,2.5C176.8,366.1,178.1,366.8,178.1,366.8z"/>
</g>
<g opacity="0.46">
	
	
	<circle fill="none" stroke="#000000" stroke-width="0.7276" stroke-miterlimit="10" cx="232.6" cy="254.2" r="4.3"/>
	<path fill="none" stroke="#000000" stroke-width="0.7276" stroke-miterlimit="10" d="M259.2,268.9l-21.8,3.6l-6-6.1l26.2-3.2   l4.6-1.9l5.7,4.7c0,0-7.8,19.7-8.3,21.4s-1.4,4.3-1.4,4.3l-6-5.1l9.3-17.7l-0.3-1.3L259.2,268.9z"/>
	<path fill="none" stroke="#000000" stroke-width="0.7026" stroke-miterlimit="10" d="M282,290.9c0,0,5.8,12.3,5.4,12.8   s-1.3,1.9-2.7,1.8c-1.4-0.1-1.9,0.2-2.7-0.8c-0.8-1-1.2-4.1-1.4-4.9s-1.6-2.7-1.6-2.7l-4.5,0.5v1.9l3,4.4c0,0,0.6,2.7,0,3   s-2,1-2.5,0.8s-1.2,0.3-1.4-1c-0.2-1.3-3-6-3.2-6.3s-0.6-1.6-1.7-0.8s-1.6,2.1-1.4,3.2c0.3,1,0.5,4.3,0.6,5.9c0.2,1.6,0,2.7,0,2.7   h-4.6c0,0,0.3-5.8,0-7.3s-1.5-7-1.5-7s9.7-1.3,10.9-2.1C273.9,294.4,282,290.9,282,290.9z"/>
	<polygon fill="none" stroke="#000000" stroke-width="0.7026" stroke-miterlimit="10" points="263.5,316.8 263.5,321.2 276.5,321.9    262.5,333.6 263,340.3 283.6,341.5 283.3,336 272.1,334.7 286.8,321.1 286.2,315.1 263.8,315.4  "/>
	<path fill="none" stroke="#000000" stroke-width="0.7276" stroke-miterlimit="10" d="M260.5,344.3l19.9,10.7c0,0,0.2,6.1-1.7,7.5   c-1.9,1.4-5.7,5.6-7.4,5.5c-1.7-0.1-4.7-0.3-6.3-2.5c-1.6-2.1-1.7-2.6-1.7-2.6l-9.5,0.5c0,0-2-4.4-0.9-5.5s3.4-2.9,5.6-1.8   s5.1,2.5,5.1,2.5l2.9,2.6c0,0,1.6,1.5,2,1.7c0.5,0.3,3.1,0.8,4.1-0.3c1-1,1.2-1.7,1.2-3s-0.3-1.8-1.3-2.6c-1-0.8-15.9-6.6-15.9-6.6   L260.5,344.3z"/>
	<path fill="none" stroke="#000000" stroke-width="0.7276" stroke-miterlimit="10" d="M263.3,379.5c0,0-10.9,11.7-11.7,12   s-5.6-1.3-6-1.9s-0.9-1.5-0.9-1.5l9.3-8.6c0,0-0.4-1.9-0.7-1.9s-0.6-0.8-1.6,0s-3.9,3.5-4.2,3.6s-2.3,0.3-2.4-0.6   c-0.1-1,1.8-3.7,2.1-3.9c0.3-0.3,1.6-1.4,1.6-1.4s-0.5-3.5-1.7-3.4s-3.7,2.1-3.7,2.1l-2.3,3.3l-2,2.3l-5.6-2.5l2.4-2.7   c0,0,10.8-9.4,11.8-9.2c1,0.3,11.2,10.5,11.2,10.5L263.3,379.5z"/>
	<path fill="none" stroke="#000000" stroke-width="0.7276" stroke-miterlimit="10" d="M225.5,384.9c0,0-3,3.8-2.3,5s1.9,2.6,2.3,2.7   s8.1,3,8.1,3l-4.1,3.9l-6.4-3.9l-0.7,8.7l-6.9-0.8l0.3-8.2l-6,0.5l0.9-4.7l6.8,0.8c0,0-0.5-5.2-0.2-5.3c0.3-0.1,8.1-2.3,8.1-2.3   L225.5,384.9z"/>
	<polygon fill="none" stroke="#000000" stroke-width="0.7026" stroke-miterlimit="10" points="206.5,387.8 196.8,402.5 198.5,402.5    198.5,404.3 176.3,403.7 175.6,400.3 178.9,399 174.3,381.2 179.9,381.5 182.2,390.3 189.3,386.1 194.9,391.6 202.5,384.5  "/>
	<path fill="none" stroke="#000000" stroke-width="0.7276" stroke-miterlimit="10" d="M191.5,397.9c-0.3,0.1-6.6,0-6.6,0   s-0.9-1.9-0.6-2.7c0.3-0.8,4.3-4,4.3-4l2.8,1.2l1.1,2.2L191.5,397.9z"/>
	<path fill="none" stroke="#000000" stroke-width="0.7276" stroke-miterlimit="10" d="M167.4,378.8l-12.7,15.7c0,0-11-6.7-11.7-7.8   c-0.7-1.2-3-10.8,0-13.7c3-2.9,6-5.5,9.6-5.2s11.1,4.1,12.1,5.3C165.8,374.3,167.4,378.8,167.4,378.8z"/>
	<path fill="none" stroke="#000000" stroke-width="0.7276" stroke-miterlimit="10" d="M160.8,375.8l-9.5,11.3c0,0-4.3-4.3-3.9-6.4   c0.4-2.1,1.5-5.6,4.2-6.7s5-1.2,6.4-0.5C159.4,374.1,160.8,375.8,160.8,375.8z"/>
	<path fill="none" stroke="#000000" stroke-width="0.7276" stroke-miterlimit="10" d="M150.3,359.8l-17.9,16.3c0,0-8.5-7-9.1-10.3   s-1.6-10.7,0-12.6c1.6-1.8,4.5-5.1,9.4-4.8c4.9,0.3,9.8,0.9,11.3,2.1s3.9,4.1,4.7,5.7C149.4,357.8,150.3,359.8,150.3,359.8z"/>
	<path fill="none" stroke="#000000" stroke-width="0.7276" stroke-miterlimit="10" d="M142.3,357l-11.8,9.8c0,0-3.2-4.4-2.3-5.8   c0.8-1.4,1.4-4.2,3.7-5.6s5.2-1.7,6.6-1C139.8,355,142.3,357,142.3,357z"/>
	<polygon fill="none" stroke="#000000" stroke-width="0.7026" stroke-miterlimit="10" points="141.1,325.5 142.3,344.2 116.3,345.2    115.4,322.5 122.5,322.5 122.9,339.2 126.4,336.4 127.2,323.3 131.1,323.6 132.2,335.2 135.1,337.1 136.7,335.9 137.1,325.5  "/>
	<path fill="none" stroke="#000000" stroke-width="0.7026" stroke-miterlimit="10" d="M137.4,310.8l-0.6,6.1c0,0-24.1-4.5-24.2-5.2   s1.9-10.3,1.9-10.3l6.3,3l11.7-7.9l-10.8-5.2l3.6-15.9h4l-0.4,10.1l4.4,1.6l6-9.8l1.3,1.1l-3.8,9.4l2.7,3.3l5.8-9.8l5.2,2.7   l-7.6,15.9l-6.4-0.6l-11.3,9.3L137.4,310.8z"/>
	<path fill="none" stroke="#000000" stroke-width="0.7276" stroke-miterlimit="10" d="M159.3,275.7l-7,4.4l-14.5-15.3   c0,0,8-9.3,11.3-9.4c3.3-0.1,7.4,2.3,8.1,3s1.8,3.2,1.8,3.2l0.9,0.5l8.9-1.7l0.5,10.1l-4.2,0.2c0,0-10.5-7.7-12.4-8.2   s-4.5-1.2-5.3-0.2s-1.2,2-1,2.8C146.8,265.9,159.3,275.7,159.3,275.7z"/>
	<circle fill="none" stroke="#000000" stroke-width="0.7276" stroke-miterlimit="10" cx="162.7" cy="248" r="4.2"/>
</g>
<path opacity="0.46" d="M200,422c-55.1,0-100-44.9-100-100s44.9-100,100-100s100,44.9,100,100S255.1,422,200,422z M200,224.1  c-54,0-97.9,43.9-97.9,97.9s43.9,97.9,97.9,97.9s97.9-43.9,97.9-97.9S254,224.1,200,224.1z"/>
<g opacity="0.46">
	<polygon fill="none" stroke="#000000" stroke-width="1.4552" stroke-miterlimit="10" points="294.5,322.6 292.4,326.2 294.3,329.9    291.8,333.4 293.4,337.2 290.7,340.5 292,344.5 289.1,347.5 290,351.6 286.8,354.3 287.4,358.5 284.1,361 284.3,365.1 280.8,367.4    280.7,371.6 277,373.5 276.6,377.7 272.8,379.3 272.1,383.5 268.1,384.8 267.1,388.9 263,389.9 261.7,393.9 257.6,394.6    255.9,398.4 251.7,398.8 249.8,402.5 245.6,402.6 243.4,406.1 239.2,405.8 236.7,409.2 232.6,408.6 229.8,411.7 225.7,410.8    222.7,413.7 218.7,412.5 215.5,415.2 211.6,413.6 208.2,416 204.4,414.2 200.8,416.3 197.2,414.2 193.5,416 190,413.6 186.2,415.2    182.9,412.5 178.9,413.7 175.9,410.8 171.8,411.7 169.1,408.6 164.9,409.2 162.4,405.8 158.3,406.1 156,402.6 151.8,402.5    149.9,398.8 145.7,398.4 144.1,394.6 139.9,393.8 138.6,389.9 134.5,388.8 133.5,384.8 129.5,383.4 128.8,379.3 125,377.7    124.6,373.5 120.9,371.6 120.8,367.4 117.3,365.1 117.6,361 114.2,358.5 114.8,354.3 111.7,351.5 112.6,347.5 109.7,344.5    110.9,340.5 108.2,337.2 109.8,333.4 107.4,329.9 109.2,326.2 107.1,322.6 109.2,319 107.4,315.2 109.8,311.8 108.2,307.9    110.9,304.7 109.7,300.7 112.6,297.7 111.7,293.6 114.8,290.8 114.2,286.7 117.6,284.2 117.3,280 120.8,277.8 120.9,273.6    124.6,271.7 125,267.5 128.8,265.8 129.6,261.7 133.5,260.4 134.6,256.3 138.6,255.3 140,251.3 144.1,250.6 145.7,246.7    149.9,246.4 151.8,242.7 156,242.6 158.3,239.1 162.4,239.3 164.9,236 169.1,236.6 171.9,233.4 175.9,234.3 178.9,231.4    182.9,232.7 186.2,230 190,231.6 193.5,229.1 197.2,231 200.8,228.9 204.4,231 208.2,229.1 211.6,231.6 215.5,230 218.7,232.7    222.7,231.4 225.7,234.3 229.8,233.4 232.6,236.6 236.7,236 239.2,239.3 243.4,239.1 245.6,242.6 249.8,242.7 251.7,246.4    255.9,246.8 257.6,250.6 261.7,251.3 263,255.3 267.1,256.3 268.1,260.4 272.1,261.7 272.8,265.8 276.7,267.5 277,271.7    280.7,273.6 280.8,277.8 284.3,280 284.1,284.2 287.4,286.7 286.8,290.8 290,293.6 289.1,297.7 292,300.7 290.7,304.7 293.4,307.9    291.8,311.8 294.3,315.2 292.4,319  "/>
</g>
<g transform="matrix(0.9808,0,0,0.9808,-498.291,-73.1166)">
	<path fill="#298EC8" d="M926.1,504.8c-56.2,0-102-45.7-102-102c0-56.2,45.7-102,102-102c56.2,0,102,45.7,102,102   C1027.9,459.1,982.2,504.8,926.1,504.8z M926.1,303.1c-55,0-99.8,44.8-99.8,99.8s44.8,99.8,99.8,99.8c55,0,99.8-44.8,99.8-99.8   S981,303.1,926.1,303.1z"/>
</g>
<g transform="matrix(0.928531,0,0,0.928531,-458.105,78.0692)">
	
		<path fill="none" stroke="#298EC8" stroke-width="0.736" stroke-linecap="round" stroke-linejoin="round" stroke-miterlimit="1.4142" d="   M934.9,161.9c55.7,0,100.9,45.2,100.9,100.9s-45.2,100.9-100.9,100.9c-55.7,0-100.9-45.2-100.9-100.9S879.2,161.9,934.9,161.9z"/>
</g>
<g transform="matrix(0.599679,0,0,0.599679,-205.277,1029.25)">
	
		<path fill="none" stroke="#298EC8" stroke-width="1.4079" stroke-linecap="round" stroke-linejoin="round" stroke-miterlimit="1.4142" d="   M1026-1273.6c53.3,0,96.5,43.2,96.5,96.5c0,53.3-43.2,96.5-96.5,96.5s-96.5-43.2-96.5-96.5C929.5-1230.4,972.7-1273.6,1026-1273.6z   "/>
</g>
<g transform="matrix(0.567644,0,0,0.567644,-180.648,1121.91)">
	
		<path fill="none" stroke="#298EC8" stroke-width="0.6869" stroke-linecap="round" stroke-linejoin="round" stroke-miterlimit="1.4142" d="   M1040.5-1503.4c52,0,94.2,42.2,94.2,94.2s-42.2,94.2-94.2,94.2c-52,0-94.2-42.2-94.2-94.2C946.3-1461.3,988.5-1503.4,1040.5-1503.4   z"/>
</g>
<g transform="matrix(0.527335,0,0,0.527335,-149.657,1238.5)">
	
		<path fill="none" stroke="#298EC8" stroke-width="0.6869" stroke-linecap="round" stroke-linejoin="round" stroke-miterlimit="1.4142" d="   M1075.9-1831.1c40.2,6.3,71.9,38,78.2,78.2"/>
	
		<path fill="none" stroke="#298EC8" stroke-width="0.6869" stroke-linecap="round" stroke-linejoin="round" stroke-miterlimit="1.4142" d="   M1053.8-1832c2.5-0.2,5-0.3,7.5-0.3c2.6,0,4.7,0.1,7.2,0.3"/>
	
		<path fill="none" stroke="#298EC8" stroke-width="0.6869" stroke-linecap="round" stroke-linejoin="round" stroke-miterlimit="1.4142" d="   M1053.8-1832"/>
	
		<path fill="none" stroke="#298EC8" stroke-width="0.6869" stroke-linecap="round" stroke-linejoin="round" stroke-miterlimit="1.4142" d="   M968.2-1752.6c6.2-40.3,38.1-72.2,78.4-78.5"/>
	
		<path fill="none" stroke="#298EC8" stroke-width="0.6869" stroke-linecap="round" stroke-linejoin="round" stroke-miterlimit="1.4142" d="   M968.2-1752.6"/>
	
		<path fill="none" stroke="#298EC8" stroke-width="0.6869" stroke-linecap="round" stroke-linejoin="round" stroke-miterlimit="1.4142" d="   M967.4-1745.5"/>
	
		<path fill="none" stroke="#298EC8" stroke-width="0.6869" stroke-linecap="round" stroke-linejoin="round" stroke-miterlimit="1.4142" d="   M967.4-1730.6c-0.2-2.6-0.3-4.8-0.3-7.5c0-2.5,0.1-4.9,0.3-7.4"/>
	
		<path fill="none" stroke="#298EC8" stroke-width="0.6869" stroke-linecap="round" stroke-linejoin="round" stroke-miterlimit="1.4142" d="   M1046.6-1645.1c-40.3-6.3-72.1-38.2-78.4-78.5"/>
	
		<path fill="none" stroke="#298EC8" stroke-width="0.6869" stroke-linecap="round" stroke-linejoin="round" stroke-miterlimit="1.4142" d="   M1068.6-1644.2c-2.5,0.2-4.9,0.3-7.5,0.3c-2.5,0-5-0.1-7.4-0.3"/>
	
		<path fill="none" stroke="#298EC8" stroke-width="0.6869" stroke-linecap="round" stroke-linejoin="round" stroke-miterlimit="1.4142" d="   M1154.2-1723.3c-6.2,40.1-37.8,71.7-77.8,78.1"/>
	
		<path fill="none" stroke="#298EC8" stroke-width="0.6869" stroke-linecap="round" stroke-linejoin="round" stroke-miterlimit="1.4142" d="   M1155.1-1745.5c0.2,2.4,0.3,4.9,0.3,7.3c0,2.6-0.1,5-0.3,7.5"/>
	
		<path fill="none" stroke="#298EC8" stroke-width="0.6869" stroke-linecap="round" stroke-linejoin="round" stroke-miterlimit="1.4142" d="   M1155.1-1745.5"/>
	
		<path fill="none" stroke="#298EC8" stroke-width="0.6869" stroke-linecap="round" stroke-linejoin="round" stroke-miterlimit="1.4142" d="   M1154.2-1752.9"/>
</g>
<g transform="matrix(0.184468,0,0,0.184468,113.946,2230.22)">
	
		<path fill="none" stroke="#298EC8" stroke-width="0.3435" stroke-linecap="round" stroke-linejoin="round" stroke-miterlimit="1.4142" d="   M1583.8-10436.9c6.1-1.3,14.4-2.1,20.9-2.1c6.8,0,13.5,0.7,19.9,2.1"/>
	
		<path fill="none" stroke="#298EC8" stroke-width="0.3435" stroke-linecap="round" stroke-linejoin="round" stroke-miterlimit="1.4142" d="   M1518.8-10385.9c9.2-17.4,26.4-34.5,44-43.3"/>
	
		<path fill="none" stroke="#298EC8" stroke-width="0.3435" stroke-linecap="round" stroke-linejoin="round" stroke-miterlimit="1.4142" d="   M1512.9-10323.7c-1.5-6.8-2.4-13.8-2.4-21.1c0-8,0.7-13.9,2.6-21.4"/>
	
		<path fill="none" stroke="#298EC8" stroke-width="0.3435" stroke-linecap="round" stroke-linejoin="round" stroke-miterlimit="1.4142" d="   M1562.2-10260.9c-17.9-9.1-33.2-25.1-42.3-43"/>
	
		<path fill="none" stroke="#298EC8" stroke-width="0.3435" stroke-linecap="round" stroke-linejoin="round" stroke-miterlimit="1.4142" d="   M1562.2-10260.9"/>
	
		<path fill="none" stroke="#298EC8" stroke-width="0.3435" stroke-linecap="round" stroke-linejoin="round" stroke-miterlimit="1.4142" d="   M1585.3-10252.7"/>
	
		<path fill="none" stroke="#298EC8" stroke-width="0.3435" stroke-linecap="round" stroke-linejoin="round" stroke-miterlimit="1.4142" d="   M1625.6-10253.1c-7,1.6-13.5,2.3-20.9,2.3c-6.7,0-15.2-1.9-21.4-3.2"/>
	
		<path fill="none" stroke="#298EC8" stroke-width="0.3435" stroke-linecap="round" stroke-linejoin="round" stroke-miterlimit="1.4142" d="   M1689.2-10302.9c-9,19.5-23.7,33.3-43.2,42.7"/>
	
		<path fill="none" stroke="#298EC8" stroke-width="0.3435" stroke-linecap="round" stroke-linejoin="round" stroke-miterlimit="1.4142" d="   M1696.6-10365.4c1.5,6.6,2.3,13.5,2.3,20.6c0,7.5-0.8,14.4-2.4,21.3"/>
	
		<path fill="none" stroke="#298EC8" stroke-width="0.3435" stroke-linecap="round" stroke-linejoin="round" stroke-miterlimit="1.4142" d="   M1696.6-10365.4"/>
	
		<path fill="none" stroke="#298EC8" stroke-width="0.3435" stroke-linecap="round" stroke-linejoin="round" stroke-miterlimit="1.4142" d="   M1687.6-10389.4"/>
	
		<path fill="none" stroke="#298EC8" stroke-width="0.3435" stroke-linecap="round" stroke-linejoin="round" stroke-miterlimit="1.4142" d="   M1646.8-10429c17.3,8.7,32.8,25.3,41.9,42.3"/>
</g>
<g transform="matrix(-1.60812e-16,-1,1,-1.60812e-16,-2502.72,2911.29)">
	<g transform="matrix(0.821657,0,0,0.821657,30.163,480.43)">
		
			<path fill="none" stroke="#298EC8" stroke-width="0.6869" stroke-linecap="round" stroke-linejoin="round" stroke-miterlimit="1.4142" d="    M3139.1,2927c1.6-4.3,5.8-7.3,10.6-7.3c6.3,0,11.4,5.1,11.4,11.4c0,6.3-5.1,11.4-11.4,11.4c-0.5,0-1,0-1.5-0.1    c4.7-0.7,8.3-4.7,8.3-9.6c0-5.3-4.3-9.7-9.7-9.7C3143.6,2923.2,3140.8,2924.7,3139.1,2927L3139.1,2927z"/>
	</g>
	<g transform="matrix(0.821657,0,0,0.821657,23.8604,475.046)">
		
			<path fill="none" stroke="#298EC8" stroke-width="0.6869" stroke-linecap="round" stroke-linejoin="round" stroke-miterlimit="1.4142" d="    M3153.5,2933.5c3.7,0,6.8,3,6.8,6.8c0,3.8-3,6.8-6.8,6.8c-3.8,0-6.8-3-6.8-6.8C3146.7,2936.5,3149.8,2933.5,3153.5,2933.5z"/>
	</g>
</g>
<g transform="matrix(-0.965926,0.258819,-0.258819,-0.965926,1107.01,5384.77)">
	<g transform="matrix(0.821657,0,0,0.821657,30.163,480.43)">
		
			<path fill="none" stroke="#298EC8" stroke-width="0.6869" stroke-linecap="round" stroke-linejoin="round" stroke-miterlimit="1.4142" d="    M-785.5,5557.3c1.6-4.3,5.8-7.3,10.6-7.3c6.3,0,11.4,5.1,11.4,11.4s-5.1,11.4-11.4,11.4c-0.5,0-1,0-1.5-0.1    c4.7-0.7,8.3-4.7,8.3-9.6c0-5.3-4.3-9.7-9.7-9.7C-781,5553.4-783.8,5555-785.5,5557.3L-785.5,5557.3z"/>
	</g>
	<g transform="matrix(0.821657,0,0,0.821657,23.8604,475.046)">
		
			<path fill="none" stroke="#298EC8" stroke-width="0.6869" stroke-linecap="round" stroke-linejoin="round" stroke-miterlimit="1.4142" d="    M-771.1,5563.8c3.7,0,6.8,3,6.8,6.8c0,3.7-3,6.8-6.8,6.8c-3.7,0-6.8-3-6.8-6.8C-777.9,5566.8-774.8,5563.8-771.1,5563.8z"/>
	</g>
</g>
<g transform="matrix(0.258819,0.965926,-0.965926,0.258819,2872.35,1918.34)">
	<g transform="matrix(0.821657,0,0,0.821657,30.163,480.43)">
		
			<path fill="none" stroke="#298EC8" stroke-width="0.6869" stroke-linecap="round" stroke-linejoin="round" stroke-miterlimit="1.4142" d="    M-2660,1781.2c1.6-4.3,5.8-7.3,10.6-7.3c6.3,0,11.4,5.1,11.4,11.4s-5.1,11.4-11.4,11.4c-0.5,0-1,0-1.5-0.1    c4.7-0.7,8.3-4.7,8.3-9.6c0-5.3-4.3-9.7-9.7-9.7C-2655.4,1777.3-2658.2,1778.8-2660,1781.2L-2660,1781.2z"/>
	</g>
	<g transform="matrix(0.821657,0,0,0.821657,23.8604,475.046)">
		
			<path fill="none" stroke="#298EC8" stroke-width="0.6869" stroke-linecap="round" stroke-linejoin="round" stroke-miterlimit="1.4142" d="    M-2645.5,1787.7c3.7,0,6.8,3,6.8,6.8c0,3.7-3,6.8-6.8,6.8c-3.8,0-6.8-3-6.8-6.8S-2649.3,1787.7-2645.5,1787.7z"/>
	</g>
</g>
<g transform="matrix(1,0,0,1,103.743,0)">
	<g transform="matrix(0.821657,0,0,0.821657,30.163,480.43)">
		
			<path fill="none" stroke="#298EC8" stroke-width="0.6869" stroke-linecap="round" stroke-linejoin="round" stroke-miterlimit="1.4142" d="    M357.8-229.1c1.6-4.3,5.8-7.3,10.6-7.3c6.3,0,11.4,5.1,11.4,11.4c0,6.3-5.1,11.4-11.4,11.4c-0.5,0-1,0-1.5-0.1    c4.7-0.7,8.3-4.7,8.3-9.6c0-5.3-4.3-9.7-9.7-9.7C362.4-233,359.6-231.5,357.8-229.1L357.8-229.1z"/>
	</g>
	<g transform="matrix(0.821657,0,0,0.821657,23.8604,475.046)">
		
			<path fill="none" stroke="#298EC8" stroke-width="0.6869" stroke-linecap="round" stroke-linejoin="round" stroke-miterlimit="1.4142" d="    M372.2-222.7c3.7,0,6.8,3,6.8,6.8c0,3.8-3,6.8-6.8,6.8c-3.7,0-6.8-3-6.8-6.8C365.4-219.7,368.5-222.7,372.2-222.7z"/>
	</g>
</g>
<g transform="matrix(0.232733,0,0,0.232733,76.8386,2090.62)">
	
		<path fill="none" stroke="#298EC8" stroke-width="0.6869" stroke-linecap="round" stroke-linejoin="round" stroke-miterlimit="1.4142" d="   M1414.4-7692.2c5.5-1,11.2-1.5,17-1.5c6,0,10.6,0.3,16.3,1.4"/>
	
		<path fill="none" stroke="#298EC8" stroke-width="0.6869" stroke-linecap="round" stroke-linejoin="round" stroke-miterlimit="1.4142" d="   M1342.7-7632.2c9.4-25.7,29.7-46.4,55.4-55.8"/>
	
		<path fill="none" stroke="#298EC8" stroke-width="0.6869" stroke-linecap="round" stroke-linejoin="round" stroke-miterlimit="1.4142" d="   M1338.6-7583.3c-0.9-5.3-1.4-10.8-1.4-16.4c0-6-0.1-10.6,0.9-16.3"/>
	
		<path fill="none" stroke="#298EC8" stroke-width="0.6869" stroke-linecap="round" stroke-linejoin="round" stroke-miterlimit="1.4142" d="   M1398.4-7511.4c-25.6-9.6-46-30-55.4-55.6"/>
	
		<path fill="none" stroke="#298EC8" stroke-width="0.6869" stroke-linecap="round" stroke-linejoin="round" stroke-miterlimit="1.4142" d="   M1398.4-7511.4"/>
	
		<path fill="none" stroke="#298EC8" stroke-width="0.6869" stroke-linecap="round" stroke-linejoin="round" stroke-miterlimit="1.4142" d="   M1414.8-7506.9"/>
	
		<path fill="none" stroke="#298EC8" stroke-width="0.6869" stroke-linecap="round" stroke-linejoin="round" stroke-miterlimit="1.4142" d="   M1447.7-7506.9c-5.3,0.9-10.7,1.4-16.3,1.4c-5.7,0-11.2-0.5-16.6-1.5"/>
	
		<path fill="none" stroke="#298EC8" stroke-width="0.6869" stroke-linecap="round" stroke-linejoin="round" stroke-miterlimit="1.4142" d="   M1447.7-7506.9"/>
	
		<path fill="none" stroke="#298EC8" stroke-width="0.6869" stroke-linecap="round" stroke-linejoin="round" stroke-miterlimit="1.4142" d="   M1465.5-7511.9"/>
	
		<path fill="none" stroke="#298EC8" stroke-width="0.6869" stroke-linecap="round" stroke-linejoin="round" stroke-miterlimit="1.4142" d="   M1519.4-7567c-9.7,25.5-30.3,46-55.4,55.8"/>
	
		<path fill="none" stroke="#298EC8" stroke-width="0.6869" stroke-linecap="round" stroke-linejoin="round" stroke-miterlimit="1.4142" d="   M1524-7615.9c0.8,4.9,1.5,11.1,1.5,16.2c0,5.6-0.5,11-1.5,16.4"/>
	
		<path fill="none" stroke="#298EC8" stroke-width="0.6869" stroke-linecap="round" stroke-linejoin="round" stroke-miterlimit="1.4142" d="   M1464.8-7687.6c25.3,9.7,45.6,29.9,55,54.9"/>
</g>
<g transform="matrix(0.583287,0,0,0.583287,125.467,1136.39)">
	
		<path fill="none" stroke="#298EC8" stroke-width="0.3435" stroke-linecap="round" stroke-linejoin="round" stroke-miterlimit="1.4142" d="   M527.2-1411.8c-0.5-8.1-7-14.5-15-15c1.8-1.5,4.2-2.4,6.8-2.4c5.9,0,10.7,4.8,10.7,10.7C529.6-1416,528.7-1413.7,527.2-1411.8   L527.2-1411.8z"/>
</g>
<g transform="matrix(0.150966,0.563412,-0.563412,0.150966,1794.5,2214.46)">
	
		<path fill="none" stroke="#298EC8" stroke-width="0.3435" stroke-linecap="round" stroke-linejoin="round" stroke-miterlimit="1.4142" d="   M-3710.6,1436.7c-0.5-8.1-7-14.5-15-15c1.8-1.5,4.2-2.4,6.8-2.4c5.9,0,10.7,4.8,10.7,10.7   C-3708.1,1432.5-3709.1,1434.8-3710.6,1436.7L-3710.6,1436.7z"/>
</g>
<g transform="matrix(-0.120138,-0.570781,0.570781,-0.120138,-1313.15,3230.41)">
	
		<path fill="none" stroke="#298EC8" stroke-width="0.3435" stroke-linecap="round" stroke-linejoin="round" stroke-miterlimit="1.4142" d="   M4307.8,3899c-0.5-8.1-7-14.5-15-15c1.8-1.5,4.2-2.4,6.8-2.4c5.9,0,10.7,4.8,10.7,10.7C4310.2,3894.8,4309.3,3897.2,4307.8,3899   L4307.8,3899z"/>
</g>
<g transform="matrix(-0.583195,0.0103558,-0.0103558,-0.583195,415.015,4387.99)">
	
		<path fill="none" stroke="#298EC8" stroke-width="0.3435" stroke-linecap="round" stroke-linejoin="round" stroke-miterlimit="1.4142" d="   M-75.8,6955c-0.5-8.1-7-14.5-15-15c1.8-1.5,4.2-2.4,6.8-2.4c5.9,0,10.7,4.8,10.7,10.7C-73.3,6950.8-74.2,6953.1-75.8,6955   L-75.8,6955z"/>
</g>
<path fill="none" stroke="#298EC8" stroke-width="0.6869" stroke-linecap="round" stroke-linejoin="round" stroke-miterlimit="1.4142" d="  M406,343.5v27.7"/>
<path fill="none" stroke="#298EC8" stroke-width="0.6869" stroke-linecap="round" stroke-linejoin="round" stroke-miterlimit="1.4142" d="  M406,338.9"/>
<path fill="none" stroke="#298EC8" stroke-width="0.7023" stroke-linecap="round" stroke-linejoin="round" stroke-miterlimit="1.4142" d="  M406.5,330v9"/>
<path fill="none" stroke="#298EC8" stroke-width="0.6869" stroke-linecap="round" stroke-linejoin="round" stroke-miterlimit="1.4142" d="  M406,315"/>
<path fill="none" stroke="#298EC8" stroke-width="0.7023" stroke-linecap="round" stroke-linejoin="round" stroke-miterlimit="1.4142" d="  M406.5,305.1v10"/>
<path fill="none" stroke="#298EC8" stroke-width="0.6869" stroke-linecap="round" stroke-linejoin="round" stroke-miterlimit="1.4142" d="  M406,300.2"/>
<path fill="none" stroke="#298EC8" stroke-width="0.7023" stroke-linecap="round" stroke-linejoin="round" stroke-miterlimit="1.4142" d="  M406.5,273.1v27"/>
<path fill="none" stroke="#298EC8" stroke-width="0.7023" stroke-linecap="round" stroke-linejoin="round" stroke-miterlimit="1.4142" d="  M402.5,301.1v-28"/>
<path fill="none" stroke="#298EC8" stroke-width="0.6869" stroke-linecap="round" stroke-linejoin="round" stroke-miterlimit="1.4142" d="  M402.4,301.2"/>
<path fill="none" stroke="#298EC8" stroke-width="0.7023" stroke-linecap="round" stroke-linejoin="round" stroke-miterlimit="1.4142" d="  M402.5,315.1v-8"/>
<path fill="none" stroke="#298EC8" stroke-width="0.7023" stroke-linecap="round" stroke-linejoin="round" stroke-miterlimit="1.4142" d="  M402.5,326v-8"/>
<path fill="none" stroke="#298EC8" stroke-width="0.7023" stroke-linecap="round" stroke-linejoin="round" stroke-miterlimit="1.4142" d="  M402.5,338v-8"/>
<path fill="none" stroke="#298EC8" stroke-width="0.6869" stroke-linecap="round" stroke-linejoin="round" stroke-miterlimit="1.4142" d="  M402.4,337.4"/>
<path fill="none" stroke="#298EC8" stroke-width="0.7023" stroke-linecap="round" stroke-linejoin="round" stroke-miterlimit="1.4142" d="  M402.5,371v-27"/>
<path fill="none" stroke="#298EC8" stroke-width="0.7023" stroke-linecap="round" stroke-linejoin="round" stroke-miterlimit="1.4142" d="  M418.5,343v28"/>
<path fill="none" stroke="#298EC8" stroke-width="0.6869" stroke-linecap="round" stroke-linejoin="round" stroke-miterlimit="1.4142" d="  M417.6,337.6"/>
<path fill="none" stroke="#298EC8" stroke-width="0.7023" stroke-linecap="round" stroke-linejoin="round" stroke-miterlimit="1.4142" d="  M418.5,330v8"/>
<path fill="none" stroke="#298EC8" stroke-width="0.3435" stroke-linecap="round" stroke-linejoin="round" stroke-miterlimit="1.4142" d="  M417.6,325.5"/>
<path fill="none" stroke="#298EC8" stroke-width="0.7023" stroke-linecap="round" stroke-linejoin="round" stroke-miterlimit="1.4142" d="  M418.5,318.1v8"/>
<path fill="none" stroke="#298EC8" stroke-width="0.3435" stroke-linecap="round" stroke-linejoin="round" stroke-miterlimit="1.4142" d="  M417.6,314.1"/>
<path fill="none" stroke="#298EC8" stroke-width="0.7023" stroke-linecap="round" stroke-linejoin="round" stroke-miterlimit="1.4142" d="  M418.5,306.1v9"/>
<path fill="none" stroke="#298EC8" stroke-width="0.6869" stroke-linecap="round" stroke-linejoin="round" stroke-miterlimit="1.4142" d="  M417.6,300.9"/>
<path fill="none" stroke="#298EC8" stroke-width="0.7023" stroke-linecap="round" stroke-linejoin="round" stroke-miterlimit="1.4142" d="  M418.5,273.1v28"/>
<path fill="none" stroke="#298EC8" stroke-width="0.7023" stroke-linecap="round" stroke-linejoin="round" stroke-miterlimit="1.4142" d="  M414.5,300.1v-27.3v0.3"/>
<path fill="none" stroke="#298EC8" stroke-width="0.6869" stroke-linecap="round" stroke-linejoin="round" stroke-miterlimit="1.4142" d="  M414,300.4"/>
<path fill="none" stroke="#298EC8" stroke-width="0.7023" stroke-linecap="round" stroke-linejoin="round" stroke-miterlimit="1.4142" d="  M414.5,315.1v-10"/>
<path fill="none" stroke="#298EC8" stroke-width="0.3435" stroke-linecap="round" stroke-linejoin="round" stroke-miterlimit="1.4142" d="  M414,329.6"/>
<path fill="none" stroke="#298EC8" stroke-width="0.3435" stroke-linecap="round" stroke-linejoin="round" stroke-miterlimit="1.4142" d="  M414,338.7v-9.3"/>
<path fill="none" stroke="#298EC8" stroke-width="0.6869" stroke-linecap="round" stroke-linejoin="round" stroke-miterlimit="1.4142" d="  M414,338.7"/>
<path fill="none" stroke="#298EC8" stroke-width="0.6869" stroke-linecap="round" stroke-linejoin="round" stroke-miterlimit="1.4142" d="  M414,371.3v-27.8"/>
<path fill="none" stroke="#298EC8" stroke-width="0.7023" stroke-linecap="round" stroke-linejoin="round" stroke-miterlimit="1.4142" d="  M431,314.6h28"/>
<path fill="none" stroke="#298EC8" stroke-width="0.7023" stroke-linecap="round" stroke-linejoin="round" stroke-miterlimit="1.4142" d="  M418,314.6h8"/>
<path fill="none" stroke="#298EC8" stroke-width="0.3435" stroke-linecap="round" stroke-linejoin="round" stroke-miterlimit="1.4142" d="  M406,314.4h7.9"/>
<path fill="none" stroke="#298EC8" stroke-width="0.3435" stroke-linecap="round" stroke-linejoin="round" stroke-miterlimit="1.4142" d="  M394.1,314.4h8.2"/>
<path fill="none" stroke="#298EC8" stroke-width="0.6869" stroke-linecap="round" stroke-linejoin="round" stroke-miterlimit="1.4142" d="  M360.9,314.4h28.2"/>
<path fill="none" stroke="#298EC8" stroke-width="0.7023" stroke-linecap="round" stroke-linejoin="round" stroke-miterlimit="1.4142" d="  M388,318.6h-27"/>
<path fill="none" stroke="#298EC8" stroke-width="0.6869" stroke-linecap="round" stroke-linejoin="round" stroke-miterlimit="1.4142" d="  M393.1,318"/>
<path fill="none" stroke="#298EC8" stroke-width="0.7023" stroke-linecap="round" stroke-linejoin="round" stroke-miterlimit="1.4142" d="  M402,318.6h-9"/>
<path fill="none" stroke="#298EC8" stroke-width="0.6869" stroke-linecap="round" stroke-linejoin="round" stroke-miterlimit="1.4142" d="  M402.3,318"/>
<path fill="none" stroke="#298EC8" stroke-width="0.3435" stroke-linecap="round" stroke-linejoin="round" stroke-miterlimit="1.4142" d="  M417.9,318"/>
<path fill="none" stroke="#298EC8" stroke-width="0.7023" stroke-linecap="round" stroke-linejoin="round" stroke-miterlimit="1.4142" d="  M427,318.6h-9"/>
<path fill="none" stroke="#298EC8" stroke-width="0.6869" stroke-linecap="round" stroke-linejoin="round" stroke-miterlimit="1.4142" d="  M431.5,318"/>
<path fill="none" stroke="#298EC8" stroke-width="0.7023" stroke-linecap="round" stroke-linejoin="round" stroke-miterlimit="1.4142" d="  M460,318.6h-28"/>
<path fill="none" stroke="#298EC8" stroke-width="0.7023" stroke-linecap="round" stroke-linejoin="round" stroke-miterlimit="1.4142" d="  M432,326.5h28"/>
<path fill="none" stroke="#298EC8" stroke-width="0.6869" stroke-linecap="round" stroke-linejoin="round" stroke-miterlimit="1.4142" d="  M431.6,325.8"/>
<path fill="none" stroke="#298EC8" stroke-width="0.7023" stroke-linecap="round" stroke-linejoin="round" stroke-miterlimit="1.4142" d="  M418,326.5h10"/>
<path fill="none" stroke="#298EC8" stroke-width="0.3435" stroke-linecap="round" stroke-linejoin="round" stroke-miterlimit="1.4142" d="  M417.6,325.8"/>
<g>
	
		<path fill="none" stroke="#298EC8" stroke-width="0.6869" stroke-linecap="round" stroke-linejoin="round" stroke-miterlimit="1.4142" d="   M406,326.1"/>
	
		<path fill="none" stroke="#298EC8" stroke-width="0.7023" stroke-linecap="round" stroke-linejoin="round" stroke-miterlimit="1.4142" d="   M406.5,318.1v8"/>
	
		<path fill="none" stroke="#298EC8" stroke-width="0.6869" stroke-linecap="round" stroke-linejoin="round" stroke-miterlimit="1.4142" d="   M406,318"/>
	
		<path fill="none" stroke="#298EC8" stroke-width="0.3435" stroke-linecap="round" stroke-linejoin="round" stroke-miterlimit="1.4142" d="   M414,325.7v-7.7"/>
	
		<path fill="none" stroke="#298EC8" stroke-width="0.3435" stroke-linecap="round" stroke-linejoin="round" stroke-miterlimit="1.4142" d="   M414,325.8"/>
	
		<path fill="none" stroke="#298EC8" stroke-width="0.7023" stroke-linecap="round" stroke-linejoin="round" stroke-miterlimit="1.4142" d="   M414,318.6h-8"/>
	
		<path fill="none" stroke="#298EC8" stroke-width="0.7023" stroke-linecap="round" stroke-linejoin="round" stroke-miterlimit="1.4142" d="   M406,326.5h8"/>
</g>
<path fill="none" stroke="#298EC8" stroke-width="0.3435" stroke-linecap="round" stroke-linejoin="round" stroke-miterlimit="1.4142" d="  M393.1,325.8l9.3,0.1"/>
<path fill="none" stroke="#298EC8" stroke-width="0.6869" stroke-linecap="round" stroke-linejoin="round" stroke-miterlimit="1.4142" d="  M388.4,325.8"/>
<path fill="none" stroke="#298EC8" stroke-width="0.7023" stroke-linecap="round" stroke-linejoin="round" stroke-miterlimit="1.4142" d="  M361,326.5h27"/>
<path fill="none" stroke="#298EC8" stroke-width="0.7023" stroke-linecap="round" stroke-linejoin="round" stroke-miterlimit="1.4142" d="  M389,330.5h-28"/>
<path fill="none" stroke="#298EC8" stroke-width="0.6869" stroke-linecap="round" stroke-linejoin="round" stroke-miterlimit="1.4142" d="  M394.7,329.4"/>
<path fill="none" stroke="#298EC8" stroke-width="0.7023" stroke-linecap="round" stroke-linejoin="round" stroke-miterlimit="1.4142" d="  M402,330.5h-8"/>
<path fill="none" stroke="#298EC8" stroke-width="0.7023" stroke-linecap="round" stroke-linejoin="round" stroke-miterlimit="1.4142" d="  M414,330.5h-8"/>
<path fill="none" stroke="#298EC8" stroke-width="0.3435" stroke-linecap="round" stroke-linejoin="round" stroke-miterlimit="1.4142" d="  M418,329.4"/>
<path fill="none" stroke="#298EC8" stroke-width="0.7023" stroke-linecap="round" stroke-linejoin="round" stroke-miterlimit="1.4142" d="  M426,330.5h-8"/>
<path fill="none" stroke="#298EC8" stroke-width="0.6869" stroke-linecap="round" stroke-linejoin="round" stroke-miterlimit="1.4142" d="  M430.7,329.4"/>
<path fill="none" stroke="#298EC8" stroke-width="0.7023" stroke-linecap="round" stroke-linejoin="round" stroke-miterlimit="1.4142" d="  M459,330.5h-28"/>
<g>
	
		
	
		<polygon fill="none" stroke="#298EC8" stroke-width="0.6694" stroke-linecap="round" stroke-linejoin="round" stroke-miterlimit="1.4142" points="   452.1,249.6 444.3,260.4 454.7,265.3 451.3,272.7 436,263.4 441,240.5  "/>
	
		<path fill="none" stroke="#298EC8" stroke-width="0.6694" stroke-linecap="round" stroke-linejoin="round" stroke-miterlimit="1.4142" d="   M384.6,238.3c0,0,0.1,9.1,0.9,10.5s8,10.8,8,10.8s-7.5,2.6-8.5,3.1c-0.9,0.5-7.8,3.9-7.8,3.9s-1.5-10.3-2.4-12.6   c-0.9-2.3-6.7-10.1-6.7-10.1s7.3-3.1,8.8-3.6C378.4,240,384.6,238.3,384.6,238.3z"/>
	
		<path fill="none" stroke="#298EC8" stroke-width="0.6694" stroke-linecap="round" stroke-linejoin="round" stroke-miterlimit="1.4142" d="   M365.2,264.7l9.2,8.7c0,0-9.1,5-10.1,6.5c-1.1,1.5-4.3,5.2-4.3,5.2s-6.6-8.8-9.4-10.6c-2.8-1.8-11.6-4.5-11.6-4.5   s10.5-9.8,11.1-9.9s3.9,3.3,4.2,4.9c0.4,1.6,0.7,6.7,1.7,7.3c0.9,0.5,3.9,1.5,5.8,0.3c1.9-1.2,3.3-1.9,3.7-3.3   C365.8,268,365.2,264.7,365.2,264.7z"/>
	
		<path fill="none" stroke="#298EC8" stroke-width="0.6201" stroke-linecap="round" stroke-linejoin="round" stroke-miterlimit="1.4142" d="   M349.7,304.1l-1.6,14.5c0,0-7.2-4.5-9.6-5.2c-2.4-0.7-9.7,2-10.5,2.5c-0.9,0.5-4.7,2-6.1,1.4c-0.7-0.3-1-1.3-1-2.9s0.4-2.8,0.7-3.1   c0.3-0.3,2-1.6,2.5-2c0.5-0.4,1.4-1.3,1.4-1.3l3.1-3.3l12.3-9.4c0,0-4.5-0.7-6,0c-1.5,0.7-4.5,2-5.6,2.3c-1,0.4-1.6,0.4-2.3,0.9   c-0.7,0.4,4-13.4,4-13.4s4,3.5,7.6,4.2c3.5,0.7,7,0.6,9.9,0.3c2.9-0.3,4.2,0.5,4,1.1c-0.1,0.6-0.5,6.2-0.9,6.9   c-0.4,0.7-0.1,1.9-1.9,2.1c-1.9,0.2-15.8,4.6-15.8,4.6s4.2,1.7,6.6,1.6s5.1,0,6.6-0.6C348.7,304.8,349.7,304.1,349.7,304.1z"/>
	
		<ellipse fill="none" stroke="#298EC8" stroke-width="0.6694" stroke-linecap="round" stroke-linejoin="round" stroke-miterlimit="1.4142" cx="337.3" cy="341.4" rx="5" ry="5.1"/>
	
		<ellipse fill="none" stroke="#298EC8" stroke-width="0.6694" stroke-linecap="round" stroke-linejoin="round" stroke-miterlimit="1.4142" cx="337.3" cy="340.9" rx="13" ry="13.3"/>
	
		<path fill="none" stroke="#298EC8" stroke-width="0.6353" stroke-linecap="round" stroke-linejoin="round" stroke-miterlimit="1.4142" d="   M356.3,356c0,0,8.7,8.5,9.2,9.1c0.6,0.5,3.9,3.7,3.7,4.7c-0.2,1.1-6.9,8.5-6.9,8.5s-3.4,3.1-4.4,4.3c-1,1.2-2.2,3.6-2.2,4.3   c-0.1,0.7-2.3,1.4-2.3,1.4l-2.5-1.8c0,0-3-2.8-3.5-3.1s-5.7-4-5.7-5.6s1.2-4.5,1.9-5s2.6,0.2,2.9,0.6c0.3,0.5,0.2,2.8,0.6,3.7   s1.3,2.4,1.5,2.5c0.2,0.1,5.4-4.6,5.4-4.6l-3.8-4.8l-2.7-0.6c0,0,3.1-3.4,4-3.4s1.3,2.9,1.3,2.9l1.9,2.3l1.3,0.5l5-5l1.3-1.5   l-5.9-5.3l-5.6,1.7L356.3,356z"/>
	
		<path fill="none" stroke="#298EC8" stroke-width="0.6134" stroke-linecap="round" stroke-linejoin="round" stroke-miterlimit="1.4142" d="   M406.3,388c0,0-4.3,6.6-4.7,10.8c-0.4,4.2,1.1,13.1,1.1,13.1l-16.3-3.8l4.8-7.1l-7-11c0,0-1.9,4.8-1.8,7.9c0.1,3.2,0.6,10,0.6,10   l-11.1-3.9c0,0,2.9-12.5,2.9-14.9s-1.5-6-1.8-7.2s1.3-4.6,1.3-4.6s2.3-0.4,4.2,2.1c1.8,2.4,6.8,4.4,7.5,4.9   c0.7,0.5,0.6,1.6,0.3,1.9c-0.3,0.3-1.1,1.7-1.1,1.7l6.8,10.5c0,0,3.4-2.5,3.2-5.3c-0.1-2.8-1.1-4.8-1.6-6.1   c-0.5-1.4-1.5-2.8-1.5-2.8s2.4-0.9,4.3-0.3s5.7,1.2,6.6,1.7C403.7,385.9,406.3,388,406.3,388z"/>
	
		<path fill="none" stroke="#298EC8" stroke-width="0.7023" stroke-linecap="round" stroke-linejoin="round" stroke-miterlimit="1.4142" d="   M434.5,381.8c0,0,0.6,9.2,1.6,10.9c1,1.7,3,5.5,4.7,7c1.7,1.5,2.4,1.7,2,2.9c-0.4,1.2-4.1,4.8-4.1,4.8l-6.7,4.1h-3.1   c0,0,1.7-3,0.7-5.7c-1-2.7-2.5-9-3.5-10.8c-1-1.8-3.9-3.9-5.3-5.6c-1.5-1.7-2.6-2.4-2.6-2.4s5.2-3.3,7.9-4.1c2.8-0.8,7.1-2,7.6-2   C434.2,380.9,434.5,381.8,434.5,381.8z"/>
	
		<path fill="none" stroke="#298EC8" stroke-width="0.6694" stroke-linecap="round" stroke-linejoin="round" stroke-miterlimit="1.4142" d="   M474.8,325.4c0,0-0.9,8.1-2.3,9.7c-1.3,1.6-6.4,8-6.3,8.3c0.2,0.4,2.1,1.4,5.3,0.9c3.2-0.5,6.1-2,8.3-3.1s3.6-1.3,3.6-1.3   s-1.8,7.5-4,9.3c-2.2,1.8-3.5,2.5-3.5,2.5l7,2.2c0,0,0.5-5.5,1.6-7.3c1.1-1.8,2.8-4.1,2.8-4.1s3.2-1.2,3.4,0.2c0.2,1.4-0.4,4-0.4,4   s-0.3,2.6-0.6,3.4s-1.7,2.9-2,3.3c-0.4,0.4-2.8,2.6-2.8,2.6l5.3,2.2c0,0,2.7-8.7,2.9-10.3c0.2-1.5,1.7-4.6,1.7-4.9s0.2-2.5,0.2-2.5   l0.7-2.6c0,0-3.7-0.2-8.6-1.9s-5.5-2.6-7.8-5.3C477.2,328.1,474.8,325.4,474.8,325.4z"/>
	
		<ellipse fill="none" stroke="#298EC8" stroke-width="0.6694" stroke-linecap="round" stroke-linejoin="round" stroke-miterlimit="1.4142" cx="482.7" cy="305.6" rx="5.8" ry="5.9"/>
	
		<ellipse fill="none" stroke="#298EC8" stroke-width="0.6694" stroke-linecap="round" stroke-linejoin="round" stroke-miterlimit="1.4142" cx="482.2" cy="305.6" rx="13.1" ry="13.4"/>
	
		<path fill="none" stroke="#298EC8" stroke-width="0.6694" stroke-linecap="round" stroke-linejoin="round" stroke-miterlimit="1.4142" d="   M457.6,279.9l5.2,1c0,0,3.9,5.6,4.5,6.7c0.6,1,2.5,5.5,2.5,5.5s4.4-2.7,4.5-3.1c0.1-0.4-3.3-4.3-4.6-5.3c-1.3-1-4-3.9-3.7-4.8   c0.3-1,2-2.6,3.8-3c1.8-0.3,4.2-0.2,4.6,0c0.3,0.2,1.8,2.1,2,2.8c0.2,0.7-0.4,2.8,0,3.2c0.4,0.4,2.9-1.6,2.9-1.6s1.3-1.1,1.5-1.4   c0.2-0.3,0.6-0.8,0.6-0.8s-3.1-1.7-4.2-3c-1.2-1.4-2.7-2.7-2.8-3.5c-0.1-0.7-0.5-2.6,0.1-3.3c0.6-0.6,5-4.2,5-4.2l-4.6-3.9   c0,0-8.7,8.7-10.5,10.7C462.4,274,457.6,279.9,457.6,279.9z"/>
	
		<path fill="none" stroke="#298EC8" stroke-width="0.7023" stroke-linecap="round" stroke-linejoin="round" stroke-miterlimit="1.4142" d="   M463.9,357.1l-12.7,11.7l9.8,4.6c0,0-4.6,4.2-5.9,7.1c-1.2,2.9-4.4,8.1-1.2,10.5s7.3,2.9,10,2.2c2.7-0.7,9.8-6,11-7.5   c1.2-1.5,6.4-10.3,6.4-10.3h-3.2c0,0-5.4-3.9-8.8-9.3C465.9,360.8,463.9,357.1,463.9,357.1z"/>
</g>
</svg>