<?xml version="1.0" encoding="utf-8"?>
<!-- Generator: Adobe Illustrator 18.1.1, SVG Export Plug-In . SVG Version: 6.00 Build 0)  -->
<!DOCTYPE svg PUBLIC "-//W3C//DTD SVG 1.1//EN" "http://www.w3.org/Graphics/SVG/1.1/DTD/svg11.dtd">
<svg version="1.1" id="Layer_1" xmlns="http://www.w3.org/2000/svg" xmlns:xlink="http://www.w3.org/1999/xlink" x="0px" y="0px"
	 viewBox="89.1 -1.2 614 614" enable-background="new 89.1 -1.2 614 614" xml:space="preserve">
<path fill="#FFFFFF" stroke="#DEDEDD" stroke-width="2.1428" stroke-linecap="round" stroke-linejoin="round" stroke-miterlimit="1.4142" d="
	M396.1-0.1C565.2-0.1,702,136.9,702,305.8c0,169.1-137.1,305.9-305.9,305.9c-169.1,0-305.9-137.1-305.9-305.9
	C89.9,136.9,226.9-0.1,396.1-0.1z"/>
<path fill="none" stroke="#DEDEDD" stroke-width="1.0714" stroke-linecap="round" stroke-linejoin="round" stroke-miterlimit="1.4142" d="
	M396,16.2c160.1,0,289.6,129.8,289.6,289.6c0,160.1-129.8,289.6-289.6,289.6c-160.1,0-289.6-129.8-289.6-289.6
	C106.4,146,236.2,16.2,396,16.2z"/>
<path fill="none" stroke="#DEDEDD" stroke-width="2.0495" stroke-linecap="round" stroke-linejoin="round" stroke-miterlimit="1.4142" d="
	M396,131c98.9,0,179.1,80.2,179.1,179.1S494.9,489.2,396,489.2S217,409,217,310.1S297.2,131,396,131z"/>
<path fill="none" stroke="#DEDEDD" stroke-linecap="round" stroke-linejoin="round" stroke-miterlimit="1.4142" d="M395.9,140.4
	c91.4,0,165.4,74,165.4,165.4c0,91.4-74,165.4-165.4,165.4s-165.4-74-165.4-165.4C230.7,214.4,304.8,140.4,395.9,140.4z"/>
<path fill="none" stroke="#DEDEDD" stroke-linecap="round" stroke-linejoin="round" stroke-miterlimit="1.4142" d="M420.1,153.9
	c65.6,10.4,117.3,62.1,127.6,127.6"/>
<path fill="none" stroke="#DEDEDD" stroke-linecap="round" stroke-linejoin="round" stroke-miterlimit="1.4142" d="M383.9,152.5
	c4-0.3,8.1-0.5,12.1-0.5c4.1,0,7.7,0.2,11.8,0.5"/>
<path fill="none" stroke="#DEDEDD" stroke-linecap="round" stroke-linejoin="round" stroke-miterlimit="1.4142" d="M383.9,152.5"/>
<path fill="none" stroke="#DEDEDD" stroke-linecap="round" stroke-linejoin="round" stroke-miterlimit="1.4142" d="M244.3,282.1
	c10.2-65.7,62.1-117.7,127.8-127.9"/>
<path fill="none" stroke="#DEDEDD" stroke-linecap="round" stroke-linejoin="round" stroke-miterlimit="1.4142" d="M244.3,282.1"/>
<path fill="none" stroke="#DEDEDD" stroke-linecap="round" stroke-linejoin="round" stroke-miterlimit="1.4142" d="M242.8,293.7"/>
<path fill="none" stroke="#DEDEDD" stroke-linecap="round" stroke-linejoin="round" stroke-miterlimit="1.4142" d="M243,317.8
	c-0.3-4.3-0.5-7.8-0.5-12.1c0-4,0.2-8,0.5-12"/>
<path fill="none" stroke="#DEDEDD" stroke-linecap="round" stroke-linejoin="round" stroke-miterlimit="1.4142" d="M372.1,457.4
	c-65.7-10.2-117.6-62.2-127.8-127.9"/>
<path fill="none" stroke="#DEDEDD" stroke-linecap="round" stroke-linejoin="round" stroke-miterlimit="1.4142" d="M408.3,458.8
	c-4,0.3-8.1,0.5-12.1,0.5c-4.1,0-8.1-0.2-12.1-0.5"/>
<path fill="none" stroke="#DEDEDD" stroke-linecap="round" stroke-linejoin="round" stroke-miterlimit="1.4142" d="M547.7,329.9
	c-10.2,65.4-61.6,116.9-127,127.5"/>
<path fill="none" stroke="#DEDEDD" stroke-linecap="round" stroke-linejoin="round" stroke-miterlimit="1.4142" d="M549.1,293.7
	c0.3,4,0.5,8,0.5,12c0,4.1-0.2,8.1-0.5,12.1"/>
<path fill="none" stroke="#DEDEDD" stroke-linecap="round" stroke-linejoin="round" stroke-miterlimit="1.4142" d="M549.1,293.7"/>
<path fill="none" stroke="#DEDEDD" stroke-linecap="round" stroke-linejoin="round" stroke-miterlimit="1.4142" d="M547.7,281.6"/>
<path fill="none" stroke="#DEDEDD" stroke-width="0.5" stroke-linecap="round" stroke-linejoin="round" stroke-miterlimit="1.4142" d="
	M384,253.1c3.5-0.7,8.3-1.2,11.9-1.2c3.9,0,7.7,0.4,11.3,1.2"/>
<path fill="none" stroke="#DEDEDD" stroke-width="0.5" stroke-linecap="round" stroke-linejoin="round" stroke-miterlimit="1.4142" d="
	M347,282.3c5.2-9.9,15.1-19.6,25.1-24.7"/>
<path fill="none" stroke="#DEDEDD" stroke-width="0.5" stroke-linecap="round" stroke-linejoin="round" stroke-miterlimit="1.4142" d="
	M343.6,317.7c-0.9-3.9-1.3-7.9-1.3-12c0-4.6,0.4-7.9,1.5-12.2"/>
<path fill="none" stroke="#DEDEDD" stroke-width="0.5" stroke-linecap="round" stroke-linejoin="round" stroke-miterlimit="1.4142" d="
	M371.8,353.6c-10.2-5.2-19-14.3-24.1-24.6"/>
<path fill="none" stroke="#DEDEDD" stroke-width="0.5" stroke-linecap="round" stroke-linejoin="round" stroke-miterlimit="1.4142" d="
	M371.8,353.6"/>
<path fill="none" stroke="#DEDEDD" stroke-width="0.5" stroke-linecap="round" stroke-linejoin="round" stroke-miterlimit="1.4142" d="
	M384.9,358.3"/>
<path fill="none" stroke="#DEDEDD" stroke-width="0.5" stroke-linecap="round" stroke-linejoin="round" stroke-miterlimit="1.4142" d="
	M408,358.1c-4,0.9-7.7,1.3-11.9,1.3c-3.8,0-8.6-1.1-12.2-1.8"/>
<path fill="none" stroke="#DEDEDD" stroke-width="0.5" stroke-linecap="round" stroke-linejoin="round" stroke-miterlimit="1.4142" d="
	M444.3,329.6c-5.2,11.1-13.5,19-24.7,24.4"/>
<path fill="none" stroke="#DEDEDD" stroke-width="0.5" stroke-linecap="round" stroke-linejoin="round" stroke-miterlimit="1.4142" d="
	M448.4,293.9c0.8,3.8,1.3,7.7,1.3,11.7c0,4.3-0.4,8.2-1.3,12.2"/>
<path fill="none" stroke="#DEDEDD" stroke-width="0.5" stroke-linecap="round" stroke-linejoin="round" stroke-miterlimit="1.4142" d="
	M448.4,293.9"/>
<path fill="none" stroke="#DEDEDD" stroke-width="0.5" stroke-linecap="round" stroke-linejoin="round" stroke-miterlimit="1.4142" d="
	M443.4,280.3"/>
<path fill="none" stroke="#DEDEDD" stroke-width="0.5" stroke-linecap="round" stroke-linejoin="round" stroke-miterlimit="1.4142" d="
	M420.1,257.7c9.9,5,18.7,14.5,23.9,24.2"/>
<g transform="matrix(0.821657,0,0,0.821657,30.163,480.43)">
	<path fill="none" stroke="#DEDEDD" stroke-linecap="round" stroke-linejoin="round" stroke-miterlimit="1.4142" d="M342.6-288.3
		c-13.3-5.1-22.7-17.8-22.7-33c0-19.4,15.7-35.1,35.1-35.1c19.4,0,35.1,15.7,35.1,35.1c0,1.5,0,3-0.3,4.5
		c-2.1-14.5-14.5-25.7-29.6-25.7c-16.6,0-29.9,13.3-29.9,29.9C330.8-302.5,335.3-293.7,342.6-288.3L342.6-288.3z"/>
</g>
<g transform="matrix(0.821657,0,0,0.821657,23.8604,475.046)">
	<path fill="none" stroke="#DEDEDD" stroke-linecap="round" stroke-linejoin="round" stroke-miterlimit="1.4142" d="M350.1-302.7
		c0-11.5,9.4-20.9,20.9-20.9s20.9,9.4,20.9,20.9c0,11.5-9.4,20.9-20.9,20.9S350.1-290.9,350.1-302.7z"/>
</g>
<g transform="matrix(0.821657,0,0,0.821657,30.163,480.43)">
	<path fill="none" stroke="#DEDEDD" stroke-linecap="round" stroke-linejoin="round" stroke-miterlimit="1.4142" d="M389.6-103.5
		c-1.5,14.2-11.4,26.5-26,30.5c-18.7,5-38-6.1-43-24.8c-5-18.7,6.1-38,24.8-43c1.5-0.4,2.9-0.8,4.5-0.9
		c-13.5,5.8-21.1,20.7-17.2,35.3c4.3,16.1,20.6,25.5,36.7,21.2C379-88.5,386.3-95.1,389.6-103.5L389.6-103.5z"/>
</g>
<g transform="matrix(0.821657,0,0,0.821657,23.8604,475.046)">
	<path fill="none" stroke="#DEDEDD" stroke-linecap="round" stroke-linejoin="round" stroke-miterlimit="1.4142" d="M377.1-91.4
		c-11.1,3-22.6-3.7-25.6-14.8c-3-11.1,3.7-22.6,14.8-25.6c11.1-3,22.6,3.7,25.6,14.8C394.8-105.9,388.2-94.4,377.1-91.4z"/>
</g>
<g transform="matrix(0.821657,0,0,0.821657,30.163,480.43)">
	<path fill="none" stroke="#DEDEDD" stroke-linecap="round" stroke-linejoin="round" stroke-miterlimit="1.4142" d="M546.4-146.4
		c14.2,1.5,26.5,11.4,30.5,26c5,18.7-6.1,38-24.8,43c-18.7,5-38-6.1-43-24.8c-0.4-1.5-0.8-2.9-0.9-4.5c5.8,13.5,20.7,21.1,35.3,17.2
		c16.1-4.3,25.5-20.6,21.2-36.7C561.5-135.7,554.8-143,546.4-146.4L546.4-146.4z"/>
</g>
<g transform="matrix(0.821657,0,0,0.821657,23.8604,475.046)">
	<path fill="none" stroke="#DEDEDD" stroke-linecap="round" stroke-linejoin="round" stroke-miterlimit="1.4142" d="M559.6-119.7
		c3,11.1-3.7,22.6-14.8,25.6c-11.1,3-22.6-3.7-25.6-14.8c-3-11.1,3.7-22.6,14.8-25.6S556.7-130.8,559.6-119.7z"/>
</g>
<g transform="matrix(0.821657,0,0,0.821657,30.163,480.43)">
	<path fill="none" stroke="#DEDEDD" stroke-linecap="round" stroke-linejoin="round" stroke-miterlimit="1.4142" d="M512.6-324.8
		c5.1-13.3,17.8-22.7,33-22.7c19.4,0,35.1,15.7,35.1,35.1s-15.7,35.1-35.1,35.1c-1.5,0-3,0-4.5-0.3c14.5-2.1,25.7-14.5,25.7-29.6
		c0-16.6-13.3-29.9-29.9-29.9C526.8-336.9,518-332.1,512.6-324.8L512.6-324.8z"/>
</g>
<g transform="matrix(0.821657,0,0,0.821657,23.8604,475.046)">
	<path fill="none" stroke="#DEDEDD" stroke-linecap="round" stroke-linejoin="round" stroke-miterlimit="1.4142" d="M541.2-318.4
		c11.5,0,20.9,9.4,20.9,20.9s-9.4,20.9-20.9,20.9c-11.5,0-20.9-9.4-20.9-20.9C520.4-309,529.7-318.4,541.2-318.4z"/>
</g>
<path fill="none" stroke="#DEDEDD" stroke-linecap="round" stroke-linejoin="round" stroke-miterlimit="1.4142" d="M383.8,239
	c3.9-0.7,8-1.1,12.3-1.1c4.3,0,7.7,0.3,11.8,1"/>
<path fill="none" stroke="#DEDEDD" stroke-linecap="round" stroke-linejoin="round" stroke-miterlimit="1.4142" d="M332.2,282.3
	c6.8-18.4,21.4-33.4,39.9-40.2"/>
<path fill="none" stroke="#DEDEDD" stroke-linecap="round" stroke-linejoin="round" stroke-miterlimit="1.4142" d="M329.3,317.5
	c-0.7-3.8-1-7.7-1-11.8c0-4.4-0.1-7.6,0.6-11.7"/>
<path fill="none" stroke="#DEDEDD" stroke-linecap="round" stroke-linejoin="round" stroke-miterlimit="1.4142" d="M372.3,369.2
	c-18.4-6.9-33.1-21.5-39.9-40.1"/>
<path fill="none" stroke="#DEDEDD" stroke-linecap="round" stroke-linejoin="round" stroke-miterlimit="1.4142" d="M372.3,369.2"/>
<path fill="none" stroke="#DEDEDD" stroke-linecap="round" stroke-linejoin="round" stroke-miterlimit="1.4142" d="M384.1,372.4"/>
<path fill="none" stroke="#DEDEDD" stroke-linecap="round" stroke-linejoin="round" stroke-miterlimit="1.4142" d="M407.8,372.5
	c-3.8,0.6-7.7,1-11.8,1c-4.1,0-8.1-0.4-12-1.1"/>
<path fill="none" stroke="#DEDEDD" stroke-linecap="round" stroke-linejoin="round" stroke-miterlimit="1.4142" d="M407.8,372.5"/>
<path fill="none" stroke="#DEDEDD" stroke-linecap="round" stroke-linejoin="round" stroke-miterlimit="1.4142" d="M420.6,368.9"/>
<path fill="none" stroke="#DEDEDD" stroke-linecap="round" stroke-linejoin="round" stroke-miterlimit="1.4142" d="M459.5,329.2
	c-7,18.4-21.8,33.1-39.9,40.1"/>
<path fill="none" stroke="#DEDEDD" stroke-linecap="round" stroke-linejoin="round" stroke-miterlimit="1.4142" d="M462.7,294
	c0.6,3.5,1.1,8,1.1,11.7c0,4-0.4,8-1.1,11.8"/>
<path fill="none" stroke="#DEDEDD" stroke-linecap="round" stroke-linejoin="round" stroke-miterlimit="1.4142" d="M420.1,242.3
	c18.2,7,32.8,21.5,39.6,39.5"/>
<path fill="none" stroke="#DEDEDD" stroke-width="0.5" stroke-linecap="round" stroke-linejoin="round" stroke-miterlimit="1.4142" d="
	M467.3,277.7c-0.9-14.6-12.5-26.1-27.2-27.2c3.4-2.8,7.6-4.4,12.2-4.4c10.6,0,19.2,8.6,19.2,19.2
	C471.7,270.1,469.9,274.5,467.3,277.7L467.3,277.7z"/>
<path fill="none" stroke="#DEDEDD" stroke-width="0.5" stroke-linecap="round" stroke-linejoin="round" stroke-miterlimit="1.4142" d="
	M442.1,363.8c13.7-4.6,22-18.9,19.2-33.3c3.6,2.5,6.2,6.2,7.4,10.6c2.7,10.2-3.4,20.8-13.6,23.6
	C450.6,366.1,446.1,365.7,442.1,363.8L442.1,363.8z"/>
<path fill="none" stroke="#DEDEDD" stroke-width="0.5" stroke-linecap="round" stroke-linejoin="round" stroke-miterlimit="1.4142" d="
	M349.1,247.6c-14,3.8-23,17.6-21,32.2c-3.5-2.7-5.9-6.5-6.8-11c-2.2-10.4,4.5-20.6,14.9-22.8C340.7,244.8,345.4,245.7,349.1,247.6
	L349.1,247.6z"/>
<path fill="none" stroke="#DEDEDD" stroke-width="0.5" stroke-linecap="round" stroke-linejoin="round" stroke-miterlimit="1.4142" d="
	M325.4,334c1.1,14.5,13,26.1,27.7,26.7c-3.3,2.9-7.5,4.5-12.1,4.6c-10.6,0.2-19.4-8.3-19.6-18.9C321.1,341.7,322.8,337.4,325.4,334
	L325.4,334z"/>
<path fill="none" stroke="#DEDEDD" stroke-linecap="round" stroke-linejoin="round" stroke-miterlimit="1.4142" d="M383.7,372.4V458
	"/>
<path fill="none" stroke="#DEDEDD" stroke-linecap="round" stroke-linejoin="round" stroke-miterlimit="1.4142" d="M383.7,358.2"/>
<path fill="none" stroke="#DEDEDD" stroke-width="0.5" stroke-linecap="round" stroke-linejoin="round" stroke-miterlimit="1.4142" d="
	M383.7,329.1v28.4"/>
<path fill="none" stroke="#DEDEDD" stroke-linecap="round" stroke-linejoin="round" stroke-miterlimit="1.4142" d="M383.7,284.1"/>
<path fill="none" stroke="#DEDEDD" stroke-width="0.5" stroke-linecap="round" stroke-linejoin="round" stroke-miterlimit="1.4142" d="
	M383.7,254.1v28.1"/>
<path fill="none" stroke="#DEDEDD" stroke-linecap="round" stroke-linejoin="round" stroke-miterlimit="1.4142" d="M383.7,238.4"/>
<path fill="none" stroke="#DEDEDD" stroke-linecap="round" stroke-linejoin="round" stroke-miterlimit="1.4142" d="M383.7,153.1
	v85.3"/>
<path fill="none" stroke="#DEDEDD" stroke-linecap="round" stroke-linejoin="round" stroke-miterlimit="1.4142" d="M372.6,241.4
	v-87.1"/>
<path fill="none" stroke="#DEDEDD" stroke-linecap="round" stroke-linejoin="round" stroke-miterlimit="1.4142" d="M372.6,241.4"/>
<path fill="none" stroke="#DEDEDD" stroke-width="0.5" stroke-linecap="round" stroke-linejoin="round" stroke-miterlimit="1.4142" d="
	M372.6,282.3v-23.9"/>
<path fill="none" stroke="#DEDEDD" stroke-width="0.5" stroke-linecap="round" stroke-linejoin="round" stroke-miterlimit="1.4142" d="
	M372.6,317.9v-24.5"/>
<path fill="none" stroke="#DEDEDD" stroke-width="0.5" stroke-linecap="round" stroke-linejoin="round" stroke-miterlimit="1.4142" d="
	M372.6,353.6v-24.5"/>
<path fill="none" stroke="#DEDEDD" stroke-linecap="round" stroke-linejoin="round" stroke-miterlimit="1.4142" d="M372.6,353.6"/>
<path fill="none" stroke="#DEDEDD" stroke-linecap="round" stroke-linejoin="round" stroke-miterlimit="1.4142" d="M372.6,457.1V370
	"/>
<path fill="none" stroke="#DEDEDD" stroke-linecap="round" stroke-linejoin="round" stroke-miterlimit="1.4142" d="M419.7,369.4v88"
	/>
<path fill="none" stroke="#DEDEDD" stroke-linecap="round" stroke-linejoin="round" stroke-miterlimit="1.4142" d="M419.7,354.3"/>
<path fill="none" stroke="#DEDEDD" stroke-width="0.5" stroke-linecap="round" stroke-linejoin="round" stroke-miterlimit="1.4142" d="
	M419.7,329.1v24.8"/>
<path fill="none" stroke="#DEDEDD" stroke-width="0.5" stroke-linecap="round" stroke-linejoin="round" stroke-miterlimit="1.4142" d="
	M419.7,317"/>
<path fill="none" stroke="#DEDEDD" stroke-width="0.5" stroke-linecap="round" stroke-linejoin="round" stroke-miterlimit="1.4142" d="
	M419.7,293.4v24.5"/>
<path fill="none" stroke="#DEDEDD" stroke-width="0.5" stroke-linecap="round" stroke-linejoin="round" stroke-miterlimit="1.4142" d="
	M419.7,281.3"/>
<path fill="none" stroke="#DEDEDD" stroke-width="0.5" stroke-linecap="round" stroke-linejoin="round" stroke-miterlimit="1.4142" d="
	M419.7,257.7v24.5"/>
<path fill="none" stroke="#DEDEDD" stroke-linecap="round" stroke-linejoin="round" stroke-miterlimit="1.4142" d="M419.7,240.5"/>
<path fill="none" stroke="#DEDEDD" stroke-linecap="round" stroke-linejoin="round" stroke-miterlimit="1.4142" d="M419.7,154.3V242
	"/>
<path fill="none" stroke="#DEDEDD" stroke-linecap="round" stroke-linejoin="round" stroke-miterlimit="1.4142" d="M408.3,239v-85.3
	l0,0"/>
<path fill="none" stroke="#DEDEDD" stroke-linecap="round" stroke-linejoin="round" stroke-miterlimit="1.4142" d="M408.3,239"/>
<path fill="none" stroke="#DEDEDD" stroke-width="0.5" stroke-linecap="round" stroke-linejoin="round" stroke-miterlimit="1.4142" d="
	M408.3,282.3v-28.4"/>
<path fill="none" stroke="#DEDEDD" stroke-width="0.5" stroke-linecap="round" stroke-linejoin="round" stroke-miterlimit="1.4142" d="
	M408.3,329.7"/>
<path fill="none" stroke="#DEDEDD" stroke-width="0.5" stroke-linecap="round" stroke-linejoin="round" stroke-miterlimit="1.4142" d="
	M408.3,357.9v-28.7"/>
<path fill="none" stroke="#DEDEDD" stroke-linecap="round" stroke-linejoin="round" stroke-miterlimit="1.4142" d="M408.3,357.9"/>
<path fill="none" stroke="#DEDEDD" stroke-linecap="round" stroke-linejoin="round" stroke-miterlimit="1.4142" d="M408.3,458.6
	v-85.9"/>
<path fill="none" stroke="#DEDEDD" stroke-linecap="round" stroke-linejoin="round" stroke-miterlimit="1.4142" d="M459.7,282.3h88"
	/>
<path fill="none" stroke="#DEDEDD" stroke-width="0.5" stroke-linecap="round" stroke-linejoin="round" stroke-miterlimit="1.4142" d="
	M419.7,282.3h24.5"/>
<path fill="none" stroke="#DEDEDD" stroke-width="0.5" stroke-linecap="round" stroke-linejoin="round" stroke-miterlimit="1.4142" d="
	M383.7,282.3h24.5"/>
<path fill="none" stroke="#DEDEDD" stroke-width="0.5" stroke-linecap="round" stroke-linejoin="round" stroke-miterlimit="1.4142" d="
	M346.8,282.3h25.4"/>
<path fill="none" stroke="#DEDEDD" stroke-linecap="round" stroke-linejoin="round" stroke-miterlimit="1.4142" d="M244.3,282.3
	h87.1"/>
<path fill="none" stroke="#DEDEDD" stroke-linecap="round" stroke-linejoin="round" stroke-miterlimit="1.4142" d="M329,293.4h-85"
	/>
<path fill="none" stroke="#DEDEDD" stroke-linecap="round" stroke-linejoin="round" stroke-miterlimit="1.4142" d="M343.8,293.4"/>
<path fill="none" stroke="#DEDEDD" stroke-width="0.5" stroke-linecap="round" stroke-linejoin="round" stroke-miterlimit="1.4142" d="
	M372.6,293.4h-28.7"/>
<path fill="none" stroke="#DEDEDD" stroke-linecap="round" stroke-linejoin="round" stroke-miterlimit="1.4142" d="M372.3,293.4"/>
<path fill="none" stroke="#DEDEDD" stroke-width="0.5" stroke-linecap="round" stroke-linejoin="round" stroke-miterlimit="1.4142" d="
	M420.4,293.4"/>
<path fill="none" stroke="#DEDEDD" stroke-width="0.5" stroke-linecap="round" stroke-linejoin="round" stroke-miterlimit="1.4142" d="
	M448.2,293.4h-28.4"/>
<path fill="none" stroke="#DEDEDD" stroke-linecap="round" stroke-linejoin="round" stroke-miterlimit="1.4142" d="M462.7,293.4"/>
<path fill="none" stroke="#DEDEDD" stroke-linecap="round" stroke-linejoin="round" stroke-miterlimit="1.4142" d="M549.2,293.4H463
	"/>
<path fill="none" stroke="#DEDEDD" stroke-linecap="round" stroke-linejoin="round" stroke-miterlimit="1.4142" d="M462.7,317.9
	h86.2"/>
<path fill="none" stroke="#DEDEDD" stroke-linecap="round" stroke-linejoin="round" stroke-miterlimit="1.4142" d="M462.7,317.9"/>
<path fill="none" stroke="#DEDEDD" stroke-width="0.5" stroke-linecap="round" stroke-linejoin="round" stroke-miterlimit="1.4142" d="
	M420.4,317.9h28.1"/>
<path fill="none" stroke="#DEDEDD" stroke-width="0.5" stroke-linecap="round" stroke-linejoin="round" stroke-miterlimit="1.4142" d="
	M419.7,317.9"/>
<path fill="none" stroke="#DEDEDD" stroke-linecap="round" stroke-linejoin="round" stroke-miterlimit="1.4142" d="M383.7,318.6"/>
<path fill="none" stroke="#DEDEDD" stroke-width="0.5" stroke-linecap="round" stroke-linejoin="round" stroke-miterlimit="1.4142" d="
	M383.7,293.4v24.5"/>
<path fill="none" stroke="#DEDEDD" stroke-linecap="round" stroke-linejoin="round" stroke-miterlimit="1.4142" d="M383.7,293.4"/>
<path fill="none" stroke="#DEDEDD" stroke-width="0.5" stroke-linecap="round" stroke-linejoin="round" stroke-miterlimit="1.4142" d="
	M408.3,317.3v-23.9"/>
<path fill="none" stroke="#DEDEDD" stroke-width="0.5" stroke-linecap="round" stroke-linejoin="round" stroke-miterlimit="1.4142" d="
	M408.3,317.9"/>
<path fill="none" stroke="#DEDEDD" stroke-width="0.5" stroke-linecap="round" stroke-linejoin="round" stroke-miterlimit="1.4142" d="
	M408.3,293.4h-24.5"/>
<path fill="none" stroke="#DEDEDD" stroke-width="0.5" stroke-linecap="round" stroke-linejoin="round" stroke-miterlimit="1.4142" d="
	M383.7,317.9h24.2"/>
<path fill="none" stroke="#DEDEDD" stroke-width="0.5" stroke-linecap="round" stroke-linejoin="round" stroke-miterlimit="1.4142" d="
	M343.5,317.6l28.7,0.3"/>
<path fill="none" stroke="#DEDEDD" stroke-linecap="round" stroke-linejoin="round" stroke-miterlimit="1.4142" d="M329.3,317.9"/>
<path fill="none" stroke="#DEDEDD" stroke-linecap="round" stroke-linejoin="round" stroke-miterlimit="1.4142" d="M243.4,317.9
	h85.9"/>
<path fill="none" stroke="#DEDEDD" stroke-linecap="round" stroke-linejoin="round" stroke-miterlimit="1.4142" d="M332,329.1h-87.7
	"/>
<path fill="none" stroke="#DEDEDD" stroke-linecap="round" stroke-linejoin="round" stroke-miterlimit="1.4142" d="M348.7,329.1"/>
<path fill="none" stroke="#DEDEDD" stroke-width="0.5124" stroke-linecap="round" stroke-linejoin="round" stroke-miterlimit="1.4142" d="
	M372.6,329.1h-24.8"/>
<path fill="none" stroke="#DEDEDD" stroke-width="0.5" stroke-linecap="round" stroke-linejoin="round" stroke-miterlimit="1.4142" d="
	M408.3,329.1h-24.5"/>
<path fill="none" stroke="#DEDEDD" stroke-width="0.5" stroke-linecap="round" stroke-linejoin="round" stroke-miterlimit="1.4142" d="
	M421,329.1"/>
<path fill="none" stroke="#DEDEDD" stroke-width="0.5" stroke-linecap="round" stroke-linejoin="round" stroke-miterlimit="1.4142" d="
	M444.3,329.1h-24.5"/>
<path fill="none" stroke="#DEDEDD" stroke-linecap="round" stroke-linejoin="round" stroke-miterlimit="1.4142" d="M460,329.1"/>
<path fill="none" stroke="#DEDEDD" stroke-linecap="round" stroke-linejoin="round" stroke-miterlimit="1.4142" d="M546.8,329.1
	h-86.5"/>
<polygon fill="none" stroke="#DEDEDD" stroke-width="0.9744" stroke-linecap="round" stroke-linejoin="round" stroke-miterlimit="1.4142" points="
	396.5,31.2 434.9,38.7 418.8,66.9 447.3,58.1 438.5,98.3 409.5,84.7 416.1,115.3 384.7,115.3 391.3,91.4 358.3,100.4 369.2,50.5 
	397.7,63.2 "/>
<polygon fill="none" stroke="#DEDEDD" stroke-width="0.9744" stroke-linecap="round" stroke-linejoin="round" stroke-miterlimit="1.4142" points="
	526.2,81.7 502,115.3 534.1,130.1 523.8,153.4 476.6,124.3 491.7,53.5 "/>
<path fill="none" stroke="#DEDEDD" stroke-width="0.9744" stroke-linecap="round" stroke-linejoin="round" stroke-miterlimit="1.4142" d="
	M317.5,46.9c0,0,0.3,28.1,2.7,32.7c2.4,4.5,24.5,33.3,24.5,33.3s-23.3,7.9-26.3,9.4c-3,1.5-24.2,12.1-24.2,12.1s-4.5-31.8-7.3-39
	c-2.7-7.3-20.6-31.2-20.6-31.2s22.7-9.7,27.2-10.9C298.1,52.3,317.5,46.9,317.5,46.9z"/>
<path fill="none" stroke="#DEDEDD" stroke-width="0.9744" stroke-linecap="round" stroke-linejoin="round" stroke-miterlimit="1.4142" d="
	M257.3,128.6l28.4,26.9c0,0-28.1,15.4-31.5,20c-3.3,4.5-13.3,16-13.3,16s-20.3-27.2-29-32.7s-35.7-13.9-35.7-13.9
	s32.4-30.3,34.5-30.6c2.1-0.3,12.1,10,13,15.1c0.9,5.1,2.1,20.9,5.1,22.4c3,1.8,12.1,4.5,18.2,0.9c5.7-3.6,10.3-5.7,11.2-10.3
	C259.1,137.9,257.3,128.6,257.3,128.6z"/>
<path fill="none" stroke="#DEDEDD" stroke-width="0.9026" stroke-linecap="round" stroke-linejoin="round" stroke-miterlimit="1.4142" d="
	M209.5,250.5l-4.8,44.8c0,0-22.1-13.9-29.6-16c-7.6-2.1-29.9,6.1-32.7,7.6c-2.7,1.5-14.5,6.4-19.1,4.5c-2.1-0.9-3-4.2-3-9.1
	s1.2-8.8,2.1-9.4s6.1-5.1,7.6-6.4s4.2-4.2,4.2-4.2l9.7-10.3l38.1-29c0,0-13.9-2.1-18.5,0c-4.5,2.1-13.9,6.1-17.2,7.3
	c-3.3,1.2-5.1,1.5-7,2.7c-2.1,1.5,12.4-41.4,12.4-41.4s12.4,10.6,23.6,13s21.8,1.8,30.9,0.9c9.1-0.9,12.7,1.5,12.4,3.3
	c-0.3,1.8-1.5,19.4-2.7,21.5c-1.2,2.1-0.3,5.7-6.1,6.7c-5.7,0.6-48.7,14.2-48.7,14.2s13,5.1,20.6,4.8c7.6-0.3,15.7,0,20.6-1.8
	C207.1,252.3,209.5,250.5,209.5,250.5z"/>
<ellipse fill="none" stroke="#DEDEDD" stroke-width="0.9744" stroke-linecap="round" stroke-linejoin="round" stroke-miterlimit="1.4142" cx="171.1" cy="366.1" rx="15.4" ry="15.7"/>
<ellipse fill="none" stroke="#DEDEDD" stroke-width="0.9744" stroke-linecap="round" stroke-linejoin="round" stroke-miterlimit="1.4142" cx="171.1" cy="364.5" rx="40.2" ry="41.1"/>
<path fill="none" stroke="#DEDEDD" stroke-width="0.9247" stroke-linecap="round" stroke-linejoin="round" stroke-miterlimit="1.4142" d="
	M230.1,411.1c0,0,26.6,26.3,28.7,28.1c2.1,1.8,12.1,11.2,11.2,14.5c-0.6,3.3-21.2,26-21.2,26s-10.3,9.7-13.6,13.3s-6.7,11.2-7,13.3
	S221,511,221,511l-7.9-5.4c0,0-9.4-8.8-10.9-9.7c-1.5-0.9-17.5-12.4-17.8-17.2s3.6-13.9,6.1-15.4c2.4-1.5,8.2,0.6,9.1,1.8
	c0.9,1.5,0.6,8.8,1.8,11.5c1.2,2.7,3.9,7.6,4.5,7.9c0.6,0.3,16.9-14.2,16.9-14.2L211,455.3l-8.2-1.8c0,0,9.7-10.3,12.1-10.3
	s3.9,9.1,3.9,9.1l5.7,7l3.9,1.5l15.4-15.4l3.9-4.8l-18.2-16.3l-17.2,5.1L230.1,411.1z"/>
<path fill="none" stroke="#DEDEDD" stroke-width="0.8929" stroke-linecap="round" stroke-linejoin="round" stroke-miterlimit="1.4142" d="
	M384.7,510.1c0,0-13.3,20.6-14.5,33.6s3.3,40.5,3.3,40.5l-50.5-12.1l14.8-22.1L316,515.8c0,0-5.7,14.8-5.7,24.5
	c0.3,9.7,2.1,31.2,2.1,31.2l-34.5-12.1c0,0,9.1-38.7,9.1-46.3c0-7.6-4.5-18.5-5.4-22.1s3.9-14.2,3.9-14.2s7.3-1.2,12.7,6.4
	c5.7,7.6,20.9,13.6,23,15.1s1.8,5.1,0.9,5.7c-0.6,0.6-3.3,5.1-3.3,5.1l21.2,32.4c0,0,10.3-7.6,10-16.3c-0.3-8.8-3.3-14.8-4.8-19.1
	c-1.5-4.2-4.8-8.8-4.8-8.8s7.3-2.7,13.3-0.9c6.1,1.8,17.5,3.6,20.3,5.1C376.8,503.7,384.7,510.1,384.7,510.1z"/>
<path fill="none" stroke="#DEDEDD" stroke-width="0.9744" stroke-linecap="round" stroke-linejoin="round" stroke-miterlimit="1.4142" d="
	M471.8,491c0,0,1.8,28.4,4.8,33.9c3,5.1,9.4,16.9,14.5,21.5c5.1,4.5,7.6,5.1,6.4,9.1c-1.2,3.6-12.7,13.3-12.7,13.3l-20.9,11.5h-9.7
	c0,0,5.1-7.9,2.1-16c-3-8.2-7.9-26.9-10.9-32.7c-3-5.7-11.8-11.8-16.6-16.9c-4.5-5.1-8.2-7.3-8.2-7.3s16-10.3,24.5-12.7
	c8.5-2.4,21.8-6.4,23.6-6.4C470.6,488.3,471.8,491,471.8,491z"/>
<path fill="none" stroke="#DEDEDD" stroke-width="0.9744" stroke-linecap="round" stroke-linejoin="round" stroke-miterlimit="1.4142" d="
	M597,316.7c0,0-3,25.1-7,29.9c-4.2,4.8-20,24.5-19.4,25.7c0.6,1.2,6.7,4.5,16.3,2.7s19.1-6.4,25.7-9.7s11.2-3.9,11.2-3.9
	s-5.4,23.3-12.4,28.7c-6.7,5.4-10.9,7.6-10.9,7.6l21.8,7c0,0,1.5-16.9,4.8-22.7s8.8-12.7,8.8-12.7s10-3.6,10.6,0.6
	c0.6,4.5-1.2,12.4-1.2,12.4s-0.9,7.9-1.8,10.3c-0.9,2.4-5.1,9.1-6.4,10.3c-1.2,1.2-8.5,7.9-8.5,7.9l16.6,7c0,0,8.2-26.9,9.1-31.8
	c0.9-4.8,5.4-14.2,5.4-15.1s0.6-7.9,0.6-7.9l2.1-8.2c0,0-11.5-0.6-26.6-6.1c-15.1-5.1-16.9-7.9-24.2-16.3
	C604.3,324.9,597,316.7,597,316.7z"/>
<ellipse fill="none" stroke="#DEDEDD" stroke-width="0.9744" stroke-linecap="round" stroke-linejoin="round" stroke-miterlimit="1.4142" cx="621.2" cy="255" rx="17.8" ry="18.5"/>
<ellipse fill="none" stroke="#DEDEDD" stroke-width="0.9744" stroke-linecap="round" stroke-linejoin="round" stroke-miterlimit="1.4142" cx="619.7" cy="255" rx="40.5" ry="41.4"/>
<path fill="none" stroke="#DEDEDD" stroke-width="0.9744" stroke-linecap="round" stroke-linejoin="round" stroke-miterlimit="1.4142" d="
	M543.2,175.8l16,3.3c0,0,12.1,17.2,13.9,20.6c1.8,3.3,7.9,17.2,7.9,17.2s13.6-8.5,13.9-9.7c0.3-1.2-10.3-13-14.2-16.3
	c-4.2-3.3-12.4-11.8-11.5-14.8c0.9-3,6.1-8.2,11.8-9.1c5.4-0.9,13-0.6,14.2,0c0.9,0.6,5.4,6.4,6.4,8.8c0.6,2.1-1.2,8.8,0,10
	s9.1-4.8,9.1-4.8s4.2-3.3,4.5-4.2c0.6-0.6,1.8-2.4,1.8-2.4s-9.4-5.1-13-9.4c-3.6-4.2-8.2-8.5-8.5-10.6c-0.3-2.1-1.5-8.2,0.3-10.3
	c1.8-2.1,14.5-13.9,14.5-13.9l-14.2-11.8c0,0-26.9,26.9-32.7,33C558,157.3,543.2,175.8,543.2,175.8z"/>
<path fill="none" stroke="#DEDEDD" stroke-width="0.9744" stroke-linecap="round" stroke-linejoin="round" stroke-miterlimit="1.4142" d="
	M563.1,414.5l-39.3,36.3l30.3,14.5c0,0-14.5,12.7-18.2,21.8s-13.6,24.8-3.6,32.7c10,7.9,22.7,9.1,30.9,6.7
	c8.2-2.4,30.3-18.8,33.9-23.6s19.7-32.1,19.7-32.1H607c0,0-16.6-11.8-27.2-28.4C569.2,425.6,563.1,414.5,563.1,414.5z"/>
</svg>
