<?xml version="1.0" encoding="utf-8"?>
<!-- Generator: Adobe Illustrator 18.1.1, SVG Export Plug-In . SVG Version: 6.00 Build 0)  -->
<!DOCTYPE svg PUBLIC "-//W3C//DTD SVG 1.1//EN" "http://www.w3.org/Graphics/SVG/1.1/DTD/svg11.dtd">
<svg version="1.1" id="Layer_1" xmlns="http://www.w3.org/2000/svg" xmlns:xlink="http://www.w3.org/1999/xlink" x="0px" y="0px"
	 viewBox="2.5 238.9 786.6 131.2" enable-background="new 2.5 238.9 786.6 131.2" xml:space="preserve">
<g>
	<path fill="#FFFFFF" d="M38,242.7H2.5v123.8h35.2c18.7,0,32.3-4.4,44.2-14.3c14.1-11.7,22.4-29.3,22.4-47.5
		C104.4,268.2,77.1,242.7,38,242.7z M66.1,335.8c-7.7,6.9-17.4,9.9-33,9.9h-6.5v-81.8h6.5c15.6,0,25.1,2.8,33,10
		c8.3,7.4,13.3,19,13.3,30.9C79.6,316.5,74.6,328.4,66.1,335.8z"/>
	<rect x="115.6" y="242.7" fill="#FFFFFF" width="24.2" height="123.8"/>
	<path fill="#FFFFFF" d="M198.8,290.2c-14.5-5.4-18.7-8.8-18.7-15.6c0-7.8,7.5-13.7,18-13.7c7.3,0,13.2,3,19.5,10l12.7-16.5
		c-10.4-9.1-22.8-13.7-36.4-13.7c-21.9,0-38.7,15.2-38.7,35.5c0,17,7.8,25.7,30.5,33.9c9.5,3.3,14.3,5.5,16.8,7
		c4.9,3.2,7.3,7.7,7.3,12.8c0,10-7.9,17.4-18.7,17.4c-11.5,0-20.9-5.8-26.4-16.5l-15.6,15c11.1,16.4,24.6,23.6,42.9,23.6
		c25.1,0,42.8-16.6,42.8-40.7C234.4,309.2,226.2,300.3,198.8,290.2z"/>
	<path fill="#FFFFFF" d="M242.1,304.7c0,36.4,28.6,64.7,65.3,64.7c10.4,0,19.3-2,30.2-7.3v-28.5c-9.6,9.6-18.2,13.6-29.2,13.6
		c-24.3,0-41.6-17.7-41.6-42.8c0-23.8,17.8-42.5,40.5-42.5c11.5,0,20.2,4.1,30.2,14v-28.4c-10.6-5.4-19.3-7.7-29.7-7.7
		C271.4,239.9,242.1,268.7,242.1,304.7z"/>
	<polygon fill="#FFFFFF" points="529.3,325.9 496.3,242.7 469.9,242.7 522.5,369.8 535.4,369.8 589,242.7 562.7,242.7 	"/>
	<polygon fill="#FFFFFF" points="599.8,366.5 668.4,366.5 668.4,345.7 624,345.7 624,312.1 666.7,312.1 666.7,291.1 624,291.1 
		624,263.7 668.4,263.7 668.4,242.7 599.8,242.7 	"/>
	<path fill="#FFFFFF" d="M764,279.3c0-23.2-16-36.6-43.8-36.6h-35.8v123.8h24.2v-49.8h3.2l33.4,49.8h29.7l-39.1-52.1
		C754,310.7,764,298.3,764,279.3z M715.6,299.7h-7.1v-37.5h7.4c15,0,23.2,6.3,23.2,18.3C739.2,293,731,299.7,715.6,299.7z"/>
	<g>
		<path fill="#FFFFFF" d="M783.3,249.2c0-2.1-1.5-3.4-4.1-3.4h-3.6v11h2.6v-4.2l3,4.2h3.2l-3.6-4.5
			C782.5,251.8,783.3,250.8,783.3,249.2z M778.7,250.8h-0.4v-2.9h0.5c1.3,0,2,0.5,2,1.5C780.6,250.2,780,250.8,778.7,250.8z"/>
		<path fill="#FFFFFF" d="M779.7,241.8c-5.3,0-9.5,4.2-9.5,9.5c0,5.3,4.2,9.5,9.5,9.5c5.1,0,9.4-4.2,9.4-9.5
			C789.1,246,784.9,241.8,779.7,241.8z M779.6,259.1c-4.2,0-7.5-3.4-7.5-7.8s3.4-7.8,7.5-7.8c4.2,0,7.5,3.6,7.5,7.8
			C787.2,255.6,783.8,259.1,779.6,259.1z"/>
	</g>
	<g>
		<g>
			<path fill="#FFFFFF" d="M476.8,304.5c0,36.2-29.3,65.6-65.6,65.6c-36.2,0-65.6-29.3-65.6-65.6c0-36.2,29.3-65.6,65.6-65.6
				C447.3,238.9,476.8,268.3,476.8,304.5z"/>
			<path opacity="0.65" fill="#FFFFFF" enable-background="new    " d="M476.8,304.5c0,36.2-29.3,65.6-65.6,65.6
				c-36.2,0-65.6-29.3-65.6-65.6c0-36.2,29.3-65.6,65.6-65.6C447.3,238.9,476.8,268.3,476.8,304.5z"/>
		</g>
		<g opacity="0.5" enable-background="new    ">
			<g>
				<path id="SVGID_1_" opacity="0.5" fill="#FFFFFF" enable-background="new    " d="M476.8,304.5c0,36.2-29.4,65.6-65.6,65.6
					s-65.6-29.3-65.6-65.6c0-36.2,29.3-65.6,65.6-65.6C447.3,238.9,476.8,268.3,476.8,304.5z"/>
			</g>
			<g>
				<defs>
					<path id="SVGID_2_" d="M476.8,304.5c0,36.2-29.4,65.6-65.6,65.6s-65.6-29.3-65.6-65.6c0-36.2,29.3-65.6,65.6-65.6
						C447.3,238.9,476.8,268.3,476.8,304.5z"/>
				</defs>
				<clipPath id="SVGID_3_">
					<use xlink:href="#SVGID_2_"  overflow="visible"/>
				</clipPath>
				<g clip-path="url(#SVGID_3_)">
					<path fill="#FFFFFF" d="M478.2,304.7c0,37-30,66.9-66.9,66.9s-66.9-30-66.9-66.9s30-66.9,66.9-66.9
						C448.3,237.8,478.2,267.8,478.2,304.7z"/>
					<path fill="#FFFFFF" d="M411.4,237.8c37,0,66.9,30,66.9,66.9s-30,66.9-66.9,66.9s-66.9-30-66.9-66.9S374.5,237.8,411.4,237.8z"
						/>
					<path fill="#FFFFFF" d="M411.4,238c37,0,66.9,30,66.9,66.9s-30,66.9-66.9,66.9s-66.9-30-66.9-66.9S374.5,238,411.4,238z"/>
					<path fill="#FFFFFF" d="M411.4,238c37,0,66.9,30,66.9,66.9s-30,66.9-66.9,66.9s-66.9-30-66.9-66.9S374.5,238,411.4,238z"/>
					<path fill="#FFFFFF" d="M411.4,238c37,0,66.9,30,66.9,66.9s-30,66.9-66.9,66.9s-66.9-30-66.9-66.9
						C344.7,267.9,374.6,238,411.4,238z"/>
					<path fill="#FFFFFF" d="M411.6,238.1c37,0,66.9,30,66.9,66.9s-30,66.9-66.9,66.9s-66.9-30-66.9-66.9
						C344.7,268,374.6,238.1,411.6,238.1z"/>
					<path fill="#FFFFFF" d="M411.6,238.1c37,0,66.9,30,66.9,66.9s-30,66.9-66.9,66.9s-66.9-30-66.9-66.9
						C344.7,268,374.6,238.1,411.6,238.1z"/>
					<path fill="#FFFFFF" d="M411.6,238.2c37,0,66.9,30,66.9,66.9s-30,66.9-66.9,66.9s-66.9-30-66.9-66.9
						C344.8,268,374.7,238.2,411.6,238.2z"/>
					<path fill="#FFFFFF" d="M411.7,238.2c37,0,66.8,30,66.8,66.9s-30,66.9-66.8,66.9c-37,0-66.9-30-66.9-66.9
						C344.8,268.2,374.7,238.2,411.7,238.2z"/>
					<path fill="#FFFFFF" d="M411.7,238.2c37,0,66.8,30,66.8,66.8c0,37-30,66.8-66.8,66.8c-37,0-66.8-30-66.8-66.8
						C344.8,268.2,374.7,238.2,411.7,238.2z"/>
					<path fill="#FFFFFF" d="M411.7,238.3c37,0,66.8,30,66.8,66.8c0,37-30,66.8-66.8,66.8c-37,0-66.8-30-66.8-66.8
						C344.9,268.2,374.7,238.3,411.7,238.3z"/>
					<path fill="#FFFFFF" d="M411.7,238.3c37,0,66.8,30,66.8,66.8c0,37-30,66.8-66.8,66.8c-37,0-66.8-30-66.8-66.8
						S374.9,238.3,411.7,238.3z"/>
					<path fill="#FFFFFF" d="M411.8,238.3c37,0,66.8,30,66.8,66.8c0,37-30,66.8-66.8,66.8c-37,0-66.8-30-66.8-66.8
						C344.9,268.3,374.9,238.3,411.8,238.3z"/>
					<path fill="#FFFFFF" d="M411.8,238.5c37,0,66.8,30,66.8,66.8c0,37-30,66.8-66.8,66.8c-37,0-66.8-30-66.8-66.8
						C345,268.3,374.9,238.5,411.8,238.5z"/>
					<path fill="#FFFFFF" d="M411.8,238.5c37,0,66.8,30,66.8,66.8c0,37-30,66.8-66.8,66.8c-37,0-66.8-30-66.8-66.8
						S375,238.5,411.8,238.5z"/>
					<path fill="#FFFFFF" d="M412,238.5c36.8,0,66.8,30,66.8,66.8c0,37-30,66.8-66.8,66.8c-37,0-66.8-30-66.8-66.8
						C345,268.4,375,238.5,412,238.5z"/>
					<path fill="#FFFFFF" d="M412,238.6c36.8,0,66.8,30,66.8,66.8s-30,66.8-66.8,66.8c-37,0-66.8-30-66.8-66.8S375,238.6,412,238.6z
						"/>
					<path fill="#FFFFFF" d="M412,238.6c36.8,0,66.8,30,66.8,66.8s-30,66.8-66.8,66.8c-37,0-66.8-30-66.8-66.8
						S375.1,238.6,412,238.6z"/>
					<path fill="#FFFFFF" d="M412,238.7c36.8,0,66.8,30,66.8,66.8s-30,66.8-66.8,66.8c-37,0-66.8-30-66.8-66.8
						C345.2,268.6,375.1,238.7,412,238.7z"/>
					<path fill="#FFFFFF" d="M412.1,238.7c36.8,0,66.8,30,66.8,66.8s-30,66.8-66.8,66.8s-66.8-30-66.8-66.8S375.1,238.7,412.1,238.7
						z"/>
					<path fill="#FFFFFF" d="M412.1,238.7c36.8,0,66.8,30,66.8,66.8s-30,66.8-66.8,66.8s-66.8-30-66.8-66.8S375.1,238.7,412.1,238.7
						z"/>
					<path fill="#FFFFFF" d="M412.1,238.9c36.8,0,66.8,30,66.8,66.8s-30,66.8-66.8,66.8s-66.8-29.8-66.8-66.8
						S375.3,238.9,412.1,238.9z"/>
					<path fill="#FFFFFF" d="M412.1,238.9c36.8,0,66.8,29.8,66.8,66.8c0,36.8-29.8,66.8-66.8,66.8c-36.8,0-66.8-29.8-66.8-66.8
						C345.4,268.8,375.3,238.9,412.1,238.9z"/>
					<path fill="#FFFFFF" d="M412.2,238.9c36.8,0,66.8,29.8,66.8,66.8c0,36.8-29.8,66.8-66.8,66.8c-36.8,0-66.8-29.8-66.8-66.8
						C345.4,268.8,375.3,238.9,412.2,238.9z"/>
					<path fill="#FFFFFF" d="M412.2,239c36.8,0,66.8,29.8,66.8,66.8c0,36.8-29.8,66.8-66.8,66.8c-36.8,0-66.8-29.8-66.8-66.8
						C345.4,268.8,375.4,239,412.2,239z"/>
					<path fill="#FFFFFF" d="M412.2,239c36.8,0,66.8,29.8,66.8,66.8c0,36.8-29.8,66.8-66.8,66.8c-36.8,0-66.8-29.8-66.8-66.8
						C345.6,269,375.4,239,412.2,239z"/>
					<path fill="#FFFFFF" d="M412.4,239.1c36.8,0,66.8,29.8,66.8,66.8c0,36.8-29.8,66.8-66.8,66.8c-36.8,0-66.8-29.8-66.8-66.8
						S375.4,239.1,412.4,239.1z"/>
					<path fill="#FFFFFF" d="M412.4,239.1c36.8,0,66.8,29.8,66.8,66.8c0,36.8-29.8,66.8-66.8,66.8c-36.8,0-66.8-29.8-66.8-66.8
						S375.5,239.1,412.4,239.1z"/>
					<path fill="#FFFFFF" d="M412.4,239.1c36.8,0,66.8,30,66.8,66.8s-29.8,66.8-66.8,66.8c-36.8,0-66.8-29.8-66.8-66.8
						C345.7,269.1,375.5,239.1,412.4,239.1z"/>
					<path fill="#FFFFFF" d="M412.4,239.3c36.8,0,66.7,29.8,66.7,66.7s-29.8,66.7-66.7,66.7s-66.7-29.8-66.7-66.7
						S375.5,239.3,412.4,239.3z"/>
					<path fill="#FFFFFF" d="M412.5,239.3c36.8,0,66.7,29.8,66.7,66.7s-29.8,66.7-66.7,66.7s-66.7-29.8-66.7-66.7
						C345.7,269.1,375.5,239.3,412.5,239.3z"/>
					<path fill="#FFFFFF" d="M412.5,239.3c36.8,0,66.7,29.8,66.7,66.7s-29.8,66.7-66.7,66.7s-66.7-29.8-66.7-66.7
						C345.8,269.2,375.7,239.3,412.5,239.3z"/>
					<path fill="#FFFFFF" d="M412.5,239.4c36.8,0,66.7,29.8,66.7,66.7s-29.8,66.7-66.7,66.7s-66.7-29.8-66.7-66.7
						S375.7,239.4,412.5,239.4z"/>
					<path fill="#FFFFFF" d="M412.5,239.4c36.8,0,66.7,29.8,66.7,66.7s-29.8,66.7-66.7,66.7s-66.7-29.8-66.7-66.7
						S375.7,239.4,412.5,239.4z"/>
					<path fill="#FFFFFF" d="M412.6,239.4c36.8,0,66.7,29.8,66.7,66.7s-29.8,66.7-66.7,66.7S346,342.9,346,306.1
						C345.8,269.4,375.8,239.4,412.6,239.4z"/>
					<path fill="#FFFFFF" d="M412.6,239.5c36.8,0,66.7,29.8,66.7,66.7s-29.8,66.7-66.7,66.7S346,343,346,306.2
						S375.8,239.5,412.6,239.5z"/>
					<path fill="#FFFFFF" d="M412.6,239.5c36.8,0,66.7,29.8,66.7,66.7s-29.8,66.7-66.7,66.7S346,343,346,306.2
						S375.8,239.5,412.6,239.5z"/>
					<path fill="#FFFFFF" d="M412.8,239.7c36.8,0,66.7,29.8,66.7,66.7S449.6,373,412.8,373s-66.7-29.8-66.7-66.7
						C346,269.5,375.9,239.7,412.8,239.7z"/>
					<path fill="#FFFFFF" d="M412.8,239.7c36.8,0,66.7,29.8,66.7,66.7S449.6,373,412.8,373s-66.7-29.8-66.7-66.7
						S375.9,239.7,412.8,239.7z"/>
					<path fill="#FFFFFF" d="M412.8,239.7c36.8,0,66.7,29.8,66.7,66.7S449.6,373,412.8,373s-66.7-29.8-66.7-66.7
						S375.9,239.7,412.8,239.7z"/>
					<path fill="#FFFFFF" d="M412.8,239.8c36.8,0,66.7,29.8,66.7,66.7s-29.8,66.7-66.7,66.7s-66.7-29.8-66.7-66.7
						S375.9,239.8,412.8,239.8z"/>
					<path fill="#FFFFFF" d="M412.9,239.8c36.8,0,66.7,29.8,66.7,66.7s-29.8,66.7-66.7,66.7s-66.7-29.8-66.7-66.7
						S376.1,239.8,412.9,239.8z"/>
					<path fill="#FFFFFF" d="M412.9,239.8c36.8,0,66.7,29.8,66.7,66.7s-29.8,66.7-66.7,66.7s-66.7-29.8-66.7-66.7
						S376.1,239.8,412.9,239.8z"/>
					<path fill="#FFFFFF" d="M412.9,239.9c36.8,0,66.7,29.8,66.7,66.7s-29.8,66.7-66.7,66.7s-66.7-29.8-66.7-66.7
						S376.1,239.9,412.9,239.9z"/>
					<path fill="#FFFFFF" d="M412.9,239.9c36.8,0,66.7,29.8,66.7,66.7s-29.8,66.7-66.7,66.7s-66.7-29.8-66.7-66.7
						C346.4,269.8,376.2,239.9,412.9,239.9z"/>
					<path fill="#FFFFFF" d="M413,239.9c36.8,0,66.7,29.8,66.7,66.7s-29.8,66.7-66.7,66.7s-66.7-29.8-66.7-66.7
						S376.2,239.9,413,239.9z"/>
					<path fill="#FFFFFF" d="M413,240.1c36.8,0,66.7,29.8,66.7,66.7s-29.8,66.7-66.7,66.7s-66.7-29.8-66.7-66.7
						S376.2,240.1,413,240.1z"/>
					<path fill="#FFFFFF" d="M413,240.1c36.8,0,66.7,29.8,66.7,66.7s-29.8,66.7-66.7,66.7s-66.7-29.8-66.7-66.7
						C346.5,269.9,376.3,240.1,413,240.1z"/>
					<path fill="#FFFFFF" d="M413.2,240.2c36.8,0,66.7,29.8,66.7,66.7s-29.8,66.7-66.7,66.7s-66.7-29.8-66.7-66.7
						C346.5,269.9,376.3,240.2,413.2,240.2z"/>
					<path fill="#FFFFFF" d="M413.2,240.2c36.8,0,66.5,29.8,66.5,66.7s-29.8,66.5-66.5,66.5c-36.8,0-66.7-29.8-66.7-66.5
						C346.5,270,376.3,240.2,413.2,240.2z"/>
					<path fill="#FFFFFF" d="M413.2,240.2c36.8,0,66.5,29.8,66.5,66.5c0,36.8-29.8,66.5-66.5,66.5c-36.8,0-66.5-29.8-66.5-66.5
						S376.5,240.2,413.2,240.2z"/>
					<path fill="#FFFFFF" d="M413.2,240.3c36.8,0,66.5,29.8,66.5,66.5c0,36.8-29.8,66.5-66.5,66.5c-36.8,0-66.5-29.8-66.5-66.5
						C346.6,270,376.5,240.3,413.2,240.3z"/>
					<path fill="#FFFFFF" d="M413.3,240.3c36.8,0,66.5,29.8,66.5,66.5c0,36.8-29.8,66.5-66.5,66.5c-36.8,0-66.5-29.8-66.5-66.5
						C346.6,270.2,376.5,240.3,413.3,240.3z"/>
					<path fill="#FFFFFF" d="M413.3,240.3c36.7,0,66.5,29.8,66.5,66.5c0,36.8-29.8,66.5-66.5,66.5c-36.8,0-66.5-29.8-66.5-66.5
						S376.5,240.3,413.3,240.3z"/>
					<path fill="#FFFFFF" d="M413.3,240.5c36.7,0,66.5,29.8,66.5,66.5s-29.8,66.5-66.5,66.5c-36.8,0-66.5-29.8-66.5-66.5
						S376.6,240.5,413.3,240.5z"/>
					<path fill="#FFFFFF" d="M413.4,240.5c36.7,0,66.5,29.8,66.5,66.5s-29.8,66.5-66.5,66.5s-66.5-29.8-66.5-66.5
						C346.8,270.3,376.6,240.5,413.4,240.5z"/>
					<path fill="#FFFFFF" d="M413.4,240.5c36.7,0,66.5,29.8,66.5,66.5s-29.8,66.5-66.5,66.5s-66.5-29.8-66.5-66.5
						C346.9,270.3,376.6,240.5,413.4,240.5z"/>
					<path fill="#FFFFFF" d="M413.4,240.6c36.7,0,66.5,29.8,66.5,66.5s-29.8,66.5-66.5,66.5s-66.5-29.8-66.5-66.5
						C346.9,270.4,376.7,240.6,413.4,240.6z"/>
					<path fill="#FFFFFF" d="M413.4,240.6c36.7,0,66.5,29.8,66.5,66.5s-29.8,66.5-66.5,66.5s-66.5-29.8-66.5-66.5
						C346.9,270.4,376.7,240.6,413.4,240.6z"/>
					<path fill="#FFFFFF" d="M413.6,240.7c36.7,0,66.5,29.8,66.5,66.5s-29.8,66.5-66.5,66.5S347,344,347,307.3
						C347,270.4,376.7,240.7,413.6,240.7z"/>
					<path fill="#FFFFFF" d="M413.6,240.7c36.7,0,66.5,29.8,66.5,66.5s-29.8,66.5-66.5,66.5S347,344,347,307.3
						S376.9,240.7,413.6,240.7z"/>
					<path fill="#FFFFFF" d="M413.6,240.7c36.7,0,66.5,29.8,66.5,66.5s-29.8,66.5-66.5,66.5S347,344,347,307.3
						S376.9,240.7,413.6,240.7z"/>
					<path fill="#FFFFFF" d="M413.6,240.9c36.7,0,66.5,29.8,66.5,66.5s-29.8,66.5-66.5,66.5S347,344.1,347,307.4
						C347.2,270.6,376.9,240.9,413.6,240.9z"/>
					<path fill="#FFFFFF" d="M413.7,240.9c36.7,0,66.5,29.8,66.5,66.5s-29.8,66.5-66.5,66.5s-66.5-29.8-66.5-66.5
						S376.9,240.9,413.7,240.9z"/>
					<path fill="#FFFFFF" d="M413.7,240.9c36.7,0,66.5,29.8,66.5,66.5s-29.8,66.5-66.5,66.5s-66.5-29.8-66.5-66.5
						S377,240.9,413.7,240.9z"/>
					<path fill="#FFFFFF" d="M413.7,241c36.7,0,66.5,29.8,66.5,66.5S450.4,374,413.7,374s-66.5-29.8-66.5-66.5
						C347.3,270.7,377,241,413.7,241z"/>
					<path fill="#FFFFFF" d="M413.8,241c36.7,0,66.5,29.7,66.5,66.5c0,36.7-29.8,66.5-66.5,66.5s-66.5-29.7-66.5-66.5
						C347.3,270.8,377,241,413.8,241z"/>
					<path fill="#FFFFFF" d="M413.8,241.1c36.7,0,66.5,29.7,66.5,66.5c0,36.7-29.7,66.5-66.5,66.5c-36.7,0-66.5-29.7-66.5-66.5
						S377.1,241.1,413.8,241.1z"/>
					<path fill="#FFFFFF" d="M413.8,241.1c36.7,0,66.5,29.7,66.5,66.5c0,36.7-29.7,66.5-66.5,66.5c-36.7,0-66.5-29.7-66.5-66.5
						C347.4,270.8,377.1,241.1,413.8,241.1z"/>
					<path fill="#FFFFFF" d="M413.8,241.1c36.7,0,66.4,29.7,66.4,66.5c0,36.7-29.7,66.4-66.4,66.4s-66.5-29.7-66.5-66.4
						C347.4,271,377.1,241.1,413.8,241.1z"/>
					<path fill="#FFFFFF" d="M414,241.3c36.7,0,66.4,29.7,66.4,66.4S450.6,374,414,374s-66.4-29.7-66.4-66.4
						C347.4,271,377.3,241.3,414,241.3z"/>
					<path fill="#FFFFFF" d="M414,241.3c36.7,0,66.4,29.7,66.4,66.4S450.6,374,414,374s-66.4-29.7-66.4-66.4
						C347.4,271,377.3,241.3,414,241.3z"/>
					<path fill="#FFFFFF" d="M414,241.3c36.7,0,66.5,29.8,66.5,66.5s-29.7,66.4-66.4,66.4s-66.4-29.7-66.4-66.4
						C347.6,271.1,377.3,241.3,414,241.3z"/>
					<path fill="#FFFFFF" d="M414,241.4c36.7,0,66.5,29.7,66.5,66.4s-29.7,66.4-66.4,66.4s-66.4-29.7-66.4-66.4
						C347.6,271.1,377.3,241.4,414,241.4z"/>
					<path fill="#FFFFFF" d="M414.1,241.4c36.7,0,66.4,29.7,66.4,66.4s-29.7,66.4-66.4,66.4s-66.4-29.7-66.4-66.4
						C347.6,271.1,377.4,241.4,414.1,241.4z"/>
					<path fill="#FFFFFF" d="M414.1,241.4c36.7,0,66.4,29.7,66.4,66.4s-29.7,66.4-66.4,66.4s-66.4-29.7-66.4-66.4
						C347.7,271.2,377.4,241.4,414.1,241.4z"/>
					<path fill="#FFFFFF" d="M414.1,241.5c36.7,0,66.4,29.7,66.4,66.4s-29.7,66.4-66.4,66.4s-66.4-29.7-66.4-66.4
						C347.7,271.2,377.4,241.5,414.1,241.5z"/>
					<path fill="#FFFFFF" d="M414.2,241.5c36.7,0,66.4,29.7,66.4,66.4s-29.7,66.4-66.4,66.4s-66.4-29.7-66.4-66.4
						C347.7,271.2,377.5,241.5,414.2,241.5z"/>
					<path fill="#FFFFFF" d="M414.2,241.6c36.7,0,66.4,29.7,66.4,66.4s-29.7,66.4-66.4,66.4s-66.4-29.7-66.4-66.4
						S377.5,241.6,414.2,241.6z"/>
					<path fill="#FFFFFF" d="M414.2,241.6c36.7,0,66.4,29.7,66.4,66.4s-29.7,66.4-66.4,66.4s-66.4-29.7-66.4-66.4
						S377.5,241.6,414.2,241.6z"/>
					<path fill="#FFFFFF" d="M414.2,241.6c36.7,0,66.4,29.7,66.4,66.4s-29.7,66.4-66.4,66.4s-66.4-29.7-66.4-66.4
						S377.7,241.6,414.2,241.6z"/>
					<path fill="#FFFFFF" d="M414.3,241.8c36.7,0,66.4,29.7,66.4,66.4s-29.7,66.4-66.4,66.4S348,344.9,348,308.2
						S377.7,241.8,414.3,241.8z"/>
					<path fill="#FFFFFF" d="M414.3,241.8c36.7,0,66.4,29.7,66.4,66.4s-29.7,66.4-66.4,66.4S348,344.9,348,308.2
						S377.7,241.8,414.3,241.8z"/>
					<path fill="#FFFFFF" d="M414.3,241.8c36.7,0,66.4,29.7,66.4,66.4s-29.7,66.4-66.4,66.4S348,344.9,348,308.2
						S377.7,241.8,414.3,241.8z"/>
					<path fill="#FFFFFF" d="M414.3,241.9c36.7,0,66.4,29.7,66.4,66.4s-29.7,66.4-66.4,66.4S348,345,348,308.3
						C348.1,271.6,377.8,241.9,414.3,241.9z"/>
					<path fill="#FFFFFF" d="M414.5,241.9c36.7,0,66.4,29.7,66.4,66.4s-29.7,66.4-66.4,66.4s-66.4-29.7-66.4-66.4
						S377.8,241.9,414.5,241.9z"/>
					<path fill="#FFFFFF" d="M414.5,241.9c36.7,0,66.4,29.7,66.4,66.4s-29.7,66.4-66.4,66.4s-66.4-29.7-66.4-66.4
						C348.1,271.7,377.8,241.9,414.5,241.9z"/>
					<path fill="#FFFFFF" d="M414.5,242c36.7,0,66.4,29.7,66.4,66.4s-29.7,66.4-66.4,66.4s-66.4-29.7-66.4-66.4
						C348.2,271.7,377.9,242,414.5,242z"/>
					<path fill="#FFFFFF" d="M414.6,242c36.7,0,66.4,29.7,66.4,66.4s-29.7,66.4-66.4,66.4s-66.4-29.7-66.4-66.4
						C348.2,271.7,377.9,242,414.6,242z"/>
					<path fill="#FFFFFF" d="M414.6,242.2c36.7,0,66.3,29.7,66.3,66.4S451.2,375,414.6,375c-36.7,0-66.4-29.7-66.4-66.4
						C348.2,271.9,377.9,242.2,414.6,242.2z"/>
					<path fill="#FFFFFF" d="M414.6,242.2c36.6,0,66.3,29.7,66.3,66.3s-29.7,66.3-66.3,66.3c-36.7,0-66.3-29.7-66.3-66.3
						S378,242.2,414.6,242.2z"/>
					<path fill="#FFFFFF" d="M414.6,242.2c36.6,0,66.3,29.7,66.3,66.3s-29.7,66.3-66.3,66.3s-66.3-29.7-66.3-66.3
						S378,242.2,414.6,242.2z"/>
					<path fill="#FFFFFF" d="M414.7,242.3c36.6,0,66.3,29.7,66.3,66.3s-29.7,66.3-66.3,66.3s-66.3-29.7-66.3-66.3
						C348.3,272,378,242.3,414.7,242.3z"/>
					<path fill="#FFFFFF" d="M414.7,242.3c36.6,0,66.3,29.7,66.3,66.3s-29.7,66.3-66.3,66.3s-66.3-29.7-66.3-66.3
						S378,242.3,414.7,242.3z"/>
					<path fill="#FFFFFF" d="M414.7,242.3c36.6,0,66.3,29.7,66.3,66.3s-29.7,66.3-66.3,66.3s-66.3-29.7-66.3-66.3
						S378.2,242.3,414.7,242.3z"/>
					<path fill="#FFFFFF" d="M414.7,242.4c36.6,0,66.3,29.7,66.3,66.3S451.3,375,414.7,375s-66.3-29.7-66.3-66.3
						S378.2,242.4,414.7,242.4z"/>
					<path fill="#FFFFFF" d="M414.9,242.4c36.6,0,66.3,29.7,66.3,66.3S451.4,375,414.9,375s-66.3-29.7-66.3-66.3
						C348.6,272.1,378.2,242.4,414.9,242.4z"/>
					<path fill="#FFFFFF" d="M414.9,242.6c36.6,0,66.3,29.7,66.3,66.3s-29.7,66.3-66.3,66.3s-66.3-29.7-66.3-66.3
						C348.6,272.1,378.3,242.6,414.9,242.6z"/>
					<path fill="#FFFFFF" d="M414.9,242.6c36.6,0,66.3,29.7,66.3,66.3s-29.7,66.3-66.3,66.3s-66.3-29.7-66.3-66.3
						C348.6,272.3,378.3,242.6,414.9,242.6z"/>
					<path fill="#FFFFFF" d="M415,242.6c36.6,0,66.3,29.7,66.3,66.3s-29.7,66.3-66.3,66.3s-66.3-29.7-66.3-66.3
						C348.7,272.3,378.3,242.6,415,242.6z"/>
					<path fill="#FFFFFF" d="M415,242.7c36.6,0,66.3,29.7,66.3,66.3s-29.7,66.3-66.3,66.3s-66.3-29.7-66.3-66.3
						C348.7,272.3,378.4,242.7,415,242.7z"/>
					<path fill="#FFFFFF" d="M415,242.7c36.6,0,66.3,29.7,66.3,66.3s-29.7,66.3-66.3,66.3s-66.3-29.7-66.3-66.3
						C348.7,272.4,378.4,242.7,415,242.7z"/>
					<path fill="#FFFFFF" d="M415,242.7c36.6,0,66.3,29.7,66.3,66.3s-29.7,66.3-66.3,66.3s-66.3-29.7-66.3-66.3
						C348.9,272.4,378.4,242.7,415,242.7z"/>
					<path fill="#FFFFFF" d="M415.1,242.8c36.6,0,66.3,29.7,66.3,66.3s-29.7,66.3-66.3,66.3s-66.3-29.7-66.3-66.3
						C348.9,272.4,378.6,242.8,415.1,242.8z"/>
					<path fill="#FFFFFF" d="M415.1,242.8c36.6,0,66.3,29.7,66.3,66.3s-29.7,66.3-66.3,66.3s-66.3-29.7-66.3-66.3
						S378.6,242.8,415.1,242.8z"/>
					<path fill="#FFFFFF" d="M415.1,242.8c36.6,0,66.3,29.7,66.3,66.3s-29.7,66.3-66.3,66.3s-66.3-29.7-66.3-66.3
						S378.6,242.8,415.1,242.8z"/>
					<path fill="#FFFFFF" d="M415.3,243c36.6,0,66.3,29.7,66.3,66.3s-29.7,66.3-66.3,66.3S349,345.8,349,309.2
						C349,272.5,378.6,243,415.3,243z"/>
					<path fill="#FFFFFF" d="M415.3,243c36.6,0,66.3,29.7,66.3,66.3s-29.7,66.3-66.3,66.3S349,345.8,349,309.2S378.7,243,415.3,243z
						"/>
					<path fill="#FFFFFF" d="M415.3,243.1c36.6,0,66.3,29.7,66.3,66.3s-29.7,66.3-66.3,66.3S349,345.9,349,309.4
						C349,272.7,378.7,243.1,415.3,243.1z"/>
					<path fill="#FFFFFF" d="M415.3,243.1c36.6,0,66.1,29.7,66.1,66.3s-29.7,66.3-66.1,66.3c-36.6,0-66.3-29.7-66.3-66.3
						C349.1,272.7,378.7,243.1,415.3,243.1z"/>
					<path fill="#FFFFFF" d="M415.4,243.1c36.6,0,66.1,29.7,66.1,66.1c0,36.6-29.7,66.1-66.1,66.1c-36.6,0-66.1-29.7-66.1-66.1
						C349.1,272.8,378.8,243.1,415.4,243.1z"/>
					<path fill="#FFFFFF" d="M415.4,243.2c36.6,0,66.1,29.6,66.1,66.1s-29.6,66.1-66.1,66.1s-66.1-29.7-66.1-66.1
						C349.1,272.8,378.8,243.2,415.4,243.2z"/>
					<path fill="#FFFFFF" d="M415.4,243.2c36.6,0,66.1,29.6,66.1,66.1s-29.6,66.1-66.1,66.1s-66.1-29.6-66.1-66.1
						S378.8,243.2,415.4,243.2z"/>
					<path fill="#FFFFFF" d="M415.4,243.2c36.6,0,66.1,29.6,66.1,66.1s-29.6,66.1-66.1,66.1s-66.1-29.6-66.1-66.1
						C349.3,272.9,379,243.2,415.4,243.2z"/>
					<path fill="#FFFFFF" d="M415.5,243.4c36.6,0,66.1,29.6,66.1,66.1s-29.6,66.1-66.1,66.1s-66.1-29.6-66.1-66.1
						C349.3,272.9,379,243.4,415.5,243.4z"/>
					<circle fill="#FFFFFF" cx="415.5" cy="309.5" r="66.1"/>
					<circle fill="#FFFFFF" cx="415.5" cy="309.6" r="66.1"/>
					<circle fill="#FFFFFF" cx="415.7" cy="309.6" r="66.1"/>
					<circle fill="#FFFFFF" cx="415.7" cy="309.6" r="66.1"/>
					<circle fill="#FFFFFF" cx="415.7" cy="309.8" r="66.1"/>
					<circle fill="#FFFFFF" cx="415.7" cy="309.8" r="66.1"/>
					<circle fill="#FFFFFF" cx="415.8" cy="309.8" r="66.1"/>
					<circle fill="#FFFFFF" cx="415.8" cy="309.9" r="66.1"/>
					<circle fill="#FFFFFF" cx="415.8" cy="309.9" r="66.1"/>
					<circle fill="#FFFFFF" cx="415.8" cy="309.9" r="66.1"/>
					<circle fill="#FFFFFF" cx="415.9" cy="309.9" r="66.1"/>
					<circle fill="#FFFFFF" cx="415.9" cy="310" r="66.1"/>
					<circle fill="#FFFFFF" cx="415.9" cy="310" r="66.1"/>
					<circle fill="#FFFFFF" cx="416.1" cy="310" r="66.1"/>
					<circle fill="#FFFFFF" cx="416.1" cy="310.2" r="66.1"/>
					<circle fill="#FFFFFF" cx="416.1" cy="310.2" r="66"/>
					<circle fill="#FFFFFF" cx="416.1" cy="310.2" r="66"/>
					<circle fill="#FFFFFF" cx="416.2" cy="310.3" r="66"/>
					<circle fill="#FFFFFF" cx="416.2" cy="310.3" r="66"/>
					<circle fill="#FFFFFF" cx="416.2" cy="310.3" r="66"/>
					<circle fill="#FFFFFF" cx="416.2" cy="310.4" r="66"/>
					<circle fill="#FFFFFF" cx="416.3" cy="310.4" r="66"/>
					<circle fill="#FFFFFF" cx="416.3" cy="310.4" r="66"/>
					<circle fill="#FFFFFF" cx="416.3" cy="310.6" r="66"/>
					<circle fill="#FFFFFF" cx="416.5" cy="310.6" r="66"/>
					<circle fill="#FFFFFF" cx="416.5" cy="310.6" r="66"/>
					<circle fill="#FFFFFF" cx="416.5" cy="310.7" r="66"/>
					<circle fill="#FFFFFF" cx="416.5" cy="310.7" r="66"/>
					<circle fill="#FFFFFF" cx="416.6" cy="310.7" r="66"/>
					<circle fill="#FFFFFF" cx="416.6" cy="310.7" r="66"/>
					<circle fill="#FFFFFF" cx="416.6" cy="310.8" r="66"/>
					<circle fill="#FFFFFF" cx="416.6" cy="310.8" r="66"/>
					<circle fill="#FFFFFF" cx="416.7" cy="310.8" r="66"/>
					<path fill="#FFFFFF" d="M416.7,244.9c36.4,0,66,29.6,66,66s-29.6,66-66,66s-66-29.6-66-66S380.3,244.9,416.7,244.9z"/>
					<path fill="#FFFFFF" d="M416.7,245.1c36.4,0,66,29.6,66,66s-29.6,66-66,66s-66-29.6-66-66C350.9,274.5,380.3,245.1,416.7,245.1
						z"/>
					<path fill="#FFFFFF" d="M416.9,245.1c36.4,0,65.9,29.6,65.9,65.9c0,36.4-29.6,65.9-65.9,65.9c-36.4,0-66-29.6-66-65.9
						S380.4,245.1,416.9,245.1z"/>
					<path fill="#FFFFFF" d="M416.9,245.1c36.4,0,65.9,29.6,65.9,65.9c0,36.4-29.6,65.9-65.9,65.9c-36.4,0-65.9-29.6-65.9-65.9
						C350.9,274.6,380.4,245.1,416.9,245.1z"/>
					<path fill="#FFFFFF" d="M416.9,245.2c36.4,0,65.9,29.6,65.9,65.9c0,36.4-29.6,65.9-65.9,65.9c-36.4,0-65.9-29.6-65.9-65.9
						C351,274.6,380.4,245.2,416.9,245.2z"/>
					<path fill="#FFFFFF" d="M416.9,245.2c36.4,0,65.9,29.6,65.9,65.9c0,36.4-29.6,65.9-65.9,65.9c-36.4,0-65.9-29.6-65.9-65.9
						S380.6,245.2,416.9,245.2z"/>
					<path fill="#FFFFFF" d="M417,245.2c36.4,0,65.9,29.6,65.9,65.9c0,36.4-29.6,65.9-65.9,65.9c-36.4,0-65.9-29.6-65.9-65.9
						C351,274.8,380.6,245.2,417,245.2z"/>
					<path fill="#FFFFFF" d="M417,245.3c36.4,0,65.9,29.4,65.9,65.9s-29.4,65.9-65.9,65.9s-65.9-29.6-65.9-65.9
						C351.1,274.8,380.6,245.3,417,245.3z"/>
					<path fill="#FFFFFF" d="M417,245.3c36.4,0,65.9,29.4,65.9,65.9s-29.4,65.9-65.9,65.9s-65.9-29.6-65.9-65.9
						S380.7,245.3,417,245.3z"/>
					<path fill="#FFFFFF" d="M417.1,245.3c36.4,0,65.9,29.4,65.9,65.9s-29.4,65.9-65.9,65.9s-65.9-29.4-65.9-65.9
						C351.1,274.9,380.7,245.3,417.1,245.3z"/>
					<path fill="#FFFFFF" d="M417.1,245.5c36.4,0,65.9,29.4,65.9,65.9s-29.4,65.9-65.9,65.9s-65.9-29.4-65.9-65.9
						S380.7,245.5,417.1,245.5z"/>
					<path fill="#FFFFFF" d="M417.1,245.5c36.4,0,65.9,29.4,65.9,65.9s-29.4,65.9-65.9,65.9s-65.9-29.4-65.9-65.9
						C351.3,275,380.7,245.5,417.1,245.5z"/>
					<path fill="#FFFFFF" d="M417.1,245.6c36.4,0,65.9,29.4,65.9,65.9s-29.4,65.9-65.9,65.9s-65.9-29.4-65.9-65.9
						S380.8,245.6,417.1,245.6z"/>
					<path fill="#FFFFFF" d="M417.3,245.6c36.4,0,65.9,29.4,65.9,65.9s-29.4,65.9-65.9,65.9s-65.9-29.4-65.9-65.9
						S380.8,245.6,417.3,245.6z"/>
					<path fill="#FFFFFF" d="M417.3,245.6c36.4,0,65.9,29.4,65.9,65.9s-29.4,65.9-65.9,65.9s-65.9-29.4-65.9-65.9
						C351.4,275.2,380.8,245.6,417.3,245.6z"/>
					<path fill="#FFFFFF" d="M417.3,245.7c36.4,0,65.9,29.4,65.9,65.9c0,36.3-29.4,65.9-65.9,65.9s-65.9-29.4-65.9-65.9
						S381,245.7,417.3,245.7z"/>
					<path fill="#FFFFFF" d="M417.3,245.7c36.4,0,65.9,29.4,65.9,65.9c0,36.3-29.4,65.9-65.9,65.9c-36.3,0-65.9-29.4-65.9-65.9
						C351.5,275.2,381,245.7,417.3,245.7z"/>
					<path fill="#FFFFFF" d="M417.4,245.7c36.3,0,65.7,29.6,65.7,65.9s-29.4,65.9-65.9,65.9c-36.3,0-65.9-29.4-65.9-65.9
						C351.5,275.3,381,245.7,417.4,245.7z"/>
					<path fill="#FFFFFF" d="M417.4,245.9c36.3,0,65.9,29.4,65.9,65.9c0,36.3-29.4,65.9-65.9,65.9c-36.3,0-65.9-29.4-65.9-65.9
						C351.5,275.3,381.1,245.9,417.4,245.9z"/>
					<path fill="#FFFFFF" d="M417.4,245.9c36.3,0,65.9,29.4,65.9,65.9c0,36.3-29.4,65.9-65.9,65.9c-36.3,0-65.9-29.4-65.9-65.9
						C351.6,275.3,381.1,245.9,417.4,245.9z"/>
					<path fill="#FFFFFF" d="M417.5,245.9c36.3,0,65.9,29.4,65.9,65.9c0,36.3-29.4,65.9-65.9,65.9c-36.3,0-65.9-29.4-65.9-65.9
						C351.6,275.4,381.1,245.9,417.5,245.9z"/>
					<path fill="#FFFFFF" d="M417.5,246c36.3,0,65.9,29.4,65.9,65.9c0,36.3-29.4,65.9-65.9,65.9c-36.3,0-65.9-29.4-65.9-65.9
						S381.1,246,417.5,246z"/>
					<path fill="#FFFFFF" d="M417.5,246c36.3,0,65.7,29.4,65.7,65.9c0,36.3-29.4,65.9-65.7,65.9s-65.9-29.4-65.9-65.9
						C351.8,275.4,381.2,246,417.5,246z"/>
					<path fill="#FFFFFF" d="M417.5,246.1c36.3,0,65.7,29.4,65.7,65.7s-29.4,65.7-65.7,65.7s-65.7-29.4-65.7-65.7
						S381.2,246.1,417.5,246.1z"/>
					<path fill="#FFFFFF" d="M417.6,246.1c36.3,0,65.7,29.4,65.7,65.7s-29.4,65.7-65.7,65.7s-65.7-29.4-65.7-65.7
						C351.8,275.6,381.2,246.1,417.6,246.1z"/>
					<path fill="#FFFFFF" d="M417.6,246.1c36.3,0,65.7,29.4,65.7,65.7s-29.4,65.7-65.7,65.7s-65.7-29.4-65.7-65.7
						S381.3,246.1,417.6,246.1z"/>
					<path fill="#FFFFFF" d="M417.6,246.3c36.3,0,65.7,29.4,65.7,65.7s-29.4,65.7-65.7,65.7s-65.7-29.4-65.7-65.7
						S381.3,246.3,417.6,246.3z"/>
					<path fill="#FFFFFF" d="M417.6,246.3c36.3,0,65.7,29.4,65.7,65.7s-29.4,65.7-65.7,65.7s-65.7-29.4-65.7-65.7
						S381.3,246.3,417.6,246.3z"/>
					<path fill="#FFFFFF" d="M417.8,246.3c36.3,0,65.7,29.4,65.7,65.7s-29.4,65.7-65.7,65.7S352,348.3,352,312
						S381.5,246.3,417.8,246.3z"/>
					<path fill="#FFFFFF" d="M417.8,246.4c36.3,0,65.7,29.4,65.7,65.7s-29.4,65.7-65.7,65.7S352,348.4,352,312.1
						S381.5,246.4,417.8,246.4z"/>
					<path fill="#FFFFFF" d="M417.8,246.4c36.3,0,65.7,29.4,65.7,65.7s-29.4,65.7-65.7,65.7S352,348.4,352,312.1
						S381.5,246.4,417.8,246.4z"/>
					<path fill="#FFFFFF" d="M417.9,246.5c36.3,0,65.7,29.4,65.7,65.7S454.2,378,417.9,378s-65.7-29.4-65.7-65.7
						C352,275.8,381.5,246.5,417.9,246.5z"/>
					<path fill="#FFFFFF" d="M417.9,246.5c36.3,0,65.7,29.4,65.7,65.7S454.2,378,417.9,378s-65.7-29.4-65.7-65.7
						C352.2,276,381.6,246.5,417.9,246.5z"/>
					<path fill="#FFFFFF" d="M417.9,246.5c36.3,0,65.7,29.4,65.7,65.7S454.2,378,417.9,378s-65.7-29.4-65.7-65.7
						C352.2,276,381.6,246.5,417.9,246.5z"/>
					<path fill="#FFFFFF" d="M417.9,246.7c36.3,0,65.7,29.4,65.7,65.7s-29.4,65.7-65.7,65.7s-65.7-29.4-65.7-65.7
						C352.2,276,381.6,246.7,417.9,246.7z"/>
					<path fill="#FFFFFF" d="M418,246.7c36.3,0,65.7,29.4,65.7,65.7s-29.4,65.7-65.7,65.7s-65.7-29.4-65.7-65.7
						C352.3,276.1,381.7,246.7,418,246.7z"/>
					<path fill="#FFFFFF" d="M418,246.7c36.3,0,65.7,29.4,65.7,65.7s-29.4,65.7-65.7,65.7s-65.7-29.4-65.7-65.7
						C352.3,276.1,381.7,246.7,418,246.7z"/>
					<path fill="#FFFFFF" d="M418,246.8c36.3,0,65.7,29.4,65.7,65.7s-29.4,65.7-65.7,65.7s-65.7-29.4-65.7-65.7
						C352.3,276.2,381.7,246.8,418,246.8z"/>
					<path fill="#FFFFFF" d="M418,246.8c36.3,0,65.7,29.4,65.7,65.7s-29.4,65.7-65.7,65.7s-65.7-29.4-65.7-65.7
						C352.4,276.2,381.9,246.8,418,246.8z"/>
					<path fill="#FFFFFF" d="M418.2,246.8c36.3,0,65.7,29.4,65.7,65.7s-29.4,65.7-65.7,65.7s-65.7-29.4-65.7-65.7
						S381.9,246.8,418.2,246.8z"/>
					<path fill="#FFFFFF" d="M418.2,246.9c36.3,0,65.7,29.4,65.7,65.7s-29.4,65.7-65.7,65.7s-65.7-29.4-65.7-65.7
						S381.9,246.9,418.2,246.9z"/>
					<path fill="#FFFFFF" d="M418.2,246.9c36.3,0,65.7,29.4,65.7,65.7s-29.4,65.7-65.7,65.7s-65.7-29.4-65.7-65.7
						C352.6,276.4,382,246.9,418.2,246.9z"/>
					<path fill="#FFFFFF" d="M418.3,247.1c36.3,0,65.6,29.4,65.6,65.7s-29.4,65.7-65.6,65.7c-36.3,0-65.7-29.4-65.7-65.7
						C352.6,276.4,382,247.1,418.3,247.1z"/>
					<path fill="#FFFFFF" d="M418.3,247.1c36.3,0,65.6,29.4,65.6,65.6c0,36.3-29.4,65.6-65.6,65.6c-36.3,0-65.6-29.4-65.6-65.6
						C352.6,276.5,382,247.1,418.3,247.1z"/>
					<path fill="#FFFFFF" d="M418.3,247.1c36.3,0,65.6,29.4,65.6,65.6c0,36.3-29.4,65.6-65.6,65.6c-36.3,0-65.6-29.4-65.6-65.6
						C352.7,276.5,382,247.1,418.3,247.1z"/>
					<path fill="#FFFFFF" d="M418.3,247.2c36.3,0,65.6,29.4,65.6,65.6c0,36.3-29.4,65.6-65.6,65.6c-36.3,0-65.6-29.4-65.6-65.6
						C352.7,276.5,382.1,247.2,418.3,247.2z"/>
					<path fill="#FFFFFF" d="M418.4,247.2c36.3,0,65.6,29.4,65.6,65.6c0,36.3-29.4,65.6-65.6,65.6c-36.3,0-65.6-29.4-65.6-65.6
						C352.7,276.6,382.1,247.2,418.4,247.2z"/>
					<path fill="#FFFFFF" d="M418.4,247.2c36.3,0,65.6,29.4,65.6,65.6c0,36.3-29.4,65.6-65.6,65.6c-36.3,0-65.6-29.4-65.6-65.6
						S382.1,247.2,418.4,247.2z"/>
					<path fill="#FFFFFF" d="M418.4,247.3c36.3,0,65.6,29.4,65.6,65.6c0,36.3-29.4,65.6-65.6,65.6c-36.3,0-65.6-29.4-65.6-65.6
						C352.8,276.6,382.3,247.3,418.4,247.3z"/>
					<path fill="#FFFFFF" d="M418.6,247.3c36.3,0,65.6,29.4,65.6,65.6c0,36.3-29.4,65.6-65.6,65.6c-36.3,0-65.6-29.4-65.6-65.6
						C352.8,276.8,382.3,247.3,418.6,247.3z"/>
					<path fill="#FFFFFF" d="M418.6,247.3c36.3,0,65.6,29.4,65.6,65.6c0,36.3-29.4,65.6-65.6,65.6c-36.3,0-65.6-29.4-65.6-65.6
						S382.3,247.3,418.6,247.3z"/>
					<path fill="#FFFFFF" d="M418.6,247.5c36.3,0,65.6,29.4,65.6,65.6c0,36.3-29.4,65.6-65.6,65.6c-36.3,0-65.6-29.4-65.6-65.6
						C353,276.8,382.4,247.5,418.6,247.5z"/>
					<path fill="#FFFFFF" d="M418.6,247.5c36.3,0,65.6,29.3,65.6,65.6c0,36.2-29.3,65.6-65.6,65.6c-36.2,0-65.6-29.4-65.6-65.6
						S382.4,247.5,418.6,247.5z"/>
					<path fill="#FFFFFF" d="M484.3,313.2c0,36.2-29.3,65.6-65.6,65.6c-36.2,0-65.6-29.4-65.6-65.6c0-36.3,29.4-65.6,65.6-65.6
						S484.3,276.9,484.3,313.2z"/>
					<path opacity="0.995" fill="#FFFFFF" enable-background="new    " d="M418.7,247.6c36.2,0,65.6,29.3,65.6,65.6
						c0,36.2-29.3,65.6-65.6,65.6c-36.2,0-65.6-29.4-65.6-65.6C353.1,276.9,382.4,247.6,418.7,247.6z"/>
					<path opacity="0.99" fill="#FFFFFF" enable-background="new    " d="M418.7,247.6c36.2,0,65.6,29.3,65.6,65.6
						c0,36.2-29.3,65.6-65.6,65.6c-36.2,0-65.6-29.4-65.6-65.6S382.5,247.6,418.7,247.6z"/>
					<path opacity="0.9851" fill="#FFFFFF" enable-background="new    " d="M418.7,247.6c36.2,0,65.6,29.3,65.6,65.6
						c0,36.2-29.3,65.6-65.6,65.6c-36.2,0-65.6-29.4-65.6-65.6S382.5,247.6,418.7,247.6z"/>
					<path opacity="0.9801" fill="#FFFFFF" enable-background="new    " d="M418.8,247.7c36.2,0,65.6,29.3,65.6,65.6
						c0,36.2-29.3,65.6-65.6,65.6c-36.2,0-65.6-29.4-65.6-65.6C353.2,277,382.5,247.7,418.8,247.7z"/>
					<path opacity="0.9751" fill="#FFFFFF" enable-background="new    " d="M418.8,247.7c36.2,0,65.6,29.3,65.6,65.6
						c0,36.2-29.3,65.6-65.6,65.6c-36.2,0-65.6-29.4-65.6-65.6C353.2,277,382.5,247.7,418.8,247.7z"/>
					<path opacity="0.9701" fill="#FFFFFF" enable-background="new    " d="M418.8,247.7c36.2,0,65.6,29.3,65.6,65.6
						c0,36.2-29.3,65.6-65.6,65.6c-36.2,0-65.6-29.4-65.6-65.6C353.2,277.2,382.7,247.7,418.8,247.7z"/>
					<path opacity="0.9652" fill="#FFFFFF" enable-background="new    " d="M418.8,247.9c36.2,0,65.6,29.3,65.6,65.6
						c0,36.2-29.3,65.6-65.6,65.6c-36.2,0-65.6-29.4-65.6-65.6C353.2,277.2,382.7,247.9,418.8,247.9z"/>
					<path opacity="0.9602" fill="#FFFFFF" enable-background="new    " d="M418.8,247.9c36.2,0,65.6,29.3,65.6,65.6
						c0,36.2-29.3,65.6-65.6,65.6c-36.2,0-65.6-29.4-65.6-65.6C353.4,277.2,382.7,247.9,418.8,247.9z"/>
					<path opacity="0.9552" fill="#FFFFFF" enable-background="new    " d="M419,247.9c36.2,0,65.6,29.3,65.6,65.6
						c0,36.2-29.3,65.6-65.6,65.6c-36.2,0-65.6-29.4-65.6-65.6C353.4,277.3,382.7,247.9,419,247.9z"/>
					<path opacity="0.9502" fill="#FFFFFF" enable-background="new    " d="M419,247.9c36.2,0,65.6,29.3,65.6,65.6
						c0,36.2-29.3,65.6-65.6,65.6c-36.2,0-65.6-29.4-65.6-65.6C353.4,277.3,382.8,247.9,419,247.9z"/>
					<path opacity="0.9453" fill="#FFFFFF" enable-background="new    " d="M419,248c36.2,0,65.6,29.3,65.6,65.6
						c0,36.2-29.3,65.6-65.6,65.6c-36.2,0-65.6-29.4-65.6-65.6C353.4,277.3,382.8,248,419,248z"/>
					<path opacity="0.9403" fill="#FFFFFF" enable-background="new    " d="M419,248c36.2,0,65.6,29.3,65.6,65.6
						c0,36.2-29.3,65.6-65.6,65.6c-36.2,0-65.6-29.4-65.6-65.6C353.4,277.3,382.8,248,419,248z"/>
					<path opacity="0.9353" fill="#FFFFFF" enable-background="new    " d="M419.1,248c36.2,0,65.6,29.3,65.6,65.6
						c0,36.2-29.3,65.6-65.6,65.6c-36.2,0-65.6-29.4-65.6-65.6S382.8,248,419.1,248z"/>
					<path opacity="0.9303" fill="#FFFFFF" enable-background="new    " d="M419.1,248.1c36.2,0,65.6,29.3,65.6,65.6
						c0,36.2-29.3,65.6-65.6,65.6c-36.2,0-65.6-29.4-65.6-65.6C353.5,277.4,382.8,248.1,419.1,248.1z"/>
					<path opacity="0.9254" fill="#FFFFFF" enable-background="new    " d="M419.1,248.1c36.2,0,65.6,29.3,65.6,65.6
						c0,36.2-29.3,65.6-65.6,65.6c-36.2,0-65.6-29.4-65.6-65.6C353.5,277.4,382.9,248.1,419.1,248.1z"/>
					<path opacity="0.9204" fill="#FFFFFF" enable-background="new    " d="M419.1,248.1c36.2,0,65.6,29.3,65.6,65.6
						c0,36.2-29.3,65.6-65.6,65.6c-36.2,0-65.6-29.4-65.6-65.6S382.9,248.1,419.1,248.1z"/>
					<path opacity="0.9154" fill="#FFFFFF" enable-background="new    " d="M419.2,248.1c36.2,0,65.6,29.3,65.6,65.6
						c0,36.2-29.3,65.6-65.6,65.6c-36.2,0-65.6-29.4-65.6-65.6S382.9,248.1,419.2,248.1z"/>
					<path opacity="0.9104" fill="#FFFFFF" enable-background="new    " d="M419.2,248.2c36.2,0,65.6,29.3,65.6,65.6
						c0,36.2-29.3,65.6-65.6,65.6c-36.2,0-65.6-29.4-65.6-65.6C353.6,277.6,382.9,248.2,419.2,248.2z"/>
					<path opacity="0.9055" fill="#FFFFFF" enable-background="new    " d="M419.2,248.2c36.2,0,65.6,29.3,65.6,65.6
						c0,36.2-29.3,65.6-65.6,65.6c-36.2,0-65.6-29.4-65.6-65.6C353.6,277.6,383.1,248.2,419.2,248.2z"/>
					<path opacity="0.9005" fill="#FFFFFF" enable-background="new    " d="M419.2,248.2c36.2,0,65.6,29.3,65.6,65.6
						c0,36.2-29.3,65.6-65.6,65.6c-36.2,0-65.6-29.4-65.6-65.6S383.1,248.2,419.2,248.2z"/>
					<path opacity="0.8955" fill="#FFFFFF" enable-background="new    " d="M419.4,248.4c36.2,0,65.6,29.3,65.6,65.6
						c0,36.2-29.3,65.6-65.6,65.6c-36.2,0-65.6-29.4-65.6-65.6C353.8,277.7,383.1,248.4,419.4,248.4z"/>
					<path opacity="0.8905" fill="#FFFFFF" enable-background="new    " d="M419.4,248.4c36.2,0,65.6,29.3,65.6,65.6
						c0,36.2-29.3,65.6-65.6,65.6c-36.2,0-65.6-29.4-65.6-65.6C353.8,277.7,383.1,248.4,419.4,248.4z"/>
					<path opacity="0.8856" fill="#FFFFFF" enable-background="new    " d="M419.4,248.4c36.2,0,65.6,29.3,65.6,65.6
						c0,36.2-29.3,65.6-65.6,65.6c-36.2,0-65.6-29.4-65.6-65.6S383.2,248.4,419.4,248.4z"/>
					<path opacity="0.8806" fill="#FFFFFF" enable-background="new    " d="M419.4,248.4c36.2,0,65.6,29.3,65.6,65.6
						c0,36.2-29.3,65.6-65.6,65.6c-36.2,0-65.6-29.4-65.6-65.6S383.2,248.4,419.4,248.4z"/>
					<path opacity="0.8756" fill="#FFFFFF" enable-background="new    " d="M419.5,248.5c36.2,0,65.6,29.3,65.6,65.6
						c0,36.2-29.3,65.6-65.6,65.6c-36.2,0-65.6-29.4-65.6-65.6C353.9,277.8,383.2,248.5,419.5,248.5z"/>
					<path opacity="0.8706" fill="#FFFFFF" enable-background="new    " d="M419.5,248.5c36.2,0,65.6,29.3,65.6,65.6
						c0,36.2-29.3,65.6-65.6,65.6c-36.2,0-65.6-29.4-65.6-65.6C353.9,277.8,383.2,248.5,419.5,248.5z"/>
					<path opacity="0.8657" fill="#FFFFFF" enable-background="new    " d="M419.5,248.5c36.2,0,65.6,29.3,65.6,65.6
						c0,36.2-29.3,65.6-65.6,65.6c-36.2,0-65.6-29.4-65.6-65.6C353.9,278,383.3,248.5,419.5,248.5z"/>
					<path opacity="0.8607" fill="#FFFFFF" enable-background="new    " d="M419.5,248.6c36.2,0,65.6,29.3,65.6,65.6
						c0,36.2-29.3,65.6-65.6,65.6c-36.2,0-65.6-29.4-65.6-65.6C353.9,278,383.3,248.6,419.5,248.6z"/>
					<path opacity="0.8557" fill="#FFFFFF" enable-background="new    " d="M419.5,248.6c36.2,0,65.6,29.3,65.6,65.6
						c0,36.2-29.3,65.6-65.6,65.6c-36.2,0-65.6-29.4-65.6-65.6C353.9,278,383.3,248.6,419.5,248.6z"/>
					<path opacity="0.8507" fill="#FFFFFF" enable-background="new    " d="M419.6,248.6c36.2,0,65.6,29.3,65.6,65.6
						c0,36.2-29.3,65.6-65.6,65.6c-36.2,0-65.6-29.4-65.6-65.6C354,278.1,383.3,248.6,419.6,248.6z"/>
					<path opacity="0.8458" fill="#FFFFFF" enable-background="new    " d="M419.6,248.6c36.2,0,65.6,29.3,65.6,65.6
						c0,36.2-29.3,65.6-65.6,65.6c-36.2,0-65.6-29.4-65.6-65.6C354,278.1,383.3,248.6,419.6,248.6z"/>
					<path opacity="0.8408" fill="#FFFFFF" enable-background="new    " d="M419.6,248.8c36.2,0,65.6,29.3,65.6,65.6
						c0,36.2-29.3,65.6-65.6,65.6c-36.2,0-65.6-29.4-65.6-65.6C354,278.1,383.5,248.8,419.6,248.8z"/>
					<path opacity="0.8358" fill="#FFFFFF" enable-background="new    " d="M419.6,248.8c36.2,0,65.6,29.3,65.6,65.6
						c0,36.2-29.3,65.6-65.6,65.6c-36.2,0-65.6-29.4-65.6-65.6C354,278.1,383.5,248.8,419.6,248.8z"/>
					<path opacity="0.8308" fill="#FFFFFF" enable-background="new    " d="M419.8,248.8c36.2,0,65.6,29.3,65.6,65.6
						c0,36.2-29.3,65.6-65.6,65.6c-36.2,0-65.6-29.4-65.6-65.6S383.5,248.8,419.8,248.8z"/>
					<path opacity="0.8259" fill="#FFFFFF" enable-background="new    " d="M419.8,248.9c36.2,0,65.6,29.3,65.6,65.6
						c0,36.2-29.3,65.6-65.6,65.6c-36.2,0-65.6-29.4-65.6-65.6C354.2,278.2,383.5,248.9,419.8,248.9z"/>
					<path opacity="0.8209" fill="#FFFFFF" enable-background="new    " d="M419.8,248.9c36.2,0,65.6,29.3,65.6,65.6
						c0,36.2-29.3,65.6-65.6,65.6c-36.2,0-65.6-29.4-65.6-65.6C354.2,278.2,383.6,248.9,419.8,248.9z"/>
					<path opacity="0.8159" fill="#FFFFFF" enable-background="new    " d="M419.8,248.9c36.2,0,65.6,29.3,65.6,65.6
						c0,36.2-29.3,65.6-65.6,65.6c-36.2,0-65.6-29.4-65.6-65.6S383.6,248.9,419.8,248.9z"/>
					<path opacity="0.8109" fill="#FFFFFF" enable-background="new    " d="M419.9,248.9c36.2,0,65.6,29.3,65.6,65.6
						c0,36.2-29.3,65.6-65.6,65.6c-36.2,0-65.6-29.4-65.6-65.6S383.6,248.9,419.9,248.9z"/>
					<path opacity="0.806" fill="#FFFFFF" enable-background="new    " d="M419.9,249c36.2,0,65.6,29.3,65.6,65.6
						c0,36.2-29.3,65.6-65.6,65.6c-36.2,0-65.6-29.4-65.6-65.6C354.3,278.3,383.6,249,419.9,249z"/>
					<path opacity="0.801" fill="#FFFFFF" enable-background="new    " d="M419.9,249c36.2,0,65.6,29.3,65.6,65.6
						c0,36.2-29.3,65.6-65.6,65.6c-36.2,0-65.6-29.4-65.6-65.6C354.3,278.3,383.7,249,419.9,249z"/>
					<path opacity="0.796" fill="#FFFFFF" enable-background="new    " d="M419.9,249c36.2,0,65.6,29.3,65.6,65.6
						c0,36.2-29.3,65.6-65.6,65.6c-36.2,0-65.6-29.4-65.6-65.6S383.7,249,419.9,249z"/>
					<path opacity="0.791" fill="#FFFFFF" enable-background="new    " d="M420,249.2c36.2,0,65.6,29.3,65.6,65.6
						c0,36.2-29.3,65.6-65.6,65.6c-36.2,0-65.6-29.4-65.6-65.6C354.4,278.5,383.7,249.2,420,249.2z"/>
					<path opacity="0.7861" fill="#FFFFFF" enable-background="new    " d="M420,249.2c36.2,0,65.6,29.3,65.6,65.6
						c0,36.2-29.3,65.6-65.6,65.6c-36.2,0-65.6-29.4-65.6-65.6C354.4,278.5,383.7,249.2,420,249.2z"/>
					<path opacity="0.7811" fill="#FFFFFF" enable-background="new    " d="M420,249.2c36.2,0,65.6,29.3,65.6,65.6
						c0,36.2-29.3,65.6-65.6,65.6c-36.2,0-65.6-29.4-65.6-65.6S383.9,249.2,420,249.2z"/>
					<path opacity="0.7761" fill="#FFFFFF" enable-background="new    " d="M420,249.2c36.2,0,65.6,29.3,65.6,65.6
						c0,36.2-29.3,65.6-65.6,65.6c-36.2,0-65.6-29.4-65.6-65.6S383.9,249.2,420,249.2z"/>
					<path opacity="0.7711" fill="#FFFFFF" enable-background="new    " d="M420.2,249.3c36.2,0,65.6,29.3,65.6,65.6
						c0,36.2-29.3,65.6-65.6,65.6c-36.2,0-65.6-29.4-65.6-65.6C354.6,278.6,383.9,249.3,420.2,249.3z"/>
					<path opacity="0.7662" fill="#FFFFFF" enable-background="new    " d="M420.2,249.3c36.2,0,65.6,29.3,65.6,65.6
						c0,36.2-29.3,65.6-65.6,65.6c-36.2,0-65.6-29.4-65.6-65.6C354.6,278.6,383.9,249.3,420.2,249.3z"/>
					<path opacity="0.7612" fill="#FFFFFF" enable-background="new    " d="M420.2,249.3c36.2,0,65.6,29.4,65.6,65.6
						s-29.3,65.6-65.6,65.6c-36.2,0-65.6-29.4-65.6-65.6C354.6,278.7,384,249.3,420.2,249.3z"/>
					<path opacity="0.7562" fill="#FFFFFF" enable-background="new    " d="M420.2,249.4c36.3,0,65.6,29.3,65.6,65.6
						c0,36.2-29.3,65.6-65.6,65.6c-36.2,0-65.6-29.4-65.6-65.6C354.6,278.7,384,249.4,420.2,249.4z"/>
					<path opacity="0.7512" fill="#FFFFFF" enable-background="new    " d="M420.2,249.4c36.3,0,65.6,29.3,65.6,65.6
						c0,36.2-29.3,65.6-65.6,65.6c-36.2,0-65.6-29.4-65.6-65.6C354.6,278.7,384,249.4,420.2,249.4z"/>
					<path opacity="0.7463" fill="#FFFFFF" enable-background="new    " d="M420.3,249.4c36.2,0,65.6,29.3,65.6,65.6
						c0,36.2-29.3,65.6-65.6,65.6c-36.2,0-65.6-29.4-65.6-65.6C354.7,278.9,384,249.4,420.3,249.4z"/>
					<path opacity="0.7413" fill="#FFFFFF" enable-background="new    " d="M420.3,249.4c36.2,0,65.6,29.3,65.6,65.6
						c0,36.2-29.3,65.6-65.6,65.6c-36.2,0-65.6-29.4-65.6-65.6C354.7,278.9,384,249.4,420.3,249.4z"/>
					<path opacity="0.7363" fill="#FFFFFF" enable-background="new    " d="M420.3,249.6c36.2,0,65.6,29.3,65.6,65.6
						c0,36.2-29.3,65.6-65.6,65.6c-36.2,0-65.6-29.4-65.6-65.6C354.7,278.9,384.1,249.6,420.3,249.6z"/>
					<path opacity="0.7313" fill="#FFFFFF" enable-background="new    " d="M420.3,249.6c36.2,0,65.6,29.3,65.6,65.6
						c0,36.2-29.3,65.6-65.6,65.6c-36.2,0-65.6-29.4-65.6-65.6C354.7,278.9,384.1,249.6,420.3,249.6z"/>
					<path opacity="0.7264" fill="#FFFFFF" enable-background="new    " d="M420.4,249.6c36.2,0,65.6,29.3,65.6,65.6
						c0,36.2-29.3,65.6-65.6,65.6c-36.2,0-65.6-29.4-65.6-65.6S384.1,249.6,420.4,249.6z"/>
					<path opacity="0.7214" fill="#FFFFFF" enable-background="new    " d="M420.4,249.7c36.2,0,65.6,29.3,65.6,65.6
						c0,36.2-29.3,65.6-65.6,65.6c-36.2,0-65.6-29.4-65.6-65.6C354.8,279,384.1,249.7,420.4,249.7z"/>
					<path opacity="0.7164" fill="#FFFFFF" enable-background="new    " d="M420.4,249.7c36.2,0,65.6,29.3,65.6,65.6
						c0,36.2-29.3,65.6-65.6,65.6c-36.2,0-65.6-29.4-65.6-65.6C354.8,279,384.3,249.7,420.4,249.7z"/>
					<path opacity="0.7114" fill="#FFFFFF" enable-background="new    " d="M420.4,249.7c36.2,0,65.6,29.3,65.6,65.6
						c0,36.2-29.3,65.6-65.6,65.6c-36.2,0-65.6-29.4-65.6-65.6S384.3,249.7,420.4,249.7z"/>
					<path opacity="0.7065" fill="#FFFFFF" enable-background="new    " d="M420.6,249.7c36.2,0,65.6,29.3,65.6,65.6
						c0,36.2-29.3,65.6-65.6,65.6c-36.2,0-65.6-29.4-65.6-65.6S384.3,249.7,420.6,249.7z"/>
					<path opacity="0.7015" fill="#FFFFFF" enable-background="new    " d="M420.6,249.8c36.2,0,65.6,29.3,65.6,65.6
						c0,36.2-29.3,65.6-65.6,65.6c-36.2,0-65.6-29.4-65.6-65.6C354.9,279.1,384.3,249.8,420.6,249.8z"/>
					<path opacity="0.6965" fill="#FFFFFF" enable-background="new    " d="M420.6,249.8c36.2,0,65.6,29.3,65.6,65.6
						c0,36.2-29.3,65.6-65.6,65.6c-36.2,0-65.6-29.4-65.6-65.6C354.9,279.1,384.4,249.8,420.6,249.8z"/>
					<path opacity="0.6915" fill="#FFFFFF" enable-background="new    " d="M420.6,249.8c36.2,0,65.6,29.3,65.6,65.6
						c0,36.2-29.3,65.6-65.6,65.6c-36.2,0-65.6-29.4-65.6-65.6S384.4,249.8,420.6,249.8z"/>
					<path opacity="0.6866" fill="#FFFFFF" enable-background="new    " d="M420.7,250c36.2,0,65.6,29.3,65.6,65.6
						c0,36.2-29.3,65.6-65.6,65.6c-36.2,0-65.6-29.4-65.6-65.6C355.1,279.3,384.4,250,420.7,250z"/>
					<path opacity="0.6816" fill="#FFFFFF" enable-background="new    " d="M420.7,250c36.2,0,65.6,29.3,65.6,65.6
						c0,36.2-29.3,65.6-65.6,65.6c-36.2,0-65.6-29.4-65.6-65.6C355.1,279.3,384.4,250,420.7,250z"/>
					<path opacity="0.6766" fill="#FFFFFF" enable-background="new    " d="M420.7,250c36.2,0,65.6,29.3,65.6,65.6
						c0,36.2-29.3,65.6-65.6,65.6c-36.2,0-65.6-29.4-65.6-65.6S384.5,250,420.7,250z"/>
					<path opacity="0.6716" fill="#FFFFFF" enable-background="new    " d="M420.7,250c36.2,0,65.6,29.3,65.6,65.6
						c0,36.2-29.3,65.6-65.6,65.6c-36.2,0-65.6-29.4-65.6-65.6S384.5,250,420.7,250z"/>
					<path opacity="0.6667" fill="#FFFFFF" enable-background="new    " d="M420.7,250.1c36.2,0,65.6,29.3,65.6,65.6
						c0,36.2-29.3,65.6-65.6,65.6c-36.2,0-65.6-29.4-65.6-65.6C355.2,279.4,384.5,250.1,420.7,250.1z"/>
					<path opacity="0.6617" fill="#FFFFFF" enable-background="new    " d="M420.8,250.1c36.2,0,65.6,29.3,65.6,65.6
						c0,36.2-29.3,65.6-65.6,65.6c-36.2,0-65.6-29.4-65.6-65.6C355.2,279.5,384.5,250.1,420.8,250.1z"/>
					<path opacity="0.6567" fill="#FFFFFF" enable-background="new    " d="M420.8,250.1c36.2,0,65.6,29.3,65.6,65.6
						c0,36.2-29.3,65.6-65.6,65.6c-36.2,0-65.6-29.4-65.6-65.6C355.2,279.5,384.6,250.1,420.8,250.1z"/>
					<path opacity="0.6517" fill="#FFFFFF" enable-background="new    " d="M420.8,250.2c36.2,0,65.6,29.3,65.6,65.6
						c0,36.2-29.3,65.6-65.6,65.6c-36.2,0-65.6-29.4-65.6-65.6C355.2,279.5,384.6,250.2,420.8,250.2z"/>
					<path opacity="0.6468" fill="#FFFFFF" enable-background="new    " d="M420.8,250.2c36.2,0,65.6,29.3,65.6,65.6
						c0,36.2-29.3,65.6-65.6,65.6c-36.2,0-65.6-29.4-65.6-65.6C355.2,279.5,384.6,250.2,420.8,250.2z"/>
					<path opacity="0.6418" fill="#FFFFFF" enable-background="new    " d="M420.9,250.2c36.2,0,65.6,29.3,65.6,65.6
						c0,36.2-29.3,65.6-65.6,65.6c-36.2,0-65.6-29.4-65.6-65.6C355.3,279.7,384.6,250.2,420.9,250.2z"/>
					<path opacity="0.6368" fill="#FFFFFF" enable-background="new    " d="M420.9,250.2c36.2,0,65.6,29.3,65.6,65.6
						c0,36.2-29.3,65.6-65.6,65.6c-36.2,0-65.6-29.4-65.6-65.6C355.3,279.7,384.6,250.2,420.9,250.2z"/>
					<path opacity="0.6318" fill="#FFFFFF" enable-background="new    " d="M420.9,250.4c36.2,0,65.6,29.3,65.6,65.6
						c0,36.2-29.3,65.6-65.6,65.6c-36.2,0-65.6-29.4-65.6-65.6C355.3,279.7,384.8,250.4,420.9,250.4z"/>
					<path opacity="0.6269" fill="#FFFFFF" enable-background="new    " d="M420.9,250.4c36.2,0,65.6,29.3,65.6,65.6
						c0,36.2-29.3,65.6-65.6,65.6c-36.2,0-65.6-29.4-65.6-65.6C355.3,279.8,384.8,250.4,420.9,250.4z"/>
					<path opacity="0.6219" fill="#FFFFFF" enable-background="new    " d="M421.1,250.4c36.2,0,65.6,29.3,65.6,65.6
						c0,36.2-29.3,65.6-65.6,65.6c-36.2,0-65.6-29.4-65.6-65.6S384.8,250.4,421.1,250.4z"/>
					<path opacity="0.6169" fill="#FFFFFF" enable-background="new    " d="M421.1,250.5c36.2,0,65.6,29.3,65.6,65.6
						c0,36.2-29.3,65.6-65.6,65.6c-36.2,0-65.6-29.4-65.6-65.6C355.5,279.8,384.8,250.5,421.1,250.5z"/>
					<path opacity="0.6119" fill="#FFFFFF" enable-background="new    " d="M421.1,250.5c36.2,0,65.6,29.3,65.6,65.6
						c0,36.2-29.3,65.6-65.6,65.6c-36.2,0-65.6-29.4-65.6-65.6C355.5,279.8,384.9,250.5,421.1,250.5z"/>
					<path opacity="0.607" fill="#FFFFFF" enable-background="new    " d="M421.1,250.5c36.2,0,65.6,29.3,65.6,65.6
						c0,36.2-29.3,65.6-65.6,65.6c-36.2,0-65.6-29.4-65.6-65.6S384.9,250.5,421.1,250.5z"/>
					<path opacity="0.602" fill="#FFFFFF" enable-background="new    " d="M421.2,250.5c36.2,0,65.6,29.3,65.6,65.6
						c0,36.2-29.3,65.6-65.6,65.6c-36.2,0-65.6-29.4-65.6-65.6S384.9,250.5,421.2,250.5z"/>
					<path opacity="0.597" fill="#FFFFFF" enable-background="new    " d="M421.2,250.6c36.2,0,65.6,29.3,65.6,65.6
						c0,36.2-29.3,65.6-65.6,65.6c-36.2,0-65.6-29.4-65.6-65.6C355.6,279.9,384.9,250.6,421.2,250.6z"/>
					<path opacity="0.592" fill="#FFFFFF" enable-background="new    " d="M421.2,250.6c36.2,0,65.6,29.3,65.6,65.6
						s-29.3,65.6-65.6,65.6c-36.2,0-65.6-29.4-65.6-65.6S385,250.6,421.2,250.6z"/>
					<path opacity="0.5871" fill="#FFFFFF" enable-background="new    " d="M421.2,250.6c36.2,0,65.6,29.3,65.6,65.6
						c0,36.2-29.3,65.6-65.6,65.6c-36.2,0-65.6-29.4-65.6-65.6S385,250.6,421.2,250.6z"/>
					<path opacity="0.5821" fill="#FFFFFF" enable-background="new    " d="M421.3,250.8c36.2,0,65.6,29.3,65.6,65.6
						c0,36.2-29.3,65.6-65.6,65.6c-36.2,0-65.6-29.4-65.6-65.6C355.7,280.1,385,250.8,421.3,250.8z"/>
					<path opacity="0.5771" fill="#FFFFFF" enable-background="new    " d="M421.3,250.8c36.2,0,65.6,29.3,65.6,65.6
						c0,36.2-29.3,65.6-65.6,65.6c-36.2,0-65.6-29.4-65.6-65.6C355.7,280.1,385,250.8,421.3,250.8z"/>
					<path opacity="0.5721" fill="#FFFFFF" enable-background="new    " d="M421.3,250.8c36.2,0,65.6,29.3,65.6,65.6
						c0,36.2-29.3,65.6-65.6,65.6c-36.2,0-65.6-29.4-65.6-65.6S385.2,250.8,421.3,250.8z"/>
					<path opacity="0.5672" fill="#FFFFFF" enable-background="new    " d="M421.3,250.8c36.2,0,65.6,29.3,65.6,65.6
						c0,36.2-29.3,65.6-65.6,65.6c-36.2,0-65.6-29.4-65.6-65.6S385.2,250.8,421.3,250.8z"/>
					<path opacity="0.5622" fill="#FFFFFF" enable-background="new    " d="M421.3,250.9c36.2,0,65.6,29.3,65.6,65.6
						c0,36.2-29.3,65.6-65.6,65.6c-36.2,0-65.6-29.4-65.6-65.6C355.7,280.2,385.2,250.9,421.3,250.9z"/>
					<path opacity="0.5572" fill="#FFFFFF" enable-background="new    " d="M421.5,250.9c36.2,0,65.6,29.3,65.6,65.6
						c0,36.2-29.3,65.6-65.6,65.6c-36.2,0-65.6-29.4-65.6-65.6C355.9,280.3,385.2,250.9,421.5,250.9z"/>
					<path opacity="0.5522" fill="#FFFFFF" enable-background="new    " d="M421.5,250.9c36.2,0,65.6,29.3,65.6,65.6
						c0,36.2-29.3,65.6-65.6,65.6c-36.2,0-65.6-29.4-65.6-65.6C355.9,280.3,385.2,250.9,421.5,250.9z"/>
					<path opacity="0.5473" fill="#FFFFFF" enable-background="new    " d="M421.5,251c36.2,0,65.6,29.3,65.6,65.6
						c0,36.2-29.3,65.6-65.6,65.6c-36.2,0-65.6-29.4-65.6-65.6C355.9,280.3,385.3,251,421.5,251z"/>
					<path opacity="0.5423" fill="#FFFFFF" enable-background="new    " d="M421.5,251c36.2,0,65.6,29.3,65.6,65.6
						c0,36.2-29.3,65.6-65.6,65.6c-36.2,0-65.6-29.4-65.6-65.6C355.9,280.3,385.3,251,421.5,251z"/>
					<path opacity="0.5373" fill="#FFFFFF" enable-background="new    " d="M421.6,251c36.2,0,65.6,29.3,65.6,65.6
						c0,36.2-29.3,65.6-65.6,65.6c-36.2,0-65.6-29.4-65.6-65.6C356,280.5,385.3,251,421.6,251z"/>
					<path opacity="0.5323" fill="#FFFFFF" enable-background="new    " d="M421.6,251c36.2,0,65.6,29.3,65.6,65.6
						c0,36.2-29.3,65.6-65.6,65.6c-36.2,0-65.6-29.4-65.6-65.6C356,280.5,385.3,251,421.6,251z"/>
					<path opacity="0.5274" fill="#FFFFFF" enable-background="new    " d="M421.6,251.2c36.2,0,65.6,29.3,65.6,65.6
						c0,36.2-29.3,65.6-65.6,65.6c-36.2,0-65.6-29.4-65.6-65.6C356,280.5,385.4,251.2,421.6,251.2z"/>
					<path opacity="0.5224" fill="#FFFFFF" enable-background="new    " d="M421.6,251.2c36.2,0,65.6,29.3,65.6,65.6
						c0,36.2-29.3,65.6-65.6,65.6c-36.2,0-65.6-29.4-65.6-65.6C356,280.6,385.4,251.2,421.6,251.2z"/>
					<path opacity="0.5174" fill="#FFFFFF" enable-background="new    " d="M421.7,251.2c36.2,0,65.6,29.3,65.6,65.6
						c0,36.2-29.3,65.6-65.6,65.6c-36.2,0-65.6-29.4-65.6-65.6S385.4,251.2,421.7,251.2z"/>
					<path opacity="0.5124" fill="#FFFFFF" enable-background="new    " d="M421.7,251.3c36.2,0,65.6,29.3,65.6,65.6
						c0,36.2-29.3,65.6-65.6,65.6c-36.2,0-65.6-29.4-65.6-65.6C356.1,280.6,385.4,251.3,421.7,251.3z"/>
					<path opacity="0.5075" fill="#FFFFFF" enable-background="new    " d="M421.7,251.3c36.2,0,65.6,29.3,65.6,65.6
						c0,36.2-29.3,65.6-65.6,65.6c-36.2,0-65.6-29.4-65.6-65.6C356.1,280.6,385.6,251.3,421.7,251.3z"/>
					<path opacity="0.5025" fill="#FFFFFF" enable-background="new    " d="M421.7,251.3c36.2,0,65.6,29.3,65.6,65.6
						c0,36.2-29.3,65.6-65.6,65.6c-36.2,0-65.6-29.4-65.6-65.6S385.6,251.3,421.7,251.3z"/>
					<path opacity="0.4975" fill="#FFFFFF" enable-background="new    " d="M421.9,251.3c36.2,0,65.6,29.3,65.6,65.6
						c0,36.2-29.3,65.6-65.6,65.6c-36.2,0-65.6-29.4-65.6-65.6S385.6,251.3,421.9,251.3z"/>
					<path opacity="0.4925" fill="#FFFFFF" enable-background="new    " d="M421.9,251.4c36.2,0,65.6,29.3,65.6,65.6
						c0,36.2-29.3,65.6-65.6,65.6c-36.2,0-65.6-29.4-65.6-65.6C356.3,280.7,385.6,251.4,421.9,251.4z"/>
					<path opacity="0.4876" fill="#FFFFFF" enable-background="new    " d="M421.9,251.4c36.2,0,65.6,29.3,65.6,65.6
						c0,36.2-29.3,65.6-65.6,65.6c-36.2,0-65.6-29.4-65.6-65.6S385.7,251.4,421.9,251.4z"/>
					<path opacity="0.4826" fill="#FFFFFF" enable-background="new    " d="M421.9,251.4c36.2,0,65.6,29.3,65.6,65.6
						c0,36.2-29.3,65.6-65.6,65.6c-36.2,0-65.6-29.4-65.6-65.6S385.7,251.4,421.9,251.4z"/>
					<path opacity="0.4776" fill="#FFFFFF" enable-background="new    " d="M421.9,251.6c36.2,0,65.6,29.3,65.6,65.6
						c0,36.2-29.3,65.6-65.6,65.6c-36.2,0-65.6-29.4-65.6-65.6C356.4,280.9,385.7,251.6,421.9,251.6z"/>
					<path opacity="0.4726" fill="#FFFFFF" enable-background="new    " d="M422,251.6c36.2,0,65.6,29.3,65.6,65.6
						c0,36.2-29.3,65.6-65.6,65.6c-36.2,0-65.6-29.4-65.6-65.6C356.4,280.9,385.7,251.6,422,251.6z"/>
					<path opacity="0.4677" fill="#FFFFFF" enable-background="new    " d="M422,251.6c36.2,0,65.6,29.3,65.6,65.6
						c0,36.2-29.3,65.6-65.6,65.6c-36.2,0-65.6-29.4-65.6-65.6S385.8,251.6,422,251.6z"/>
					<path opacity="0.4627" fill="#FFFFFF" enable-background="new    " d="M422,251.6c36.2,0,65.6,29.3,65.6,65.6
						c0,36.2-29.3,65.6-65.6,65.6c-36.2,0-65.6-29.4-65.6-65.6S385.8,251.6,422,251.6z"/>
					<path opacity="0.4577" fill="#FFFFFF" enable-background="new    " d="M422,251.7c36.2,0,65.6,29.3,65.6,65.6
						c0,36.2-29.3,65.6-65.6,65.6c-36.2,0-65.6-29.4-65.6-65.6C356.4,281,385.8,251.7,422,251.7z"/>
					<path opacity="0.4527" fill="#FFFFFF" enable-background="new    " d="M422.1,251.7c36.2,0,65.6,29.3,65.6,65.6
						c0,36.2-29.3,65.6-65.6,65.6c-36.2,0-65.6-29.4-65.6-65.6C356.5,281.1,385.8,251.7,422.1,251.7z"/>
					<path opacity="0.4478" fill="#FFFFFF" enable-background="new    " d="M422.1,251.7c36.2,0,65.6,29.3,65.6,65.6
						c0,36.2-29.3,65.6-65.6,65.6c-36.2,0-65.6-29.4-65.6-65.6C356.5,281.1,385.8,251.7,422.1,251.7z"/>
					<path opacity="0.4428" fill="#FFFFFF" enable-background="new    " d="M422.1,251.8c36.2,0,65.6,29.3,65.6,65.6
						c0,36.2-29.3,65.6-65.6,65.6c-36.2,0-65.6-29.4-65.6-65.6C356.5,281.1,386,251.8,422.1,251.8z"/>
					<path opacity="0.4378" fill="#FFFFFF" enable-background="new    " d="M422.1,251.8c36.2,0,65.6,29.3,65.6,65.6
						c0,36.2-29.3,65.6-65.6,65.6c-36.2,0-65.6-29.4-65.6-65.6C356.5,281.1,386,251.8,422.1,251.8z"/>
					<path opacity="0.4328" fill="#FFFFFF" enable-background="new    " d="M422.3,251.8c36.2,0,65.6,29.3,65.6,65.6
						c0,36.2-29.3,65.6-65.6,65.6c-36.2,0-65.6-29.4-65.6-65.6C356.7,281.2,386,251.8,422.3,251.8z"/>
					<path opacity="0.4279" fill="#FFFFFF" enable-background="new    " d="M422.3,251.8c36.2,0,65.6,29.3,65.6,65.6
						c0,36.2-29.3,65.6-65.6,65.6c-36.2,0-65.6-29.4-65.6-65.6C356.7,281.2,386,251.8,422.3,251.8z"/>
					<path opacity="0.4229" fill="#FFFFFF" enable-background="new    " d="M422.3,251.9c36.2,0,65.6,29.3,65.6,65.6
						c0,36.2-29.3,65.6-65.6,65.6c-36.2,0-65.6-29.4-65.6-65.6C356.7,281.2,386.1,251.9,422.3,251.9z"/>
					<path opacity="0.4179" fill="#FFFFFF" enable-background="new    " d="M422.3,251.9c36.2,0,65.6,29.3,65.6,65.6
						c0,36.2-29.3,65.6-65.6,65.6c-36.2,0-65.6-29.4-65.6-65.6C356.7,281.4,386.1,251.9,422.3,251.9z"/>
					<path opacity="0.4129" fill="#FFFFFF" enable-background="new    " d="M422.4,251.9c36.2,0,65.6,29.3,65.6,65.6
						c0,36.2-29.3,65.6-65.6,65.6c-36.2,0-65.6-29.4-65.6-65.6S386.1,251.9,422.4,251.9z"/>
					<path opacity="0.408" fill="#FFFFFF" enable-background="new    " d="M422.4,252.1c36.2,0,65.6,29.3,65.6,65.6
						c0,36.2-29.3,65.6-65.6,65.6c-36.2,0-65.6-29.4-65.6-65.6C356.8,281.4,386.1,252.1,422.4,252.1z"/>
					<path opacity="0.403" fill="#FFFFFF" enable-background="new    " d="M422.4,252.1c36.2,0,65.6,29.3,65.6,65.6
						c0,36.2-29.3,65.6-65.6,65.6c-36.2,0-65.6-29.4-65.6-65.6C356.8,281.4,386.2,252.1,422.4,252.1z"/>
					<path opacity="0.398" fill="#FFFFFF" enable-background="new    " d="M422.4,252.1c36.2,0,65.6,29.3,65.6,65.6
						c0,36.2-29.3,65.6-65.6,65.6c-36.2,0-65.6-29.4-65.6-65.6S386.2,252.1,422.4,252.1z"/>
					<path opacity="0.393" fill="#FFFFFF" enable-background="new    " d="M422.5,252.1c36.2,0,65.6,29.3,65.6,65.6
						c0,36.2-29.3,65.6-65.6,65.6c-36.2,0-65.6-29.4-65.6-65.6S386.2,252.1,422.5,252.1z"/>
					<path opacity="0.3881" fill="#FFFFFF" enable-background="new    " d="M422.5,252.2c36.2,0,65.6,29.3,65.6,65.6
						c0,36.2-29.3,65.6-65.6,65.6c-36.2,0-65.6-29.4-65.6-65.6C356.9,281.5,386.2,252.2,422.5,252.2z"/>
					<path opacity="0.3831" fill="#FFFFFF" enable-background="new    " d="M422.5,252.2c36.2,0,65.6,29.3,65.6,65.6
						c0,36.2-29.3,65.6-65.6,65.6c-36.2,0-65.6-29.4-65.6-65.6S386.4,252.2,422.5,252.2z"/>
					<path opacity="0.3781" fill="#FFFFFF" enable-background="new    " d="M422.5,252.2c36.2,0,65.6,29.3,65.6,65.6
						c0,36.2-29.3,65.6-65.6,65.6c-36.2,0-65.6-29.4-65.6-65.6S386.4,252.2,422.5,252.2z"/>
					<path opacity="0.3731" fill="#FFFFFF" enable-background="new    " d="M422.5,252.3c36.2,0,65.6,29.3,65.6,65.6
						c0,36.2-29.3,65.6-65.6,65.6c-36.2,0-65.6-29.4-65.6-65.6C357.1,281.6,386.4,252.3,422.5,252.3z"/>
					<path opacity="0.3682" fill="#FFFFFF" enable-background="new    " d="M422.7,252.3c36.2,0,65.6,29.3,65.6,65.6
						c0,36.2-29.3,65.6-65.6,65.6c-36.2,0-65.6-29.4-65.6-65.6C357.1,281.6,386.4,252.3,422.7,252.3z"/>
					<path opacity="0.3632" fill="#FFFFFF" enable-background="new    " d="M422.7,252.3c36.2,0,65.6,29.3,65.6,65.6
						c0,36.2-29.3,65.6-65.6,65.6c-36.2,0-65.6-29.4-65.6-65.6S386.5,252.3,422.7,252.3z"/>
					<path opacity="0.3582" fill="#FFFFFF" enable-background="new    " d="M422.7,252.3c36.2,0,65.6,29.3,65.6,65.6
						c0,36.2-29.3,65.6-65.6,65.6c-36.2,0-65.6-29.4-65.6-65.6S386.5,252.3,422.7,252.3z"/>
					<path opacity="0.3532" fill="#FFFFFF" enable-background="new    " d="M422.7,252.5c36.2,0,65.6,29.3,65.6,65.6
						c0,36.2-29.3,65.6-65.6,65.6c-36.2,0-65.6-29.4-65.6-65.6C357.1,281.8,386.5,252.5,422.7,252.5z"/>
					<path opacity="0.3483" fill="#FFFFFF" enable-background="new    " d="M422.8,252.5c36.2,0,65.6,29.3,65.6,65.6
						c0,36.2-29.3,65.6-65.6,65.6c-36.2,0-65.6-29.4-65.6-65.6C357.2,281.9,386.5,252.5,422.8,252.5z"/>
					<path opacity="0.3433" fill="#FFFFFF" enable-background="new    " d="M422.8,252.5c36.2,0,65.6,29.3,65.6,65.6
						c0,36.2-29.3,65.6-65.6,65.6c-36.2,0-65.6-29.4-65.6-65.6C357.2,281.9,386.5,252.5,422.8,252.5z"/>
					<path opacity="0.3383" fill="#FFFFFF" enable-background="new    " d="M422.8,252.6c36.2,0,65.6,29.3,65.6,65.6
						c0,36.2-29.3,65.6-65.6,65.6c-36.2,0-65.6-29.4-65.6-65.6C357.2,281.9,386.6,252.6,422.8,252.6z"/>
					<path opacity="0.3333" fill="#FFFFFF" enable-background="new    " d="M422.8,252.6c36.2,0,65.6,29.3,65.6,65.6
						c0,36.2-29.3,65.6-65.6,65.6c-36.2,0-65.6-29.4-65.6-65.6C357.2,281.9,386.6,252.6,422.8,252.6z"/>
					<path opacity="0.3284" fill="#FFFFFF" enable-background="new    " d="M422.9,252.6c36.2,0,65.6,29.3,65.6,65.6
						c0,36.2-29.3,65.6-65.6,65.6c-36.2,0-65.6-29.4-65.6-65.6C357.3,282,386.6,252.6,422.9,252.6z"/>
					<path opacity="0.3234" fill="#FFFFFF" enable-background="new    " d="M422.9,252.6c36.2,0,65.6,29.3,65.6,65.6
						c0,36.2-29.3,65.6-65.6,65.6c-36.2,0-65.6-29.4-65.6-65.6C357.3,282,386.6,252.6,422.9,252.6z"/>
					<path opacity="0.3184" fill="#FFFFFF" enable-background="new    " d="M422.9,252.7c36.2,0,65.6,29.3,65.6,65.6
						c0,36.2-29.3,65.6-65.6,65.6c-36.2,0-65.6-29.4-65.6-65.6C357.3,282,386.8,252.7,422.9,252.7z"/>
					<path opacity="0.3134" fill="#FFFFFF" enable-background="new    " d="M422.9,252.7c36.2,0,65.6,29.3,65.6,65.6
						c0,36.2-29.3,65.6-65.6,65.6c-36.2,0-65.6-29.4-65.6-65.6C357.3,282.2,386.8,252.7,422.9,252.7z"/>
					<path opacity="0.3085" fill="#FFFFFF" enable-background="new    " d="M423.1,252.7c36.2,0,65.6,29.3,65.6,65.6
						c0,36.2-29.3,65.6-65.6,65.6c-36.2,0-65.6-29.4-65.6-65.6S386.8,252.7,423.1,252.7z"/>
					<path opacity="0.3035" fill="#FFFFFF" enable-background="new    " d="M423.1,252.9c36.2,0,65.6,29.3,65.6,65.6
						c0,36.2-29.3,65.6-65.6,65.6c-36.2,0-65.6-29.4-65.6-65.6C357.5,282.2,386.8,252.9,423.1,252.9z"/>
					<path opacity="0.2985" fill="#FFFFFF" enable-background="new    " d="M423.1,252.9c36.2,0,65.6,29.3,65.6,65.6
						c0,36.2-29.3,65.6-65.6,65.6c-36.2,0-65.6-29.4-65.6-65.6C357.5,282.2,386.9,252.9,423.1,252.9z"/>
					<path opacity="0.2935" fill="#FFFFFF" enable-background="new    " d="M423.1,252.9c36.2,0,65.6,29.3,65.6,65.6
						c0,36.2-29.3,65.6-65.6,65.6c-36.2,0-65.6-29.4-65.6-65.6S386.9,252.9,423.1,252.9z"/>
					<path opacity="0.2886" fill="#FFFFFF" enable-background="new    " d="M423.2,252.9c36.2,0,65.6,29.3,65.6,65.6
						c0,36.2-29.3,65.6-65.6,65.6c-36.2,0-65.6-29.4-65.6-65.6S386.9,252.9,423.2,252.9z"/>
					<path opacity="0.2836" fill="#FFFFFF" enable-background="new    " d="M423.2,253c36.2,0,65.6,29.3,65.6,65.6
						c0,36.2-29.3,65.6-65.6,65.6c-36.2,0-65.6-29.4-65.6-65.6C357.6,282.3,386.9,253,423.2,253z"/>
					<path opacity="0.2786" fill="#FFFFFF" enable-background="new    " d="M423.2,253c36.2,0,65.6,29.3,65.6,65.6
						c0,36.2-29.3,65.6-65.6,65.6c-36.2,0-65.6-29.4-65.6-65.6S387,253,423.2,253z"/>
					<path opacity="0.2736" fill="#FFFFFF" enable-background="new    " d="M423.2,253c36.2,0,65.6,29.3,65.6,65.6
						c0,36.2-29.3,65.6-65.6,65.6c-36.2,0-65.6-29.4-65.6-65.6S387,253,423.2,253z"/>
					<path opacity="0.2687" fill="#FFFFFF" enable-background="new    " d="M423.2,253.1c36.2,0,65.6,29.3,65.6,65.6
						c0,36.2-29.3,65.6-65.6,65.6c-36.2,0-65.6-29.4-65.6-65.6C357.6,282.4,387,253.1,423.2,253.1z"/>
					<path opacity="0.2637" fill="#FFFFFF" enable-background="new    " d="M423.3,253.1c36.2,0,65.6,29.3,65.6,65.6
						c0,36.2-29.3,65.6-65.6,65.6c-36.2,0-65.6-29.4-65.6-65.6C357.7,282.4,387,253.1,423.3,253.1z"/>
					<path opacity="0.2587" fill="#FFFFFF" enable-background="new    " d="M423.3,253.1c36.2,0,65.6,29.3,65.6,65.6
						c0,36.2-29.3,65.6-65.6,65.6c-36.2,0-65.6-29.4-65.6-65.6S387,253.1,423.3,253.1z"/>
					<path opacity="0.2537" fill="#FFFFFF" enable-background="new    " d="M423.3,253.1c36.2,0,65.6,29.3,65.6,65.6
						c0,36.2-29.3,65.6-65.6,65.6c-36.2,0-65.6-29.4-65.6-65.6S387.2,253.1,423.3,253.1z"/>
					<path opacity="0.2488" fill="#FFFFFF" enable-background="new    " d="M423.3,253.3c36.2,0,65.6,29.3,65.6,65.6
						c0,36.2-29.3,65.6-65.6,65.6c-36.2,0-65.6-29.4-65.6-65.6C357.7,282.6,387.2,253.3,423.3,253.3z"/>
					<path opacity="0.2438" fill="#FFFFFF" enable-background="new    " d="M423.5,253.3c36.2,0,65.6,29.3,65.6,65.6
						c0,36.2-29.3,65.6-65.6,65.6c-36.2,0-65.6-29.4-65.6-65.6C357.9,282.7,387.2,253.3,423.5,253.3z"/>
					<path opacity="0.2388" fill="#FFFFFF" enable-background="new    " d="M423.5,253.3c36.2,0,65.6,29.3,65.6,65.6
						c0,36.2-29.3,65.6-65.6,65.6c-36.2,0-65.6-29.4-65.6-65.6C357.9,282.7,387.2,253.3,423.5,253.3z"/>
					<path opacity="0.2338" fill="#FFFFFF" enable-background="new    " d="M423.5,253.4c36.2,0,65.6,29.3,65.6,65.6
						c0,36.2-29.3,65.6-65.6,65.6c-36.2,0-65.6-29.4-65.6-65.6C357.9,282.7,387.3,253.4,423.5,253.4z"/>
					<path opacity="0.2289" fill="#FFFFFF" enable-background="new    " d="M423.5,253.4c36.2,0,65.6,29.3,65.6,65.6
						c0,36.2-29.3,65.6-65.6,65.6c-36.2,0-65.6-29.4-65.6-65.6C357.9,282.7,387.3,253.4,423.5,253.4z"/>
					<path opacity="0.2239" fill="#FFFFFF" enable-background="new    " d="M423.6,253.4c36.2,0,65.6,29.3,65.6,65.6
						c0,36.2-29.3,65.6-65.6,65.6c-36.2,0-65.6-29.4-65.6-65.6C358,282.8,387.3,253.4,423.6,253.4z"/>
					<path opacity="0.2189" fill="#FFFFFF" enable-background="new    " d="M423.6,253.4c36.2,0,65.6,29.3,65.6,65.6
						c0,36.2-29.3,65.6-65.6,65.6c-36.2,0-65.6-29.4-65.6-65.6C358,282.8,387.3,253.4,423.6,253.4z"/>
					<path opacity="0.2139" fill="#FFFFFF" enable-background="new    " d="M423.6,253.5c36.2,0,65.6,29.3,65.6,65.6
						c0,36.2-29.3,65.6-65.6,65.6c-36.2,0-65.6-29.4-65.6-65.6C358,282.8,387.4,253.5,423.6,253.5z"/>
					<path opacity="0.209" fill="#FFFFFF" enable-background="new    " d="M423.6,253.5c36.2,0,65.6,29.3,65.6,65.6
						c0,36.2-29.3,65.6-65.6,65.6c-36.2,0-65.6-29.4-65.6-65.6C358,283,387.4,253.5,423.6,253.5z"/>
					<path opacity="0.204" fill="#FFFFFF" enable-background="new    " d="M423.7,253.5c36.2,0,65.6,29.3,65.6,65.6
						s-29.3,65.6-65.6,65.6c-36.2,0-65.6-29.4-65.6-65.6S387.4,253.5,423.7,253.5z"/>
					<path opacity="0.199" fill="#FFFFFF" enable-background="new    " d="M423.7,253.7c36.2,0,65.6,29.3,65.6,65.6
						s-29.3,65.6-65.6,65.6c-36.2,0-65.6-29.4-65.6-65.6C358.1,283,387.4,253.7,423.7,253.7z"/>
					<path opacity="0.194" fill="#FFFFFF" enable-background="new    " d="M423.7,253.7c36.2,0,65.6,29.3,65.6,65.6
						s-29.3,65.6-65.6,65.6c-36.2,0-65.6-29.4-65.6-65.6C358.1,283,387.6,253.7,423.7,253.7z"/>
					<path opacity="0.1891" fill="#FFFFFF" enable-background="new    " d="M423.7,253.7c36.2,0,65.6,29.3,65.6,65.6
						s-29.3,65.6-65.6,65.6c-36.2,0-65.6-29.4-65.6-65.6S387.6,253.7,423.7,253.7z"/>
					<path opacity="0.1841" fill="#FFFFFF" enable-background="new    " d="M423.7,253.7c36.2,0,65.6,29.3,65.6,65.6
						s-29.3,65.6-65.6,65.6c-36.2,0-65.6-29.4-65.6-65.6C358.2,283.1,387.6,253.7,423.7,253.7z"/>
					<path opacity="0.1791" fill="#FFFFFF" enable-background="new    " d="M423.9,253.8c36.2,0,65.6,29.3,65.6,65.6
						S460.2,385,423.9,385c-36.2,0-65.6-29.4-65.6-65.6C358.2,283.1,387.6,253.8,423.9,253.8z"/>
					<path opacity="0.1741" fill="#FFFFFF" enable-background="new    " d="M423.9,253.8c36.2,0,65.6,29.3,65.6,65.6
						S460.2,385,423.9,385c-36.2,0-65.6-29.4-65.6-65.6S387.7,253.8,423.9,253.8z"/>
					<path opacity="0.1692" fill="#FFFFFF" enable-background="new    " d="M423.9,253.8c36.2,0,65.6,29.3,65.6,65.6
						S460.2,385,423.9,385c-36.2,0-65.6-29.4-65.6-65.6S387.7,253.8,423.9,253.8z"/>
					<path opacity="0.1642" fill="#FFFFFF" enable-background="new    " d="M423.9,253.9c36.2,0,65.6,29.3,65.6,65.6
						s-29.3,65.6-65.6,65.6c-36.2,0-65.6-29.4-65.6-65.6C358.2,283.2,387.7,253.9,423.9,253.9z"/>
					<path opacity="0.1592" fill="#FFFFFF" enable-background="new    " d="M424,253.9c36.2,0,65.6,29.3,65.6,65.6
						s-29.3,65.6-65.6,65.6c-36.2,0-65.6-29.4-65.6-65.6C358.4,283.2,387.7,253.9,424,253.9z"/>
					<path opacity="0.1542" fill="#FFFFFF" enable-background="new    " d="M424,253.9c36.2,0,65.6,29.3,65.6,65.6
						s-29.3,65.6-65.6,65.6c-36.2,0-65.6-29.4-65.6-65.6S387.7,253.9,424,253.9z"/>
					<path opacity="0.1493" fill="#FFFFFF" enable-background="new    " d="M424,253.9c36.2,0,65.6,29.3,65.6,65.6
						s-29.3,65.6-65.6,65.6c-36.2,0-65.6-29.4-65.6-65.6S387.8,253.9,424,253.9z"/>
					<path opacity="0.1443" fill="#FFFFFF" enable-background="new    " d="M424,254.1c36.2,0,65.6,29.3,65.6,65.6
						s-29.3,65.6-65.6,65.6c-36.2,0-65.6-29.4-65.6-65.6C358.4,283.4,387.8,254.1,424,254.1z"/>
					<path opacity="0.1393" fill="#FFFFFF" enable-background="new    " d="M424.1,254.1c36.2,0,65.6,29.3,65.6,65.6
						s-29.3,65.6-65.6,65.6c-36.2,0-65.6-29.4-65.6-65.6C358.5,283.5,387.8,254.1,424.1,254.1z"/>
					<path opacity="0.1343" fill="#FFFFFF" enable-background="new    " d="M424.1,254.1c36.2,0,65.6,29.3,65.6,65.6
						s-29.3,65.6-65.6,65.6c-36.2,0-65.6-29.4-65.6-65.6C358.5,283.5,387.8,254.1,424.1,254.1z"/>
					<path opacity="0.1294" fill="#FFFFFF" enable-background="new    " d="M424.1,254.2c36.2,0,65.6,29.3,65.6,65.6
						s-29.3,65.6-65.6,65.6c-36.2,0-65.6-29.4-65.6-65.6C358.5,283.5,387.9,254.2,424.1,254.2z"/>
					<path opacity="0.1244" fill="#FFFFFF" enable-background="new    " d="M424.1,254.2c36.2,0,65.6,29.3,65.6,65.6
						s-29.3,65.6-65.6,65.6c-36.2,0-65.6-29.4-65.6-65.6C358.5,283.5,387.9,254.2,424.1,254.2z"/>
					<path opacity="0.1194" fill="#FFFFFF" enable-background="new    " d="M424.2,254.2c36.2,0,65.6,29.3,65.6,65.6
						s-29.3,65.6-65.6,65.6c-36.2,0-65.6-29.4-65.6-65.6C358.6,283.6,387.9,254.2,424.2,254.2z"/>
					<path opacity="0.1144" fill="#FFFFFF" enable-background="new    " d="M424.2,254.3c36.2,0,65.6,29.3,65.6,65.6
						s-29.3,65.6-65.6,65.6c-36.2,0-65.6-29.4-65.6-65.6C358.6,283.6,387.9,254.3,424.2,254.3z"/>
					<path opacity="0.1095" fill="#FFFFFF" enable-background="new    " d="M424.2,254.3c36.2,0,65.6,29.3,65.6,65.6
						s-29.3,65.6-65.6,65.6c-36.2,0-65.6-29.4-65.6-65.6C358.6,283.6,388.1,254.3,424.2,254.3z"/>
					<path opacity="0.1045" fill="#FFFFFF" enable-background="new    " d="M424.2,254.3c36.2,0,65.6,29.3,65.6,65.6
						s-29.3,65.6-65.6,65.6c-36.2,0-65.6-29.4-65.6-65.6C358.6,283.8,388.1,254.3,424.2,254.3z"/>
					<path opacity="9.950249e-02" fill="#FFFFFF" enable-background="new    " d="M424.4,254.3c36.2,0,65.6,29.4,65.6,65.6
						c0,36.3-29.3,65.6-65.6,65.6c-36.2,0-65.6-29.4-65.6-65.6S388.1,254.3,424.4,254.3z"/>
					<path opacity="9.452736e-02" fill="#FFFFFF" enable-background="new    " d="M424.4,254.5c36.2,0,65.6,29.4,65.6,65.6
						c0,36.3-29.3,65.6-65.6,65.6c-36.2,0-65.6-29.4-65.6-65.6C358.8,283.8,388.1,254.5,424.4,254.5z"/>
					<path opacity="8.955224e-02" fill="#FFFFFF" enable-background="new    " d="M424.4,254.5c36.2,0,65.6,29.4,65.6,65.6
						c0,36.3-29.3,65.6-65.6,65.6c-36.2,0-65.6-29.4-65.6-65.6C358.8,283.8,388.2,254.5,424.4,254.5z"/>
					<path opacity="8.457711e-02" fill="#FFFFFF" enable-background="new    " d="M424.4,254.5c36.2,0,65.6,29.4,65.6,65.6
						c0,36.3-29.3,65.6-65.6,65.6c-36.2,0-65.6-29.4-65.6-65.6S388.2,254.5,424.4,254.5z"/>
					<path opacity="7.960199e-02" fill="#FFFFFF" enable-background="new    " d="M424.4,254.6c36.2,0,65.6,29.4,65.6,65.6
						c0,36.3-29.3,65.6-65.6,65.6c-36.2,0-65.6-29.4-65.6-65.6C358.9,283.9,388.2,254.6,424.4,254.6z"/>
					<path opacity="7.462686e-02" fill="#FFFFFF" enable-background="new    " d="M424.5,254.6c36.2,0,65.6,29.4,65.6,65.6
						c0,36.3-29.3,65.6-65.6,65.6c-36.2,0-65.6-29.4-65.6-65.6C358.9,283.9,388.2,254.6,424.5,254.6z"/>
					<path opacity="6.965174e-02" fill="#FFFFFF" enable-background="new    " d="M424.5,254.6c36.2,0,65.6,29.4,65.6,65.6
						c0,36.3-29.3,65.6-65.6,65.6c-36.2,0-65.6-29.4-65.6-65.6S388.2,254.6,424.5,254.6z"/>
					<path opacity="6.467662e-02" fill="#FFFFFF" enable-background="new    " d="M424.5,254.6c36.2,0,65.6,29.4,65.6,65.6
						c0,36.3-29.3,65.6-65.6,65.6c-36.2,0-65.6-29.4-65.6-65.6S388.3,254.6,424.5,254.6z"/>
					<path opacity="5.970149e-02" fill="#FFFFFF" enable-background="new    " d="M424.5,254.7c36.2,0,65.6,29.4,65.6,65.6
						c0,36.3-29.3,65.6-65.6,65.6c-36.2,0-65.6-29.4-65.6-65.6C358.9,284,388.3,254.7,424.5,254.7z"/>
					<path opacity="5.472637e-02" fill="#FFFFFF" enable-background="new    " d="M424.6,254.7c36.2,0,65.6,29.4,65.6,65.6
						c0,36.3-29.3,65.6-65.6,65.6c-36.2,0-65.6-29.4-65.6-65.6C359,284,388.3,254.7,424.6,254.7z"/>
					<path opacity="4.975124e-02" fill="#FFFFFF" enable-background="new    " d="M424.6,254.7c36.2,0,65.6,29.4,65.6,65.6
						c0,36.3-29.3,65.6-65.6,65.6c-36.2,0-65.6-29.4-65.6-65.6S388.3,254.7,424.6,254.7z"/>
					<path opacity="4.477612e-02" fill="#FFFFFF" enable-background="new    " d="M424.6,254.8c36.2,0,65.6,29.4,65.6,65.6
						c0,36.3-29.3,65.6-65.6,65.6c-36.2,0-65.6-29.4-65.6-65.6C359,284.2,388.5,254.8,424.6,254.8z"/>
					<path opacity="3.980099e-02" fill="#FFFFFF" enable-background="new    " d="M424.6,254.8c36.2,0,65.6,29.4,65.6,65.6
						c0,36.3-29.3,65.6-65.6,65.6c-36.2,0-65.6-29.4-65.6-65.6C359,284.2,388.5,254.8,424.6,254.8z"/>
					<path opacity="3.482587e-02" fill="#FFFFFF" enable-background="new    " d="M424.8,254.8c36.2,0,65.6,29.4,65.6,65.6
						c0,36.3-29.3,65.6-65.6,65.6c-36.2,0-65.6-29.4-65.6-65.6C359.2,284.3,388.5,254.8,424.8,254.8z"/>
					<path opacity="2.985075e-02" fill="#FFFFFF" enable-background="new    " d="M424.8,254.8c36.2,0,65.6,29.4,65.6,65.6
						c0,36.3-29.3,65.6-65.6,65.6c-36.2,0-65.6-29.4-65.6-65.6C359.2,284.3,388.5,254.8,424.8,254.8z"/>
					<path opacity="2.487562e-02" fill="#FFFFFF" enable-background="new    " d="M424.8,255c36.2,0,65.6,29.4,65.6,65.6
						c0,36.3-29.3,65.6-65.6,65.6c-36.2,0-65.6-29.4-65.6-65.6C359.2,284.3,388.6,255,424.8,255z"/>
					<path opacity="1.990050e-02" fill="#FFFFFF" enable-background="new    " d="M424.8,255c36.2,0,65.6,29.4,65.6,65.6
						c0,36.3-29.3,65.6-65.6,65.6c-36.2,0-65.6-29.4-65.6-65.6C359.2,284.3,388.6,255,424.8,255z"/>
					<path opacity="1.492537e-02" fill="#FFFFFF" enable-background="new    " d="M424.9,255c36.2,0,65.6,29.4,65.6,65.6
						c0,36.3-29.3,65.6-65.6,65.6c-36.2,0-65.6-29.4-65.6-65.6C359.3,284.4,388.6,255,424.9,255z"/>
					<path opacity="9.950249e-03" fill="#FFFFFF" enable-background="new    " d="M424.9,255.1c36.2,0,65.6,29.4,65.6,65.6
						c0,36.3-29.3,65.6-65.6,65.6c-36.2,0-65.6-29.4-65.6-65.6C359.3,284.4,388.6,255.1,424.9,255.1z"/>
					<path opacity="4.975124e-03" fill="#FFFFFF" enable-background="new    " d="M424.9,255.1c36.2,0,65.6,29.4,65.6,65.6
						c0,36.3-29.3,65.6-65.6,65.6c-36.2,0-65.6-29.4-65.6-65.6C359.3,284.4,388.7,255.1,424.9,255.1z"/>
					<path fill="#FFFFFF" fill-opacity="0" d="M490.5,320.7c0,36.3-29.3,65.6-65.6,65.6c-36.2,0-65.6-29.3-65.6-65.6
						c0-36.2,29.4-65.6,65.6-65.6C461.2,255.1,490.5,284.5,490.5,320.7z"/>
				</g>
			</g>
		</g>
	</g>
</g>
</svg>
