<?xml version="1.0" encoding="utf-8"?>
<!-- Generator: Adobe Illustrator 18.1.0, SVG Export Plug-In . SVG Version: 6.00 Build 0)  -->
<svg version="1.1" id="Layer_1" xmlns="http://www.w3.org/2000/svg" xmlns:xlink="http://www.w3.org/1999/xlink" x="0px" y="0px"
	 viewBox="0 0 600 103.3" enable-background="new 0 0 600 103.3" xml:space="preserve">
<path d="M28.8,3.7H1.9v93.8h26.7c14.2,0,24.5-3.3,33.5-10.8c10.7-8.9,17-22.2,17-36C79.1,23,58.4,3.7,28.8,3.7z M50.1,74.2
	c-5.8,5.2-13.2,7.5-25,7.5h-4.9v-62h4.9c11.8,0,19,2.1,25,7.6c6.3,5.6,10.1,14.4,10.1,23.4C60.3,59.6,56.5,68.6,50.1,74.2z"/>
<rect x="87.6" y="3.7" width="18.3" height="93.8"/>
<path d="M150.6,39.7c-11-4.1-14.2-6.7-14.2-11.8c0-5.9,5.7-10.4,13.6-10.4c5.5,0,10,2.3,14.8,7.6l9.6-12.5
	c-7.9-6.9-17.3-10.4-27.6-10.4c-16.6,0-29.3,11.5-29.3,26.9c0,12.9,5.9,19.5,23.1,25.7c7.2,2.5,10.8,4.2,12.7,5.3
	c3.7,2.4,5.5,5.8,5.5,9.7c0,7.6-6,13.2-14.2,13.2c-8.7,0-15.8-4.4-20-12.5l-11.8,11.4c8.4,12.4,18.6,17.9,32.5,17.9
	c19,0,32.4-12.6,32.4-30.8C177.6,54.1,171.4,47.3,150.6,39.7z"/>
<path d="M183.4,50.7c0,27.6,21.7,49,49.5,49c7.9,0,14.6-1.5,22.9-5.5V72.6c-7.3,7.3-13.8,10.3-22.1,10.3
	c-18.4,0-31.5-13.4-31.5-32.4c0-18,13.5-32.2,30.7-32.2c8.7,0,15.3,3.1,22.9,10.6V7.4c-8-4.1-14.6-5.8-22.5-5.8
	C205.6,1.6,183.4,23.4,183.4,50.7z"/>
<polygon points="401,66.7 376,3.7 356,3.7 395.8,100 405.6,100 446.2,3.7 426.3,3.7 "/>
<polygon points="454.4,97.5 506.4,97.5 506.4,81.7 472.7,81.7 472.7,56.3 505.1,56.3 505.1,40.4 472.7,40.4 472.7,19.6 506.4,19.6 
	506.4,3.7 454.4,3.7 "/>
<path d="M578.8,31.4c0-17.6-12.1-27.7-33.2-27.7h-27.1v93.8h18.3V59.8h2.4l25.3,37.7H587L557.4,58C571.2,55.2,578.8,45.8,578.8,31.4
	z M542.1,46.9h-5.4V18.5h5.6c11.4,0,17.6,4.8,17.6,13.9C560,41.8,553.8,46.9,542.1,46.9z"/>
<g>
	<path d="M593.4,8.6c0-1.6-1.1-2.6-3.1-2.6h-2.7v8.3h2v-3.2l2.3,3.2h2.4l-2.7-3.4C592.8,10.6,593.4,9.8,593.4,8.6z M589.9,9.8h-0.3
		V7.6h0.4c1,0,1.5,0.4,1.5,1.1C591.4,9.4,590.9,9.8,589.9,9.8z"/>
	<path d="M590.7,3c-4,0-7.2,3.2-7.2,7.2c0,4,3.2,7.2,7.2,7.2c3.9,0,7.1-3.2,7.1-7.2C597.8,6.2,594.6,3,590.7,3z M590.6,16.1
		c-3.2,0-5.7-2.6-5.7-5.9c0-3.3,2.6-5.9,5.7-5.9c3.2,0,5.7,2.7,5.7,5.9C596.4,13.5,593.8,16.1,590.6,16.1z"/>
</g>
<g>
	<g>
		<linearGradient id="SVGID_1_" gradientUnits="userSpaceOnUse" x1="336.9152" y1="90.3456" x2="302.5102" y2="36.4776">
			<stop  offset="0" style="stop-color:#F9A020"/>
			<stop  offset="0.2041" style="stop-color:#F99D20"/>
			<stop  offset="0.4348" style="stop-color:#F79320"/>
			<stop  offset="0.6196" style="stop-color:#F68820"/>
			<stop  offset="0.7969" style="stop-color:#F57E20"/>
			<stop  offset="1" style="stop-color:#F47521"/>
		</linearGradient>
		<path fill="url(#SVGID_1_)" d="M361.2,50.5c0,27.4-22.2,49.7-49.7,49.7c-27.4,0-49.7-22.2-49.7-49.7c0-27.4,22.2-49.7,49.7-49.7
			C338.9,0.8,361.2,23.1,361.2,50.5z"/>
		<linearGradient id="SVGID_2_" gradientUnits="userSpaceOnUse" x1="331.4801" y1="89.613" x2="281.1961" y2="-8.6696">
			<stop  offset="0" style="stop-color:#F68820;stop-opacity:0"/>
			<stop  offset="0.3403" style="stop-color:#E17029;stop-opacity:0.2565"/>
			<stop  offset="0.6944" style="stop-color:#D4602D;stop-opacity:0.5235"/>
			<stop  offset="0.9816" style="stop-color:#D05B2E;stop-opacity:0.74"/>
		</linearGradient>
		<path opacity="0.65" fill="url(#SVGID_2_)" d="M361.2,50.5c0,27.4-22.2,49.7-49.7,49.7c-27.4,0-49.7-22.2-49.7-49.7
			c0-27.4,22.2-49.7,49.7-49.7C338.9,0.8,361.2,23.1,361.2,50.5z"/>
	</g>
	<g opacity="0.5">
		<defs>
			<path id="SVGID_3_" opacity="0.5" d="M361.2,50.5c0,27.4-22.3,49.7-49.7,49.7c-27.4,0-49.7-22.2-49.7-49.7
				c0-27.4,22.2-49.7,49.7-49.7C338.9,0.8,361.2,23.1,361.2,50.5z"/>
		</defs>
		<clipPath id="SVGID_4_">
			<use xlink:href="#SVGID_3_"  overflow="visible"/>
		</clipPath>
		<g clip-path="url(#SVGID_4_)">
			<path d="M362.3,50.7c0,28-22.7,50.7-50.7,50.7c-28,0-50.7-22.7-50.7-50.7c0-28,22.7-50.7,50.7-50.7
				C339.6,0,362.3,22.7,362.3,50.7z"/>
			<path fill="#030304" d="M311.7,0c28,0,50.7,22.7,50.7,50.7c0,28-22.7,50.7-50.7,50.7c-28,0-50.7-22.7-50.7-50.7
				C261,22.7,283.7,0,311.7,0z"/>
			<path fill="#080808" d="M311.7,0.1c28,0,50.7,22.7,50.7,50.7c0,28-22.7,50.7-50.7,50.7c-28,0-50.7-22.7-50.7-50.7
				C261,22.8,283.7,0.1,311.7,0.1z"/>
			<path fill="#0C0C0C" d="M311.7,0.1c28,0,50.7,22.7,50.7,50.7c0,28-22.7,50.7-50.7,50.7c-28,0-50.7-22.7-50.7-50.7
				C261,22.8,283.7,0.1,311.7,0.1z"/>
			<path fill="#100F10" d="M311.7,0.1c28,0,50.7,22.7,50.7,50.7c0,28-22.7,50.7-50.7,50.7c-28,0-50.7-22.7-50.7-50.7
				C261.1,22.8,283.8,0.1,311.7,0.1z"/>
			<path fill="#131313" d="M311.8,0.2c28,0,50.7,22.7,50.7,50.7c0,28-22.7,50.7-50.7,50.7c-28,0-50.7-22.7-50.7-50.7
				C261.1,22.9,283.8,0.2,311.8,0.2z"/>
			<path fill="#161616" d="M311.8,0.2c28,0,50.7,22.7,50.7,50.7c0,28-22.7,50.7-50.7,50.7c-28,0-50.7-22.7-50.7-50.7
				C261.1,22.9,283.8,0.2,311.8,0.2z"/>
			<path fill="#191919" d="M311.8,0.3c28,0,50.7,22.7,50.7,50.7c0,28-22.7,50.7-50.7,50.7c-28,0-50.7-22.7-50.7-50.7
				C261.2,22.9,283.9,0.3,311.8,0.3z"/>
			<path fill="#1C1B1C" d="M311.9,0.3c28,0,50.6,22.7,50.6,50.7c0,28-22.7,50.7-50.6,50.7c-28,0-50.7-22.7-50.7-50.7
				C261.2,23,283.9,0.3,311.9,0.3z"/>
			<path fill="#1E1E1F" d="M311.9,0.3c28,0,50.6,22.7,50.6,50.6s-22.7,50.6-50.6,50.6c-28,0-50.6-22.7-50.6-50.6
				S283.9,0.3,311.9,0.3z"/>
			<path fill="#212021" d="M311.9,0.4c28,0,50.6,22.7,50.6,50.6c0,28-22.7,50.6-50.6,50.6c-28,0-50.6-22.7-50.6-50.6
				C261.3,23,283.9,0.4,311.9,0.4z"/>
			<path fill="#232324" d="M311.9,0.4c28,0,50.6,22.7,50.6,50.6c0,28-22.7,50.6-50.6,50.6c-28,0-50.6-22.7-50.6-50.6
				C261.3,23.1,284,0.4,311.9,0.4z"/>
			<path fill="#252526" d="M312,0.4c28,0,50.6,22.7,50.6,50.6c0,28-22.7,50.6-50.6,50.6c-28,0-50.6-22.7-50.6-50.6
				C261.3,23.1,284,0.4,312,0.4z"/>
			<path fill="#282728" d="M312,0.5c28,0,50.6,22.7,50.6,50.6c0,28-22.7,50.6-50.6,50.6c-28,0-50.6-22.7-50.6-50.6
				C261.4,23.1,284,0.5,312,0.5z"/>
			<path fill="#2A292B" d="M312,0.5c28,0,50.6,22.7,50.6,50.6c0,28-22.7,50.6-50.6,50.6c-28,0-50.6-22.7-50.6-50.6
				C261.4,23.2,284.1,0.5,312,0.5z"/>
			<path fill="#2C2B2D" d="M312.1,0.5c27.9,0,50.6,22.7,50.6,50.6s-22.7,50.6-50.6,50.6c-28,0-50.6-22.7-50.6-50.6
				S284.1,0.5,312.1,0.5z"/>
			<path fill="#2E2E2F" d="M312.1,0.6c27.9,0,50.6,22.7,50.6,50.6c0,28-22.7,50.6-50.6,50.6c-28,0-50.6-22.7-50.6-50.6
				C261.5,23.2,284.1,0.6,312.1,0.6z"/>
			<path fill="#303031" d="M312.1,0.6c27.9,0,50.6,22.7,50.6,50.6c0,28-22.7,50.6-50.6,50.6c-28,0-50.6-22.7-50.6-50.6
				C261.5,23.3,284.2,0.6,312.1,0.6z"/>
			<path fill="#323133" d="M312.1,0.7c27.9,0,50.6,22.7,50.6,50.6c0,27.9-22.7,50.6-50.6,50.6c-28,0-50.6-22.7-50.6-50.6
				C261.5,23.3,284.2,0.7,312.1,0.7z"/>
			<path fill="#343335" d="M312.2,0.7c27.9,0,50.6,22.7,50.6,50.6c0,27.9-22.7,50.6-50.6,50.6c-27.9,0-50.6-22.7-50.6-50.6
				C261.6,23.4,284.2,0.7,312.2,0.7z"/>
			<path fill="#363537" d="M312.2,0.7c27.9,0,50.6,22.7,50.6,50.6s-22.7,50.6-50.6,50.6c-27.9,0-50.6-22.7-50.6-50.6
				S284.2,0.7,312.2,0.7z"/>
			<path fill="#373739" d="M312.2,0.8c27.9,0,50.6,22.7,50.6,50.6c0,27.9-22.7,50.6-50.6,50.6c-27.9,0-50.6-22.6-50.6-50.6
				C261.6,23.4,284.3,0.8,312.2,0.8z"/>
			<path fill="#39393A" d="M312.2,0.8c27.9,0,50.6,22.6,50.6,50.6c0,27.9-22.6,50.6-50.6,50.6c-27.9,0-50.6-22.6-50.6-50.6
				C261.7,23.5,284.3,0.8,312.2,0.8z"/>
			<path fill="#3B3B3C" d="M312.3,0.8c27.9,0,50.6,22.6,50.6,50.6c0,27.9-22.6,50.6-50.6,50.6c-27.9,0-50.6-22.6-50.6-50.6
				C261.7,23.5,284.3,0.8,312.3,0.8z"/>
			<path fill="#3D3C3E" d="M312.3,0.9c27.9,0,50.6,22.6,50.6,50.6S340.2,102,312.3,102c-27.9,0-50.6-22.6-50.6-50.6
				S284.4,0.9,312.3,0.9z"/>
			<path fill="#3E3E40" d="M312.3,0.9c27.9,0,50.6,22.6,50.6,50.6c0,27.9-22.6,50.6-50.6,50.6c-27.9,0-50.6-22.6-50.6-50.6
				C261.8,23.6,284.4,0.9,312.3,0.9z"/>
			<path fill="#403F41" d="M312.4,1c27.9,0,50.6,22.6,50.6,50.6s-22.6,50.6-50.6,50.6c-27.9,0-50.6-22.6-50.6-50.6S284.4,1,312.4,1z
				"/>
			<path fill="#414042" d="M312.4,1c27.9,0,50.6,22.6,50.6,50.6s-22.6,50.6-50.6,50.6c-27.9,0-50.6-22.6-50.6-50.6S284.5,1,312.4,1z
				"/>
			<path fill="#424143" d="M312.4,1C340.3,1,363,23.7,363,51.6c0,27.9-22.6,50.6-50.6,50.6c-27.9,0-50.6-22.6-50.6-50.6
				C261.9,23.7,284.5,1,312.4,1z"/>
			<path fill="#434244" d="M312.4,1.1c27.9,0,50.5,22.6,50.5,50.5c0,27.9-22.6,50.5-50.5,50.5c-27.9,0-50.6-22.6-50.6-50.5
				C261.9,23.7,284.5,1.1,312.4,1.1z"/>
			<path fill="#444345" d="M312.5,1.1c27.9,0,50.5,22.6,50.5,50.5c0,27.9-22.6,50.5-50.5,50.5c-27.9,0-50.5-22.6-50.5-50.5
				C261.9,23.7,284.5,1.1,312.5,1.1z"/>
			<path fill="#454446" d="M312.5,1.1c27.9,0,50.5,22.6,50.5,50.5c0,27.9-22.6,50.5-50.5,50.5c-27.9,0-50.5-22.6-50.5-50.5
				C262,23.8,284.6,1.1,312.5,1.1z"/>
			<path fill="#454547" d="M312.5,1.2c27.9,0,50.5,22.6,50.5,50.5c0,27.9-22.6,50.5-50.5,50.5c-27.9,0-50.5-22.6-50.5-50.5
				C262,23.8,284.6,1.2,312.5,1.2z"/>
			<path fill="#464648" d="M312.5,1.2c27.9,0,50.5,22.6,50.5,50.5c0,27.9-22.6,50.5-50.5,50.5c-27.9,0-50.5-22.6-50.5-50.5
				C262,23.8,284.6,1.2,312.5,1.2z"/>
			<path fill="#474749" d="M312.6,1.2c27.9,0,50.5,22.6,50.5,50.5c0,27.9-22.6,50.5-50.5,50.5c-27.9,0-50.5-22.6-50.5-50.5
				C262,23.9,284.7,1.2,312.6,1.2z"/>
			<path fill="#48484A" d="M312.6,1.3c27.9,0,50.5,22.6,50.5,50.5c0,27.9-22.6,50.5-50.5,50.5c-27.9,0-50.5-22.6-50.5-50.5
				C262.1,23.9,284.7,1.3,312.6,1.3z"/>
			<path fill="#49494B" d="M312.6,1.3c27.9,0,50.5,22.6,50.5,50.5c0,27.9-22.6,50.5-50.5,50.5c-27.9,0-50.5-22.6-50.5-50.5
				C262.1,23.9,284.7,1.3,312.6,1.3z"/>
			<path fill="#4A4A4C" d="M312.7,1.4c27.9,0,50.5,22.6,50.5,50.5c0,27.9-22.6,50.5-50.5,50.5c-27.9,0-50.5-22.6-50.5-50.5
				C262.1,24,284.8,1.4,312.7,1.4z"/>
			<path fill="#4B4B4D" d="M312.7,1.4c27.9,0,50.5,22.6,50.5,50.5c0,27.9-22.6,50.5-50.5,50.5c-27.9,0-50.5-22.6-50.5-50.5
				C262.2,24,284.8,1.4,312.7,1.4z"/>
			<path fill="#4C4C4E" d="M312.7,1.4c27.9,0,50.5,22.6,50.5,50.5c0,27.9-22.6,50.5-50.5,50.5c-27.9,0-50.5-22.6-50.5-50.5
				C262.2,24,284.8,1.4,312.7,1.4z"/>
			<path fill="#4D4D4F" d="M312.7,1.5c27.9,0,50.5,22.6,50.5,50.5c0,27.9-22.6,50.5-50.5,50.5c-27.9,0-50.5-22.6-50.5-50.5
				C262.2,24.1,284.8,1.5,312.7,1.5z"/>
			<path fill="#4D4E50" d="M312.8,1.5c27.9,0,50.5,22.6,50.5,50.5c0,27.9-22.6,50.5-50.5,50.5c-27.9,0-50.5-22.6-50.5-50.5
				C262.3,24.1,284.9,1.5,312.8,1.5z"/>
			<path fill="#4E4F51" d="M312.8,1.5c27.9,0,50.5,22.6,50.5,50.5c0,27.9-22.6,50.5-50.5,50.5c-27.9,0-50.5-22.6-50.5-50.5
				C262.3,24.1,284.9,1.5,312.8,1.5z"/>
			<path fill="#4F5052" d="M312.8,1.6c27.9,0,50.5,22.6,50.5,50.5c0,27.9-22.6,50.5-50.5,50.5c-27.9,0-50.5-22.6-50.5-50.5
				C262.3,24.2,284.9,1.6,312.8,1.6z"/>
			<path fill="#505052" d="M312.8,1.6c27.9,0,50.5,22.6,50.5,50.5c0,27.9-22.6,50.5-50.5,50.5c-27.9,0-50.5-22.6-50.5-50.5
				C262.4,24.2,285,1.6,312.8,1.6z"/>
			<path fill="#515153" d="M312.9,1.6c27.9,0,50.5,22.6,50.5,50.5c0,27.9-22.6,50.5-50.5,50.5c-27.9,0-50.5-22.6-50.5-50.5
				C262.4,24.2,285,1.6,312.9,1.6z"/>
			<path fill="#525254" d="M312.9,1.7c27.9,0,50.5,22.6,50.5,50.5s-22.6,50.5-50.5,50.5c-27.9,0-50.5-22.6-50.5-50.5
				S285,1.7,312.9,1.7z"/>
			<path fill="#535355" d="M312.9,1.7c27.9,0,50.5,22.6,50.5,50.5c0,27.9-22.6,50.5-50.5,50.5c-27.9,0-50.5-22.6-50.5-50.5
				C262.5,24.3,285.1,1.7,312.9,1.7z"/>
			<path fill="#535456" d="M313,1.8c27.9,0,50.5,22.6,50.5,50.5c0,27.9-22.6,50.5-50.5,50.5c-27.9,0-50.5-22.6-50.5-50.5
				C262.5,24.3,285.1,1.8,313,1.8z"/>
			<path fill="#545557" d="M313,1.8c27.9,0,50.4,22.6,50.4,50.5c0,27.9-22.6,50.4-50.4,50.4c-27.9,0-50.5-22.6-50.5-50.4
				C262.5,24.4,285.1,1.8,313,1.8z"/>
			<path fill="#555658" d="M313,1.8c27.9,0,50.4,22.6,50.4,50.4c0,27.9-22.6,50.4-50.4,50.4c-27.9,0-50.4-22.6-50.4-50.4
				C262.6,24.4,285.2,1.8,313,1.8z"/>
			<path fill="#565759" d="M313,1.9c27.9,0,50.4,22.6,50.4,50.4c0,27.9-22.6,50.4-50.4,50.4c-27.9,0-50.4-22.6-50.4-50.4
				C262.6,24.4,285.2,1.9,313,1.9z"/>
			<path fill="#57585A" d="M313.1,1.9c27.9,0,50.4,22.6,50.4,50.4c0,27.9-22.6,50.4-50.4,50.4c-27.9,0-50.4-22.6-50.4-50.4
				C262.6,24.5,285.2,1.9,313.1,1.9z"/>
			<path fill="#58585B" d="M313.1,1.9c27.8,0,50.4,22.6,50.4,50.4c0,27.9-22.6,50.4-50.4,50.4c-27.9,0-50.4-22.6-50.4-50.4
				C262.7,24.5,285.2,1.9,313.1,1.9z"/>
			<path fill="#58595B" d="M313.1,2c27.8,0,50.4,22.6,50.4,50.4s-22.6,50.4-50.4,50.4c-27.9,0-50.4-22.6-50.4-50.4S285.3,2,313.1,2z
				"/>
			<path fill="#595A5C" d="M313.2,2c27.8,0,50.4,22.6,50.4,50.4c0,27.8-22.6,50.4-50.4,50.4c-27.8,0-50.4-22.6-50.4-50.4
				C262.7,24.6,285.3,2,313.2,2z"/>
			<path fill="#5A5B5D" d="M313.2,2c27.8,0,50.4,22.6,50.4,50.4c0,27.8-22.6,50.4-50.4,50.4c-27.8,0-50.4-22.6-50.4-50.4
				C262.8,24.6,285.3,2,313.2,2z"/>
			<path fill="#5B5C5E" d="M313.2,2.1c27.8,0,50.4,22.6,50.4,50.4c0,27.8-22.6,50.4-50.4,50.4c-27.8,0-50.4-22.6-50.4-50.4
				C262.8,24.7,285.4,2.1,313.2,2.1z"/>
			<path fill="#5C5D5F" d="M313.2,2.1c27.8,0,50.4,22.6,50.4,50.4c0,27.8-22.6,50.4-50.4,50.4c-27.8,0-50.4-22.6-50.4-50.4
				C262.8,24.7,285.4,2.1,313.2,2.1z"/>
			<path fill="#5C5D60" d="M313.3,2.2c27.8,0,50.4,22.6,50.4,50.4c0,27.8-22.6,50.4-50.4,50.4c-27.8,0-50.4-22.6-50.4-50.4
				C262.9,24.7,285.4,2.2,313.3,2.2z"/>
			<path fill="#5D5E61" d="M313.3,2.2c27.8,0,50.4,22.6,50.4,50.4c0,27.8-22.6,50.4-50.4,50.4c-27.8,0-50.4-22.6-50.4-50.4
				C262.9,24.8,285.5,2.2,313.3,2.2z"/>
			<path fill="#5E5F61" d="M313.3,2.2c27.8,0,50.4,22.6,50.4,50.4c0,27.8-22.6,50.4-50.4,50.4c-27.8,0-50.4-22.6-50.4-50.4
				C262.9,24.8,285.5,2.2,313.3,2.2z"/>
			<path fill="#5F6062" d="M313.3,2.3c27.8,0,50.4,22.6,50.4,50.4c0,27.8-22.6,50.4-50.4,50.4c-27.8,0-50.4-22.6-50.4-50.4
				C263,24.8,285.5,2.3,313.3,2.3z"/>
			<path fill="#606163" d="M313.4,2.3c27.8,0,50.4,22.6,50.4,50.4c0,27.8-22.6,50.4-50.4,50.4c-27.8,0-50.4-22.6-50.4-50.4
				C263,24.9,285.5,2.3,313.4,2.3z"/>
			<path fill="#606264" d="M313.4,2.3c27.8,0,50.4,22.6,50.4,50.4c0,27.8-22.6,50.4-50.4,50.4c-27.8,0-50.4-22.6-50.4-50.4
				C263,24.9,285.6,2.3,313.4,2.3z"/>
			<path fill="#616265" d="M313.4,2.4c27.8,0,50.4,22.6,50.4,50.4c0,27.8-22.6,50.4-50.4,50.4c-27.8,0-50.4-22.6-50.4-50.4
				C263.1,24.9,285.6,2.4,313.4,2.4z"/>
			<path fill="#626366" d="M313.5,2.4c27.8,0,50.4,22.5,50.4,50.4c0,27.8-22.6,50.4-50.4,50.4c-27.8,0-50.4-22.5-50.4-50.4
				C263.1,25,285.6,2.4,313.5,2.4z"/>
			<path fill="#636466" d="M313.5,2.5c27.8,0,50.4,22.5,50.4,50.4c0,27.8-22.5,50.4-50.4,50.4c-27.8,0-50.4-22.5-50.4-50.4
				C263.1,25,285.7,2.5,313.5,2.5z"/>
			<path fill="#646567" d="M313.5,2.5c27.8,0,50.4,22.5,50.4,50.4c0,27.8-22.5,50.4-50.4,50.4c-27.8,0-50.4-22.5-50.4-50.4
				C263.1,25,285.7,2.5,313.5,2.5z"/>
			<path fill="#646668" d="M313.5,2.5c27.8,0,50.3,22.5,50.3,50.4c0,27.8-22.5,50.3-50.3,50.3c-27.8,0-50.4-22.5-50.4-50.3
				C263.2,25.1,285.7,2.5,313.5,2.5z"/>
			<path fill="#656669" d="M313.6,2.6c27.8,0,50.3,22.5,50.3,50.3c0,27.8-22.5,50.3-50.3,50.3c-27.8,0-50.3-22.5-50.3-50.3
				C263.2,25.1,285.8,2.6,313.6,2.6z"/>
			<path fill="#66676A" d="M313.6,2.6c27.8,0,50.3,22.5,50.3,50.3c0,27.8-22.5,50.3-50.3,50.3c-27.8,0-50.3-22.5-50.3-50.3
				C263.2,25.1,285.8,2.6,313.6,2.6z"/>
			<path fill="#67686A" d="M313.6,2.6c27.8,0,50.3,22.5,50.3,50.3s-22.5,50.3-50.3,50.3c-27.8,0-50.3-22.5-50.3-50.3
				S285.8,2.6,313.6,2.6z"/>
			<path fill="#67696B" d="M313.6,2.7C341.4,2.7,364,25.2,364,53c0,27.8-22.5,50.3-50.3,50.3c-27.8,0-50.3-22.5-50.3-50.3
				C263.3,25.2,285.8,2.7,313.6,2.7z"/>
			<circle fill="#686A6C" cx="313.7" cy="53" r="50.3"/>
			<path fill="#696A6D" d="M313.7,2.7c27.8,0,50.3,22.5,50.3,50.3c0,27.8-22.5,50.3-50.3,50.3c-27.8,0-50.3-22.5-50.3-50.3
				C263.4,25.3,285.9,2.7,313.7,2.7z"/>
			<path fill="#6A6B6D" d="M313.7,2.8c27.8,0,50.3,22.5,50.3,50.3c0,27.8-22.5,50.3-50.3,50.3c-27.8,0-50.3-22.5-50.3-50.3
				C263.4,25.3,285.9,2.8,313.7,2.8z"/>
			<path fill="#6B6C6E" d="M313.8,2.8c27.8,0,50.3,22.5,50.3,50.3c0,27.8-22.5,50.3-50.3,50.3c-27.8,0-50.3-22.5-50.3-50.3
				C263.4,25.3,286,2.8,313.8,2.8z"/>
			<path fill="#6B6D6F" d="M313.8,2.9c27.8,0,50.3,22.5,50.3,50.3c0,27.8-22.5,50.3-50.3,50.3c-27.8,0-50.3-22.5-50.3-50.3
				C263.5,25.4,286,2.9,313.8,2.9z"/>
			<path fill="#6C6D70" d="M313.8,2.9c27.8,0,50.3,22.5,50.3,50.3c0,27.8-22.5,50.3-50.3,50.3c-27.8,0-50.3-22.5-50.3-50.3
				C263.5,25.4,286,2.9,313.8,2.9z"/>
			<circle fill="#6D6E71" cx="313.8" cy="53.2" r="50.3"/>
			<path fill="#6D6F71" d="M313.9,3c27.8,0,50.3,22.5,50.3,50.3c0,27.8-22.5,50.3-50.3,50.3c-27.8,0-50.3-22.5-50.3-50.3
				C263.6,25.5,286.1,3,313.9,3z"/>
			<path fill="#6E7072" d="M313.9,3c27.8,0,50.3,22.5,50.3,50.3c0,27.8-22.5,50.3-50.3,50.3c-27.8,0-50.3-22.5-50.3-50.3
				C263.6,25.5,286.1,3,313.9,3z"/>
			<path fill="#6F7073" d="M313.9,3c27.8,0,50.3,22.5,50.3,50.3s-22.5,50.3-50.3,50.3c-27.8,0-50.3-22.5-50.3-50.3S286.1,3,313.9,3z
				"/>
			<path fill="#707174" d="M313.9,3.1c27.8,0,50.3,22.5,50.3,50.3c0,27.8-22.5,50.3-50.3,50.3c-27.8,0-50.3-22.5-50.3-50.3
				C263.7,25.6,286.2,3.1,313.9,3.1z"/>
			<path fill="#707274" d="M314,3.1c27.8,0,50.3,22.5,50.3,50.3c0,27.8-22.5,50.3-50.3,50.3c-27.8,0-50.3-22.5-50.3-50.3
				C263.7,25.6,286.2,3.1,314,3.1z"/>
			<path fill="#717375" d="M314,3.1c27.8,0,50.3,22.5,50.3,50.3c0,27.8-22.5,50.3-50.3,50.3c-27.8,0-50.3-22.5-50.3-50.3
				C263.7,25.7,286.2,3.1,314,3.1z"/>
			<path fill="#727376" d="M314,3.2c27.8,0,50.3,22.5,50.3,50.3c0,27.8-22.5,50.3-50.3,50.3c-27.8,0-50.3-22.5-50.3-50.3
				C263.8,25.7,286.3,3.2,314,3.2z"/>
			<path fill="#737477" d="M314.1,3.2c27.8,0,50.3,22.5,50.3,50.3c0,27.8-22.5,50.3-50.3,50.3c-27.8,0-50.3-22.5-50.3-50.3
				C263.8,25.7,286.3,3.2,314.1,3.2z"/>
			<path fill="#737577" d="M314.1,3.3c27.8,0,50.2,22.5,50.2,50.3c0,27.8-22.5,50.3-50.2,50.3c-27.8,0-50.3-22.5-50.3-50.3
				C263.8,25.8,286.3,3.3,314.1,3.3z"/>
			<path fill="#747678" d="M314.1,3.3c27.7,0,50.2,22.5,50.2,50.2c0,27.7-22.5,50.2-50.2,50.2c-27.8,0-50.2-22.5-50.2-50.2
				C263.9,25.8,286.4,3.3,314.1,3.3z"/>
			<path fill="#757679" d="M314.1,3.3c27.7,0,50.2,22.5,50.2,50.2c0,27.7-22.5,50.2-50.2,50.2c-27.7,0-50.2-22.5-50.2-50.2
				C263.9,25.8,286.4,3.3,314.1,3.3z"/>
			<path fill="#75777A" d="M314.2,3.4c27.7,0,50.2,22.5,50.2,50.2c0,27.7-22.5,50.2-50.2,50.2c-27.7,0-50.2-22.5-50.2-50.2
				C263.9,25.9,286.4,3.4,314.2,3.4z"/>
			<circle fill="#76787A" cx="314.2" cy="53.6" r="50.2"/>
			<path fill="#77797B" d="M314.2,3.4c27.7,0,50.2,22.5,50.2,50.2c0,27.7-22.5,50.2-50.2,50.2c-27.7,0-50.2-22.5-50.2-50.2
				C264,25.9,286.5,3.4,314.2,3.4z"/>
			<path fill="#78797C" d="M314.2,3.5c27.7,0,50.2,22.5,50.2,50.2c0,27.7-22.5,50.2-50.2,50.2c-27.7,0-50.2-22.5-50.2-50.2
				C264,26,286.5,3.5,314.2,3.5z"/>
			<path fill="#787A7D" d="M314.3,3.5c27.7,0,50.2,22.5,50.2,50.2c0,27.7-22.5,50.2-50.2,50.2c-27.7,0-50.2-22.5-50.2-50.2
				C264.1,26,286.5,3.5,314.3,3.5z"/>
			<path fill="#797B7D" d="M314.3,3.6c27.7,0,50.2,22.5,50.2,50.2c0,27.7-22.5,50.2-50.2,50.2c-27.7,0-50.2-22.5-50.2-50.2
				C264.1,26,286.6,3.6,314.3,3.6z"/>
			<path fill="#7A7B7E" d="M314.3,3.6c27.7,0,50.2,22.5,50.2,50.2c0,27.7-22.5,50.2-50.2,50.2c-27.7,0-50.2-22.5-50.2-50.2
				C264.1,26.1,286.6,3.6,314.3,3.6z"/>
			<path fill="#7A7C7F" d="M314.4,3.6c27.7,0,50.2,22.5,50.2,50.2c0,27.7-22.5,50.2-50.2,50.2c-27.7,0-50.2-22.5-50.2-50.2
				C264.2,26.1,286.6,3.6,314.4,3.6z"/>
			<path fill="#7B7D7F" d="M314.4,3.7c27.7,0,50.2,22.5,50.2,50.2c0,27.7-22.5,50.2-50.2,50.2c-27.7,0-50.2-22.5-50.2-50.2
				C264.2,26.1,286.7,3.7,314.4,3.7z"/>
			<path fill="#7C7E80" d="M314.4,3.7c27.7,0,50.2,22.5,50.2,50.2c0,27.7-22.5,50.2-50.2,50.2c-27.7,0-50.2-22.5-50.2-50.2
				C264.2,26.2,286.7,3.7,314.4,3.7z"/>
			<path fill="#7D7E81" d="M314.4,3.7c27.7,0,50.2,22.5,50.2,50.2c0,27.7-22.5,50.2-50.2,50.2c-27.7,0-50.2-22.5-50.2-50.2
				C264.3,26.2,286.7,3.7,314.4,3.7z"/>
			<path fill="#7D7F82" d="M314.5,3.8c27.7,0,50.2,22.5,50.2,50.2c0,27.7-22.5,50.2-50.2,50.2c-27.7,0-50.2-22.5-50.2-50.2
				C264.3,26.2,286.8,3.8,314.5,3.8z"/>
			<path fill="#7E8082" d="M314.5,3.8c27.7,0,50.2,22.5,50.2,50.2c0,27.7-22.5,50.2-50.2,50.2c-27.7,0-50.2-22.5-50.2-50.2
				C264.3,26.3,286.8,3.8,314.5,3.8z"/>
			<path fill="#7F8183" d="M314.5,3.8c27.7,0,50.2,22.5,50.2,50.2c0,27.7-22.5,50.2-50.2,50.2c-27.7,0-50.2-22.5-50.2-50.2
				C264.3,26.3,286.8,3.8,314.5,3.8z"/>
			<circle fill="#7F8184" cx="314.6" cy="54" r="50.2"/>
			<circle fill="#808285" cx="314.6" cy="54.1" r="50.2"/>
			<circle fill="#818385" cx="314.6" cy="54.1" r="50.2"/>
			<path fill="#828386" d="M314.6,4c27.7,0,50.1,22.5,50.1,50.2c0,27.7-22.5,50.2-50.1,50.2c-27.7,0-50.2-22.5-50.2-50.2
				C264.5,26.4,286.9,4,314.6,4z"/>
			<circle fill="#828487" cx="314.7" cy="54.2" r="50.1"/>
			<path fill="#838587" d="M314.7,4.1c27.7,0,50.1,22.4,50.1,50.1c0,27.7-22.4,50.1-50.1,50.1c-27.7,0-50.1-22.4-50.1-50.1
				C264.5,26.5,287,4.1,314.7,4.1z"/>
			<path fill="#848688" d="M314.7,4.1c27.7,0,50.1,22.4,50.1,50.1c0,27.7-22.4,50.1-50.1,50.1c-27.7,0-50.1-22.4-50.1-50.1
				C264.6,26.5,287,4.1,314.7,4.1z"/>
			<path fill="#848689" d="M314.7,4.1c27.7,0,50.1,22.4,50.1,50.1c0,27.7-22.4,50.1-50.1,50.1c-27.7,0-50.1-22.4-50.1-50.1
				C264.6,26.6,287.1,4.1,314.7,4.1z"/>
			<circle fill="#85878A" cx="314.8" cy="54.3" r="50.1"/>
			<circle fill="#86888A" cx="314.8" cy="54.3" r="50.1"/>
			<circle fill="#86888B" cx="314.8" cy="54.4" r="50.1"/>
			<path fill="#87898C" d="M314.9,4.3c27.7,0,50.1,22.4,50.1,50.1c0,27.7-22.4,50.1-50.1,50.1c-27.7,0-50.1-22.4-50.1-50.1
				C264.7,26.7,287.2,4.3,314.9,4.3z"/>
			<path fill="#888A8C" d="M314.9,4.3c27.7,0,50.1,22.4,50.1,50.1c0,27.7-22.4,50.1-50.1,50.1c-27.7,0-50.1-22.4-50.1-50.1
				C264.8,26.8,287.2,4.3,314.9,4.3z"/>
			<path fill="#898B8D" d="M314.9,4.4c27.7,0,50.1,22.4,50.1,50.1c0,27.7-22.4,50.1-50.1,50.1c-27.7,0-50.1-22.4-50.1-50.1
				C264.8,26.8,287.2,4.4,314.9,4.4z"/>
			<circle fill="#898B8E" cx="314.9" cy="54.5" r="50.1"/>
			<path fill="#8A8C8F" d="M315,4.4c27.7,0,50.1,22.4,50.1,50.1c0,27.7-22.4,50.1-50.1,50.1c-27.7,0-50.1-22.4-50.1-50.1
				C264.9,26.9,287.3,4.4,315,4.4z"/>
			<circle fill="#8B8D8F" cx="315" cy="54.6" r="50.1"/>
			<circle fill="#8B8D90" cx="315" cy="54.6" r="50.1"/>
			<circle fill="#8C8E91" cx="315" cy="54.6" r="50.1"/>
			<circle fill="#8D8F91" cx="315.1" cy="54.6" r="50.1"/>
			<path fill="#8D9092" d="M315.1,4.6c27.6,0,50.1,22.4,50.1,50.1c0,27.7-22.4,50.1-50.1,50.1c-27.7,0-50.1-22.4-50.1-50.1
				C265,27,287.4,4.6,315.1,4.6z"/>
			<circle fill="#8E9093" cx="315.1" cy="54.7" r="50.1"/>
			<circle fill="#8F9194" cx="315.2" cy="54.7" r="50.1"/>
			<circle fill="#909294" cx="315.2" cy="54.8" r="50.1"/>
			<circle fill="#909295" cx="315.2" cy="54.8" r="50"/>
			<path fill="#919396" d="M315.2,4.8c27.6,0,50,22.4,50,50c0,27.6-22.4,50-50,50c-27.6,0-50-22.4-50-50
				C265.2,27.2,287.6,4.8,315.2,4.8z"/>
			<path fill="#929497" d="M315.3,4.8c27.6,0,50,22.4,50,50c0,27.6-22.4,50-50,50c-27.6,0-50-22.4-50-50
				C265.2,27.2,287.6,4.8,315.3,4.8z"/>
			<path fill="#939597" d="M315.3,4.9c27.6,0,50,22.4,50,50c0,27.6-22.4,50-50,50c-27.6,0-50-22.4-50-50
				C265.3,27.3,287.7,4.9,315.3,4.9z"/>
			<path fill="#939598" d="M315.3,4.9c27.6,0,50,22.4,50,50c0,27.6-22.4,50-50,50c-27.6,0-50-22.4-50-50
				C265.3,27.3,287.7,4.9,315.3,4.9z"/>
			<path fill="#949699" d="M315.3,4.9c27.6,0,50,22.4,50,50c0,27.6-22.4,50-50,50c-27.6,0-50-22.4-50-50
				C265.3,27.3,287.7,4.9,315.3,4.9z"/>
			<path fill="#959799" d="M315.4,5c27.6,0,50,22.4,50,50c0,27.6-22.4,50-50,50c-27.6,0-50-22.4-50-50C265.4,27.4,287.7,5,315.4,5z"
				/>
			<circle fill="#95989A" cx="315.4" cy="55" r="50"/>
			<path fill="#96989B" d="M315.4,5.1c27.6,0,50,22.4,50,50c0,27.6-22.4,50-50,50c-27.6,0-50-22.4-50-50
				C265.4,27.4,287.8,5.1,315.4,5.1z"/>
			<circle fill="#97999C" cx="315.5" cy="55.1" r="50"/>
			<circle fill="#989A9C" cx="315.5" cy="55.1" r="50"/>
			<path fill="#989A9D" d="M315.5,5.2c27.6,0,50,22.4,50,50c0,27.6-22.4,50-50,50c-27.6,0-50-22.4-50-50
				C265.5,27.5,287.9,5.2,315.5,5.2z"/>
			<path fill="#999B9E" d="M315.5,5.2c27.6,0,50,22.4,50,50c0,27.6-22.4,50-50,50s-50-22.4-50-50C265.5,27.6,287.9,5.2,315.5,5.2z"
				/>
			<circle fill="#9A9C9F" cx="315.6" cy="55.2" r="50"/>
			<circle fill="#9B9D9F" cx="315.6" cy="55.2" r="50"/>
			<circle fill="#9B9DA0" cx="315.6" cy="55.3" r="50"/>
			<path fill="#9C9EA1" d="M315.6,5.3c27.6,0,50,22.4,50,50c0,27.6-22.4,50-50,50c-27.6,0-50-22.4-50-50
				C265.7,27.7,288.1,5.3,315.6,5.3z"/>
			<path fill="#9D9FA1" d="M315.7,5.4c27.6,0,50,22.4,50,50c0,27.6-22.4,50-50,50c-27.6,0-50-22.4-50-50
				C265.7,27.7,288.1,5.4,315.7,5.4z"/>
			<circle fill="#9DA0A2" cx="315.7" cy="55.4" r="50"/>
			<path fill="#9EA0A3" d="M315.7,5.5c27.6,0,50,22.4,50,50c0,27.6-22.4,50-50,50c-27.6,0-50-22.4-50-50
				C265.8,27.8,288.1,5.5,315.7,5.5z"/>
			<path fill="#9FA1A4" d="M315.8,5.5c27.6,0,49.9,22.4,49.9,49.9c0,27.6-22.4,49.9-49.9,49.9c-27.6,0-50-22.4-50-49.9
				C265.8,27.9,288.2,5.5,315.8,5.5z"/>
			<path fill="#A0A2A4" d="M315.8,5.5c27.6,0,49.9,22.4,49.9,49.9c0,27.6-22.4,49.9-49.9,49.9c-27.6,0-49.9-22.4-49.9-49.9
				C265.8,27.9,288.2,5.5,315.8,5.5z"/>
			<circle fill="#A0A3A5" cx="315.8" cy="55.5" r="49.9"/>
			<path fill="#A1A3A6" d="M315.8,5.6c27.6,0,49.9,22.4,49.9,49.9c0,27.6-22.4,49.9-49.9,49.9s-49.9-22.4-49.9-49.9
				C265.9,28,288.3,5.6,315.8,5.6z"/>
			<circle fill="#A2A4A7" cx="315.9" cy="55.6" r="49.9"/>
			<path fill="#A3A5A7" d="M315.9,5.7c27.6,0,49.9,22.3,49.9,49.9c0,27.6-22.3,49.9-49.9,49.9S266,83.2,266,55.6
				C266,28,288.3,5.7,315.9,5.7z"/>
			<path fill="#A3A6A8" d="M315.9,5.7c27.6,0,49.9,22.3,49.9,49.9c0,27.6-22.3,49.9-49.9,49.9c-27.6,0-49.9-22.4-49.9-49.9
				C266,28.1,288.4,5.7,315.9,5.7z"/>
			<path fill="#A4A6A9" d="M316,5.7c27.6,0,49.9,22.3,49.9,49.9c0,27.6-22.3,49.9-49.9,49.9c-27.6,0-49.9-22.3-49.9-49.9
				C266,28.1,288.4,5.7,316,5.7z"/>
			<circle fill="#A5A7AA" cx="316" cy="55.7" r="49.9"/>
			<path fill="#A6A8AA" d="M316,5.8c27.6,0,49.9,22.3,49.9,49.9c0,27.6-22.3,49.9-49.9,49.9c-27.6,0-49.9-22.3-49.9-49.9
				C266.1,28.2,288.4,5.8,316,5.8z"/>
			<circle fill="#A6A9AB" cx="316" cy="55.8" r="49.9"/>
			<path fill="#A7A9AC" d="M316.1,5.9c27.6,0,49.9,22.3,49.9,49.9c0,27.6-22.3,49.9-49.9,49.9c-27.6,0-49.9-22.3-49.9-49.9
				C266.2,28.2,288.5,5.9,316.1,5.9z"/>
			<path fill="#A8AAAD" d="M316.1,5.9c27.6,0,49.9,22.3,49.9,49.9c0,27.6-22.3,49.9-49.9,49.9c-27.6,0-49.9-22.3-49.9-49.9
				C266.2,28.3,288.5,5.9,316.1,5.9z"/>
			<path fill="#A9ABAD" d="M316.1,6C343.7,6,366,28.3,366,55.9c0,27.6-22.3,49.9-49.9,49.9c-27.6,0-49.9-22.3-49.9-49.9
				C266.2,28.3,288.6,6,316.1,6z"/>
			<path fill="#A9ACAE" d="M316.1,6C343.7,6,366,28.3,366,55.9c0,27.5-22.3,49.9-49.9,49.9c-27.5,0-49.9-22.3-49.9-49.9
				C266.3,28.3,288.6,6,316.1,6z"/>
			<circle fill="#AAACAF" cx="316.2" cy="55.9" r="49.9"/>
			<path fill="#ABADB0" d="M316.2,6.1c27.5,0,49.9,22.3,49.9,49.9c0,27.5-22.3,49.9-49.9,49.9c-27.5,0-49.9-22.3-49.9-49.9
				C266.3,28.4,288.7,6.1,316.2,6.1z"/>
			<path fill="#ACAEB0" d="M316.2,6.1c27.5,0,49.9,22.3,49.9,49.9c0,27.5-22.3,49.9-49.9,49.9c-27.5,0-49.9-22.3-49.9-49.9
				C266.4,28.4,288.7,6.1,316.2,6.1z"/>
			<path fill="#ADAFB1" d="M316.3,6.1c27.5,0,49.9,22.3,49.9,49.9c0,27.5-22.3,49.9-49.9,49.9c-27.5,0-49.9-22.3-49.9-49.9
				C266.4,28.5,288.7,6.1,316.3,6.1z"/>
			<circle fill="#ADAFB2" cx="316.3" cy="56" r="49.9"/>
			<path fill="#AEB0B3" d="M316.3,6.2c27.5,0,49.8,22.3,49.8,49.8c0,27.5-22.3,49.9-49.8,49.9c-27.5,0-49.9-22.3-49.9-49.9
				C266.5,28.5,288.8,6.2,316.3,6.2z"/>
			<path fill="#AFB1B3" d="M316.3,6.3c27.5,0,49.8,22.3,49.8,49.8c0,27.5-22.3,49.8-49.8,49.8c-27.5,0-49.8-22.3-49.8-49.8
				C266.5,28.6,288.8,6.3,316.3,6.3z"/>
			<path fill="#B0B2B4" d="M316.4,6.3c27.5,0,49.8,22.3,49.8,49.8c0,27.5-22.3,49.8-49.8,49.8c-27.5,0-49.8-22.3-49.8-49.8
				C266.5,28.6,288.8,6.3,316.4,6.3z"/>
			<path fill="#B0B2B5" d="M316.4,6.3c27.5,0,49.8,22.3,49.8,49.8c0,27.5-22.3,49.8-49.8,49.8s-49.8-22.3-49.8-49.8
				C266.6,28.6,288.9,6.3,316.4,6.3z"/>
			<circle fill="#B1B3B6" cx="316.4" cy="56.2" r="49.8"/>
			<circle fill="#B2B4B6" cx="316.4" cy="56.2" r="49.8"/>
			<path fill="#B3B5B7" d="M316.5,6.4c27.5,0,49.8,22.3,49.8,49.8c0,27.5-22.3,49.8-49.8,49.8c-27.5,0-49.8-22.3-49.8-49.8
				C266.6,28.7,289,6.4,316.5,6.4z"/>
			<path fill="#B4B6B8" d="M316.5,6.5c27.5,0,49.8,22.3,49.8,49.8c0,27.5-22.3,49.8-49.8,49.8c-27.5,0-49.8-22.3-49.8-49.8
				C266.7,28.8,289,6.5,316.5,6.5z"/>
			<path fill="#B4B6B9" d="M316.5,6.5c27.5,0,49.8,22.3,49.8,49.8c0,27.5-22.3,49.8-49.8,49.8c-27.5,0-49.8-22.3-49.8-49.8
				C266.7,28.8,289,6.5,316.5,6.5z"/>
			<path fill="#B5B7B9" d="M316.6,6.6c27.5,0,49.8,22.3,49.8,49.8c0,27.5-22.3,49.8-49.8,49.8c-27.5,0-49.8-22.3-49.8-49.8
				C266.7,28.8,289,6.6,316.6,6.6z"/>
			<path fill="#B6B8BA" d="M316.6,6.6c27.5,0,49.8,22.3,49.8,49.8c0,27.5-22.3,49.8-49.8,49.8c-27.5,0-49.8-22.3-49.8-49.8
				C266.8,28.9,289.1,6.6,316.6,6.6z"/>
			<path fill="#B7B9BB" d="M316.6,6.6c27.5,0,49.8,22.3,49.8,49.8c0,27.5-22.3,49.8-49.8,49.8c-27.5,0-49.8-22.3-49.8-49.8
				C266.8,28.9,289.1,6.6,316.6,6.6z"/>
			<path fill="#B8B9BC" d="M316.6,6.7c27.5,0,49.8,22.3,49.8,49.8c0,27.5-22.3,49.8-49.8,49.8c-27.5,0-49.8-22.3-49.8-49.8
				C266.8,29,289.1,6.7,316.6,6.7z"/>
			<path fill="#B8BABD" d="M316.7,6.7c27.5,0,49.8,22.3,49.8,49.8c0,27.5-22.3,49.8-49.8,49.8c-27.5,0-49.8-22.3-49.8-49.8
				C266.9,29,289.2,6.7,316.7,6.7z"/>
			<path fill="#B9BBBD" d="M316.7,6.7c27.5,0,49.8,22.3,49.8,49.8c0,27.5-22.3,49.8-49.8,49.8c-27.5,0-49.8-22.3-49.8-49.8
				C266.9,29,289.2,6.7,316.7,6.7z"/>
			<path fill="#BABCBE" d="M316.7,6.8c27.5,0,49.8,22.3,49.8,49.8c0,27.5-22.3,49.8-49.8,49.8c-27.5,0-49.8-22.3-49.8-49.8
				C266.9,29.1,289.2,6.8,316.7,6.8z"/>
			<path fill="#BBBDBF" d="M316.7,6.8c27.5,0,49.8,22.3,49.8,49.8c0,27.5-22.3,49.8-49.8,49.8c-27.5,0-49.8-22.3-49.8-49.8
				C267,29.1,289.3,6.8,316.7,6.8z"/>
			<path fill="#BBBDC0" d="M316.8,6.8c27.5,0,49.8,22.3,49.8,49.8c0,27.5-22.3,49.8-49.8,49.8c-27.5,0-49.8-22.3-49.8-49.8
				C267,29.1,289.3,6.8,316.8,6.8z"/>
			<path fill="#BCBEC0" d="M316.8,6.9c27.5,0,49.8,22.3,49.8,49.8c0,27.5-22.3,49.8-49.8,49.8c-27.5,0-49.8-22.3-49.8-49.8
				C267,29.2,289.3,6.9,316.8,6.9z"/>
			<path fill="#BDBFC1" d="M316.8,6.9c27.5,0,49.8,22.3,49.8,49.8c0,27.5-22.3,49.8-49.8,49.8c-27.5,0-49.8-22.3-49.8-49.8
				C267.1,29.2,289.4,6.9,316.8,6.9z"/>
			<path fill="#BEC0C2" d="M316.9,7c27.5,0,49.7,22.3,49.7,49.8c0,27.5-22.3,49.8-49.7,49.8c-27.5,0-49.8-22.3-49.8-49.8
				C267.1,29.2,289.4,7,316.9,7z"/>
			<path fill="#BFC0C3" d="M316.9,7c27.5,0,49.7,22.3,49.7,49.7c0,27.5-22.3,49.7-49.7,49.7c-27.5,0-49.7-22.3-49.7-49.7
				C267.1,29.3,289.4,7,316.9,7z"/>
			<path fill="#BFC1C3" d="M316.9,7c27.5,0,49.7,22.3,49.7,49.7c0,27.5-22.3,49.7-49.7,49.7c-27.5,0-49.7-22.3-49.7-49.7
				C267.2,29.3,289.4,7,316.9,7z"/>
			<path fill="#C0C2C4" d="M316.9,7.1c27.5,0,49.7,22.3,49.7,49.7c0,27.5-22.3,49.7-49.7,49.7c-27.5,0-49.7-22.3-49.7-49.7
				C267.2,29.3,289.5,7.1,316.9,7.1z"/>
			<path fill="#C1C3C5" d="M317,7.1c27.5,0,49.7,22.3,49.7,49.7c0,27.5-22.3,49.7-49.7,49.7c-27.5,0-49.7-22.3-49.7-49.7
				C267.2,29.4,289.5,7.1,317,7.1z"/>
			<path fill="#C2C4C6" d="M317,7.1c27.5,0,49.7,22.3,49.7,49.7c0,27.5-22.3,49.7-49.7,49.7c-27.5,0-49.7-22.3-49.7-49.7
				C267.3,29.4,289.5,7.1,317,7.1z"/>
			<path fill="#C3C4C6" d="M317,7.2c27.5,0,49.7,22.3,49.7,49.7c0,27.5-22.3,49.7-49.7,49.7c-27.5,0-49.7-22.3-49.7-49.7
				C267.3,29.4,289.6,7.2,317,7.2z"/>
			<path fill="#C3C5C7" d="M317,7.2c27.5,0,49.7,22.3,49.7,49.7c0,27.5-22.3,49.7-49.7,49.7c-27.5,0-49.7-22.3-49.7-49.7
				C267.3,29.5,289.6,7.2,317,7.2z"/>
			<path fill="#C4C6C8" d="M317.1,7.2c27.5,0,49.7,22.3,49.7,49.7c0,27.5-22.3,49.7-49.7,49.7c-27.5,0-49.7-22.3-49.7-49.7
				C267.4,29.5,289.6,7.2,317.1,7.2z"/>
			<path fill="#C5C7C9" d="M317.1,7.3c27.5,0,49.7,22.2,49.7,49.7c0,27.5-22.3,49.7-49.7,49.7c-27.5,0-49.7-22.3-49.7-49.7
				C267.4,29.5,289.7,7.3,317.1,7.3z"/>
			<path fill="#C6C8CA" d="M317.1,7.3c27.5,0,49.7,22.2,49.7,49.7c0,27.4-22.2,49.7-49.7,49.7c-27.4,0-49.7-22.3-49.7-49.7
				C267.4,29.6,289.7,7.3,317.1,7.3z"/>
			<path fill="#C7C8CA" d="M366.9,57.1c0,27.4-22.2,49.7-49.7,49.7c-27.4,0-49.7-22.3-49.7-49.7c0-27.5,22.3-49.7,49.7-49.7
				C344.6,7.4,366.9,29.6,366.9,57.1z"/>
			<path opacity="0.995" fill="#C7C9CB" d="M317.2,7.4c27.4,0,49.7,22.2,49.7,49.7c0,27.4-22.2,49.7-49.7,49.7
				c-27.4,0-49.7-22.2-49.7-49.7C267.5,29.6,289.7,7.4,317.2,7.4z"/>
			<path opacity="0.9901" fill="#C7C9CB" d="M317.2,7.4c27.4,0,49.7,22.2,49.7,49.7c0,27.4-22.2,49.7-49.7,49.7
				c-27.4,0-49.7-22.2-49.7-49.7C267.5,29.7,289.8,7.4,317.2,7.4z"/>
			<path opacity="0.9851" fill="#C7C9CB" d="M317.2,7.4c27.4,0,49.7,22.2,49.7,49.7c0,27.4-22.2,49.7-49.7,49.7
				c-27.4,0-49.7-22.3-49.7-49.7C267.5,29.7,289.8,7.4,317.2,7.4z"/>
			<path opacity="0.9801" fill="#C8C9CB" d="M317.3,7.5c27.4,0,49.7,22.2,49.7,49.7c0,27.4-22.2,49.7-49.7,49.7
				c-27.4,0-49.7-22.2-49.7-49.7C267.6,29.7,289.8,7.5,317.3,7.5z"/>
			<path opacity="0.9751" fill="#C8CACC" d="M317.3,7.5c27.4,0,49.7,22.2,49.7,49.7c0,27.4-22.2,49.7-49.7,49.7
				c-27.4,0-49.7-22.2-49.7-49.7C267.6,29.7,289.8,7.5,317.3,7.5z"/>
			<path opacity="0.9701" fill="#C8CACC" d="M317.3,7.5c27.4,0,49.7,22.2,49.7,49.7c0,27.4-22.2,49.7-49.7,49.7
				c-27.4,0-49.7-22.3-49.7-49.7C267.6,29.8,289.9,7.5,317.3,7.5z"/>
			<path opacity="0.9652" fill="#C8CACC" d="M317.3,7.6c27.4,0,49.7,22.2,49.7,49.7c0,27.4-22.2,49.7-49.7,49.7
				c-27.4,0-49.7-22.2-49.7-49.7C267.6,29.8,289.9,7.6,317.3,7.6z"/>
			<path opacity="0.9602" fill="#C9CACC" d="M317.3,7.6c27.4,0,49.7,22.2,49.7,49.7c0,27.4-22.2,49.7-49.7,49.7
				c-27.4,0-49.7-22.3-49.7-49.7C267.7,29.8,289.9,7.6,317.3,7.6z"/>
			<path opacity="0.9552" fill="#C9CBCD" d="M317.4,7.6c27.4,0,49.7,22.2,49.7,49.7c0,27.4-22.2,49.7-49.7,49.7
				c-27.4,0-49.7-22.2-49.7-49.7C267.7,29.9,289.9,7.6,317.4,7.6z"/>
			<path opacity="0.9503" fill="#C9CBCD" d="M317.4,7.6c27.4,0,49.7,22.2,49.7,49.7c0,27.4-22.2,49.7-49.7,49.7
				c-27.4,0-49.7-22.2-49.7-49.7C267.7,29.9,290,7.6,317.4,7.6z"/>
			<path opacity="0.9453" fill="#C9CBCD" d="M317.4,7.7c27.4,0,49.7,22.2,49.7,49.7c0,27.4-22.2,49.7-49.7,49.7
				c-27.4,0-49.7-22.2-49.7-49.7C267.7,29.9,290,7.7,317.4,7.7z"/>
			<path opacity="0.9403" fill="#CACBCD" d="M317.4,7.7c27.4,0,49.7,22.2,49.7,49.7c0,27.4-22.2,49.7-49.7,49.7
				c-27.4,0-49.7-22.2-49.7-49.7C267.7,29.9,290,7.7,317.4,7.7z"/>
			<path opacity="0.9353" fill="#CACCCE" d="M317.5,7.7c27.4,0,49.7,22.2,49.7,49.7c0,27.4-22.2,49.7-49.7,49.7
				c-27.4,0-49.7-22.2-49.7-49.7C267.8,30,290,7.7,317.5,7.7z"/>
			<path opacity="0.9303" fill="#CACCCE" d="M317.5,7.8c27.4,0,49.7,22.2,49.7,49.7c0,27.4-22.2,49.7-49.7,49.7
				c-27.4,0-49.7-22.3-49.7-49.7C267.8,30,290,7.8,317.5,7.8z"/>
			<path opacity="0.9254" fill="#CBCCCE" d="M317.5,7.8c27.4,0,49.7,22.2,49.7,49.7c0,27.4-22.2,49.7-49.7,49.7
				c-27.4,0-49.7-22.3-49.7-49.7C267.8,30,290.1,7.8,317.5,7.8z"/>
			<path opacity="0.9204" fill="#CBCCCE" d="M317.5,7.8c27.4,0,49.7,22.2,49.7,49.7c0,27.4-22.2,49.7-49.7,49.7
				c-27.4,0-49.7-22.2-49.7-49.7C267.8,30.1,290.1,7.8,317.5,7.8z"/>
			<path opacity="0.9154" fill="#CBCDCF" d="M317.6,7.8c27.4,0,49.7,22.2,49.7,49.7c0,27.4-22.2,49.7-49.7,49.7
				c-27.4,0-49.7-22.3-49.7-49.7C267.9,30.1,290.1,7.8,317.6,7.8z"/>
			<path opacity="0.9104" fill="#CBCDCF" d="M317.6,7.9c27.4,0,49.7,22.2,49.7,49.7c0,27.4-22.2,49.7-49.7,49.7
				c-27.4,0-49.7-22.3-49.7-49.7C267.9,30.1,290.1,7.9,317.6,7.9z"/>
			<path opacity="0.9055" fill="#CCCDCF" d="M317.6,7.9c27.4,0,49.7,22.2,49.7,49.7c0,27.4-22.2,49.7-49.7,49.7
				c-27.4,0-49.7-22.2-49.7-49.7C267.9,30.1,290.2,7.9,317.6,7.9z"/>
			<path opacity="0.9005" fill="#CCCDCF" d="M317.6,7.9c27.4,0,49.7,22.2,49.7,49.7c0,27.4-22.2,49.7-49.7,49.7
				c-27.4,0-49.7-22.3-49.7-49.7C267.9,30.2,290.2,7.9,317.6,7.9z"/>
			<path opacity="0.8955" fill="#CCCED0" d="M317.7,8c27.4,0,49.7,22.2,49.7,49.7c0,27.4-22.2,49.7-49.7,49.7
				c-27.4,0-49.7-22.2-49.7-49.7C268,30.2,290.2,8,317.7,8z"/>
			<path opacity="0.8905" fill="#CCCED0" d="M317.7,8c27.4,0,49.7,22.2,49.7,49.7c0,27.4-22.2,49.7-49.7,49.7
				c-27.4,0-49.7-22.2-49.7-49.7C268,30.2,290.2,8,317.7,8z"/>
			<path opacity="0.8856" fill="#CDCED0" d="M317.7,8c27.4,0,49.7,22.2,49.7,49.7c0,27.4-22.2,49.7-49.7,49.7
				c-27.4,0-49.7-22.3-49.7-49.7C268,30.3,290.3,8,317.7,8z"/>
			<path opacity="0.8806" fill="#CDCED0" d="M317.7,8c27.4,0,49.7,22.2,49.7,49.7c0,27.4-22.2,49.7-49.7,49.7
				c-27.4,0-49.7-22.2-49.7-49.7C268,30.3,290.3,8,317.7,8z"/>
			<path opacity="0.8756" fill="#CDCFD1" d="M317.8,8.1c27.4,0,49.7,22.2,49.7,49.7c0,27.4-22.2,49.7-49.7,49.7
				c-27.4,0-49.7-22.2-49.7-49.7C268.1,30.3,290.3,8.1,317.8,8.1z"/>
			<path opacity="0.8706" fill="#CDCFD1" d="M317.8,8.1c27.4,0,49.7,22.2,49.7,49.7c0,27.4-22.2,49.7-49.7,49.7
				c-27.4,0-49.7-22.3-49.7-49.7C268.1,30.3,290.3,8.1,317.8,8.1z"/>
			<path opacity="0.8657" fill="#CECFD1" d="M317.8,8.1c27.4,0,49.7,22.2,49.7,49.7c0,27.4-22.2,49.7-49.7,49.7
				c-27.4,0-49.7-22.2-49.7-49.7C268.1,30.4,290.4,8.1,317.8,8.1z"/>
			<path opacity="0.8607" fill="#CED0D1" d="M317.8,8.2c27.4,0,49.7,22.2,49.7,49.7c0,27.4-22.2,49.7-49.7,49.7
				c-27.4,0-49.7-22.2-49.7-49.7C268.1,30.4,290.4,8.2,317.8,8.2z"/>
			<path opacity="0.8557" fill="#CED0D1" d="M317.8,8.2c27.4,0,49.7,22.2,49.7,49.7c0,27.4-22.2,49.7-49.7,49.7
				c-27.4,0-49.7-22.3-49.7-49.7C268.1,30.4,290.4,8.2,317.8,8.2z"/>
			<path opacity="0.8507" fill="#CED0D2" d="M317.9,8.2c27.4,0,49.7,22.2,49.7,49.7c0,27.4-22.2,49.7-49.7,49.7
				c-27.4,0-49.7-22.2-49.7-49.7C268.2,30.5,290.4,8.2,317.9,8.2z"/>
			<path opacity="0.8458" fill="#CFD0D2" d="M317.9,8.2c27.4,0,49.7,22.2,49.7,49.7c0,27.4-22.2,49.7-49.7,49.7
				c-27.4,0-49.7-22.2-49.7-49.7C268.2,30.5,290.4,8.2,317.9,8.2z"/>
			<path opacity="0.8408" fill="#CFD1D2" d="M317.9,8.3c27.4,0,49.7,22.2,49.7,49.7c0,27.4-22.2,49.7-49.7,49.7
				c-27.4,0-49.7-22.3-49.7-49.7C268.2,30.5,290.5,8.3,317.9,8.3z"/>
			<path opacity="0.8358" fill="#CFD1D2" d="M317.9,8.3c27.4,0,49.7,22.2,49.7,49.7c0,27.4-22.2,49.7-49.7,49.7
				c-27.4,0-49.7-22.2-49.7-49.7C268.2,30.5,290.5,8.3,317.9,8.3z"/>
			<path opacity="0.8308" fill="#D0D1D3" d="M318,8.3c27.4,0,49.7,22.2,49.7,49.7c0,27.4-22.2,49.7-49.7,49.7
				c-27.4,0-49.7-22.3-49.7-49.7C268.3,30.6,290.5,8.3,318,8.3z"/>
			<path opacity="0.8259" fill="#D0D1D3" d="M318,8.4c27.4,0,49.7,22.2,49.7,49.7c0,27.4-22.2,49.7-49.7,49.7
				c-27.4,0-49.7-22.3-49.7-49.7C268.3,30.6,290.5,8.4,318,8.4z"/>
			<path opacity="0.8209" fill="#D0D2D3" d="M318,8.4c27.4,0,49.7,22.2,49.7,49.7c0,27.4-22.2,49.7-49.7,49.7
				c-27.4,0-49.7-22.2-49.7-49.7C268.3,30.6,290.6,8.4,318,8.4z"/>
			<path opacity="0.8159" fill="#D0D2D3" d="M318,8.4c27.4,0,49.7,22.2,49.7,49.7c0,27.4-22.2,49.7-49.7,49.7
				c-27.4,0-49.7-22.2-49.7-49.7C268.3,30.7,290.6,8.4,318,8.4z"/>
			<path opacity="0.8109" fill="#D1D2D4" d="M318.1,8.4c27.4,0,49.7,22.2,49.7,49.7c0,27.4-22.2,49.7-49.7,49.7
				c-27.4,0-49.7-22.3-49.7-49.7C268.4,30.7,290.6,8.4,318.1,8.4z"/>
			<path opacity="0.806" fill="#D1D2D4" d="M318.1,8.5c27.4,0,49.7,22.2,49.7,49.7c0,27.4-22.2,49.7-49.7,49.7
				c-27.4,0-49.7-22.2-49.7-49.7C268.4,30.7,290.6,8.5,318.1,8.5z"/>
			<path opacity="0.801" fill="#D1D3D4" d="M318.1,8.5c27.4,0,49.7,22.2,49.7,49.7c0,27.4-22.2,49.7-49.7,49.7
				c-27.4,0-49.7-22.3-49.7-49.7C268.4,30.7,290.7,8.5,318.1,8.5z"/>
			<path opacity="0.796" fill="#D1D3D4" d="M318.1,8.5c27.4,0,49.7,22.2,49.7,49.7c0,27.4-22.2,49.7-49.7,49.7
				c-27.4,0-49.7-22.2-49.7-49.7C268.4,30.8,290.7,8.5,318.1,8.5z"/>
			<path opacity="0.791" fill="#D2D3D5" d="M318.2,8.6c27.4,0,49.7,22.2,49.7,49.7c0,27.4-22.2,49.7-49.7,49.7
				c-27.4,0-49.7-22.2-49.7-49.7C268.5,30.8,290.7,8.6,318.2,8.6z"/>
			<path opacity="0.7861" fill="#D2D3D5" d="M318.2,8.6c27.4,0,49.7,22.2,49.7,49.7c0,27.4-22.2,49.7-49.7,49.7
				c-27.4,0-49.7-22.3-49.7-49.7C268.5,30.8,290.7,8.6,318.2,8.6z"/>
			<path opacity="0.7811" fill="#D2D4D5" d="M318.2,8.6c27.4,0,49.7,22.2,49.7,49.7c0,27.4-22.2,49.7-49.7,49.7
				c-27.4,0-49.7-22.3-49.7-49.7C268.5,30.9,290.8,8.6,318.2,8.6z"/>
			<path opacity="0.7761" fill="#D2D4D5" d="M318.2,8.6c27.4,0,49.7,22.2,49.7,49.7c0,27.4-22.2,49.7-49.7,49.7
				c-27.4,0-49.7-22.2-49.7-49.7C268.5,30.9,290.8,8.6,318.2,8.6z"/>
			<path opacity="0.7711" fill="#D3D4D6" d="M318.3,8.7c27.4,0,49.7,22.2,49.7,49.7c0,27.4-22.2,49.7-49.7,49.7
				c-27.4,0-49.7-22.3-49.7-49.7C268.6,30.9,290.8,8.7,318.3,8.7z"/>
			<path opacity="0.7662" fill="#D3D4D6" d="M318.3,8.7c27.4,0,49.7,22.2,49.7,49.7c0,27.4-22.2,49.7-49.7,49.7
				c-27.4,0-49.7-22.2-49.7-49.7C268.6,30.9,290.8,8.7,318.3,8.7z"/>
			<path opacity="0.7612" fill="#D3D5D6" d="M318.3,8.7C345.7,8.7,368,31,368,58.4c0,27.4-22.2,49.7-49.7,49.7
				c-27.4,0-49.7-22.2-49.7-49.7C268.6,31,290.9,8.7,318.3,8.7z"/>
			<path opacity="0.7562" fill="#D4D5D6" d="M318.3,8.8C345.8,8.8,368,31,368,58.5c0,27.4-22.2,49.7-49.7,49.7
				c-27.4,0-49.7-22.3-49.7-49.7C268.6,31,290.9,8.8,318.3,8.8z"/>
			<path opacity="0.7512" fill="#D4D5D7" d="M318.3,8.8C345.8,8.8,368,31,368,58.5c0,27.4-22.2,49.7-49.7,49.7
				c-27.4,0-49.7-22.2-49.7-49.7C268.6,31,290.9,8.8,318.3,8.8z"/>
			<path opacity="0.7463" fill="#D4D5D7" d="M318.4,8.8c27.4,0,49.7,22.2,49.7,49.7c0,27.4-22.2,49.7-49.7,49.7
				c-27.4,0-49.7-22.2-49.7-49.7C268.7,31.1,290.9,8.8,318.4,8.8z"/>
			<path opacity="0.7413" fill="#D4D6D7" d="M318.4,8.8c27.4,0,49.7,22.2,49.7,49.7c0,27.4-22.2,49.7-49.7,49.7
				c-27.4,0-49.7-22.3-49.7-49.7C268.7,31.1,290.9,8.8,318.4,8.8z"/>
			<path opacity="0.7363" fill="#D5D6D7" d="M318.4,8.9c27.4,0,49.7,22.2,49.7,49.7c0,27.4-22.2,49.7-49.7,49.7
				c-27.4,0-49.7-22.2-49.7-49.7C268.7,31.1,291,8.9,318.4,8.9z"/>
			<path opacity="0.7313" fill="#D5D6D8" d="M318.4,8.9c27.4,0,49.7,22.2,49.7,49.7c0,27.4-22.2,49.7-49.7,49.7
				c-27.4,0-49.7-22.2-49.7-49.7C268.7,31.1,291,8.9,318.4,8.9z"/>
			<path opacity="0.7264" fill="#D5D6D8" d="M318.5,8.9c27.4,0,49.7,22.2,49.7,49.7c0,27.4-22.2,49.7-49.7,49.7
				c-27.4,0-49.7-22.3-49.7-49.7C268.8,31.2,291,8.9,318.5,8.9z"/>
			<path opacity="0.7214" fill="#D5D7D8" d="M318.5,9c27.4,0,49.7,22.2,49.7,49.7c0,27.4-22.2,49.7-49.7,49.7
				c-27.4,0-49.7-22.2-49.7-49.7C268.8,31.2,291,9,318.5,9z"/>
			<path opacity="0.7164" fill="#D6D7D8" d="M318.5,9c27.4,0,49.7,22.2,49.7,49.7c0,27.4-22.2,49.7-49.7,49.7
				c-27.4,0-49.7-22.2-49.7-49.7C268.8,31.2,291.1,9,318.5,9z"/>
			<path opacity="0.7114" fill="#D6D7D9" d="M318.5,9c27.4,0,49.7,22.2,49.7,49.7c0,27.4-22.2,49.7-49.7,49.7
				c-27.4,0-49.7-22.3-49.7-49.7C268.8,31.3,291.1,9,318.5,9z"/>
			<path opacity="0.7065" fill="#D6D7D9" d="M318.6,9c27.4,0,49.7,22.2,49.7,49.7c0,27.4-22.2,49.7-49.7,49.7
				c-27.4,0-49.7-22.2-49.7-49.7C268.9,31.3,291.1,9,318.6,9z"/>
			<path opacity="0.7015" fill="#D6D8D9" d="M318.6,9.1c27.4,0,49.7,22.2,49.7,49.7c0,27.4-22.2,49.7-49.7,49.7
				c-27.4,0-49.7-22.2-49.7-49.7C268.9,31.3,291.1,9.1,318.6,9.1z"/>
			<path opacity="0.6965" fill="#D7D8D9" d="M318.6,9.1c27.4,0,49.7,22.2,49.7,49.7c0,27.4-22.2,49.7-49.7,49.7
				c-27.4,0-49.7-22.3-49.7-49.7C268.9,31.3,291.2,9.1,318.6,9.1z"/>
			<path opacity="0.6915" fill="#D7D8DA" d="M318.6,9.1c27.4,0,49.7,22.2,49.7,49.7c0,27.4-22.2,49.7-49.7,49.7
				c-27.4,0-49.7-22.2-49.7-49.7C268.9,31.4,291.2,9.1,318.6,9.1z"/>
			<path opacity="0.6866" fill="#D7D8DA" d="M318.7,9.2c27.4,0,49.7,22.2,49.7,49.7c0,27.4-22.2,49.7-49.7,49.7
				c-27.4,0-49.7-22.2-49.7-49.7C269,31.4,291.2,9.2,318.7,9.2z"/>
			<path opacity="0.6816" fill="#D7D9DA" d="M318.7,9.2c27.4,0,49.7,22.2,49.7,49.7c0,27.4-22.2,49.7-49.7,49.7
				c-27.4,0-49.7-22.2-49.7-49.7C269,31.4,291.2,9.2,318.7,9.2z"/>
			<path opacity="0.6766" fill="#D8D9DA" d="M318.7,9.2c27.4,0,49.7,22.2,49.7,49.7c0,27.4-22.2,49.7-49.7,49.7
				c-27.4,0-49.7-22.2-49.7-49.7C269,31.5,291.3,9.2,318.7,9.2z"/>
			<path opacity="0.6716" fill="#D8D9DB" d="M318.7,9.2c27.4,0,49.7,22.2,49.7,49.7c0,27.4-22.2,49.7-49.7,49.7
				c-27.4,0-49.7-22.2-49.7-49.7C269,31.5,291.3,9.2,318.7,9.2z"/>
			<path opacity="0.6667" fill="#D8D9DB" d="M318.7,9.3c27.4,0,49.7,22.2,49.7,49.7c0,27.4-22.2,49.7-49.7,49.7
				c-27.4,0-49.7-22.3-49.7-49.7C269.1,31.5,291.3,9.3,318.7,9.3z"/>
			<path opacity="0.6617" fill="#D8DADB" d="M318.8,9.3c27.4,0,49.7,22.2,49.7,49.7c0,27.4-22.2,49.7-49.7,49.7
				c-27.4,0-49.7-22.2-49.7-49.7C269.1,31.5,291.3,9.3,318.8,9.3z"/>
			<path opacity="0.6567" fill="#D9DADB" d="M318.8,9.3c27.4,0,49.7,22.2,49.7,49.7c0,27.4-22.2,49.7-49.7,49.7
				c-27.4,0-49.7-22.3-49.7-49.7C269.1,31.6,291.4,9.3,318.8,9.3z"/>
			<path opacity="0.6517" fill="#D9DADC" d="M318.8,9.4c27.4,0,49.7,22.2,49.7,49.7c0,27.4-22.2,49.7-49.7,49.7
				c-27.4,0-49.7-22.3-49.7-49.7C269.1,31.6,291.4,9.4,318.8,9.4z"/>
			<path opacity="0.6468" fill="#D9DBDC" d="M318.8,9.4c27.4,0,49.7,22.2,49.7,49.7c0,27.4-22.2,49.7-49.7,49.7
				c-27.4,0-49.7-22.2-49.7-49.7C269.1,31.6,291.4,9.4,318.8,9.4z"/>
			<path opacity="0.6418" fill="#DADBDC" d="M318.9,9.4c27.4,0,49.7,22.2,49.7,49.7c0,27.4-22.2,49.7-49.7,49.7
				c-27.4,0-49.7-22.3-49.7-49.7C269.2,31.7,291.4,9.4,318.9,9.4z"/>
			<path opacity="0.6368" fill="#DADBDC" d="M318.9,9.4c27.4,0,49.7,22.2,49.7,49.7c0,27.4-22.2,49.7-49.7,49.7
				c-27.4,0-49.7-22.2-49.7-49.7C269.2,31.7,291.4,9.4,318.9,9.4z"/>
			<path opacity="0.6318" fill="#DADBDD" d="M318.9,9.5c27.4,0,49.7,22.2,49.7,49.7c0,27.4-22.2,49.7-49.7,49.7
				c-27.4,0-49.7-22.2-49.7-49.7C269.2,31.7,291.5,9.5,318.9,9.5z"/>
			<path opacity="0.6269" fill="#DADCDD" d="M318.9,9.5c27.4,0,49.7,22.2,49.7,49.7c0,27.4-22.2,49.7-49.7,49.7
				c-27.4,0-49.7-22.3-49.7-49.7C269.2,31.8,291.5,9.5,318.9,9.5z"/>
			<path opacity="0.6219" fill="#DBDCDD" d="M319,9.5c27.4,0,49.7,22.2,49.7,49.7c0,27.4-22.2,49.7-49.7,49.7
				c-27.4,0-49.7-22.2-49.7-49.7C269.3,31.8,291.5,9.5,319,9.5z"/>
			<path opacity="0.6169" fill="#DBDCDD" d="M319,9.6c27.4,0,49.7,22.2,49.7,49.7c0,27.4-22.2,49.7-49.7,49.7
				c-27.4,0-49.7-22.2-49.7-49.7C269.3,31.8,291.5,9.6,319,9.6z"/>
			<path opacity="0.6119" fill="#DBDCDE" d="M319,9.6c27.4,0,49.7,22.2,49.7,49.7S346.5,109,319,109c-27.4,0-49.7-22.3-49.7-49.7
				S291.6,9.6,319,9.6z"/>
			<path opacity="0.607" fill="#DBDDDE" d="M319,9.6c27.4,0,49.7,22.2,49.7,49.7c0,27.4-22.2,49.7-49.7,49.7
				c-27.4,0-49.7-22.2-49.7-49.7C269.3,31.9,291.6,9.6,319,9.6z"/>
			<path opacity="0.602" fill="#DCDDDE" d="M319.1,9.6c27.4,0,49.7,22.2,49.7,49.7c0,27.4-22.2,49.7-49.7,49.7
				c-27.4,0-49.7-22.2-49.7-49.7C269.4,31.9,291.6,9.6,319.1,9.6z"/>
			<path opacity="0.597" fill="#DCDDDE" d="M319.1,9.7c27.4,0,49.7,22.2,49.7,49.7c0,27.4-22.2,49.7-49.7,49.7
				c-27.4,0-49.7-22.3-49.7-49.7C269.4,31.9,291.6,9.7,319.1,9.7z"/>
			<path opacity="0.592" fill="#DCDDDF" d="M319.1,9.7c27.4,0,49.7,22.2,49.7,49.7c0,27.4-22.2,49.7-49.7,49.7
				c-27.4,0-49.7-22.2-49.7-49.7C269.4,32,291.7,9.7,319.1,9.7z"/>
			<path opacity="0.5871" fill="#DCDEDF" d="M319.1,9.7c27.4,0,49.7,22.2,49.7,49.7c0,27.4-22.2,49.7-49.7,49.7
				c-27.4,0-49.7-22.2-49.7-49.7C269.4,32,291.7,9.7,319.1,9.7z"/>
			<path opacity="0.5821" fill="#DDDEDF" d="M319.2,9.8c27.4,0,49.7,22.2,49.7,49.7c0,27.4-22.2,49.7-49.7,49.7
				c-27.4,0-49.7-22.2-49.7-49.7C269.5,32,291.7,9.8,319.2,9.8z"/>
			<path opacity="0.5771" fill="#DDDEDF" d="M319.2,9.8c27.4,0,49.7,22.2,49.7,49.7c0,27.4-22.2,49.7-49.7,49.7
				c-27.4,0-49.7-22.2-49.7-49.7C269.5,32,291.7,9.8,319.2,9.8z"/>
			<path opacity="0.5721" fill="#DDDEE0" d="M319.2,9.8c27.4,0,49.7,22.2,49.7,49.7c0,27.4-22.2,49.7-49.7,49.7
				c-27.4,0-49.7-22.2-49.7-49.7C269.5,32.1,291.8,9.8,319.2,9.8z"/>
			<path opacity="0.5672" fill="#DDDFE0" d="M319.2,9.8c27.4,0,49.7,22.2,49.7,49.7c0,27.4-22.2,49.7-49.7,49.7
				c-27.4,0-49.7-22.3-49.7-49.7C269.5,32.1,291.8,9.8,319.2,9.8z"/>
			<path opacity="0.5622" fill="#DEDFE0" d="M319.2,9.9c27.4,0,49.7,22.2,49.7,49.7c0,27.4-22.2,49.7-49.7,49.7
				c-27.4,0-49.7-22.2-49.7-49.7C269.5,32.1,291.8,9.9,319.2,9.9z"/>
			<path opacity="0.5572" fill="#DEDFE0" d="M319.3,9.9c27.4,0,49.7,22.2,49.7,49.7c0,27.4-22.2,49.7-49.7,49.7
				c-27.4,0-49.7-22.2-49.7-49.7C269.6,32.2,291.8,9.9,319.3,9.9z"/>
			<path opacity="0.5522" fill="#DEDFE1" d="M319.3,9.9c27.4,0,49.7,22.2,49.7,49.7c0,27.4-22.2,49.7-49.7,49.7
				c-27.4,0-49.7-22.3-49.7-49.7C269.6,32.2,291.8,9.9,319.3,9.9z"/>
			<path opacity="0.5473" fill="#DFE0E1" d="M319.3,10c27.4,0,49.7,22.2,49.7,49.7c0,27.4-22.2,49.7-49.7,49.7
				c-27.4,0-49.7-22.2-49.7-49.7C269.6,32.2,291.9,10,319.3,10z"/>
			<path opacity="0.5423" fill="#DFE0E1" d="M319.3,10c27.4,0,49.7,22.2,49.7,49.7c0,27.4-22.2,49.7-49.7,49.7
				c-27.4,0-49.7-22.2-49.7-49.7C269.6,32.2,291.9,10,319.3,10z"/>
			<path opacity="0.5373" fill="#DFE0E1" d="M319.4,10c27.4,0,49.7,22.2,49.7,49.7c0,27.4-22.2,49.7-49.7,49.7
				c-27.4,0-49.7-22.2-49.7-49.7C269.7,32.3,291.9,10,319.4,10z"/>
			<path opacity="0.5323" fill="#DFE0E2" d="M319.4,10c27.4,0,49.7,22.2,49.7,49.7c0,27.4-22.2,49.7-49.7,49.7
				c-27.4,0-49.7-22.2-49.7-49.7C269.7,32.3,291.9,10,319.4,10z"/>
			<path opacity="0.5274" fill="#E0E1E2" d="M319.4,10.1c27.4,0,49.7,22.2,49.7,49.7c0,27.4-22.2,49.7-49.7,49.7
				c-27.4,0-49.7-22.2-49.7-49.7C269.7,32.3,292,10.1,319.4,10.1z"/>
			<path opacity="0.5224" fill="#E0E1E2" d="M319.4,10.1c27.4,0,49.7,22.2,49.7,49.7c0,27.4-22.2,49.7-49.7,49.7
				c-27.4,0-49.7-22.2-49.7-49.7C269.7,32.4,292,10.1,319.4,10.1z"/>
			<path opacity="0.5174" fill="#E0E1E2" d="M319.5,10.1c27.4,0,49.7,22.2,49.7,49.7c0,27.4-22.2,49.7-49.7,49.7
				c-27.4,0-49.7-22.2-49.7-49.7C269.8,32.4,292,10.1,319.5,10.1z"/>
			<path opacity="0.5124" fill="#E0E1E3" d="M319.5,10.2c27.4,0,49.7,22.2,49.7,49.7c0,27.4-22.2,49.7-49.7,49.7
				c-27.4,0-49.7-22.2-49.7-49.7C269.8,32.4,292,10.2,319.5,10.2z"/>
			<path opacity="0.5075" fill="#E1E2E3" d="M319.5,10.2c27.4,0,49.7,22.2,49.7,49.7c0,27.4-22.2,49.7-49.7,49.7
				c-27.4,0-49.7-22.2-49.7-49.7C269.8,32.4,292.1,10.2,319.5,10.2z"/>
			<path opacity="0.5025" fill="#E1E2E3" d="M319.5,10.2c27.4,0,49.7,22.2,49.7,49.7c0,27.4-22.2,49.7-49.7,49.7
				c-27.4,0-49.7-22.2-49.7-49.7C269.8,32.5,292.1,10.2,319.5,10.2z"/>
			<path opacity="0.4975" fill="#E1E2E3" d="M319.6,10.2c27.4,0,49.7,22.2,49.7,49.7c0,27.4-22.2,49.7-49.7,49.7
				c-27.4,0-49.7-22.3-49.7-49.7C269.9,32.5,292.1,10.2,319.6,10.2z"/>
			<path opacity="0.4925" fill="#E1E2E4" d="M319.6,10.3c27.4,0,49.7,22.2,49.7,49.7c0,27.4-22.2,49.7-49.7,49.7
				c-27.4,0-49.7-22.3-49.7-49.7C269.9,32.5,292.1,10.3,319.6,10.3z"/>
			<path opacity="0.4876" fill="#E2E3E4" d="M319.6,10.3c27.4,0,49.7,22.2,49.7,49.7c0,27.4-22.2,49.7-49.7,49.7
				c-27.4,0-49.7-22.2-49.7-49.7C269.9,32.6,292.2,10.3,319.6,10.3z"/>
			<path opacity="0.4826" fill="#E2E3E4" d="M319.6,10.3c27.4,0,49.7,22.2,49.7,49.7c0,27.4-22.2,49.7-49.7,49.7
				c-27.4,0-49.7-22.2-49.7-49.7C269.9,32.6,292.2,10.3,319.6,10.3z"/>
			<path opacity="0.4776" fill="#E2E3E4" d="M319.6,10.4c27.4,0,49.7,22.2,49.7,49.7c0,27.4-22.2,49.7-49.7,49.7
				c-27.4,0-49.7-22.2-49.7-49.7C270,32.6,292.2,10.4,319.6,10.4z"/>
			<path opacity="0.4726" fill="#E2E3E4" d="M319.7,10.4c27.4,0,49.7,22.2,49.7,49.7c0,27.4-22.2,49.7-49.7,49.7
				c-27.4,0-49.7-22.2-49.7-49.7C270,32.6,292.2,10.4,319.7,10.4z"/>
			<path opacity="0.4677" fill="#E3E4E5" d="M319.7,10.4c27.4,0,49.7,22.2,49.7,49.7c0,27.4-22.2,49.7-49.7,49.7
				c-27.4,0-49.7-22.3-49.7-49.7C270,32.7,292.3,10.4,319.7,10.4z"/>
			<path opacity="0.4627" fill="#E3E4E5" d="M319.7,10.4c27.4,0,49.7,22.2,49.7,49.7c0,27.4-22.2,49.7-49.7,49.7
				c-27.4,0-49.7-22.2-49.7-49.7C270,32.7,292.3,10.4,319.7,10.4z"/>
			<path opacity="0.4577" fill="#E3E4E5" d="M319.7,10.5c27.4,0,49.7,22.2,49.7,49.7c0,27.4-22.2,49.7-49.7,49.7
				c-27.4,0-49.7-22.2-49.7-49.7C270,32.7,292.3,10.5,319.7,10.5z"/>
			<path opacity="0.4527" fill="#E3E4E5" d="M319.8,10.5c27.4,0,49.7,22.2,49.7,49.7c0,27.4-22.2,49.7-49.7,49.7
				c-27.4,0-49.7-22.3-49.7-49.7C270.1,32.8,292.3,10.5,319.8,10.5z"/>
			<path opacity="0.4478" fill="#E4E5E6" d="M319.8,10.5c27.4,0,49.7,22.2,49.7,49.7c0,27.4-22.2,49.7-49.7,49.7
				c-27.4,0-49.7-22.2-49.7-49.7C270.1,32.8,292.3,10.5,319.8,10.5z"/>
			<path opacity="0.4428" fill="#E4E5E6" d="M319.8,10.6c27.4,0,49.7,22.2,49.7,49.7c0,27.4-22.2,49.7-49.7,49.7
				c-27.4,0-49.7-22.2-49.7-49.7C270.1,32.8,292.4,10.6,319.8,10.6z"/>
			<path opacity="0.4378" fill="#E4E5E6" d="M319.8,10.6c27.4,0,49.7,22.2,49.7,49.7c0,27.4-22.2,49.7-49.7,49.7
				c-27.4,0-49.7-22.3-49.7-49.7C270.1,32.8,292.4,10.6,319.8,10.6z"/>
			<path opacity="0.4328" fill="#E5E5E6" d="M319.9,10.6c27.4,0,49.7,22.2,49.7,49.7c0,27.4-22.2,49.7-49.7,49.7
				c-27.4,0-49.7-22.2-49.7-49.7C270.2,32.9,292.4,10.6,319.9,10.6z"/>
			<path opacity="0.4279" fill="#E5E6E7" d="M319.9,10.6c27.4,0,49.7,22.2,49.7,49.7c0,27.4-22.2,49.7-49.7,49.7
				c-27.4,0-49.7-22.2-49.7-49.7C270.2,32.9,292.4,10.6,319.9,10.6z"/>
			<path opacity="0.4229" fill="#E5E6E7" d="M319.9,10.7c27.4,0,49.7,22.2,49.7,49.7c0,27.4-22.2,49.7-49.7,49.7
				c-27.4,0-49.7-22.3-49.7-49.7C270.2,32.9,292.5,10.7,319.9,10.7z"/>
			<path opacity="0.4179" fill="#E5E6E7" d="M319.9,10.7c27.4,0,49.7,22.2,49.7,49.7c0,27.4-22.2,49.7-49.7,49.7
				c-27.4,0-49.7-22.2-49.7-49.7C270.2,33,292.5,10.7,319.9,10.7z"/>
			<path opacity="0.4129" fill="#E6E6E7" d="M320,10.7c27.4,0,49.7,22.2,49.7,49.7c0,27.5-22.2,49.7-49.7,49.7
				c-27.4,0-49.7-22.2-49.7-49.7C270.3,33,292.5,10.7,320,10.7z"/>
			<path opacity="0.408" fill="#E6E7E8" d="M320,10.8c27.4,0,49.7,22.2,49.7,49.7c0,27.4-22.2,49.7-49.7,49.7
				c-27.4,0-49.7-22.3-49.7-49.7C270.3,33,292.5,10.8,320,10.8z"/>
			<path opacity="0.403" fill="#E6E7E8" d="M320,10.8c27.4,0,49.7,22.2,49.7,49.7c0,27.4-22.2,49.7-49.7,49.7
				c-27.4,0-49.7-22.2-49.7-49.7C270.3,33,292.6,10.8,320,10.8z"/>
			<path opacity="0.398" fill="#E6E7E8" d="M320,10.8c27.4,0,49.7,22.2,49.7,49.7c0,27.5-22.2,49.7-49.7,49.7
				c-27.4,0-49.7-22.2-49.7-49.7C270.3,33.1,292.6,10.8,320,10.8z"/>
			<path opacity="0.393" fill="#E7E8E8" d="M320.1,10.8c27.4,0,49.7,22.2,49.7,49.7c0,27.4-22.2,49.7-49.7,49.7
				c-27.4,0-49.7-22.2-49.7-49.7C270.4,33.1,292.6,10.8,320.1,10.8z"/>
			<path opacity="0.3881" fill="#E7E8E9" d="M320.1,10.9c27.4,0,49.7,22.2,49.7,49.7c0,27.4-22.2,49.7-49.7,49.7
				c-27.4,0-49.7-22.2-49.7-49.7C270.4,33.1,292.6,10.9,320.1,10.9z"/>
			<path opacity="0.3831" fill="#E7E8E9" d="M320.1,10.9c27.4,0,49.7,22.2,49.7,49.7c0,27.5-22.2,49.7-49.7,49.7
				c-27.4,0-49.7-22.2-49.7-49.7C270.4,33.2,292.7,10.9,320.1,10.9z"/>
			<path opacity="0.3781" fill="#E8E8E9" d="M320.1,10.9c27.4,0,49.7,22.2,49.7,49.7c0,27.4-22.2,49.7-49.7,49.7
				c-27.4,0-49.7-22.3-49.7-49.7C270.4,33.2,292.7,10.9,320.1,10.9z"/>
			<path opacity="0.3731" fill="#E8E9E9" d="M320.1,11c27.4,0,49.7,22.2,49.7,49.7c0,27.5-22.2,49.7-49.7,49.7
				c-27.4,0-49.7-22.2-49.7-49.7C270.5,33.2,292.7,11,320.1,11z"/>
			<path opacity="0.3682" fill="#E8E9EA" d="M320.2,11c27.4,0,49.7,22.2,49.7,49.7c0,27.5-22.2,49.7-49.7,49.7
				c-27.4,0-49.7-22.2-49.7-49.7C270.5,33.2,292.7,11,320.2,11z"/>
			<path opacity="0.3632" fill="#E8E9EA" d="M320.2,11c27.4,0,49.7,22.2,49.7,49.7c0,27.4-22.2,49.7-49.7,49.7
				c-27.4,0-49.7-22.2-49.7-49.7C270.5,33.3,292.8,11,320.2,11z"/>
			<path opacity="0.3582" fill="#E9E9EA" d="M320.2,11c27.4,0,49.7,22.2,49.7,49.7c0,27.4-22.2,49.7-49.7,49.7
				c-27.4,0-49.7-22.2-49.7-49.7C270.5,33.3,292.8,11,320.2,11z"/>
			<path opacity="0.3532" fill="#E9EAEB" d="M320.2,11.1c27.4,0,49.7,22.2,49.7,49.7c0,27.5-22.2,49.7-49.7,49.7
				c-27.4,0-49.7-22.2-49.7-49.7C270.5,33.3,292.8,11.1,320.2,11.1z"/>
			<path opacity="0.3483" fill="#E9EAEB" d="M320.3,11.1c27.4,0,49.7,22.2,49.7,49.7c0,27.4-22.2,49.7-49.7,49.7
				c-27.4,0-49.7-22.2-49.7-49.7C270.6,33.4,292.8,11.1,320.3,11.1z"/>
			<path opacity="0.3433" fill="#EAEAEB" d="M320.3,11.1c27.4,0,49.7,22.2,49.7,49.7c0,27.5-22.2,49.7-49.7,49.7
				c-27.4,0-49.7-22.2-49.7-49.7C270.6,33.4,292.8,11.1,320.3,11.1z"/>
			<path opacity="0.3383" fill="#EAEBEB" d="M320.3,11.2c27.4,0,49.7,22.2,49.7,49.7c0,27.4-22.2,49.7-49.7,49.7
				c-27.4,0-49.7-22.3-49.7-49.7C270.6,33.4,292.9,11.2,320.3,11.2z"/>
			<path opacity="0.3333" fill="#EAEBEC" d="M320.3,11.2c27.4,0,49.7,22.2,49.7,49.7c0,27.4-22.2,49.7-49.7,49.7
				c-27.4,0-49.7-22.2-49.7-49.7C270.6,33.4,292.9,11.2,320.3,11.2z"/>
			<path opacity="0.3284" fill="#EAEBEC" d="M320.4,11.2c27.4,0,49.7,22.2,49.7,49.7c0,27.5-22.2,49.7-49.7,49.7
				c-27.4,0-49.7-22.2-49.7-49.7C270.7,33.5,292.9,11.2,320.4,11.2z"/>
			<path opacity="0.3234" fill="#EBEBEC" d="M320.4,11.2c27.4,0,49.7,22.2,49.7,49.7c0,27.5-22.2,49.7-49.7,49.7
				c-27.4,0-49.7-22.2-49.7-49.7C270.7,33.5,292.9,11.2,320.4,11.2z"/>
			<path opacity="0.3184" fill="#EBECEC" d="M320.4,11.3c27.4,0,49.7,22.2,49.7,49.7c0,27.4-22.2,49.7-49.7,49.7
				c-27.4,0-49.7-22.2-49.7-49.7C270.7,33.5,293,11.3,320.4,11.3z"/>
			<path opacity="0.3134" fill="#EBECED" d="M320.4,11.3c27.4,0,49.7,22.2,49.7,49.7c0,27.5-22.2,49.7-49.7,49.7
				c-27.4,0-49.7-22.2-49.7-49.7C270.7,33.6,293,11.3,320.4,11.3z"/>
			<path opacity="0.3085" fill="#EBECED" d="M320.5,11.3c27.4,0,49.7,22.2,49.7,49.7c0,27.4-22.2,49.7-49.7,49.7
				c-27.4,0-49.7-22.3-49.7-49.7C270.8,33.6,293,11.3,320.5,11.3z"/>
			<path opacity="0.3035" fill="#ECECED" d="M320.5,11.4c27.4,0,49.7,22.2,49.7,49.7c0,27.4-22.2,49.7-49.7,49.7
				c-27.4,0-49.7-22.2-49.7-49.7C270.8,33.6,293,11.4,320.5,11.4z"/>
			<path opacity="0.2985" fill="#ECECED" d="M320.5,11.4c27.4,0,49.7,22.2,49.7,49.7c0,27.5-22.2,49.7-49.7,49.7
				c-27.4,0-49.7-22.2-49.7-49.7C270.8,33.6,293.1,11.4,320.5,11.4z"/>
			<path opacity="0.2935" fill="#ECEDED" d="M320.5,11.4c27.4,0,49.7,22.2,49.7,49.7c0,27.4-22.2,49.7-49.7,49.7
				c-27.4,0-49.7-22.3-49.7-49.7C270.8,33.7,293.1,11.4,320.5,11.4z"/>
			<path opacity="0.2886" fill="#ECEDEE" d="M320.6,11.4c27.4,0,49.7,22.2,49.7,49.7c0,27.5-22.2,49.7-49.7,49.7
				c-27.4,0-49.7-22.2-49.7-49.7C270.9,33.7,293.1,11.4,320.6,11.4z"/>
			<path opacity="0.2836" fill="#EDEDEE" d="M320.6,11.5c27.4,0,49.7,22.2,49.7,49.7c0,27.5-22.2,49.7-49.7,49.7
				c-27.4,0-49.7-22.2-49.7-49.7C270.9,33.7,293.1,11.5,320.6,11.5z"/>
			<path opacity="0.2786" fill="#EDEEEE" d="M320.6,11.5c27.4,0,49.7,22.2,49.7,49.7c0,27.4-22.2,49.7-49.7,49.7
				c-27.4,0-49.7-22.3-49.7-49.7C270.9,33.8,293.2,11.5,320.6,11.5z"/>
			<path opacity="0.2736" fill="#EDEEEE" d="M320.6,11.5c27.4,0,49.7,22.2,49.7,49.7c0,27.5-22.2,49.7-49.7,49.7
				c-27.4,0-49.7-22.2-49.7-49.7C270.9,33.8,293.2,11.5,320.6,11.5z"/>
			<path opacity="0.2687" fill="#EDEEEF" d="M320.6,11.6c27.4,0,49.7,22.2,49.7,49.7c0,27.5-22.2,49.7-49.7,49.7
				c-27.4,0-49.7-22.2-49.7-49.7C270.9,33.8,293.2,11.6,320.6,11.6z"/>
			<path opacity="0.2637" fill="#EEEEEF" d="M320.7,11.6c27.4,0,49.7,22.2,49.7,49.7c0,27.4-22.2,49.7-49.7,49.7
				c-27.4,0-49.7-22.3-49.7-49.7C271,33.8,293.2,11.6,320.7,11.6z"/>
			<path opacity="0.2587" fill="#EEEFEF" d="M320.7,11.6c27.4,0,49.7,22.2,49.7,49.7c0,27.5-22.2,49.7-49.7,49.7
				c-27.4,0-49.7-22.2-49.7-49.7C271,33.9,293.2,11.6,320.7,11.6z"/>
			<path opacity="0.2537" fill="#EEEFEF" d="M320.7,11.6c27.4,0,49.7,22.2,49.7,49.7c0,27.5-22.2,49.7-49.7,49.7
				c-27.4,0-49.7-22.2-49.7-49.7C271,33.9,293.3,11.6,320.7,11.6z"/>
			<path opacity="0.2488" fill="#EEEFF0" d="M320.7,11.7c27.4,0,49.7,22.2,49.7,49.7c0,27.4-22.2,49.7-49.7,49.7
				c-27.4,0-49.7-22.2-49.7-49.7C271,33.9,293.3,11.7,320.7,11.7z"/>
			<path opacity="0.2438" fill="#EFEFF0" d="M320.8,11.7c27.4,0,49.7,22.2,49.7,49.7c0,27.5-22.2,49.7-49.7,49.7
				c-27.4,0-49.7-22.2-49.7-49.7C271.1,34,293.3,11.7,320.8,11.7z"/>
			<path opacity="0.2388" fill="#EFF0F0" d="M320.8,11.7c27.4,0,49.7,22.2,49.7,49.7c0,27.5-22.2,49.7-49.7,49.7
				c-27.4,0-49.7-22.2-49.7-49.7C271.1,34,293.3,11.7,320.8,11.7z"/>
			<path opacity="0.2338" fill="#EFF0F0" d="M320.8,11.8c27.4,0,49.7,22.2,49.7,49.7c0,27.5-22.2,49.7-49.7,49.7
				c-27.4,0-49.7-22.3-49.7-49.7C271.1,34,293.4,11.8,320.8,11.8z"/>
			<path opacity="0.2289" fill="#F0F0F1" d="M320.8,11.8c27.4,0,49.7,22.2,49.7,49.7c0,27.5-22.2,49.7-49.7,49.7
				c-27.4,0-49.7-22.2-49.7-49.7C271.1,34,293.4,11.8,320.8,11.8z"/>
			<path opacity="0.2239" fill="#F0F0F1" d="M320.9,11.8c27.4,0,49.7,22.2,49.7,49.7c0,27.5-22.2,49.7-49.7,49.7
				c-27.4,0-49.7-22.2-49.7-49.7C271.2,34.1,293.4,11.8,320.9,11.8z"/>
			<path opacity="0.2189" fill="#F0F1F1" d="M320.9,11.8c27.4,0,49.7,22.2,49.7,49.7c0,27.4-22.2,49.7-49.7,49.7
				c-27.4,0-49.7-22.2-49.7-49.7C271.2,34.1,293.4,11.8,320.9,11.8z"/>
			<path opacity="0.2139" fill="#F0F1F1" d="M320.9,11.9c27.4,0,49.7,22.2,49.7,49.7c0,27.5-22.2,49.7-49.7,49.7
				c-27.4,0-49.7-22.2-49.7-49.7C271.2,34.1,293.5,11.9,320.9,11.9z"/>
			<path opacity="0.209" fill="#F1F1F2" d="M320.9,11.9c27.4,0,49.7,22.2,49.7,49.7c0,27.5-22.2,49.7-49.7,49.7
				c-27.4,0-49.7-22.2-49.7-49.7C271.2,34.2,293.5,11.9,320.9,11.9z"/>
			<path opacity="0.204" fill="#F1F1F2" d="M321,11.9c27.4,0,49.7,22.2,49.7,49.7c0,27.5-22.2,49.7-49.7,49.7
				c-27.4,0-49.7-22.2-49.7-49.7C271.3,34.2,293.5,11.9,321,11.9z"/>
			<path opacity="0.199" fill="#F1F2F2" d="M321,12c27.4,0,49.7,22.2,49.7,49.7c0,27.5-22.2,49.7-49.7,49.7
				c-27.4,0-49.7-22.2-49.7-49.7C271.3,34.2,293.5,12,321,12z"/>
			<path opacity="0.194" fill="#F1F2F2" d="M321,12c27.4,0,49.7,22.2,49.7,49.7c0,27.5-22.2,49.7-49.7,49.7
				c-27.4,0-49.7-22.2-49.7-49.7C271.3,34.2,293.6,12,321,12z"/>
			<path opacity="0.1891" fill="#F2F2F3" d="M321,12c27.4,0,49.7,22.2,49.7,49.7c0,27.5-22.2,49.7-49.7,49.7
				c-27.4,0-49.7-22.2-49.7-49.7C271.3,34.3,293.6,12,321,12z"/>
			<path opacity="0.1841" fill="#F2F2F3" d="M321,12c27.4,0,49.7,22.2,49.7,49.7c0,27.5-22.2,49.7-49.7,49.7
				c-27.4,0-49.7-22.2-49.7-49.7C271.4,34.3,293.6,12,321,12z"/>
			<path opacity="0.1791" fill="#F2F3F3" d="M321.1,12.1c27.4,0,49.7,22.2,49.7,49.7c0,27.5-22.2,49.7-49.7,49.7
				c-27.4,0-49.7-22.2-49.7-49.7C271.4,34.3,293.6,12.1,321.1,12.1z"/>
			<path opacity="0.1741" fill="#F2F3F3" d="M321.1,12.1c27.4,0,49.7,22.2,49.7,49.7c0,27.5-22.2,49.7-49.7,49.7
				c-27.4,0-49.7-22.2-49.7-49.7C271.4,34.4,293.7,12.1,321.1,12.1z"/>
			<path opacity="0.1692" fill="#F3F3F4" d="M321.1,12.1c27.4,0,49.7,22.2,49.7,49.7c0,27.5-22.2,49.7-49.7,49.7
				c-27.4,0-49.7-22.2-49.7-49.7C271.4,34.4,293.7,12.1,321.1,12.1z"/>
			<path opacity="0.1642" fill="#F3F3F4" d="M321.1,12.2c27.4,0,49.7,22.2,49.7,49.7c0,27.5-22.2,49.7-49.7,49.7
				c-27.4,0-49.7-22.2-49.7-49.7C271.4,34.4,293.7,12.2,321.1,12.2z"/>
			<path opacity="0.1592" fill="#F3F4F4" d="M321.2,12.2c27.4,0,49.7,22.2,49.7,49.7c0,27.5-22.2,49.7-49.7,49.7
				c-27.4,0-49.7-22.2-49.7-49.7C271.5,34.4,293.7,12.2,321.2,12.2z"/>
			<path opacity="0.1542" fill="#F4F4F4" d="M321.2,12.2c27.4,0,49.7,22.2,49.7,49.7c0,27.5-22.2,49.7-49.7,49.7
				c-27.4,0-49.7-22.2-49.7-49.7C271.5,34.5,293.7,12.2,321.2,12.2z"/>
			<path opacity="0.1493" fill="#F4F4F5" d="M321.2,12.2c27.4,0,49.7,22.2,49.7,49.7c0,27.5-22.2,49.7-49.7,49.7
				c-27.4,0-49.7-22.2-49.7-49.7C271.5,34.5,293.8,12.2,321.2,12.2z"/>
			<path opacity="0.1443" fill="#F4F4F5" d="M321.2,12.3c27.4,0,49.7,22.2,49.7,49.7c0,27.5-22.2,49.7-49.7,49.7
				c-27.4,0-49.7-22.2-49.7-49.7C271.5,34.5,293.8,12.3,321.2,12.3z"/>
			<path opacity="0.1393" fill="#F4F5F5" d="M321.3,12.3c27.4,0,49.7,22.2,49.7,49.7c0,27.5-22.2,49.7-49.7,49.7
				c-27.4,0-49.7-22.2-49.7-49.7C271.6,34.6,293.8,12.3,321.3,12.3z"/>
			<path opacity="0.1343" fill="#F5F5F5" d="M321.3,12.3c27.4,0,49.7,22.2,49.7,49.7c0,27.5-22.2,49.7-49.7,49.7
				c-27.4,0-49.7-22.2-49.7-49.7C271.6,34.6,293.8,12.3,321.3,12.3z"/>
			<path opacity="0.1294" fill="#F5F5F6" d="M321.3,12.4c27.5,0,49.7,22.2,49.7,49.7c0,27.5-22.2,49.7-49.7,49.7
				c-27.4,0-49.7-22.2-49.7-49.7C271.6,34.6,293.9,12.4,321.3,12.4z"/>
			<path opacity="0.1244" fill="#F5F6F6" d="M321.3,12.4c27.4,0,49.7,22.2,49.7,49.7c0,27.5-22.2,49.7-49.7,49.7
				c-27.4,0-49.7-22.2-49.7-49.7C271.6,34.6,293.9,12.4,321.3,12.4z"/>
			<path opacity="0.1194" fill="#F6F6F6" d="M321.4,12.4c27.4,0,49.7,22.3,49.7,49.7c0,27.5-22.2,49.7-49.7,49.7
				c-27.4,0-49.7-22.2-49.7-49.7C271.7,34.7,293.9,12.4,321.4,12.4z"/>
			<path opacity="0.1144" fill="#F6F6F7" d="M321.4,12.5c27.4,0,49.7,22.2,49.7,49.7c0,27.5-22.2,49.7-49.7,49.7
				c-27.4,0-49.7-22.2-49.7-49.7C271.7,34.7,293.9,12.5,321.4,12.5z"/>
			<path opacity="0.1095" fill="#F6F6F7" d="M321.4,12.5c27.4,0,49.7,22.2,49.7,49.7c0,27.5-22.2,49.7-49.7,49.7
				c-27.4,0-49.7-22.2-49.7-49.7C271.7,34.7,294,12.5,321.4,12.5z"/>
			<path opacity="0.1045" fill="#F6F7F7" d="M321.4,12.5c27.4,0,49.7,22.2,49.7,49.7c0,27.5-22.2,49.7-49.7,49.7
				c-27.4,0-49.7-22.2-49.7-49.7C271.7,34.8,294,12.5,321.4,12.5z"/>
			<path opacity="9.950300e-02" fill="#F7F7F7" d="M321.5,12.5c27.4,0,49.7,22.3,49.7,49.7c0,27.5-22.2,49.7-49.7,49.7
				c-27.4,0-49.7-22.2-49.7-49.7C271.8,34.8,294,12.5,321.5,12.5z"/>
			<path opacity="9.452800e-02" fill="#F7F7F8" d="M321.5,12.6c27.4,0,49.7,22.2,49.7,49.7c0,27.5-22.2,49.7-49.7,49.7
				c-27.4,0-49.7-22.2-49.7-49.7C271.8,34.8,294,12.6,321.5,12.6z"/>
			<path opacity="8.955300e-02" fill="#F7F8F8" d="M321.5,12.6c27.4,0,49.7,22.2,49.7,49.7c0,27.5-22.2,49.7-49.7,49.7
				c-27.4,0-49.7-22.2-49.7-49.7C271.8,34.8,294.1,12.6,321.5,12.6z"/>
			<path opacity="8.457700e-02" fill="#F8F8F8" d="M321.5,12.6c27.4,0,49.7,22.2,49.7,49.7c0,27.5-22.2,49.7-49.7,49.7
				c-27.4,0-49.7-22.2-49.7-49.7C271.8,34.9,294.1,12.6,321.5,12.6z"/>
			<path opacity="7.960200e-02" fill="#F8F8F9" d="M321.5,12.7c27.4,0,49.7,22.3,49.7,49.7c0,27.5-22.2,49.7-49.7,49.7
				c-27.4,0-49.7-22.2-49.7-49.7C271.9,34.9,294.1,12.7,321.5,12.7z"/>
			<path opacity="7.462700e-02" fill="#F8F9F9" d="M321.6,12.7c27.4,0,49.7,22.2,49.7,49.7c0,27.5-22.2,49.7-49.7,49.7
				c-27.4,0-49.7-22.2-49.7-49.7C271.9,34.9,294.1,12.7,321.6,12.7z"/>
			<path opacity="6.965200e-02" fill="#F9F9F9" d="M321.6,12.7c27.4,0,49.7,22.2,49.7,49.7c0,27.5-22.2,49.7-49.7,49.7
				c-27.4,0-49.7-22.2-49.7-49.7C271.9,35,294.1,12.7,321.6,12.7z"/>
			<path opacity="6.467700e-02" fill="#F9F9F9" d="M321.6,12.7c27.4,0,49.7,22.2,49.7,49.7c0,27.5-22.2,49.7-49.7,49.7
				c-27.4,0-49.7-22.2-49.7-49.7C271.9,35,294.2,12.7,321.6,12.7z"/>
			<path opacity="5.970200e-02" fill="#F9FAFA" d="M321.6,12.8c27.4,0,49.7,22.3,49.7,49.7c0,27.5-22.2,49.7-49.7,49.7
				c-27.4,0-49.7-22.2-49.7-49.7C271.9,35,294.2,12.8,321.6,12.8z"/>
			<path opacity="5.472700e-02" fill="#FAFAFA" d="M321.7,12.8c27.4,0,49.7,22.2,49.7,49.7c0,27.5-22.2,49.7-49.7,49.7
				c-27.4,0-49.7-22.2-49.7-49.7C272,35,294.2,12.8,321.7,12.8z"/>
			<path opacity="4.975100e-02" fill="#FAFAFA" d="M321.7,12.8c27.4,0,49.7,22.3,49.7,49.7c0,27.5-22.2,49.7-49.7,49.7
				c-27.4,0-49.7-22.2-49.7-49.7C272,35.1,294.2,12.8,321.7,12.8z"/>
			<path opacity="4.477600e-02" fill="#FBFBFB" d="M321.7,12.9c27.4,0,49.7,22.3,49.7,49.7c0,27.5-22.2,49.7-49.7,49.7
				c-27.4,0-49.7-22.2-49.7-49.7C272,35.1,294.3,12.9,321.7,12.9z"/>
			<path opacity="3.980100e-02" fill="#FBFBFB" d="M321.7,12.9c27.4,0,49.7,22.3,49.7,49.7c0,27.5-22.2,49.7-49.7,49.7
				c-27.4,0-49.7-22.2-49.7-49.7C272,35.1,294.3,12.9,321.7,12.9z"/>
			<path opacity="3.482600e-02" fill="#FBFCFC" d="M321.8,12.9c27.4,0,49.7,22.2,49.7,49.7c0,27.5-22.2,49.7-49.7,49.7
				c-27.4,0-49.7-22.2-49.7-49.7C272.1,35.2,294.3,12.9,321.8,12.9z"/>
			<path opacity="2.985100e-02" fill="#FCFCFC" d="M321.8,12.9c27.4,0,49.7,22.3,49.7,49.7c0,27.5-22.2,49.7-49.7,49.7
				c-27.4,0-49.7-22.2-49.7-49.7C272.1,35.2,294.3,12.9,321.8,12.9z"/>
			<path opacity="2.487600e-02" fill="#FCFCFD" d="M321.8,13c27.4,0,49.7,22.2,49.7,49.7c0,27.5-22.2,49.7-49.7,49.7
				c-27.4,0-49.7-22.2-49.7-49.7C272.1,35.2,294.4,13,321.8,13z"/>
			<path opacity="1.990100e-02" fill="#FDFDFD" d="M321.8,13c27.4,0,49.7,22.3,49.7,49.7c0,27.5-22.2,49.7-49.7,49.7
				c-27.4,0-49.7-22.2-49.7-49.7C272.1,35.2,294.4,13,321.8,13z"/>
			<path opacity="1.492500e-02" fill="#FDFDFD" d="M321.9,13c27.4,0,49.7,22.3,49.7,49.7c0,27.5-22.2,49.7-49.7,49.7
				c-27.4,0-49.7-22.2-49.7-49.7C272.2,35.3,294.4,13,321.9,13z"/>
			<path opacity="9.950000e-03" fill="#FEFEFE" d="M321.9,13.1c27.4,0,49.7,22.3,49.7,49.7c0,27.5-22.2,49.7-49.7,49.7
				c-27.4,0-49.7-22.2-49.7-49.7C272.2,35.3,294.4,13.1,321.9,13.1z"/>
			<path opacity="4.975000e-03" fill="#FEFEFE" d="M321.9,13.1c27.4,0,49.7,22.2,49.7,49.7c0,27.5-22.2,49.7-49.7,49.7
				c-27.4,0-49.7-22.2-49.7-49.7C272.2,35.3,294.5,13.1,321.9,13.1z"/>
			<path opacity="0" fill="#FFFFFF" d="M371.6,62.8c0,27.5-22.2,49.7-49.7,49.7c-27.4,0-49.7-22.2-49.7-49.7
				c0-27.4,22.3-49.7,49.7-49.7C349.4,13.1,371.6,35.4,371.6,62.8z"/>
		</g>
	</g>
</g>
</svg>
