<?xml version="1.0" encoding="utf-8"?>
<!-- Generator: Adobe Illustrator 18.1.0, SVG Export Plug-In . SVG Version: 6.00 Build 0)  -->
<svg version="1.1" id="Layer_1" xmlns="http://www.w3.org/2000/svg" xmlns:xlink="http://www.w3.org/1999/xlink" x="0px" y="0px"
	 viewBox="0 0 256.5 50" enable-background="new 0 0 256.5 50" xml:space="preserve">
<g>
	<path fill="#000000" d="M42.1,37l-0.9,3.4h-0.5l-0.8-2.6l-0.8,2.6h-0.5L37.7,37h0.6l0.6,2.6l0.8-2.6h0.5l0.8,2.6l0.6-2.6H42.1z"/>
	<path fill="#000000" d="M53.3,37l-0.9,3.4h-0.5l-0.8-2.6l-0.8,2.6h-0.5L48.9,37h0.6l0.6,2.6l0.8-2.6h0.5l0.8,2.6l0.6-2.6H53.3z"/>
	<path fill="#000000" d="M64.5,37l-0.9,3.4h-0.5l-0.8-2.6l-0.8,2.6h-0.5L60,37h0.6l0.6,2.6l0.8-2.6h0.5l0.8,2.6l0.6-2.6H64.5z"/>
</g>
<g>
	<path fill="#000000" d="M72.3,40.5h-0.7v-0.9h0.7V40.5z"/>
	<path fill="#000000" d="M83.7,40.5v-2c0-0.2,0-0.3,0-0.4c0-0.1,0-0.2-0.1-0.3c0-0.1-0.1-0.1-0.2-0.2c-0.1,0-0.2-0.1-0.3-0.1
		c-0.1,0-0.2,0-0.4,0.1c-0.1,0.1-0.3,0.2-0.4,0.3c0,0,0,0.1,0,0.1c0,0,0,0.1,0,0.2v2.2h-0.6v-2c0-0.2,0-0.3,0-0.4
		c0-0.1,0-0.2-0.1-0.3c0-0.1-0.1-0.1-0.2-0.2c-0.1,0-0.2-0.1-0.3-0.1c-0.1,0-0.3,0-0.4,0.1s-0.3,0.2-0.4,0.3v2.5h-0.6V37h0.6v0.4
		c0.2-0.2,0.3-0.3,0.4-0.3C81,37,81.1,37,81.3,37c0.2,0,0.4,0,0.5,0.1c0.2,0.1,0.3,0.2,0.4,0.5c0.2-0.2,0.3-0.3,0.5-0.4
		s0.3-0.1,0.5-0.1c0.1,0,0.3,0,0.4,0.1c0.1,0,0.2,0.1,0.3,0.2c0.1,0.1,0.2,0.2,0.2,0.4c0,0.2,0.1,0.3,0.1,0.6v2.2H83.7z"/>
	<path fill="#000000" d="M94.3,40.5h-0.6v-0.4c-0.2,0.2-0.3,0.3-0.5,0.4c-0.2,0.1-0.3,0.1-0.5,0.1c-0.1,0-0.3,0-0.4-0.1
		c-0.1,0-0.2-0.1-0.3-0.2c-0.1-0.1-0.2-0.2-0.2-0.4c-0.1-0.2-0.1-0.4-0.1-0.6V37h0.6V39c0,0.2,0,0.3,0,0.5s0,0.2,0.1,0.3
		c0,0.1,0.1,0.2,0.2,0.2s0.2,0.1,0.3,0.1c0.1,0,0.3,0,0.4-0.1c0.2-0.1,0.3-0.2,0.4-0.3V37h0.6V40.5z"/>
	<path fill="#000000" d="M102.6,40.5c-0.2,0-0.4,0-0.6-0.1c-0.2-0.1-0.4-0.1-0.5-0.2v-0.6h0c0,0,0.1,0.1,0.2,0.1s0.2,0.1,0.3,0.1
		c0.1,0,0.2,0.1,0.3,0.1c0.1,0,0.2,0.1,0.4,0.1c0.1,0,0.2,0,0.3,0s0.2,0,0.2-0.1c0.1,0,0.1-0.1,0.2-0.2c0-0.1,0-0.1,0-0.2
		c0-0.1,0-0.2-0.1-0.3c-0.1-0.1-0.2-0.1-0.4-0.2c-0.1,0-0.2,0-0.3-0.1c-0.1,0-0.2-0.1-0.3-0.1c-0.3-0.1-0.5-0.2-0.6-0.3
		s-0.2-0.3-0.2-0.6c0-0.3,0.1-0.6,0.3-0.8c0.2-0.2,0.5-0.3,0.9-0.3c0.2,0,0.4,0,0.6,0.1c0.2,0,0.4,0.1,0.5,0.2v0.6h0
		c-0.1-0.1-0.3-0.2-0.5-0.3c-0.2-0.1-0.4-0.1-0.5-0.1c-0.2,0-0.3,0-0.5,0.1c-0.1,0.1-0.2,0.2-0.2,0.4c0,0.1,0,0.2,0.1,0.3
		c0.1,0.1,0.2,0.1,0.4,0.2c0.1,0,0.2,0,0.3,0.1s0.2,0,0.3,0.1c0.3,0.1,0.4,0.2,0.6,0.3c0.1,0.1,0.2,0.3,0.2,0.6c0,0.1,0,0.3-0.1,0.4
		s-0.1,0.2-0.3,0.3c-0.1,0.1-0.3,0.2-0.4,0.2S102.8,40.5,102.6,40.5z"/>
	<path fill="#000000" d="M112.5,40.5c-0.5,0-1-0.2-1.3-0.5s-0.5-0.7-0.5-1.3c0-0.6,0.1-1,0.4-1.3c0.3-0.3,0.7-0.5,1.1-0.5
		c0.2,0,0.4,0,0.6,0.1c0.2,0.1,0.3,0.2,0.4,0.3c0.1,0.1,0.2,0.3,0.3,0.5c0.1,0.2,0.1,0.4,0.1,0.7v0.3h-2.4c0,0.4,0.1,0.7,0.3,0.9
		c0.2,0.2,0.5,0.3,0.8,0.3c0.1,0,0.2,0,0.4,0c0.1,0,0.2-0.1,0.3-0.1c0.1,0,0.2-0.1,0.3-0.1c0.1,0,0.1-0.1,0.2-0.1h0v0.6
		c-0.1,0-0.2,0.1-0.3,0.1c-0.1,0-0.2,0.1-0.3,0.1c-0.1,0-0.2,0.1-0.3,0.1C112.7,40.5,112.6,40.5,112.5,40.5z M113.1,38.4
		c0-0.2,0-0.3-0.1-0.4c0-0.1-0.1-0.2-0.1-0.3c-0.1-0.1-0.2-0.2-0.3-0.2c-0.1,0-0.2-0.1-0.4-0.1c-0.2,0-0.3,0-0.4,0.1
		c-0.1,0-0.2,0.1-0.3,0.2c-0.1,0.1-0.2,0.2-0.2,0.3c0,0.1-0.1,0.2-0.1,0.4H113.1z"/>
	<path fill="#000000" d="M123.5,40.5h-0.6v-0.4c-0.2,0.2-0.3,0.3-0.5,0.4c-0.2,0.1-0.3,0.1-0.5,0.1c-0.1,0-0.3,0-0.4-0.1
		c-0.1,0-0.2-0.1-0.3-0.2c-0.1-0.1-0.2-0.2-0.2-0.4c-0.1-0.2-0.1-0.4-0.1-0.6V37h0.6V39c0,0.2,0,0.3,0,0.5s0,0.2,0.1,0.3
		c0,0.1,0.1,0.2,0.2,0.2s0.2,0.1,0.3,0.1c0.1,0,0.3,0,0.4-0.1c0.2-0.1,0.3-0.2,0.4-0.3V37h0.6V40.5z"/>
	<path fill="#000000" d="M134.7,40.5v-2c0-0.2,0-0.3,0-0.4c0-0.1,0-0.2-0.1-0.3c0-0.1-0.1-0.1-0.2-0.2c-0.1,0-0.2-0.1-0.3-0.1
		c-0.1,0-0.2,0-0.4,0.1c-0.1,0.1-0.3,0.2-0.4,0.3c0,0,0,0.1,0,0.1c0,0,0,0.1,0,0.2v2.2h-0.6v-2c0-0.2,0-0.3,0-0.4
		c0-0.1,0-0.2-0.1-0.3c0-0.1-0.1-0.1-0.2-0.2c-0.1,0-0.2-0.1-0.3-0.1c-0.1,0-0.3,0-0.4,0.1s-0.3,0.2-0.4,0.3v2.5h-0.6V37h0.6v0.4
		c0.2-0.2,0.3-0.3,0.4-0.3c0.1-0.1,0.3-0.1,0.5-0.1c0.2,0,0.4,0,0.5,0.1c0.2,0.1,0.3,0.2,0.4,0.5c0.2-0.2,0.3-0.3,0.5-0.4
		s0.3-0.1,0.5-0.1c0.1,0,0.3,0,0.4,0.1c0.1,0,0.2,0.1,0.3,0.2c0.1,0.1,0.2,0.2,0.2,0.4c0,0.2,0.1,0.3,0.1,0.6v2.2H134.7z"/>
	<path fill="#000000" d="M143.6,40.5c-0.2,0-0.4,0-0.6-0.1c-0.2-0.1-0.4-0.1-0.5-0.2v-0.6h0c0,0,0.1,0.1,0.2,0.1s0.2,0.1,0.3,0.1
		c0.1,0,0.2,0.1,0.3,0.1c0.1,0,0.2,0.1,0.4,0.1c0.1,0,0.2,0,0.3,0s0.2,0,0.2-0.1c0.1,0,0.1-0.1,0.2-0.2c0-0.1,0-0.1,0-0.2
		c0-0.1,0-0.2-0.1-0.3c-0.1-0.1-0.2-0.1-0.4-0.2c-0.1,0-0.2,0-0.3-0.1c-0.1,0-0.2-0.1-0.3-0.1c-0.3-0.1-0.5-0.2-0.6-0.3
		s-0.2-0.3-0.2-0.6c0-0.3,0.1-0.6,0.3-0.8c0.2-0.2,0.5-0.3,0.9-0.3c0.2,0,0.4,0,0.6,0.1c0.2,0,0.4,0.1,0.5,0.2v0.6h0
		c-0.1-0.1-0.3-0.2-0.5-0.3c-0.2-0.1-0.4-0.1-0.5-0.1c-0.2,0-0.3,0-0.5,0.1c-0.1,0.1-0.2,0.2-0.2,0.4c0,0.1,0,0.2,0.1,0.3
		c0.1,0.1,0.2,0.1,0.4,0.2c0.1,0,0.2,0,0.3,0.1s0.2,0,0.3,0.1c0.3,0.1,0.4,0.2,0.6,0.3c0.1,0.1,0.2,0.3,0.2,0.6c0,0.1,0,0.3-0.1,0.4
		s-0.1,0.2-0.3,0.3c-0.1,0.1-0.3,0.2-0.4,0.2S143.8,40.5,143.6,40.5z"/>
	<path fill="#000000" d="M154.9,38.7c0,0.6-0.1,1-0.4,1.4c-0.3,0.3-0.6,0.5-1,0.5c-0.2,0-0.3,0-0.4-0.1c-0.1,0-0.3-0.1-0.4-0.2v1.4
		H152V37h0.6v0.4c0.1-0.1,0.3-0.2,0.5-0.3s0.4-0.1,0.6-0.1c0.4,0,0.7,0.2,0.9,0.5C154.8,37.7,154.9,38.1,154.9,38.7z M154.3,38.7
		c0-0.4-0.1-0.7-0.2-0.9c-0.1-0.2-0.3-0.3-0.6-0.3c-0.2,0-0.3,0-0.5,0.1s-0.3,0.2-0.4,0.3v1.9c0.2,0.1,0.3,0.1,0.4,0.2
		c0.1,0,0.2,0,0.4,0c0.3,0,0.5-0.1,0.7-0.3C154.2,39.5,154.3,39.1,154.3,38.7z"/>
	<path fill="#000000" d="M163.9,40.1c0,0-0.1,0.1-0.2,0.1c-0.1,0.1-0.2,0.1-0.2,0.1c-0.1,0.1-0.2,0.1-0.3,0.1c-0.1,0-0.2,0-0.4,0
		c-0.1,0-0.3,0-0.4-0.1s-0.2-0.1-0.3-0.2c-0.1-0.1-0.2-0.2-0.2-0.3c-0.1-0.1-0.1-0.3-0.1-0.4c0-0.2,0-0.4,0.1-0.6s0.3-0.3,0.5-0.4
		c0.2-0.1,0.4-0.1,0.7-0.2c0.3,0,0.5-0.1,0.8-0.1v-0.1c0-0.1,0-0.2-0.1-0.3c0-0.1-0.1-0.1-0.2-0.2c-0.1,0-0.2-0.1-0.3-0.1
		c-0.1,0-0.2,0-0.3,0c-0.1,0-0.3,0-0.5,0.1c-0.2,0-0.4,0.1-0.5,0.2h0v-0.6c0.1,0,0.3-0.1,0.5-0.1s0.4-0.1,0.6-0.1
		c0.2,0,0.4,0,0.6,0.1c0.2,0,0.3,0.1,0.4,0.2c0.1,0.1,0.2,0.2,0.3,0.4s0.1,0.3,0.1,0.5v2.3h-0.6V40.1z M163.9,39.6v-0.9
		c-0.1,0-0.3,0-0.5,0c-0.2,0-0.4,0.1-0.5,0.1c-0.2,0-0.3,0.1-0.4,0.2s-0.1,0.2-0.1,0.4c0,0.2,0.1,0.3,0.2,0.4
		c0.1,0.1,0.3,0.2,0.5,0.2c0.2,0,0.3,0,0.5-0.1C163.7,39.8,163.8,39.7,163.9,39.6z"/>
	<path fill="#000000" d="M173.7,37.7L173.7,37.7c-0.1,0-0.1,0-0.2,0c0,0-0.1,0-0.2,0c-0.2,0-0.3,0-0.5,0.1c-0.2,0.1-0.3,0.2-0.4,0.3
		v2.4h-0.6V37h0.6v0.5c0.2-0.2,0.4-0.3,0.5-0.4c0.2-0.1,0.3-0.1,0.5-0.1c0.1,0,0.1,0,0.1,0c0,0,0.1,0,0.1,0V37.7z"/>
	<path fill="#000000" d="M181.7,40.5c-0.3,0-0.6-0.1-0.7-0.3c-0.2-0.2-0.3-0.5-0.3-0.8v-1.9h-0.4V37h0.4v-1h0.6v1h1.1v0.5h-1.1v1.6
		c0,0.2,0,0.3,0,0.4c0,0.1,0,0.2,0.1,0.3c0,0.1,0.1,0.1,0.2,0.2c0.1,0,0.2,0.1,0.3,0.1c0.1,0,0.2,0,0.3,0c0.1,0,0.2-0.1,0.2-0.1h0
		v0.5c-0.1,0-0.2,0.1-0.3,0.1C181.9,40.5,181.8,40.5,181.7,40.5z"/>
	<path fill="#000000" d="M192,40.5h-0.6v-1.9c0-0.2,0-0.3,0-0.4c0-0.1,0-0.2-0.1-0.3c0-0.1-0.1-0.2-0.2-0.2c-0.1,0-0.2-0.1-0.3-0.1
		c-0.1,0-0.3,0-0.4,0.1s-0.3,0.2-0.4,0.3v2.5h-0.6V37h0.6v0.4c0.2-0.2,0.3-0.3,0.5-0.4c0.2-0.1,0.3-0.1,0.5-0.1
		c0.3,0,0.6,0.1,0.8,0.3c0.2,0.2,0.3,0.5,0.3,1V40.5z"/>
	<path fill="#000000" d="M200.8,40.5c-0.5,0-1-0.2-1.3-0.5s-0.5-0.7-0.5-1.3c0-0.6,0.1-1,0.4-1.3c0.3-0.3,0.7-0.5,1.1-0.5
		c0.2,0,0.4,0,0.6,0.1c0.2,0.1,0.3,0.2,0.4,0.3c0.1,0.1,0.2,0.3,0.3,0.5c0.1,0.2,0.1,0.4,0.1,0.7v0.3h-2.4c0,0.4,0.1,0.7,0.3,0.9
		c0.2,0.2,0.5,0.3,0.8,0.3c0.1,0,0.2,0,0.4,0c0.1,0,0.2-0.1,0.3-0.1c0.1,0,0.2-0.1,0.3-0.1c0.1,0,0.1-0.1,0.2-0.1h0v0.6
		c-0.1,0-0.2,0.1-0.3,0.1c-0.1,0-0.2,0.1-0.3,0.1c-0.1,0-0.2,0.1-0.3,0.1C201.1,40.5,200.9,40.5,200.8,40.5z M201.5,38.4
		c0-0.2,0-0.3-0.1-0.4c0-0.1-0.1-0.2-0.1-0.3c-0.1-0.1-0.2-0.2-0.3-0.2c-0.1,0-0.2-0.1-0.4-0.1c-0.2,0-0.3,0-0.4,0.1
		c-0.1,0-0.2,0.1-0.3,0.2c-0.1,0.1-0.2,0.2-0.2,0.3c0,0.1-0.1,0.2-0.1,0.4H201.5z"/>
</g>
<g>
	<path fill="#000000" d="M211,37.7L211,37.7c-0.1,0-0.1,0-0.2,0c0,0-0.1,0-0.2,0c-0.2,0-0.3,0-0.5,0.1c-0.2,0.1-0.3,0.2-0.4,0.3v2.4
		h-0.6V37h0.6v0.5c0.2-0.2,0.4-0.3,0.5-0.4c0.2-0.1,0.3-0.1,0.5-0.1c0.1,0,0.1,0,0.1,0c0,0,0.1,0,0.1,0V37.7z"/>
	<path fill="#000000" d="M218,40.5h-0.7v-0.9h0.7V40.5z"/>
</g>
<g>
	<path fill="#000000" d="M226.9,40.5c-0.2,0-0.4,0-0.6-0.1c-0.2-0.1-0.4-0.2-0.5-0.3c-0.1-0.1-0.2-0.3-0.3-0.6
		c-0.1-0.2-0.1-0.5-0.1-0.8c0-0.3,0-0.6,0.1-0.8c0.1-0.2,0.2-0.4,0.3-0.6c0.1-0.1,0.3-0.3,0.5-0.3c0.2-0.1,0.4-0.1,0.6-0.1
		c0.2,0,0.4,0,0.5,0.1c0.2,0.1,0.3,0.1,0.5,0.2v0.6h0c0,0-0.1-0.1-0.2-0.1s-0.1-0.1-0.2-0.1c-0.1,0-0.2-0.1-0.3-0.1
		c-0.1,0-0.2,0-0.3,0c-0.3,0-0.5,0.1-0.7,0.3c-0.2,0.2-0.3,0.5-0.3,1c0,0.4,0.1,0.7,0.3,0.9c0.2,0.2,0.4,0.3,0.7,0.3
		c0.2,0,0.4,0,0.5-0.1c0.2-0.1,0.3-0.2,0.4-0.3h0v0.6c-0.1,0-0.1,0.1-0.2,0.1c-0.1,0-0.2,0.1-0.2,0.1c-0.1,0-0.2,0.1-0.3,0.1
		C227.1,40.5,227,40.5,226.9,40.5z"/>
	<path fill="#000000" d="M237.8,38.8c0,0.6-0.1,1-0.4,1.3c-0.3,0.3-0.6,0.5-1.1,0.5c-0.5,0-0.8-0.2-1.1-0.5
		c-0.3-0.3-0.4-0.8-0.4-1.3c0-0.6,0.1-1,0.4-1.3s0.6-0.5,1.1-0.5c0.5,0,0.8,0.2,1.1,0.5C237.7,37.7,237.8,38.2,237.8,38.8z
		 M237.2,38.8c0-0.4-0.1-0.8-0.2-1s-0.4-0.3-0.7-0.3c-0.3,0-0.5,0.1-0.7,0.3s-0.2,0.5-0.2,1c0,0.4,0.1,0.8,0.2,1
		c0.2,0.2,0.4,0.3,0.7,0.3c0.3,0,0.5-0.1,0.7-0.3C237.1,39.5,237.2,39.2,237.2,38.8z"/>
</g>
<g>
	<path fill="#000000" d="M248.8,40.5v-2c0-0.2,0-0.3,0-0.4c0-0.1,0-0.2-0.1-0.3c0-0.1-0.1-0.1-0.2-0.2c-0.1,0-0.2-0.1-0.3-0.1
		c-0.1,0-0.2,0-0.4,0.1s-0.3,0.2-0.4,0.3c0,0,0,0.1,0,0.1c0,0,0,0.1,0,0.2v2.2h-0.6v-2c0-0.2,0-0.3,0-0.4c0-0.1,0-0.2-0.1-0.3
		c0-0.1-0.1-0.1-0.2-0.2c-0.1,0-0.2-0.1-0.3-0.1c-0.1,0-0.3,0-0.4,0.1c-0.1,0.1-0.3,0.2-0.4,0.3v2.5h-0.6V37h0.6v0.4
		c0.2-0.2,0.3-0.3,0.4-0.3c0.1-0.1,0.3-0.1,0.5-0.1c0.2,0,0.4,0,0.5,0.1c0.2,0.1,0.3,0.2,0.4,0.5c0.2-0.2,0.3-0.3,0.5-0.4
		s0.3-0.1,0.5-0.1c0.1,0,0.3,0,0.4,0.1c0.1,0,0.2,0.1,0.3,0.2c0.1,0.1,0.2,0.2,0.2,0.4s0.1,0.3,0.1,0.6v2.2H248.8z"/>
</g>
<polyline fill="#000000" points="249.7,31.9 5.4,31.9 5.4,30.1 249.7,30.1 249.7,31.9 "/>
<g>
	<path fill="#000000" d="M158.1,27.4V7.8h5.3c1.5,0,2.7,0.1,3.6,0.4c0.8,0.3,1.5,0.7,2.1,1.3c0.7,0.8,1,2,1,3.4
		c0,2.1-0.7,3.7-2.1,4.9c-1.4,1.2-3.4,1.8-5.9,1.8h-1.2v7.8H158.1z M160.8,17.5h1.1c1.7,0,2.9-0.4,3.8-1.1c0.9-0.8,1.4-1.8,1.4-3.2
		c0-1.2-0.4-2-1.1-2.5c-0.7-0.5-1.9-0.8-3.5-0.8h-1.7V17.5z"/>
	<path fill="#000000" d="M180.6,25.6c-1.6,1.4-3.1,2.2-4.5,2.2c-1.2,0-2.2-0.4-3-1.1c-0.8-0.7-1.2-1.7-1.2-2.8c0-1.6,0.7-2.8,2-3.6
		c1.3-0.8,3.2-1.3,5.7-1.3h0.6v-1.7c0-1.7-0.9-2.5-2.6-2.5c-1.4,0-2.8,0.4-4.4,1.3v-2.2c1.8-0.7,3.4-1.1,5-1.1
		c1.6,0,2.8,0.4,3.5,1.1c0.8,0.7,1.1,1.9,1.1,3.4v6.5c0,1.5,0.5,2.2,1.4,2.2c0.1,0,0.3,0,0.5-0.1l0.2,1.4c-0.6,0.3-1.2,0.4-2,0.4
		C181.7,27.7,180.9,27,180.6,25.6z M180.2,24.2v-3.7l-0.8,0c-1.5,0-2.6,0.3-3.5,0.8c-0.9,0.5-1.3,1.3-1.3,2.2c0,0.6,0.2,1.2,0.7,1.6
		c0.4,0.4,1,0.7,1.6,0.7C177.9,25.6,179,25.1,180.2,24.2z"/>
	<path fill="#000000" d="M188.2,27.4V13h2.6v2.7c1-2,2.5-3,4.5-3c0.3,0,0.5,0,0.8,0.1v2.5c-0.5-0.2-0.8-0.2-1.2-0.2
		c-1.7,0-3,1-4.2,2.9v9.5H188.2z"/>
	<path fill="#000000" d="M205.7,27.4c-0.8,0.2-1.5,0.3-2.1,0.3c-1.3,0-2.4-0.4-3.1-1.1s-1.1-1.8-1.1-3.2V15h-1.8v-2h1.8v-2.6
		l2.6-0.3V13h3.8v2H202v8c0,1.9,0.8,2.8,2.4,2.8c0.3,0,0.8-0.1,1.3-0.2V27.4z"/>
	<path fill="#000000" d="M209.5,27.4V13h2.6v2.7c1.4-2,3.1-3,5.1-3c1.3,0,2.3,0.4,3,1.2s1.1,1.9,1.1,3.2v10.3h-2.6v-9.5
		c0-1.1-0.2-1.8-0.5-2.3c-0.3-0.5-0.8-0.7-1.6-0.7c-1.6,0-3.1,1-4.5,3.1v9.3H209.5z"/>
	<path fill="#000000" d="M236.9,27c-1.8,0.5-3.3,0.8-4.5,0.8c-2.1,0-3.9-0.7-5.2-2.1c-1.3-1.4-2-3.2-2-5.5c0-2.2,0.6-4,1.8-5.4
		s2.7-2.1,4.5-2.1c1.7,0,3.1,0.6,4,1.9s1.4,3,1.4,5.3l0,0.8h-9.1c0.4,3.4,2.1,5.1,5,5.1c1.1,0,2.4-0.3,4-0.9V27z M228,18.7h6.4
		c0-2.7-1-4-3-4C229.3,14.7,228.2,16,228,18.7z"/>
</g>
<g>
	<path fill="#000000" d="M241.5,27.4V13h2.6v2.7c1-2,2.5-3,4.5-3c0.3,0,0.5,0,0.8,0.1v2.5c-0.5-0.2-0.8-0.2-1.2-0.2
		c-1.7,0-3,1-4.2,2.9v9.5H241.5z"/>
</g>
<g>
	<path fill="#000000" d="M64.8,8.3l-0.2,0.8c-0.2,0-0.6,0-0.9,0.1S63,9.3,62.8,9.4c-0.3,0.1-0.6,0.3-0.7,0.5
		c-0.1,0.2-0.3,0.5-0.3,0.8l-3.1,13.2c0,0.1,0,0.1,0,0.2c0,0.1,0,0.2,0,0.2c0,0.2,0,0.3,0.1,0.5c0.1,0.1,0.2,0.3,0.4,0.4
		c0.1,0.1,0.4,0.2,0.8,0.2c0.4,0.1,0.7,0.1,0.9,0.1l-0.2,0.8h-8l0.2-0.8c0.3,0,0.7,0,1.1-0.1c0.5,0,0.8-0.1,1-0.2
		c0.3-0.2,0.5-0.3,0.7-0.6s0.3-0.5,0.4-0.8l3.1-13.5h-0.1L49.2,26h-0.6l-2.3-16h-0.1l-2.6,11.1c-0.1,0.4-0.2,0.9-0.3,1.3
		c-0.1,0.4-0.1,0.8-0.1,1c0,0.3,0,0.5,0.1,0.7c0.1,0.2,0.1,0.4,0.3,0.5c0.2,0.2,0.5,0.3,1,0.5c0.5,0.1,0.9,0.2,1.2,0.3l-0.2,0.8
		h-7.3l0.2-0.8c0.4,0,0.8-0.1,1.2-0.2c0.4-0.1,0.8-0.2,1.1-0.4c0.3-0.2,0.6-0.6,0.9-1.1s0.5-1.3,0.7-2.4l2.2-9.4
		c0-0.2,0.1-0.4,0.1-0.5c0-0.2,0-0.3,0-0.5c0-0.3,0-0.5-0.1-0.7c-0.1-0.2-0.2-0.3-0.3-0.5c-0.2-0.2-0.5-0.4-0.9-0.5s-0.7-0.2-1-0.2
		l0.2-0.8h6.1l2,13.6l7-11.4c0.3-0.4,0.5-0.9,0.7-1.3c0.2-0.5,0.3-0.8,0.4-0.9H64.8z"/>
	<path fill="#000000" d="M72.4,24.5L72.4,24.5c-0.5,0.3-0.8,0.6-1.2,0.9c-0.4,0.3-0.7,0.5-1.1,0.7c-0.4,0.2-0.8,0.4-1.1,0.4
		c-0.3,0.1-0.8,0.1-1.3,0.1c-0.8,0-1.4-0.2-1.9-0.7c-0.5-0.5-0.7-1.1-0.7-1.9c0-0.2,0-0.4,0.1-0.7c0-0.3,0.1-0.7,0.2-1.2l1-4
		c0.1-0.4,0.2-0.7,0.2-1s0.1-0.6,0.1-0.8c0-0.5-0.1-0.8-0.2-0.9c-0.2-0.2-0.5-0.2-1-0.2c-0.2,0-0.4,0-0.7,0.1
		c-0.3,0.1-0.5,0.1-0.7,0.2l0.2-0.8c0.7-0.3,1.2-0.5,1.8-0.7c0.5-0.2,0.9-0.2,1.2-0.2c0.7,0,1.2,0.2,1.5,0.5
		c0.3,0.3,0.5,0.8,0.5,1.4c0,0.2,0,0.4-0.1,0.6c0,0.3-0.1,0.5-0.2,0.8L68,21.6c-0.1,0.4-0.2,0.7-0.2,1c-0.1,0.3-0.1,0.5-0.1,0.7
		c0,0.6,0.1,1,0.4,1.4c0.2,0.3,0.6,0.5,1.2,0.5c0.5,0,1.1-0.1,1.7-0.4c0.6-0.3,1.1-0.7,1.7-1.3l2.2-9.6l2.2-0.2l0.2,0.2l-1.9,8.2
		c-0.1,0.3-0.2,0.7-0.2,1.1C75,23.5,75,23.7,75,23.9c0,0.5,0.1,0.8,0.3,1c0.2,0.2,0.6,0.3,1,0.3c0.2,0,0.4,0,0.7-0.1
		s0.5-0.1,0.7-0.2l-0.2,0.8c-0.7,0.3-1.3,0.5-1.8,0.7c-0.5,0.1-0.9,0.2-1.3,0.2c-0.7,0-1.2-0.2-1.5-0.6S72.4,25.1,72.4,24.5z"/>
	<path fill="#000000" d="M83,26.7c-1.3,0-2.3-0.2-3.1-0.7c-0.8-0.4-1.3-1-1.3-1.8c0-0.3,0.1-0.7,0.4-1c0.2-0.3,0.5-0.4,0.9-0.4
		c0.3,0,0.6,0.1,0.8,0.2c0.2,0.2,0.4,0.3,0.5,0.6c0.1,0.2,0.2,0.5,0.3,0.8c0.1,0.3,0.2,0.6,0.2,0.8c0.1,0.1,0.3,0.3,0.5,0.4
		s0.5,0.2,1,0.2c0.9,0,1.6-0.2,2.1-0.7c0.5-0.5,0.7-1.1,0.7-1.9c0-0.6-0.2-1-0.7-1.4c-0.4-0.3-1.1-0.7-2-1c-0.3-0.1-0.7-0.3-1.1-0.5
		s-0.8-0.4-1-0.7c-0.3-0.3-0.6-0.6-0.7-1c-0.2-0.4-0.3-0.8-0.3-1.3c0-1.1,0.5-2,1.5-2.8s2.2-1.2,3.6-1.2c0.3,0,0.7,0,1.1,0.1
		c0.4,0,0.8,0.1,1.3,0.3c0.4,0.1,0.7,0.3,1,0.6s0.4,0.6,0.4,1c0,0.3-0.1,0.7-0.4,0.9c-0.2,0.3-0.5,0.4-0.9,0.4
		c-0.3,0-0.6-0.1-0.8-0.2c-0.2-0.1-0.4-0.3-0.5-0.5c-0.1-0.2-0.2-0.5-0.3-0.7s-0.2-0.5-0.3-0.8c-0.2-0.1-0.3-0.1-0.4-0.1
		c-0.1,0-0.3,0-0.5,0c-0.8,0-1.5,0.2-1.9,0.7c-0.4,0.4-0.6,1-0.6,1.6c0,0.6,0.2,1,0.6,1.3c0.4,0.3,1,0.6,1.9,0.9
		c1.2,0.4,2,0.9,2.5,1.4c0.5,0.5,0.8,1.2,0.8,2c0,1.3-0.5,2.3-1.5,3.2C85.8,26.3,84.5,26.7,83,26.7z"/>
	<path fill="#000000" d="M101.5,16.1c0,0.9-0.3,1.7-0.8,2.3c-0.6,0.6-1.4,1.2-2.5,1.5c-0.8,0.3-1.6,0.5-2.4,0.7
		c-0.8,0.2-1.7,0.3-2.7,0.4c0,1.3,0.2,2.4,0.7,3.1c0.5,0.7,1.2,1.1,2.2,1.1c0.8,0,1.6-0.2,2.2-0.6c0.6-0.4,1.3-1.1,1.9-1.9l0.7,0.5
		c-0.7,1-1.5,1.9-2.5,2.5c-1,0.6-2.1,0.9-3.2,0.9c-1.5,0-2.7-0.4-3.4-1.3c-0.8-0.8-1.2-2-1.2-3.6c0-1.1,0.2-2.1,0.5-3.1
		c0.3-1,0.8-1.9,1.5-2.7c0.6-0.8,1.4-1.4,2.3-1.9s1.9-0.7,3-0.7c1.2,0,2.1,0.2,2.7,0.7S101.5,15.3,101.5,16.1z M99.1,15.8
		c0-0.3,0-0.6-0.1-0.8c-0.1-0.2-0.2-0.3-0.4-0.4c-0.2-0.1-0.3-0.2-0.5-0.2c-0.2,0-0.3,0-0.5,0c-1,0-2,0.6-2.8,1.7
		c-0.9,1.1-1.4,2.5-1.6,4.2c0.6-0.1,1.3-0.2,2-0.4c0.7-0.2,1.4-0.4,1.9-0.6c0.7-0.4,1.2-0.8,1.6-1.4C98.9,17.3,99.1,16.6,99.1,15.8z
		"/>
	<path fill="#000000" d="M111,24.5L111,24.5c-0.5,0.3-0.8,0.6-1.2,0.9c-0.4,0.3-0.7,0.5-1.1,0.7c-0.4,0.2-0.8,0.4-1.1,0.4
		c-0.3,0.1-0.8,0.1-1.3,0.1c-0.8,0-1.4-0.2-1.9-0.7c-0.5-0.5-0.7-1.1-0.7-1.9c0-0.2,0-0.4,0.1-0.7c0-0.3,0.1-0.7,0.2-1.2l1-4
		c0.1-0.4,0.2-0.7,0.2-1s0.1-0.6,0.1-0.8c0-0.5-0.1-0.8-0.2-0.9c-0.2-0.2-0.5-0.2-1-0.2c-0.2,0-0.4,0-0.7,0.1
		c-0.3,0.1-0.5,0.1-0.7,0.2l0.2-0.8c0.7-0.3,1.2-0.5,1.8-0.7c0.5-0.2,0.9-0.2,1.2-0.2c0.7,0,1.2,0.2,1.5,0.5
		c0.3,0.3,0.5,0.8,0.5,1.4c0,0.2,0,0.4-0.1,0.6c0,0.3-0.1,0.5-0.2,0.8l-1.1,4.7c-0.1,0.4-0.2,0.7-0.2,1c-0.1,0.3-0.1,0.5-0.1,0.7
		c0,0.6,0.1,1,0.4,1.4c0.2,0.3,0.6,0.5,1.2,0.5c0.5,0,1.1-0.1,1.7-0.4c0.6-0.3,1.1-0.7,1.7-1.3l2.2-9.6l2.2-0.2l0.2,0.2l-1.9,8.2
		c-0.1,0.3-0.2,0.7-0.2,1.1c-0.1,0.4-0.1,0.6-0.1,0.7c0,0.5,0.1,0.8,0.3,1c0.2,0.2,0.6,0.3,1,0.3c0.2,0,0.4,0,0.7-0.1
		s0.5-0.1,0.7-0.2l-0.2,0.8c-0.7,0.3-1.3,0.5-1.8,0.7c-0.5,0.1-0.9,0.2-1.3,0.2c-0.7,0-1.2-0.2-1.5-0.6S111,25.1,111,24.5z"/>
	<path fill="#000000" d="M139.2,24.9l-0.2,0.8c-0.8,0.3-1.4,0.5-1.9,0.7s-0.9,0.2-1.2,0.2c-0.7,0-1.2-0.2-1.5-0.5
		c-0.3-0.4-0.5-0.8-0.5-1.3c0-0.2,0-0.4,0.1-0.6c0-0.2,0.1-0.5,0.2-0.8l1.3-4.8c0.1-0.4,0.2-0.7,0.2-1c0.1-0.3,0.1-0.5,0.1-0.7
		c0-0.6-0.1-1-0.4-1.3c-0.2-0.3-0.6-0.5-1.2-0.5c-0.6,0-1.1,0.1-1.7,0.4s-1.2,0.8-1.8,1.5l-2.2,9.4H126l2-8.5c0-0.2,0.1-0.4,0.1-0.6
		c0-0.2,0.1-0.4,0.1-0.5c0-0.6-0.1-1-0.4-1.3c-0.3-0.3-0.7-0.5-1.2-0.5c-0.5,0-1,0.1-1.6,0.4c-0.6,0.2-1.3,0.8-2,1.6l-2.2,9.4h-2.4
		l1.9-8.3c0.1-0.3,0.1-0.6,0.2-1c0.1-0.3,0.1-0.6,0.1-0.9c0-0.5-0.1-0.8-0.2-1c-0.2-0.2-0.5-0.2-0.9-0.2c-0.2,0-0.4,0-0.7,0.1
		c-0.3,0.1-0.5,0.1-0.7,0.2l0.2-0.8c0.7-0.3,1.3-0.5,1.8-0.7c0.5-0.1,1-0.2,1.3-0.2c0.7,0,1.2,0.2,1.5,0.6c0.3,0.4,0.4,0.9,0.5,1.5
		h0.1c1-0.8,1.8-1.4,2.5-1.7c0.6-0.3,1.4-0.5,2.3-0.5c0.8,0,1.4,0.2,1.8,0.7c0.5,0.4,0.7,1,0.8,1.7h0.1c0.9-0.8,1.7-1.3,2.4-1.7
		c0.7-0.4,1.5-0.6,2.5-0.6c0.8,0,1.4,0.2,1.9,0.7c0.4,0.5,0.7,1.1,0.7,1.9c0,0.2,0,0.4-0.1,0.8s-0.1,0.8-0.2,1.2l-1.1,4.1
		c-0.1,0.3-0.1,0.6-0.2,0.9c-0.1,0.4-0.1,0.6-0.1,0.8c0,0.5,0.1,0.8,0.3,1s0.5,0.3,1,0.3c0.2,0,0.4,0,0.7-0.1S139,25,139.2,24.9z"/>
</g>
<g>
	<path fill="#000000" d="M144.5,26.7c-1.3,0-2.3-0.2-3.1-0.7c-0.8-0.4-1.3-1-1.3-1.8c0-0.3,0.1-0.7,0.4-1c0.2-0.3,0.5-0.4,0.9-0.4
		c0.3,0,0.6,0.1,0.8,0.2c0.2,0.2,0.4,0.3,0.5,0.6c0.1,0.2,0.2,0.5,0.3,0.8c0.1,0.3,0.2,0.6,0.2,0.8c0.1,0.1,0.3,0.3,0.5,0.4
		s0.5,0.2,1,0.2c0.9,0,1.6-0.2,2.1-0.7c0.5-0.5,0.7-1.1,0.7-1.9c0-0.6-0.2-1-0.7-1.4c-0.4-0.3-1.1-0.7-2-1c-0.3-0.1-0.7-0.3-1.1-0.5
		s-0.8-0.4-1-0.7c-0.3-0.3-0.6-0.6-0.7-1c-0.2-0.4-0.3-0.8-0.3-1.3c0-1.1,0.5-2,1.5-2.8s2.2-1.2,3.6-1.2c0.3,0,0.7,0,1.1,0.1
		c0.4,0,0.8,0.1,1.3,0.3c0.4,0.1,0.7,0.3,1,0.6s0.4,0.6,0.4,1c0,0.3-0.1,0.7-0.4,0.9c-0.2,0.3-0.5,0.4-0.9,0.4
		c-0.3,0-0.6-0.1-0.8-0.2c-0.2-0.1-0.4-0.3-0.5-0.5c-0.1-0.2-0.2-0.5-0.3-0.7s-0.2-0.5-0.3-0.8c-0.2-0.1-0.3-0.1-0.4-0.1
		c-0.1,0-0.3,0-0.5,0c-0.8,0-1.5,0.2-1.9,0.7c-0.4,0.4-0.6,1-0.6,1.6c0,0.6,0.2,1,0.6,1.3c0.4,0.3,1,0.6,1.9,0.9
		c1.2,0.4,2,0.9,2.5,1.4c0.5,0.5,0.8,1.2,0.8,2c0,1.3-0.5,2.3-1.5,3.2C147.3,26.3,146,26.7,144.5,26.7z"/>
</g>
</svg>
