<?xml version="1.0" encoding="utf-8"?>
<!-- Generator: Adobe Illustrator 18.1.1, SVG Export Plug-In . SVG Version: 6.00 Build 0)  -->
<!DOCTYPE svg PUBLIC "-//W3C//DTD SVG 1.1//EN" "http://www.w3.org/Graphics/SVG/1.1/DTD/svg11.dtd">
<svg version="1.1" id="Layer_1" xmlns="http://www.w3.org/2000/svg" xmlns:xlink="http://www.w3.org/1999/xlink" x="0px" y="0px"
	 viewBox="390 312 20 100" enable-background="new 390 312 20 100" xml:space="preserve">
<g enable-background="new    ">
	<path fill="#FFFFFF" d="M395.5,331.2v-18.5h1.3l3.7,3l3.1-3l0.9,1l-4,3.8l-3.7-3v2.8l4.1,3.4l-0.8,1l-3.4-2.7v12.3H395.5z"/>
</g>
<g enable-background="new    ">
	<path fill="#76202C" d="M395.7,351.2v-18.5h1.3l7.2,5.9l-0.7,0.9l-6.5-5.2v2.9l7.2,5.9l-0.7,0.9l-6.5-5.2v12.3H395.7z"/>
</g>
<g enable-background="new    ">
	<path fill="#231F20" d="M399.3,371.2v-12.6l-5-5.2l0.9-0.9l4.1,4.2v-4h1.3l0,4l4.1-4.2l1,0.9l-5,5.2v12.6H399.3z"/>
</g>
<g enable-background="new    ">
	<path fill="#FFFFFF" d="M397.4,391.2v-18.5h1.3l3.9,3.2l-0.7,0.9l-3.2-2.5v2.9l3.9,3.2l-0.7,1l-3.2-2.6v12.3H397.4z"/>
</g>
<g enable-background="new    ">
	<path fill="#84A726" d="M396.4,411.2v-18.5h1.3l5.9,3.9l0,1.6l-5.5,3.7l5.5,3.7v1.6l-5.8,3.9H396.4z M397.7,400.6l4.7-3.1l-4.7-3.2
		V400.6z M397.7,409.7l4.7-3.2l-4.7-3.1V409.7z"/>
</g>
</svg>
