<?xml version="1.0" encoding="utf-8"?>
<!-- Generator: Adobe Illustrator 18.1.0, SVG Export Plug-In . SVG Version: 6.00 Build 0)  -->
<svg version="1.1" id="Lager_1" xmlns="http://www.w3.org/2000/svg" xmlns:xlink="http://www.w3.org/1999/xlink" x="0px" y="0px"
	 viewBox="0 0 938.5 485.9" enable-background="new 0 0 938.5 485.9" xml:space="preserve">
<g>
	<g>
		<g>
			<path fill="#FFFFFF" d="M558.5,63.4v11.8h-19.9v54.6h-14V75.2h-19.9V63.4H558.5z"/>
			<path fill="#FFFFFF" d="M599.4,81c2.5,1.1,4.5,2.7,6.1,4.8c1.3,1.8,2.2,3.7,2.5,5.7c0.3,1.9,0.4,5.1,0.4,9.5v28.8h-13.1V99.9
				c0-2.6-0.5-4.8-1.3-6.4c-1.2-2.3-3.4-3.4-6.6-3.4c-3.4,0-5.9,1.1-7.7,3.4c-1.7,2.3-2.6,5.5-2.6,9.7v26.6h-12.8V63.6h12.8v23.4
				c1.9-2.9,4-4.8,6.4-6c2.4-1.1,5-1.7,7.7-1.7C594.2,79.4,596.9,79.9,599.4,81z"/>
			<path fill="#FFFFFF" d="M651.2,81.7c3.4,1.5,6.3,4,8.5,7.3c2,2.9,3.3,6.3,3.9,10.1c0.3,2.3,0.5,5.5,0.4,9.7h-35.7
				c0.2,4.9,1.9,8.4,5.1,10.4c2,1.2,4.3,1.8,7.1,1.8c2.9,0,5.3-0.8,7.1-2.3c1-0.8,1.9-1.9,2.6-3.4h13.1c-0.3,2.9-1.9,5.9-4.8,8.9
				c-4.4,4.8-10.5,7.2-18.5,7.2c-6.5,0-12.3-2-17.3-6c-5-4-7.5-10.6-7.5-19.6c0-8.5,2.3-15,6.8-19.6c4.5-4.5,10.4-6.8,17.5-6.8
				C644,79.4,647.8,80.2,651.2,81.7z M632,92.8c-1.8,1.9-3,4.4-3.4,7.6h22.1c-0.2-3.4-1.4-6-3.4-7.8c-2-1.8-4.6-2.6-7.6-2.6
				C636.4,90,633.8,90.9,632,92.8z"/>
		</g>
		<g>
			<path fill="#FFFFFF" d="M523,206.2c0.4,3,1.3,5.3,2.5,6.8c2.3,2.7,6.2,4.1,11.8,4.1c3.3,0,6.1-0.4,8.1-1.1c4-1.4,5.9-3.9,5.9-7.7
				c0-2.2-1-3.9-2.9-5.1c-1.9-1.2-5-2.2-9.2-3.1l-7.2-1.6c-7.1-1.6-11.9-3.3-14.6-5.1c-4.5-3.1-6.7-7.9-6.7-14.4
				c0-5.9,2.2-10.9,6.6-14.8c4.4-3.9,10.8-5.9,19.3-5.9c7.1,0,13.1,1.9,18.1,5.6c5,3.7,7.6,9.1,7.9,16.1h-13.3c-0.2-4-2-6.8-5.4-8.5
				c-2.2-1.1-5-1.7-8.3-1.7c-3.7,0-6.6,0.7-8.8,2.2c-2.2,1.4-3.3,3.5-3.3,6c0,2.4,1.1,4.1,3.2,5.3c1.4,0.8,4.3,1.7,8.8,2.7l11.6,2.7
				c5.1,1.2,8.9,2.8,11.5,4.8c4,3.1,5.9,7.6,5.9,13.6c0,6.1-2.3,11.1-7,15.1c-4.7,4-11.3,6-19.9,6c-8.7,0-15.6-2-20.6-5.9
				c-5-3.9-7.5-9.4-7.5-16.3H523z"/>
			<path fill="#FFFFFF" d="M595.9,177.6h13l7.5,35.3l7.7-35.3h13.4l-14.2,49.1H610l-7.7-35.7l-7.8,35.7h-13.3l-13.8-49.1h13.8
				l7.7,35.2L595.9,177.6z"/>
			<path fill="#FFFFFF" d="M675.1,178.6c3.4,1.5,6.2,4,8.5,7.3c2,2.9,3.3,6.3,3.9,10.1c0.3,2.3,0.5,5.5,0.4,9.7h-35.7
				c0.2,4.9,1.9,8.4,5.1,10.4c2,1.2,4.3,1.8,7.1,1.8c2.9,0,5.3-0.8,7.1-2.2c1-0.8,1.9-1.9,2.6-3.4h13.1c-0.3,2.9-1.9,5.9-4.8,8.9
				c-4.4,4.8-10.5,7.2-18.5,7.2c-6.5,0-12.3-2-17.3-6c-5-4-7.5-10.6-7.5-19.6c0-8.5,2.3-15,6.8-19.6c4.5-4.5,10.4-6.8,17.5-6.8
				C667.8,176.3,671.6,177.1,675.1,178.6z M655.9,189.7c-1.8,1.9-3,4.4-3.4,7.6h22.1c-0.2-3.4-1.4-6-3.4-7.8c-2-1.8-4.6-2.6-7.6-2.6
				C660.2,186.9,657.7,187.9,655.9,189.7z"/>
			<path fill="#FFFFFF" d="M723.2,178.4c2.3,1.3,4.2,3.1,5.6,5.4v-23.4h13v66.3h-12.5v-6.8c-1.8,2.9-3.9,5-6.3,6.3
				c-2.3,1.3-5.3,2-8.7,2c-5.7,0-10.6-2.3-14.5-7c-3.9-4.6-5.9-10.6-5.9-17.8c0-8.4,1.9-15,5.8-19.8c3.9-4.8,9-7.2,15.5-7.2
				C718.3,176.5,720.9,177.1,723.2,178.4z M726.4,213.4c1.9-2.7,2.8-6.2,2.8-10.5c0-6-1.5-10.3-4.5-12.9c-1.9-1.6-4-2.3-6.5-2.3
				c-3.8,0-6.5,1.4-8.3,4.3c-1.8,2.8-2.6,6.4-2.6,10.6c0,4.5,0.9,8.2,2.7,10.9c1.8,2.7,4.5,4.1,8.1,4.1
				C721.7,217.4,724.5,216.1,726.4,213.4z"/>
			<path fill="#FFFFFF" d="M764.1,171.8h-13V160h13V171.8z M751.1,177.6h13v49.1h-13V177.6z"/>
			<path fill="#FFFFFF" d="M784.5,211c0.3,2.3,0.9,3.9,1.8,4.9c1.6,1.7,4.6,2.6,8.9,2.6c2.5,0,4.5-0.4,6-1.1
				c1.5-0.8,2.2-1.9,2.2-3.4c0-1.4-0.6-2.5-1.8-3.3c-1.2-0.8-5.7-2-13.4-3.9c-5.6-1.4-9.5-3.1-11.8-5.2c-2.3-2-3.4-5-3.4-8.8
				c0-4.5,1.8-8.4,5.3-11.7c3.6-3.3,8.6-4.9,15-4.9c6.1,0,11.1,1.2,15,3.7c3.9,2.4,6.1,6.7,6.7,12.7h-12.8c-0.2-1.7-0.6-3-1.4-3.9
				c-1.4-1.7-3.8-2.6-7.2-2.6c-2.8,0-4.8,0.4-6,1.3c-1.2,0.9-1.8,1.9-1.8,3.1c0,1.5,0.6,2.5,1.9,3.2c1.3,0.7,5.7,1.9,13.4,3.6
				c5.1,1.2,8.9,3,11.5,5.4c2.5,2.5,3.8,5.5,3.8,9.2c0,4.9-1.8,8.8-5.4,11.9c-3.6,3.1-9.2,4.6-16.8,4.6c-7.7,0-13.4-1.6-17.1-4.9
				c-3.7-3.3-5.5-7.4-5.5-12.4H784.5z"/>
			<path fill="#FFFFFF" d="M858.4,177.9c2.5,1,4.5,2.7,6.1,4.8c1.3,1.8,2.2,3.7,2.5,5.7c0.3,1.9,0.4,5.1,0.4,9.5v28.8h-13.1v-29.9
				c0-2.6-0.5-4.8-1.3-6.4c-1.2-2.3-3.4-3.4-6.6-3.4c-3.4,0-5.9,1.1-7.7,3.4c-1.7,2.3-2.6,5.5-2.6,9.7v26.6h-12.8v-66.1h12.8V184
				c1.9-2.8,4-4.8,6.4-6c2.4-1.1,5-1.7,7.7-1.7C853.2,176.3,855.9,176.9,858.4,177.9z"/>
		</g>
		<path fill="#FFFFFF" d="M557.1,354.4h20v66.4h-12.9v-44.9c0-1.3,0-3.1,0-5.4c0-2.3,0-4.1,0-5.4l-12.6,55.7h-13.5l-12.5-55.7
			c0,1.3,0,3.1,0,5.4c0,2.3,0,4.1,0,5.4v44.9h-12.9v-66.4H533l12.1,52.2L557.1,354.4z"/>
		<path fill="#FFFFFF" d="M600.4,371.7v29.6c0,2.8,0.3,4.9,1,6.3c1.2,2.5,3.5,3.7,6.9,3.7c4.4,0,7.3-1.8,9-5.3
			c0.8-1.9,1.3-4.5,1.3-7.6v-26.7h13v49.1H619v-6.9c-0.1,0.1-0.4,0.6-0.9,1.4c-0.5,0.7-1,1.4-1.7,2c-2,1.8-3.9,3-5.8,3.7
			c-1.9,0.7-4.1,1-6.6,1c-7.2,0-12.1-2.6-14.6-7.8c-1.4-2.9-2.1-7.1-2.1-12.7v-29.6H600.4z"/>
		<path fill="#FFFFFF" d="M651.7,405.1c0.3,2.3,0.9,3.9,1.8,4.9c1.6,1.7,4.6,2.6,8.9,2.6c2.5,0,4.5-0.4,6-1.1
			c1.5-0.8,2.2-1.9,2.2-3.4c0-1.4-0.6-2.5-1.8-3.3c-1.2-0.8-5.7-2-13.4-3.9c-5.6-1.4-9.5-3.1-11.8-5.2c-2.3-2-3.4-5-3.4-8.8
			c0-4.5,1.8-8.4,5.3-11.7c3.6-3.3,8.6-4.9,15-4.9c6.1,0,11.1,1.2,15,3.7c3.9,2.4,6.1,6.7,6.7,12.7h-12.8c-0.2-1.6-0.6-3-1.4-3.9
			c-1.4-1.7-3.8-2.6-7.2-2.6c-2.8,0-4.8,0.4-6,1.3c-1.2,0.9-1.8,1.9-1.8,3.1c0,1.5,0.6,2.5,1.9,3.2c1.3,0.7,5.7,1.9,13.4,3.6
			c5.1,1.2,8.9,3,11.5,5.4c2.5,2.5,3.8,5.5,3.8,9.2c0,4.9-1.8,8.8-5.4,11.9c-3.6,3.1-9.2,4.6-16.8,4.6c-7.7,0-13.4-1.6-17.1-4.9
			c-3.7-3.3-5.5-7.4-5.5-12.4H651.7z"/>
		<path fill="#FFFFFF" d="M725.2,372.7c3.4,1.5,6.2,4,8.5,7.3c2,2.9,3.3,6.3,3.9,10.1c0.3,2.3,0.5,5.5,0.4,9.7h-35.7
			c0.2,4.9,1.9,8.4,5.1,10.4c2,1.2,4.3,1.8,7.1,1.8c2.9,0,5.3-0.8,7.1-2.3c1-0.8,1.9-1.9,2.6-3.4h13.1c-0.3,2.9-1.9,5.9-4.8,8.9
			c-4.4,4.8-10.5,7.2-18.5,7.2c-6.5,0-12.3-2-17.3-6c-5-4-7.5-10.6-7.5-19.6c0-8.5,2.3-15,6.8-19.6c4.5-4.5,10.4-6.8,17.5-6.8
			C717.9,370.4,721.8,371.2,725.2,372.7z M706,383.8c-1.8,1.9-3,4.4-3.4,7.6h22.1c-0.2-3.4-1.4-6-3.4-7.8c-2-1.8-4.6-2.6-7.6-2.6
			C710.4,381,707.8,381.9,706,383.8z"/>
		<path fill="#FFFFFF" d="M758.8,371.7v29.6c0,2.8,0.3,4.9,1,6.3c1.2,2.5,3.4,3.7,6.9,3.7c4.4,0,7.3-1.8,9-5.3
			c0.8-1.9,1.3-4.5,1.3-7.6v-26.7h13v49.1h-12.5v-6.9c-0.1,0.1-0.4,0.6-0.9,1.4c-0.5,0.7-1.1,1.4-1.7,2c-2,1.8-3.9,3-5.8,3.7
			c-1.9,0.7-4.1,1-6.6,1c-7.2,0-12.1-2.6-14.6-7.8c-1.4-2.9-2.1-7.1-2.1-12.7v-29.6H758.8z"/>
		<path fill="#FFFFFF" d="M860.5,371.9c2.1,0.8,4,2.3,5.7,4.4c1.4,1.7,2.3,3.8,2.8,6.3c0.3,1.6,0.4,4.1,0.4,7.2l-0.1,30.9h-13.1
			v-31.2c0-1.9-0.3-3.4-0.9-4.6c-1.1-2.3-3.2-3.4-6.3-3.4c-3.5,0-6,1.5-7.3,4.4c-0.7,1.6-1,3.4-1,5.6v29.2h-12.9v-29.2
			c0-2.9-0.3-5-0.9-6.3c-1.1-2.4-3.2-3.6-6.3-3.6c-3.7,0-6.1,1.2-7.4,3.6c-0.7,1.4-1,3.4-1,6v29.5h-13v-49h12.5v7.2
			c1.6-2.6,3.1-4.4,4.5-5.4c2.5-1.9,5.7-2.9,9.7-2.9c3.8,0,6.8,0.8,9.1,2.5c1.9,1.5,3.3,3.5,4.2,5.9c1.7-2.9,3.8-5,6.3-6.3
			c2.6-1.3,5.6-2,8.8-2C856.2,370.7,858.4,371.1,860.5,371.9z"/>
		<g>
			<path fill="#FFFFFF" d="M773.2,333.2l1.6,0.1c1.3,0.1,2.5,0,3.6-0.1c1.1-0.2,2.1-0.5,2.9-1c0.8-0.5,1.4-1.6,2.1-3.2
				c0.6-1.6,0.9-2.6,0.8-3l-18-51.2h14.3l10.7,36.2l10.1-36.2H815l-16.8,48.3c-3.3,9.3-5.8,15.1-7.7,17.3c-1.9,2.2-5.7,3.4-11.4,3.4
				c-1.1,0-2.1,0-2.7,0c-0.7,0-1.7-0.1-3.1-0.2V333.2z"/>
			<g>
				<path fill="#FFFFFF" d="M512.9,323.7v-66.4h13.8v25.3h25.8v-25.3h13.8v66.4h-13.8v-29.6h-25.8v29.6H512.9z"/>
				<path fill="#FFFFFF" d="M590.4,269.2h-13v-11.8h13V269.2z M577.4,274.7h13v49.1h-13V274.7z"/>
				<path fill="#FFFFFF" d="M611,308.1c0.3,2.3,0.9,3.9,1.8,4.9c1.6,1.7,4.6,2.6,8.9,2.6c2.5,0,4.5-0.4,6-1.1
					c1.5-0.8,2.2-1.9,2.2-3.4c0-1.4-0.6-2.5-1.8-3.3c-1.2-0.7-5.7-2-13.4-3.9c-5.6-1.4-9.5-3.1-11.8-5.2c-2.3-2-3.4-5-3.4-8.8
					c0-4.5,1.8-8.4,5.3-11.7c3.6-3.3,8.6-4.9,15-4.9c6.1,0,11.1,1.2,15,3.7c3.9,2.4,6.1,6.7,6.7,12.7h-12.8c-0.2-1.6-0.6-3-1.4-3.9
					c-1.4-1.7-3.8-2.6-7.2-2.6c-2.8,0-4.8,0.4-6,1.3c-1.2,0.9-1.8,1.9-1.8,3.1c0,1.5,0.6,2.5,1.9,3.2c1.3,0.7,5.7,1.9,13.4,3.6
					c5.1,1.2,8.9,3,11.5,5.4c2.5,2.5,3.8,5.5,3.8,9.2c0,4.9-1.8,8.8-5.4,11.9c-3.6,3.1-9.2,4.6-16.8,4.6c-7.7,0-13.4-1.6-17.1-4.9
					c-3.7-3.3-5.5-7.4-5.5-12.4H611z"/>
				<path fill="#FFFFFF" d="M645.6,283.8v-9.1h6.8v-17.3h12.7v17.3h8v9.1h-8v26.4c0,2,0.3,3.3,0.8,3.8c0.5,0.5,2.1,0.7,4.7,0.7
					c0.4,0,0.8,0,1.2,0c0.4,0,0.9,0,1.3-0.1v9.6l-6.1,0.2c-6.1,0.2-10.2-0.8-12.4-3.1c-1.4-1.5-2.2-3.7-2.2-6.8v-30.6H645.6z"/>
				<path fill="#FFFFFF" d="M721.1,317.7c-4.1,5.1-10.4,7.7-18.9,7.7c-8.4,0-14.7-2.6-18.9-7.7c-4.1-5.1-6.2-11.3-6.2-18.5
					c0-7.1,2.1-13.2,6.2-18.4c4.1-5.2,10.4-7.8,18.9-7.8c8.4,0,14.7,2.6,18.9,7.8c4.1,5.2,6.2,11.3,6.2,18.4
					C727.3,306.5,725.2,312.6,721.1,317.7z M710.8,310.6c2-2.7,3-6.5,3-11.4c0-4.9-1-8.7-3-11.3c-2-2.7-4.9-4-8.6-4
					c-3.8,0-6.6,1.3-8.7,4c-2,2.7-3,6.4-3,11.3c0,4.9,1,8.7,3,11.4c2,2.7,4.9,4,8.7,4C705.9,314.6,708.8,313.3,710.8,310.6z"/>
				<path fill="#FFFFFF" d="M762,274.6c0.2,0,0.5,0,1.1,0.1v13.1c-0.8-0.1-1.5-0.2-2.2-0.2c-0.6,0-1.1,0-1.5,0
					c-5.2,0-8.6,1.7-10.4,5c-1,1.9-1.5,4.8-1.5,8.7v22.4h-12.9v-49.1h12.2v9.6c2-3.3,3.7-5.5,5.2-6.7c2.4-2,5.5-3,9.4-3
					C761.7,274.6,761.9,274.6,762,274.6z"/>
			</g>
		</g>
	</g>
	<g>
		<path fill="#FFFFFF" d="M168.4,362.3c0,19.6,3,32.2,8.9,37.8c6,5.6,18.8,9.2,38.6,10.8v10H66v-10c21.1-2.3,34.3-6.2,39.6-11.7
			c5.3-5.5,7.9-19.9,7.9-43.2V122c0-19.3-2.9-31.9-8.8-37.7c-5.9-5.8-18.8-9.4-38.6-10.8v-10h149.8v10c-19.8,1.4-32.6,5-38.6,10.8
			c-6,5.8-8.9,18.4-8.9,37.7V362.3z"/>
		<polygon fill="#FFFFFF" points="315.4,63.4 315.4,205.4 266.9,205.4 198.4,278.9 315.4,278.9 315.4,420.9 399.4,420.9 399.4,63.4 
					"/>
	</g>
</g>
</svg>
