<?xml version="1.0" encoding="utf-8"?>
<!-- Generator: Adobe Illustrator 18.1.1, SVG Export Plug-In . SVG Version: 6.00 Build 0)  -->
<!DOCTYPE svg PUBLIC "-//W3C//DTD SVG 1.1//EN" "http://www.w3.org/Graphics/SVG/1.1/DTD/svg11.dtd">
<svg version="1.1" id="Layer_1" xmlns="http://www.w3.org/2000/svg" xmlns:xlink="http://www.w3.org/1999/xlink" x="0px" y="0px"
	 viewBox="-20 -20 520 220" enable-background="new -10 -10 481.2 186.9" xml:space="preserve">
 <defs>
	<filter id="f1" x="-20%" y="-20%" width="200%" height="200%">
		<feOffset result="offOut" in="SourceAlpha" dx="0" dy="0" />
		<feGaussianBlur result="blurOut" in="offOut" stdDeviation="10" />
		<feBlend in="SourceGraphic" in2="blurOut" mode="normal" />
	</filter>
  </defs>
<g id="vikingsLogoShadow" filter="url(#f1)">
<g id="vikingsLogo">
	<path fill="#ffffff" d="M107.3,35.2l-3.9,6.3l-43,109.4c-4.4-4.4-9.1-13.1-14.1-26.2C41.3,112,35.8,99.2,29.7,86.2
		c-1.1-2.4-2.3-4.8-3.6-7.2c-0.6-1.3-1.3-2.5-2-3.8c-0.1-0.2-0.2-0.6-0.5-0.8c-0.1-0.1-0.4,0-0.5-0.1c-0.3-0.2-0.2-0.6-0.5-0.9
		c-0.2-0.2-0.5-0.3-0.6-0.7c0-0.1,0-0.5,0-0.7c0-0.1,0.1-0.2,0.2-0.2c0-0.4-0.2-0.6-0.1-1c0.2-0.8,1-1.4,1.6-1.9
		c0.5-0.4,0.8-0.9,1.3-1.2c0.3-0.2,0.8-0.3,0.9-0.7c-0.2-0.2-0.4-0.4-0.6-0.6c-0.5-0.4-0.5-0.3-0.3-0.9c0.1-0.5,0.1-0.8-0.3-1
		c-0.6-0.3-1.2-0.4-1.8-0.7c-0.6-0.3-1.2-0.5-1.8-0.8c-0.5-0.2-0.5-0.4-0.5-0.9c0-0.6,0-0.6-0.6-0.8c-0.8-0.4-1.5-0.7-2.4-0.9
		c-0.8-0.2-1.9-0.4-2.5-0.8c-0.6-0.4-1-1.6-1.4-2.2c-1-1.6-2-3.2-3-4.8C7.2,46.9,3.6,41.5,0,36.1h41c-1.7,2.2-3.3,4.4-4.9,6.6
		l-4.2,0.4c-0.4,0-0.6,0.2-0.6,0.6c0,0.3,0.2,1,0.7,2.2c0.5,1.2,0.6,2,0.4,2.4c0.2,0.5,0.4,1,0.7,1.4c1.3,2.9,2.6,5.8,4,8.7
		c1.8,4,3.7,8.1,5.5,12.1c0.9,1.9,1.8,3.8,2.6,5.8c0.4,0.8,0.8,1.7,1.2,2.5c0.2,0.4,0.3,0.8,0.5,1.1c0.1,0.2,0.2,0.4,0.3,0.6
		c0.1,0.3,0,0.6,0.1,0.9c0.1,0.3,0.5,0.4,0.6,0.6c-0.6,0-0.6,0.7-0.6,1.1c0,0.5,0,0.8-0.2,1.3c-0.1,0.4,0,0.9,0,1.3
		c-0.1,0.7-0.6,0.6-1.1,0.9c0,0.3,0.4,0.5,0.4,0.8c0.1,0.3-0.1,0.6-0.2,0.9c-0.1,0.5,0.3,1.3,0.8,1.6c0.4,0.3,1,0.1,1.5,0.1
		c0.4,0,0.6,0.1,0.9,0.4c0.1,0.1,0.2,0.3,0.2,0.4c0,0.2-0.1,0.2-0.2,0.2c-0.2,0-0.2,0-0.2,0.2c0,0.2,0,0.3,0.1,0.4
		c0.1,0.3,0.5,0.4,0.4,0.9c-0.1,0.3-0.5,0.4-0.5,0.6c0,0.4,0.6,0.4,0.8,0.4c0.7,0.1,1.2,0.2,1.8,0.7c0.5,0.4,1,0.8,1.5,1.2
		c0.8,0.6,1.2,1.2,1.7,2.1c1.1,2.3,2.1,4.7,3.2,7c1.4,3.1,2.8,6.1,4.2,9.2c4.7-7.2,10.6-20.9,17.5-41.1c3.3-9.8,5-15.7,5-18
		c0-2.2-0.8-4.5-2.4-6.8c-2-2.8-4.6-6.9-8.1-12.3L107.3,35.2z"/>
	<path fill="#ffffff" d="M128.4,143.2h-12.2c0-1.4,0.1-3.6,0.4-6.5c0.3-2.9,0.6-5.8,1-8.6c0.1-0.8,0-1.6,0-2.3c0-0.8,0-1.6,0-2.4
		c0-0.3,0.1-0.7,0.1-1c0-0.3-0.3-0.6-0.2-0.9c0.1-0.2,0.2-0.3,0.2-0.6c0-0.3-0.1-0.8,0-1c0.2-0.3,0.5-0.2,0.7-0.2
		c0.1-0.3-0.3-0.4-0.4-0.7c0,0.1,0.2-0.4,0.2-0.4c0.1-0.6-0.2-1.2,0.2-1.8c0.2-0.3,0.4-0.3,0.4-0.8c0-0.3-0.1-0.4-0.2-0.6
		c-0.1-0.3,0-0.6,0-0.9c0-0.3-0.2-0.6-0.2-0.9c0-0.3-0.1-0.8,0-1c0.1-0.3,0.4-0.4,0.5-0.6c0.2-0.5-0.2-0.7-0.6-1
		c-0.5-0.4-1.1-0.9-1.2-1.6c-0.1-0.4,0.2-0.5,0.3-0.8c0.1-0.2-0.1-0.6-0.1-0.9c0-0.6,0-1.3,0-1.9v-4.3V88.7v-6.2
		c0-2.5-0.6-4.4-1.7-5.6c-1.2-1.5-5.3-4.1-12.2-7.8h24.7v5.4V85v4.5v1.6c0,0.6,0.1,1.2,0.2,1.8c0,0.4-0.1,0.8-0.1,1.2
		c-0.1,0.5-0.1,1.1,0.2,1.5c0.2,0.3,0.3,0.8,0.4,1.2c0,0.3-0.1,0.3-0.1,0.4c0,0.5,0.1,0.3,0.4,0.6c0.5,0.5-0.4,0.5-0.6,0.9
		c-0.2,0.4,0,1,0,1.4c0,0.3,0.1,0.5,0,0.7c-0.1,0.3-0.4,0.4-0.5,0.7c-0.2,0.4,0,0.8,0.1,1.2c0.3,0.9,0.2,1.8,0.2,2.7v5.7v12.9V136
		v6.8V143.2z"/>
	<path fill="#ffffff" d="M222.8,135.9c-5.4,3.8-10,6.8-13.8,9.1c-4.2,2.5-6.8,3.7-7.8,3.5l-0.1,0c-2.7-0.4-5.1-2.5-7.2-6.3
		c-1.2-2.2-3.6-7.6-7.4-16.2c-3.8-9-6.4-14.7-7.6-17.1c-4.6-9-9.1-13.6-13.8-13.6c-0.8,0-1.2,0.9-1.2,2.7c0,3.5-0.1,8.1-0.2,13.7
		l-0.3,9.5c0,8.6,1,16,2.9,21.9h-14.5c0.1,0-0.2-10.1,0.3-11c0.2-0.4,0.7-0.6,0.8-0.9c-0.4-0.2-0.6-0.5-1-0.7c0-0.3,0.4-0.5,0.6-0.7
		c0.2-0.3,0.5-0.7,0.6-1c0.1-0.3,0-0.7,0-1c0-0.4,0.1-0.6,0.3-1c0.3-0.7,0.2-1.5-0.4-1.8c-0.7-0.4-0.4-1.1,0.4-1.2
		c0.5-1.1-0.8-2.6-1.3-3.6c-0.4-0.8-0.2-1.6-0.2-2.4v-4.3v-11.3V91.5v-4.7l1-13.7l-1-2.6v-12c0-2.2-1.3-3.9-3.8-5.2l-0.5-0.3
		l-9.7-5.5h11.5l14.9,0.5v34.3c0,0.3-0.6,0.9-0.8,1.2c-0.2,0.3-0.3,0.5-0.4,0.9c-0.1,0.4,0,0.4-0.4,0.6c-0.2,0.1-0.5,0.3-0.6,0.6
		c-0.1,0.2,0,0.8,0,1c0.1,0.6,0.4,0.2,0.8,0.6c0.5,0.5-0.4,0.8-0.6,1.1c-0.4,0.9,0.9,1.4,1.6,1.2c0.9-0.2,1.8-0.4,2.8-0.5
		c0.6-0.1,1.4,0,1.9-0.2C178.3,86,184.1,82,186,77c0.8-2.1,1.2-5.2,1.2-9.3c3.8,1.2,6.3,1.8,7.5,1.8c0.6,0,1.9,0,3.7-0.1
		c1.9-0.1,3.5-0.1,5.1-0.1c-5.1,7.8-8.6,12.6-10.5,14.6c-1.9,1.9-4.4,3.7-7.7,5.3c-0.8,0.4-3.6,1.6-8.5,3.7
		c6.3,3.6,10.7,10.8,14.4,17.5c1,1.7,2,3.6,3.2,5.9c0.1,0.2,0.1,0.4,0.1,0.6c0,0.2-0.3,0.7-0.8,1.4c-0.5,0.7-0.7,1.3-0.5,1.7
		c0.1,0.1,0.2,0.1,0.4,0.1c0.2,0,0.9,0,2-0.1c0.9-0.1,1.4-0.1,1.5,0.1c1,2.1,2.3,4.9,4,8.4c3,5.3,6.3,8.2,9.8,8.7
		C212.2,137.1,216.2,136.8,222.8,135.9"/>
	<path fill="#ffffff" d="M326,67.9l-2.9,10.4c-0.2,0.6,0,0.9,0.6,1c0.6,0.1,0.8,0.5,0.8,1v67.2l-11.9-13.7c-0.1-0.1-0.2-0.3-0.2-0.6
		c0-0.2,0.1-0.6,0.2-1c0.1-0.4,0.2-0.8,0.2-1c0-0.4-0.6-0.8-1.9-1.2c-1.4-0.4-2.3-0.8-2.5-1l-37.7-43.7v22.2
		c0,7.5,0.5,13.6,1.4,18.3c0.9,4.7,3.9,10.6,9,17.8h-19.8c0.7-3.3,1.3-6.8,1.8-10.5l0.2-1.4c0.5-4.3,0.7-7.5,0.7-9.5v-7.2
		c0-2.1-1.2-10.2,0.5-11.5c0.2-0.1,0.4-0.2,0.5-0.4c0-0.1,0-0.3,0-0.4c-0.1-1-0.3-1.9-0.4-2.9c0.2-0.1,0.4-0.3,0.7-0.4
		c-0.2-0.2-0.3-0.5-0.2-0.7c-0.4,0.1-0.7-0.6-0.5-1s0.7-0.6,1.1-0.7c-0.6-1-1.3-0.7-1.7-1.7c-0.2-0.5,0-1.4,0-1.9c0-2,0-3.9,0-5.9
		v-8.7c-1-1-2.3-2.4-3.8-4.1c-1.9-1.9-4.5-3.7-7.9-5.6h21.3c1,1.2,1.9,2.4,2.9,3.6c2.2,2.7,4.4,5.4,6.6,8.1c2.3,2.9,4.6,5.7,6.9,8.6
		c0.8,1,1.6,1.9,2.3,2.9c0.4,0.5,0.9,1,1,1.6c0.1,0.5,0,0.9,0.3,1.3c0.3,0.5,0.7,0.9,0.7,1.6c0,0.4,0,0.4,0.2,0.6
		c0.1,0.1,0.3,0.4,0.4,0.5c0.2,0.1,0.6,0.1,0.8,0.2c0.2,0.2,0.2,0.2,0.2,0.6c0,0.5,0.1,0.6,0.6,0.8c0.3,0.1,0.8,0.3,1,0.6
		c0.1,0.3-0.1,0.7,0,1c0.1,0.1,0.3,0.3,0.5,0.3c0.3,0,0.5-0.2,0.8-0.2c0.2,0,0.7,0.5,1,0.7c0.3,0.1,0.5,0.4,0.7,0.6
		c0.2,0.2,0.4,0.3,0.7,0.4c0.3,0.2,0.5,0.6,0.8,0.9c0.5,0.7,1.1,1.3,1.6,2c1.3,1.6,2.5,3.1,3.8,4.7c2.5,3.1,5,6.2,7.5,9.2
		c0.8,1,1.6,2,2.4,3c0.2,0.2,0.9,0.9,0.9,1.1V87.8c-2.3-5.7-5.5-10.6-9.4-14.6l-4.4-5l4.4,0.1c2.4,0.6,5.2,0.9,8.4,0.9h1.8h1.9
		C321.9,69.2,323.7,68.8,326,67.9"/>
	<path fill="#ffffff" d="M403.4,143.2c0,6.1-1,10.9-2.9,14.3c-1.9,3.4-5.2,6.4-10,8.9l-9.5,1.4c5.7-5.3,9.1-8.8,10.3-10.5
		c0.5-0.7,1.3-2.3,2.5-4.6c1.2-2.3,1.7-3.8,1.7-4.2v-1.1c0-0.7,0.1-2.6,0.4-5.7c0.2-2.6,0.3-4,0.2-4.2c-0.9,0.3-3.9,2-9.3,5.1
		c-2.2,1.3-6.1,1.9-11.8,1.9c-6,0-10.9-0.6-14.6-1.8c-2-0.6-4-1.5-5.8-2.5c-0.9-0.5-1.8-1.1-2.7-1.7c-0.4-0.3-0.9-0.7-1.3-1
		c-0.2-0.1-0.4-0.3-0.6-0.4c0,0-0.4-0.4-0.3-0.4c-0.2,0-0.8-0.3-0.9-0.5c-0.1-0.2,0-0.4,0-0.6c0-0.2-0.2-0.2-0.2-0.4
		c-0.2-0.9,1.1-1,0.8-1.8c-0.5-0.2-1.1,0.1-1.5-0.1c0-0.7-0.3-1.1-0.8-1.6c-0.6-0.6-0.6-0.8-0.6-1.6c0-0.7-0.1-1.4,0.2-2
		c0.3-0.6,0.8-1.6,0-2.1c-0.3-0.2-1.1,0-1.2-0.4c-0.1-0.4,0.4-0.5,0.5-0.8c0.4-1.1-1.7-0.9-2.2-1c-0.2-0.1-0.3-0.2-0.6-0.2
		c-0.3-0.1-0.5-0.1-0.8-0.2c-0.4-0.1-0.6-0.1-1-0.4c-0.4-0.3-0.5-0.4-1-0.4c-0.1-0.6-0.3-1.2-0.4-1.8c-0.5-2.2-0.8-4.4-1.2-6.6
		c-0.2-1.4-0.4-2.7-0.6-4.1c-0.2-1.5-0.6-3-0.6-4.5c-0.2-5.2,1.3-10.8,4.4-16.6c3.7-6.7,8.7-11.4,14.9-14.3c7.6-3.5,16.6-5.3,27-5.3
		c1.3,0,3.2,0.1,5.8,0.4c2.6,0.3,4.5,0.4,5.8,0.4c2.2,0,4.7-0.7,7.4-2.2l0.6,29.3c-1.5-4.8-2.6-7.8-3.1-8.8c-1.3-3-3.1-5.4-5.3-7.3
		c-2.8-2.3-5.5-3.8-8.2-4.6c-2.4-0.7-5.7-1-9.7-1c-6.6,0-12.5,2.8-17.6,8.3c-2,2.2-3.7,4.8-5,7.7c-0.1,0.3-0.7,0.8-1.7,1.6
		c-1,0.7-1.5,1.3-1.6,1.8c-0.1,0.3,0.1,0.8,0.6,1.4c0.6,0.6,0.8,1.2,0.7,1.5c-0.6,2.7-0.9,5.7-0.9,8.9c0,8.1,2.1,15,6.2,20.8
		c4.6,6.5,10.7,9.7,18.5,9.7c7.3,0,14.2-3.4,20.5-10.2l-11.8-10.2h18l0.3,9V143.2z"/>
	<path fill="#ffffff" d="M481.2,122.6c0,5.6-2.6,10.6-7.8,15.3c-0.8,0.8-1.8,1.4-2.7,2c-0.3,0.2-0.9,0.4-1.2,0.6
		c-0.3,0.3-0.1,0.8-0.6,0.9c-0.4,0.1-1-0.1-1.4-0.3c-0.3-0.1-0.7-0.2-1-0.4c-0.4-0.2-0.6-0.6-1-0.5c-0.4,0.1-0.6,0.7-1,0.8
		c-0.3,0.1-0.9,0.1-1.1,0.2c-0.4,0.3-0.2,0.8-0.2,1.2c-0.1,0.3-0.2,0.6-0.2,0.9c-0.7,0.2-1.9-0.1-1.4,1c-0.3,0.2-1,0.1-1.3,0.1
		c-0.3,0-0.1,0.2-0.4,0c-0.2-0.1-0.2-0.2-0.3-0.3c-0.3-0.2-0.7-0.2-1-0.1c-0.4,0.1-0.6,0.3-1,0.4c-0.3,0-0.5,0-0.8,0.1
		c-0.8,0.1-1.5,0.2-2.3,0.2c-1.6,0.1-3.2,0.2-4.8,0.2c-8.3,0-15.5-1.5-21.7-4.5c-0.7-0.3-1.4-0.7-2.1-1.1c-2-1.2-3.8-1.8-5.8-3
		c-1.8-1-1.8-1-3.8-1.9c1.1-2.1,4.5-5.2,6.4-13.1c1.6,4.7,8,10.6,13.9,14c4,2.3,8.7,4.1,15,4.1c3.6,0,7.2-1.4,10.7-4.1
		c3.8-2.9,5.7-6.2,5.7-9.7c0-6.9-4-11.6-12.1-14.3c-4.9-1.5-12.3-3.7-22.2-6.7c-2.5-1.2-4.7-2.6-6.4-4.2c-0.1-0.1-0.1-0.2-0.1-0.4
		c0-0.2,0.1-0.2,0.2-0.3c0-0.1,0.1-0.3,0.1-0.4c0.1-0.1,0.2-0.2,0.2-0.4c0-0.1,0-0.2,0.1-0.3c0.1-0.1,0.1-0.2,0.2-0.3
		c0.1-0.1,0.2-0.3,0-0.4c-0.1,0-0.2,0-0.3,0c0-0.1-0.1-0.1-0.1-0.1c-0.2-0.1-0.4-0.1-0.5-0.4c-0.1-0.2-0.1-0.3-0.3-0.5
		c-0.2-0.2-0.6-0.3-0.8-0.5c-0.3-0.2-0.6-0.2-1-0.3c-0.3-0.1-0.5-0.2-0.8-0.4c-0.2-0.1-0.2-0.4-0.3-0.5c-1.4-1.5-2.1-4.5-2.1-8.9
		c0-6.3,3.7-11.2,11.1-14.8c6-3,12.5-4.4,19.5-4.4c2.2,0,4.5,0.1,6.7,0.5c0.7,0.1,1.3,0.6,2,0.8c0.9,0.3,1,0.3,1.9,0.3
		c0.3,0.8,0.7,0.7,1.4,1c-0.1,0.1-0.2,0.2-0.2,0.3c0,0,0.2,0.2,0.2,0.2c0.1,0.1,0.1,0.2,0.2,0.1c0.2,0.1,0.3,0.2,0.4,0.3
		c0.1,0,0.2,0.1,0.3,0.1c0.1,0,0.2,0.1,0.2,0.1c0.2,0.1,0.5,0,0.7-0.1c0.1,0,0.2-0.1,0.2-0.1c0.1-0.1,0.1-0.2,0.2-0.2
		c0.3-0.2,0.5,0.2,0.7,0.3c0.2,0.1,0.3,0.3,0.5,0.4c0,0,0.2,0,0.2,0c0.1,0,0.2,0.1,0.4,0c0.1,0,0.2,0,0.3-0.1
		c0.2-0.1,0.1-0.1,0.2-0.2c0.2,0,0.2,0.1,0.4,0.1c0.1,0.1,0.2,0,0.3,0.1c0.2,0,0.4,0.1,0.6,0.2c0-0.1,0-0.3,0-0.4
		c0-0.2,0.1-0.2,0.2-0.4c0.2-0.1,0.5-0.1,0.7-0.1c0.1,0,0.1,0.1,0.3,0c0.1-0.1,0.2-0.1,0.4-0.1c0.3,0,0.6,0.2,1,0.3
		c0.1,0,0.2,0.1,0.3,0.1c0.1,0.1,0.3,0.2,0.4,0.2c0.1,0,0.2,0,0.4,0.1c0.1,0,0.2,0.1,0.4,0.1c0.4,0.2,1,0.2,1.4,0.4
		c0.3,0.2,0.6,0.5,0.9,0.7c0.4,0.2,0.8,0.5,1.1,0.7c0.1,0.1,1.1,0.8,1,0.9c-0.4,0.6-8.3,8.9-8.8,9.4c-0.5-3.4-3.1-6.5-7.1-8.4
		c-3.9-2-9.8-2.3-13.2-2.3c-3.6,0-6.9,1.3-10,4c-3.1,2.7-4.6,5.6-4.6,9c0,7.8,4,13.1,12,16.1c7.5,2,15,3.9,22.3,5.7
		C477.3,110.3,481.2,115.3,481.2,122.6"/>
	<path fill="#ffffff" d="M242.8,37c0,0,0,0.1,0,0.1C242.8,37.1,242.8,37.1,242.8,37 M230.3,177.6
		C230.3,177.6,230.3,177.6,230.3,177.6C230.3,177.6,230.3,177.6,230.3,177.6 M229.9,174.2L229.9,174.2L229.9,174.2z M229.8,142.2
		C229.8,142.2,229.8,142.2,229.8,142.2C229.8,142.2,229.8,142.2,229.8,142.2L229.8,142.2z M238.4,15.6L238.4,15.6L238.4,15.6z
		 M241.2,69.7C241.2,69.7,241.2,69.7,241.2,69.7C241.2,69.7,241.2,69.7,241.2,69.7 M240.8,100.4L240.8,100.4L240.8,100.4
		L240.8,100.4z M229.8,109.5C229.8,109.5,229.8,109.5,229.8,109.5C229.8,109.5,229.8,109.5,229.8,109.5 M230.4,107.5
		C230.4,107.5,230.4,107.5,230.4,107.5L230.4,107.5C230.4,107.5,230.4,107.5,230.4,107.5 M239.5,120.7
		C239.5,120.7,239.5,120.7,239.5,120.7C239.5,120.7,239.5,120.7,239.5,120.7z M229.3,63.4C229.2,63.4,229.2,63.4,229.3,63.4
		C229.2,63.4,229.2,63.4,229.3,63.4 M239.3,154.2L239.3,154.2C239.3,154.2,239.3,154.2,239.3,154.2
		C239.3,154.2,239.3,154.2,239.3,154.2 M232.2,21.5L232.2,21.5L232.2,21.5L232.2,21.5z M230.2,176.9
		C230.1,176.9,230.1,176.9,230.2,176.9C230.1,176.9,230.1,176.9,230.2,176.9 M250.1,33.4c-0.1-0.1-0.2-0.1-0.3-0.1
		c-0.1,0-0.3,0-0.4,0c0,0-0.1,0-0.1,0c-0.1,0-0.2,0-0.2,0c-0.2-0.1-0.3-0.1-0.5-0.2c-0.1,0-0.2,0-0.2,0c-0.3-0.1-0.6-0.2-0.9-0.3
		c-0.8-0.4-1.6-0.7-2.4-1c-0.1-0.1-0.2-0.1-0.2-0.1c-0.1-0.1-0.2-0.1-0.3-0.1l0,0c0-0.1-0.2-0.1-0.3-0.1c0,0,0,0,0,0
		c-0.3-0.2-0.7-0.4-1.1-0.4c0,0-0.1,0-0.1,0c-0.1-0.1-0.3-0.2-0.5-0.2c0,0,0,0-0.1,0c-0.8-0.5-1.8-0.8-2.7-1.2
		c-0.5-0.3-0.2-0.4-0.5-0.8c0-0.2,0-0.4,0-0.6c0.1-0.1,0-0.3,0-0.4c0.1-0.2,0-0.3-0.1-0.4c0-0.2,0-0.3,0-0.5c0-0.1,0-0.1,0-0.1
		c0-0.1,0-0.1,0-0.2c0-0.1,0-0.1,0-0.2c0,0,0-0.1,0-0.1c0.1-0.3,0.2-0.6,0.2-0.9c-0.1-1-0.2-1.2-0.1-2.3c0-0.9,0-1.7-0.2-2.6
		c0.1-0.1,0.1-0.1,0-0.2c0-0.2,0-0.5,0-0.7c0-0.4,0.1-0.7-0.2-1.1c0.1-0.2,0-0.3,0-0.5c0,0,0-0.1,0-0.1c0-0.2,0-0.4,0-0.7
		c0,0,0-0.1,0-0.1c0-0.1,0-0.2,0-0.3c0.1-0.3,0.1-0.7,0-1c0.1-0.1,0.1-0.2,0-0.2c-0.1,0-0.1,0-0.2,0c0-0.1,0-0.1,0-0.2
		c0,0.1,0,0.1,0,0.2c0.1,0,0.1,0,0.2,0c0.1-0.4,0-0.7-0.1-1.1c0-0.5,0.1-1,0-1.5c0,0,0-0.1,0-0.1c0-0.3,0.2-0.5,0.6-0.6
		c0.1,0,0.2-0.1,0.2-0.1c0.1,0,0.1,0,0.2,0c0.3,0-0.3,0-0.1-0.1c0.4-0.1,0.9,0,1.3-0.2c0.1,0,0.1,0,0.2,0c0.4,0,0.7-0.1,1-0.2
		c0.1,0,0.2,0,0.3,0c0.5,0,0.9-0.1,1.3-0.2c0.1,0,0.3,0,0.4,0c0.4,0,0.7-0.1,1.1-0.2c0.1,0,0.2,0,0.3,0c0.4,0,0.8-0.1,1.2-0.2
		c0.1,0,0.3,0,0.4,0c0.4,0,0.8,0,1.1,0c0.4,0,1.2-0.5,1.3-0.8c0.4-0.8,0.2-1.7-0.3-2.4c-0.1-0.2-0.3-0.4-0.5-0.6c0,0,0,0,0,0
		c0,0,0,0,0,0l0,0l0,0c0-0.2-0.2-0.2-0.4-0.2l0,0c-0.2-0.2-0.4-0.3-0.6-0.4c0-0.1-0.1-0.1-0.2-0.1c-0.4-0.2-0.8-0.3-1.3-0.4
		c0,0,0,0,0,0c0-0.2,0.2-0.2,0.2-0.4c0,0,0-0.1,0-0.1c0,0,0,0,0-0.1c0-0.1,0-0.1,0-0.2c0-0.3-0.1-0.5-0.3-0.7c0,0,0-0.1-0.1-0.1
		c-0.1-0.3-0.4-0.4-0.6-0.5l0,0c0-0.1-0.1-0.1-0.2-0.1c0,0,0,0-0.1,0c0,0-0.1,0-0.1,0c-0.2-0.1-0.4,0-0.7,0c-0.1,0-0.3,0-0.4,0
		c-0.2,0-0.3,0-0.5,0.1c-0.1,0-0.1,0-0.2,0c-0.1,0-0.3,0-0.3,0.1c-0.1,0-0.2,0-0.2,0c-0.1-0.1-0.2-0.1-0.2-0.2
		c-0.4-0.3-0.8-0.7-1.4-0.8c-0.2-0.1-0.3-0.2-0.4-0.4c-0.1-0.4-0.5-0.6-1-0.7c-0.2-0.1-0.4-0.1-0.6-0.3c-0.5-0.4-1-0.8-1.7-1
		c-0.4-0.1-0.8-0.1-1.1-0.2c-0.7-0.2-1.4-0.1-2.1,0.1c-0.9,0.3-1.6,1-2.4,1.4c-0.4,0.2-0.7,0.5-1.2,0.6c-0.4,0.1-0.8,0.3-1.2,0.5
		c-0.3,0.3-0.8,0.3-1.2,0.2c-0.6-0.1-1.2-0.1-1.8-0.3c-0.1,0-0.2,0-0.2,0c-0.4,0.2-0.7,0.4-0.9,0.7c-0.1,0.2-0.1,0.3,0.1,0.4
		c0.2,0.2,0.5,0.3,0.6,0.5c0,0.1-0.1,0.3-0.3,0.2c-0.2-0.1-0.4,0-0.5-0.1c-0.6-0.2-1.2-0.3-1.8,0c-0.1,0-0.2,0.1-0.4,0.1
		c-0.8,0.1-1.3,0.6-1.8,1c-0.4,0.4-0.3,0.8-0.3,1.2c-0.1,0.6,0.1,1.2,0.7,1.7c0.1,0.1,0.2,0.3,0.5,0.3c0.7,0.2,1.4,0.3,2.1,0.5
		c1.4,0.4,2,0.8,3.4,1.1c0.3,0.1,0.6,0.2,0.9,0.2c0.2,0,0.3,0.1,0.5,0.1c0,0,0.1,0,0.1,0c0.1,0,0.1,0,0.2,0c0.2,0.1,0.3,0.1,0.5,0.1
		c0.1,0,0.3,0.1,0.4,0c0.1,0.1,0.2,0.1,0.3,0.1c0.1,0,0.1,0,0.2,0c0,0.1,0.1,0.1,0.2,0.1c0.1,0,0.1,0.1,0.2,0.1l0,0c0,0,0.1,0,0.1,0
		c0,0,0.1,0,0.1,0c0.1,0.1,0.2,0.1,0.3,0.1c0,0,0,0,0.1,0c0.1,0.1,0.3,0.2,0.4,0.2c0,0,0-0.1,0-0.1c0.1-0.1,0.1-0.2,0-0.3
		c0.1,0.1,0.1,0.2,0,0.3c0,0,0,0.1,0,0.1c0,0,0.1,0,0.1,0c0.1,0.1,0.1,0.2,0.2,0.3c0,0,0,0.1,0,0.1c0,0.1,0,0.2,0.1,0.3
		c0,0.1,0,0.2,0,0.3c0,0.1,0,0.1,0,0.2c0,0.1,0,0.1,0,0.2c0,0.1,0,0.2-0.1,0.4c-0.1,0-0.1,0.1,0,0.1c-0.1,0.3-0.1,0.6-0.1,0.9
		c0,0.1,0,0.2,0,0.2c0,0.1,0,0.2,0,0.2c0,0,0,0.1,0,0.1c0,0.3,0,0.6,0,0.9c0,0,0,0.1,0,0.1c0,0.1,0,0.2,0,0.4c0,0.1-0.1,0.2,0,0.3
		c0,0.6,0,1.3,0,1.9c-0.1,0.3-0.1,0.6-0.1,0.9c-0.1,0.3-0.1,0.7,0,1c-0.1,0.1-0.1,0.2-0.1,0.3c-0.1,0.2-0.1,0.3,0,0.5
		c-0.1,0.1-0.1,0.2,0,0.2c-0.1,0.2,0,0.5,0,0.7c0,0.1-0.1,0.2,0,0.4c0,0-0.1,0.1,0,0.1c0,0.5,0,0.9,0,1.4c-0.2,0.6-0.1,1.1-0.1,1.7
		c0,0,0-0.8,0-0.7c0,0,0,0.1,0,0.1c0,0.1,0,0.2,0,0.2c0,0,0,0.1,0,0.1c-0.1,0.2-0.1,0.4,0,0.6c-0.2,0.3-0.2,0.6-0.1,0.9
		c0,0.3,0,0.6-0.1,0.9c0,0,0,0.1,0,0.1c-0.1,0.1-0.2,0.2-0.3,0.3c-0.1,0-0.1,0.1-0.2,0.1c-0.1,0-0.2,0.1-0.2,0.1c0,0-0.1,0-0.1,0.1
		c-0.1,0-0.1,0-0.2,0.1c-1.1,0.4-1.3,0.8-2.5,1.2c-1.5,0.5-3,1-4.5,1.6c-0.1,0-0.2,0-0.3,0.1c-0.1,0-0.1,0-0.1,0
		c-0.1,0-0.3,0-0.3,0.1c-0.1,0-0.3,0-0.4,0.1c-0.5,0.1-1,0.4-1.6,0.4c-0.2,0-0.5,0.1-0.7,0.1c-0.1,0-0.2,0-0.2,0
		c-0.9,0-1.3,0.2-1.6,0.8c0,0,0,0,0,0c-0.2,0.2-0.2,0.4-0.2,0.6c0,0,0,0.1,0,0.1c0,0.3,0,1.4,0,1.7c0,1.5,1.6,2.5,3.4,2.5
		c0,0,0.1,0,0.1,0c0.6,0,1.3,0.2,1.7-0.3c0.4-0.4,0.8-0.7,1.3-1c0.1-0.1,0.3-0.2,0.4-0.2c0.6-0.4,1.3-0.6,2-0.9
		c0.4-0.1,0.6-0.3,1-0.4c0.2,0,0.4,0,0.3,0.2c0,0.6,0,1.1-0.1,1.7c-0.1,0.2-0.1,0.5,0,0.7c0,0.1,0,0.3,0,0.4c-0.1,0.3,0,0.7,0,1
		c-0.1,0.6-0.1,1.2,0,1.9c0,0,0,0.1,0,0.1c0.1,0.5,0.2,1.1,0.2,1.6c0,0.8,0,1.5,0,2.3c0,1.4-0.1,2.8-0.2,4.2c0,0.1,0,0.1,0,0.2
		c-0.1,0.1-0.1,0.2,0,0.3c0,0,0,0.1,0,0.1c0,0.1,0,0.3,0,0.4c0,0.2,0,0.4,0,0.6c0,0.5,0,0.9,0,1.4c0,1.6-0.1,3.3,0.1,4.9
		c0,0.4,0,0.8,0,1.1c-0.1,0.1,0,0.2,0,0.2c-0.1,0,0,0.1,0,0.1c0,0,0,0.1,0,0.1c0,0.1-0.2,0.3,0,0.4c0,0,0,0.1,0,0.1
		c-0.1,0.6-0.1,1.2-0.1,1.8c0,0,0,0,0,0.1c0,0.1,0,0.1,0,0.2c0,0.4,0,0.8,0,1.2c0,0.1,0,0.2,0,0.3c0,0.4,0,0.9,0.1,1.3
		c0,0.1-0.1,0.2,0.1,0.3c0,0.1,0.1,0.2,0.1,0.3c0,0,0,0,0,0.1c0,0.2,0.1,0.4,0.1,0.6c-0.2,0.9-0.3,1.7-0.4,2.6c0,0.3,0,0.7,0.4,1
		c0.3,0.3,0.8,0.6,1.2,0.8c0.4,0.3,0.6,0.5,0.6,1c0,0.3,0,0.6-0.1,0.9c-0.2,0.5-0.5,0.9-0.6,1.4c-0.1,0.7-0.6,1.2-0.9,1.8
		c-0.1,0.1-0.1,0.2-0.1,0.4c0,0.6,0,1.3,0,1.9c-0.1,0.4-0.2,0.8-0.2,1.1c0,0.2-0.1,0.5,0.1,0.7c-0.1,0.3-0.1,0.6,0,0.9
		c0,0.6-0.1,1.1,0,1.7c0,0,0,0,0,0.1c-0.1,0.1,0,0.3,0,0.4c0,0.8,0,1.6,0.2,2.4c-0.1,0.3,0,0.6,0.1,1c0.1,0.6,0,1.1,0,1.7
		c-0.1,0-0.1,0.1-0.1,0.2c-0.2,0.7-0.1,1.5,0,2.2c-0.1,0.1-0.1,0.1,0,0.2c0,0,0,0.1,0,0.1c0,0,0,0,0,0.1c0,0,0,0,0,0c0,0,0,0,0,0
		c0,0,0,0.1,0,0.1c-0.1,0,0,0.1,0,0.1c0,0.3,0,0.6,0,0.9c0,0.7,0,1.5,0.4,2.2c0.1,0.2,0.1,0.3,0.1,0.5c-0.1,0.1-0.1,0.2-0.1,0.3
		c-0.3,0.6-0.2,1,0.6,1.4c0,0,0.1,0.1,0.1,0.1c0.1,0.4-0.2,0.8-0.2,1.2c0,0.2-0.1,0.3-0.2,0.4c-0.7,0.7-0.7,1.5-0.3,2.3
		c0,0,0,0,0,0.1c0,0,0,0,0,0c0,0,0,0,0,0c0,0,0,0,0,0.1c0.2,0.2,0.2,0.5,0.2,0.8c0,0.2-0.1,0.4,0,0.7c0,0,0,0,0,0.1c0,0,0,0.1,0,0.1
		c-0.1,0.2,0.1,0.4,0.1,0.6c0.1,0.9-0.2,1.9,0,2.8c0,0.2-0.2,0.4-0.2,0.6c0,0.5,0,1-0.1,1.6c0,0.6,0,1.1,0,1.7
		c-0.1,0.9-0.2,1.8,0,2.7c0.1,0.4,0.1,0.8,0.1,1.2c-0.1,0.8-0.2,1.7,0.3,2.5c0.1,0.3,0.2,0.6,0.1,0.9c-0.1,0.4-0.1,0.9,0.1,1.2
		c0.3,0.5,0.3,1,0.1,1.5c-0.4,1.1-0.7,2.1-0.6,3.2c0,0.5,0.2,0.9,1,1c0.2,0,0.4,0.1,0.5,0.2c0.4,0.6,0.5,1.2,0.4,1.8
		c-0.1,0.3-0.1,0.6,0.4,0.8c0.3,0.1,0.4,0.4,0.2,0.6c-0.5,0.4-0.6,1-0.7,1.5c-0.1,0.1,0.1,0.2-0.1,0.2c-0.1,0.1-0.2,0.2-0.4,0.3
		c-0.4,0.3-0.6,0.6-0.7,0.9c-0.1,0.5-0.1,1.1-0.1,1.6c0,0.4,0,0.7,0.3,1.1c0,0,0,0.1,0.1,0.1c0.1,0.5,0,0.9-0.3,1.3
		c-0.1,0.1-0.2,0.2-0.1,0.4c0,0.1-0.2,0.2-0.1,0.4c0,0.3-0.1,0.5-0.1,0.8c0,0.1-0.1,0.2,0,0.3c0,0,0-0.1,0.1-0.1
		c0,0,0.1,0.1,0.1,0.1c0,0-0.1,0-0.1-0.1c0,0,0,0.1-0.1,0.1c0,0,0,0,0,0c0.1,0,0.1,0.1,0.2,0.1c0,0,0,0,0,0c0,0,0,0,0,0
		c0-0.1-0.1-0.1-0.2-0.1c0,0,0,0.1,0,0.1c0,0.1,0,0.2,0,0.3c0,0.1,0,0.1,0,0.2c0,0.5,0.3,0.9,0.7,1.3c0.2,0.1,0.2,0.3,0.1,0.5
		c-0.1,0.3-0.2,0.5-0.2,0.8c-0.2,0.3-0.2,0.7-0.3,1.1c0,0,0,0.1-0.1,0.1c-0.1,0.5-0.3,1-0.2,1.6c0,0.1,0,0.1,0,0.2
		c0,0.3,0,0.5,0,0.8c0,0.6-0.1,1.2-0.2,1.8c0,0.1,0,0.2,0,0.3c0.1,0.7,0.2,1.4,0.3,2.2c0,0,0,0.1,0,0.1c-0.2,0.3-0.2,0.6-0.3,0.9
		c0,1.1-0.1,2.2-0.1,3.4c0,0.8-0.1,1.6,0.3,2.3c0,0,0,0.1,0,0.1c0,0,0,0,0,0c0.2,0.4,0.1,0.7,0.2,1.1c0,0.1,0,0.1,0,0.2v0
		c0,0,0,0,0,0.1c-0.1,0.1-0.2,0.1-0.1,0.3c-0.1,0.3-0.3,0.6-0.2,0.9c0.1,0.7,0,1.4,0,2.1c0,0.6,0,1.2,0,1.8c0,0,0,0.1,0,0.1
		c-0.1,0.3,0.1,0.5,0.3,0.7c0,0,0,0.1,0,0.1c0,0,0,0,0,0c0,0,0,0,0,0l0,0c0,0.1,0,0.2,0.1,0.3c0,0.1,0,0.1,0,0.2c0,0,0,0.1,0,0.1
		c0,0.1,0,0.2,0,0.4c0,0.1,0,0.1,0,0.2c0,0,0,0.1,0,0.1c0,0,0,0,0,0.1c-0.2,0.1-0.1,0.3-0.1,0.4c0,0.3,0.1,0.6,0,0.9
		c-0.1,0.3-0.2,0.5-0.3,0.8c-0.1,0.9,0,1.7-0.1,2.6c0,0.4,0.1,0.8,0.1,1.2c0.1,0.9,0,1.8,0,2.6c0,0.6,0,1.2,0.1,1.8
		c-0.1,0.2,0,0.4,0,0.6c0,0,0,0,0,0.1c0,0-0.1,0.1,0,0.1c0,0,0,0.1,0,0.1c0,0.1,0,0.3,0.1,0.4c0,0.2,0,0.3,0,0.5c0,0,0,0,0,0.1
		c-0.1,0.2-0.1,0.5,0,0.7c0.1,0.1-0.2,0.3,0.1,0.4c0,0,0,0.1,0,0.1c0,0,0,0.1-0.1,0.1c0,0.1-0.1,0.3,0,0.4c0,0.1-0.1,0.2,0.1,0.4
		c0,0.1,0,0.2,0.1,0.3c0,0.1-0.1,0.2,0,0.3c0,0,0,0.1,0,0.1v0c0.1,0.4,0.1,0.8,0.3,1.1c0,0,0,0,0.1,0.1c0.1,0.2,0.3,0.3,0.5,0.4
		c0.1,0.3,0.1,0.6,0,0.9c-0.1,0.2-0.4,0.3-0.4,0.6c0,0.2,0.1,0.4,0.3,0.6c0,0,0,0,0.1,0.1c0.1,0,0.1,0.1,0.2,0.1c0,0,0,0.1,0,0.1
		c0,0.1,0.2,0.2,0.4,0.2c0,0,0,0,0,0c0.1,0.4,0.3,0.8,0.8,0.9v0c0.2,0.2,0.2,0.5,0.3,0.8c0.1,0.4,0.3,0.8,0.8,1
		c0.1,0.1,0.1,0.2,0.3,0.2c0.1,0.1,0.2,0.1,0.4,0.1l0,0l0,0c0,0.1,0.1,0.2,0.2,0.2c0.2,0.2,0.3,0.4,0.1,0.6
		c-0.2,0.2-0.2,0.4-0.1,0.6c0,0.2,0.1,0.4,0.4,0.5l0,0c0.4,0.4,0.6,0.4,1,0.1c0.6-0.4,0.8-0.9,1.2-1.4c0.4-0.4,0.5-0.9,0.6-1.3
		c0.2-0.7,0.7-1.4,0.4-2.2c0,0,0-0.1,0-0.1c0.2-0.6,0.3-1.2,0.5-1.8c0.2-0.6-0.1-1.3,0-1.9c0,0,0-0.1,0-0.1c-0.1-0.1-0.1-0.2,0-0.3
		c0.2-0.2,0.2-0.4,0.2-0.7c0-0.2-0.1-0.4,0-0.6c0.2-0.7,0.2-1.5,0.2-2.2c0,0,0,0,0-0.1c0.1-0.1,0.1-0.2,0.1-0.3c0-0.3,0-0.6,0-0.9
		c0.1-0.9,0.2-1.9,0.2-2.8c0-0.6,0-1.2,0.1-1.8c0.1-0.1,0.1-0.2,0-0.3c0-0.1,0.1-0.1,0-0.2c0-0.3,0-0.5,0-0.8c0.1-0.6,0-1.1,0-1.7
		c0.1-0.9,0.1-1.9,0.1-2.8c0-0.4,0-0.8,0.1-1.2c0.2-0.7,0.2-1.3,0-2c0-0.1-0.1-0.3-0.1-0.4c0.2-0.5,0.1-1,0.3-1.5
		c0.1-0.1,0.1-0.3,0-0.5c0,0,0-0.1,0-0.1c0-0.1,0-0.2-0.1-0.3c0-0.1,0.1-0.2,0-0.3c0.1-0.6,0.2-1.3,0.2-1.9c0-0.3,0.1-0.7-0.1-1
		c0.1-0.1,0.1-0.2,0.1-0.3c0.1-0.4,0.1-0.8,0.1-1.3c0-0.2,0-0.4,0-0.6c0-0.4,0-0.8,0-1.3c0-0.4-0.1-0.8,0-1.2c0-0.1,0.2-0.3,0-0.5
		c0.1-0.1,0.1-0.3,0.1-0.4c0-0.6-0.1-1.1,0-1.7c0,0,0-0.1,0-0.1c0-0.1,0-0.1,0-0.2c0-0.1,0-0.1,0-0.1c0,0,0-0.1,0-0.1
		c0.1-0.5,0.2-0.9,0.2-1.4c0-1.4,0.1-2.8,0-4.2c0-0.4,0.1-0.8,0.1-1.2c0-0.5,0-0.9-0.1-1.4c0,0,0-0.1,0-0.1c0.2-0.2,0-0.5,0.1-0.7
		c0-0.1,0-0.2,0-0.4c0.1-0.1,0.1-0.3,0-0.4c0-0.4,0.1-0.9,0-1.3c0.2-0.4,0.1-0.8,0.1-1.2c0-0.9,0.2-1.7,0.1-2.6
		c-0.1-0.7,0.1-1.5,0.1-2.2c0-0.8,0-1.6,0.1-2.4c0.1-0.5,0.1-1-0.2-1.5c-0.2-0.4-0.4-0.9-0.2-1.4c0,0,0-0.1,0-0.1
		c-0.3-0.3-0.2-0.6-0.1-0.9c0.1-0.1,0.2-0.2,0.3-0.2c0.2-0.1,0.2-0.3,0.3-0.5c0.1-0.3,0-0.7,0-1c0.1-1.3,0.1-2.6,0.1-4
		c0,0,0-0.1,0-0.1c0-0.5,0.1-0.9,0.1-1.4c-0.1-0.5-0.1-1,0-1.4c0-0.1,0-0.1,0-0.2c0-0.5,0-1,0-1.5c-0.1-0.4-0.1-0.8,0-1.2
		c0-0.4,0.1-0.7-0.1-1.1c0.1,0,0.1,0,0.1-0.1c0.1-0.3,0-0.5,0-0.8c0.1-1.4,0.1-2.9,0.1-4.3c0-0.9,0.1-1.8,0.2-2.6
		c0.1-0.7,0.1-1.4,0.2-2.1c0.1-1.1-0.1-2.2,0-3.3c0.1-0.7,0-1.4,0-2.1c0-0.7,0-1.5,0-2.2c0-0.3,0.1-0.5,0.1-0.8
		c-0.1-0.4-0.1-0.8-0.1-1.1c0.1-0.6,0.1-1.1,0.1-1.6c0-0.7,0-1.3-0.1-2c-0.1-0.4,0.1-0.8-0.1-1.2c-0.2-0.5,0-1.1,0.1-1.6
		c0.1-0.5,0.2-0.9,0.2-1.4c0-0.2-0.1-0.4-0.1-0.6c0.1-0.2,0-0.4,0-0.5c-0.1-0.5-0.1-1-0.2-1.5c0-0.4,0.1-0.7,0.1-1.1
		c0-0.7-0.1-1.4,0.1-2c0.1-0.3,0.2-0.5,0.1-0.8c-0.1-0.4-0.2-0.8-0.2-1.3c0-0.2,0.2-0.4,0.3-0.6c0.1-1,0.1-2,0.1-3
		c0-0.8,0-1.6,0-2.5c0-0.7,0.1-1.5,0.1-2.2c0-1.4,0-2.9,0-4.3c0-0.3,0-0.5,0-0.8c0.1-0.5,0-1,0.1-1.5c0.1-0.6,0-1.2,0-1.8
		c0-0.5,0.1-0.9-0.1-1.4c-0.1-0.1-0.1-0.3,0-0.4c0.2-0.3,0.2-0.6,0.2-0.9c0-0.5,0-1,0-1.4c0-0.5,0-1-0.2-1.4
		c-0.2-0.3-0.2-0.6,0.1-0.9c0.2-0.2,0.3-0.5,0.3-0.8c0-0.5-0.1-0.9-0.1-1.4c0-0.8,0-1.6,0-2.3c0-0.6,0-1.2,0.1-1.8
		c0.1-0.5,0.2-1.1-0.1-1.6c0-0.1,0-0.1,0-0.2c0.2-0.3,0.2-0.6,0.1-0.9c0-0.1,0-0.1,0-0.2c0-0.1,0.1-0.2,0-0.3c0-0.1,0-0.2,0-0.2
		c0.1-0.1,0.1-0.2,0-0.3c0-0.1,0-0.2,0-0.2c0-0.1,0-0.2,0-0.3c0-0.1,0-0.2,0-0.2c0,0,0-0.1,0-0.1c0-0.1,0-0.3,0-0.4c0,0,0-0.1,0-0.1
		c0-0.1,0-0.3,0-0.4c0.1-0.1,0.2-0.3,0.1-0.4c0-0.1,0-0.2,0-0.4c0-0.4,0.1-0.9,0-1.3c0,0,0-0.1,0-0.1c0,0,0,0.1,0,0.1
		c0,0,0.1-0.1,0.1-0.1c0.2-0.4,0.3-0.4,0.7-0.1c0.4,0.2,0.7,0.5,1,0.8c0.5,0.3,1,0.6,1.5,1c0,0,0,0,0,0c0.2,0.1,0.3,0.3,0.6,0.3
		c0.2,0,0.3,0,0.5,0c0.1,0,0.1,0,0.2,0c0.1,0,0.1,0,0.2,0c0.1,0,0.1,0,0.2,0c0.1,0,0.1,0,0.2,0c0.1,0,0.1,0,0.2,0
		c0.9-0.2,1.6-0.5,2.2-1c0.5-0.5,0.8-1.1,0.8-1.7C251.1,35.6,250.7,34,250.1,33.4"/>
</g>
</g>
</svg>
