<?xml version="1.0" encoding="utf-8"?>
<!-- Generator: Adobe Illustrator 18.1.1, SVG Export Plug-In . SVG Version: 6.00 Build 0)  -->
<!DOCTYPE svg PUBLIC "-//W3C//DTD SVG 1.1//EN" "http://www.w3.org/Graphics/SVG/1.1/DTD/svg11.dtd">
<svg version="1.1" id="logo" xmlns="http://www.w3.org/2000/svg" xmlns:xlink="http://www.w3.org/1999/xlink" x="0px" y="0px"
	 viewBox="82 83.2 627.8 445.2" enable-background="new 82 83.2 627.8 445.2" xml:space="preserve">
<g>
	<g>
		<path fill="#FFFFFF" d="M185.4,518.3c-9.4-8.2-11.6-19.2-11.6-28.6c0-6.3,2.2-17.6,10.7-26.4c5.8-5.8,14.6-10.2,29.4-10.2
			c3.9,0,9.4,0.3,14,1.1c3.6,0.5,6.9,1.4,9.9,1.4c1.1,0,1.4,0.5,1.4,1.1c0,0.8-0.3,1.9-0.5,5.5c-0.3,3.3-0.3,8.5-0.3,9.9
			s-0.3,1.9-0.8,1.9c-0.5,0-0.8-0.5-0.8-1.9c0-3.8-1.7-7.7-4.1-9.9c-3.3-2.8-10.7-5.5-19.2-5.5c-12.9,0-18.7,3.9-22.3,7.2
			c-7.1,6.9-8.8,15.4-8.8,25c0,18.4,14,35.2,34.6,35.2c7.1,0,12.9-0.8,16.8-5c1.9-2.2,3.3-6.3,3.6-8c0.3-1.1,0.3-1.4,0.8-1.4
			c0.5,0,0.5,0.5,0.5,1.4c0,0.5-1.1,9.1-2.2,12.4c-0.5,1.9-0.8,1.9-2.5,2.8c-3.9,1.7-11.3,2.2-17.3,2.2
			C202.7,528.8,192.8,525.2,185.4,518.3z"/>
		<path fill="#FFFFFF" d="M267.6,482.5c0-15.1,0-17.6-0.3-20.9c-0.3-3.3-1.1-5-4.1-5.5c-0.8-0.3-2.5-0.3-3.3-0.3
			c-0.3,0-0.8-0.3-0.8-0.6c0-0.5,0.5-0.8,1.6-0.8c4.4,0,10.5,0.3,11,0.3c1.1,0,8.2-0.3,11.3-0.3c6,0,12.6,0.5,17.6,4.1
			c2.5,1.6,6.6,6.3,6.6,13.2c0,7.2-3,14.3-11.5,22.3c8,10.2,14.6,18.7,20.1,24.8c5.2,5.5,9.4,6.6,11.8,6.9c1.9,0.3,3.3,0.3,3.9,0.3
			c0.5,0,0.8,0.3,0.8,0.5c0,0.5-0.5,0.8-2.2,0.8h-6.9c-5.5,0-7.7-0.5-10.2-1.9c-4.1-2.2-7.4-6.9-12.9-14
			c-4.1-5.2-8.5-11.8-10.5-14.3c-0.3-0.3-0.5-0.5-1.4-0.5l-11.8-0.3c-0.5,0-0.5,0.3-0.5,0.8v2.2c0,9.3,0,16.8,0.5,20.9
			c0.3,2.8,0.8,5,3.9,5.2c1.4,0.3,3.6,0.3,4.4,0.3c0.5,0,0.8,0.3,0.8,0.5c0,0.5-0.5,0.8-1.6,0.8c-5.2,0-11.3-0.3-11.8-0.3
			c0,0-6,0.3-9.1,0.3c-1.1,0-1.6-0.3-1.6-0.8c0-0.3,0.3-0.5,0.8-0.5c0.8,0,1.9-0.3,3-0.3c1.9-0.3,2.5-2.5,2.8-5.2
			c0.5-4.1,0.5-11.5,0.5-20.9v-16.8H267.6z M275.3,490.8c0,0.5,0.3,0.8,0.5,1.1c1.4,0.8,5.8,1.7,10.2,1.7c2.2,0,5-0.3,7.1-1.9
			c3.3-2.2,5.8-7.4,5.8-14.8c0-12.1-6.3-19.2-16.8-19.2c-2.8,0-5.5,0.3-6.3,0.5c-0.5,0.3-0.8,0.5-0.8,1.1v31.6H275.3z"/>
		<path fill="#FFFFFF" d="M340.7,482.5c0-15.1,0-17.6-0.3-20.9c-0.3-3.3-0.8-5-4.1-5.5c-0.8-0.3-2.5-0.3-3.3-0.3
			c-0.3,0-0.8-0.3-0.8-0.6c0-0.5,0.5-0.8,1.6-0.8c4.4,0,10.2,0.3,11,0.3s6.6-0.3,9.6-0.3c1.1,0,1.7,0.3,1.7,0.8
			c0,0.3-0.3,0.6-0.8,0.6s-1.4,0-2.5,0.3c-2.5,0.3-3.3,2.2-3.6,5.5c-0.3,3-0.3,5.8-0.3,20.9V496c0,13.8,3,19.8,7.1,23.7
			c4.7,4.4,9.1,5.2,14.6,5.2c5.8,0,11.5-2.8,15.1-6.9c4.4-5.5,5.5-13.8,5.5-23.6v-12.1c0-15.1,0-17.6-0.3-20.9s-0.8-5-4.1-5.5
			c-0.8-0.3-2.5-0.3-3.3-0.3c-0.3,0-0.8-0.3-0.8-0.5c0-0.5,0.5-0.8,1.7-0.8c4.4,0,9.6,0.3,10.2,0.3s5.2-0.3,8-0.3
			c1.1,0,1.7,0.3,1.7,0.8c0,0.3-0.3,0.5-0.8,0.5s-1.4,0-2.5,0.3c-2.5,0.5-3.3,2.2-3.6,5.5c-0.3,3-0.3,5.8-0.3,20.9v10.2
			c0,10.5-1.1,22-8.8,28.9c-6.9,6-14,7.2-19.8,7.2c-3.3,0-12.9-0.3-19.8-6.9c-4.7-4.4-8.2-11.3-8.2-25.3v-13.8H340.7z"/>
		<path fill="#FFFFFF" d="M440,499.3c0,9.3,0,16.8,0.5,20.9c0.3,2.8,0.8,5,3.8,5.2c1.4,0.3,3.6,0.3,4.4,0.3c0.5,0,0.8,0.3,0.8,0.5
			c0,0.5-0.5,0.8-1.7,0.8c-5.2,0-11.3-0.3-11.8-0.3s-6.6,0.3-9.3,0.3c-1.1,0-1.7-0.3-1.7-0.8c0-0.3,0.3-0.5,0.8-0.5
			c0.8,0,1.9-0.3,3-0.3c1.9-0.3,2.5-2.5,2.8-5.2c0.5-4.1,0.5-11.5,0.5-20.9v-17c0-15.1,0-17.6-0.3-20.9c-0.3-3.3-1.1-5-3.3-5.5
			c-1.1-0.3-2.2-0.3-3-0.3c-0.3,0-0.8-0.3-0.8-0.5c0-0.5,0.5-0.8,1.6-0.8c3.3,0,9.4,0.3,9.6,0.3c0.5,0,6.6-0.3,9.4-0.3
			c1.1,0,1.6,0.3,1.6,0.8c0,0.3-0.3,0.5-0.8,0.5c-0.5,0-1.4,0-2.5,0.3c-2.5,0.5-3.3,2.2-3.6,5.5c-0.3,3-0.3,5.8-0.3,20.9L440,499.3
			L440,499.3z"/>
		<path fill="#FFFFFF" d="M471.9,526c-1.4-0.5-1.4-1.1-1.4-3.6c0-5,0.3-8.8,0.5-10.2c0-1.1,0.3-1.7,0.8-1.7s0.5,0.3,0.5,1.1
			c0,0.8,0,2.2,0.3,3.6c1.4,7.2,7.7,9.9,14.3,9.9c9.3,0,13.8-6.6,13.8-12.9c0-6.6-2.8-10.5-11-17.3l-4.4-3.6
			c-10.2-8.2-12.4-14.3-12.4-20.9c0-10.2,7.7-17.3,19.8-17.3c3.8,0,6.6,0.3,9.1,0.8c1.9,0.3,2.5,0.6,3.3,0.6s1.1,0.3,1.1,0.5
			c0,0.5-0.3,3.6-0.3,10.2c0,1.7-0.3,2.2-0.6,2.2c-0.5,0-0.5-0.5-0.8-1.4c0-1.1-0.6-3.9-1.4-5c-0.6-1.1-3.3-5.2-12.1-5.2
			c-6.6,0-11.8,4.1-11.8,11.3c0,5.5,2.5,9.1,11.8,16.2l2.8,2.2c11.3,9.1,14,14.9,14,22.6c0,3.8-1.7,11.3-8.2,15.9
			c-4.1,2.8-9.3,4.1-14.6,4.1C480.4,528.8,475.8,527.9,471.9,526z"/>
		<path fill="#FFFFFF" d="M536.5,482.5c0-15.1,0-17.6-0.3-20.9c-0.3-3.3-0.8-5-4.1-5.5c-0.8-0.3-2.5-0.3-3.3-0.3
			c-0.3,0-0.8-0.3-0.8-0.6c0-0.5,0.5-0.8,1.7-0.8c2.2,0,5,0,6.9,0l3.8,0.3c0.5,0,19.8,0,22,0c1.9,0,3.3-0.3,4.1-0.5
			c0.5,0,0.8-0.5,1.4-0.5c0.3,0,0.3,0.3,0.3,0.8s-0.5,1.9-0.8,4.4c0,0.8-0.3,5.2-0.5,6.3c0,0.5-0.3,1.1-0.5,1.1
			c-0.5,0-0.8-0.5-0.8-1.4c0-0.5,0-2.2-0.5-3.6c-0.5-1.7-1.7-2.8-6.9-3.3c-1.7-0.3-12.1-0.3-13.2-0.3c-0.3,0-0.5,0.3-0.5,0.8v26.7
			c0,0.5,0,0.8,0.5,0.8c1.4,0,13.2,0,15.4-0.3s3.6-0.3,4.4-1.4c0.5-0.8,1.1-1.4,1.4-1.4c0.3,0,0.5,0.3,0.5,0.8s-0.5,2.2-0.8,5.5
			c-0.3,1.9-0.3,5.5-0.3,6c0,0.8,0,1.9-0.5,1.9s-0.5-0.3-0.5-0.8c0-0.8,0-1.9-0.3-3.3s-1.4-3-5-3.3c-2.5-0.3-12.1-0.5-13.8-0.5
			c-0.5,0-0.5,0.3-0.5,0.5v8.5c0,3.3,0,14.3,0,16.5c0.3,6.6,1.7,8,11.3,8c2.5,0,6.9,0,9.3-1.1s3.6-3,4.4-6.9
			c0.3-1.1,0.3-1.4,0.8-1.4s0.5,0.8,0.5,1.4c0,0.8-0.8,7.4-1.4,9.3c-0.5,2.5-1.4,2.5-5.2,2.5c-7.2,0-12.7-0.3-16.2-0.3
			c-3.8-0.3-6-0.3-7.4-0.3c-0.3,0-1.9,0-3.8,0s-4.1,0.3-5.5,0.3c-1.1,0-1.7-0.3-1.7-0.8c0-0.3,0.3-0.5,0.8-0.5c0.8,0,1.9-0.3,3-0.3
			c1.9-0.3,2.5-2.5,2.8-5.2c0.5-4.1,0.5-11.5,0.5-20.9v-16.2H536.5z"/>
		<path fill="#FFFFFF" d="M593.2,526c-1.4-0.5-1.4-1.1-1.4-3.6c0-5,0.3-8.8,0.5-10.2c0-1.1,0.3-1.7,0.8-1.7s0.5,0.3,0.5,1.1
			c0,0.8,0,2.2,0.3,3.6c1.4,7.2,7.7,9.9,14.3,9.9c9.3,0,13.8-6.6,13.8-12.9c0-6.6-2.8-10.5-11-17.3l-4.4-3.6
			c-10.2-8.2-12.7-14.3-12.7-20.9c0-10.2,7.7-17.3,19.8-17.3c3.8,0,6.6,0.3,9.1,0.8c1.9,0.3,2.5,0.6,3.3,0.6s0.8,0.3,0.8,0.5
			c0,0.5-0.3,3.6-0.3,10.2c0,1.7-0.3,2.2-0.5,2.2c-0.5,0-0.5-0.5-0.8-1.4c0-1.1-0.5-3.9-1.4-5c-0.5-1.1-3.3-5.2-12.1-5.2
			c-6.6,0-11.8,4.1-11.8,11.3c0,5.5,2.5,9.1,11.8,16.2l2.8,2.2c11.3,9.1,14,14.9,14,22.6c0,3.8-1.7,11.3-8.2,15.9
			c-4.1,2.8-9.3,4.1-14.6,4.1C601.7,528.8,597.3,527.9,593.2,526z"/>
	</g>
	<g>
		<path fill="#FFFFFF" d="M139.7,406.1c8-18.2,26.1-66,29.2-75.6c0.6-1.9,1.1-3.9,1.1-5.2c0-1.1-0.3-2.5-1.6-3
			c-1.7-0.5-3.6-0.5-5.2-0.5c-0.8,0-1.4-0.3-1.4-0.8c0-0.8,0.8-1.1,3-1.1c5.5,0,11.8,0.3,13.5,0.3c0.8,0,6.6-0.3,10.7-0.3
			c1.4,0,2.2,0.3,2.2,0.8c0,0.5-0.5,0.8-1.6,0.8c-0.8,0-3.9,0-6.6,1.6c-1.6,1.1-3.9,3.6-7.4,12.9c-1.4,3.9-8.2,20.1-15.4,36.8
			c-8.2,19.8-14.6,34.7-17.6,41.2c-3.9,8.2-4.4,10.5-5.8,10.5c-1.6,0-2.2-1.9-4.9-8.5l-33.6-83.6c-3-7.7-4.9-9.1-9.9-10.5
			c-1.9-0.5-4.4-0.5-5.2-0.5s-1.1-0.5-1.1-0.8c0-0.8,1.4-0.8,3.6-0.8c6.6,0,14.3,0.3,15.9,0.3c1.4,0,7.4-0.3,12.6-0.3
			c2.5,0,3.6,0.3,3.6,0.8c0,0.5-0.3,0.8-1.4,0.8c-1.4,0-3.9,0-5.2,0.5s-1.6,1.6-1.6,2.8c0,1.6,1.6,6,3.6,11.3L139.7,406.1z"/>
		<path fill="#FFFFFF" d="M240.4,383.3c0,13.2,0,23.9,0.5,29.7c0.3,3.8,1.1,6.9,5.2,7.4c1.9,0.3,5,0.5,6,0.5c0.8,0,1.1,0.3,1.1,0.8
			s-0.5,1.1-2.2,1.1c-7.4,0-16.2-0.3-16.8-0.3s-9.4,0.3-13.5,0.3c-1.4,0-2.2-0.3-2.2-1.1c0-0.3,0.3-0.8,1.1-0.8
			c1.1,0,2.8-0.3,4.1-0.5c2.8-0.5,3.3-3.6,3.9-7.4c0.5-5.8,0.5-16.5,0.5-29.7v-23.9c0-21.2,0-25-0.3-29.4c-0.3-4.7-1.6-6.9-4.7-7.7
			c-1.4-0.3-3.3-0.5-4.1-0.5c-0.5,0-1.1-0.3-1.1-0.8c0-0.8,0.5-1.1,2.2-1.1c4.4,0,13.2,0.3,13.8,0.3s9.4-0.3,13.5-0.3
			c1.4,0,2.2,0.3,2.2,1.1c0,0.5-0.6,0.8-1.1,0.8c-0.8,0-1.6,0-3.3,0.3c-3.6,0.5-4.7,3-5,7.7c-0.3,4.4-0.3,8.2-0.3,29.4v24.2H240.4z"
			/>
		<path fill="#FFFFFF" d="M297.3,359.4c0-21.2,0-25-0.3-29.4c-0.3-4.7-1.4-6.9-5.8-7.7c-1.1-0.3-3.3-0.3-4.7-0.3
			c-0.5,0-1.1-0.3-1.1-0.8c0-0.8,0.5-1.1,2.2-1.1c6,0,14.3,0.3,15.1,0.3c1.1,0,9.1-0.3,13.2-0.3c1.4,0,2.2,0.3,2.2,1.1
			c0,0.5-0.5,0.8-1.1,0.8c-0.8,0-1.6,0-3.3,0.3c-3.6,0.5-4.7,3-5,7.7c-0.3,4.4-0.3,8.2-0.3,29.4v8.2h0.6c2.2-2.5,26.9-27.8,31.9-33
			c3.9-3.9,7.4-7.4,7.4-9.9c0-1.6-0.5-2.5-1.6-2.8c-0.5-0.3-1.1-0.5-1.1-1.1c0-0.5,0.5-0.8,1.6-0.8c2.8,0,6.9,0.3,10.2,0.3
			c0.5,0,9.6-0.3,13.2-0.3c1.4,0,1.9,0.3,1.9,0.8c0,0.5-0.3,0.8-1.4,0.8c-1.9,0-5,0.5-7.7,1.9c-5.5,2.5-8.5,5.8-14.9,11.8
			c-3.3,3.3-27.2,26.4-30,30c3.6,3.9,31.9,33.3,37.4,38.5c11.5,10.7,13.8,12.9,20.3,15.7c3.6,1.4,7.4,1.7,8.5,1.7
			c0.8,0,1.7,0.3,1.7,0.8s-0.5,1.1-3,1.1h-6.9c-3.8,0-6.3,0-9.3-0.3c-7.2-0.6-10.7-3.6-16.5-8.2c-6-5-34.9-36.3-41.5-44.3h-0.6v13.5
			c0,13.2,0,23.9,0.6,29.7c0.3,3.8,1.1,6.9,5.2,7.4c1.9,0.3,4.1,0.5,5.2,0.5c0.8,0,1.1,0.3,1.1,0.8s-0.5,1.1-2.2,1.1
			c-6.6,0-14.6-0.3-15.7-0.3c-1.1,0-9.1,0.3-13.2,0.3c-1.4,0-2.2-0.3-2.2-1.1c0-0.3,0.3-0.8,1.1-0.8c1.1,0,2.8-0.3,4.1-0.5
			c2.8-0.5,3.3-3.6,3.9-7.4c0.5-5.8,0.5-16.5,0.5-29.7L297.3,359.4L297.3,359.4z"/>
		<path fill="#FFFFFF" d="M430.1,383.3c0,13.2,0,23.9,0.5,29.7c0.3,3.8,1.1,6.9,5.2,7.4c1.9,0.3,4.9,0.5,6,0.5
			c0.8,0,1.1,0.3,1.1,0.8s-0.5,1.1-2.2,1.1c-7.4,0-16.2-0.3-16.8-0.3c-0.5,0-9.3,0.3-13.5,0.3c-1.4,0-2.2-0.3-2.2-1.1
			c0-0.3,0.3-0.8,1.1-0.8c1.1,0,2.8-0.3,4.1-0.5c2.8-0.5,3.3-3.6,3.9-7.4c0.5-5.8,0.5-16.5,0.5-29.7v-23.9c0-21.2,0-25-0.3-29.4
			c-0.3-4.7-1.7-6.9-4.7-7.7c-1.4-0.3-3.3-0.5-4.1-0.5c-0.5,0-1.1-0.3-1.1-0.8c0-0.8,0.5-1.1,2.2-1.1c4.4,0,13.2,0.3,13.8,0.3
			c0.5,0,9.3-0.3,13.5-0.3c1.4,0,2.2,0.3,2.2,1.1c0,0.5-0.5,0.8-1.1,0.8c-0.8,0-1.6,0-3.3,0.3c-3.6,0.5-4.7,3-5,7.7
			c-0.3,4.4-0.3,8.2-0.3,29.4v24.2H430.1z"/>
		<path fill="#FFFFFF" d="M492,404.2c0.3,11.3,1.7,14.8,5.2,16c2.5,0.5,5.5,0.8,6.9,0.8c0.6,0,1.1,0.3,1.1,0.8
			c0,0.8-0.8,1.1-2.5,1.1c-7.7,0-13.2-0.3-14.6-0.3c-1.1,0-6.9,0.3-13.2,0.3c-1.4,0-2.2,0-2.2-1.1c0-0.5,0.3-0.8,1.1-0.8
			c1.1,0,3.6,0,5.5-0.8c3.3-0.8,4.1-5,4.1-17.3v-78.1c0-5.2,0.3-6.9,1.4-6.9s3.3,3,4.7,4.4c1.9,2.2,22.3,24.2,43.5,46.8
			c13.5,14.6,28.3,31.1,32.7,35.5l-1.4-69.3c0-8.8-1.1-11.8-5.2-12.9c-2.5-0.5-5.5-0.5-6.6-0.5c-0.8,0-1.1-0.5-1.1-0.8
			c0-0.8,1.1-0.8,2.8-0.8c6,0,12.7,0.3,14.3,0.3c1.4,0,6-0.3,11.5-0.3c1.4,0,2.5,0,2.5,0.8c0,0.5-0.6,0.8-1.4,0.8
			c-0.6,0-1.7,0-3.3,0.3c-4.4,0.8-4.9,3.9-4.9,12.1l-0.3,80c0,9.1-0.3,9.6-1.1,9.6c-1.1,0-2.8-1.4-9.9-8.8
			c-1.4-1.4-21.2-21.5-35.5-36.8c-16-17.1-31.4-34.1-35.5-39.1L492,404.2z"/>
		<path fill="#FFFFFF" d="M688.3,388c0-11-0.5-12.7-6-14c-1.1-0.3-3.3-0.5-4.7-0.5c-0.5,0-1.1-0.3-1.1-0.8c0-0.8,0.5-1.1,2.2-1.1
			c6,0,14.8,0.3,15.4,0.3c0.6,0,9.4-0.3,13.5-0.3c1.4,0,2.2,0.3,2.2,1.1c0,0.5-0.6,0.8-1.1,0.8c-0.8,0-1.7,0.3-3.3,0.5
			c-3.6,0.5-4.7,3-5,7.7c-0.3,4.4-0.3,8.5-0.3,14.3v15.4c0,6,0,6.3-1.7,7.4c-8.8,4.7-20.9,6-28.9,6c-10.5,0-29.7-1.4-44.8-14.6
			c-8.2-7.2-16.2-21.7-16.2-38.8c0-21.7,10.7-37.1,22.8-44.8c12.4-7.7,25.8-8.5,36.3-8.5c8.5,0,18.2,1.6,20.9,2.2
			c2.8,0.6,7.7,1.1,11,1.4c1.4,0.3,1.7,0.6,1.7,1.1c0,1.9-0.8,5.8-0.8,19.2c0,2.2-0.3,2.8-1.1,2.8c-0.5,0-0.8-0.8-0.8-1.9
			c-0.3-1.9-0.8-5.8-2.8-9.1c-3.3-5.2-14.6-11-32.2-11c-8.5,0-18.7,0.8-29.2,9.1c-8,6.3-13.5,18.7-13.5,34.7
			c0,19.2,9.6,33.3,14.6,37.7c10.7,10.5,23.1,14.6,35.8,14.6c5,0,12.1-0.8,15.7-2.8c1.7-0.8,2.8-2.5,2.8-4.7V388H688.3z"/>
	</g>
	<g>
		<g>
			<g>
				<path fill="#FFFFFF" d="M304.1,100h20.1c57.2,40.7,81.1,64.1,77,84.4c-5,23.9-34.9,41.5-96.8,68.8l-8.5-0.5
					c70.7-29.7,96-54.2,90.8-74.2C381.2,157.2,360,142.6,304.1,100L304.1,100z"/>
				<path fill="#FFFFFF" d="M344,99.8h19.8c59.1,40.4,74.2,67.4,65.2,83.6c-15.7,28.3-52,46.2-109.5,69.3l-8.2,0.5
					c61.9-26.7,102.9-49.5,105-74.5C418.3,157.8,400.1,142.4,344,99.8L344,99.8z"/>
				<path fill="#FFFFFF" d="M383.6,100h19.8c57.2,40.4,66.3,65.2,53.9,84.1c-18.7,28.9-61.6,46.2-121,69h-8.8
					c74.2-30.5,105.6-47.9,115.5-69.9C454.8,157.5,434.5,139.1,383.6,100L383.6,100z"/>
				<path fill="#FFFFFF" d="M423.2,100H443c53.6,45.1,55.8,66.8,44.3,83.1c-20.1,28.1-81.4,55.8-135,70.1h-8.8
					c64.6-22.5,109.7-39.3,129-70.7C486.2,160.8,472.5,140.7,423.2,100L423.2,100z"/>
				<path fill="#FFFFFF" d="M462.8,100h19.8c33,34.4,44.8,63.5,33,83.3c-23.4,39.6-99.3,58.6-147.7,69.8h-8.8
					c66-17.9,125.1-38.5,141.6-70.1C510.4,164.9,504.9,141.3,462.8,100L462.8,100z"/>
				<path fill="#FFFFFF" d="M542.6,144c10.7,85-69.6,100.4-70.4,101.2c-5.2,1.7-17.3,4.7-17.3,4.7c-49,9.6-116.9,10.4-152.1,4.9
					c-37.4-5.8-63.2-17.9-69-40.4c28.3,44.5,164.2,44.8,236,22.8c46.5-16.8,66.3-46.2,65.7-90.2l0,0c-0.3-4.7-0.3-16.2,4.7-21.7
					c6.6-7.4,22.8-4.9,24.5,6.1c2.2,15.9-19.8,16.2-19,3.3c0.5-6.3,10.7-8.8,12.7-2.5c1.4,5.2-4.4,7.1-7.2,5.2
					c-1.4-1.1-1.7-1.9-1.1-2.8c0.8-0.8,1.9-0.8,2.5,0c0.3,1.1,1.4,1.4,2.2,0.8c1.9-1.1,0.3-5.2-3.6-3.9c-2.2,0.8-3.8,5.2-0.3,8
					c8.5,4.1,12.7-6.3,7.4-11.6c-2.2-2.5-4.7-2.5-6.6-2.2C543.4,126.4,542.3,135.5,542.6,144"/>
			</g>
			<path fill="#FFFFFF" d="M490.9,280.1c0,0,14.6,0.8,36.8-9.6c21.2-9.9,66.3-43.7,22.5-114.1c-1.1,12.4-1.1,51.4-38.5,77.6
				c-34.9,27.8-185.4,40.7-247.5,16.5c-25.6-12.4-30.5-27.2-30.5-27.2s5.2,55,29.7,56.4L490.9,280.1z"/>
		</g>
	</g>
	<path fill="#FFFFFF" d="M557.7,263.6c5,0,9.1,4.1,9.1,9.4s-4.1,9.4-9.1,9.4s-9.1-4.1-9.1-9.4C548.3,267.8,552.5,263.6,557.7,263.6
		L557.7,263.6z M557.7,265c-4.1,0-7.4,3.6-7.4,7.7c0,4.4,3.3,8,7.4,8s7.4-3.6,7.4-7.7C565.1,268.6,561.8,265,557.7,265L557.7,265z
		 M556,278.2h-1.7v-10.5c0.8,0,1.7-0.3,3-0.3c1.7,0,2.5,0.3,3.3,0.8c0.5,0.5,0.8,1.1,0.8,2.2c0,1.4-0.8,2.2-1.9,2.5l0,0
		c0.8,0.3,1.7,1.1,1.7,2.5c0.3,1.6,0.5,2.2,0.5,2.5h-1.7c-0.3-0.3-0.5-1.4-0.8-2.8s-0.8-1.9-2.2-1.9H556V278.2z M556,272.5h1.1
		c1.4,0,2.5-0.5,2.5-1.6c0-0.8-0.5-1.9-2.5-1.9c-0.5,0-0.8,0-1.1,0V272.5z"/>
	<g>
		<rect x="296.2" y="98.1" fill="#FFFFFF" width="193.9" height="2.8"/>
		<rect x="399" y="83.2" fill="#FFFFFF" width="2.8" height="15.9"/>
	</g>
</g>
</svg>
