<?xml version="1.0" encoding="utf-8"?>
<!-- Generator: Adobe Illustrator 18.1.0, SVG Export Plug-In . SVG Version: 6.00 Build 0)  -->
<svg version="1.1" id="logo" xmlns="http://www.w3.org/2000/svg" xmlns:xlink="http://www.w3.org/1999/xlink" x="0px" y="0px"
	 viewBox="0 0 288 216" enable-background="new 0 0 288 216" xml:space="preserve">
<g>
	<g>
		<path fill="#FFFFFF" d="M67.4,185.2c-3.4-3-4.2-7-4.2-10.4c0-2.3,0.8-6.4,3.9-9.6c2.1-2.1,5.3-3.7,10.7-3.7c1.4,0,3.4,0.1,5.1,0.4
			c1.3,0.2,2.5,0.5,3.6,0.5c0.4,0,0.5,0.2,0.5,0.4c0,0.3-0.1,0.7-0.2,2c-0.1,1.2-0.1,3.1-0.1,3.6c0,0.5-0.1,0.7-0.3,0.7
			c-0.2,0-0.3-0.2-0.3-0.7c0-1.4-0.6-2.8-1.5-3.6c-1.2-1-3.9-2-7-2c-4.7,0-6.8,1.4-8.1,2.6c-2.6,2.5-3.2,5.6-3.2,9.1
			c0,6.7,5.1,12.8,12.6,12.8c2.6,0,4.7-0.3,6.1-1.8c0.7-0.8,1.2-2.3,1.3-2.9c0.1-0.4,0.1-0.5,0.3-0.5c0.2,0,0.2,0.2,0.2,0.5
			c0,0.2-0.4,3.3-0.8,4.5c-0.2,0.7-0.3,0.7-0.9,1c-1.4,0.6-4.1,0.8-6.3,0.8C73.7,189,70.1,187.7,67.4,185.2z"/>
		<path fill="#FFFFFF" d="M97.3,172.2c0-5.5,0-6.4-0.1-7.6c-0.1-1.2-0.4-1.8-1.5-2c-0.3-0.1-0.9-0.1-1.2-0.1c-0.1,0-0.3-0.1-0.3-0.2
			c0-0.2,0.2-0.3,0.6-0.3c1.6,0,3.8,0.1,4,0.1c0.4,0,3-0.1,4.1-0.1c2.2,0,4.6,0.2,6.4,1.5c0.9,0.6,2.4,2.3,2.4,4.8
			c0,2.6-1.1,5.2-4.2,8.1c2.9,3.7,5.3,6.8,7.3,9c1.9,2,3.4,2.4,4.3,2.5c0.7,0.1,1.2,0.1,1.4,0.1c0.2,0,0.3,0.1,0.3,0.2
			c0,0.2-0.2,0.3-0.8,0.3h-2.5c-2,0-2.8-0.2-3.7-0.7c-1.5-0.8-2.7-2.5-4.7-5.1c-1.5-1.9-3.1-4.3-3.8-5.2c-0.1-0.1-0.2-0.2-0.5-0.2
			l-4.3-0.1c-0.2,0-0.2,0.1-0.2,0.3v0.8c0,3.4,0,6.1,0.2,7.6c0.1,1,0.3,1.8,1.4,1.9c0.5,0.1,1.3,0.1,1.6,0.1c0.2,0,0.3,0.1,0.3,0.2
			c0,0.2-0.2,0.3-0.6,0.3c-1.9,0-4.1-0.1-4.3-0.1c0,0-2.2,0.1-3.3,0.1c-0.4,0-0.6-0.1-0.6-0.3c0-0.1,0.1-0.2,0.3-0.2
			c0.3,0,0.7-0.1,1.1-0.1c0.7-0.1,0.9-0.9,1-1.9c0.2-1.5,0.2-4.2,0.2-7.6V172.2z M100.1,175.2c0,0.2,0.1,0.3,0.2,0.4
			c0.5,0.3,2.1,0.6,3.7,0.6c0.8,0,1.8-0.1,2.6-0.7c1.2-0.8,2.1-2.7,2.1-5.4c0-4.4-2.3-7-6.1-7c-1,0-2,0.1-2.3,0.2
			c-0.2,0.1-0.3,0.2-0.3,0.4V175.2z"/>
		<path fill="#FFFFFF" d="M123.9,172.2c0-5.5,0-6.4-0.1-7.6c-0.1-1.2-0.3-1.8-1.5-2c-0.3-0.1-0.9-0.1-1.2-0.1
			c-0.1,0-0.3-0.1-0.3-0.2c0-0.2,0.2-0.3,0.6-0.3c1.6,0,3.7,0.1,4,0.1c0.3,0,2.4-0.1,3.5-0.1c0.4,0,0.6,0.1,0.6,0.3
			c0,0.1-0.1,0.2-0.3,0.2c-0.2,0-0.5,0-0.9,0.1c-0.9,0.1-1.2,0.8-1.3,2c-0.1,1.1-0.1,2.1-0.1,7.6v4.9c0,5,1.1,7.2,2.6,8.6
			c1.7,1.6,3.3,1.9,5.3,1.9c2.1,0,4.2-1,5.5-2.5c1.6-2,2-5,2-8.6v-4.4c0-5.5,0-6.4-0.1-7.6c-0.1-1.2-0.3-1.8-1.5-2
			c-0.3-0.1-0.9-0.1-1.2-0.1c-0.1,0-0.3-0.1-0.3-0.2c0-0.2,0.2-0.3,0.6-0.3c1.6,0,3.5,0.1,3.7,0.1c0.2,0,1.9-0.1,2.9-0.1
			c0.4,0,0.6,0.1,0.6,0.3c0,0.1-0.1,0.2-0.3,0.2c-0.2,0-0.5,0-0.9,0.1c-0.9,0.2-1.2,0.8-1.3,2c-0.1,1.1-0.1,2.1-0.1,7.6v3.7
			c0,3.8-0.4,8-3.2,10.5c-2.5,2.2-5.1,2.6-7.2,2.6c-1.2,0-4.7-0.1-7.2-2.5c-1.7-1.6-3-4.1-3-9.2V172.2z"/>
		<path fill="#FFFFFF" d="M160,178.3c0,3.4,0,6.1,0.2,7.6c0.1,1,0.3,1.8,1.4,1.9c0.5,0.1,1.3,0.1,1.6,0.1c0.2,0,0.3,0.1,0.3,0.2
			c0,0.2-0.2,0.3-0.6,0.3c-1.9,0-4.1-0.1-4.3-0.1c-0.2,0-2.4,0.1-3.4,0.1c-0.4,0-0.6-0.1-0.6-0.3c0-0.1,0.1-0.2,0.3-0.2
			c0.3,0,0.7-0.1,1.1-0.1c0.7-0.1,0.9-0.9,1-1.9c0.2-1.5,0.2-4.2,0.2-7.6v-6.2c0-5.5,0-6.4-0.1-7.6c-0.1-1.2-0.4-1.8-1.2-2
			c-0.4-0.1-0.8-0.1-1.1-0.1c-0.1,0-0.3-0.1-0.3-0.2c0-0.2,0.2-0.3,0.6-0.3c1.2,0,3.4,0.1,3.5,0.1c0.2,0,2.4-0.1,3.4-0.1
			c0.4,0,0.6,0.1,0.6,0.3c0,0.1-0.1,0.2-0.3,0.2c-0.2,0-0.5,0-0.9,0.1c-0.9,0.2-1.2,0.8-1.3,2c-0.1,1.1-0.1,2.1-0.1,7.6V178.3z"/>
		<path fill="#FFFFFF" d="M171.6,188c-0.5-0.2-0.5-0.4-0.5-1.3c0-1.8,0.1-3.2,0.2-3.7c0-0.4,0.1-0.6,0.3-0.6c0.2,0,0.2,0.1,0.2,0.4
			c0,0.3,0,0.8,0.1,1.3c0.5,2.6,2.8,3.6,5.2,3.6c3.4,0,5-2.4,5-4.7c0-2.4-1-3.8-4-6.3l-1.6-1.3c-3.7-3-4.5-5.2-4.5-7.6
			c0-3.7,2.8-6.3,7.2-6.3c1.4,0,2.4,0.1,3.3,0.3c0.7,0.1,0.9,0.2,1.2,0.2c0.3,0,0.4,0.1,0.4,0.2c0,0.2-0.1,1.3-0.1,3.7
			c0,0.6-0.1,0.8-0.2,0.8c-0.2,0-0.2-0.2-0.3-0.5c0-0.4-0.2-1.4-0.5-1.8c-0.2-0.4-1.2-1.9-4.4-1.9c-2.4,0-4.3,1.5-4.3,4.1
			c0,2,0.9,3.3,4.3,5.9l1,0.8c4.1,3.3,5.1,5.4,5.1,8.2c0,1.4-0.6,4.1-3,5.8c-1.5,1-3.4,1.5-5.3,1.5C174.7,189,173,188.7,171.6,188z"
			/>
		<path fill="#FFFFFF" d="M195.1,172.2c0-5.5,0-6.4-0.1-7.6c-0.1-1.2-0.3-1.8-1.5-2c-0.3-0.1-0.9-0.1-1.2-0.1
			c-0.1,0-0.3-0.1-0.3-0.2c0-0.2,0.2-0.3,0.6-0.3c0.8,0,1.8,0,2.5,0l1.4,0.1c0.2,0,7.2,0,8,0c0.7,0,1.2-0.1,1.5-0.2
			c0.2,0,0.3-0.2,0.5-0.2c0.1,0,0.1,0.1,0.1,0.3c0,0.2-0.2,0.7-0.3,1.6c0,0.3-0.1,1.9-0.2,2.3c0,0.2-0.1,0.4-0.2,0.4
			c-0.2,0-0.3-0.2-0.3-0.5c0-0.2,0-0.8-0.2-1.3c-0.2-0.6-0.6-1-2.5-1.2c-0.6-0.1-4.4-0.1-4.8-0.1c-0.1,0-0.2,0.1-0.2,0.3v9.7
			c0,0.2,0,0.3,0.2,0.3c0.5,0,4.8,0,5.6-0.1c0.8-0.1,1.3-0.1,1.6-0.5c0.2-0.3,0.4-0.5,0.5-0.5c0.1,0,0.2,0.1,0.2,0.3
			c0,0.2-0.2,0.8-0.3,2c-0.1,0.7-0.1,2-0.1,2.2c0,0.3,0,0.7-0.2,0.7c-0.2,0-0.2-0.1-0.2-0.3c0-0.3,0-0.7-0.1-1.2
			c-0.1-0.5-0.5-1.1-1.8-1.2c-0.9-0.1-4.4-0.2-5-0.2c-0.2,0-0.2,0.1-0.2,0.2v3.1c0,1.2,0,5.2,0,6c0.1,2.4,0.6,2.9,4.1,2.9
			c0.9,0,2.5,0,3.4-0.4c0.9-0.4,1.3-1.1,1.6-2.5c0.1-0.4,0.1-0.5,0.3-0.5c0.2,0,0.2,0.3,0.2,0.5c0,0.3-0.3,2.7-0.5,3.4
			c-0.2,0.9-0.5,0.9-1.9,0.9c-2.6,0-4.6-0.1-5.9-0.1c-1.4-0.1-2.2-0.1-2.7-0.1c-0.1,0-0.7,0-1.4,0c-0.7,0-1.5,0.1-2,0.1
			c-0.4,0-0.6-0.1-0.6-0.3c0-0.1,0.1-0.2,0.3-0.2c0.3,0,0.7-0.1,1.1-0.1c0.7-0.1,0.9-0.9,1-1.9c0.2-1.5,0.2-4.2,0.2-7.6V172.2z"/>
		<path fill="#FFFFFF" d="M215.7,188c-0.5-0.2-0.5-0.4-0.5-1.3c0-1.8,0.1-3.2,0.2-3.7c0-0.4,0.1-0.6,0.3-0.6c0.2,0,0.2,0.1,0.2,0.4
			c0,0.3,0,0.8,0.1,1.3c0.5,2.6,2.8,3.6,5.2,3.6c3.4,0,5-2.4,5-4.7c0-2.4-1-3.8-4-6.3l-1.6-1.3c-3.7-3-4.6-5.2-4.6-7.6
			c0-3.7,2.8-6.3,7.2-6.3c1.4,0,2.4,0.1,3.3,0.3c0.7,0.1,0.9,0.2,1.2,0.2c0.3,0,0.3,0.1,0.3,0.2c0,0.2-0.1,1.3-0.1,3.7
			c0,0.6-0.1,0.8-0.2,0.8c-0.2,0-0.2-0.2-0.3-0.5c0-0.4-0.2-1.4-0.5-1.8c-0.2-0.4-1.2-1.9-4.4-1.9c-2.4,0-4.3,1.5-4.3,4.1
			c0,2,0.9,3.3,4.3,5.9l1,0.8c4.1,3.3,5.1,5.4,5.1,8.2c0,1.4-0.6,4.1-3,5.8c-1.5,1-3.4,1.5-5.3,1.5C218.8,189,217.2,188.7,215.7,188
			z"/>
	</g>
	<g>
		<path fill="#FFFFFF" d="M50.8,144.4c2.9-6.6,9.5-24,10.6-27.5c0.2-0.7,0.4-1.4,0.4-1.9c0-0.4-0.1-0.9-0.6-1.1
			c-0.6-0.2-1.3-0.2-1.9-0.2c-0.3,0-0.5-0.1-0.5-0.3c0-0.3,0.3-0.4,1.1-0.4c2,0,4.3,0.1,4.9,0.1c0.3,0,2.4-0.1,3.9-0.1
			c0.5,0,0.8,0.1,0.8,0.3c0,0.2-0.2,0.3-0.6,0.3c-0.3,0-1.4,0-2.4,0.6c-0.6,0.4-1.4,1.3-2.7,4.7c-0.5,1.4-3,7.3-5.6,13.4
			c-3,7.2-5.3,12.6-6.4,15c-1.4,3-1.6,3.8-2.1,3.8c-0.6,0-0.8-0.7-1.8-3.1l-12.2-30.4c-1.1-2.8-1.8-3.3-3.6-3.8
			c-0.7-0.2-1.6-0.2-1.9-0.2c-0.3,0-0.4-0.2-0.4-0.3c0-0.3,0.5-0.3,1.3-0.3c2.4,0,5.2,0.1,5.8,0.1c0.5,0,2.7-0.1,4.6-0.1
			c0.9,0,1.3,0.1,1.3,0.3c0,0.2-0.1,0.3-0.5,0.3c-0.5,0-1.4,0-1.9,0.2c-0.5,0.2-0.6,0.6-0.6,1c0,0.6,0.6,2.2,1.3,4.1L50.8,144.4z"/>
		<path fill="#FFFFFF" d="M87.4,136.1c0,4.8,0,8.7,0.2,10.8c0.1,1.4,0.4,2.5,1.9,2.7c0.7,0.1,1.8,0.2,2.2,0.2c0.3,0,0.4,0.1,0.4,0.3
			c0,0.2-0.2,0.4-0.8,0.4c-2.7,0-5.9-0.1-6.1-0.1c-0.2,0-3.4,0.1-4.9,0.1c-0.5,0-0.8-0.1-0.8-0.4c0-0.1,0.1-0.3,0.4-0.3
			c0.4,0,1-0.1,1.5-0.2c1-0.2,1.2-1.3,1.4-2.7c0.2-2.1,0.2-6,0.2-10.8v-8.7c0-7.7,0-9.1-0.1-10.7c-0.1-1.7-0.6-2.5-1.7-2.8
			c-0.5-0.1-1.2-0.2-1.5-0.2c-0.2,0-0.4-0.1-0.4-0.3c0-0.3,0.2-0.4,0.8-0.4c1.6,0,4.8,0.1,5,0.1c0.2,0,3.4-0.1,4.9-0.1
			c0.5,0,0.8,0.1,0.8,0.4c0,0.2-0.2,0.3-0.4,0.3c-0.3,0-0.6,0-1.2,0.1c-1.3,0.2-1.7,1.1-1.8,2.8c-0.1,1.6-0.1,3-0.1,10.7V136.1z"/>
		<path fill="#FFFFFF" d="M108.1,127.4c0-7.7,0-9.1-0.1-10.7c-0.1-1.7-0.5-2.5-2.1-2.8c-0.4-0.1-1.2-0.1-1.7-0.1
			c-0.2,0-0.4-0.1-0.4-0.3c0-0.3,0.2-0.4,0.8-0.4c2.2,0,5.2,0.1,5.5,0.1c0.4,0,3.3-0.1,4.8-0.1c0.5,0,0.8,0.1,0.8,0.4
			c0,0.2-0.2,0.3-0.4,0.3c-0.3,0-0.6,0-1.2,0.1c-1.3,0.2-1.7,1.1-1.8,2.8c-0.1,1.6-0.1,3-0.1,10.7v3h0.2c0.8-0.9,9.8-10.1,11.6-12
			c1.4-1.4,2.7-2.7,2.7-3.6c0-0.6-0.2-0.9-0.6-1c-0.2-0.1-0.4-0.2-0.4-0.4c0-0.2,0.2-0.3,0.6-0.3c1,0,2.5,0.1,3.7,0.1
			c0.2,0,3.5-0.1,4.8-0.1c0.5,0,0.7,0.1,0.7,0.3c0,0.2-0.1,0.3-0.5,0.3c-0.7,0-1.8,0.2-2.8,0.7c-2,0.9-3.1,2.1-5.4,4.3
			c-1.2,1.2-9.9,9.6-10.9,10.9c1.3,1.4,11.6,12.1,13.6,14c4.2,3.9,5,4.7,7.4,5.7c1.3,0.5,2.7,0.6,3.1,0.6c0.3,0,0.6,0.1,0.6,0.3
			c0,0.2-0.2,0.4-1.1,0.4h-2.5c-1.4,0-2.3,0-3.4-0.1c-2.6-0.2-3.9-1.3-6-3c-2.2-1.8-12.7-13.2-15.1-16.1h-0.2v4.9
			c0,4.8,0,8.7,0.2,10.8c0.1,1.4,0.4,2.5,1.9,2.7c0.7,0.1,1.5,0.2,1.9,0.2c0.3,0,0.4,0.1,0.4,0.3c0,0.2-0.2,0.4-0.8,0.4
			c-2.4,0-5.3-0.1-5.7-0.1s-3.3,0.1-4.8,0.1c-0.5,0-0.8-0.1-0.8-0.4c0-0.1,0.1-0.3,0.4-0.3c0.4,0,1-0.1,1.5-0.2
			c1-0.2,1.2-1.3,1.4-2.7c0.2-2.1,0.2-6,0.2-10.8V127.4z"/>
		<path fill="#FFFFFF" d="M156.4,136.1c0,4.8,0,8.7,0.2,10.8c0.1,1.4,0.4,2.5,1.9,2.7c0.7,0.1,1.8,0.2,2.2,0.2
			c0.3,0,0.4,0.1,0.4,0.3c0,0.2-0.2,0.4-0.8,0.4c-2.7,0-5.9-0.1-6.1-0.1c-0.2,0-3.4,0.1-4.9,0.1c-0.5,0-0.8-0.1-0.8-0.4
			c0-0.1,0.1-0.3,0.4-0.3c0.4,0,1-0.1,1.5-0.2c1-0.2,1.2-1.3,1.4-2.7c0.2-2.1,0.2-6,0.2-10.8v-8.7c0-7.7,0-9.1-0.1-10.7
			c-0.1-1.7-0.6-2.5-1.7-2.8c-0.5-0.1-1.2-0.2-1.5-0.2c-0.2,0-0.4-0.1-0.4-0.3c0-0.3,0.2-0.4,0.8-0.4c1.6,0,4.8,0.1,5,0.1
			c0.2,0,3.4-0.1,4.9-0.1c0.5,0,0.8,0.1,0.8,0.4c0,0.2-0.2,0.3-0.4,0.3c-0.3,0-0.6,0-1.2,0.1c-1.3,0.2-1.7,1.1-1.8,2.8
			c-0.1,1.6-0.1,3-0.1,10.7V136.1z"/>
		<path fill="#FFFFFF" d="M178.9,143.7c0.1,4.1,0.6,5.4,1.9,5.8c0.9,0.2,2,0.3,2.5,0.3c0.2,0,0.4,0.1,0.4,0.3c0,0.3-0.3,0.4-0.9,0.4
			c-2.8,0-4.8-0.1-5.3-0.1c-0.4,0-2.5,0.1-4.8,0.1c-0.5,0-0.8,0-0.8-0.4c0-0.2,0.1-0.3,0.4-0.3c0.4,0,1.3,0,2-0.3
			c1.2-0.3,1.5-1.8,1.5-6.3l0-28.4c0-1.9,0.1-2.5,0.5-2.5c0.4,0,1.2,1.1,1.7,1.6c0.7,0.8,8.1,8.8,15.8,17
			c4.9,5.3,10.3,11.3,11.9,12.9l-0.5-25.2c0-3.2-0.4-4.3-1.9-4.7c-0.9-0.2-2-0.2-2.4-0.2c-0.3,0-0.4-0.2-0.4-0.3
			c0-0.3,0.4-0.3,1-0.3c2.2,0,4.6,0.1,5.2,0.1c0.5,0,2.2-0.1,4.2-0.1c0.5,0,0.9,0,0.9,0.3c0,0.2-0.2,0.3-0.5,0.3
			c-0.2,0-0.6,0-1.2,0.1c-1.6,0.3-1.8,1.4-1.8,4.4l-0.1,29.1c0,3.3-0.1,3.5-0.4,3.5c-0.4,0-1-0.5-3.6-3.2
			c-0.5-0.5-7.7-7.8-12.9-13.4c-5.8-6.2-11.4-12.4-12.9-14.2L178.9,143.7z"/>
		<path fill="#FFFFFF" d="M250.3,137.8c0-4-0.2-4.6-2.2-5.1c-0.4-0.1-1.2-0.2-1.7-0.2c-0.2,0-0.4-0.1-0.4-0.3c0-0.3,0.2-0.4,0.8-0.4
			c2.2,0,5.4,0.1,5.6,0.1s3.4-0.1,4.9-0.1c0.5,0,0.8,0.1,0.8,0.4c0,0.2-0.2,0.3-0.4,0.3c-0.3,0-0.6,0.1-1.2,0.2
			c-1.3,0.2-1.7,1.1-1.8,2.8c-0.1,1.6-0.1,3.1-0.1,5.2v5.6c0,2.2,0,2.3-0.6,2.7c-3.2,1.7-7.6,2.2-10.5,2.2c-3.8,0-10.8-0.5-16.3-5.3
			c-3-2.6-5.9-7.9-5.9-14.1c0-7.9,3.9-13.5,8.3-16.3c4.5-2.8,9.4-3.1,13.2-3.1c3.1,0,6.6,0.6,7.6,0.8c1,0.2,2.8,0.4,4,0.5
			c0.5,0.1,0.6,0.2,0.6,0.4c0,0.7-0.3,2.1-0.3,7c0,0.8-0.1,1-0.4,1c-0.2,0-0.3-0.3-0.3-0.7c-0.1-0.7-0.3-2.1-1-3.3
			c-1.2-1.9-5.3-4-11.7-4c-3.1,0-6.8,0.3-10.6,3.3c-2.9,2.3-4.9,6.8-4.9,12.6c0,7,3.5,12.1,5.3,13.7c3.9,3.8,8.4,5.3,13,5.3
			c1.8,0,4.4-0.3,5.7-1c0.6-0.3,1-0.9,1-1.7V137.8z"/>
	</g>
	<g>
		<g>
			<g>
				<path fill-rule="evenodd" clip-rule="evenodd" fill="#FFFFFF" d="M110.6,33.1h7.3c20.8,14.8,29.5,23.3,28,30.7
					c-1.8,8.7-12.7,15.1-35.2,25l-3.1-0.2c25.7-10.8,34.9-19.7,33-27C138.6,53.9,130.9,48.6,110.6,33.1L110.6,33.1z"/>
				<path fill-rule="evenodd" clip-rule="evenodd" fill="#FFFFFF" d="M125.1,33l7.2,0c21.5,14.7,27,24.5,23.7,30.4
					c-5.7,10.3-18.9,16.8-39.8,25.2l-3,0.2c22.5-9.7,37.4-18,38.2-27.1C152.1,54.1,145.5,48.5,125.1,33L125.1,33z"/>
				<path fill-rule="evenodd" clip-rule="evenodd" fill="#FFFFFF" d="M139.5,33.1h7.2c20.8,14.7,24.1,23.7,19.6,30.6
					c-6.8,10.5-22.4,16.8-44,25.1h-3.2c27-11.1,38.4-17.4,42-25.4C165.4,54,158,47.3,139.5,33.1L139.5,33.1z"/>
				<path fill-rule="evenodd" clip-rule="evenodd" fill="#FFFFFF" d="M153.9,33.1h7.2c19.5,16.4,20.3,24.3,16.1,30.2
					c-7.3,10.2-29.6,20.3-49.1,25.5h-3.2c23.5-8.2,39.9-14.3,46.9-25.7C176.8,55.2,171.8,47.9,153.9,33.1L153.9,33.1z"/>
				<path fill-rule="evenodd" clip-rule="evenodd" fill="#FFFFFF" d="M168.3,33.1h7.2c12,12.5,16.3,23.1,12,30.3
					c-8.5,14.4-36.1,21.3-53.7,25.4h-3.2c24-6.5,45.5-14,51.5-25.5C185.6,56.7,183.6,48.1,168.3,33.1L168.3,33.1z"/>
				<path fill-rule="evenodd" clip-rule="evenodd" fill="#FFFFFF" d="M197.3,49.1c3.9,30.9-25.3,36.5-25.6,36.8
					c-1.9,0.6-6.3,1.7-6.3,1.7c-17.8,3.5-42.5,3.8-55.3,1.8C96.5,87.3,87.1,82.9,85,74.7c10.3,16.2,59.7,16.3,85.8,8.3
					c16.9-6.1,24.1-16.8,23.9-32.8l0,0c-0.1-1.7-0.1-5.9,1.7-7.9c2.4-2.7,8.3-1.8,8.9,2.2c0.8,5.8-7.2,5.9-6.9,1.2
					c0.2-2.3,3.9-3.2,4.6-0.9c0.5,1.9-1.6,2.6-2.6,1.9c-0.5-0.4-0.6-0.7-0.4-1c0.3-0.3,0.7-0.3,0.9,0c0.1,0.4,0.5,0.5,0.8,0.3
					c0.7-0.4,0.1-1.9-1.3-1.4c-0.8,0.3-1.4,1.9-0.1,2.9c3.1,1.5,4.6-2.3,2.7-4.2c-0.8-0.9-1.7-0.9-2.4-0.8
					C197.6,42.7,197.2,46,197.3,49.1"/>
			</g>
			<path fill-rule="evenodd" clip-rule="evenodd" fill="#FFFFFF" d="M178.5,98.6c0,0,5.3,0.3,13.4-3.5c7.7-3.6,24.1-15.9,8.2-41.5
				c-0.4,4.5-0.4,18.7-14,28.2c-12.7,10.1-67.4,14.8-90,6C86.8,83.3,85,77.9,85,77.9s1.9,20,10.8,20.5L178.5,98.6z"/>
		</g>
	</g>
	<path fill="#FFFFFF" d="M202.8,92.6c1.8,0,3.3,1.5,3.3,3.4c0,1.9-1.5,3.4-3.3,3.4c-1.8,0-3.3-1.5-3.3-3.4
		C199.4,94.1,200.9,92.6,202.8,92.6L202.8,92.6z M202.8,93.1c-1.5,0-2.7,1.3-2.7,2.8c0,1.6,1.2,2.9,2.7,2.9c1.5,0,2.7-1.3,2.7-2.8
		C205.5,94.4,204.3,93.1,202.8,93.1L202.8,93.1z M202.2,97.9h-0.6v-3.8c0.3,0,0.6-0.1,1.1-0.1c0.6,0,0.9,0.1,1.2,0.3
		c0.2,0.2,0.3,0.4,0.3,0.8c0,0.5-0.3,0.8-0.7,0.9v0c0.3,0.1,0.6,0.4,0.6,0.9c0.1,0.6,0.2,0.8,0.2,0.9h-0.6c-0.1-0.1-0.2-0.5-0.3-1
		c-0.1-0.5-0.3-0.7-0.8-0.7h-0.4V97.9z M202.2,95.8h0.4c0.5,0,0.9-0.2,0.9-0.6c0-0.3-0.2-0.7-0.9-0.7c-0.2,0-0.3,0-0.4,0V95.8z"/>
	<g>
		<rect x="107.7" y="32.4" fill="#FFFFFF" width="70.5" height="1"/>
		<rect x="145.1" y="27" fill="#FFFFFF" width="1" height="5.8"/>
	</g>
</g>
</svg>
