<?xml version="1.0" encoding="utf-8"?>
<!-- Generator: Adobe Illustrator 18.1.0, SVG Export Plug-In . SVG Version: 6.00 Build 0)  -->
<svg version="1.1" xmlns="http://www.w3.org/2000/svg" xmlns:xlink="http://www.w3.org/1999/xlink" x="0px" y="0px"
	 viewBox="0 0 50 50" enable-background="new 0 0 50 50" xml:space="preserve">
<g id="painting">
	<g>
		<circle fill="#FFFFFF" cx="13" cy="35.7" r="6.7"/>
		<circle fill="#FFFFFF" cx="37" cy="31.2" r="6.7"/>
		<path fill="#FFFFFF" d="M49,3.5H25H1c-1.7,0-3,1.3-3,3V20v13.5c0,1.7,1.3,3,3,3h2.3c0-0.2,0-0.5,0-0.7c0-0.8,0.1-1.5,0.3-2.3H1V20
			V6.5h24h24V20v13.5h-2.5c-0.3,1.1-0.7,2.1-1.3,3H49c1.7,0,3-1.3,3-3V20V6.5C52,4.9,50.6,3.5,49,3.5z"/>
		<circle fill="#FFFFFF" cx="40" cy="12.5" r="3"/>
		<path fill="#FFFFFF" d="M9.7,23.5l-5.3-5.3l5.3-5.3l5.3,5.3L9.7,23.5z M6.6,18.2l3.2,3.2l3.2-3.2l-3.2-3.2L6.6,18.2z"/>
		<path fill="#FFFFFF" d="M17.5,24.1c-0.6,0-1.1-0.5-1.1-1.1s0.5-1.1,1.1-1.1c5.5,0,13.7-1.1,14.8-3.4c0.3-0.6,0-1.3-0.7-2.3
			c-0.4-0.5-0.3-1.2,0.2-1.6c0.5-0.4,1.2-0.3,1.6,0.2c1.7,2.1,1.5,3.7,1,4.6C32.2,23.9,19.9,24.1,17.5,24.1z"/>
		<path fill="#FFFFFF" d="M25.6,11.6c0,0-2.7,0-2.7-2.7C22.9,8.4,22.5,8,22,8c-0.5,0-0.9,0.4-0.9,0.9c0,2.7-2.7,2.7-2.7,2.7
			c-0.5,0-0.9,0.4-0.9,0.9c0,0.5,0.4,0.9,0.9,0.9c0,0,2.7,0,2.7,2.7c0,0.5,0.4,0.9,0.9,0.9c0.5,0,0.9-0.4,0.9-0.9
			c0-2.7,2.7-2.7,2.7-2.7c0.5,0,0.9-0.4,0.9-0.9C26.5,12,26.1,11.6,25.6,11.6z"/>
		<path fill="#FFFFFF" d="M37,41c-13.5,0-13.5,15-13.5,15H37h13.5C50.5,56,50.5,41,37,41z"/>
		<path fill="#FFFFFF" d="M60,33c0.4-1.8,0.9-3.9,1-5.4c0.1-1.8-0.4-3.5-0.9-5.1c-0.3-1-0.6-1.9-0.6-2.5s0.3-1.5,0.6-2.5
			c0.5-1.5,1-3.3,0.9-5.1c-0.1-1.5-0.6-3.6-1-5.4c-0.2-0.8-0.4-1.6-0.5-2.3c-0.1-0.7,0.1-2,0.4-3.2c0.5-2.5,1.1-5.2-1-6.7
			c-2.4-1.7-6-0.3-9.5,1.2c-1.9,0.8-3.8,1.5-4.9,1.5c-1.2,0-3-0.7-4.7-1.4c-2-0.8-4-1.6-5.8-1.6c-1.9,0-3.5,0.8-5.2,1.7
			c-1.4,0.7-2.7,1.3-3.8,1.3c-1.1,0-2.4-0.7-3.8-1.3c-1.6-0.8-3.3-1.7-5.2-1.7c-1.8,0-3.8,0.8-5.8,1.6C8.5-3.2,6.7-2.5,5.5-2.5
			c-1.1,0-3-0.8-4.9-1.5c-3.5-1.4-7.1-2.9-9.5-1.2c-2.1,1.5-1.5,4.3-1,6.7C-9.6,2.7-9.3,4-9.5,4.7C-9.6,5.4-9.8,6.2-10,7
			c-0.4,1.8-0.9,3.9-1,5.4c-0.1,1.8,0.4,3.5,0.9,5.1c0.3,1,0.6,1.9,0.6,2.5h0c0,0.6-0.3,1.5-0.6,2.5c-0.5,1.5-1,3.3-0.9,5.1
			c0.1,1.5,0.6,3.6,1,5.4c0.2,0.8,0.4,1.6,0.5,2.3c0.1,0.7-0.1,2-0.4,3.2c-0.5,2.5-1.1,5.2,1,6.7c0.8,0.6,1.7,0.8,2.7,0.8
			c2.1,0,4.5-1,6.8-2c1.9-0.8,3.8-1.5,4.9-1.5c0.2,0,0.4,0,0.5,0.1c-0.8-0.8-1.5-1.8-2-2.9c-1.4,0.3-3,0.9-4.6,1.6
			c-2.3,1-5.5,2.3-6.6,1.5c-0.5-0.4-0.1-2.4,0.2-3.7c0.3-1.5,0.6-3.1,0.4-4.4c-0.1-0.7-0.3-1.5-0.5-2.4c-0.4-1.7-0.9-3.7-0.9-4.9
			c-0.1-1.3,0.4-2.7,0.8-4c0.4-1.2,0.7-2.3,0.7-3.4h0c0-1.1-0.3-2.2-0.7-3.4c-0.4-1.4-0.8-2.8-0.8-4c0.1-1.2,0.5-3.2,0.9-4.9
			C-6.8,6.8-6.6,6-6.5,5.3C-6.3,4-6.6,2.4-6.9,0.9c-0.3-1.2-0.7-3.3-0.2-3.7c1-0.8,4.2,0.6,6.6,1.5c2.2,0.9,4.3,1.8,6,1.8
			c1.8,0,3.8-0.8,5.8-1.6C13-1.8,14.8-2.5,16-2.5c1.1,0,2.4,0.7,3.8,1.3c1.6,0.8,3.3,1.7,5.2,1.7c0,0,0,0,0,0c0,0,0,0,0,0
			c1.9,0,3.5-0.8,5.2-1.7c1.4-0.7,2.7-1.3,3.8-1.3c1.2,0,3,0.7,4.7,1.4c2,0.8,4,1.6,5.8,1.6c1.7,0,3.8-0.9,6-1.8
			c2.3-1,5.5-2.3,6.6-1.5c0.5,0.4,0.1,2.4-0.2,3.7c-0.3,1.5-0.6,3.1-0.4,4.4c0.1,0.7,0.3,1.5,0.5,2.4c0.4,1.7,0.9,3.7,0.9,4.9
			c0.1,1.3-0.4,2.7-0.8,4c-0.4,1.2-0.7,2.3-0.7,3.4c0,1.1,0.3,2.2,0.7,3.4c0.4,1.4,0.8,2.7,0.8,4c-0.1,1.2-0.5,3.2-0.9,4.9
			c-0.2,0.9-0.4,1.7-0.5,2.4c-0.3,1.3,0.1,2.9,0.4,4.4c0.3,1.2,0.7,3.3,0.2,3.7c-1,0.8-4.2-0.6-6.6-1.5c-2.2-0.9-4.3-1.8-6-1.8
			c-0.1,0-0.2,0-0.3,0c2.2,1,4.1,2.6,5.6,4.6c2.3,0.9,4.5,1.8,6.5,1.8c1,0,1.9-0.2,2.7-0.8c2.1-1.5,1.5-4.3,1-6.7
			c-0.2-1.2-0.5-2.5-0.4-3.2C59.6,34.7,59.8,33.9,60,33z"/>
		<path fill="#FFFFFF" d="M22,48.4c-2-1.6-4.9-2.9-9-2.9C1,45.5-0.5,56-0.5,56H13h7.5C20.5,55.8,20.5,52.3,22,48.4z"/>
	</g>
</g>
<g id="artscience">
	<g>
		<g>
			<path fill="#FFFFFF" d="M52.4,9.5l-16-14.6c-0.9-0.7-2.2-0.6-3,0.2c0,0,2.2,2.5,0.3,4.5L-0.5,37.2c-3.7,4-3.4,10.3,0.6,14
				c4,3.7,10.3,3.4,14-0.6c0,0,32.6-35.7,34.3-37.5c1.7-1.8,4.2-0.3,4.2-0.3C53.4,11.8,53.3,10.3,52.4,9.5z M46.4,11.2L12.1,48.8
				c-2.7,3-7.3,3.2-10.3,0.5c-3-2.7-3.2-7.3-0.5-10.3L35.6,1.4c0.7-0.8,1.1-1.6,1.3-2.5L48.8,9.7C47.9,10,47.1,10.5,46.4,11.2z"/>
			
				<rect x="35.2" y="5.3" transform="matrix(-0.7386 -0.6742 0.6742 -0.7386 61.2686 35.6049)" fill="#FFFFFF" width="4.6" height="1.2"/>
			
				<rect x="33.5" y="6.9" transform="matrix(-0.7386 -0.6742 0.6742 -0.7386 55.521 36.4514)" fill="#FFFFFF" width="2.7" height="1.2"/>
			
				<rect x="31.5" y="9.1" transform="matrix(-0.7386 -0.6742 0.6742 -0.7386 50.5718 38.91)" fill="#FFFFFF" width="2.7" height="1.2"/>
			
				<rect x="29.5" y="11.2" transform="matrix(-0.7386 -0.6742 0.6742 -0.7386 45.6238 41.3682)" fill="#FFFFFF" width="2.7" height="1.2"/>
			
				<rect x="27.3" y="14.1" transform="matrix(-0.7386 -0.6742 0.6742 -0.7386 41.4757 45.4378)" fill="#FFFFFF" width="4.6" height="1.2"/>
			
				<rect x="25.5" y="15.6" transform="matrix(-0.7386 -0.6742 0.6742 -0.7386 35.7267 46.2849)" fill="#FFFFFF" width="2.7" height="1.2"/>
			
				<rect x="23.5" y="17.8" transform="matrix(-0.7386 -0.6742 0.6742 -0.7386 30.7786 48.743)" fill="#FFFFFF" width="2.7" height="1.2"/>
			
				<rect x="21.5" y="20" transform="matrix(-0.7386 -0.6742 0.6742 -0.7386 25.8295 51.2017)" fill="#FFFFFF" width="2.7" height="1.2"/>
			
				<rect x="19.3" y="22.8" transform="matrix(-0.7386 -0.6742 0.6742 -0.7386 21.6816 55.2712)" fill="#FFFFFF" width="4.6" height="1.2"/>
			
				<rect x="17.5" y="24.4" transform="matrix(-0.7386 -0.6742 0.6742 -0.7386 15.9329 56.1182)" fill="#FFFFFF" width="2.7" height="1.2"/>
			
				<rect x="15.5" y="26.6" transform="matrix(-0.7386 -0.6742 0.6742 -0.7386 10.9843 58.5766)" fill="#FFFFFF" width="2.7" height="1.2"/>
			
				<rect x="13.5" y="28.8" transform="matrix(-0.7386 -0.6742 0.6742 -0.7386 6.0355 61.0351)" fill="#FFFFFF" width="2.7" height="1.2"/>
			
				<rect x="7.5" y="35.3" transform="matrix(-0.7386 -0.6742 0.6742 -0.7386 -8.8097 68.41)" fill="#FFFFFF" width="2.7" height="1.2"/>
			
				<rect x="5.5" y="37.5" transform="matrix(-0.7386 -0.6742 0.6742 -0.7386 -13.7588 70.8686)" fill="#FFFFFF" width="2.7" height="1.2"/>
			
				<rect x="11.3" y="31.6" transform="matrix(-0.7386 -0.6742 0.6742 -0.7386 1.8873 65.1047)" fill="#FFFFFF" width="4.6" height="1.2"/>
			
				<rect x="9.5" y="33.1" transform="matrix(-0.7386 -0.6742 0.6742 -0.7386 -3.8606 65.9513)" fill="#FFFFFF" width="2.7" height="1.2"/>
		</g>
		<g id="Your_Icon_1_">
			<g>
				<path fill="#FFFFFF" d="M30.7,38.5c-0.9-0.7-1.4-1.1-1.8-1.4c-1.2-0.8-1.7-1.2-5.2-5.5c-4.4-5.3-10.9-14.2-16.2-22
					C-2.2-4.8-1.3-5.6-0.6-6.1C-0.5-6.2-0.3-6.3,0-6.3c0.6,0,1.9,0,13,12.3c6.4,7.1,13.3,15.3,17.3,20.2c3.4,4.1,3.7,4.9,4.3,6.2
					c0.2,0.5,0.5,1.1,1.1,2.2l0.3,0.5l-4.8,3.8L30.7,38.5z"/>
				<path d="M0-5.6c2.4,0,20.9,21.5,29.7,32.2c4.8,5.9,3.3,4.8,5.3,8.3l-3.8,3c-3.1-2.6-2.1-0.9-6.9-6.8C15.2,20.1-1.7-4.3-0.2-5.5
					C-0.1-5.6-0.1-5.6,0-5.6 M0-7c-0.4,0-0.8,0.1-1.1,0.4c-1.3,1-0.5,2.9,1.6,6.5c1.5,2.5,3.7,6,6.4,10c5.3,7.9,11.9,16.7,16.3,22.1
					c3.4,4.1,4,4.6,5.3,5.6c0.4,0.3,0.9,0.7,1.8,1.4l0.9,0.8l0.9-0.7l3.8-3l1-0.8l-0.6-1.1c-0.6-1-0.8-1.6-1-2.1
					c-0.6-1.4-1.1-2.3-4.4-6.4c-4-4.9-10.9-13.1-17.3-20.2C2.2-7,0.9-7,0-7L0-7z"/>
			</g>
			<g>
				<path fill="#FFFFFF" d="M49.6,56.3c-1.3,0-2.7-0.2-4.3-0.7c-6.6-1.8-10.7-6.8-12.9-15.6l-0.1-0.5l4.4-3.5l0.4,0.2
					c0.5,0.3,1.1,0.6,1.7,0.9c3.1,1.6,7,3.5,8.5,9.3c1.7,6.3,5.5,7.7,5.5,7.8l1.4,0.5l-1.2,0.8C52.8,55.7,51.8,56.3,49.6,56.3z"/>
				<path d="M36.7,37c3.4,1.9,8.1,3.2,9.9,9.7c1.8,6.8,6,8.3,6,8.3s-0.9,0.6-3,0.6c-1.1,0-2.4-0.2-4.1-0.6
					c-6.5-1.8-10.3-6.9-12.4-15.1L36.7,37 M36.5,35.2l-0.8,0.6l-3.7,2.9l-0.7,0.6l0.2,0.9c2.3,9,6.7,14.2,13.4,16.1
					c1.6,0.5,3.1,0.7,4.5,0.7c2.4,0,3.6-0.7,3.8-0.8l2.4-1.6l-2.7-1c-0.1,0-3.5-1.4-5.1-7.3c-1.6-6.1-5.7-8.1-8.9-9.8
					c-0.6-0.3-1.1-0.6-1.7-0.9L36.5,35.2L36.5,35.2z"/>
			</g>
		</g>
	</g>
</g>
<g id="finger">
	<g>
		<path fill="#FFFFFF" d="M59.2-25.4v55.7h-16c0.6-0.7,1-1.3,1-1.7c0.3-2,0.1-8,0-10.2c0-0.8-0.6-1.5-1.3-1.5v3
			c0,0.8-0.7,1.5-1.5,1.5c-0.8,0-1.5-0.7-1.5-1.5v-4.5c0-0.8-0.7-1.5-1.5-1.5v4.5c0,0.8-0.7,1.5-1.5,1.5c-0.8,0-1.5-0.7-1.5-1.5v-6
			c0-0.8-0.7-1.5-1.5-1.5s-1.5,0.7-1.5,1.5v6c0,0.8-0.7,1.5-1.5,1.5c-0.8,0-1.5-0.7-1.5-1.5V-1.3c0-0.8-0.7-1.5-1.5-1.5
			c-0.8,0-1.5,0.7-1.5,1.5v19.6c0,0.2-0.1,2.2-2,4.1c-0.3,0.3-0.7,0.4-1.1,0.4c-0.4,0-0.8-0.1-1.1-0.4c-0.6-0.6-0.6-1.5,0-2.1
			c1-1,1.1-1.9,1.1-2v-2.9c-1.1,0.5-3,1.6-3,2.9c0,0.4-0.1,1.2-0.1,2.1c-0.1,1.6-0.4,5.4,0,6.3c0.4,0.9,1.5,2.3,2.7,3.7H-11v-55.7
			H59.2z"/>
		<path fill="#FFFFFF" stroke="#000000" stroke-width="1.44" stroke-miterlimit="10" d="M47.2,29c-0.1,0.4-0.2,0.8-0.4,1.3
			c-1,2-3.3,4.1-5.6,5.4v39.7h-3V34.8c0-0.6,0.3-1.1,0.8-1.3c1.8-0.9,3.2-2.1,4.2-3.2c0.6-0.7,1-1.3,1-1.7c0.3-2,0.1-8,0-10.2
			c0-0.8-0.6-1.5-1.3-1.5v3c0,0.8-0.7,1.5-1.5,1.5c-0.8,0-1.5-0.7-1.5-1.5v-4.5c0-0.8-0.7-1.5-1.5-1.5v4.5c0,0.8-0.7,1.5-1.5,1.5
			c-0.8,0-1.5-0.7-1.5-1.5v-6c0-0.8-0.7-1.5-1.5-1.5s-1.5,0.7-1.5,1.5v6c0,0.8-0.7,1.5-1.5,1.5c-0.8,0-1.5-0.7-1.5-1.5V-1.3
			c0-0.8-0.7-1.5-1.5-1.5c-0.8,0-1.5,0.7-1.5,1.5v19.6c0,0.2-0.1,2.2-2,4.1c-0.3,0.3-0.7,0.4-1.1,0.4c-0.4,0-0.8-0.1-1.1-0.4
			c-0.6-0.6-0.6-1.5,0-2.1c1-1,1.1-1.9,1.1-2v-2.9c-1.1,0.5-3,1.6-3,2.9c0,0.4-0.1,1.2-0.1,2.1c-0.1,1.6-0.4,5.4,0,6.3
			c0.4,0.9,1.5,2.3,2.7,3.7c1.2,1.4,2.4,2.8,3.1,3.5c0.3,0.3,0.4,0.7,0.4,1v40.6h-3v-40c-0.9-1-2.9-3.1-4.4-5.1
			c-0.6-0.9-1.2-1.7-1.5-2.4c-0.7-1.5-0.5-4.4-0.3-7.9c0.1-0.8,0.1-1.4,0.1-1.8c0-4,5-5.8,5.6-5.9l0.5-0.2V-1.3c0-2.5,2-4.5,4.5-4.5
			c2.5,0,4.5,2,4.5,4.5V8c0.5-0.2,1-0.3,1.5-0.3c2,0,3.6,1.3,4.3,3.1c0.1,0,0.2-0.1,0.3-0.1c2,0,3.6,1.3,4.2,3h0.1
			c2.5,0,4.5,2,4.5,4.5C47.3,19,47.7,26.4,47.2,29z"/>
		<path fill="#FFFFFF" d="M61-25.4h-72v55.7h26.4c-0.2-0.4-0.4-0.7-0.6-1.1c-0.3-0.6-0.5-1.2-0.6-1.9H-8v-49.7h66v49.7h-7.6
			c0,0.9-0.1,1.6-0.2,2.2c0,0.3-0.1,0.5-0.2,0.8h11L61-25.4L61-25.4z"/>
		<path d="M27.9-8.8c-0.8,0-1.5-0.7-1.5-1.5v-6c0-0.8,0.7-1.5,1.5-1.5c0.8,0,1.5,0.7,1.5,1.5v6C29.4-9.5,28.7-8.8,27.9-8.8z"/>
		<path d="M33.9-5.8c-0.4,0-0.8-0.1-1.1-0.4c-0.6-0.6-0.6-1.5,0-2.1l4.5-4.5c0.6-0.6,1.5-0.6,2.1,0c0.6,0.6,0.6,1.5,0,2.1L35-6.3
			C34.7-6,34.3-5.8,33.9-5.8z"/>
		<path d="M21.9-5.8c-0.4,0-0.8-0.1-1.1-0.4l-4.5-4.5c-0.6-0.6-0.6-1.5,0-2.1c0.6-0.6,1.5-0.6,2.1,0l4.5,4.5c0.6,0.6,0.6,1.5,0,2.1
			C22.6-6,22.2-5.8,21.9-5.8z"/>
		<path d="M41.4,0.2h-4.5c-0.8,0-1.5-0.7-1.5-1.5s0.7-1.5,1.5-1.5h4.5c0.8,0,1.5,0.7,1.5,1.5S42.3,0.2,41.4,0.2z"/>
		<path d="M18.9,0.2h-4.5c-0.8,0-1.5-0.7-1.5-1.5s0.7-1.5,1.5-1.5h4.5c0.8,0,1.5,0.7,1.5,1.5S19.7,0.2,18.9,0.2z"/>
		<polyline fill="none" stroke="#000000" stroke-width="0.72" stroke-miterlimit="10" points="17.3,27.3 -7.3,27.3 -7.3,-22.4 
			57,-22.4 57,27.3 47.1,27.3 		"/>
	</g>
</g>
<g id="shoppingbag">
	<g>
		<path fill="#FFFFFF" d="M43.5,11.3h-8.6V2.4c0-0.1,0-3.3-2.4-5.8C30.7-5.1,28.2-6,25-6l0,0l0,0c-3.2,0-5.7,0.9-7.5,2.7
			c-2.4,2.4-2.4,5.6-2.4,5.7v8.9H6.5L4.5,56H25h20.5L43.5,11.3z M16.2,18.2c-1.4,0-2.6-1.1-2.6-2.6c0-1,0.6-1.9,1.5-2.3v1.6
			c0,0.6,0.5,1.1,1.1,1.1c0.6,0,1.1-0.5,1.1-1.1v-1.6c0.8,0.4,1.4,1.3,1.4,2.3C18.8,17.1,17.6,18.2,16.2,18.2z M17.3,11.3V2.4
			c0,0,0-2.4,1.8-4.2c1.3-1.3,3.3-2,5.9-2s4.6,0.7,5.9,2c1.8,1.8,1.8,4.2,1.8,4.2v8.9L17.3,11.3L17.3,11.3z M33.8,18.2
			c-1.4,0-2.6-1.1-2.6-2.6c0-1,0.6-1.9,1.5-2.3v1.6c0,0.6,0.5,1.1,1.1,1.1c0.6,0,1.1-0.5,1.1-1.1v-1.6c0.9,0.4,1.5,1.3,1.5,2.3
			C36.3,17.1,35.2,18.2,33.8,18.2z"/>
	</g>
</g>
<g id="schoolhouse">
	<g>
		<path fill="#FFFFFF" d="M40.3,55.1v-17L20.8,18.2L1.3,38.1v17h15.3V41c0-2.3,1.8-4.1,4.1-4.1s4.1,1.8,4.1,4.1v14.1L40.3,55.1
			L40.3,55.1z M11.7,49.1H6.2v-2h5.5V49.1z M11.7,46H6.2v-5.9h5.5V46z M20.7,30.8c-1.3,0-2.3-1-2.3-2.3c0-1.3,1-2.3,2.3-2.3
			s2.3,1,2.3,2.3C23,29.8,22,30.8,20.7,30.8z M29.6,40.1h5.5V46h-5.5V40.1z M29.6,47.1h5.5v2h-5.5V47.1z"/>
		<path fill="#FFFFFF" d="M20.8,16.9l22,22.5l1.4-1.3L27.8,21.3v-15l-7-7.2l-7,7.2v15L-2.6,38.1l1.4,1.3L20.8,16.9z M15.3,7.3h5.1
			v1.9c-0.4,0.1-1.2,0.5-1.2,2c0,1.5-1.1,1.9-1.1,1.9h2.6h2.6c0,0-1.1-0.3-1.1-1.9c0-1.5-0.7-1.9-1.2-2V7.3h5.1v6.9H15.3L15.3,7.3z"
			/>
		<rect x="-1.9" y="56.1" fill="#FFFFFF" width="45.4" height="1.9"/>
		<path fill="#FFFFFF" d="M51.7,13.5L51.7,13.5c-1.2-1.2-3-1.2-4.2,0v-1.2h-0.8V59H-5.9v1.9h53.4V59v-40c1.2-1.2,3-1.2,4.2,0h0
			c1.2,1.2,3,1.2,4.2,0v-5.5C54.7,14.7,52.9,14.7,51.7,13.5z"/>
		<polygon fill="#FFFFFF" points="20.8,-2.1 31.1,8.4 32.5,7.1 21.2,-4.4 21.2,-10.9 20.4,-10.9 20.4,-4.4 9.1,7.1 10.5,8.4 		"/>
	</g>
</g>
<g id="notepad">
	<g>
		<path fill="#FFFFFF" d="M43.7,59.6h-49c-0.8,0-1.4-0.6-1.4-1.4V3.4C-6.7,2.6-6,2-5.2,2h49c0.8,0,1.4,0.6,1.4,1.4v54.7
			C45.2,58.9,44.5,59.6,43.7,59.6z M-3.8,56.7h46.1V4.8H-3.8V56.7z"/>
		<path fill="#FFFFFF" d="M52.4,56.7c-0.6,0-1.2-0.4-1.4-1l-2.9-8.6c0-0.1-0.1-0.3-0.1-0.5V0.5c0-0.8,0.6-1.4,1.4-1.4h5.8
			c0.8,0,1.4,0.6,1.4,1.4v46.1c0,0.2,0,0.3-0.1,0.5l-2.9,8.6C53.5,56.3,53,56.7,52.4,56.7z M50.9,46.4l1.4,4.3l1.4-4.3V2h-2.9V46.4z
			"/>
		<path fill="#FFFFFF" d="M53.8,10.6h-2.9c-0.8,0-1.4-0.6-1.4-1.4c0-0.8,0.6-1.4,1.4-1.4h2.9c0.8,0,1.4,0.6,1.4,1.4
			C55.2,10,54.6,10.6,53.8,10.6z"/>
		<path fill="#FFFFFF" d="M53.8,45.2h-2.9c-0.8,0-1.4-0.6-1.4-1.4s0.6-1.4,1.4-1.4h2.9c0.8,0,1.4,0.6,1.4,1.4S54.6,45.2,53.8,45.2z"
			/>
		<path fill="#FFFFFF" d="M32.2,3.4c-0.8,0-1.4-0.6-1.4-1.4v-2.9h-4.3c-0.8,0-1.4-0.6-1.4-1.4c0-2.4-1.9-4.3-4.3-4.3h-2.9
			c-2.4,0-4.3,1.9-4.3,4.3c0,0.8-0.6,1.4-1.4,1.4H7.7V2c0,0.8-0.6,1.4-1.4,1.4S4.8,2.8,4.8,2v-4.3c0-0.8,0.6-1.4,1.4-1.4h4.5
			c0.7-3.3,3.6-5.8,7.1-5.8h2.9c3.5,0,6.4,2.5,7.1,5.8h4.5c0.8,0,1.4,0.6,1.4,1.4V2C33.6,2.8,33,3.4,32.2,3.4z"/>
		<path fill="#FFFFFF" d="M38,53.8H0.5c-0.8,0-1.4-0.6-1.4-1.4V9.2c0-0.8,0.6-1.4,1.4-1.4H38c0.8,0,1.4,0.6,1.4,1.4v43.2
			C39.4,53.2,38.8,53.8,38,53.8z"/>
		<path d="M33.6,19.2H6.3c-0.8,0-1.4-0.6-1.4-1.4s0.6-1.4,1.4-1.4h27.4c0.8,0,1.4,0.6,1.4,1.4S34.4,19.2,33.6,19.2z"/>
		<path d="M33.6,27.9H6.3c-0.8,0-1.4-0.6-1.4-1.4c0-0.8,0.6-1.4,1.4-1.4h27.4c0.8,0,1.4,0.6,1.4,1.4C35.1,27.2,34.4,27.9,33.6,27.9z
			"/>
		<path d="M33.6,36.5H6.3c-0.8,0-1.4-0.6-1.4-1.4s0.6-1.4,1.4-1.4h27.4c0.8,0,1.4,0.6,1.4,1.4S34.4,36.5,33.6,36.5z"/>
		<path d="M25,47.8L6.3,47.6c-0.8,0-1.4-0.6-1.4-1.4c0-0.8,0.6-1.4,1.4-1.4L25,44.9c0.8,0,1.4,0.6,1.4,1.4
			C26.4,47.1,25.8,47.8,25,47.8z"/>
	</g>
</g>
<g id="hotel">
	<g>
		<path fill="#FFFFFF" d="M49.5,2h-7.2V-8.1c0-0.8-0.6-1.4-1.4-1.4H9.2c-0.8,0-1.4,0.6-1.4,1.4V2H0.5c-0.8,0-1.4,0.6-1.4,1.4v54.7
			c0,0.8,0.6,1.4,1.4,1.4h18.7V49.5c0-0.8,0.6-1.4,1.4-1.4h8.6c0.8,0,1.4,0.6,1.4,1.4v10.1h18.7c0.8,0,1.4-0.6,1.4-1.4V3.4
			C50.9,2.6,50.3,2,49.5,2z M13.5,45.2H7.7c-0.8,0-1.4-0.6-1.4-1.4s0.6-1.4,1.4-1.4h5.8c0.8,0,1.4,0.6,1.4,1.4S14.3,45.2,13.5,45.2z
			 M13.5,39.4H7.7c-0.8,0-1.4-0.6-1.4-1.4c0-0.8,0.6-1.4,1.4-1.4h5.8c0.8,0,1.4,0.6,1.4,1.4C14.9,38.8,14.3,39.4,13.5,39.4z
			 M13.5,33.6H7.7c-0.8,0-1.4-0.6-1.4-1.4s0.6-1.4,1.4-1.4h5.8c0.8,0,1.4,0.6,1.4,1.4S14.3,33.6,13.5,33.6z M13.5,27.9H7.7
			c-0.8,0-1.4-0.6-1.4-1.4c0-0.8,0.6-1.4,1.4-1.4h5.8c0.8,0,1.4,0.6,1.4,1.4C14.9,27.2,14.3,27.9,13.5,27.9z M13.5,22.1H7.7
			c-0.8,0-1.4-0.6-1.4-1.4s0.6-1.4,1.4-1.4h5.8c0.8,0,1.4,0.6,1.4,1.4S14.3,22.1,13.5,22.1z M13.5,16.4H7.7c-0.8,0-1.4-0.6-1.4-1.4
			c0-0.8,0.6-1.4,1.4-1.4h5.8c0.8,0,1.4,0.6,1.4,1.4C14.9,15.7,14.3,16.4,13.5,16.4z M13.5,10.6H7.7c-0.8,0-1.4-0.6-1.4-1.4
			c0-0.8,0.6-1.4,1.4-1.4h5.8c0.8,0,1.4,0.6,1.4,1.4C14.9,10,14.3,10.6,13.5,10.6z M16.4-0.9c-0.8,0-1.4-0.6-1.4-1.4
			s0.6-1.4,1.4-1.4h5.8c0.8,0,1.4,0.6,1.4,1.4s-0.6,1.4-1.4,1.4H16.4z M27.9,45.2h-5.8c-0.8,0-1.4-0.6-1.4-1.4s0.6-1.4,1.4-1.4h5.8
			c0.8,0,1.4,0.6,1.4,1.4S28.7,45.2,27.9,45.2z M27.9,39.4h-5.8c-0.8,0-1.4-0.6-1.4-1.4c0-0.8,0.6-1.4,1.4-1.4h5.8
			c0.8,0,1.4,0.6,1.4,1.4C29.3,38.8,28.7,39.4,27.9,39.4z M27.9,33.6h-5.8c-0.8,0-1.4-0.6-1.4-1.4s0.6-1.4,1.4-1.4h5.8
			c0.8,0,1.4,0.6,1.4,1.4S28.7,33.6,27.9,33.6z M27.9,27.9h-5.8c-0.8,0-1.4-0.6-1.4-1.4c0-0.8,0.6-1.4,1.4-1.4h5.8
			c0.8,0,1.4,0.6,1.4,1.4C29.3,27.2,28.7,27.9,27.9,27.9z M27.9,22.1h-5.8c-0.8,0-1.4-0.6-1.4-1.4s0.6-1.4,1.4-1.4h5.8
			c0.8,0,1.4,0.6,1.4,1.4S28.7,22.1,27.9,22.1z M27.9,16.4h-5.8c-0.8,0-1.4-0.6-1.4-1.4c0-0.8,0.6-1.4,1.4-1.4h5.8
			c0.8,0,1.4,0.6,1.4,1.4C29.3,15.7,28.7,16.4,27.9,16.4z M27.9,10.6h-5.8c-0.8,0-1.4-0.6-1.4-1.4c0-0.8,0.6-1.4,1.4-1.4h5.8
			c0.8,0,1.4,0.6,1.4,1.4C29.3,10,28.7,10.6,27.9,10.6z M33.6-0.9h-5.8c-0.8,0-1.4-0.6-1.4-1.4s0.6-1.4,1.4-1.4h5.8
			c0.8,0,1.4,0.6,1.4,1.4S34.4-0.9,33.6-0.9z M42.3,45.2h-5.8c-0.8,0-1.4-0.6-1.4-1.4s0.6-1.4,1.4-1.4h5.8c0.8,0,1.4,0.6,1.4,1.4
			S43.1,45.2,42.3,45.2z M42.3,39.4h-5.8c-0.8,0-1.4-0.6-1.4-1.4c0-0.8,0.6-1.4,1.4-1.4h5.8c0.8,0,1.4,0.6,1.4,1.4
			C43.7,38.8,43.1,39.4,42.3,39.4z M42.3,33.6h-5.8c-0.8,0-1.4-0.6-1.4-1.4s0.6-1.4,1.4-1.4h5.8c0.8,0,1.4,0.6,1.4,1.4
			S43.1,33.6,42.3,33.6z M42.3,27.9h-5.8c-0.8,0-1.4-0.6-1.4-1.4c0-0.8,0.6-1.4,1.4-1.4h5.8c0.8,0,1.4,0.6,1.4,1.4
			C43.7,27.2,43.1,27.9,42.3,27.9z M42.3,22.1h-5.8c-0.8,0-1.4-0.6-1.4-1.4s0.6-1.4,1.4-1.4h5.8c0.8,0,1.4,0.6,1.4,1.4
			S43.1,22.1,42.3,22.1z M42.3,16.4h-5.8c-0.8,0-1.4-0.6-1.4-1.4c0-0.8,0.6-1.4,1.4-1.4h5.8c0.8,0,1.4,0.6,1.4,1.4
			C43.7,15.7,43.1,16.4,42.3,16.4z M42.3,10.6h-5.8c-0.8,0-1.4-0.6-1.4-1.4c0-0.8,0.6-1.4,1.4-1.4h5.8c0.8,0,1.4,0.6,1.4,1.4
			C43.7,10,43.1,10.6,42.3,10.6z"/>
		<path fill="#FFFFFF" d="M22.1,50.9h5.8v8.6h-5.8V50.9z"/>
	</g>
</g>
<g id="ticket">
	<g>
		<path fill="#FFFFFF" d="M54.7,9.4C54.7,9.4,54.7,9.4,54.7,9.4l0-0.9H-4.7v0.9c0.2,0,0.4,0.2,0.4,0.4s-0.2,0.4-0.4,0.4v0.9
			c0.2,0,0.4,0.2,0.4,0.4c0,0.2-0.2,0.4-0.4,0.4v0.9c0.2,0,0.4,0.2,0.4,0.4s-0.2,0.4-0.4,0.4v0.9c0.2,0,0.4,0.2,0.4,0.4
			s-0.2,0.4-0.4,0.4v0.9c0.2,0,0.4,0.2,0.4,0.4c0,0.2-0.2,0.4-0.4,0.4v0.9c0.2,0,0.4,0.2,0.4,0.4c0,0.2-0.2,0.4-0.4,0.4v0.9
			c2.8,0,5.2,2.3,5.2,5.2s-2.3,5.2-5.2,5.2V31c0.2,0,0.4,0.2,0.4,0.4c0,0.2-0.2,0.4-0.4,0.4v0.9c0.2,0,0.4,0.2,0.4,0.4
			c0,0.2-0.2,0.4-0.4,0.4v0.9c0.2,0,0.4,0.2,0.4,0.4c0,0.2-0.2,0.4-0.4,0.4v0.9c0.2,0,0.4,0.2,0.4,0.4c0,0.2-0.2,0.4-0.4,0.4V38
			c0.2,0,0.4,0.2,0.4,0.4c0,0.2-0.2,0.4-0.4,0.4v0.9c0.2,0,0.4,0.2,0.4,0.4s-0.2,0.4-0.4,0.4v0.9h59.4v-0.9c0,0,0,0,0,0
			c-0.2,0-0.4-0.2-0.4-0.4s0.2-0.4,0.4-0.4c0,0,0,0,0,0v-0.9c0,0,0,0,0,0c-0.2,0-0.4-0.2-0.4-0.4c0-0.2,0.2-0.4,0.4-0.4c0,0,0,0,0,0
			v-0.9c0,0,0,0,0,0c-0.2,0-0.4-0.2-0.4-0.4s0.2-0.4,0.4-0.4c0,0,0,0,0,0v-0.9c0,0,0,0,0,0c-0.2,0-0.4-0.2-0.4-0.4s0.2-0.4,0.4-0.4
			c0,0,0,0,0,0v-0.9c0,0,0,0,0,0c-0.2,0-0.4-0.2-0.4-0.4s0.2-0.4,0.4-0.4c0,0,0,0,0,0v-0.9c0,0,0,0,0,0c-0.2,0-0.4-0.2-0.4-0.4
			c0-0.2,0.2-0.4,0.4-0.4c0,0,0,0,0,0v-0.9c-2.8,0-5.2-2.3-5.2-5.2s2.3-5.2,5.2-5.2V19c0,0,0,0,0,0c-0.2,0-0.4-0.2-0.4-0.4
			c0-0.2,0.2-0.4,0.4-0.4c0,0,0,0,0,0v-0.9c0,0,0,0,0,0c-0.2,0-0.4-0.2-0.4-0.4c0-0.2,0.2-0.4,0.4-0.4c0,0,0,0,0,0v-0.9c0,0,0,0,0,0
			c-0.2,0-0.4-0.2-0.4-0.4s0.2-0.4,0.4-0.4c0,0,0,0,0,0v-0.9c0,0,0,0,0,0c-0.2,0-0.4-0.2-0.4-0.4s0.2-0.4,0.4-0.4c0,0,0,0,0,0V12
			c0,0,0,0,0,0c-0.2,0-0.4-0.2-0.4-0.4s0.2-0.4,0.4-0.4c0,0,0,0,0,0v-0.9c0,0,0,0,0,0c-0.2,0-0.4-0.2-0.4-0.4
			C54.2,9.6,54.4,9.4,54.7,9.4z"/>
		<g>
			<rect x="4" y="12.5" fill="#FFFFFF" width="41.4" height="25.1"/>
			<g>
				<polyline fill="none" stroke="#010101" stroke-width="0.72" stroke-miterlimit="10" points="45.4,36.5 45.4,37.6 44.3,37.6 				
					"/>
				
					<line fill="none" stroke="#010101" stroke-width="0.72" stroke-miterlimit="10" stroke-dasharray="2.0653,2.0653" x1="42.3" y1="37.6" x2="6.1" y2="37.6"/>
				<polyline fill="none" stroke="#010101" stroke-width="0.72" stroke-miterlimit="10" points="5.1,37.6 4,37.6 4,36.5 				"/>
				
					<line fill="none" stroke="#010101" stroke-width="0.72" stroke-miterlimit="10" stroke-dasharray="2.0836,2.0836" x1="4" y1="34.4" x2="4" y2="14.6"/>
				<polyline fill="none" stroke="#010101" stroke-width="0.72" stroke-miterlimit="10" points="4,13.6 4,12.5 5.1,12.5 				"/>
				
					<line fill="none" stroke="#010101" stroke-width="0.72" stroke-miterlimit="10" stroke-dasharray="2.0653,2.0653" x1="7.1" y1="12.5" x2="43.3" y2="12.5"/>
				<polyline fill="none" stroke="#010101" stroke-width="0.72" stroke-miterlimit="10" points="44.3,12.5 45.4,12.5 45.4,13.6 				
					"/>
				
					<line fill="none" stroke="#010101" stroke-width="0.72" stroke-miterlimit="10" stroke-dasharray="2.0836,2.0836" x1="45.4" y1="15.7" x2="45.4" y2="35.5"/>
			</g>
		</g>
	</g>
</g>
<g id="velvet_rope">
	<g>
		<path fill="#FFFFFF" d="M54.8,40.9V5.7c0-1.2-1-2.2-2.2-2.2c-1.2,0-2.2,1-2.2,2.2v1.1c0-0.1-0.1-0.1-0.1-0.1
			c-0.4-0.3-0.8-0.5-1.2-0.5c-0.5,0-1,0.2-1.4,0.6c-0.6,0.6-0.6,1.5-0.2,2.2l-0.2,0.3l0,0C46.1,8.6,44.7,8.9,44,10
			c-0.4,0.5-0.7,1-1.2,1.4l3.4,3.5c0.7-0.7,1.4-1.4,1.9-2.2c0.6-0.9,0.5-2-0.1-2.9l0,0l0.2-0.3c0.3,0.1,0.6,0.2,0.9,0.2
			c0.5,0,1-0.2,1.4-0.6l0,0v31.6c-2,0.1-4,0.7-4,2.7c0,2.8,3.7,2.8,6.2,2.8s6.2,0,6.2-2.8C58.7,41.6,56.8,41.1,54.8,40.9z M49.6,8.7
			c-0.2,0.2-0.5,0.3-0.8,0.2c0.1-0.2,0.1-0.4-0.1-0.6c-0.1-0.1-0.4-0.1-0.6-0.1c-0.1-0.3,0-0.6,0.2-0.8c0.1-0.1,0.4-0.3,0.6-0.3
			c0.2,0,0.4,0.1,0.6,0.2c0.1,0.1,0.3,0.4,0.3,0.6C49.9,8.2,49.7,8.4,49.6,8.7z"/>
		<path fill="#FFFFFF" d="M26.3,17.4L26.3,17.4c-0.4,0-0.9,0-1.4,0c-0.4,0-0.9,0-1.4,0l0,0c-6.4-0.2-12.2-2.2-15.7-5.3l-3.4,3.5
			c4.6,4.1,12.1,6.6,20.2,6.6c0.1,0,0.1,0,0.2,0c0.1,0,0.1,0,0.2,0c8.1,0,15.6-2.5,20.2-6.6L42,12.2C38.5,15.2,32.7,17.2,26.3,17.4z
			"/>
		<path fill="#FFFFFF" d="M1.9,12.8c0.5,0.8,1.2,1.5,1.9,2.2l3.4-3.5C6.7,11,6.3,10.5,6,10C5.2,8.9,3.8,8.7,2.7,9.3l0,0L2.5,9
			c0.4-0.7,0.4-1.6-0.2-2.2C1.9,6.4,1.4,6.2,0.9,6.2C0.5,6.2,0,6.4-0.3,6.7c-0.1,0.1-0.1,0.1-0.1,0.1V5.8c0-1.2-1-2.2-2.2-2.2
			s-2.2,1-2.2,2.2V41c-2,0.1-4,0.7-4,2.7c0,2.8,3.7,2.8,6.2,2.8s6.2,0,6.2-2.8c0-2-1.9-2.6-4-2.7V9.3l0,0C0,9.7,0.5,9.9,1,9.9
			c0.3,0,0.6-0.1,0.9-0.2L2.1,10l0,0C1.4,10.7,1.3,11.9,1.9,12.8z M1.7,8.2C1.5,8.1,1.3,8.2,1.1,8.3C1,8.4,0.9,8.7,1.1,8.9
			C0.8,8.9,0.5,8.8,0.3,8.7C0.1,8.5,0.1,8.3,0.1,8.1c0-0.2,0.1-0.4,0.3-0.6c0.1-0.1,0.4-0.2,0.6-0.2c0.2,0,0.4,0.1,0.6,0.3
			C1.7,7.7,1.8,8,1.7,8.2z"/>
	</g>
</g>
</svg>
