<?xml version="1.0" encoding="utf-8"?>
<!-- Generator: Adobe Illustrator 18.1.1, SVG Export Plug-In . SVG Version: 6.00 Build 0)  -->
<!DOCTYPE svg PUBLIC "-//W3C//DTD SVG 1.1//EN" "http://www.w3.org/Graphics/SVG/1.1/DTD/svg11.dtd">
<svg version="1.1" id="Layer_2" xmlns="http://www.w3.org/2000/svg" xmlns:xlink="http://www.w3.org/1999/xlink" x="0px" y="0px"
	 viewBox="0 0 1223 972" enable-background="new 0 0 1223 972" xml:space="preserve">
<g opacity="0.8">
	<path fill="#6DCFF6" d="M66.6,587.8c0.1,0.5,1.9,0.9,3,0.9c4,0,8-0.6,12-0.3c5,0.5,9.9,1.1,13.3-1.6c1.2,1.5,2.3,2.8,3.9,4.9
		c0.4-2.1,0.6-3,0.8-3.8c1.6,0.4,3.1,0.7,5,1.2c-3.4,2.9-6.4,5.5-10.1,8.7c3.5,0.2,6.3,0.8,7.8-2.9c0.4-1,1-2.7,1.7-2.8
		c4-0.3,4.5-4.1,7-6.9c0.7,1.9,1.5,3.3,1.5,4.7c0,1.5-0.8,3-1.2,4.5c-0.4,1.4-0.7,2.8-1,4.2c0.3,0.1,0.5,0.2,0.8,0.3
		c1.3-1.4,2.7-2.9,4.3-4.6c-0.2,2.7-0.4,4.7-0.5,6.2c6.5,2.1,5.6-2.9,6.5-6.2c0.2-0.8,0.9-1.6,1-2.4c0.2-1.4,0-2.8,0-4.3
		c-1.2,1.4-2.2,2.5-3.2,3.6c-0.4-0.2-0.8-0.4-1.2-0.6c0.6-2.4,1.2-4.7,1.8-7.1c-0.4-0.2-0.7-0.3-1.1-0.5c-1.2,2.2-2.5,4.5-3.9,7
		c-0.7-0.9-2.1-2.1-1.9-2.7c1.1-3,1.4-6.5,4.8-8.2c1-0.5,1.6-1.7,3-3.2c-2.1,0.4-3.4,0.3-4,0.9c-2,1.8-3,1.3-4.2-0.8
		c-1.2-2.1-0.9-3.5,0.8-5.1c0.9-0.8,1.4-2,2-3c-1.5-0.8-3.4-2.7-4.3-2.3c-2.3,1.1-5.3-1.2-7,1.8c-0.1,0.2-0.7,0.2-1.1,0.1
		c-3.8-0.6-7.1-1.8-8.8-5.7c1.4-0.9,2.6-1.8,3.8-2.6c-1.9-0.7-3.7-1.4-5.5-2.1c-1.4,1.7-3,3.5-4.6,5.4c-0.5-0.3-1-0.6-1.5-0.9
		c3.4-6.3,6.7-12.6,9.9-18.5c-1.1-0.9-1.9-1.7-3.1-2.8c4.8-0.4,4.8-0.4,5.7-4.5c-4,1.8-8.2,2.4-10.3,4.8c-3.3,4-5.3,9.1-7.6,13.9
		c-1.5,3.1-1.9,6.9-3.9,9.5c-1.8,2.3-2,3.6,0.1,5.3c-5.7,3.4-6.8,6-3.8,8.9c-2.3,1.9-4.7,3.6-6.7,5.8
		C66.2,584.7,66.2,586.6,66.6,587.8z"/>
	<path fill="#6DCFF6" d="M111.9,213.9c0.7,1.1,1.1,2.1,1.6,2.2c0.6,0.1,1.3-0.6,2.1-1c0.1,5.1-4.6,0.9-6.2,3.5
		c2.3,1.4,3.9,4.2,7.2,2.8c3.2-1.4,6.4-2.7,9.4-4.5c1.5-0.9,3.3-2.9,3.4-4.4c0.1-2-0.4-4.6-3.8-5.1c-1.5-0.2-3.4-1.9-4-3.5
		c-2.3-5-6.5-7.1-11.4-7.7c-1.7-0.2-4.1,0.9-5.1,2.2c-0.7,0.9,0.4,3.4,1.2,4.9c0.5,0.9,1.9,1.4,3.7,2.5c-2.2-0.5-3.6-0.7-4.9-1
		c-0.3,1.3-0.5,2.3-0.7,3.2c1.4,1,2.6,1.9,4.5,3.2c-2.2-0.4-3.5-0.7-5.4-1.1C105.8,214.7,107,215.1,111.9,213.9z"/>
	<path fill="#6DCFF6" d="M423.3,61.5c0.3-1.8,0.6-3.5,0.9-5.3c-0.2-0.1-0.5-0.2-0.7-0.3c-0.7,0.8-1.5,1.6-2.6,2.9
		c-1.4-2.1-2.6-4-3.9-6c1.3-0.8,2.3-1.4,3.5-2.1c-0.7-1.4-1.4-2.5-2.1-3.8c-0.6,1.5-1.1,2.7-1.9,4.6c-1.7-3.1-3.8-4-4.6-0.9
		c-0.9,3.1-0.5,6.5-0.7,10.3c4.2-0.2,7.9-0.4,11.6-0.5C423,60.7,423.2,61.1,423.3,61.5z"/>
	<path fill="#6DCFF6" d="M386.6,86.9c1.9,0.8,3.7,2.7,5.5,2.6c2.8-0.2,5.5-1.6,8-2.4c-0.9-1.6-2-2.8-2.4-4.2c-0.8-2.9-4.5-5.2-7.4-4
		c-1.7,0.7-3.1,1.8-4.7,2.8C385.8,83.4,383.4,85.5,386.6,86.9z"/>
	<path fill="#6DCFF6" d="M454.6,315.1c0.8-0.2,1.4-1,2-1.5c-2.2-2.7-1.7-5.5-0.5-8.3c-2.6-1.7-5-3.3-7.9-5.2c-0.2,0-1.3,0.2-2.7,0.5
		c0.8-2.3,1.4-4.2,2-5.9c-2.5-0.8-6.8,0.7-3-3.7c0.2-0.2,0.1-1.1-0.1-1.3c-0.4-0.3-1.2-0.5-1.6-0.2c-0.7,0.4-1.2,1.2-2.4,2.4
		c-1.7-2.8-3.2-5.3-4.8-7.9c-1.5,0.2-2.9,0.3-4,0.5c0,2.2,0.7,4.6-0.2,6.1c-0.7,1.1-3.4,0.9-5.2,1.3c-0.7-0.3-1.1,0.3-1.3,1
		c-1.1,2.9-2.2,3.3-4.2,0.6c-0.8-1.1-2.5-1.5-3.8-2.2c-0.2,0.3-0.5,0.5-0.7,0.8c0.7,2.6,1.5,5.2,2.2,7.8c-1.7-1.8-3.2-3.5-4.1-5.5
		c-1.3-2.9-2.1-3.9-5.3-1.5c-2.2,1.6-2.8,2.5-1.9,4.9c0.2,0.6-0.5,1.7-0.9,2.5c-0.6-0.5-1.3-0.9-1.7-1.5c-1-1.5-1.8-3.2-2.9-4.6
		c-0.5-0.6-1.4-0.8-2.1-1.2c-0.3,0.7-0.9,1.4-0.9,2.1c0.2,1.6,0.9,3.1,0.9,4.7c0,1.1-0.4,2.5-1.2,3.2c-0.4,0.4-1.9-0.4-3.4-0.8
		c-0.8,2.5-1.7,5.1-2.4,7.3c-1.4-2.8-2.9-5.7-4.2-8.2c0.6-0.7,1.8-1.6,1.9-2.6c0.2-1.4-0.1-3.2-0.9-4.2c-2.3-2.8-4.8-5.4-7.6-7.8
		c-1.1-1-3-1.2-4.6-1.3c-0.5,0-1,1.5-1.3,2c1.8,0.5,3.3,0.9,4.8,1.3c-0.1,0.3-0.2,0.6-0.3,0.9c-1.2,0.1-2.3,0.1-3.5,0.2
		c2,2.3,3.7,4.2,5.4,6.1c-0.3,0.2-0.5,0.4-0.8,0.6c-1.3-0.7-2.6-1.3-3.9-2c-0.1,0.2-0.3,0.4-0.4,0.5c-1.3-1.6-2.7-3.1-4-4.7
		c-1.4,1.4-2.8,2.2-3.3,3.5c-0.6,1.2-0.8,3.3-0.2,4.2c0.8,1.1,2.7,1.4,3.7,1.8c-0.3,0.9-0.6,1.7-0.9,2.4c-1.8-1.2-3.4-2.3-5.6-3.7
		c0.6,2.3,1,3.7,1.5,5.6c-1.3-0.7-2.2-1.2-3.1-1.7c-0.4,0.8-0.6,1.5-0.8,1.9c1.6,0.8,3.2,1.5,4.8,2.3c2.5-1.1,5-2.9,7.7-3.1
		c2.7-0.2,5.5,1.2,8.3,2c-0.2,0.8-0.2,1.8-0.8,2.3c-1.2,1.2-2.7,2.2-4,3.3c0.2,0.4,0.3,0.8,0.5,1.3c2.1-0.1,4.1-0.2,6.3-0.4
		c-0.3,0.7-0.7,1.8-1.1,2.9c-0.1-0.3-0.3-0.6-0.4-0.9c-5.9,1.2-11.8,2.3-18.4,3.6c0.8,1.3,1.3,2.2,1.9,3.2c0.1-0.4,0.3-0.8,0.4-1.2
		c2.9-0.1,5.9,0,8.7-0.4c5.5-0.9,2.3,5.2,5.2,6.2c0.9-0.5,1.7-1,2.3-1.3c-0.3,1.7-1.2,3.9-0.7,4.4c2.1,1.9,2,3.4-0.1,4.7
		c-1.7,1.1-4.1,1.7-6.1,2.6c0,0.1,0,1.3,0,2.6c2-0.1,4.4-0.6,6.4-0.3c3,0.5,6.4-1.8,9,1c3.6,4.1,8.6,4.9,13.3,6.7
		c4.9,1.8,9.6,0.3,12.7-3.7c1.1-1.4,3.3-2.7,5-2.6c3.4,0.1,5.7-1.1,7.5-3.8c0.8-1.1,1.8-2.4,2.9-2.8c2.9-1.1,4.9-5.1,8.4-3.1
		c1-0.9,2-1.5,2.8-2.3c0.6-0.6,1.6-1.5,1.5-2.1c-0.4-2.4,0.8-3.2,2.8-4.1c3.1-1.2,3.7-4.8,1.5-7
		C453.4,314.6,454.1,315.2,454.6,315.1z"/>
	<path fill="#6DCFF6" d="M515.6,435.9c-0.5,2.1-4.8,1.5-3.3,4.9c0.5,1.2,0.5,2.6,0.7,4c4-2.2,5.3-6.4,6.4-11.7
		C517.6,434.4,515.8,434.9,515.6,435.9z"/>
	<path fill="#6DCFF6" d="M524.5,492.8c-0.3,0-1.1-0.1-1-0.1c-1.1-2.7-1.4-5.8-3.1-7.3c-3.2-2.9-6.4,0.2-9.7,1.2
		c0.6-0.8,1.1-1.6,1.8-2.6c-4.5-3.2-3.6,1.4-4.3,3c-0.6-0.9-1.3-2.5-1.5-2.4c-1.9,0.8-4,1.4-5.5,2.8c-1.4,1.3-2,3.4-3.1,5.4
		c1.1,0.2,2.7,0.4,4.6,0.8c-1.4,1.7-2.7,3.1-4.7,5.3c-1.5-0.3-3.8-0.6-6.1-1c-3.5-0.6-5,1-3.7,4.4c0.4,1,1.4,1.7,2.3,2.7
		c-0.5,0.3-1,0.6-1.4,1c-1,1.3-1.9,2.7-2.8,4c1.1,0.6,2.1,1.2,3.3,1.7c2,0.8,4,1.5,6,2.2c-5.1,3.1-5.3,9.1-7.8,13.4
		c-1.7,0.3-3.2,0.6-4.8,0.9c0.1,0.3,0.1,0.7,0.2,1c1.6-0.1,3.3-0.2,5.4-0.4c-1.9,1.5-3.4,2.6-5.7,4.4c2.6,0.3,4.1,0.4,5.7,0.6
		c-0.2,0.4-0.6,0.8-0.8,1.2c1,0.6,1.9,1.2,2.8,1.8c-0.1,0.3-0.3,0.7-0.4,1c1.5-0.2,3.2-0.2,4.5-0.8c3.8-1.7,8-3,11.1-5.6
		c3.6-3,7.4-3.1,11-3.4c4.6-8.2,4.2-16.5,1.1-24.5c2.4-2,4.6-3.8,6.1-5.1C524.3,496,524.4,494.5,524.5,492.8z"/>
	<path fill="#6DCFF6" d="M523.7,453.7c-5.3,0.2-2.6-5.2-4.8-6.9c-1.5,1.4-2.7,2.6-4,3.8C517.9,451.5,519.2,456.3,523.7,453.7z"/>
	<path fill="#6DCFF6" d="M562.8,405.5c-0.7-2.8-1.2-5.1-1.8-7.4c-0.4,0.1-0.8,0.2-1.2,0.2c0.4,1.4,0.7,2.8,1.1,4.2
		c-1,0.3-1.8,0.6-3.3,1.1C559.6,404.4,560.8,404.8,562.8,405.5z"/>
	<path fill="#6DCFF6" d="M140.8,326.1c0.5,0.4,2.1,0.3,2.1,0.1c0.3-0.9,0.5-2.7,0.3-2.8c-1.5-0.5-3.1-0.6-5.1-0.9
		C139.4,324.3,139.9,325.4,140.8,326.1z"/>
	<path fill="#6DCFF6" d="M414.2,26.2c0.2-0.1,0.5-0.1,0.7-0.2c-1.1-6.4-2.2-12.8-3.3-19.4c-3.2-0.4-3,1.6-2.5,3.6
		c1.2,4.4,2.6,8.7,4,13.1C413.5,24.3,413.9,25.3,414.2,26.2z"/>
	<path fill="#6DCFF6" d="M353.5,178.6c-0.3-0.1-0.2-1.6-0.5-3.4c-3.5,5.7-10.5,4.5-14,9.1c-2,2.6-6.3,3.6-5.5,8.7
		c3-0.8,5.7-1.9,8.5-2.1c2.7-0.2,4.8-2.6,8.2-1.3c1.4,0.5,4.2-2.5,6.3-3.9C354.7,183.7,357.3,179.9,353.5,178.6z"/>
	<path fill="#6DCFF6" d="M134.8,214.9c0.5,0.1,0.9,0.2,1.4,0.3c1-2.7,2.1-5.4,3.2-8.4c-1.4-0.4-3-0.9-4.5-1.4
		c-0.1,0.2-0.2,0.4-0.3,0.6c0.4,0.3,0.8,0.6,0.9,0.7c0,0,0,0,0,0c0,0,0,0,0,0C135.2,209.8,135,212.4,134.8,214.9z"/>
	<path fill="#6DCFF6" d="M377.4,127.9c1.3,4.1,4.6,2.8,6.6,3.1c0-2.1,0-3.8,0-6.2c-1-0.5-2.7-1.4-4.5-2.4
		c-5.2-2.7-10.1,0.2-15.2,0.4c-0.6,0-1.1,1.4-1.6,2c4.8,0.6,8.9,1.1,12.9,1.6C376.3,126.7,377.2,127.3,377.4,127.9z"/>
	<path fill="#6DCFF6" d="M400.4,60.4c-0.7-0.5-2.4-0.5-2.9,0c-2.8,2.7-0.7,8.6,3.2,9.7c3.8-4.9,3.8-5,0.3-6.4
		C400.8,62.2,401,60.7,400.4,60.4z"/>
	<path fill="#6DCFF6" d="M373.5,116.4c-2.9-4.8-11.8-8.1-15.6-5.7c-2.1,1.3-3.2,4.2-4.7,6.3c5.4,4.8,17.1,5.5,23.5,1.4
		c-5.4-1.5-10.7-2.9-15.9-4.4c0.1-0.3,0.2-0.6,0.3-1C365,114.2,369,115.3,373.5,116.4z"/>
	<path fill="#6DCFF6" d="M3.5,19.9C4,21,4.7,22.1,5.6,23.8c0.5-4.1,2.1-6.8,4.8-8.1c0.6-0.3,1.7-0.1,2.2,0.3
		c0.5,0.5,0.8,1.6,0.6,2.2c-0.7,1.7-1.7,3.2-2.7,5.1c1.4,0.8,2.7,1.6,4.4,2.5c0.2-2.4,0.4-4.1,0.6-6.6c0.9,1.4,1.3,2,1.8,2.8
		c0.9-2.2,2-2.6,3.5,0.1c-0.1-2.2-0.2-3.5-0.3-5.1c0.8,0.2,1.4,0.3,2,0.5c0.4-1.2,0.7-2.4,1-3.7c0.3,0,0.5,0,0.8,0
		c0.5,2.5,1,5,1.5,7.6c2.6-1,4.4-3.5,5.1-6.9c0.2-0.9,0.7-1.8,1.1-2.6c1.3,0.7,3.1,1.2,3.6,2.2c1.2,2.5,2.4,3,5.2,2.6
		c2-0.3,4.3,1.6,6.4,2.4c0.1,0.1,0.5-0.6,0.8-0.7c2.4-0.8,5.9,1.3,5.6,3.4c-0.5,3,0.3,3.6,3.2,2.6c2.2-0.8,4.4-0.6,3.6,3.1
		c1.4-0.2,2.5-0.4,4.4-0.6c-0.9,2.3-1.7,4.2-2.7,6.7c3.9-3.4,3.9-3.4,5.8,0.3c0.4,0.9,1.2,1.6,1.7,2.3c1.4-0.2,2.8-0.4,4.8-0.6
		c-0.7,1.3-1,1.9-1.3,2.5c3.1,0.4,0.8,4.2,3.1,5.2c0.4,0.1,0.4,2.3,0.2,2.4c-2.6,0.9-0.6,3.3-1.5,4.3c1.4,1.3,4,2.8,3.8,3.7
		c-1.1,4.3,1.1,6.5,4.2,8.4c0.7,0.4,1.4,0.8,1.9,1.3c1.6,1.7,3.4,3.4,4.5,5.4c1,1.7,0.5,4.4,1.7,5.9c1.9,2.5,2.2,2.2-0.2,3.5
		c-0.6,0.3-1.1,0.5-2.2,1c2.1,0.4,3.6,0.6,5,0.9c0,0.3,0,0.7,0,1c-1.4,0.3-2.9,0.5-5.1,0.9c1.6,0.7,2.5,1,3.8,1.6
		c-2.8,1.8-5.3,3.4-7.9,5c0.2,0.3,0.4,0.6,0.6,1c2.8-1.7,5.7-3.4,8.5-5.1c0,0.1,0.2,0.7,0,1c-2.9,3.2,0.4,5.7,1,8.3
		c0.3,1.1,2.2,1.8,2.6,2.1c-0.9,2.4-1.8,3.8-1.8,5.2c0.1,4.9,4.6,7.1,6.6,10.3c-0.9,1.1-1.7,2.2-2.5,3.2c1,0.9,1.8,1.5,2.6,2.2
		c-1.6,1.3-3,2.5-4.4,3.7c5.1,1,10.1,2,11.4,8.2c-4.7,3.1-5.5,5.7-2.5,9.4c-2.4-0.4-4.5-0.8-6.6-0.9c-0.6,0-1.4,0.7-1.8,1.3
		c-0.2,0.2,0.3,1.4,0.6,1.5c1.1,0.2,2.5,0.4,3.4,0c2.5-1.2,2.3,0.8,1.9,1.8c-1.5,3.2-3.4,6.3-5.5,9.8c1.5,0.5,3.4,1.2,5,1.8
		c-2.3,1.8-4.9,3.7-7.4,5.7c0.5,0.9,0.9,1.7,1.4,2.5c1.2,2.2,0.1,6.7,5.2,5c0.2-0.1,0.6,0.3,0.9,0.5c3,3.2,5.8,0.5,8-0.9
		c2.4-1.5,0.5-3.4-0.8-4.9c-0.1-0.2,0.1-0.7,0.3-1.3c0.8,0.3,1.4,0.6,2.4,1.1c-0.2-1.3-0.3-2.2-0.5-3.2c3.6-0.8,4.2-4.8,1.6-8.7
		c-1.1-1.7-1.6-3.9-2.3-5.8c0.3-0.1,0.6-0.2,0.8-0.3c1.7,4.3,3.4,8.5,5.3,13.4c1.3-2.2,2.2-3.9,3.2-5.6c0.3,0.2,0.6,0.3,0.8,0.5
		c-1.3,2.5-2.5,5-4.1,8.1c4.3-1.5,8.7,6,12.6-1.8c1,3.9-1.1,4.5-3.5,5.2c-2.5,0.8-4.8,2.1-7.7,3.4c3.7,2.6,5.9,1.4,8.3-0.1
		c3.1-1.9,3.6-1.9,6.4,0.4c-6.7-1.3-8,3.2-9.6,7.3c1.6-1.1,3-2.4,4.4-3.8c1.9-1.8,2.5-1.5,3.1,0.6c-2,1.4-3.9,2.6-5.7,3.8
		c0.2,0.2,0.3,0.5,0.5,0.7c2.5-0.2,4.9-0.4,7.5-0.6c-2.6,4.1,2,2.3,2.5,4.6c-2.4-0.8-4.9-1.5-7.3-2.3c1.9,2,4.3,3.4,6.7,4.5
		c1.9,1,3.9,5,2.9,6.2c0,0-2.2,3.9-2.2,3.9c0.3,0.4,0.6,0.9,1.5,2.1c0.7-1.3,1.2-2.2,2.1-3.7c-0.1,2.4-0.2,3.9-0.4,6.4
		c-4.1-2.2-8.2-3.7-11.5-6.2c-3.9-3-6.9-6.9-12.6-5.7c-0.6,0.1-1.4-0.3-2.1-0.6c-3.3-1.6-5.6-0.6-7.9,3c2.5,2.4,4.7,6.1,7.8,7.1
		c4.5,1.4,8.3,2.9,10.9,7c1.6,2.5,7.3,3.3,9.7,1.8c0.7-0.4,1.9,0.2,2.9,0.3c0,0.3-0.1,0.6-0.1,0.9c2.1-0.5,4.1-1,6.2-1.4
		c0.1,0.4,0.2,0.8,0.3,1.1c-0.9,0.5-1.8,1-2.5,1.4c0.8,1.5,1.6,3,2.2,4.2c-1.8,0.6-3.2,1-5,1.5c1.6,1.1,2.5,1.7,4.2,2.9
		c-2-0.3-2.9-0.5-4.2-0.7c0.3,1.2,0.5,2.1,0.7,3c1.3-0.3,2.3-0.6,3.3-0.8c0.1,0.3,0.2,0.5,0.2,0.8c-1.4,0.5-2.9,1-4.5,1.5
		c-0.5,1.7-1.1,3.8-1.7,5.9c0.2,0.3,0.4,0.5,0.7,0.8c1.6-1.3,3.6-2.7,4.6-4c0,0.9,0,2,0,2.4c2,0.4,3,0.7,4.3,1
		c-0.1,0.3-0.2,0.7-0.3,1c-1.6,0.3-3.2,0.7-4.9,1c0,0.2,0.1,0.5,0.1,0.7c0.9,0.2,1.8,0.3,3.2,0.6c-0.6,1.3-1.1,2.3-1.6,3.4
		c-1.8-1.5-3.3-2.7-4.9-4.1c0,0.1,0.1-0.4,0.1-0.9c-0.6,0.4-1.5,0.7-1.6,1.2c-0.4,2.5-0.6,4.9-0.9,7.8c1.2-0.7,2.3-1.4,3.3-2
		c-0.8,5.8-4.4,7.6-9.3,6.3c-1.1-0.6-2.2-1.2-3.3-1.9c-0.1,0.2-0.3,0.5-0.4,0.7c0.4,0.2,0.9,0.4,2.4,1c-2.2-0.1-3.3-0.2-3.4-0.2
		c-1.5,2.2-2.8,4-3.5,5c1.2,1.6,2.3,3,3.3,4.3c-1.8,0.3-3.6,0.6-5.4,0.9c0.3,0.1,0.6,0.2,0.9,0.2c-1.6,2.6-3.3,5.2-4.9,7.8
		c-0.6,1-1,2.4-0.9,3.8c0,0.7,0.8,1.5,1.3,2.2c-1.1,2-2.2,3.6-3.6,6.6c2.1,0,3,0,4,0c0,0,0,0,0,0.1c-1,0.4-2.3,0.9-3.6,1.4
		c2.4,7.4,8.5,3.9,13.9,5.2c-2.2,0.5-3.3,0.8-4,0.9c0.3,1.2,0.5,2.1,0.8,3.2c-2.4,0.3-4.5,0.6-6.6,0.8c-0.1,0.3-0.1,0.6-0.2,0.9
		c1.1,0.7,2.2,1.4,3.8,2.4c-1.9,0-3.4,0-5.3,0c0.3,4-1,8.9,2.6,12c2.2,1.9,3.6,3.2,0.8,6.2c1.9-0.3,3-0.5,3.1-0.5
		c1.2,1.7,1.9,2.7,2.6,3.7c0.5,0.7,1.6,1.9,1.4,2.2c-3.2,4.4,1.7,1.5,2.7,2.7c0,2.3,0,5.1,0,8.5c1-1,2.6-2,4-3c0,0.5-0.2,1-0.2,1.6
		c0.6-0.2,1.1-0.4,1.2-0.4c-1.6,1.9-4,3.7-4.8,6c-0.9,2.5-0.2,5.6-0.2,8.4c0.5,0.2,1,0.3,1.6,0.5c2-4,4-7.9,6-11.9
		c0.2,0.1,0.4,0.2,0.4,0.2c0,0.9,0,1.8,0,3.6c2-2.2,3-3.6,3.8-4.6c1,0.4,2.2,0.8,3.3,1.3c0.4,0.1,0.8,0.4,1,0.7
		c1.4,2.6,2.7,5.3,4.1,7.9c-2.5-4.3-6.4-0.5-9.6-1.6c-0.2-0.1-1,0.6-1,0.9c-0.1,4.5-3.5,2.9-5.9,3.7c1.1,0.7,2.3,1.2,3.3,0.9
		c2.9-0.7,5.6-1.8,8.4-2.7c0.1,0.3,0.2,0.6,0.3,0.9c-3.8,1.3-7.6,2.5-11.1,3.7c0.9,1.7,1.6,3.1,2.1,4c-0.7,1.1-1.7,2.3-1.5,2.5
		c1.1,1.4,2.4,2.6,4,4.2c-1,4.4-1,4.4,3.7,5.8c0.1,1.2,0.3,2.4,0.4,3.7c1.2,0.1,2.3,0.2,3,0.3c0.2,2,0.8,4,0.4,5.6
		c-1,3.5-0.7,4.4,3,4.3c-2.4,3.9,2.2,1.8,2.8,2.9c-0.6,0.6-1,1.1-1.6,1.8c1.2-0.1,1.9-0.2,2.5-0.3c0.1,0.2,0.1,0.4,0.2,0.6
		c-0.8,0.5-1.5,1-2.3,1.6c0.2,0.4,0.4,0.7,0.5,1.1c1.4-0.6,2.8-1.2,5-2.2c-0.7,1-1.3,1.7-1.6,2.5c-0.6,1.3-1.7,2.9-1.3,3.8
		c0.5,1.3,2.3,2,3.6,3.1c-1,0.4-1.7,0.6-2.3,0.8c0.1,0.4,0.2,0.8,0.3,1.2c2.1-0.5,4.2-1,6.3-1.6c0.1,0.2,0.1,0.3,0.2,0.5
		c-1,0.5-2,0.9-2.6,1.2c0.6,1.8,1,3.2,1.5,4.8c3.6,0,5.9,2.7,4.7,6c2.8,0.3,3.8-0.1,3.4-1.1c1.4,0,2.8,0,4.2,0
		c0.2,1,0.5,1.4,0.6,1.9c2.1-1.5,3.6-3.3,5.5-3.9c1.9-0.6,3.8-0.4,2.8-3.2c0-0.1,0.7-0.5,1-0.7c0.4,1.1,0.8,2.1,1.2,3.1
		c-1.1,0.9-2,1.6-2.5,1.9c1.1,1.3,2.6,2.4,3,3.7c0.4,1.2-0.3,2.8-0.5,4.2c0.3,0,0.6,0.1,0.9,0.1c0.5-0.6,0.9-1.3,1.6-2.1
		c0.7,1.3,1.2,2.3,1.8,3.5c1-0.7,1.8-1.2,3.3-2.1c-1.1,2.6-1.9,4.5-2.8,6.6c1.5,2.3,3.9,2.9,6.6,2.2c1.7,0.6,3.4,1.3,5,1.9
		c1.7-0.3,3.5-0.6,5.7-1c-0.8-2.7-1.4-4.6-2-6.6c0.2-1.2,1.6-2.5,2.5-4.1c0.6-0.9,0.1-2.8,0.3-2.7c0.7-1.4,1.4-2.8,2.2-4.3
		c-1.3-0.6-2.3-1.1-3-1.3c1.2-0.7,2.4-1.3,3.6-2c-1-0.7-2.1-1.4-2.9-1.9c1.4-0.4,2.8-0.8,4.2-1.2c-1-1.1-1.9-2.2-2.6-3
		c0.8-0.3,2.2-0.7,3.5-1.2c-0.4-0.6-0.8-1.3-0.7-1.2c1-1.9,1.9-3.5,2.8-5.2c-1-0.3-1.7-0.5-2.3-0.6c0.3-0.1,0.7-0.3,1-0.4
		c-0.4-1.7-0.3-3.7-1.2-5.1c-0.9-1.3-2.8-2-4.9-3.4c2.5,0.2,4.1,0.3,5.7,0.4c0.1-0.4,0.2-0.8,0.3-1.2c-2.2-1-4.4-2.1-6.6-3.1
		c3.2,0.5,5.2-0.7,5.9-4.4c0.3,1.1,0.6,2,0.8,2.8c2.1-0.9,4.1-1.8,6.5-2.9c-2.4-1.6-5.9-1-5.3-3.6c2.3,0.5,5.6,2,6.3,1.1
		c2.4-2.6-2.3-3.6-2.3-6.6c2.4-0.7,5-1.4,8.9-2.6c-3.3-1.7-5.8-3-8.3-4.3c0.1-0.3,0.1-0.6,0.2-0.9c2.9,1,5.8,1.9,8.8,2.9
		c0.4-3.1-2.2-5-0.1-7.2c-0.9-0.6-1.9-1.9-2.7-1.8c-2.7,0.3-4.3-0.6-5.1-3.4c3.2-0.5,6.5-0.9,9.4-1.3c-2.2-4.8-4.5-9.7-6.6-14.3
		c2.2-0.4,3.5-0.6,4.4-0.8c2,0.3,4.1,1.3,5.2,0.6c2.4-1.5,2.5-5.1,0.9-7.1c-0.3-0.4-0.3-1.8,0-2c1.2-0.8,2.6-1.2,4.2-1.9
		c0.2,0.2,0.7,0.9,1.3,1.7c0.6-1,1-1.8,1.6-2.9c1.4,4,3.1,1.4,4.9,0.8c1.1-0.4,2.3-0.4,3.4-0.6c-0.3-1.4-0.6-2.9-0.9-4.5
		c0.5-0.2,1.5-0.6,2-0.8c0.6-2.6,1.2-4.8,1.8-7.3c-0.2-0.1-1.1-0.5-2-0.9c0-0.2,0.1-0.4,0.1-0.6c3.1,0.2,6.3,0.3,9.3,0.5
		c-0.6,0.3-1.6,0.8-2.5,1.3c-3.2,1.9-4.5,6-2.7,8.3c-3.3,1.3-3.5,2.6-1.8,6.2c1.2-0.4,1.9-0.9,3.9-1.3c0-1.3,0-2.3,0-3.4
		c0-1.4,1.5-2.7,2.1-3.8c0.2,0.6,0.5,1.7,1,3.1c0.6-0.9,0.8-1.5,1.2-2.1c0.5,0.6,0.7,1.2,1.7,2.7c0-2.6,0-4.2,0-5.6
		c2,0.7,4.4,2.3,4.6,2c1.5-2,2.6-4.3,4-7c0.5,0.1,1.9,0.5,3.4,0.8c-0.1-0.4-0.1-0.7-0.1-0.9l0,0c0,0,0,0,0,0c0-0.1,0-0.1,0,0
		c0,0,0,0,0,0c1.6-0.7,3-1.1,4.2-1.8c2.5-1.3,0.4-6.2,4.8-6.1c0.9-3.6,1.4-7.5,5-9.8c0.2-0.1-0.2-0.9-0.1-1.4
		c0.1-1.4,0.1-2.9,0.6-4.2c1-2.3,2.4-4.5,3.4-6.5c2.9-2.1,7.1-3.7,8.2-6.4c2-5.3-1.7-9.8-5.5-13.8c1-0.6,1.9-1.1,2.5-1.5
		c2.7,3,2.5,8.2,8.3,8.1c-1.1,0.7-1.7,1-2.3,1.4c1.8,2.4,4.6,2.9,11.7,1.9c-1.2-1.4-2.2-2.6-3.2-3.7c1.6,0.4,2.5,1.4,3.5,2.4
		c0.4,0.4,1.1,0.6,1.6,1c0.3-0.5,0.7-1,0.8-1.6c0.4-1.7,0.6-3.4,1.1-5.9c1.7,2.2,2.8,3.6,4.1,5.2c1.4-1.2,2.5-2.6,3.9-3.3
		c1.9-1,4.2-1.3,6.2-2.1c1.1-0.4,2.1-1.2,3.2-1.9c0.3,0.4,0.9,1,1.3,1.3c0.9-0.9,2.1-2.3,2.1-2.3c2.4,2,2.7-1.4,4.2-1.6
		c0.3,0,0.7-0.9,0.8-0.9c3.5,1.5,5-1.8,7.4-2.9c2.5-1.2,3.4-3.4,4.1-5.9c0.8,0.3,1.6,0.6,2.1,0.8c1-1.1,2-2.2,3-3.4
		c-1.1-0.5-1.9-0.9-3.4-1.7c1.7-0.3,2.6-0.7,3.5-0.6c0.9,0.1,1.7,0.6,3.1,1.1c-0.2-1.8-0.3-3-0.5-4c3,1.2,5.2-0.3,5.1-4.2
		c1.1,0.3,2,0.6,3.4,1.1c0.3-1.5,0.5-2.9,0.8-4c1,0.3,2,0.6,3.4,0.9c-0.3-1.8-0.5-2.8-0.7-4c1.1,0.3,1.9,0.6,3.2,1
		c-1.7-2.8-1.9-4.2,1.6-4.5c3.4-0.3,4.1-1.2,5.2-4.5c-9.4,3.5-17-0.9-24.7-5.3c-0.8,0.7-1.4,1.3-2.5,2.3c0.2-1.6,0.3-2.6,0.4-3.9
		c-2.6,1.6-4.8,3.2-7.3,4.5c-1,0.5-2.6,0.7-3.7,0.4c-3-0.9-4.4,0.3-5.1,3c-0.3,1.2-0.8,2.4-1,2.7c-3.8-0.8-6.9-1.5-10.1-2.1
		c7.3,0.8,11.2-7,18.4-7.2c-1.2-1.4-2.4-2.6-3.5-2.5c-3,0.3-6.1,1-9,2c-2.6,1-4.4,1.1-4.8-2.4c-2.4,0.9-4.4,1.6-6.5,2.4
		c-0.2-0.3-0.3-0.7-0.5-1c1.2-0.6,2.4-1.6,3.7-1.8c4-0.5,5-3.6,6.4-6.6c1.5-3.3-1.9-3.6-3.6-5.5c2.3,0.1,4.1,0.2,5.8,0.3
		c-0.7-1.5-1.4-2.9-2-4.3c2,1.3,3.1,4.3,4.5,4.5c2.8,0.3,6.3-0.2,8.7-1.7c2.3-1.4,6.5-1.5,6.2-6c-0.1-0.7,1.8-1.9,1.6-2.1
		c-1-1.5-2.1-3.8-3.5-4c-3.9-0.5-8-0.2-11.7-0.2c-0.6-4.5-3.7-2.2-5.8-2.9c1.4-0.4,2.8-0.9,4.7-1.5c-2.6-3.8-5.8-6.3-10.3-7.6
		c2.7-2.7-0.7-2.9-1.4-4.6c3.4,1.8,6.5,3.9,9.2,6.4c1.8,1.7,3.1,4.1,4.7,6.1c1.7,2.2,3.5,4.1,5.8,0.6c3.2,1.6,7.6,1,9.4,5.1
		c1.3,2.8,2.9,4.1,5.6,1.5c0.3,1.3,0.3,2.6,0.9,3.3c2.4,3.1,3.1,6.6,3.5,10.4c0.8,6.7,5.7,10.3,12.9,9.8c0.2-3.4,0.3-6.9,0.5-10.4
		c0.4,0,0.7,0,1.1,0c0.2,3.2,0.4,6.5,0.6,9.7c0.3-0.3,0.6-0.5,0.9-0.8c1.1,0.5,2.1,1.2,3.3,1.5c0.6,0.2,1.5-0.1,2.1-0.5
		c0.5-0.4,1-1.7,0.9-1.8c-2.2-1.4-1.3-3.9-1.6-5.8c-0.4-2.6-0.1-5.3-0.1-8.3c-0.9,0-1.9,0-3,0c5.5-1,1.8-4.7,2.7-7
		c0.4-1-1.1-2.7-1.7-4.1c-0.5,0.1-1,0.2-1.5,0.3c-0.7,2-1.4,3.9-2.1,5.9c-0.6-0.8-0.5-1.4-0.7-2c-0.8-3.1-1-5.9,2.3-7.9
		c0.6-0.3,0.7-1.5,1-2.3c-0.3-0.1-0.7-0.3-1-0.4c-0.2,0.5-0.4,1.2-0.7,1.5c-0.8,0.8-1.7,1.4-2.5,2.1c-0.2-0.2-0.3-0.3-0.5-0.5
		c0.3-1,0.6-1.9,1.1-3.6c-1.9,1.4-3.2,2.3-4.5,3.2c-0.2-0.2-0.4-0.4-0.6-0.7c1.7-2.4,3.4-4.8,5.2-7.2c-3.4-2.3-6.7-4.6-10.3-7.1
		c-0.3-0.5-0.9-1.7-1.8-2.5c-1.1-1-2.6-1.4-3.7-2.3c-3.4-2.9-6.4-2.2-8,2.1c-0.7,1.9-0.9,3.9-1.3,5.8c-0.2,0-0.3-0.1-0.5-0.1
		c0.5-3.1,1.1-6.1,1.6-9.3c-1.6-0.1-3.1-0.2-4.7-0.3c2.1-1,4.3-0.8,6.3-1.3c1.4-0.3,3.4-1.2,3.8-2.3c0.4-1.4,0-3.7-1-4.8
		c-1.6-1.6-4-2.5-6.1-3.7c-2.7,2.2-5.1,4.3-7.3,6.1c0.1-0.8,0.3-2,0.5-3.4c-1.2,0.3-2,0.4-3.5,0.7c1-0.9,1.5-1.4,3-2.7
		c-3.2-0.2-5.5-0.4-7.8-0.6c0.1-0.5,0.2-0.9,0.3-1.4c2.8,0.7,5.5,1.5,8.3,2.1c0.9,0.2,1.9,0,2.8-0.3c1.8-0.8,3.7-1.6,5.3-2.7
		c1.1-0.8,1.9-2.1,2.8-3.2c-0.9-0.6-1.8-1.3-2.8-1.8c-1.2-0.7-2.6-1-3.6-1.9c-2.3-2.1-4.3-2-6.4,0.1c-0.6,0.5-1.7,1.2-2.1,1
		c-4-2-4.7,0.5-4.8,3.5c-0.5-1.6-1.1-3.1-1.8-5.1c2,0,4.5,0,7.2,0c0.7-1,1.6-1.9,2.5-3.1c-7.1-3.1-8.3-4.3-7.3-7.2
		c0.5,0.5,0.9,0.9,1.3,1.3c1.4,1.8,2.2,4.7,5.6,3.5c0.3-0.1,0.8,0.4,1.2,0.8c3.4,2.9,5.8,2.2,7.3-1.9c0.5-1.2,1.9-2.1,3-2.9
		c0.9-0.6,2.1-0.7,3.3-1.1c-1.1-1.4-1.8-2.4-2.6-3.4c0,0-0.1,0-0.1-0.1l0.1,0c0,0,0.1,0.1,0.1,0.1c1.6,0.7,3.2,1.3,5,2.1
		c-1-3.7-1-6.7,2.4-7.8c2.6,1.4,4.6,2.4,7.2,3.8c-2.6-0.3-4.4-0.6-6.8-0.9c0.5,1.6,0.6,3.1,1.3,3.7c4.3,3.5,8.8,6.7,13.3,10
		c0.4,0.3,1.4,0.2,1.7-0.1c2.1-2,4.1-4.1,6.3-6.3c6.5,2.1,8.7,0.9,8.5-5c-0.1-2.3,0.7-4.6,1-6.1c-3.1-1.7-5.9-3.3-8.8-4.7
		c-1.1-0.6-2.4-0.9-3.6-1.3c-0.1,1.3-0.3,2.5-0.2,3.8c0.2,2.5,0.6,5,0.9,7.5c-0.4,0.1-0.7,0.1-1.1,0.2c-0.3-4.7,0.8-10-4.7-11.8
		c1.1-2.5,2.1-4.8,3.2-7.3c-1-0.2-1.6-0.3-2.7-0.5c1.6-0.7,2.8-1.3,4-1.8c0.3-1.2,0.5-2.4,0.7-3.3c1.2-0.1,2.5-0.1,3.9-0.3
		c5-0.9,9,0.3,9.4,3.3c0.4,3.5,3.1,3.4,5,3.7c1.1,0.1,2.7-1.7,3.7-3c0.9-1.2,1.3-2.9,1.8-4.4c-0.4,0.1-0.8,0.2-1.1,0.3
		c-0.8-2-1.5-4-2.4-6.2c-1,0.9-2,1.8-3.3,3c-2.6-3.9-6.3-3.1-9.3-2.1c0.7-1.3,1.9-2.7,2-4.1c0.2-3-0.2-6-0.4-9.1
		c-0.9-0.2-2.2-0.5-2.5-0.6c-2.8,1.4-4.7,2.5-6.7,3.3c-0.3,0.1-1.3-1.7-1.7-2.2c1.8,0,3.9,0.5,4.3-0.1c2-2.8,4.4-4.1,8.2-3.6
		c-4.7-5.9-9.4-11.8-14.1-17.7c0.3-0.3,0.5-0.5,0.8-0.8c2.5,2.7,5.1,5.4,7.5,8.2c2.1,2.5,3,6.7,7.8,4c0.3-0.2,1.8,1.5,2.5,2.5
		c0.8,1.1,1.3,2.4,2,3.7c0.9-1,2.7-1.9,2.7-2.9c0.2-4-0.1-8.1-0.3-12.1c-0.1-1.7-0.1-3.5-0.7-5c-0.9-2.3-1.8-5.8-3.6-6.4
		c-3.7-1.3-8-1.1-12.1-1.5c-1.3-0.1-2.6-0.2-3.9-0.3c6-1.5,12.5,1,17.9-4.5c-0.4-1.2-0.9-3.2-1.5-5.4c-3,1.2-5.7,2-7.8-1
		c-0.2-0.3-1.4-0.3-2-0.1c-2,0.8-3.9,1.7-5.9,2.5c0.5-2.5,1-4.9,1.5-7.1c-3.2-0.2-5.5-0.4-8.4-0.7c1-1,1.4-1.5,2-2.1
		c0.2,0.1,0.4,0.3,0.6,0.6c1.4,1.6,2.8,2.3,5.3,0.3c-1.6,0-2.2,0-3.9,0c1.7-1,2.6-1.2,3.4-1.6c-0.2-0.3-0.5-0.6-0.7-1
		c-0.7,0-1.5-0.1-2.4-0.1c0.7-0.7,1.3-1.2,1.8-1.7c-0.2-0.3-0.3-0.7-0.5-1c-1.4,0.4-2.8,0.9-4.1,1.3c-0.7-0.9-1.8-2.2-3-3.8
		c0.4-0.6,0.9-1.1,1.5-2.1H0v17.8C3,16.1,2.8,18.5,3.5,19.9z"/>
	<path fill="#6DCFF6" d="M115.7,176.6c-0.1-2-0.2-4-0.3-6.1c-0.7,0-1.4,0-2.2,0c-0.2,1.8-0.5,3.6-0.4,5.3
		C112.9,176.1,114.7,176.3,115.7,176.6z"/>
	<path fill="#6DCFF6" d="M385.5,139.9c-0.8-1.4-1-2.3-1.6-2.8c-2.6-2.4-5.5-4.5-7.7-7.1c-2.7-3.1-9.1-4.5-13-2.2
		c0.5,2,0.4,4.7,1.6,6.2c2.1,2.4,5.1,4.1,7.6,6.1c1.3,1.1,2.5,2.3,3.9,3.4c2,1.6,4,3.1,6.1,4.7c2.1-3.9,0.1-5.1-1.8-6.5
		c-1-0.7-1.7-1.9-2.5-2.8c0.3-0.3,0.6-0.5,0.9-0.8C380.7,138.5,382.6,139,385.5,139.9z"/>
	<path fill="#6DCFF6" d="M790.6,179.2c1.3-0.5,2.4-0.9,3.6-1.4c-0.7-1.4-1.5-2.8-2.1-3.9c-1.6,0.9-2.7,1.6-3.9,2.3
		C789,177.4,789.8,178.3,790.6,179.2z"/>
	<path fill="#6DCFF6" d="M1018.7,169.7c-0.1,0.1,0.2,1.6,0.3,1.6c3.7,0,3.4,3.9,5.6,5.8c2.3-3.5,0.8-8-2.7-8.5
		C1020.9,168.5,1019.7,169.3,1018.7,169.7z"/>
	<path fill="#6DCFF6" d="M990.4,216.1c-5.4,1.5-8.7,12-5,16.3c2.7,3.3,9.9,1.1,12-3.5c0.8-1.8,2-3.5,3-5.2c0.3-0.2,0.7-0.5,1-0.7
		c-2.8-2.3-5.6-4.7-8.6-6.8C992.4,215.8,991.2,215.9,990.4,216.1z"/>
	<path fill="#6DCFF6" d="M771.3,196.6c0.9-2.6,1.8-5.1,2.9-8.3c-2.6,1.5-4.8,2.1-5.6,3.5c-0.6,1,0.5,3.1,0.9,4.7
		C770.1,196.5,770.7,196.5,771.3,196.6z"/>
	<path fill="#6DCFF6" d="M1178.7,109.4c-2.1,0.5-5.3,0.3-6.2,1.7c-1.9,2.8-2.5,6.5-3.7,9.8c0.3,0.4,0.7,0.8,1,1.3
		c4.6-1.4,9.2-2.9,14.2-4.4c-0.7-1.5-1.1-2.4-1.5-3.3c-1.2,0.4-2,0.7-2.9,1C1179.3,113.1,1179,111.2,1178.7,109.4z"/>
	<path fill="#6DCFF6" d="M1082.3,211c1.9-0.2,3.9-0.5,5.8-0.8c-0.4-1.8-0.2-4-1.2-5.4c-2.5-3.5-5.4-6.7-8.3-9.8
		c-0.9-1-2.5-1.3-3.7-1.9c-0.6,1.6-1.1,3.1-1.8,5.1c0.4,0.1-0.3-0.1-1-0.2c-0.3,0.4-0.7,0.7-1,1.1c1.9,2.1,3.6,4.4,5.7,6.2
		c1.7,1.5,5.4,0.8,4.5,4.8C1081.2,210.3,1082,211,1082.3,211z"/>
	<path fill="#6DCFF6" d="M772.7,183.3c-0.4-0.3-0.7-0.6-1.1-0.9c-1,1.3-2.1,2.6-3.3,4c-0.3-0.6-0.7-1.3-1.4-2.7
		c-0.2,1.5-0.3,2.3-0.4,2.5l0,0c0,0.1,0,0.1,0,0c-2.3,0.5-3.9,0.8-5.2,1.1c0.3,4.8,4,3.5,5.7,2.5
		C769.4,188.4,770.8,185.5,772.7,183.3z"/>
	<path fill="#6DCFF6" d="M1136,9c-1.5-0.7-2.9-1.4-4.5-2.1c-0.3,4.2-7.7,1.4-6.3,6.3c-2,1.2-3.9,2.3-5.5,3.2
		c-1.1-0.4-2.9-1.4-3.2-1.1c-3,3.6-7.6,3.6-11.7,5.5c-0.1-1.1-0.2-2-0.3-3c-3.3-0.3-6.2-0.8-9.2-0.8c-1.9,0-3.7,3.7-2.4,4.2
		c2.5,1.1,1.3,2.9,0.7,3.5c-1.2,1.1-3,1.6-4.6,2.4c-0.2-0.3-0.3-0.5-0.5-0.8c0.6-1,1.2-2,1.7-3c-0.2-0.3-0.4-0.5-0.6-0.8
		c-1.5,0.8-2.9,1.5-4.5,2.3c1,1.1,1.7,1.9,2.2,2.4c-4.2,4-12.2,1.2-13.7,9c0,0.2-0.7,0.2-1,0.4c-1.6,0.8-3.2,1.7-4.9,2.6
		c0.9,0.5,1.8,0.9,3,1.6c-2.7,1.2-4.9,2.2-7.1,3.2c0.9,2.3,1.7,4.1,2.9,7c-1.9-0.8-3.1-1.5-4.4-1.7c-1.5-0.2-3.1,0-4.7,0
		c0.1,1.3,0.2,2.6,0.3,4.1c-1,1.5-2.3,3.5-3.3,5.1c-1.6-1.2-3.1-2.4-4.6-3.5c-0.3,0.2-0.7,0.4-1,0.6c0.2,2,0.3,4,0.5,6.1
		c1.3-0.4,2.4-0.8,3.6-1.2c0.3,1.6,0.5,2.8,0.6,3.7c-1.6,1.1-3.1,2.2-4.3,3c3,1.4,5.7,2.7,9.3,4.4c-1.7,0.2-2.6,0.4-3.5,0.4
		c-2.3,0.1-4.6,0-6.8,0.3c-0.5,0.1-1.2,1.4-1.1,2.1c0.1,0.7,1,1.4,1.7,1.9c0.8,0.7,1.8,1.2,3.1,2.1c-3.1,0.8-5.2,1.4-8,2.1
		c1.9,1.5,3,2.6,4.1,3.5c-0.1,0.3-0.2,0-0.3,1c-1.6,0-3.2,0-4.6,0c2.1,1,4.1,3.1,6.1,4.7c-2.1,0-3.8-0.8-5.5-1.3
		c-2.9-0.9-5.6,2.9-4.2,5c-3,2.5-5.8,4.8-8.8,7.3c0.7,0.8,1.4,1.7,2.1,2.5c0.1,0.1,0.1,0.3,0.2,0.3c1,0.2,2.1,0.8,3,0.5
		c2.5-0.8,4.9-2,7.3-3c0.3,0.4,0.6,0.9,0.9,1.3c-6.5,0.4-7.8,5.3-9.6,10.3c0.8,0,1.6,0.1,2.5,0.1c-1,1.4-1.7,2.4-4.1,2
		c-1.8-0.3-4.2,1.5-5.7,3c-0.8,0.8-0.1,3-0.1,4.9c-0.1,0.1-0.9,0.5-2.1,1.2c1.7,0.9,2.9,1.6,4.2,2.2c-1.4,0.4-2.6,0-3.8-0.2
		c-2.7-0.6-6.2,2.5-5.2,4.8c0.8,1.8,2.9,3,4.1,4.1c-1.6,5.1-3.2,10-4.8,15c-0.4-0.2-0.8-0.4-1.3-0.6c-4.4-2.1-6-1.4-6.3,3.5
		c-0.2,3.2,0.2,6.4,0.7,9.5c0.5,2.7,3.3,4.1,4.9,2.8c1.1-0.9,2.3-1.9,3.6-3c0.7,1.6,1.1,2.7,1.7,4.1c2-0.9,3.8-1.7,5.5-2.4
		c-1.2,4.7-1.1,6.9,1.2,8.6c1.1,0.8,3,0.6,4.7,0.9c0,0.4,0.1,1.4,0.3,2.7c-1.2,0.3-2.8,0.7-4.4,1c0.3,1.2,1,2.3,0.9,3.4
		c-0.1,2.8,1.3,4.5,4.1,4.3c1.2-0.1,2.3-0.2,3.3-0.3c1.6,1.8,3.1,3.4,4.8,5.3c0.7-1.9,1.2-3.2,1.7-4.4c3,0.2,5.5,4.2,8.1,0
		c0.2-0.3,1.6-0.3,1.6-0.2c1.3,4.3,5.5,0.7,8,2.9c0.3-1.6,0.5-3.7-0.2-4.2c-6.8-4.4-11-10.8-13.4-18.2c-2-6.2-6.1-12.3-2.7-19.3
		c0.2-0.5-0.3-1.4-0.6-2.1c-1-3,1.1-10.6,3.8-12.6c-1.2-0.8-2.3-1.5-3.8-2.6c5.5,0.6,6.5-0.3,6.1-4.5c-1,0.2-2,0.3-3,0.5
		c-0.1-0.2-0.1-0.4-0.2-0.6c1.5-0.7,3.1-1.4,5.3-2.5c-1.8-0.4-2.7-0.6-3.8-0.8c1.2-0.4,2.3-0.7,3.2-1.2c2.2-1,1.7-2.6,0.2-3.4
		c-2.7-1.4-5.6-2.2-8.4-3.3c1.9-0.1,3.7-0.2,5.6-0.2c0.1,3.3,3.4,1.4,5.1,2.5c1.1-1.9,1.9-9.6,1.5-12.1c0.5,0.3,0.7,1.2,1.1,1.3
		c1.4,0.4,2.8,0.5,4.2,0.8c0.1-1.3,0.8-3.2,0.1-3.8c-1.7-1.9-4-3.3-5.4-4.4c2.2,0.2,5.9-0.7,7.5,4.7c1.3-3.6,1.4-6.3-0.3-8.5
		c-1.5-2.1-2.7-4-2-6.8c2.4,1.7,1.7,6.4,4.6,6.2c1.8-2.6,3.3-4.3,4.3-6.2c0.7-1.3,1.4-3,1.1-4.3c-0.6-2.4-1.9-4.6-2.9-7
		c2,1.2,4.1,2.4,6.3,3.8c0.5-2.9,0.9-5.4,1.4-8.4c1.5,1.6,2.8,2.9,4.6,4.8c0.4-1.6,0.9-2.6,0.7-3.3c-0.3-0.9-1.1-1.6-1.9-2.7
		c5.2,1.1,6.2,0.5,5.4-2.6c1.3-1.1,2.3-2.1,3.8-3.4c-2.7-0.7-4.3-1.1-5.3-1.3c1.7-1.5,3.1-2.9,4.5-4.2c0.2,0.6,0.5,1.2,0.6,1.4
		c2-2.8,3.9-5.6,6.1-8.8c0.4,1.2,0.6,1.9,0.9,3.1c1-2,1.5-3.8,2.6-4.8c2.2-1.8,4.8-3.1,7.3-4.6c3.1-1.9,6.2-3.9,9.3-5.8
		c0.2-0.5,1.2,0.2,1.8-0.1c2.2-1,4.3-2.1,6.4-3.4c4.2-2.5,8.1-5.8,12.6-7.6c8.4-3.4,16.1-7.5,20.6-15.5c1.9-3.4,2-7.7,2.8-11.7
		h-24.8C1133.2,3,1136.6,5.8,1136,9z"/>
	<path fill="#6DCFF6" d="M580.6,533.6c4.5-2.1,6.2-5.9,6.4-10.2c0.1-1.8-1.9-4.5-3.7-5.3c-1.9-0.9-5.2-0.9-6.8,0.3
		c-2.2,1.6-2.6,0.6-3.6-0.7c3.1-4.1,2.8-5.9-1.9-9.8c0.6-0.2,1.3-0.5,1.7-0.7c-0.8-1.8-1.4-3.6-2.3-5.2c-1.3-2.4-2.3-6.1-4.3-6.9
		c-6-2.5-6.2-7.7-7.1-12.5c-0.8-4.2-3.6-6.5-6.5-8.8c-1.1-0.9-2.8-1.4-4.2-1.4c-1.5-0.1-3.1,0.6-4.6,1c-0.1-0.3-0.2-0.7-0.3-1
		c2.1-1.3,4.2-2.6,6.6-4.1c-1.2-0.9-2.4-1.7-2.8-2c1.2-1.3,3-2.6,4-4.4c2-3.6,3.8-7.4,5.2-11.3c0.4-1.1-1.1-4-1.5-4
		c-6.2,0.6-13-2.3-18.4,2.9c0.2-1.2,0.4-2.2,0.7-3.6c0.2-0.1,1.1-0.5,2.4-1.1c-0.9-0.6-1.4-0.9-2-1.3c1.8-4.8,9.3-5.7,8.4-12.4
		c-4.3,0.4-8.6,1.7-12.6,1.1c-3.8-0.6-4.3,0.8-4.8,3.6c-0.4,2.2-1,4.5-1.6,6.7c0.3,0.1,0.6,0.3,1,0.4c-1.6,0.4-3.2,0.9-4.7,1.3
		c-0.1,1.4-0.2,2.8-0.2,4.2c0,0.9-0.2,2,0.3,2.6c2.1,2.8,0.2,9.3-3.2,10.4c0.6,0.3,1.1,0.5,2.2,0.9c-1.4,0.5-2.5,0.8-3.5,1.1
		c0.7,1.4,1.2,2.8,2,4.5c0.9-0.6,1.9-1.1,2.5-1.8c0.2-0.2-0.7-1.3-0.7-1.3c1.4-0.9,2.8-1.7,4.1-2.6c0-0.2,0.1-0.4,0.1-0.6
		c0.3,0,0.6,0,0.9,0c-0.3,0.2-0.7,0.4-1,0.6c-1.2,6.8-2.5,13.6-3.7,20.4c0.4,0.1,0.8,0.3,1.1,0.4c0.8-2.3,1.1-4.9,2.4-6.9
		c1.2-1.7,3.5-2.8,4.8-3.7c0.1,2.4,0.2,4,0.4,5.6c0.1,1,0.9,2.1,0.6,2.9c-0.8,2.4-2,4.7-2.9,7.1c-0.3,0.6-0.4,2-0.4,2
		c1.8,0.5,3.7,0.8,5.7,1.2c0-0.2,0.2-0.9,0.4-2c4,4.3,6.3-2.9,9.1-1.4c-0.8,2.7-2.4,5.4-2,7.8c0.4,2.4,1.8,5.9,5.9,4.1
		c-0.9,4.6-1.8,8.8-2.6,12.5c-2.8,0.3-5.5,0.5-8.5,0.8c-0.1-0.1-0.4-0.6-0.8-0.8c-0.9-0.4-1.8-0.5-2.7-0.8c0.3,0.8,0.6,1.7,0.8,2.5
		c0.2,1.3,0.4,2.6,0.6,4c0.3,0.1,1.5,0.1,2,0.7c1.8,2.1,0.8,7.6-1.7,9.1c-2.4,1.5-4.9,2.7-7.3,4c0.6,3.4,2.3,4,5.3,2.8
		c0.9-0.3,2.3,0.8,3.5,1.2c-0.1,0.3-0.2,0.7-0.4,1c1.1-0.1,2.8-0.7,3.1-0.4c2.5,4,5.1,2.7,8,0.5c0.5-0.4,1.3-0.2,2.7-0.4
		c-1.1,1-1.9,1.4-2.1,2c-1.5,3.5-3.9,4-7.4,3.1c-1.2-0.3-3.1,0.9-4.2,2c-2.2,2.1-4.1,4.7-6.1,7c-2,2.2-4.1,4.2-5.8,6
		c1.1,0.3,2.5,0.6,4,1c1.2-4.1,7.1-6.2,11.9-2.5c0.5-0.7,1-1.1,1.3-1.7c2.5-5.4,3.1-5.5,9.2-4c1.4,0.3,3.1-0.5,4.7-0.7
		c3.3-0.5,6.6-1.1,9.9-1.4c4.8-0.5,10.1,1.2,14.2-2c1.6-1.3,6-1.6,4.4-5.2c-2.6-0.4-4.8-0.8-6.8-1.1
		C578.6,536.5,579.2,534.3,580.6,533.6z"/>
	<path fill="#6DCFF6" d="M714.3,5.8c0.5,0.3,2.3-0.6,2.8-1.5c0.8-1.3,1-3.3,1.5-4.3h-8.2c0.5,1,0.9,1.9,1.5,2.8
		C712.6,4,713.2,5.2,714.3,5.8z"/>
	<path fill="#6DCFF6" d="M700.8,227.7c0.5,4.1,0.4,4-3.3,5.9c-0.9,0.5-1.4,1.6-2.1,2.4c0.2,0.2,0.5,0.4,0.7,0.6
		c1.7-0.9,3.5-1.8,5.2-2.7c0.1,0.1,0.2,0.3,0.3,0.4c-0.8,0.8-1.6,1.7-2.6,2.8C704.6,236.7,705.1,234,700.8,227.7z"/>
	<path fill="#6DCFF6" d="M689,244.6c-0.8,0.6-0.7,2.3-1,3.6c0.4,0.1,0.8,0.2,1.2,0.3c1.3-1,2.5-2.1,3.8-3.1c-0.1-0.3-0.1-0.6-0.2-1
		C691.5,244.5,689.8,244,689,244.6z"/>
	<path fill="#6DCFF6" d="M643.6,346.4c2.5-0.8,4.6-1.5,7-2.2C646.9,341.7,645.5,342.1,643.6,346.4z"/>
	<path fill="#6DCFF6" d="M726.2,214c0.1,0.3,0.2,0.7,0.3,1c2-0.3,4.1-0.6,6.6-1c-0.9-1.9-1.7-3.5-2.4-5
		C729.2,210.7,727.7,212.3,726.2,214z"/>
	<path fill="#6DCFF6" d="M740.9,205.3c-1.7-1.3-3.4-2.5-5.8-4.2c-1.2,1-2.5,2.1-3.9,3.4C735.8,208.8,739.5,208.5,740.9,205.3z"/>
	<path fill="#6DCFF6" d="M723.5,214.6c-1.8,1.3-3.5,2.7-5.1,4.2c-0.5,0.5-0.6,1.4-0.7,2.1c-0.3,1.7-0.6,3.4-0.9,5.2
		c2.2-0.8,5-1.8,8.2-3c0.3-1,1-2.4,1-3.9c0-1.5-0.7-3-1.2-4.5C724.7,214.6,723.7,214.4,723.5,214.6z"/>
	<path fill="#6DCFF6" d="M776.6,190.6c0.4-1.1,1.3-2.5,1-3.3c-0.4-1-1.9-1.6-2.9-2.4c-0.2,0.2-0.5,0.4-0.7,0.6
		c0.4,1.7,0.8,3.3,1.2,5C775.7,190.5,776.2,190.5,776.6,190.6z"/>
	<path fill="#6DCFF6" d="M7.4,896c1.7-0.3,3.2-1.5,4.8-2.3c-0.2-0.5-0.4-1.1-0.5-1.6c-3.9-0.2-7.7-0.4-11.7-0.6v4.5
		C3,896,5,896.3,7.4,896z"/>
	<path fill="#6DCFF6" d="M785.9,733.2c3.1,0,6.2-0.4,9.3-0.7c0.5-0.1,1-0.7,1.5-1.2c-3.2-0.6-6.1-1.2-9.1-1.8c-3.5-0.7-7-1.5-10.5-2
		c-1.8-0.3-4.3-0.9-3.6,2.3c3.1,0.7,6,1.3,8.9,2C783.7,732.1,784.8,733.2,785.9,733.2z"/>
	<path fill="#6DCFF6" d="M705.2,698.5c-6.8,0.3-13,5.5-19.6,0.4c-1.1,0.5-2.4,1.7-3.2,1.4c-2-0.6-3.2-0.3-3.5,1.9
		c-0.3,2.2,1.2,2.7,3,3.4c4.3,1.7,8.5,3.7,12.5,5.9c2.1,1.1,3.9,2.8,6.5,4.6c0.5-2.8,1.6-4.8,1-6.1c-1.6-3.4-0.2-5.9,1.5-8.5
		C704.1,700.5,704.6,699.5,705.2,698.5z"/>
	<path fill="#6DCFF6" d="M854.5,736c2.7-0.8,5.2-2.1,7.1-2.9c0.5-2,0.9-3.3,1.2-4.5c-2.4,0.3-5,0.3-7.4,0.9c-2.1,0.6-4.2,1.7-6,2.9
		c-0.4,0.3,0,2.9,0.6,3.2C851.3,736.1,853.1,736.4,854.5,736z"/>
	<path fill="#6DCFF6" d="M651.9,663.8c0.6-6.2,1.2-12,1.9-18.1c-2,1.5-3.2,2.3-4.3,3.2c-1.2,1-2.9,1.8-3.4,3
		C644.9,655,647.9,661.4,651.9,663.8z"/>
	<path fill="#6DCFF6" d="M871.4,614.4c0-0.5-0.7-1-1.2-1.4c-3.3-2.2-6.3-5-10.5-5.7c0.6,2.4-0.8,3.4-2.9,4.4
		c-2.5,1.2-4.8,2.8-7.1,4.2c3.1,1.1,6.2,1.3,7.7,3c1.5,1.7,1.3,4.8,1.8,7.3c1.8,3.4,4,1.7,6.3-0.5c1-0.9,1.9-1.9,3.1-2.5
		c2.4-1.2,4.9-2.2,8.1-3.5c4.7,2,5.5,1.6,7.2-4.6c-2.4,0.6-4.6,1-6.7,1.8C874.3,618.1,871.7,619.1,871.4,614.4z"/>
	<path fill="#6DCFF6" d="M657.1,479.8c-0.3,0.2-0.8,0-1.3-0.1c0.6,4.2,3,6.9,8.1,8.1c0-2.2,0.7-4.6-0.2-6.1
		C662.4,479.7,660.1,477.6,657.1,479.8z"/>
	<path fill="#6DCFF6" d="M642.3,671.6c3.4,3.9,2.7,8.4,2.1,12.9c-0.2,1.3-0.3,2.8,0.2,4c0.4,1,1.6,1.8,2.6,2.3
		c0.3,0.2,1.6-0.4,1.7-0.7c0.5-3.3,2.5-2.8,5-1.6c0.4-2.2,1.1-3.8,0.9-5.4c-0.7-5,2.5-10-0.5-15c-1.9-3-2.5-3.3-5.3-1.2
		c-1.8,1.4-3.9,2.3-6.6,3.9C642.2,670.4,642,671.2,642.3,671.6z"/>
	<path fill="#6DCFF6" d="M1208.3,244.8c3.9,5.9,3.2,12.5-1.6,17.5c-1.5,1.6-3.5,3.9-3.3,5.6c1,7.9-5.4,10.3-9.9,13.6
		c-2,1.5-3.4,2.2-3.2,4.9c0.2,2.7-3.2,4.8-5.2,3.2c-2.9-2.5-6.2-1.2-9.2-1.9c-4.1-0.9-8.1-2.4-11.9-4.1c-0.9-0.4-1-2.5-1.4-3.8
		c-0.1-0.3-0.1-0.6-0.2-0.9c-1.1-0.2-2.1-0.4-2.8-0.5c1.1-1,2.1-1.9,2.2-2c5.2,0.8,9.8,1.5,14.4,2.3c-1.2,1.2-2.4,2.4-3.7,3.7
		c0.4,0.3,0.7,0.6,1.1,0.9c3,2.4,4.3-1.6,6.7-1.9c0.9-0.1,1.6-1.6,2.4-2.5c-0.9-0.8-1.8-1.5-2.7-2.3c0.7-0.6,1.5-1.6,2.3-1.7
		c3.8-0.4,6.4-4.1,5.7-6.5c1.1-2.1,1.7-3.3,2.5-4.5c0.9-1.4,1.9-2.8,3-4c1.9-2.2,4.1-4.6,3.1-7.7c-1.1-3.4-0.7-5.9,1.6-8.6
		c2.2-2.6,2.8-5.4-0.8-7.7c-1-0.6-1.9-1.6-2.8-2.5c-3.4-2.9-3.9-6.7-3.3-10.9c0.4-2.7,0.3-5.5,0.4-8.2c0-1-0.1-1.9-0.1-2.9
		c-0.1-4.2-0.2-8.3-0.2-12.5c0-1.5,0.2-3.1,0.6-4.6c0.2-1.1,1-2.2,1.2-3.3c0.3-1.9,0.4-3.9,0.3-5.9c-0.4-4.5-0.3-8.9-4.2-12.5
		c-2.1-1.9-4.1-6.5-3.2-8.3c1.6-3,2.7-6,4.1-9.1c3.2-7.4,4-15,3-22.8c-0.1-0.6-0.2-1.5-0.5-1.6c-3.5-1.5-7-3.6-10.6-4.1
		c-5-0.7-10.2-0.2-15.6-0.2c0.5-0.7,1-1.3,2-2.7c-1.8,0.6-3.3,0.7-3.6,1.4c-1.3,2.6-2.7,5.4-3.3,8.2c-1.3,6.1-2,12.3-3.2,18.4
		c-1.1,5.7-2.6,11.4-8.2,14.7c-2.1,1.2-4.9,2.7-5.6,4.7c-1.5,3.9-1.8,8.2-2.7,13.2c2.1-1,3.3-1.5,5-2.3c0.5,1.6,1.3,2.9,1.2,4.2
		c-0.4,3.6-1.2,7.1-1.8,10.7c-0.1,0.5,0,1.2,0.2,1.7c2.4,4.9,2.3,5.3-2.8,6.6c-0.2,2.4-0.4,4.8-0.7,7.6c5-2.8,7.1,3.3,11.1,3
		c1.6,12.8,2.8,14.7,8.9,13.8c-0.9,6.5-3.3,12.2-7.1,18.4c-0.9-2.7-1.2-4.5-2.2-5.9c-1.2-1.6-3-2.8-4.4-4.3
		c-1.8-1.9-3.2-4.4-5.3-5.9c-2.6-2-5.9-3.1-8.7-4.8c-3.1-1.9-6.4-3.8-8.8-6.4c-5.3-5.7-12-8.3-19.2-10c-4.2-1-8.4-1.7-12.7-2.7
		c-1.8-0.4-3.6-1.1-3.4,2c0,0.7-0.9,2.1-1.4,2.1c-5,0.2-3,3.1-2,5.3c2,4.4,4.3,8.8,6.1,12.4c-3.5,2.9-5,7.8-10.7,5
		c0.5,2.2,1,3.3,1,4.4c0.1,1.1,0.1,2.7-0.5,3.4c-0.6,0.7-2.2,1-3.3,0.8c-3.2-0.7-4.7-4.3-2.6-6.9c2.1-2.6,1.3-4.2-1-5.9
		c-0.6-0.4-0.8-1.2-1.4-2.2c-4.1,3.3-10.2,3.8-12.5,9.7c-0.3,0.7-2.4,1.2-3.6,1c-2.2-0.2-4.4-0.7-6.5-1.4c-3.6-1.3-6.4,0.7-8.6,2.5
		c-2,1.6-2.6,4.9-4.1,7.8c-0.5-0.7-1-1.8-1.9-2.4c-0.8-0.6-2.6-1.3-2.7-1.1c-2.6,3.8-5.7,0.2-8.4,1.5c-0.2-0.5-0.1-1.1-0.3-1.6
		c1.9-0.8,3.5-1.5,5.5-2.2c0-3.3,0-6.7,0-10.7c-6-3-8.1,3.5-12.1,5.3c0.8,2.3,4.7,3.2,1.1,5.9c-0.8,0.6-1.9,0.9-3.8,1.8
		c0.7-2,1-2.8,1.3-3.7c-2.3-1.7-4.2-1.8-6.2,0.4c-0.8,0.9-2.1,1.5-3.2,1.7c-4.6,0.7-6.8,4.5-10,7.1c-2.9,2.4-6.4,4.1-10.2,6.4
		c0.2,4.5-5.4,2.3-7.5,4.3c-0.6,4.5-1,8.7-1.7,12.8c-0.2,0.9-1.5,2-2.5,2.2c-2.9,0.6-6,0.5-8.8,1.3c-3.6,1-5.3-0.3-6-3.5
		c-0.6-2.5-1.8-4.1-4.2-5.1c-2.4-1-3.2-3.1-1.9-5.5c2.6-4.7,6.6-7.3,12.1-7.4c0.8,0,1.6-0.1,2.4-0.2c-0.2-5-3.3-8.2-5.6-11.9
		c-1.8-2.9-3.9-4.2-7.2-4.4c-5.1-0.3-10.5,0.9-14.9-2.8c-0.1,0-0.4,0.2-1,0.6c1.6,1.5,3,3.1,4.7,4.3c2.5,1.9,3.8,4.1,3.1,7.4
		c-1.2,5.9-2.3,11.9-3.3,17.8c-0.2,1.1-0.2,2.8,0.4,3.3c5.6,4.5,6.6,7,4.3,13.6c-1.3,3.6-2.9,7-2,11c0.1,0.3-0.3,0.8-0.4,1
		c-0.8-1.4-1.5-2.8-2.2-4.2c-1.2,0.4-2.1,0.7-3.4,1.1c0.7-1.1,1.2-1.9,1.7-2.8c-1.5-1.1-3.1-3.2-4.1-2.9c-3.4,1.1-5.5-0.9-7.9-2.7
		c-0.7,0.9-1.2,1.6-1.7,2.3c-2.3,4.2-4.9,8.1-10.2,9.1c-0.7,0.1-1.3,1-1.9,1.6c-1.7,1.7-3.3,3.7-5.2,5.2c-2.7,2.1-3.6,4.7-1.6,7.3
		c3.1,3.9,1.8,7.4-0.3,11c-0.8,1.3-1.7,2.5-2.6,3.8c-3.7-2.8-7.5-5.5-12.7-2.3c0-0.4,0-0.7-0.1-1.1c0.6-0.7,1.2-1.4,1.9-2.1
		c-4.8-0.5-5.9-7.7-10.5-6.4c-1.5,2.4-2.6,4.1-4.1,6.5c0.8,1.3,2.3,3.6,3.5,5.9c1.7,3.3,3.8,4.4,7.4,1.5c0.8,3,1.7,5.6,2.2,8.2
		c0.4,2.1-4.2,5.6-6.1,4.8c-1.9-0.7-3.8-1.4-5.6-2.4c-1.7-0.9-3.7-1.3-4.3-4c-0.4-1.7-3.1-3.9-4.8-3.9c-3.8-0.1-6-1.7-6-5.5
		c0-2.1-0.5-4.4-1.1-6.4c-0.9-3.2-2.1-6.3-3.2-9.4c0.3,0.1,0.7,0.2,1,0.2c0.7-2.7,1.1-5.4,2.1-7.9c0.6-1.5-0.3-4.9-3.2-7.2
		c-2.4-1.8-5.1-3.2-7.4-4.5c0.7-4-3.4-3.5-4.9-5.4c0.5-0.4,1-0.9,0.9-0.8c-2.4-3.9-4.7-7.5-7-11.2c0.3-0.3,0.6-0.6,0.9-1
		c1.4,0.8,3.1,1.3,4.1,2.4c2,2.3,3.5,4.9,5.6,7.8c0.7-1.5,1-2.1,1.2-2.7c2.7,1.7,5.3,3.4,8.3,5.3c1.4-1.2,3-0.8,4.6,1.2
		c0.8,1,2.1,1.9,3.3,2.3c7.1,2.3,14.3,4.9,21.6,6.6c6.8,1.6,13-1.1,18.2-5.3c3.2-2.6,5.9-6.1,8-9.6c1.3-2.3,2.3-6.1,1.3-8.1
		c-1.6-3.2-2-6.4-2.3-9.7c-0.1-0.9-0.9-2.3-1.6-2.5c-3.5-0.6-4.4-3.8-6.5-5.8c-0.5-0.5-1-1.4-1.6-1.4c-5.8-0.2-8.6-5.5-12.7-8.2
		c-6.7-4.4-12-11-18.2-16.3c-2-1.7-5.3-3.7-7.2-3.1c-3.4,1.1-5.6-1.1-8.4-1.3c-1.3-0.1-2.7-0.4-3.9-0.8c-1.7-0.5-3.3-1.1-4.9-1.7
		c0-0.4,0.1-0.9,0.1-1.3c-1.4,0.6-2.7,1.3-4,1.9c0.1-0.5,0.5-1.7,0.4-1.8c-2.6-1.5-5.3-2.8-9.1-4.7c1.5-0.4,2.2-0.7,2.7-0.6
		c1.3,0.3,2.6,1.1,3.9,1c1.2-0.1,2.3-1.1,3.4-1.6c-0.7-0.9-1.4-2-2.3-2.7c-1-0.8-2.2-1.3-3.3-1.9c-1.2-0.7-2.4-1.5-4.4-2.7
		c0.7,2.1,1.1,3.4,1.6,4.9c-1.1-0.5-1.9-0.8-3-1.3c0.1,1.5,0.1,2.5,0.2,4c-4.5-1.7-8.9-3.5-13.4-5.2c-0.2,1.1-0.3,2-0.5,3
		c-1.5,0-2.8,0-4.4,0c2.3-3,0.2-5-1.6-6.3c-1.9-1.4-4.5-2-6.7-2.9c0.1-0.4,0.3-0.8,0.4-1.2c2.8,0.6,5.6,1.5,8.4,1.7
		c1.8,0.1,3.7-0.7,5.4-1.4c1.6-0.7,3.1-1.7,4.3-2.9c0.9-0.9,1.2-2.2,1.8-3.4c-2.6-0.5-3.4-5.2-7.2-3.1c-0.1,0-0.3-0.2-0.5-0.3
		c0.6-0.6,1.2-1.1,1.8-1.7c-0.8-1-1.5-1.8-1.8-2.1c-2.6-0.2-4.6-0.4-5.6-0.4c-1.6-1.9-2.6-3.2-3.7-4.5c-1.3,1.2-3,2-3.7,3.5
		c-0.9,1.9-0.9,4.3-1.3,6.3c-1.4,0-3,0-4.7,0c1.4-1,2.6-3.1,3.8-4.5c-0.2-0.2-0.3-0.4-0.5-0.6c-1,0.4-2,0.9-3,1.4
		c-0.1-0.1-0.2-0.3-0.3-0.4c0.7-0.7,1.3-1.4,2-2.2c-0.9-0.4-1.7-0.8-2.4-1.1c3.6,0,5.4-1.6,5.8-4.5c-1.3-1-2.2-1.8-3.3-2.6
		c-1.4-0.2-3.1-0.5-5-0.8c0.1,0.7,0.1,1.5,0.2,2.3c-0.2-0.3-0.5-0.5-0.7-0.8c-1,0.7-1.9,1.5-3.1,2.4c1.5,0.8,2.5,1.3,3.1,1.6
		c-1.1,2.2-2.1,4-2.8,5.9c-1.1,2.9-2,5.7-5.6,6.7c0.6-4.9,1.2-9.6,1.8-14.4c-1.5,0.7-2.6,1.6-3.1,2.7c-3,5.7-5.9,11.4-8.8,17.1
		c-0.2,0.4-0.3,1.1-0.6,1.4c-0.5,0.4-1.4,1-1.7,0.8c-0.6-0.4-1.2-1.3-1.1-1.9c0.4-1.3,1.5-2.6,1.6-3.9c0.4-3.9,0.8-7.7,4-10.7
		c1-0.9,1.5-2.5,2.3-3.8c-0.2-0.3-0.4-0.5-0.7-0.8c-1.5,0.7-3.1,1.3-4.1,1.8c-2-1.3-4.2-2.5-6.2-3.9c0,1.9,0,3.4,0,5.1
		c-1-0.6-1.5-1.1-2.2-1.5c-0.2,0.2-0.3,0.4-0.5,0.6c1.3,1.5,2.6,3.1,3.9,4.6c-0.2,0.2-0.3,0.3-0.5,0.5c-0.9-0.4-1.8-0.8-3.2-1.3
		c-0.3,1.9-0.5,3.4-0.7,4.9c-2.6-0.4-6.2,2.3-7.3,6.8c-0.3,1.4-2.8,4.6,2.2,5.3c-1.9,0.7-2.9,1.1-3.6,1.4c-2.7-2.1-1.1-7.7-6.9-7
		c-0.1,0.8-0.3,1.5-0.3,2c-0.9-1.4-1.9-2.9-2.9-4.3c-0.2,0.5-0.5,1-0.7,1.5c-2,0.3-4,0.5-6.9,0.9c3.1,2.4,5.4,4.1,6.9,5.3
		c0.4,2.5,0.7,4.5,1,6.6c-1.9-2.2-3.7-4.4-5.7-6.6c-1.1,2-2.1,3.8-3.4,6c-0.4-1.2-0.6-1.9-1.1-3.5c-1.9,4.9-3.5,9.1-5.2,13.3
		c-0.4-1.7-0.1-3.2,0.2-4.7c0.2-1.7,0.4-3.4,0.5-5c0.1-1.3,0.2-2.7,0.3-4c-0.5-0.1-1-0.2-1.5-0.3c-1.5,4.1-3,8.2-4.5,12.5
		c0.2-2.9,0.3-5.7,0.5-8.7c-4.6,1.1-4.6,1.1-6.2,7.6c-1.4-0.2-2.8-0.4-4.1-0.5c-0.1,0.4-0.1,0.8-0.2,1.1c0.9,1.1,1.7,2.2,2.7,3.5
		c-0.9,0.3-1.6,0.6-2.2,0.8c-0.7-1.5-1.4-3-2-4.4c-0.3,0-0.6,0.1-1,0.1c-0.4,2.5-0.9,5-1.2,7c-1.5,1.5-3,2.6-4,4.2
		c-0.3,0.4,1.1,1.9,1.4,2.5c-1.1,0.9-2.2,1.9-3.4,2.9c0,0,0.4,0.5,0.5,0.8c0,0-0.3,0.3-0.5,0.4c-2.6,1.2-5.2,2.4-6.9,3.2
		c0-0.9,0.1-3-0.1-4.9c0-0.5-1.2-0.9-1.9-1.1c-0.3-0.1-0.9,0.6-1.1,1c-0.5,1.1-0.8,2.2-1.3,3.9c-0.4-1.9-0.7-2.9-0.8-4
		c-0.1-1.1-0.2-2.3-0.2-3.5c-0.5-0.4-1.1-0.8-1.6-1.2c0,0-0.1,0.1-0.1,0.1c-0.6,1-1,2.1-1.5,3.1c0.4-1.2,0.7-2.4,1.1-3.6
		c0.2,0.1,0.3,0.2,0.5,0.4c1.4-2.2,2.9-4.3,4.4-6.5c-4.6,1.6-6.8,5.8-5.9,9.7c0,0.9,0.1,1.8,0.1,2.7c-0.1,3-3.1,7.4-5.7,7.5
		c-3.7,0.1-4.4,2.6-5.6,6.1c1.9-1.2,2.8-2,3.9-2.5c1.9-1,4.4-3.1,5.7-2.5c3.9,1.7,5-1,6.9-3.1c0.2,0.8,0.3,1.6,0.4,2
		c4-0.8,7.7-1.5,11.6-2.2c0.2,0.4,0.3,1.1,1,2.5c-4.2,0.3-7.1,0.6-11.1,0.9c0,3.1,0,5.8,0,8.6c0,0.1-0.7,0.5-1.8,1
		c-0.4-2-0.7-4-1.1-6.4c-1.1,1.7-1.9,3-2.9,4.4c0.8,0.3,1.7,0.6,3.3,1.2c-4.1,1.4-7.3,2.6-11.1,3.9c1.5,0.8,2.5,1.3,3.4,1.8
		c0.8-0.7,1.6-1.4,2.3-2.1c0.8,0.6,1.5,1.1,2.2,1.7c-1.1,0.5-2.6,0.6-2.9,1.3c-0.5,1-0.4,2.5,0.1,3.6c0.5,1,1.7,1.8,2.5,2.6
		c-0.2,0-0.3,0.1-0.5,0.1c-1.8-1-3.6-2-5.6-3.2c-1.3,2-2.7,4.1-4.2,6.2c7.5-0.4,7.8-0.2,8.5,3.2c-3.3-2.8-8.2-2.2-10,1
		c-0.4-0.3-0.7-0.7-2.2-2c2.3,5.1-1.8,4.3-3.2,5.8c0.5,0.8,0.9,1.5,1.2,1.9c-1.8,2.4-3.4,4.8-5.1,7.1c-0.2-0.2-0.3-0.3-0.5-0.5
		c-0.1,1.2-0.2,2.5-0.3,3.9c0.5,0.3,1.4,0.8,2.6,1.5c-1.8,1.4-3.4,2.7-5.1,4c1,1.2,2,2.4,2.8,3.4c-0.9,0-2.7-0.5-3.2,0.1
		c-1.2,1.4-2.3,3.2-2.5,5c-0.2,1.6,0.9,3.3,1.7,5.6c-1.2-0.9-2.1-1.6-2.8-2.2c-0.5,1.7-1,3.3-1.6,5.3c0.9-0.7,1.4-1.1,2.2-1.7
		c0.3,1.9,0.5,3.4,0.7,5c-0.8-0.6-1.6-1.1-2.6-1.8c-1.7,1.8-3.5,3.7-5.2,5.4c0.9,0.9,1.5,1.6,1.8,1.9c-1.6,1.9-2.9,3.5-4.2,5.1
		c-0.3,0-1-0.3-1.2-0.2c-3.1,3.6-6.5,7.1-9,11.1c-0.7,1.2-1.1,2.2-2.3,3.1c-0.7,0.5-1.6,2.1-1.3,2.6c0.8,1.5,2.2,2.6,3.8,4.5
		c2.6-2.2,5.3-4.7,8.1-6.9c0.7-0.5,2.1-0.1,3.1-0.1c-2,3.2-7.3,2.8-4.8,7.5c-2.5,0.5-4.8,1-7.5,1.5c-0.5-1-1.4-2.9-2.7-5.7
		c-1.8,2.7-3,4.7-4.1,6.2c-0.5-0.3-1.3-1.2-1.9-1.1c-1.1,0.1-2.4,0.5-3,1.3c-1.2,1.6-1.9,3.5-2.7,5c0.7,1.2,1.4,2.4,2.1,3.7
		c-0.3,0.2-0.5,0.3-0.8,0.5c-1.1-1.5-2.3-2.9-3.6-4.6c-0.2,2.8-2.6,3.7-5.4,2.8c-1.1-0.4-2.5-0.1-3.7-0.1c-0.2,0.5-0.3,1.1-0.5,1.6
		c1.9,1.2,3.8,2.3,5.6,3.4c-0.1,0.8-0.2,1.7-0.2,1.9c-3.3-0.3-6.7-0.6-10.7-0.9c5.6,6-2.2,4.4-2.4,6.9c0.3,0.9,0.6,1.9,0.8,2.5
		c-1.7-0.4-3.5-0.8-5.8-1.3c0.6,1.1,0.9,1.6,1,1.7c-0.9,1.4-1.7,2.4-2.3,3.6c-0.7,1.3-1.2,2.6-1.6,3.7c0.9,1.3,1.8,2.6,2.7,4
		c-3.3,1.4-3.1,3.1-0.3,6c3.5-0.2,6.5-0.4,9.8-0.6c0-0.1,0.3-0.7,0.5-1.3c1.7,0.7,3.4,1.4,5.3,2.2c-6.1,0.4-11.8,0.8-18,1.3
		c0.3,1.2,0.1,2.9,0.8,3.5c1.9,1.6,1.9,3.5,1.6,5.7c-0.3,2-0.4,3.9-0.5,5.9c0.3,0.1,0.7,0.1,1,0.2c0.6-0.4,1.1-0.9,1.7-1.4
		c0.5,1,1,1.9,1.3,2.5c-1,0.8-1.8,1.5-2.5,2.1c0.4,0.3,0.7,0.7,1.1,1c0.9-1.3,1.8-2.7,2.8-4c1.8-2.4,3-5.7,7.8-5
		c-2.1,1.4-4.1,2.1-5.2,3.5c-1.5,1.9-2.3,4.4-3.5,7c0.1,0.1,0.7,0.6,2.1,1.8c-2.1,0.4-4,0.1-4.8,1c-1.1,1-1.3,2.9-1.8,4.5
		c1.6,0.5,3.2,0.9,5,1.5c-0.2-1.5-0.4-2.1-0.4-2.6c0-0.1,1.1-0.3,1.1-0.3c0.6,1.5,1.4,3,1.4,4.5c0.1,1.6-0.6,3.3-1,5
		c-0.6-0.1-1.8-0.4-3.7-0.9c0.2,2.1-0.3,5,0.8,5.9c4.2,3.4,8.5,7,13.4,9c4.4,1.8,8.6-1.3,11.7-4.6c2.5-2.7,4.6-6,7-8.8
		c0.9-1.1,2.9-2.8,3.4-2.5c3.2,2,3.8-1.4,4.8-2.6c0.8-0.9,0-3.2-0.2-4.8c0-0.3-0.2-0.6-0.3-1.1c1.1-0.1,2-0.2,3-0.2
		c-0.1,3.5,0.4,6.4,3.9,6.7c1.1,5.8,2.2,11.6,3.3,16.6c0.7,0,1.8,0,2.7,0c-0.1,3-0.8,4.6-0.3,6.4c0.8,3,2.2,6,3.7,8.9
		c1.4,2.8,3,5.7,5,8.1c1.9,2.3,1.7,3.2-1.1,3.6c0.5,1,0.9,2,1.4,3.1c-1,0.1-1.6,0.1-2.2,0.1c0,0.4-0.1,0.5,0,0.6
		c0.8,1.5,1.6,3,2.4,4.6c0.6,1.3,1.5,2.7,1.3,3.9c-0.5,3.7,0.3,4.6,4,3.7c1.9-0.4,3.8-0.5,6.4-0.8c0.1-0.5,0.9-1.9,0.5-2.6
		c-1.2-2.3-0.8-4.1,0.9-5.7c1.2-1.1,2.6-2.5,4.1-2.8c2.8-0.4,5.8-0.1,9.2-0.1c1.3-3.7,2.9-7.9,4.1-12.1c0.8-3,1.1-6.1,1.5-9.2
		c0.3-2.5-1-5.2,0.8-7.6c1.8-2.4-1.4-5.7,1.3-8.1c0.1-0.1-0.3-0.6-0.5-0.8c0,0,0,0,0,0c-0.1-0.1,0-0.1,0,0c2.9-2.8,5.6-5.3,8-7.5
		c0,0.1,0.3,1,0.7,1.9c1.7-1.6,3.2-3,5.4-5.1c-1.5-0.7-2.7-1.5-4-1.7c-1.5-0.2-3.1,0.5-4.5,0.2c-3.6-0.9-7.1-2.2-10.1-3.2
		c0.6-0.3,2-1.5,3.2-1.4c3.5,0.5,7.8-1.2,10.2,3.2c0.1,0.2,1.5,0.1,2.1-0.3c2.7-1.9,5.4-3.8,8.7-6.2c-3.2-4.7-6.5-9.4-9.2-13.2
		c-1.9-0.5-2.9-0.8-3.9-1.1c-3.8-1.3-3-4.9-3.6-7.7c-1.2-6.2,0.7-12.2,2.2-18.2c0.5-1.8,0.1-3.8,0.1-6.4c0.5-0.3,1.8-1,2.7-1.9
		c1.1-1.1,2.3-2.4,2.8-3.8c0.5-1.3,0.7-2.5,1.6-3.1c0.6-0.4,1.5-1.1,1.5-1.7c-0.2-2.8,1.6-4.2,3.5-5.6c0.9-0.7,2.3-0.9,3-1.7
		c1-1.1,1.5-2.5,2.3-3.9c0.7,0.8,1.1,1.2,1.1,1.2c1.7-1.2,3.4-2.1,4.8-3.3c2.1-1.9,4.1-3.8,5.8-6c1.7-2.2,3.1-4.6,4.5-7
		c0.5-1,0.9-2.5,0.6-3.4c-0.9-2.2-2.2-4.3-3.3-6.2c2.6-3.5,5.7-6.5,3.9-10.8c2.3-1.6,4.5-3.3,6.6-4.7c0.2-1.9,0.3-3.6,0.4-5.6
		c1.5,0,2.5,0,3.6,0c1.5,1,3.1,1,4.5,0.7c6.5-1.2,11.9,1.3,16.5,5.5c0.6,0.6,0.9,1.8,0.9,2.7c0.1,2.9,0,5.9,0,9.1c0.5,0,0,0-0.6,0
		c0.3,0.8,0.5,1.5,0.9,2.6c-3.7-1.7-4.9-1.3-6.7,1.7c-2.7,4.4-5.3,8.9-8.2,13.2c-1.1,1.7-2.8,3.4-4.6,4.1c-2.3,0.8-3.3,2.4-4.3,4.2
		c-1,2-1.8,4.1-2.6,6.1c0.3,0.2,0.6,0.4,0.9,0.6c-2.4,0.6-4.7,1.3-5.9,1.6c-1.3,2.7-2.2,4.7-3,6.6c-0.6,1.3-1.8,2.7-1.6,3.9
		c0.4,4.3,0.6,8.8,2.2,12.7c2.7,6.6,1.6,12.6-0.7,18.9c-0.5,1.5,1,4.9,2.5,5.7c2.2,1.2,4.3,2.3,6.4,3.9c-0.8,0.4-1.2,0.7-1.7,0.9
		c0.2,0.3,0.4,0.5,0.6,0.8c0.9-0.6,1.7-1.3,3-2.2c-0.4,2.3-0.8,4.2-1.3,6.9c1.8-1.1,3.1-1.9,4.4-2.7c1,2.8,2.9,4.4,6.3,3.2
		c3.9-1.5,7.9-2.9,11.9-4.3c2.3-0.8,4.7-1.6,7.1-2.3c4.2-1.3,8.1-3.3,12.9-2.9c2.5,0.2,5.2-1.2,7.8-2c1.1-0.3,2.1-0.9,3.4-1.6
		c-0.4,2.2-0.7,3.9-1.1,5.8c1.7,1.2,3.8,3.7,5.3,3.4c4.4-0.9,6.4,1.4,8.3,5.3c-3-0.6-5.9-1.3-9.1-1.9c-0.7,3.1-2.4,4.3-5.3,2.8
		c-0.5,1-0.9,1.8-1.4,2.8c-0.9-0.7-1.6-1.2-2.9-2.2c0.3,1.6,0.8,2.5,0.5,3.1c-0.5,1.2-1.3,3.3-2,3.2c-3-0.1-6.1-0.5-9-1.3
		c-3.4-1-6.7-2.4-10.3-1.2c-1.2,0.4-2.5,1.1-3.7,1c-5-0.2-8.7,3.1-13,4.8c-0.7,0.3-1,2.3-0.9,3.4c0.2,1.5,1.5,3,1.4,4.4
		c-0.4,4.8,0,5.7,4.1,7.5c1-0.6,1.8-1.2,2.7-1.7c0.3,0.6,0.9,1.3,0.8,1.8c-1.5,4.9-2,9.9-1.1,15c0.3,2.1-3.7,6.1-5.9,5.9
		c-2.3-0.2-4.4-1.2-4.8-4.2c-0.1-1-1.3-2-2-2.9c-1.2-1.6-2.5-3.1-3.8-4.8c-4.7,1.6-9.6,3.5-9.1,10.4c0,0.5-0.4,1.2-0.9,1.6
		c-3.4,3.6-2.8,8-2.5,12.3c0.4,5.5,1,10.9,1.7,16.3c0.4,3.2-0.9,3.2-3.5,2.7c-2.3-0.5-4.8-0.1-7.3-0.1c-0.2,0.3-0.4,0.6-0.6,0.8
		c1.1,1,2.1,2.1,3.5,3.4c-2.6,1.6-5.3,4.8-8.3,5c-4.7,0.4-7.8-3.1-8.6-9.1c-5.7,2.1-11.2,3.3-15.5,6.2c-2.7,1.8-5.1,3.7-8.2,4.6
		c-2.8,0.9-5.7,1.9-8.4,3c-2.6,1.1-4.5,0.6-6.1-1.9c-0.2-0.4-0.9-0.8-1.3-0.7c-3.5,1.2-4.2-2.2-6.6-4.2c-4.3,2.1-8.9,4.4-14.2,7
		c-0.8-0.2-2.5-0.6-4.1-1c1.1-1.7,2-3.1,2.6-4.1c-3.7-1-6.7-1.8-9.8-2.6c2.3-4.1-1.5-4.3-3.9-6c1.9-0.2,3.2-0.3,4.5-0.4
		c0.1-0.3,0.1-0.6,0.2-1c-1.5-0.4-3-0.9-4.3-1.3c0.3-2,0.5-4,0.9-6c0.1-0.4,0.7-0.8,1.1-1.1c0-0.6-0.2-1.4,0.1-1.8
		c2.2-2.3,4.4-4.5,4-8.1c0-0.5,0.8-1.1,0.8-1c1.3,0.3,1.7,0.5,2.2,0.5c2.5-0.5,2.9-2.1,2.4-4.2c-4.4-0.6-6.1-3.1-5.1-7.2
		c0.2-1.1,0.7-2.1,1.3-3.1c1.7-2.7,0.9-5-1.3-8.2c-1.8,1.9-3.6,3.3-4.8,5.1c-1.4,2.1-2.7,3.8-5.6,3.5c-1.2-0.1-2.4,0.3-3.6,0.7
		c-2.4,0.9-3.3,4-1.8,5.8c1.7-2.5,2.9-5.5,6.6-4.7c0.3,2.3,0.5,4.3,0.8,6.3c-0.3,0.1-0.5,0.2-0.8,0.4c-0.5-1.1-1-2.2-2-4.2
		c-1,2.5-1.7,4.2-2.4,5.7c-1.4-0.5-2.8-1.1-4.4-1.7c-0.7,5.4,2.7,10.6,0.1,14.4c1.8,2.4,3.7,3.9,4.1,5.8c0.9,4,0.9,8.2,1.4,12.8
		c0,0-0.8,0.5-1.2,0.8c1.2,2.6,2.3,5,3.5,7.4c-1,0.1-2.7,0.2-3.8,0.3c-1.2,2.3-2.3,4.3-3.2,6.2c-1.5-1.7-2.6-4-3.8-4
		c-2.1,0-4.3,1.1-6.1,2.2c-0.5,0.3,0.2,2.5,0.4,4c-0.2-0.1-0.7-0.2-1-0.5c-1.5-2-3.2-2.7-5.7-1.7c-2,0.8-4.4,0.8-6.4,1.7
		c-0.9,0.4-1.7,2.3-1.5,3.3c0.4,2.2,1.4,4.2,2,5.8c-1.6,1.7-2.9,3-4.4,4.6c-2.1-0.9-2.2-3.1,0.9-5.8c-1.3-0.8-2.4-1.7-3.7-2.3
		c-0.2-0.1-1.5,1.3-1.5,2c-0.1,6.2-4.4,10.2-7.6,14.6c0.5,0.4,1.3,0.7,1.7,1.3c0.7,0.9,1.2,1.9,1.8,2.8c-1.1,0.3-2.4,1-3.3,0.7
		c-3.3-1.1-5.7,0.6-8.2,2.2c-1.5,0.9-3.1,1.7-4.7,2.2c-5.9,1.6-5.9,1.5-6,7.7c-0.1,4.4-1.5,6.2-5.9,7.6c-1.8,0.6-3.5,1.3-5.1,2.2
		c-0.8,0.5-1.7,1.8-1.6,2.6c0.6,3.2-1.5,3.1-3.4,3c-1.7-0.1-3.4-0.9-5.1-0.9c-2.8,0-3.8-1.6-3.8-4.2c-1.6,0.1-2.9,0.2-4.5,0.3
		c1.1,4.5,2.2,8.8,3.3,13.2c-3.7,0.2-7.2,0.5-11.3,0.7c-0.2-0.3-0.8-1.5-1.7-1.9c-1.4-0.6-3.1-0.8-4.7-0.7c-1.5,0.1-2.9,0.7-4.3,1.2
		c-2.3,0.9-6-0.1-6.1,4.1c1.5,0.1,2.8,0.1,4.1,0.2c0,0.2,0,0.4,0,0.6c-0.7,0.2-1.3,0.4-2,0.6c0.6,0.4,1.3,0.8,2.2,1.4
		c-1,0.6-1.7,0.9-2.4,1.3c0.8,1,1.4,1.9,2,2.8c0.1-0.3,0.2-0.7,0.4-1c2.9,1,5.8,2,8.6,3.1c0.7,0.3,1.5,0.9,2.2,0.9
		c2.2,0.1,8.1,5.3,8.2,7.3c0,0.1,0,0.2-0.1,0.4c-1,3.8,1.6,5.6,4.1,7.1c4.3,2.7,4.9,4,3,8.7c1.4,1.2,2.8,2.4,4.3,3.6
		c-0.3,0.3-0.5,0.5-0.8,0.8c-0.9-0.6-1.9-1.1-3.6-2.2c0.4,4,1.3,7.2,0.9,10.3c-0.5,4.1-1.7,8.1-3,12c-0.5,1.4-2,2.8-3.3,3.5
		c-4.3,2.4-8.6-1.2-13-0.4c-1.8,0.3-3.8-0.2-5.8-0.3c-2.2-0.1-4.4,0.2-6.6,0c-4.8-0.6-9.3-2.4-14.4-1.5c-2.6,0.5-5.5-1.4-8.4-1.6
		c-2.1-0.1-6,0.6-6.2,1.5c-0.6,3.1-3,2.3-4.7,3.2c-1.5,0.8-3.7,1.8-3.9,3c-0.3,1.6,0.6,3.9,1.8,5.1c2.2,2.2,2.4,2.4,1.7,4.9
		c-0.5,1.8-0.7,3.9-0.3,5.7c2.5,9.2,0.2,17.5-3.8,25.7c-1,2.1-2,5-1.4,7c0.5,1.6,3.6,2.3,5.6,3.5c-0.2,4.2-0.5,9.2-0.8,14.1
		c2.1,0.2,4.3,0.6,6.5,0.5c2.2-0.2,4.4-0.9,6.6-1.4c3.5-0.8,6.5,1.3,8,4.7c1.4,3.3,2.5,7.2,5.8,7.5c4.5-2.8,7.9-6.1,11.7-6.8
		c6.2-1.2,12.8-0.7,19.1-0.9c6-8.4,6-8.4,10.2-8.6c1.1-2.6,1.8-5.3,3.3-7.4c1.5-2.1,3.9-3.6,5.9-5.3c-4.6-3.1-5.6-7.9-2.3-12.1
		c1-1.3,1.8-2.7,2.8-3.9c1.5-2,3.1-3.9,4.7-5.8c1.1-1.3,1.9-3.7,3.2-3.9c5.3-1.1,9.4-4.2,13.9-6.7c3.4-1.9,4.8-5.2,3.1-8.7
		c-1.5-3.1-2.1-6.6,0.5-8.6c2.7-2.1,5.4-5.7,10.1-3.5c3.7,1.8,7.7,3,11.7,3.7c2.4,0.4,6,0.2,7.3-1.3c2.7-3,5.3-5.4,9.3-6.5
		c1.7-0.5,3.1-2.1,4.5-3.4c1.9-1.8,3.2-5,6.6-3.6c3.3,1.3,6.5,3,9.5,4.8c0.8,0.5,1,2.1,1.4,3.3c1.2,3.1,1.8,6.7,3.8,9.1
		c4.5,5.3,9.7,10,14.6,14.9c2.2,2.3,4.4,4.2,8,4.1c2.2,0,3.9,0.9,5.3,3.2c1.1,1.8,3.7,2.6,5.5,4c1.1,0.8,2.9,2,2.9,2.9
		c-0.2,3.1,2.4,2.8,3.9,3.8c1.1,0.7,2.5,1.2,3.1,2.2c0.9,1.4,1.3,3.1,1.8,4.8c0.6,2.3,1.1,4.7,1.6,7c-3.4,0.7-1.9,4.7-4.3,6.2
		c-0.4,0.2-0.3,1.9,0.2,2.6c0.3,0.5,2,0.7,2.3,0.4c1.7-2,4.4-4.1,4.5-6.3c0.2-3.9,2.4-4.4,5.1-5c0.6-3.2,0-5.8-3.3-6.9
		c-1.9-0.6-2.5-1.7-1.5-3.3c1.5-2.3,3.2-4.6,4.9-6.8c0,0,0.7,0.4,1.1,0.6c3,1.7,6.8,2.5,7.9,6.5c0.1,0.2,0.8,0.2,1.3,0.3
		c1.6-4.2,1.9-4.6-1.4-6.8c-5-3.5-10.4-6.6-15.7-9.6c-4.2-2.4-4.3-2.2-1.5-5.8c0.1-0.1,0-0.5-0.1-1.1c-1.1,0-2.3,0-3.5,0
		c-6.6,0.2-14.1-4.6-15.4-11.1c-1.3-6.3-5-10.1-10.3-13.1c-4.2-2.4-5.1-8.2-2.1-11.5c-2.5-3.6-2.1-5,1.7-7.1
		c1.3-0.7,2.3-1.9,3.6-2.3c1.6-0.4,3.4-0.2,5.1-0.2c0.2,0,0.6,1.3,0.4,1.5c-3.8,3.8,0.1,6.3,1.3,10.3c1.6-3,2.6-5.1,4.2-8.1
		c1.7,2.4,3.4,4.2,4.5,6.3c1.2,2.4,1.9,5,2.8,7.5c0.2,0.8,0.1,2,0.6,2.6c1.8,2.1,3.8,4.1,5.7,6.1c0.3,0.3,0.9,0.5,1.4,0.4
		c3.4-0.7,5.8,1.1,8.2,3.2c2.6,2.3,5.5,4.4,8.2,6.6c2.8,2.2,5.7,4.2,8.5,6.4c1.4,1.2,2.6,2.6,4.3,4.3c-0.4,2.9-0.7,6.5-1.3,10
		c-0.6,3.5-0.5,6.5,2.9,8.7c0.9,0.6,1.7,1.6,2.1,2.6c2,4.7,4,9.3,10,10.3c-1.1,0.2-2.3,0.4-3.5,0.7c0.9,1.2,1.9,2,2.2,3
		c0.9,3.2,3.5,3,5.7,2.6c4.7-0.8,8.9-0.2,12.9,2.5c-0.9,0.7-1.8,1.3-2.7,1.9c-7.4-4.7-10.5-4.5-14.7,1.2c5.4,1.8,3.7,7.3,5.4,11.6
		c1-1.4,1.6-2.2,2.4-3.4c1.3,2,2.4,3.7,3.5,5.2c0.4-0.8,1-1.7,1.8-3c1.2,1.4,2,2.5,2.9,3.5c0.3-0.1,0.6-0.3,0.8-0.4
		c-1-3.4-2.1-6.9-3.2-10.5c2.1,0.6,3.8,1.1,6.1,1.8c-1.6-2.3-2.6-3.8-3.6-5.2c3.8-3.8,6-0.2,8.5,1.8c0.2-0.2,0.4-0.5,0.6-0.7
		c-0.9-2.4-1.7-4.8-2.6-7.2c0.9,0.4,2.3,1.1,3.5,1.6c1.3-5.7-5.8-3.7-7-7.3c-0.1-0.4-1-0.6-1.5-0.6c-0.4,0-0.9,0.4-1.3,0.6l-0.3-0.2
		c-0.6-1.1-1.1-2.1-1.9-3.5c1.4-0.2,2.4-0.3,3.5-0.5c-6.8-9.1-7.2-11.9-2.4-14.1c-0.3,3.7,2.2,4,4.9,3.8c4.6-0.2,2.1-3.5,2.1-5.6
		c1.4-0.1,2.9,0.3,3.8-0.3c3.9-2.3,7.7-2.2,12-1.3c3.5,0.7,5.8,4.1,10.2,3.3c1.7-0.3,3.8-0.4,4.5-1.6c2.8-4.2,6.7-3.8,10.6-3.1
		c3.6,0.7,7.1,1.9,11,3c-3.1,0.7-5.7,1.2-9.1,2c1.5,0.8,2.2,1.2,2.8,1.5c-0.1,0.3-0.2,0.6-0.2,0.9c-3.6-0.3-7.3-0.7-10.9-1
		c0,0,0.1,0.6,0.1,0.8c-3.6,0.2-7.2-0.4-10.2,0.7c-3.9,1.4-3.5,5.5-4.1,9c2.4-0.3,4.5-0.6,7.6-1c-4,3.5-1.4,5.8-0.2,8.3
		c-2.9,1.7-1.9,3.1,0.4,4.3c-3.2,2.8-3.6-1.6-5.6-2.3c-0.2,3.1,0.3,5,3.7,5.7c2.1,0.4,5,1.5,3.1,5.1c-0.3,0.6,0.6,2.7,1.4,3.1
		c3.7,2.1,0.9,2.1-1.9,4.1c3.7,0,6.2,0,8.4,0c-0.1,1-0.1,2-0.1,2c3,0.4,5.4,0.6,7.8,0.9c1.7,5.3,1.7,5.3,12.3,3.9
		c0.4-1.9,0.8-3.8,1.3-5.8c5.8,0,10.3,1.8,14,6c1.1,1.2,3.1,2.9,4.2,2.6c4.6-1.2,9.9-0.7,13.1-5.6c0.8-1.2,3.9-2.3,4.9-1.7
		c3.3,1.9,5.8,2.1,8.4-0.9c0.4-0.5,1.1-0.7,1.7-1c0.4,0.2,0.7,0.3,1.1,0.5c-0.4,1.2-0.4,2.7-1.1,3.7c-1.1,1.4-2.5,2.3-1.2,4.4
		c0.4,0.7-0.3,2.1-0.5,3.1c-0.2,0.9-0.8,2-0.5,2.8c1.3,4.6,1.9,8.7-0.7,13.6c-3.5,6.6-5.2,14.1-7.8,21.2c-0.9,2.5-2.1,5.1-3.8,7.2
		c-3.2,4.2-12.8,5.3-17.1,2.3c-3.7-2.6-8.1-3.6-12.1-3.1c-3.5,0.4-7,2.7-10.2,4.7c-3,1.9-5.7,3.5-9.1,0.9c-0.8-0.6-2.1-0.5-3.2-0.8
		c-2.7-0.8-5.4-1.8-8.2-2.5c-5-1.2-9.8-3.8-15.2-2.2c-1.7,0.5-3.2,0.5-4-1.9c-0.4-1.2-2.5-2.2-4-2.7c-4.7-1.5-11,0.8-13.2-6.1
		c-0.1-0.3-0.8-0.5-1.3-0.7c-8.2-4.5-15.5-2.1-22,2.9c-3.9,3-4.3,5.7-2.4,10.2c0.4,1,0.9,2.1,0.7,3.1c-1.3,6.7-8.7,9.5-14,5.3
		c-5.3-4.2-11.4-6.2-18.1-7c-2.6-0.3-6.6-2.1-7.2-4.1c-1.7-5.1-4.3-7.9-9.6-9.4c-4.5-1.3-8.5-3.9-13.6-2.3c-1.6,0.5-3.7-0.3-5.4-0.9
		c-2-0.7-3.8-1.7-5.6-2.8c-1.7-1-3.2-2.2-4.8-3.2c-1.7-1.1-3.9-1.6-5.7-2.8c-3.3-2.1-3.1-4.7,0.1-7c0.8-0.6,1.7-1.1,2.4-1.8
		c4.9-4.3,5.1-8.2,0.5-12.8c-2.4-2.4-2-4.3,0.5-6.8c1.5-1.5,2.4-3.7,3.6-5.6c-0.3-0.2-0.7-0.4-1-0.6c-1.8,1.2-3.6,2.3-5.6,3.7
		c-0.8-2.2-1.4-3.8-2.1-5.8c-0.8,0.3-2.1,0.9-2.2,0.7c-2.1-3.3-4.7-0.7-6,0.1c-4.6,3-9.1,4.4-14.2,1.5c-0.5-0.3-1.6-0.5-1.7-0.3
		c-2.7,4-5.1-0.2-7.5,0.2c-2.1,1.1-4.7,1.4-6.4,2.8c-2.8,2.3-4.4,0.9-6.4-0.7c-0.5-0.4-1.4-0.5-2.1-0.5c-4.8,0.2-10.2-0.7-14.3,1.2
		c-4.7,2.1-9.4,1.4-13.9,2.8c-3.5,1-6.8,2.9-9.8,5c-1.5,1-1.8,2.8-4.7,2.1c-1.9-0.5-4.7,1.7-6.8,3.1c-1.8,1.1-3.1,3-4.9,4.2
		c-2.9,1.8-9.1,0.7-10.4-0.8c-3.3,0-6-0.2-8.7,0c-7.3,0.6-9.7-0.7-12.6-7.5c-1.6,1.2-3.5,2-4.4,3.5c-1.2,2.1-1.6,4.7-2.5,7
		c-2.3,5.9-5.2,11.3-11.6,13.8c-7,2.7-13,6.5-14.4,14.8c-0.1,0.8-0.8,1.5-1.3,2.2c-3.5,4.5-4.4,9.3-1.7,14.6c0.4,0.7,0.3,2,0,2.8
		c-2.2,5.1-5,9.7-9.8,12.8c-1.3,0.9-2.9,1.7-3.8,2.9c-2.5,3.5-6.2,4.8-9.9,5.2c-4.1,0.5-6.3,2.4-7.4,6.1c-1.3,4.4-3.3,8.2-8,10
		c-1,0.4-2,1.6-2.3,2.6c-1.2,3.7-2,7.6-3.1,11.3c-0.3,1.1-1,2.4-1.8,3.1c-4.7,3.8-7.3,8.8-9.4,14.3c-0.9,2.4-1.9,5-3.7,6.6
		c-4.2,3.7-4.8,11.5-0.1,14.6c3.8,2.5,3.5,5.4,2.6,8.9c-0.3,1.4-1.2,3.4-0.6,4.3c4,6.5,4,13.1,0.9,19.9c-0.5,1.1-1.4,2.4-1.3,3.5
		c0.8,7.1-3.2,11.9-7.4,16.5c1.5,1.9,2.9,3.8,4.2,5.4c1.4-0.3,2.6-0.5,3.7-0.7c-0.5,1.6-0.9,2.6-1.2,3.6c-0.7,2.1-1.7,4.1-2.2,6.3
		c-1,3.9,0.3,7.1,3.7,9.3c1.2,0.8,2.5,1.9,3.8,1.9c2.4,0,3.4,0.9,3.7,3.1c0.1,0.8,0.3,1.8,0.8,2.3c3.1,3.1,6.3,6.1,9.4,9.1
		c2.3,2.2,4.5,4,6.8,7h548.2c0.8-4,1.7-6.6,2.4-9.9c0.3-1.3,0.2-2.7,0.3-4c0.2-2.3,0.4-4.7,0.6-7.6c-2-1.1-3.5-1.1-6.4,0.8
		c-3.7,2.5-8.8,2.9-13.3,4c-1.9,0.5-3.8,0.6-5.7,0.9c-0.6,0.1-1.3,0.6-1.8,0.4c-4.3-1.2-7.6,0.7-11,2.9c-0.9,0.6-2.6,0.5-3.8,0.2
		c-2.9-0.7-5.6-0.5-8.1,1.1c-6.8,4.6-11.7,0.7-14.7-4.1c-2.7-4.1-3.7-4.7-8.7-4.2c1.2-0.8,2.6-1.4,3.7-2.3c1.2-0.9,3.3-2.4,3.1-3
		c-0.6-2-1.9-3.9-3.3-5.5c-1.7-2-3.8-3.6-5.6-5.5c-1.2-1.2-2.4-2.4-3.6-3.6c-1.2-1.2-2.7-2.2-3.7-3.5c-2.5-3.5-5.9-5-9.8-6.2
		c-0.9-0.3-1.8-1.5-2.5-2.4c-0.5-0.6-1-1.4-2-1.9c0,0.9,0,1.9,0,2.8c0,0-0.6,0.1-0.7,0c-3.7-6-5-12.7-6.8-19.3
		c-1-3.5-2.8-6.5-6.4-8.6c-7.2-4.2-8.4-11.4-8.6-19.1c-0.2-5.2-1.4-10.4-3-15.4c-0.7-2.2-3.4-3.9-5.5-5.3c-4.5-2.9-6.6-7.1-5.5-12.3
		c0.1-0.5,0.1-1.2-0.2-1.7c-4.3-7.8-8.8-15.5-12.8-23.5c-1.9-3.8-2.3-8.3-4.1-12.1c-1.5-3-4.2-5.4-6-8.3c-1.6-2.5-2.8-5.4-3.7-8.2
		c-0.3-1,0.7-2.4,1.4-4.4c2.3,5.2,3.8,9.7,6.1,13.7c1.6,2.8,4.1,5.4,6.8,7.3c2.3,1.6,2.9-0.9,3.3-2.8c1-4.4,2.2-8.8,3.4-13.2
		c0.4,0.1,0.9,0.2,1.3,0.3c-0.8,4.2-1.6,8.5-2.4,13.1c5.1,0,6.3,4.1,8.3,7.4c4.1,6.6,8.4,13,12.3,19.6c1.4,2.3,1.7,5.2,2.7,7.8
		c0.3,0.8,1.1,1.5,1.9,1.9c4.3,1.9,7.4,4.6,9,9.2c1.4,4.1,2.8,7.6,2.8,12.5c-0.1,5.8,2.1,12.6,9.2,15.8c3,1.4,5.6,4.8,7.3,7.9
		c3.1,5.9,5.6,11.7,10.5,16.7c3.6,3.7,7.1,9.3,4.6,15.8c-0.5,1.2,0.1,2.9,0.5,4.3c1.2,4.3,2.7,8.5,3.8,12.8c0.6,2.1,0.5,4.3,1,6.4
		c0.9,3.3,3.8,4,6.4,3.5c4.1-0.7,8.3-1.6,11.7-4.6c1.2-1.1,3-1.9,4.6-1.9c5.4-0.2,10.3-1.2,14.6-4.5c0.4-0.3,0.9-0.8,1.3-0.7
		c5.5,1.2,8.5-3.2,12.5-5.5c3.4-2,7.6-2.7,11.5-4.1c4.3-1.5,8.6-3,12.8-4.5c-0.7-4.9,0.3-6.7,4.3-8.3c4.2-1.6,8.4-3.1,12.7-4.3
		c1.3-0.4,2.9-0.1,4.4,0.1c3,0.5,4.6-1,4.8-3.7c0.2-2.7,1.3-4.2,4.2-4.4c3.7-0.2,7.2-0.6,7.7-5.6c0.1-1.2,2.3-2.5,3.8-3.1
		c1.8-0.7,3.9-0.8,6-1.2c-1.3-5.5-1-10.5,3.3-14.8c0.6,0.9,1.1,1.6,1.6,2.3c0.6-0.7,1.1-1.4,1.7-2.1c1.8-2.3,3.8-4.5,5.5-7
		c2.1-3,3.9-6.2,5.3-8.5c-2.7-2.9-5.2-4.7-6.6-7.1c-2.1-4-5.6-5.2-9.5-5.9c-8.7-1.5-13.3-6.6-13.6-15.5c-0.1-1.9,0.3-3.8,0.4-5.7
		c0-0.7-0.4-1.5-0.6-1.9c-4.6,4.4-9.4,8.4-13.5,13c-1.7,1.9-2,4.4-5,5.6c-2.4,0.9-4.2,1.1-6.6,0.9c-3-0.2-6,0.6-9,0.8
		c-1.8,0.2-3.8,1.5-5-1.4c-0.4-0.9-2.3-1.1-3-1.5c0.5-4.6,1.1-9.1,1.4-13.8c0.1-1.1-1.4-2.3-2.4-3.9c-3.7,4.1-4.9,8.3-4.1,13.4
		c-2.2-4-4.5-7.9-6.4-12c-0.5-1.1,2-2,0.6-4.4c-1.6-2.7-3.7-4.3-5.8-6.3c-2.8-2.7-5-6.2-7-9.6c-1.8-3.1-2.8-6.6-4.4-9.8
		c-0.5-1-1.6-1.7-2.8-2.8c1.6-0.9,3.3-1.9,5.7-3.2c-1.2-0.5-1.5-0.6-1.9-0.7c-0.6-0.1-1.3,0-1.8-0.2c-0.1-0.1-0.1-1.3,0-1.3
		c0.6-0.2,1.4-0.4,2-0.2c3.1,1.2,5.5,1.5,5.4-3.1c0-0.6,1.5-1.2,2.3-1.8c0.2,0.6,0.3,1.5,0.8,1.8c1.3,0.9,2.7,1.8,4.1,2.2
		c0.7,0.2,1.7-0.8,3.1-1.5c3.6,7,6.9,13.8,10.6,20.4c0.8,1.5,2.7,2.6,4.4,3.2c2.7,1.1,5.8,1.3,7.1,4.5c0.2,0.5,0.8,1.1,1.3,1.3
		c4,1.2,6.6,5.7,11.5,4.9c0.2,0,0.6-0.1,0.7,0.1c4.5,4.2,7.6-0.3,11.2-1.8c2.3-1,4.5-2.2,6.9-2.6c3.4-0.7,5.1,1,6.1,4.9
		c2.2,9.3,2.4,9.3,11.8,10.1c4.3,0.3,8.6,1.4,12.9,2.1c2.6,0.4,5.2,0.7,7.6,1.4c3.8,1,7.4,1.7,11.3,0.2c1.1-0.4,2.4-0.3,3.6-0.4
		c3.7-0.5,7.4-1.1,11.1-1.4c0.8-0.1,1.7,0.7,2.6,0.7c2.6,0.1,5.4,0.5,7.9,0.1c3.2-0.5,6.2-1.8,9.4-2.5c0.7-0.2,2.1,0.4,2.5,1
		c0.9,1.7,1.4,3.6,2.3,6c4.4-0.4,7.6,1.5,6.6,6.8c2.2-0.1,4.5,0.4,5.7-0.5c4-2.9,6.7,0.4,10,1.3c1.5,0.4,3.4-0.2,4.9-0.9
		c1.6-0.7,2.9-2,4.3-3.1c0.1,0.3,0.1,0.7,0.2,1c1.1,0.3,2.2,0.6,3.4,0.9c2,0.4,3.6,0.9,2,3.5c-0.4,0.6-0.1,1.8,0.2,2.6
		c0.4,1.2,1,2.3,1.7,3.9c-2.6,0.3-4.5,0.5-6.4,0.7c-2.8,5.7-9.3,9-13.9,6.8c0.1,0.7,0,1.5,0.3,1.8c3.8,3.9,7.6,7.9,11.5,11.7
		c2.2,2.1,5,2.2,7.6,0.7c2.7-1.6,5.3-3.3,7.6-5.4c0.8-0.7,1.1-3,0.5-3.7c-1.5-1.7-0.3-2.7,0.7-3.5c0.8-0.7,2.1-0.8,3.8-1.4
		c-0.9,1.8-1.8,2.8-1.7,3.7c0.2,2.3,0.1,5,1.3,6.9c2.2,3.8,1,7.1,0.5,10.9c-0.4,2.8,1.3,5.8,1.8,8.7c0.2,1.2-0.6,2.5-0.4,3.7
		c1.4,7.2,2.7,14.5,4.7,21.6c1.1,3.9,3.6,7.5,5.2,11.3c2,4.7,3.6,9.6,5.6,14.4c1.9,4.5,4.2,8.8,6.3,13.3c2.2,4.7,4,9.5,6.1,14.2
		c0.2,0.5,0.6,1.1,0.6,1.6v-738c-3,1.3-7.6,2.5-11.4,4.1C1207.3,234.3,1205.7,240.9,1208.3,244.8z M926.9,661.9
		c-2.8,4.2-11.4,7.2-16.1,6.1c-2.3-0.5-4.8-0.1-7.2,0c-1.5,0.1-3.1,1-4.3,0.6c-4-1.2-7.9-2.8-11.9-4.2c-0.8-0.3-1.9-0.7-2.4-0.4
		c-3,2.1-3.4-0.4-4.5-2.2c-0.5-0.8-1.8-1.9-2.4-1.7c-4,1.4-5.8-0.7-6.6-3.4c-4,0-7.8,0.2-11.5,0c-4.8-0.3-9,1.4-12.9,3.8
		c-2.7,1.7-5,3.9-7.6,5.7c-0.7,0.5-1.7,0.9-2.4,0.8c-6.7-0.9-13.4-1.6-19.9-3.1c-3.3-0.7-6.1-2.7-6-7.3c0-2-2.6-4.1-3.6-5.5
		c1-2.7,1.8-5.2,2.8-7.7c0.4-1.1,1.2-3,1.8-3c6.3-0.3,3.9-5.5,4.3-8.3c0.7-4.7,3.6-9.3,8.3-9.5c0.4-2.6,0.7-5.3,1-7.2
		c3.2-4.6,5.7-9.1,9.1-12.9c1.4-1.5,4.6-1.3,6.9-1.9c1-0.2,1.9-0.4,3.3-0.7c0.8,0.5,2.2,1.5,4.5,3.1c-1.8-0.2-2.8-0.2-4.1-0.4
		c0,0.9-0.4,2.2,0.1,2.8c0.9,1,2.2,2,3.4,2.1c3.5,0.1,6.9-0.3,10.4-0.4c0,0,0,0,0,0.1c1.6-0.4,3.5-1.6,4.8-1.1
		c4.2,1.7,7-1.3,10.3-2.6c3.3-1.3,6.6-3,9.9-4.3c2-0.8,4.5-0.8,6-2.1c3.3-2.9,7.4-1.4,10.9-2.7c0.8-0.3,1.7-0.2,2.5-0.6
		c2.8-1.2,2.8-1.3,3.4,2c-2.2,0.9-4.4,1.9-6.8,2.9c0.2,0.5,0.5,1.2,0.8,1.7c-2.2,0.2-4.3,0.5-7.3,0.8c2.9,2.5,5.2,4.4,7.9,6.8
		c-3.9-0.7-7.3,2.1-8.7,6.3c-0.4,1-1.4,2.1-2.5,2.5c-1.7,0.7-3.7,1-4.9,1.3c1.9,1.9,3.7,4,5.8,5.6c2.4,1.7,5.3,2.9,7.8,4.5
		c2.9,1.8,6,3.5,8.4,5.8c4.1,3.9,7.7,8,13.3,10.2c5.5,2.3,6.9,8.1,7.5,13.6C928.8,659.2,927.7,660.7,926.9,661.9z M1027.3,618.4
		c-3.3-0.4-6.7-0.7-9.9-1.7c-2.9-0.9-5.3-0.3-7.1,1.7c-1.8,2-0.9,6,2.3,8.9c-4.1-0.7-7.4-1.2-10.7-1.7c-1.3,2.3-0.6,3.4,1.7,4.1
		c1.2,0.3,2.3,1.6,2.9,2.7c1.6,3.1,3,6.4,4.5,9.6c1,0.9,2.1,1.9,3.3,2.9c0.8,0.6,1.7,1.2,2.6,1.4c6.2,0.9,6.4,1.4,3.7,7.3
		c-1.6,3.5-0.1,6.4,1.6,9.4c0.6-2.2,0.6-4.6,1.8-5.9c1.2-1.4,3.6-2,5.5-2.3c0.9-0.1,2.7,1.2,2.9,2.2c0.9,3.3,2.1,6.1,5.3,8
		c3,1.8,2.4,5.6-1,6.4c-2.1,0.5-4.5-0.3-6.7-0.4c-1.1-0.1-2.2,0.2-3.3,0c-1-0.2-1.9-0.9-3.1-1.5c-0.4,2.6-1,5.9-1.6,9.2
		c4.3,0.5,7.7,0.8,11.2,1.2c0,0.4-0.1,0.8-0.1,1.2c-1.5-0.2-3.1-0.3-4.6-0.5c-0.1,0.4-0.2,0.7-0.3,1.1c0.8,0.7,1.5,1.4,2.9,2.6
		c-1.5,0-2.2,0-2.9,0c-0.7,0.1-1.5,0.2-2.7,0.4c1.8,1.2,3.1,2,4.4,2.8c3.3,2.1,2.5,5,2.2,8.3c-0.3,4.4,0.6,8.8,1,13.2
		c0.1,1.6,0.3,3.2,0.3,4.1c-6.3,1.2-12.2,3.1-18.1,3.1c-5.5,0-11-1.9-14.5-7.1c-0.7-1.1-2.6-1.8-4-1.9c-5-0.6-6.8-1.9-7.2-6.8
		c-0.4-4.2-0.1-8.5-0.1-12.7c0.3,0.1,0.7,0.3,1,0.4c0.7-0.6,1.8-1.1,2.1-1.9c0.6-1.4,0.8-3.1,1.1-4.6c1-5.4,1.9-6.2,7.7-6.9
		c-0.9-0.8-1.6-1.8-2.3-1.8c-5.3,0.2-5.9-4.2-7.7-7.4c-1.1-2-2.4-4-3.7-6c-3.3-4.8-6.9-9.4-10-14.4c-0.9-1.4-0.5-3.8-0.2-5.7
		c0.5-3.9-1.4-8.4-4.9-10.1c-2.7-1.3-2.5-2.7-0.9-4.8c1.8-2.3,3.3-4.8,4.6-7.4c2-4,4.7-5,10.6-3.8c2.4-2.7,4.4-4.9,6.5-7.2
		c1.1,0.2,2.5,0.3,3.9,0.5c1.7-7,7.3-12.1,13.8-10.9c4.1,0.8,8.1,0.5,12.1,1.2c2,0.3,5.5,7,4.4,8.8c-2.6,4.2,1,6.3,2.3,9.9
		c1-1.4,1.5-2.6,2.2-2.8c1.1-0.4,2.9-0.5,3.7,0.1c1.8,1.6,3.2,3.7,5.5,6.5c-2.4,0.6-4.6,0.9-6.4,1.7c-2.3,1-5.5,0.9-6.1,4.5
		c-0.2,1.2-1.4,2.2-2.2,3.3c-0.4-0.3-0.8-0.6-1.2-0.9c1.9-3.1,3.8-6.1,5.8-9.3C1030.5,618.5,1028.9,618.6,1027.3,618.4z"/>
	<path fill="#6DCFF6" d="M601.5,682.4c-1.2-0.8-2.5-1.5-3.9-2.4c-1.5,1-3.1,2.2-5.6,4c2,0.2,3,0,3.6,0.4
		C599.4,687.1,599.4,687.1,601.5,682.4z"/>
	<path fill="#6DCFF6" d="M667.4,488.7c-0.4,2,0.5,4.1,2.3,4c2.3-0.1,5.3,0.4,6.3-3.9c-1.7,0.3-2.9,0.8-4.1,0.8
		C670.5,489.6,669.1,489.1,667.4,488.7z"/>
	<path fill="#6DCFF6" d="M765.5,424.1c-1,0.8-2,1.5-2.6,2c0.7,1.2,1.4,2.4,2.1,3.6c1.3-0.9,2.5-1.8,4.1-2.9
		C767.7,425.8,766.6,424.9,765.5,424.1z"/>
	<path fill="#6DCFF6" d="M759.4,436.9c1.2,0.3,2.7,1.1,3.7,0.8c2.6-0.9,5-2.3,8-3.7c-3.7-3.7-6.5-2.2-9.8-0.7
		C759.3,434.3,760.2,435.8,759.4,436.9z"/>
	<path fill="#6DCFF6" d="M1215,166.4c2.2-2.5,0.8-4.7,0.3-7c-0.5-2-1.3-4.3-0.6-6.1c1.7-5,4.2-9.7,2.1-15.2c-0.1-0.3,0-0.7,0-1.1
		c0.5-3.2-2.1-8.5-5.8-10.7c0.3,2,0.3,3.3,0.7,4.4c3.9,10.4,1.9,17.7-6.1,22.3c-3,1.7-6.7,2.7-5.9,7.6c0.2,1.2-1.3,2.6-2.1,3.8
		c-0.6,1-1.4,1.9-1.9,2.6c1.9,2.3,3.9,4,4.9,6.1c2.1,4.2,3.9,8.7,5.4,13.1c0.6,1.6,0.9,4,0.1,5.4c-2.8,5-4.1,10.3-5.1,15.8
		c-0.5,2.5-0.3,4.3,0.6,6.6c0.9,2.3,0.8,4.9,1,7.4c0.1,1.5,0,3.1,0,4.1c3.1,0,5.2,0.1,7.2,0c1.3-0.1,2.8-0.1,3.4-0.9
		c3-3.5,6.8-3.3,9.8-1.3V173c-2-0.9-4.8-1.5-7-2.8C1215.1,169.6,1214.5,166.9,1215,166.4z"/>
	<path fill="#6DCFF6" d="M745.1,403.3c-1-0.7-1.9-1.4-2.1-1.5c-1.6,1.1-2.5,1.7-3.6,2.5C742.3,406.8,742.3,406.8,745.1,403.3z"/>
	<path fill="#6DCFF6" d="M1173.6,844.3c-0.7,0.7-1.6,1.2-3,2.2c-0.5-1.2-1.2-2.3-1.4-3.4c-0.4-1.8-0.5-1.9-2.1-0.7
		c-0.4,0.3-1.2,0.3-1.8,0.3c-1.9,0-3.7,0-5.6,0.1c-2.1,0.1-2.9,1.4-2.2,3.3c1.8,5.2,9.3,8.5,14,3.5c0.7-0.7,2.3-0.4,3.5-0.6
		c1.3-1.2,2.5-2.3,3.8-3.5C1176.7,841.5,1176.7,841.5,1173.6,844.3z"/>
	<path fill="#6DCFF6" d="M125.5,170.2c-0.1-0.5-0.2-1-0.3-1.5c-2.1,0.1-4.2,0.3-6.3,0.4c0.4,1.4,0.3,3.4,1.2,3.9
		C123.4,175.1,123.5,170.9,125.5,170.2z"/>
	<path fill="#6DCFF6" d="M734,443c-4.1-0.9-5.6,3.1-6.5,5.6c-1,2.6,0.2,6,0.5,9.1c1.7-2.3,3.7-4.3,4.7-6.8
		C733.6,448.6,733.6,445.8,734,443z"/>
	<path fill="#6DCFF6" d="M715.2,457.3c-1.1,3.3-2.3,6.6-3.4,10c0.5,0.1,1,0.3,1.5,0.4c1.1-3.3,2.1-6.6,3.2-10
		C716,457.6,715.6,457.5,715.2,457.3z"/>
	<path fill="#6DCFF6" d="M680,478.3c-0.3-2-0.5-4.2-0.9-6.7c-5.8-2.9-3.5,4.3-6.4,5.5c-0.4-1.1-0.8-2.3-1.1-3.2
		c-1.7,1.3-3.1,2.5-4.6,3.6c1.6,2.4-0.6,8.1,5.6,7.5c0.1,0,0.1,1,0.4,1.3c0.6,0.7,1.5,1.3,1.8,1.6c1.2-2,2.1-3.5,3.1-5.1
		c-0.3-0.7-1.2-2-0.9-3C677.2,479,678.9,478.7,680,478.3z"/>
	<path fill="#6DCFF6" d="M5.8,554.8c10.9-0.6,21.9-1.1,32.8-0.5c5.2,0.3,10.4,1.8,15.7,0.5c1.4-0.3,3-0.3,4.4-0.6
		c1-0.3,2.2-0.7,2.9-1.4c2.8-2.9,6-5.3,8.5-8.8c2.1-2.9,6.9-4,10.6-5.6c1.2-0.5,2.8,0.1,4.2,0c0.7,0,1.5-0.3,2-0.7
		c2.4-1.7,4.8-3.4,7-5.4c1.7-1.5,4.6-3,1.9-6c-0.1-0.1,0.8-1,1.3-1.6c-1.3-0.6-2.5-1.1-3.6-1.7c0.9-2.7,1.8-5.3,2.5-8
		c0.7-2.9-5.6-9.5-8.4-8.6c-1.4,0.5-2.5,2-3.8,3.1c-0.3-0.4-0.8-1.1-1.2-1.7c0.3,0,0.6,0,1,0.1c0.2-1.6,0.9-3.5,0.4-4.8
		c-1.7-4.5-5-4.8-9-1.6c-3.4,2.7-7,5.1-10.6,7.4c-2,1.3-4.3,2.2-6.2,3.1c0.4-5.9,4.2-7.8,9-8.7c0.7-0.1,1.3-0.6,1.9-0.9
		c-0.1-0.2-0.1-0.4-0.2-0.6c-1.1,0.1-2.2,0.2-3.3,0.3c1.7-1,3.6-1.8,5.1-1.3c1.9,0.6,1.6,0.8,3-0.6c1.4-1.5,3.3-2.5,5.1-3.5
		c1.4-0.8,2.8-1.4,4.3-2.1c-2.6-1.8-4.5-3.1-6.6-4.6c-3.5,2.4-6.2,1.3-7.8-4c-1.8,0.8-3.7,1.6-5.6,2.5c0.7-1,1.3-1.9,2.1-3
		c-1.4,0.1-2.4,0.1-3.5,0.2c0.4-0.9,0.7-1.5,0.9-2c-2.1,0.5-4.1,1-6.2,1.5c0-0.8-0.1-1.2,0-1.5c1.1-2.9-0.9-8.2-3.6-9.3
		c-1.5-0.7-4.3-1.5-4.3-1.9c0.7-4.2-2.4-2.7-4.3-3.1c-0.4-0.1-0.7-0.4-1.8-1.1c1.5-0.2,2.2-0.2,4-0.5c-1.9-1.1-2.8-1.6-4-2.3
		c1.2-0.4,2.2-0.8,3.4-1.2c-1.4-0.6-2.6-1.1-3.8-1.5c0.1-0.2,0.1-0.5,0.2-0.7c1,0.1,2,0.2,1.9,0.2c1.9-2.5,3.3-4.4,5-6.7
		c-2.1-0.7-3.7-1.3-5.4-1.9c2-5-2.2-3.1-3.3-3.4c1.3-2.2,2.7-4.4,4.2-6.9c-1.7-0.6-2.3-0.9-3.1-1.1c-0.8-0.2-1.7-0.2-2.6-0.3
		c0.8-2.6,0.3-3.1-3.7-3.1c-0.4,0-0.7,0.1-1.2,0c0.4,0,0.8,0,1.2,0c3.7-0.4,1.8-3.8,2.9-5.6c-2.3,0.3-4.3,0.5-6.3,0.7
		c2.2-1.3,4.3-2.5,3.4-5.4c-0.2-0.8-1.8-1.2-2.3-2c-2.6-4.3-5.1-8.7-7.4-13.1c-0.7-1.3-0.8-3-1.3-4.4c-0.5-1.3-1.3-2.5-1.8-3.9
		c-0.6-1.7-0.9-3.5-1.3-5.2c-2.6,4.3-6.4,8-6.8,12c-0.4,4.1-1.4,8.3-1.8,11.7c-0.8,1.2-1.5,2.2-2.1,3.3c-0.6,1.1-1,2.3-1.7,3.9
		c-0.7-1.3-1.4-2.6-2.4-4.3c-3,6.6-3.2,6.6-6.2,7.3v125.2C2,557.7,3.8,554.9,5.8,554.8z"/>
	<path fill="#6DCFF6" d="M9.1,368.8c-0.8-0.5-3.3-1.2-3.4-2.2c-0.5-3.7-2.7-5.3-5.7-6.8v12c3,1.2,5.8,2.4,8.4,3.5
		C8.7,372.5,8.9,370.8,9.1,368.8z"/>
	<path fill="#6DCFF6" d="M14,380.1c1.6,1.4,3.1,2.9,5.4,5c0.2-2.2,1-4.7,0.4-5.1c-1.5-0.9-3.6-0.9-5.4-1.3
		C14.3,379.1,14.2,379.6,14,380.1z"/>
	<path fill="#6DCFF6" d="M45.6,569.2c-3.4-5.3-18.3-11.9-23.2-9.6c2.3,1.6,5,2.8,6.9,4.8C32.7,568.1,40.6,570.7,45.6,569.2z"/>
	<path fill="#6DCFF6" d="M103.1,128c-0.6-0.5-1.1-0.9-1.7-1.4c-1.8,1.9-3.6,3.8-5.8,6.1c2,0.7,3,1,4,1.3
		C100.8,131.9,101.9,130,103.1,128z"/>
	<path fill="#6DCFF6" d="M13.6,357.5c0.5-0.2,1-0.4,1.5-0.7c0.6,2.3-1,5.7,3.5,6c-0.9-2.6-1.7-5-2.9-8.3c1.9,1.2,2.9,1.8,4.5,2.8
		c-1.3-4.5-2.4-8.1-3.4-11.8c0.3-0.1,0.6-0.3,1-0.4c1.1,1.3,2.2,2.7,3.8,4.7c0-2.6,0.1-4.3,0-6.1c-0.1-1.3-0.2-3.4-0.9-3.7
		c-3-1.2-1.6-2.8-1.4-3.8c-1.9-2.2-3.8-4.4-5.7-6.5c0.2-0.3,0.2-0.5,0.3-0.5c0.2,0,0.6,0.1,0.7,0c0.9-0.8,1.7-1.7,3.2-3.3
		c-2.3-0.1-3.4-0.2-4.5-0.2c0.6-1.1,1.1-1.9,1.2-2.1c-1.4-2.1-2.5-3.7-3.5-5.3c-0.2,0.1,0.1,0.2-0.9,0.3c0,0.8,0,1.3,0,2.3
		c-1,0-1.6,0-1.5,0c-1.6-2-2.8-3.7-4.2-5.6c-0.4,1.6-0.6,2.6-0.7,2.9C2.4,317,1,315.4,0,314v35.2c2,1.2,3.7,2.3,5.2,3.8
		C7.6,355.4,12.1,353.6,13.6,357.5z"/>
	<path fill="#6DCFF6" d="M25.5,596.6c-0.9,1.2-1.7,2.5-2.4,3.4c1,1.2,1.6,2.4,2.5,2.9c2.4,1.4,4.9,2.6,7.3,3.9
		c0.9,0.4,1.8,0.7,2.7,1.2c0.6,0.3,1.1,1.2,1.6,1.2c0.5,0,1.1-0.8,1.5-1.3c1-1.5,1.9-2.9,3.1-4.9c-4.4,0-9.2,0-14.4,0
		C26.8,601,26.2,599,25.5,596.6z"/>
	<path fill="#6DCFF6" d="M4.9,288.4c1.1,2.4,4.3,3.9,6.5,3.2c-0.5,1.1-1.2,2.4-1.9,3.7c7,1.5,9.2-4.2,12.8-7.9
		c-1.1,2.4-1.9,4.3-2.9,6.1c-0.4,0.7-1.2,1.3-1.8,1.9c-1.2,1.4-3.5,2.8-3.4,4.2c0.1,1.9,1.8,3.8,2.9,5.8c0,0.1-0.3,0.9-0.7,2.1
		c2-0.4,3.3-0.7,5-1c-1.1,1.3-1.9,2.2-2.7,3c1,1.2,1.8,2.2,2.8,3.3c0.4-1.5,0.5-2.7,0.8-4c0,5.1,6.6,4.5,7.6,8c0-4.1,0-8.2,0-12.5
		c0,0,0.8-0.1,1-0.2c-0.3-2.7-0.4-5-0.6-7.2c1.3,2.1,2.7,4.3,4.4,7.2c1-2.5,1.7-4.1,2.2-5.5c1,0.1,2,0.3,4,0.6
		c-1.3-2.1-2.1-3.4-2.8-4.4c1.2-0.2,2.6-0.4,4-0.7c-1.6-1.3-3.1-2.6-4.7-3.9c0.5-0.3,1.5-0.9,2.7-1.5c-0.7-1-1.3-1.7-2.3-3.1
		c3.6,0.7,6,5.1,9.5,1.2c-0.8-0.3-1.6-0.6-1.9-0.7c1.3-2.7-0.4-3.9-1.8-5.5c1.3,0.9,2.6,1.7,4,2.7c2.3-2.4,0.6-3.9-1.1-5.4
		c-1.7-1.6-3.4-3.1-5.2-4.8c-0.5,0.9-1.4,2.3-2.1,3.6c-0.5-0.8-1-1.5-1.5-2.3c-0.3,0.2-0.6,0.4-0.9,0.7c-0.2,1.4-0.4,2.7-0.6,4.1
		c-0.1,0-0.2,0-0.4,0c-0.1-1.5-0.2-2.9-0.4-5.5c-2,1.9-3.4,3.2-4.6,4.3c-0.6-0.1-1.3-0.3-1.7-0.4c1.8-3.3,3.7-6.7,5.5-10.1
		c-0.4-0.3-0.9-0.6-1.3-0.8c-0.9,1-1.9,2-2.8,3.1c-2.6-1.7-8.9,0.3-10.6,3.6c-1.1-2.7,4.6-4.1,1.4-7c3.3,0,2.7-0.1,3.3-3.3
		c0.6-2.9-1-4-2.4-5.4c-0.7-0.7-1.9-1.9-2.6-1.7c-1.4,0.4-2.6,1.5-4.7,2.9c1.5-3.1,2.6-5.2,3.7-7.5c-2.8-2.8-2.9,2.9-5,2.1
		c-0.5-0.6-1.1-1.1-1.6-1.7c-0.4,0.5-0.9,1-1.2,1.5c-0.8,1.9-1.5,3.8-2.1,5.3c-0.2-2-0.3-4.3-0.5-6.7c-0.4,0-0.7,0-1.1,0.1
		c-0.8,1.2-1.5,2.5-2.3,3.7c0-1.8,0.9-3,1.2-4.4c0.2-0.8-0.4-1.9-0.9-2.8c-0.2-0.3-1.1-0.2-1.7-0.1c-0.4,0.1-1,0.7-1,0.6
		c-0.4-0.5-0.8-1.1-1.2-1.7C1.2,246.5,1,245.7,0,245v37.5c1,0.1,1.9,0,2.1,0.4C3.2,284.6,4.1,286.5,4.9,288.4z"/>
	<path fill="#6DCFF6" d="M8.7,618.2c5.1-1.3,9.1-4.1,13-7.2c0.3,0.2,0.6,0.5,0.9,0.7c-1.2,1.7-2.4,3.3-3.6,5.3c4,0,7.8,0,11.9,0
		c-2.5,1-4.7,1.8-6.9,2.7c-0.7-0.2-1.9-1.2-2.6-0.9c-5.6,2.4-10.7,5.5-13.1,11.5c-0.6,1.5-0.3,3.7,0.4,5.2c0.6,1.3,2.4,2,4.4,3.4
		c2.2-1.9,5.1-4,7.5-6.5c2.1-2.2,3.6-4.9,5.5-7.5c1.8,2.2,2.6,3.7,4.8,0.8c1.4-1.7,4.9-1.7,7.3-2.7c4.3-1.7,8.5-3.5,12.8-5.2
		c0.1,0,0.1-0.3,0.2-0.6c-1-0.1-2-0.2-3.2-0.3c1.8-2.2,3.1-3.5,6.3-3.4c2.3,0.1,4.8-2.7,7.1-4.4c0.3-0.2-0.1-2-0.6-2.4
		c-0.7-0.5-2-0.6-2.7-0.2c-1.3,0.7-3.1,1.7-3.4,2.9c-0.7,2.7-0.4,2.8-3.8,2.6c0.6-1.2,1-3.3,1.8-3.5c3.7-0.9,3.3-4.2,4.2-6.6
		c0.6-1.5-0.2-3.6-0.4-5.4c-0.4,0-0.8-0.1-1.2-0.1c-1.2,1.8-2.3,3.7-3.5,5.5c-1.2,1.9-2.5,3.7-3.6,5.6c-0.4,0.7-0.4,1.6-0.6,2.4
		c-0.3,1.1-0.6,2.2-0.9,3.4c-1.2-0.5-2.3-1.1-3.9-1.8c-1.6,1-3.7,3.3-6.3,0.5c-0.3-0.3-1-0.1-1.4-0.2c-3.1-0.7-6.2-1.5-10.1-2.5
		c1.6-1.1,2-1.4,2.7-1.9c-6.3-1.5-9.5-5.6-9-11.4c-1.1,0-2.1-0.1-3-0.1c1.4-2.9,2.8-5.6,4.2-8.4c-0.3-0.4-0.6-0.8-0.8-1.2
		c-2.2,0.6-4.3,1.1-5.8,1.5c-2.8-1.8-5.3-3.4-8.2-5.3c2.6,0,5-0.6,6.9,0.1c2.5,1,4.4,1,6.4-0.9c1-1,1.9-2.1,3.1-2.6
		c2.4-0.9,3.4-2.1,2.3-4.7c-0.6-1.4,0.8-3.5-1.6-4.2c-1.9-0.6-3.7-1.6-5.6-2C10.5,567,5,569,0,571.2v48C3,620.6,5.8,618.9,8.7,618.2
		z"/>
	<path fill="#6DCFF6" d="M1205.6,120.9c-1.3,2.8,1,3.9,4,5c-0.4-2-0.8-4.1-1.2-6.1C1207.5,120.1,1205.9,120.2,1205.6,120.9z"/>
	<path fill="#6DCFF6" d="M1036.5,943.6c-2.7-0.2-5.5-0.3-8.2-0.5c0,0.4-0.1,0.9-0.1,1.3C1030.9,947.5,1033.7,945.6,1036.5,943.6z"/>
	<path fill="#6DCFF6" d="M36.1,961.4c1.7-0.1,3-0.2,4.3-0.3c0-0.4,0-0.7,0-1.1c-4.2,0.2-8.5,0.4-11.6,0.6c-0.9,1.1-1.2,1.8-1.6,1.9
		c-1.8,0.6-3.8,0.8-5.4,1.7c-4.1,2.5-8.4,1.8-11.5-0.8c-3.4-2.9-6.3-2.4-10.3-2.2V972h53.4c-2.7-2-5.3-3.1-8.1-3.8
		C41.2,967.2,37.8,965.8,36.1,961.4z"/>
	<path fill="#6DCFF6" d="M47,965.6c1.4-0.2,3-0.5,5-0.7c0-2.3,0-4,0-5.8c-2,0.2-2.8,0.4-3.6,0.6C47.9,961.9,47.5,963.7,47,965.6z"/>
</g>
</svg>
