<?xml version="1.0" encoding="utf-8"?>
<!-- Generator: Adobe Illustrator 18.1.1, SVG Export Plug-In . SVG Version: 6.00 Build 0)  -->
<!DOCTYPE svg PUBLIC "-//W3C//DTD SVG 1.1//EN" "http://www.w3.org/Graphics/SVG/1.1/DTD/svg11.dtd">
<svg version="1.1" xmlns="http://www.w3.org/2000/svg" xmlns:xlink="http://www.w3.org/1999/xlink" x="0px" y="0px"
	 viewBox="16.7 252.9 754.3 104.7" enable-background="new 16.7 252.9 754.3 104.7" xml:space="preserve">
<g>
	<path fill="#FFFFFF" d="M130,343.1l-2.8,10.5h-1.5l-2.5-8l-2.5,8h-1.5l-2.8-10.5h1.9l1.9,8l2.5-8h1.5l2.5,8l1.9-8H130z"/>
	<path fill="#FFFFFF" d="M164.6,343.1l-2.8,10.5h-1.5l-2.5-8l-2.5,8h-1.5l-2.8-10.5h1.9l1.9,8l2.5-8h1.5l2.5,8l1.9-8H164.6z"/>
	<path fill="#FFFFFF" d="M199.2,343.1l-2.8,10.5h-1.5l-2.5-8l-2.5,8h-1.5l-3.1-10.5h1.9l1.9,8l2.5-8h1.5l2.5,8l1.9-8H199.2z"/>
</g>
<g>
	<path fill="#FFFFFF" d="M223.2,353.9h-2.2v-2.8h2.2V353.9z"/>
	<path fill="#FFFFFF" d="M258.4,353.9v-6.2c0-0.6,0-0.9,0-1.2s0-0.6-0.3-0.9c0-0.3-0.3-0.3-0.6-0.6c-0.3,0-0.6-0.3-0.9-0.3
		c-0.3,0-0.6,0-1.2,0.3c-0.3,0.3-0.9,0.6-1.2,0.9v0.3c0,0,0,0.3,0,0.6v6.8h-1.9v-6.2c0-0.6,0-0.9,0-1.2s0-0.6-0.3-0.9
		c0-0.3-0.3-0.3-0.6-0.6c-0.3,0-0.6-0.3-0.9-0.3c-0.3,0-0.9,0-1.2,0.3c-0.3,0.3-0.9,0.6-1.2,0.9v7.7h-1.9v-10.2h1.9v1.2
		c0.6-0.6,0.9-0.9,1.2-0.9c0.9-0.3,1.2-0.3,1.9-0.3c0.6,0,1.2,0,1.5,0.3c0.6,0.3,0.9,0.6,1.2,1.5c0.6-0.6,0.9-0.9,1.5-1.2
		c0.6-0.3,0.9-0.3,1.5-0.3c0.3,0,0.9,0,1.2,0.3c0.3,0,0.6,0.3,0.9,0.6s0.6,0.6,0.6,1.2c0,0.6,0.3,0.9,0.3,1.9v6.8h-1.5V353.9z"/>
	<path fill="#FFFFFF" d="M291.2,353.9h-1.9v-1.2c-0.6,0.6-0.9,0.9-1.5,1.2c-0.6,0.3-0.9,0.3-1.5,0.3c-0.3,0-0.9,0-1.2-0.3
		c-0.3,0-0.6-0.3-0.9-0.6c-0.3-0.3-0.6-0.6-0.6-1.2c-0.3-0.6-0.3-1.2-0.3-1.9v-7.1h1.9v6.2c0,0.6,0,0.9,0,1.5c0,0.6,0,0.6,0.3,0.9
		c0,0.3,0.3,0.6,0.6,0.6s0.6,0.3,0.9,0.3c0.3,0,0.9,0,1.2-0.3c0.6-0.3,0.9-0.6,1.2-0.9v-8.3h1.9V353.9z"/>
	<path fill="#FFFFFF" d="M316.8,353.9c-0.6,0-1.2,0-1.9-0.3c-0.6-0.3-1.2-0.3-1.5-0.6v-1.9l0,0c0,0,0.3,0.3,0.6,0.3
		c0.3,0,0.6,0.3,0.9,0.3s0.6,0.3,0.9,0.3c0.3,0,0.6,0.3,1.2,0.3c0.3,0,0.6,0,0.9,0c0.3,0,0.6,0,0.6-0.3c0.3,0,0.3-0.3,0.6-0.6
		c0-0.3,0-0.3,0-0.6c0-0.3,0-0.6-0.3-0.9c-0.3-0.3-0.6-0.3-1.2-0.6c-0.3,0-0.6,0-0.9-0.3c-0.3,0-0.6-0.3-0.9-0.3
		c-0.9-0.3-1.5-0.6-1.9-0.9c-0.3-0.3-0.6-0.9-0.6-1.9c0-0.9,0.3-1.9,0.9-2.5c0.6-0.6,1.5-0.9,2.8-0.9c0.6,0,1.2,0,1.9,0.3
		c0.6,0,1.2,0.3,1.5,0.6v1.9l0,0c-0.3-0.3-0.9-0.6-1.5-0.9c-0.6-0.3-1.2-0.3-1.5-0.3c-0.6,0-0.9,0-1.5,0.3c-0.3,0.3-0.6,0.6-0.6,1.2
		c0,0.3,0,0.6,0.3,0.9c0.3,0.3,0.6,0.3,1.2,0.6c0.3,0,0.6,0,0.9,0.3c0.3,0.3,0.6,0,0.9,0.3c0.9,0.3,1.2,0.6,1.9,0.9
		c0.3,0.3,0.6,0.9,0.6,1.9c0,0.3,0,0.9-0.3,1.2s-0.3,0.6-0.9,0.9c-0.3,0.3-0.9,0.6-1.2,0.6C318.3,353.2,317.4,353.9,316.8,353.9z"/>
	<path fill="#FFFFFF" d="M347.4,353.9c-1.5,0-3.1-0.6-4-1.5c-0.9-0.9-1.5-2.2-1.5-4s0.3-3.1,1.2-4c0.9-0.9,2.2-1.5,3.4-1.5
		c0.6,0,1.2,0,1.9,0.3c0.6,0.3,0.9,0.6,1.2,0.9c0.3,0.3,0.6,0.9,0.9,1.5c0.3,0.6,0.3,1.2,0.3,2.2v0.9h-7.4c0,1.2,0.3,2.2,0.9,2.8
		c0.6,0.6,1.5,0.9,2.5,0.9c0.3,0,0.6,0,1.2,0c0.3,0,0.6-0.3,0.9-0.3s0.6-0.3,0.9-0.3c0.3,0,0.3-0.3,0.6-0.3l0,0v1.9
		c-0.3,0-0.6,0.3-0.9,0.3c-0.3,0-0.6,0.3-0.9,0.3s-0.6,0.3-0.9,0.3C348,353.9,347.7,353.9,347.4,353.9z M349.2,347.4
		c0-0.6,0-0.9-0.3-1.2c0-0.3-0.3-0.6-0.3-0.9c-0.3-0.3-0.6-0.6-0.9-0.6s-0.6-0.3-1.2-0.3c-0.6,0-0.9,0-1.2,0.3
		c-0.3,0-0.6,0.3-0.9,0.6c-0.3,0.3-0.6,0.6-0.6,0.9s-0.3,0.6-0.3,1.2H349.2z"/>
	<path fill="#FFFFFF" d="M381.3,353.9h-1.9v-1.2c-0.6,0.6-0.9,0.9-1.5,1.2c-0.6,0.3-0.9,0.3-1.5,0.3c-0.3,0-0.9,0-1.2-0.3
		c-0.3,0-0.6-0.3-0.9-0.6c-0.3-0.3-0.6-0.6-0.6-1.2c-0.3-0.6-0.3-1.2-0.3-1.9v-7.1h1.9v6.2c0,0.6,0,0.9,0,1.5c0,0.6,0,0.6,0.3,0.9
		c0,0.3,0.3,0.6,0.6,0.6c0.3,0,0.6,0.3,0.9,0.3s0.9,0,1.2-0.3c0.6-0.3,0.9-0.6,1.2-0.9v-8.3h1.9V353.9z"/>
	<path fill="#FFFFFF" d="M415.9,353.9v-6.2c0-0.6,0-0.9,0-1.2s0-0.6-0.3-0.9c0-0.3-0.3-0.3-0.6-0.6c-0.3,0-0.6-0.3-0.9-0.3
		c-0.3,0-0.6,0-1.2,0.3c-0.3,0.3-0.9,0.6-1.2,0.9v0.3c0,0,0,0.3,0,0.6v6.8h-1.9v-6.2c0-0.6,0-0.9,0-1.2s0-0.6-0.3-0.9
		c0-0.3-0.3-0.3-0.6-0.6c-0.3,0-0.6-0.3-0.9-0.3c-0.3,0-0.9,0-1.2,0.3c-0.3,0.3-0.9,0.6-1.2,0.9v7.7h-1.9v-10.2h1.9v1.2
		c0.6-0.6,0.9-0.9,1.2-0.9c0.3-0.3,0.9-0.3,1.5-0.3s1.2,0,1.5,0.3c0.6,0.3,0.9,0.6,1.2,1.5c0.6-0.6,0.9-0.9,1.5-1.2
		c0.6-0.3,0.9-0.3,1.5-0.3c0.3,0,0.9,0,1.2,0.3c0.3,0,0.6,0.3,0.9,0.6c0.3,0.3,0.6,0.6,0.6,1.2s0.3,0.9,0.3,1.9v6.8h-1.2V353.9z"/>
	<path fill="#FFFFFF" d="M443.4,353.9c-0.6,0-1.2,0-1.9-0.3c-0.6-0.3-1.2-0.3-1.5-0.6v-1.9l0,0c0,0,0.3,0.3,0.6,0.3s0.6,0.3,0.9,0.3
		c0.3,0,0.6,0.3,0.9,0.3c0.3,0,0.6,0.3,1.2,0.3c0.3,0,0.6,0,0.9,0c0.3,0,0.6,0,0.6-0.3c0.3,0,0.3-0.3,0.6-0.6c0-0.3,0-0.3,0-0.6
		c0-0.3,0-0.6-0.3-0.9c-0.3-0.3-0.6-0.3-1.2-0.6c-0.3,0-0.6,0-0.9-0.3c-0.3,0-0.6-0.3-0.9-0.3c-0.9-0.3-1.5-0.6-1.9-0.9
		c-0.3-0.3-0.6-0.9-0.6-1.9c0-0.9,0.3-1.9,0.9-2.5c0.6-0.6,1.5-0.9,2.8-0.9c0.6,0,1.2,0,1.9,0.3c0.6,0,1.2,0.3,1.5,0.6v1.9l0,0
		c-0.3-0.3-0.9-0.6-1.5-0.9c-0.6-0.3-1.2-0.3-1.5-0.3c-0.6,0-0.9,0-1.5,0.3c-0.3,0.3-0.6,0.6-0.6,1.2c0,0.3,0,0.6,0.3,0.9
		c0.3,0.3,0.6,0.3,1.2,0.6c0.3,0,0.6,0,0.9,0.3c0.3,0.3,0.6,0,0.9,0.3c0.9,0.3,1.2,0.6,1.9,0.9c0.3,0.3,0.6,0.9,0.6,1.9
		c0,0.3,0,0.9-0.3,1.2s-0.3,0.6-0.9,0.9c-0.3,0.3-0.9,0.6-1.2,0.6C444.9,353.2,444,353.9,443.4,353.9z"/>
	<path fill="#FFFFFF" d="M478.3,348.3c0,1.9-0.3,3.1-1.2,4.3c-0.9,0.9-1.9,1.5-3.1,1.5c-0.6,0-0.9,0-1.2-0.3c-0.3,0-0.9-0.3-1.2-0.6
		v4.3h-2.2v-14.5h1.9v1.2c0.3-0.3,0.9-0.6,1.5-0.9s1.2-0.3,1.9-0.3c1.2,0,2.2,0.6,2.8,1.5C478,345.2,478.3,346.4,478.3,348.3z
		 M476.4,348.3c0-1.2-0.3-2.2-0.6-2.8c-0.3-0.6-0.9-0.9-1.9-0.9c-0.6,0-0.9,0-1.5,0.3c-0.6,0.3-0.9,0.6-1.2,0.9v5.9
		c0.6,0.3,0.9,0.3,1.2,0.6c0.3,0,0.6,0,1.2,0c0.9,0,1.5-0.3,2.2-0.9C476.1,350.8,476.4,349.5,476.4,348.3z"/>
	<path fill="#FFFFFF" d="M506.1,352.6c0,0-0.3,0.3-0.6,0.3c-0.3,0.3-0.6,0.3-0.6,0.3c-0.3,0.3-0.6,0.3-0.9,0.3c-0.3,0-0.6,0-1.2,0
		c-0.3,0-0.9,0-1.2-0.3s-0.6-0.3-0.9-0.6c-0.3-0.3-0.6-0.6-0.6-0.9c-0.3-0.3-0.3-0.9-0.3-1.2c0-0.6,0-1.2,0.3-1.9
		c0.3-0.6,0.9-0.9,1.5-1.2c0.6-0.3,1.2-0.3,2.2-0.6c0.9,0,1.5-0.3,2.5-0.3v-0.3c0-0.3,0-0.6-0.3-0.9c0-0.3-0.3-0.3-0.6-0.6
		c-0.3,0-0.6-0.3-0.9-0.3c-0.3,0-0.6,0-0.9,0c-0.3,0-0.9,0-1.5,0.3c-0.6,0-1.2,0.3-1.5,0.6l0,0v-1.9c0.3,0,0.9-0.3,1.5-0.3
		c0.6,0,1.2-0.3,1.9-0.3c0.6,0,1.2,0,1.9,0.3c0.6,0,0.9,0.3,1.2,0.6c0.3,0.3,0.6,0.6,0.9,1.2s0.3,0.9,0.3,1.5v7.1h-1.9L506.1,352.6
		L506.1,352.6z M506.1,351.1v-2.8c-0.3,0-0.9,0-1.5,0s-1.2,0.3-1.5,0.3c-0.6,0-0.9,0.3-1.2,0.6s-0.3,0.6-0.3,1.2
		c0,0.6,0.3,0.9,0.6,1.2c0.3,0.3,0.9,0.6,1.5,0.6c0.6,0,0.9,0,1.5-0.3C505.5,351.7,505.8,351.4,506.1,351.1z"/>
	<path fill="#FFFFFF" d="M536.3,345.2L536.3,345.2c-0.3,0-0.3,0-0.6,0c0,0-0.3,0-0.6,0c-0.6,0-0.9,0-1.5,0.3
		c-0.6,0.3-0.9,0.6-1.2,0.9v7.4h-1.9v-10.8h1.9v1.5c0.6-0.6,1.2-0.9,1.5-1.2c0.6-0.3,0.9-0.3,1.5-0.3c0.3,0,0.3,0,0.3,0h0.3v2.2
		H536.3z"/>
	<path fill="#FFFFFF" d="M561,353.9c-0.9,0-1.9-0.3-2.2-0.9c-0.6-0.6-0.9-1.5-0.9-2.5v-5.9h-1.2v-1.5h1.2V340h1.9v3.1h3.4v1.5h-3.4
		v4.9c0,0.6,0,0.9,0,1.2c0,0.3,0,0.6,0.3,0.9c0,0.3,0.3,0.3,0.6,0.6c0.3,0,0.6,0.3,0.9,0.3c0.3,0,0.6,0,0.9,0c0.3,0,0.6-0.3,0.6-0.3
		l0,0v1.5c-0.3,0-0.6,0.3-0.9,0.3C561.7,353.9,561.3,353.9,561,353.9z"/>
	<path fill="#FFFFFF" d="M592.8,353.9H591V348c0-0.6,0-0.9,0-1.2s0-0.6-0.3-0.9c0-0.3-0.3-0.6-0.6-0.6c-0.3,0-0.6-0.3-0.9-0.3
		s-0.9,0-1.2,0.3c-0.3,0.3-0.9,0.6-1.2,0.9v7.7h-1.9v-10.8h1.9v1.2c0.6-0.6,0.9-0.9,1.5-1.2s0.9-0.3,1.5-0.3c0.9,0,1.9,0.3,2.5,0.9
		c0.6,0.6,0.9,1.5,0.9,3.1v7.1H592.8z"/>
	<path fill="#FFFFFF" d="M620,353.9c-1.5,0-3.1-0.6-4-1.5c-0.9-0.9-1.5-2.2-1.5-4s0.3-3.1,1.2-4c0.9-0.9,2.2-1.5,3.4-1.5
		c0.6,0,1.2,0,1.9,0.3c0.6,0.3,0.9,0.6,1.2,0.9c0.3,0.3,0.6,0.9,0.9,1.5c0.3,0.6,0.3,1.2,0.3,2.2v0.9H616c0,1.2,0.3,2.2,0.9,2.8
		c0.6,0.6,1.5,0.9,2.5,0.9c0.3,0,0.6,0,1.2,0c0.3,0,0.6-0.3,0.9-0.3s0.6-0.3,0.9-0.3s0.3-0.3,0.6-0.3l0,0v1.9
		c-0.3,0-0.6,0.3-0.9,0.3s-0.6,0.3-0.9,0.3s-0.6,0.3-0.9,0.3C620.9,353.9,620.3,353.9,620,353.9z M622.2,347.4c0-0.6,0-0.9-0.3-1.2
		c0-0.3-0.3-0.6-0.3-0.9c-0.3-0.3-0.6-0.6-0.9-0.6c-0.3,0-0.6-0.3-1.2-0.3c-0.6,0-0.9,0-1.2,0.3c-0.3,0-0.6,0.3-0.9,0.6
		c-0.3,0.3-0.6,0.6-0.6,0.9s-0.3,0.6-0.3,1.2H622.2z"/>
</g>
<g>
	<path fill="#FFFFFF" d="M651.5,345.2L651.5,345.2c-0.3,0-0.3,0-0.6,0c0,0-0.3,0-0.6,0c-0.6,0-0.9,0-1.5,0.3
		c-0.6,0.3-0.9,0.6-1.2,0.9v7.4h-1.9v-10.8h1.9v1.5c0.6-0.6,1.2-0.9,1.5-1.2c0.6-0.3,0.9-0.3,1.5-0.3c0.3,0,0.3,0,0.3,0h0.3v2.2
		H651.5z"/>
	<path fill="#FFFFFF" d="M673.1,353.9H671v-2.8h2.2V353.9z"/>
</g>
<g>
	<path fill="#FFFFFF" d="M700.6,353.9c-0.6,0-1.2,0-1.9-0.3c-0.6-0.3-1.2-0.6-1.5-0.9s-0.6-0.9-0.9-1.9c-0.3-0.6-0.3-1.5-0.3-2.5
		c0-0.9,0-1.9,0.3-2.5s0.6-1.2,0.9-1.9c0.3-0.3,0.9-0.9,1.5-0.9c0.6-0.3,1.2-0.3,1.9-0.3s1.2,0,1.5,0.3c0.6,0.3,0.9,0.3,1.5,0.6v1.9
		l0,0c0,0-0.3-0.3-0.6-0.3c-0.3,0-0.3-0.3-0.6-0.3c-0.3,0-0.6-0.3-0.9-0.3s-0.6,0-0.9,0c-0.9,0-1.5,0.3-2.2,0.9
		c-0.6,0.6-0.9,1.5-0.9,3.1c0,1.2,0.3,2.2,0.9,2.8c0.6,0.6,1.2,0.9,2.2,0.9c0.6,0,1.2,0,1.5-0.3c0.6-0.3,0.9-0.6,1.2-0.9l0,0v1.9
		c-0.3,0-0.3,0.3-0.6,0.3s-0.6,0.3-0.6,0.3c-0.3,0-0.6,0.3-0.9,0.3C701.2,353.9,700.9,353.9,700.6,353.9z"/>
	<path fill="#FFFFFF" d="M734.3,348.6c0,1.9-0.3,3.1-1.2,4c-0.9,0.9-1.9,1.5-3.4,1.5s-2.5-0.6-3.4-1.5c-0.9-0.9-1.2-2.5-1.2-4
		c0-1.9,0.3-3.1,1.2-4s1.9-1.5,3.4-1.5s2.5,0.6,3.4,1.5C734,345.2,734.3,346.8,734.3,348.6z M732.4,348.6c0-1.2-0.3-2.5-0.6-3.1
		c-0.3-0.6-1.2-0.9-2.2-0.9s-1.5,0.3-2.2,0.9c-0.6,0.6-0.6,1.5-0.6,3.1c0,1.2,0.3,2.5,0.6,3.1c0.6,0.6,1.2,0.9,2.2,0.9
		s1.5-0.3,2.2-0.9C732.1,350.8,732.4,349.8,732.4,348.6z"/>
</g>
<g>
	<path fill="#FFFFFF" d="M768.2,353.9v-6.2c0-0.6,0-0.9,0-1.2s0-0.6-0.3-0.9c0-0.3-0.3-0.3-0.6-0.6c-0.3,0-0.6-0.3-0.9-0.3
		s-0.6,0-1.2,0.3c-0.6,0.3-0.9,0.6-1.2,0.9v0.3c0,0,0,0.3,0,0.6v6.8H762v-6.2c0-0.6,0-0.9,0-1.2s0-0.6-0.3-0.9
		c0-0.3-0.3-0.3-0.6-0.6c-0.3,0-0.6-0.3-0.9-0.3s-0.9,0-1.2,0.3c-0.3,0.3-0.9,0.6-1.2,0.9v7.7h-1.9v-10.2h1.9v1.2
		c0.6-0.6,0.9-0.9,1.2-0.9c0.3-0.3,0.9-0.3,1.5-0.3s1.2,0,1.5,0.3c0.6,0.3,0.9,0.6,1.2,1.5c0.6-0.6,0.9-0.9,1.5-1.2
		c0.6-0.3,0.9-0.3,1.5-0.3c0.3,0,0.9,0,1.2,0.3c0.3,0,0.6,0.3,0.9,0.6c0.3,0.3,0.6,0.6,0.6,1.2s0.3,0.9,0.3,1.9v6.8h-1.2V353.9z"/>
</g>
<polyline fill="#FFFFFF" points="771,327.3 16.7,327.3 16.7,321.7 771,321.7 771,327.3 "/>
<g>
	<path fill="#FFFFFF" d="M488.2,313.4v-60.5h16.4c4.6,0,8.3,0.3,11.1,1.2c2.5,0.9,4.6,2.2,6.5,4c2.2,2.5,3.1,6.2,3.1,10.5
		c0,6.5-2.2,11.4-6.5,15.1s-10.5,5.6-18.2,5.6h-3.7v24.1C496.8,313.4,488.2,313.4,488.2,313.4z M496.5,282.8h3.4
		c5.2,0,9-1.2,11.7-3.4c2.8-2.5,4.3-5.6,4.3-9.9c0-3.7-1.2-6.2-3.4-7.7c-2.2-1.5-5.9-2.5-10.8-2.5h-5.2V282.8z"/>
	<path fill="#FFFFFF" d="M557.6,307.9c-4.9,4.3-9.6,6.8-13.9,6.8c-3.7,0-6.8-1.2-9.3-3.4c-2.5-2.2-3.7-5.2-3.7-8.6
		c0-4.9,2.2-8.6,6.2-11.1s9.9-4,17.6-4h1.9v-5.2c0-5.2-2.8-7.7-8-7.7c-4.3,0-8.6,1.2-13.6,4v-6.8c5.6-2.2,10.5-3.4,15.4-3.4
		c4.9,0,8.6,1.2,10.8,3.4c2.5,2.2,3.4,5.9,3.4,10.5v20.1c0,4.6,1.5,6.8,4.3,6.8c0.3,0,0.9,0,1.5-0.3l0.6,4.3
		c-1.9,0.9-3.7,1.2-6.2,1.2C561,314.3,558.6,312.2,557.6,307.9z M556.4,303.5v-11.4h-2.5c-4.6,0-8,0.9-10.8,2.5s-4,4-4,6.8
		c0,1.9,0.6,3.7,2.2,4.9c1.2,1.2,3.1,2.2,4.9,2.2C549.3,307.9,552.7,306.3,556.4,303.5z"/>
	<path fill="#FFFFFF" d="M581.1,313.4v-44.5h8v8.3c3.1-6.2,7.7-9.3,13.9-9.3c0.9,0,1.5,0,2.5,0.3v7.7c-1.5-0.6-2.5-0.6-3.7-0.6
		c-5.2,0-9.3,3.1-13,9v29.3h-7.7V313.4z"/>
	<path fill="#FFFFFF" d="M635.1,313.4c-2.5,0.6-4.6,0.9-6.5,0.9c-4,0-7.4-1.2-9.6-3.4s-3.4-5.6-3.4-9.9v-25.9h-5.6v-6.2h5.6v-8
		l8-0.9v9h11.7v6.2h-11.7v24.7c0,5.9,2.5,8.6,7.4,8.6c0.9,0,2.5-0.3,4-0.6V313.4z"/>
	<path fill="#FFFFFF" d="M646.9,313.4v-44.5h8v8.3c4.3-6.2,9.6-9.3,15.7-9.3c4,0,7.1,1.2,9.3,3.7c2.2,2.5,3.4,5.9,3.4,9.9v31.8h-8
		v-29.3c0-3.4-0.6-5.6-1.5-7.1c-0.9-1.5-2.5-2.2-4.9-2.2c-4.9,0-9.6,3.1-13.9,9.6v28.7h-8V313.4z"/>
	<path fill="#FFFFFF" d="M731.5,312.2c-5.6,1.5-10.2,2.5-13.9,2.5c-6.5,0-12-2.2-16.1-6.5s-6.2-9.9-6.2-17c0-6.8,1.9-12.4,5.6-16.7
		c3.7-4.3,8.3-6.5,13.9-6.5c5.2,0,9.6,1.9,12.4,5.9s4.3,9.3,4.3,16.4v2.5h-28.1c1.2,10.5,6.5,15.7,15.4,15.7c3.4,0,7.4-0.9,12.4-2.8
		v6.5H731.5z M704,286.5h19.8c0-8.3-3.1-12.4-9.3-12.4C708,274.2,704.6,278.2,704,286.5z"/>
</g>
<g>
	<path fill="#FFFFFF" d="M745.7,313.4v-44.5h8v8.3c3.1-6.2,7.7-9.3,13.9-9.3c0.9,0,1.5,0,2.5,0.3v7.7c-1.5-0.6-2.5-0.6-3.7-0.6
		c-5.2,0-9.3,3.1-13,9v29.3h-7.7V313.4z"/>
</g>
<g>
	<path fill="#FFFFFF" d="M200.1,254.4l-0.6,2.5c-0.6,0-1.9,0-2.8,0.3c-0.9,0.3-2.2,0.3-2.8,0.6c-0.9,0.3-1.9,0.9-2.2,1.5
		c-0.3,0.6-0.9,1.5-0.9,2.5l-9.6,40.8c0,0.3,0,0.3,0,0.6s0,0.6,0,0.6c0,0.6,0,0.9,0.3,1.5c0.3,0.3,0.6,0.9,1.2,1.2
		c0.3,0.3,1.2,0.6,2.5,0.6c1.2,0.3,2.2,0.3,2.8,0.3l-0.6,2.5h-24.7l0.6-2.5c0.9,0,2.2,0,3.4-0.3c1.5,0,2.5-0.3,3.1-0.6
		c0.9-0.6,1.5-0.9,2.2-1.9c0.6-0.9,0.9-1.5,1.2-2.5l9.6-41.7h-0.3l-30.6,48.5h-1.9l-7.1-49.4h-0.3l-8,34.3c-0.3,1.2-0.6,2.8-0.9,4
		c-0.3,1.2-0.3,2.5-0.3,3.1c0,0.9,0,1.5,0.3,2.2c0.3,0.6,0.3,1.2,0.9,1.5c0.6,0.6,1.5,0.9,3.1,1.5c1.5,0.3,2.8,0.6,3.7,0.9l-0.6,2.5
		h-22.5l0.6-2.5c1.2,0,2.5-0.3,3.7-0.6c1.2-0.3,2.5-0.6,3.4-1.2c0.9-0.6,1.9-1.9,2.8-3.4c0.9-1.5,1.5-4,2.2-7.4l6.8-29
		c0-0.6,0.3-1.2,0.3-1.5c0-0.6,0-0.9,0-1.5c0-0.9,0-1.5-0.3-2.2c-0.3-0.6-0.6-0.9-0.9-1.5c-0.6-0.6-1.5-1.2-2.8-1.5
		s-2.2-0.6-3.1-0.6l0.6-2.5h18.8l6.2,42l21.6-35.2c0.9-1.2,1.5-2.8,2.2-4c0.6-1.5,0.9-2.5,1.2-2.8h18.5V254.4z"/>
	<path fill="#FFFFFF" d="M223.6,304.5L223.6,304.5c-1.5,0.9-2.5,1.9-3.7,2.8c-1.2,0.9-2.2,1.5-3.4,2.2c-1.2,0.6-2.5,1.2-3.4,1.2
		c-0.9,0.3-2.5,0.3-4,0.3c-2.5,0-4.3-0.6-5.9-2.2c-1.5-1.5-2.2-3.4-2.2-5.9c0-0.6,0-1.2,0.3-2.2c0-0.9,0.3-2.2,0.6-3.7l3.1-12.4
		c0.3-1.2,0.6-2.2,0.6-3.1c0-0.9,0.3-1.9,0.3-2.5c0-1.5-0.3-2.5-0.6-2.8c-0.6-0.6-1.5-0.6-3.1-0.6c-0.6,0-1.2,0-2.2,0.3
		c-0.9,0.3-1.5,0.3-2.2,0.6l0.6-2.5c2.2-0.9,3.7-1.5,5.6-2.2c1.5-0.6,2.8-0.6,3.7-0.6c2.2,0,3.7,0.6,4.6,1.5
		c0.9,0.9,1.5,2.5,1.5,4.3c0,0.6,0,1.2-0.3,1.9c0,0.9-0.3,1.5-0.6,2.5l-3.1,13.9c-0.3,1.2-0.6,2.2-0.6,3.1c-0.3,0.9-0.3,1.5-0.3,2.2
		c0,1.9,0.3,3.1,1.2,4.3c0.6,0.9,1.9,1.5,3.7,1.5c1.5,0,3.4-0.3,5.2-1.2c1.9-0.9,3.4-2.2,5.2-4l6.8-29.6l6.8-0.6l0.6,0.6l-5.9,25.3
		c-0.3,0.9-0.6,2.2-0.6,3.4c-0.6,0.9-0.6,1.5-0.6,2.2c0,1.5,0.3,2.5,0.9,3.1c0.6,0.6,1.9,0.9,3.1,0.9c0.6,0,1.2,0,2.2-0.3
		s1.5-0.3,2.2-0.6l-0.6,2.5c-2.2,0.9-4,1.5-5.6,2.2c-1.5,0.3-2.8,0.6-4,0.6c-2.2,0-3.7-0.6-4.6-1.9
		C224.2,307.9,223.6,306.3,223.6,304.5z"/>
	<path fill="#FFFFFF" d="M256.3,311.2c-4,0-7.1-0.6-9.6-2.2c-2.5-1.2-4-3.1-4-5.6c0-0.9,0.3-2.2,1.2-3.1c0.6-0.9,1.5-1.2,2.8-1.2
		c0.9,0,1.9,0.3,2.5,0.6c0.6,0.6,1.2,0.9,1.5,1.9c0.3,0.6,0.6,1.5,0.9,2.5c0.3,0.9,0.6,1.9,0.6,2.5c0.3,0.3,0.9,0.9,1.5,1.2
		s1.5,0.6,3.1,0.6c2.8,0,4.9-0.6,6.5-2.2c1.5-1.5,2.2-3.4,2.2-5.9c0-1.9-0.6-3.1-2.2-4.3c-1.2-0.9-3.4-2.2-6.2-3.1
		c-0.9-0.3-2.2-0.9-3.4-1.5s-2.5-1.2-3.1-2.2c-0.9-0.9-1.9-1.9-2.2-3.1c-0.6-1.2-0.9-2.5-0.9-4c0-3.4,1.5-6.2,4.6-8.6
		c3.1-2.5,6.8-3.7,11.1-3.7c0.9,0,2.2,0,3.4,0.3c1.2,0,2.5,0.3,4,0.9c1.2,0.3,2.2,0.9,3.1,1.9c0.9,0.9,1.2,1.9,1.2,3.1
		c0,0.9-0.3,2.2-1.2,2.8c-0.6,0.9-1.5,1.2-2.8,1.2c-0.9,0-1.9-0.3-2.5-0.6c-0.6-0.3-1.2-0.9-1.5-1.5s-0.6-1.5-0.9-2.2
		c-0.3-0.6-0.6-1.5-0.9-2.5c-0.6-0.3-0.9-0.3-1.2-0.3s-0.9,0-1.5,0c-2.5,0-4.6,0.6-5.9,2.2c-1.2,1.2-1.9,3.1-1.9,4.9s0.6,3.1,1.9,4
		c1.2,0.9,3.1,1.9,5.9,2.8c3.7,1.2,6.2,2.8,7.7,4.3s2.5,3.7,2.5,6.2c0,4-1.5,7.1-4.6,9.9C264.9,310,260.9,311.2,256.3,311.2z"/>
	<path fill="#FFFFFF" d="M313.4,278.5c0,2.8-0.9,5.2-2.5,7.1c-1.9,1.9-4.3,3.7-7.7,4.6c-2.5,0.9-4.9,1.5-7.4,2.2
		c-2.5,0.6-5.2,0.9-8.3,1.2c0,4,0.6,7.4,2.2,9.6s3.7,3.4,6.8,3.4c2.5,0,4.9-0.6,6.8-1.9s4-3.4,5.9-5.9l2.2,1.5
		c-2.2,3.1-4.6,5.9-7.7,7.7c-3.1,1.9-6.5,2.8-9.9,2.8c-4.6,0-8.3-1.2-10.5-4c-2.5-2.5-3.7-6.2-3.7-11.1c0-3.4,0.6-6.5,1.5-9.6
		c0.9-3.1,2.5-5.9,4.6-8.3c1.9-2.5,4.3-4.3,7.1-5.9c2.8-1.5,5.9-2.2,9.3-2.2c3.7,0,6.5,0.6,8.3,2.2S313.4,276,313.4,278.5z
		 M306,277.6c0-0.9,0-1.9-0.3-2.5c-0.3-0.6-0.6-0.9-1.2-1.2c-0.6-0.3-0.9-0.6-1.5-0.6c-0.6,0-0.9,0-1.5,0c-3.1,0-6.2,1.9-8.6,5.2
		c-2.8,3.4-4.3,7.7-4.9,13c1.9-0.3,4-0.6,6.2-1.2c2.2-0.6,4.3-1.2,5.9-1.9c2.2-1.2,3.7-2.5,4.9-4.3C305.4,282.2,306,280.1,306,277.6
		z"/>
	<path fill="#FFFFFF" d="M342.7,304.5L342.7,304.5c-1.5,0.9-2.5,1.9-3.7,2.8c-1.2,0.9-2.2,1.5-3.4,2.2c-1.2,0.6-2.5,1.2-3.4,1.2
		c-0.9,0.3-2.5,0.3-4,0.3c-2.5,0-4.3-0.6-5.9-2.2c-1.5-1.5-2.2-3.4-2.2-5.9c0-0.6,0-1.2,0.3-2.2c0-0.9,0.3-2.2,0.6-3.7l3.1-12.4
		c0.3-1.2,0.6-2.2,0.6-3.1c0-0.9,0.3-1.9,0.3-2.5c0-1.5-0.3-2.5-0.6-2.8c-0.6-0.6-1.5-0.6-3.1-0.6c-0.6,0-1.2,0-2.2,0.3
		c-0.9,0.3-1.5,0.3-2.2,0.6l0.6-2.5c2.2-0.9,3.7-1.5,5.6-2.2c1.5-0.6,2.8-0.6,3.7-0.6c2.2,0,3.7,0.6,4.6,1.5
		c0.9,0.9,1.5,2.5,1.5,4.3c0,0.6,0,1.2-0.3,1.9c0,0.9-0.3,1.5-0.6,2.5l-3.4,14.5c-0.3,1.2-0.6,2.2-0.6,3.1c-0.3,0.9-0.3,1.5-0.3,2.2
		c0,1.9,0.3,3.1,1.2,4.3c0.6,0.9,1.9,1.5,3.7,1.5c1.5,0,3.4-0.3,5.2-1.2c1.9-0.9,3.4-2.2,5.2-4l6.8-29.6l6.8-0.6l0.6,0.6l-5.9,25.3
		c-0.3,0.9-0.6,2.2-0.6,3.4c-0.3,1.2-0.3,1.9-0.3,2.2c0,1.5,0.3,2.5,0.9,3.1c0.6,0.6,1.9,0.9,3.1,0.9c0.6,0,1.2,0,2.2-0.3
		c0.9-0.3,1.5-0.3,2.2-0.6l-0.6,2.5c-2.2,0.9-4,1.5-5.6,2.2c-1.5,0.3-2.8,0.6-4,0.6c-2.2,0-3.7-0.6-4.6-1.9S342.7,306.3,342.7,304.5
		z"/>
	<path fill="#FFFFFF" d="M429.8,305.7l-0.6,2.5c-2.5,0.9-4.3,1.5-5.9,2.2s-2.8,0.6-3.7,0.6c-2.2,0-3.7-0.6-4.6-1.5
		c-0.9-1.2-1.5-2.5-1.5-4c0-0.6,0-1.2,0.3-1.9c0-0.6,0.3-1.5,0.6-2.5l4-14.8c0.3-1.2,0.6-2.2,0.6-3.1c0.3-0.9,0.3-1.5,0.3-2.2
		c0-1.9-0.3-3.1-1.2-4c-0.6-0.9-1.9-1.5-3.7-1.5c-1.9,0-3.4,0.3-5.2,1.2c-1.9,0.9-3.7,2.5-5.6,4.6l-6.8,29h-7.7l6.2-26.2
		c0-0.6,0.3-1.2,0.3-1.9c0-0.6,0.3-1.2,0.3-1.5c0-1.9-0.3-3.1-1.2-4c-0.9-0.9-2.2-1.5-3.7-1.5c-1.5,0-3.1,0.3-4.9,1.2
		c-1.9,0.6-4,2.5-6.2,4.9l-6.8,29h-7.4l5.9-25.6c0.3-0.9,0.3-1.9,0.6-3.1c0.3-0.9,0.3-1.9,0.3-2.8c0-1.5-0.3-2.5-0.6-3.1
		c-0.6-0.6-1.5-0.6-2.8-0.6c-0.6,0-1.2,0-2.2,0.3c-0.9,0.3-1.5,0.3-2.2,0.6l0.6-2.5c2.2-0.9,4-1.5,5.6-2.2c1.5-0.3,3.1-0.6,4-0.6
		c2.2,0,3.7,0.6,4.6,1.9c0.9,1.2,1.2,2.8,1.5,4.6h0.3c3.1-2.5,5.6-4.3,7.7-5.2c1.9-0.9,4.3-1.5,7.1-1.5c2.5,0,4.3,0.6,5.6,2.2
		c1.5,1.2,2.2,3.1,2.5,5.2h0.3c2.8-2.5,5.2-4,7.4-5.2c2.2-1.2,4.6-1.9,7.7-1.9c2.5,0,4.3,0.6,5.9,2.2c1.2,1.5,2.2,3.4,2.2,5.9
		c0,0.6,0,1.2-0.3,2.5c-0.3,1.2-0.3,2.5-0.6,3.7l-3.4,12.7c-0.3,0.9-0.3,1.9-0.6,2.8c-0.3,1.2-0.3,1.9-0.3,2.5
		c0,1.5,0.3,2.5,0.9,3.1s1.5,0.9,3.1,0.9c0.6,0,1.2,0,2.2-0.3C429.5,306.3,429.2,306,429.8,305.7z"/>
</g>
<g>
	<path fill="#FFFFFF" d="M446.2,311.2c-4,0-7.1-0.6-9.6-2.2c-2.5-1.2-4-3.1-4-5.6c0-0.9,0.3-2.2,1.2-3.1c0.6-0.9,1.5-1.2,2.8-1.2
		c0.9,0,1.9,0.3,2.5,0.6c0.6,0.6,1.2,0.9,1.5,1.9c0.3,0.6,0.6,1.5,0.9,2.5c0.3,0.9,0.6,1.9,0.6,2.5c0.3,0.3,0.9,0.9,1.5,1.2
		c0.6,0.3,1.5,0.6,3.1,0.6c2.8,0,4.9-0.6,6.5-2.2c1.5-1.5,2.2-3.4,2.2-5.9c0-1.9-0.6-3.1-2.2-4.3c-1.2-0.9-3.4-2.2-6.2-3.1
		c-0.9-0.3-2.2-0.9-3.4-1.5c-1.2-0.6-2.5-1.2-3.1-2.2c-0.9-0.9-1.9-1.9-2.2-3.1c-0.6-1.2-0.9-2.5-0.9-4c0-3.4,1.5-6.2,4.6-8.6
		c3.1-2.5,6.8-3.7,11.1-3.7c0.9,0,2.2,0,3.4,0.3c1.2,0,2.5,0.3,4,0.9c1.2,0.3,2.2,0.9,3.1,1.9c0.9,0.9,1.2,1.9,1.2,3.1
		c0,0.9-0.3,2.2-1.2,2.8c-0.6,0.9-1.5,1.2-2.8,1.2c-0.9,0-1.9-0.3-2.5-0.6c-0.6-0.3-1.2-0.9-1.5-1.5c-0.3-0.6-0.6-1.5-0.9-2.2
		c-0.3-0.6-0.6-1.5-0.9-2.5c-0.6-0.3-0.9-0.3-1.2-0.3c-0.3,0-0.9,0-1.5,0c-2.5,0-4.6,0.6-5.9,2.2c-1.2,1.2-1.9,3.1-1.9,4.9
		s0.6,3.1,1.9,4c1.2,0.9,3.1,1.9,5.9,2.8c3.7,1.2,6.2,2.8,7.7,4.3s2.5,3.7,2.5,6.2c0,4-1.5,7.1-4.6,9.9
		C454.8,310,450.8,311.2,446.2,311.2z"/>
</g>
</svg>
