<?xml version="1.0" encoding="utf-8"?>
<!-- Generator: Adobe Illustrator 18.1.1, SVG Export Plug-In . SVG Version: 6.00 Build 0)  -->
<!DOCTYPE svg PUBLIC "-//W3C//DTD SVG 1.1//EN" "http://www.w3.org/Graphics/SVG/1.1/DTD/svg11.dtd">
<svg version="1.1" id="Lager_1" xmlns="http://www.w3.org/2000/svg" xmlns:xlink="http://www.w3.org/1999/xlink" x="0px" y="0px"
	 viewBox="55.8 154.6 677.8 301.4" enable-background="new 55.8 154.6 677.8 301.4" xml:space="preserve">
<g>
	<g>
		<g>
			<path fill="#000000" d="M471.3,154.5v10h-16.8v46.1h-11.8v-46.1h-16.8v-10H471.3z"/>
			<path fill="#000000" d="M505.8,169.3c2.1,0.9,3.8,2.3,5.1,4.1c1.1,1.5,1.9,3.1,2.1,4.8c0.3,1.6,0.3,4.3,0.3,8v24.3h-11.1v-25.2
				c0-2.2-0.4-4.1-1.1-5.4c-1-1.9-2.9-2.9-5.6-2.9c-2.9,0-5,0.9-6.5,2.9c-1.4,1.9-2.2,4.6-2.2,8.2v22.4h-10.8v-55.9H487v19.7
				c1.6-2.4,3.4-4.1,5.4-5.1c2-0.9,4.2-1.4,6.5-1.4C501.4,168,503.7,168.4,505.8,169.3z"/>
			<path fill="#000000" d="M549.5,169.9c2.9,1.3,5.3,3.4,7.2,6.2c1.7,2.4,2.8,5.3,3.3,8.5c0.3,1.9,0.4,4.6,0.3,8.2h-30.1
				c0.2,4.1,1.6,7.1,4.3,8.8c1.7,1,3.6,1.5,6,1.5c2.4,0,4.5-0.7,6-1.9c0.8-0.7,1.6-1.6,2.2-2.9h11.1c-0.3,2.4-1.6,5-4.1,7.5
				c-3.7,4.1-8.9,6.1-15.6,6.1c-5.5,0-10.4-1.7-14.6-5.1s-6.3-8.9-6.3-16.5c0-7.2,1.9-12.7,5.7-16.5c3.8-3.8,8.8-5.7,14.8-5.7
				C543.5,168,546.7,168.7,549.5,169.9z M533.3,179.3c-1.5,1.6-2.5,3.7-2.9,6.4h18.7c-0.2-2.9-1.2-5.1-2.9-6.6
				c-1.7-1.5-3.9-2.2-6.4-2.2C537.1,176.9,534.9,177.7,533.3,179.3z"/>
		</g>
		<g>
			<path fill="#000000" d="M441.4,275c0.3,2.5,1.1,4.5,2.1,5.7c1.9,2.3,5.2,3.5,10,3.5c2.8,0,5.1-0.3,6.8-0.9c3.4-1.2,5-3.3,5-6.5
				c0-1.9-0.8-3.3-2.4-4.3c-1.6-1-4.2-1.9-7.8-2.6l-6.1-1.4c-6-1.4-10-2.8-12.3-4.3c-3.8-2.6-5.7-6.7-5.7-12.2c0-5,1.9-9.2,5.6-12.5
				c3.7-3.3,9.1-5,16.3-5c6,0,11.1,1.6,15.3,4.7c4.2,3.1,6.4,7.7,6.7,13.6h-11.2c-0.2-3.4-1.7-5.7-4.6-7.2c-1.9-0.9-4.2-1.4-7-1.4
				c-3.1,0-5.6,0.6-7.4,1.9c-1.9,1.2-2.8,3-2.8,5.1c0,2,0.9,3.5,2.7,4.5c1.2,0.7,3.6,1.4,7.4,2.3l9.8,2.3c4.3,1,7.5,2.4,9.7,4.1
				c3.4,2.6,5,6.4,5,11.5c0,5.1-1.9,9.4-5.9,12.7c-4,3.4-9.5,5.1-16.8,5.1c-7.3,0-13.2-1.7-17.4-5c-4.2-3.3-6.3-7.9-6.3-13.8h11.4
				V275z"/>
			<path fill="#000000" d="M502.9,250.9h11l6.3,29.8l6.5-29.8H538l-12,41.4h-11.2l-6.5-30.1l-6.6,30.1h-11.2l-11.6-41.4h11.6
				l6.5,29.7L502.9,250.9z"/>
			<path fill="#000000" d="M569.7,251.7c2.9,1.3,5.2,3.4,7.2,6.2c1.7,2.4,2.8,5.3,3.3,8.5c0.3,1.9,0.4,4.6,0.3,8.2h-30.1
				c0.2,4.1,1.6,7.1,4.3,8.8c1.7,1,3.6,1.5,6,1.5c2.4,0,4.5-0.7,6-1.9c0.8-0.7,1.6-1.6,2.2-2.9h11.1c-0.3,2.4-1.6,5-4.1,7.5
				c-3.7,4.1-8.9,6.1-15.6,6.1c-5.5,0-10.4-1.7-14.6-5.1c-4.2-3.4-6.3-8.9-6.3-16.5c0-7.2,1.9-12.7,5.7-16.5
				c3.8-3.8,8.8-5.7,14.8-5.7C563.6,249.8,566.8,250.4,569.7,251.7z M553.5,261.1c-1.5,1.6-2.5,3.7-2.9,6.4h18.7
				c-0.2-2.9-1.2-5.1-2.9-6.6c-1.7-1.5-3.9-2.2-6.4-2.2C557.1,258.7,555,259.5,553.5,261.1z"/>
			<path fill="#000000" d="M610.3,251.5c1.9,1.1,3.5,2.6,4.7,4.6v-19.7h11v56h-10.5v-5.7c-1.5,2.4-3.3,4.2-5.3,5.3
				c-1.9,1.1-4.5,1.7-7.3,1.7c-4.8,0-8.9-1.9-12.2-5.9c-3.3-3.9-5-8.9-5-15c0-7.1,1.6-12.7,4.9-16.7c3.3-4.1,7.6-6.1,13.1-6.1
				C606.2,249.9,608.4,250.4,610.3,251.5z M613,281.1c1.6-2.3,2.4-5.2,2.4-8.9c0-5.1-1.3-8.7-3.8-10.9c-1.6-1.4-3.4-1.9-5.5-1.9
				c-3.2,0-5.5,1.2-7,3.6c-1.5,2.4-2.2,5.4-2.2,8.9c0,3.8,0.8,6.9,2.3,9.2s3.8,3.5,6.8,3.5C609,284.4,611.4,283.3,613,281.1z"/>
			<path fill="#000000" d="M644.8,246h-11v-10h11V246z M633.9,250.9h11v41.4h-11V250.9z"/>
			<path fill="#000000" d="M662,279c0.3,1.9,0.8,3.3,1.5,4.1c1.4,1.4,3.9,2.2,7.5,2.2c2.1,0,3.8-0.3,5.1-0.9
				c1.3-0.7,1.9-1.6,1.9-2.9c0-1.2-0.5-2.1-1.5-2.8c-1-0.7-4.8-1.7-11.3-3.3c-4.7-1.2-8-2.6-10-4.4c-1.9-1.7-2.9-4.2-2.9-7.4
				c0-3.8,1.5-7.1,4.5-9.9c3-2.8,7.3-4.1,12.7-4.1c5.1,0,9.4,1,12.7,3.1c3.3,2,5.1,5.7,5.7,10.7H677c-0.2-1.4-0.5-2.5-1.2-3.3
				c-1.2-1.4-3.2-2.2-6.1-2.2c-2.4,0-4.1,0.3-5.1,1.1s-1.5,1.6-1.5,2.6c0,1.3,0.5,2.1,1.6,2.7c1.1,0.6,4.8,1.6,11.3,3
				c4.3,1,7.5,2.5,9.7,4.6c2.1,2.1,3.2,4.6,3.2,7.8c0,4.1-1.5,7.4-4.6,10c-3,2.6-7.8,3.9-14.2,3.9c-6.5,0-11.3-1.4-14.4-4.1
				c-3.1-2.8-4.6-6.2-4.6-10.5L662,279L662,279z"/>
			<path fill="#000000" d="M724.4,251.1c2.1,0.8,3.8,2.3,5.1,4.1c1.1,1.5,1.9,3.1,2.1,4.8c0.3,1.6,0.3,4.3,0.3,8v24.3h-11.1v-25.2
				c0-2.2-0.4-4.1-1.1-5.4c-1-1.9-2.9-2.9-5.6-2.9c-2.9,0-5,0.9-6.5,2.9c-1.4,1.9-2.2,4.6-2.2,8.2v22.4h-10.8v-55.8h10.8v19.7
				c1.6-2.4,3.4-4.1,5.4-5.1c2-0.9,4.2-1.4,6.5-1.4C720,249.8,722.3,250.3,724.4,251.1z"/>
		</g>
		<path fill="#000000" d="M470.1,400.1H487v56h-10.9v-37.9c0-1.1,0-2.6,0-4.6s0-3.5,0-4.6l-10.6,47h-11.4l-10.5-47
			c0,1.1,0,2.6,0,4.6s0,3.5,0,4.6v37.9h-10.9v-56h17.1l10.2,44.1L470.1,400.1z"/>
		<path fill="#000000" d="M506.7,414.7v25c0,2.4,0.3,4.1,0.8,5.3c1,2.1,3,3.1,5.8,3.1c3.7,0,6.2-1.5,7.6-4.5
			c0.7-1.6,1.1-3.8,1.1-6.4v-22.5h11v41.4h-10.6v-5.8c-0.1,0.1-0.3,0.5-0.8,1.2c-0.4,0.6-0.8,1.2-1.4,1.7c-1.7,1.5-3.3,2.5-4.9,3.1
			c-1.6,0.6-3.5,0.8-5.6,0.8c-6.1,0-10.2-2.2-12.3-6.6c-1.2-2.4-1.8-6-1.8-10.7v-25h11.1V414.7z"/>
		<path fill="#000000" d="M550,442.8c0.3,1.9,0.8,3.3,1.5,4.1c1.4,1.4,3.9,2.2,7.5,2.2c2.1,0,3.8-0.3,5.1-0.9
			c1.3-0.7,1.9-1.6,1.9-2.9c0-1.2-0.5-2.1-1.5-2.8s-4.8-1.7-11.3-3.3c-4.7-1.2-8-2.6-10-4.4c-1.9-1.7-2.9-4.2-2.9-7.4
			c0-3.8,1.5-7.1,4.5-9.9c3-2.8,7.3-4.1,12.7-4.1c5.1,0,9.4,1,12.7,3.1c3.3,2,5.1,5.7,5.7,10.7h-10.8c-0.2-1.4-0.5-2.5-1.2-3.3
			c-1.2-1.4-3.2-2.2-6.1-2.2c-2.4,0-4.1,0.3-5.1,1.1c-1,0.8-1.5,1.6-1.5,2.6c0,1.3,0.5,2.1,1.6,2.7c1.1,0.6,4.8,1.6,11.3,3
			c4.3,1,7.5,2.5,9.7,4.6c2.1,2.1,3.2,4.6,3.2,7.8c0,4.1-1.5,7.4-4.6,10c-3,2.6-7.8,3.9-14.2,3.9c-6.5,0-11.3-1.4-14.4-4.1
			c-3.1-2.8-4.6-6.2-4.6-10.5L550,442.8L550,442.8z"/>
		<path fill="#000000" d="M612,415.5c2.9,1.3,5.2,3.4,7.2,6.2c1.7,2.4,2.8,5.3,3.3,8.5c0.3,1.9,0.4,4.6,0.3,8.2h-30.1
			c0.2,4.1,1.6,7.1,4.3,8.8c1.7,1,3.6,1.5,6,1.5c2.4,0,4.5-0.7,6-1.9c0.8-0.7,1.6-1.6,2.2-2.9h11.1c-0.3,2.4-1.6,5-4.1,7.5
			c-3.7,4.1-8.9,6.1-15.6,6.1c-5.5,0-10.4-1.7-14.6-5.1c-4.2-3.4-6.3-8.9-6.3-16.5c0-7.2,1.9-12.7,5.7-16.5
			c3.8-3.8,8.8-5.7,14.8-5.7C605.8,413.6,609.1,414.2,612,415.5z M595.8,424.9c-1.5,1.6-2.5,3.7-2.9,6.4h18.7
			c-0.2-2.9-1.2-5.1-2.9-6.6s-3.9-2.2-6.4-2.2C599.5,422.5,597.3,423.3,595.8,424.9z"/>
		<path fill="#000000" d="M640.4,414.7v25c0,2.4,0.3,4.1,0.8,5.3c1,2.1,2.9,3.1,5.8,3.1c3.7,0,6.2-1.5,7.6-4.5
			c0.7-1.6,1.1-3.8,1.1-6.4v-22.5h11v41.4h-10.5v-5.8c-0.1,0.1-0.3,0.5-0.8,1.2c-0.4,0.6-0.9,1.2-1.4,1.7c-1.7,1.5-3.3,2.5-4.9,3.1
			c-1.6,0.6-3.5,0.8-5.6,0.8c-6.1,0-10.2-2.2-12.3-6.6c-1.2-2.4-1.8-6-1.8-10.7v-25h11V414.7z"/>
		<path fill="#000000" d="M726.2,414.8c1.8,0.7,3.4,1.9,4.8,3.7c1.2,1.4,1.9,3.2,2.4,5.3c0.3,1.4,0.3,3.5,0.3,6.1l-0.1,26.1h-11.1
			v-26.3c0-1.6-0.3-2.9-0.8-3.9c-0.9-1.9-2.7-2.9-5.3-2.9c-3,0-5.1,1.3-6.2,3.7c-0.6,1.4-0.8,2.9-0.8,4.7V456h-10.9v-24.6
			c0-2.4-0.3-4.2-0.8-5.3c-0.9-2-2.7-3-5.3-3c-3.1,0-5.1,1-6.2,3c-0.6,1.2-0.8,2.9-0.8,5.1V456h-11v-41.4H685v6.1
			c1.4-2.2,2.6-3.7,3.8-4.6c2.1-1.6,4.8-2.4,8.2-2.4c3.2,0,5.7,0.7,7.7,2.1c1.6,1.3,2.8,3,3.5,5c1.4-2.4,3.2-4.2,5.3-5.3
			c2.2-1.1,4.7-1.7,7.4-1.7C722.5,413.8,724.4,414.1,726.2,414.8z"/>
		<g>
			<path fill="#000000" d="M652.5,382.2l1.4,0.1c1.1,0.1,2.1,0,3-0.1c0.9-0.2,1.8-0.4,2.4-0.8c0.7-0.4,1.2-1.4,1.8-2.7
				c0.5-1.4,0.8-2.2,0.7-2.5l-15.2-43.2h12.1l9,30.5l8.5-30.5h11.6l-14.2,40.8c-2.8,7.8-4.9,12.7-6.5,14.6c-1.6,1.9-4.8,2.9-9.6,2.9
				c-0.9,0-1.8,0-2.3,0c-0.6,0-1.4-0.1-2.6-0.2L652.5,382.2L652.5,382.2z"/>
			<g>
				<path fill="#000000" d="M432.8,374.1v-56h11.6v21.4h21.8v-21.4h11.6v56h-11.6v-25h-21.8v25H432.8z"/>
				<path fill="#000000" d="M498.2,328.2h-11v-10h11V328.2z M487.3,332.8h11v41.4h-11V332.8z"/>
				<path fill="#000000" d="M515.6,361c0.3,1.9,0.8,3.3,1.5,4.1c1.4,1.4,3.9,2.2,7.5,2.2c2.1,0,3.8-0.3,5.1-0.9
					c1.3-0.7,1.9-1.6,1.9-2.9c0-1.2-0.5-2.1-1.5-2.8c-1-0.6-4.8-1.7-11.3-3.3c-4.7-1.2-8-2.6-10-4.4c-1.9-1.7-2.9-4.2-2.9-7.4
					c0-3.8,1.5-7.1,4.5-9.9c3-2.8,7.3-4.1,12.7-4.1c5.1,0,9.4,1,12.7,3.1c3.3,2,5.1,5.7,5.7,10.7h-10.8c-0.2-1.4-0.5-2.5-1.2-3.3
					c-1.2-1.4-3.2-2.2-6.1-2.2c-2.4,0-4.1,0.3-5.1,1.1c-1,0.8-1.5,1.6-1.5,2.6c0,1.3,0.5,2.1,1.6,2.7c1.1,0.6,4.8,1.6,11.3,3
					c4.3,1,7.5,2.5,9.7,4.6c2.1,2.1,3.2,4.6,3.2,7.8c0,4.1-1.5,7.4-4.6,10c-3,2.6-7.8,3.9-14.2,3.9c-6.5,0-11.3-1.4-14.4-4.1
					c-3.1-2.8-4.6-6.2-4.6-10.5L515.6,361L515.6,361z"/>
				<path fill="#000000" d="M544.8,340.5v-7.7h5.7v-14.6h10.7v14.6h6.8v7.7h-6.8v22.3c0,1.7,0.3,2.8,0.7,3.2c0.4,0.4,1.8,0.6,4,0.6
					c0.3,0,0.7,0,1,0s0.8,0,1.1-0.1v8.1l-5.1,0.2c-5.1,0.2-8.6-0.7-10.5-2.6c-1.2-1.3-1.9-3.1-1.9-5.7v-25.8L544.8,340.5
					L544.8,340.5z"/>
				<path fill="#000000" d="M608.5,369.1c-3.5,4.3-8.8,6.5-15.9,6.5c-7.1,0-12.4-2.2-15.9-6.5c-3.5-4.3-5.2-9.5-5.2-15.6
					c0-6,1.8-11.1,5.2-15.5c3.5-4.4,8.8-6.6,15.9-6.6c7.1,0,12.4,2.2,15.9,6.6c3.5,4.4,5.2,9.5,5.2,15.5
					C613.8,359.6,612,364.8,608.5,369.1z M599.8,363.1c1.7-2.3,2.5-5.5,2.5-9.6s-0.8-7.3-2.5-9.5c-1.7-2.3-4.1-3.4-7.3-3.4
					c-3.2,0-5.6,1.1-7.3,3.4c-1.7,2.3-2.5,5.4-2.5,9.5s0.8,7.3,2.5,9.6s4.1,3.4,7.3,3.4C595.7,366.5,598.2,365.4,599.8,363.1z"/>
				<path fill="#000000" d="M643.1,332.7c0.2,0,0.4,0,0.9,0.1v11.1c-0.7-0.1-1.3-0.2-1.9-0.2c-0.5,0-0.9,0-1.3,0
					c-4.4,0-7.3,1.4-8.8,4.2c-0.8,1.6-1.3,4.1-1.3,7.3v18.9h-10.9v-41.4h10.3v8.1c1.7-2.8,3.1-4.6,4.4-5.7c2-1.7,4.6-2.5,7.9-2.5
					C642.8,332.7,643,332.7,643.1,332.7z"/>
			</g>
		</g>
	</g>
	<g>
		<path fill="#000000" d="M142.1,406.7c0,16.5,2.5,27.2,7.5,31.9c5.1,4.7,15.9,7.8,32.6,9.1v8.4H55.7v-8.4
			c17.8-1.9,28.9-5.2,33.4-9.9c4.5-4.6,6.7-16.8,6.7-36.5V203.9c0-16.3-2.4-26.9-7.4-31.8s-15.9-7.9-32.6-9.1v-8.4h126.4v8.4
			c-16.7,1.2-27.5,4.2-32.6,9.1s-7.5,15.5-7.5,31.8V406.7z"/>
		<polygon fill="#000000" points="266.2,154.5 266.2,274.3 225.2,274.3 167.4,336.3 266.2,336.3 266.2,456.2 337.1,456.2 
			337.1,154.5 		"/>
	</g>
</g>
</svg>
