<?xml version="1.0" encoding="utf-8"?>
<!-- Generator: Adobe Illustrator 18.1.0, SVG Export Plug-In . SVG Version: 6.00 Build 0)  -->
<svg version="1.1" id="logo" xmlns="http://www.w3.org/2000/svg" xmlns:xlink="http://www.w3.org/1999/xlink" x="0px" y="0px"
	 viewBox="0 0 301.7 205.9" enable-background="new 0 0 301.7 205.9" xml:space="preserve">
<g>
	<g>
		<path d="M70.4,162.9c-3.4-3-4.2-7-4.2-10.4c0-2.3,0.8-6.4,3.9-9.6c2.1-2.1,5.3-3.7,10.7-3.7c1.4,0,3.4,0.1,5.1,0.4
			c1.3,0.2,2.5,0.5,3.6,0.5c0.4,0,0.5,0.2,0.5,0.4c0,0.3-0.1,0.7-0.2,2c-0.1,1.2-0.1,3.1-0.1,3.6c0,0.5-0.1,0.7-0.3,0.7
			c-0.2,0-0.3-0.2-0.3-0.7c0-1.4-0.6-2.8-1.5-3.6c-1.2-1-3.9-2-7-2c-4.7,0-6.8,1.4-8.1,2.6c-2.6,2.5-3.2,5.6-3.2,9.1
			c0,6.7,5.1,12.8,12.6,12.8c2.6,0,4.7-0.3,6.1-1.8c0.7-0.8,1.2-2.3,1.3-2.9c0.1-0.4,0.1-0.5,0.4-0.5c0.2,0,0.2,0.2,0.2,0.5
			c0,0.2-0.4,3.3-0.8,4.5c-0.2,0.7-0.3,0.7-0.9,1c-1.4,0.6-4.1,0.8-6.3,0.8C76.7,166.7,73.1,165.4,70.4,162.9z"/>
		<path d="M100.3,149.9c0-5.5,0-6.4-0.1-7.6c-0.1-1.2-0.4-1.8-1.5-2c-0.3-0.1-0.9-0.1-1.2-0.1c-0.1,0-0.3-0.1-0.3-0.2
			c0-0.2,0.2-0.3,0.6-0.3c1.6,0,3.8,0.1,4,0.1c0.4,0,3-0.1,4.1-0.1c2.2,0,4.6,0.2,6.4,1.5c0.9,0.6,2.4,2.3,2.4,4.8
			c0,2.6-1.1,5.2-4.2,8.1c2.9,3.7,5.3,6.8,7.3,9c1.9,2,3.4,2.4,4.3,2.5c0.7,0.1,1.2,0.1,1.4,0.1c0.2,0,0.3,0.1,0.3,0.2
			c0,0.2-0.2,0.3-0.8,0.3h-2.5c-2,0-2.8-0.2-3.7-0.7c-1.5-0.8-2.7-2.5-4.7-5.1c-1.5-1.9-3.1-4.3-3.8-5.2c-0.1-0.1-0.2-0.2-0.5-0.2
			l-4.3-0.1c-0.2,0-0.2,0.1-0.2,0.3v0.8c0,3.4,0,6.1,0.2,7.6c0.1,1,0.3,1.8,1.4,1.9c0.5,0.1,1.3,0.1,1.6,0.1c0.2,0,0.3,0.1,0.3,0.2
			c0,0.2-0.2,0.3-0.6,0.3c-1.9,0-4.1-0.1-4.3-0.1c0,0-2.2,0.1-3.3,0.1c-0.4,0-0.6-0.1-0.6-0.3c0-0.1,0.1-0.2,0.3-0.2
			c0.3,0,0.7-0.1,1.1-0.1c0.7-0.1,0.9-0.9,1-1.9c0.2-1.5,0.2-4.2,0.2-7.6V149.9z M103.1,152.9c0,0.2,0.1,0.3,0.2,0.4
			c0.5,0.3,2.1,0.6,3.7,0.6c0.8,0,1.8-0.1,2.6-0.7c1.2-0.8,2.1-2.7,2.1-5.4c0-4.4-2.3-7-6.1-7c-1.1,0-2,0.1-2.3,0.2
			c-0.2,0.1-0.3,0.2-0.3,0.4V152.9z"/>
		<path d="M126.9,149.9c0-5.5,0-6.4-0.1-7.6c-0.1-1.2-0.4-1.8-1.5-2c-0.3-0.1-0.9-0.1-1.2-0.1c-0.1,0-0.3-0.1-0.3-0.2
			c0-0.2,0.2-0.3,0.6-0.3c1.6,0,3.7,0.1,4,0.1c0.3,0,2.4-0.1,3.5-0.1c0.4,0,0.6,0.1,0.6,0.3c0,0.1-0.1,0.2-0.3,0.2
			c-0.2,0-0.5,0-0.9,0.1c-0.9,0.1-1.2,0.8-1.3,2c-0.1,1.1-0.1,2.1-0.1,7.6v4.9c0,5,1.1,7.2,2.6,8.6c1.7,1.6,3.3,1.9,5.3,1.9
			c2.1,0,4.2-1,5.5-2.5c1.6-2,2-5,2-8.6v-4.4c0-5.5,0-6.4-0.1-7.6c-0.1-1.2-0.3-1.8-1.5-2c-0.3-0.1-0.9-0.1-1.2-0.1
			c-0.1,0-0.3-0.1-0.3-0.2c0-0.2,0.2-0.3,0.6-0.3c1.6,0,3.5,0.1,3.7,0.1c0.2,0,1.9-0.1,2.9-0.1c0.4,0,0.6,0.1,0.6,0.3
			c0,0.1-0.1,0.2-0.3,0.2c-0.2,0-0.5,0-0.9,0.1c-0.9,0.2-1.2,0.8-1.3,2c-0.1,1.1-0.1,2.1-0.1,7.6v3.7c0,3.8-0.4,8-3.2,10.5
			c-2.5,2.2-5.1,2.6-7.2,2.6c-1.2,0-4.7-0.1-7.2-2.5c-1.7-1.6-3-4.1-3-9.2V149.9z"/>
		<path d="M163,156c0,3.4,0,6.1,0.2,7.6c0.1,1,0.3,1.8,1.4,1.9c0.5,0.1,1.3,0.1,1.6,0.1c0.2,0,0.3,0.1,0.3,0.2
			c0,0.2-0.2,0.3-0.6,0.3c-1.9,0-4.1-0.1-4.3-0.1c-0.2,0-2.4,0.1-3.4,0.1c-0.4,0-0.6-0.1-0.6-0.3c0-0.1,0.1-0.2,0.3-0.2
			c0.3,0,0.7-0.1,1-0.1c0.7-0.1,0.9-0.9,1-1.9c0.2-1.5,0.2-4.2,0.2-7.6v-6.2c0-5.5,0-6.4-0.1-7.6c-0.1-1.2-0.4-1.8-1.2-2
			c-0.4-0.1-0.8-0.1-1.1-0.1c-0.1,0-0.3-0.1-0.3-0.2c0-0.2,0.2-0.3,0.6-0.3c1.2,0,3.4,0.1,3.5,0.1c0.2,0,2.4-0.1,3.4-0.1
			c0.4,0,0.6,0.1,0.6,0.3c0,0.1-0.1,0.2-0.3,0.2c-0.2,0-0.5,0-0.9,0.1c-0.9,0.2-1.2,0.8-1.3,2c-0.1,1.1-0.1,2.1-0.1,7.6V156z"/>
		<path d="M174.6,165.7c-0.5-0.2-0.5-0.4-0.5-1.3c0-1.8,0.1-3.2,0.2-3.7c0-0.4,0.1-0.6,0.3-0.6c0.2,0,0.2,0.1,0.2,0.4
			c0,0.3,0,0.8,0.1,1.3c0.5,2.6,2.8,3.6,5.2,3.6c3.4,0,5-2.4,5-4.7c0-2.4-1-3.8-4-6.3l-1.6-1.3c-3.7-3-4.5-5.2-4.5-7.6
			c0-3.7,2.8-6.3,7.2-6.3c1.4,0,2.4,0.1,3.3,0.3c0.7,0.1,0.9,0.2,1.2,0.2c0.3,0,0.4,0.1,0.4,0.2s-0.1,1.3-0.1,3.7
			c0,0.6-0.1,0.8-0.2,0.8c-0.2,0-0.2-0.2-0.3-0.5c0-0.4-0.2-1.4-0.5-1.8c-0.2-0.4-1.2-1.9-4.4-1.9c-2.4,0-4.3,1.5-4.3,4.1
			c0,2,0.9,3.3,4.3,5.9l1,0.8c4.1,3.3,5.1,5.4,5.1,8.2c0,1.4-0.6,4.1-3,5.8c-1.5,1-3.4,1.5-5.3,1.5
			C177.7,166.7,176.1,166.4,174.6,165.7z"/>
		<path d="M198.1,149.9c0-5.5,0-6.4-0.1-7.6c-0.1-1.2-0.3-1.8-1.5-2c-0.3-0.1-0.9-0.1-1.2-0.1c-0.1,0-0.3-0.1-0.3-0.2
			c0-0.2,0.2-0.3,0.6-0.3c0.8,0,1.8,0,2.5,0l1.4,0.1c0.2,0,7.2,0,8,0c0.7,0,1.2-0.1,1.5-0.2c0.2,0,0.3-0.2,0.5-0.2
			c0.1,0,0.1,0.1,0.1,0.3c0,0.2-0.2,0.7-0.3,1.6c0,0.3-0.1,1.9-0.2,2.3c0,0.2-0.1,0.4-0.2,0.4c-0.2,0-0.3-0.2-0.3-0.5
			c0-0.2,0-0.8-0.2-1.3c-0.2-0.6-0.6-1-2.5-1.2c-0.6-0.1-4.4-0.1-4.8-0.1c-0.1,0-0.2,0.1-0.2,0.3v9.7c0,0.2,0,0.3,0.2,0.3
			c0.5,0,4.8,0,5.6-0.1c0.8-0.1,1.3-0.1,1.6-0.5c0.2-0.3,0.4-0.5,0.5-0.5c0.1,0,0.2,0.1,0.2,0.3c0,0.2-0.2,0.8-0.3,2
			c-0.1,0.7-0.1,2-0.1,2.2c0,0.3,0,0.7-0.2,0.7c-0.2,0-0.2-0.1-0.2-0.3c0-0.3,0-0.7-0.1-1.2c-0.1-0.5-0.5-1.1-1.8-1.2
			c-0.9-0.1-4.4-0.2-5-0.2c-0.2,0-0.2,0.1-0.2,0.2v3.1c0,1.2,0,5.2,0,6c0.1,2.4,0.6,2.9,4.1,2.9c0.9,0,2.5,0,3.4-0.4
			c0.9-0.4,1.3-1.1,1.6-2.5c0.1-0.4,0.1-0.5,0.3-0.5c0.2,0,0.2,0.3,0.2,0.5c0,0.3-0.3,2.7-0.5,3.4c-0.2,0.9-0.5,0.9-1.9,0.9
			c-2.6,0-4.6-0.1-5.9-0.1c-1.4-0.1-2.2-0.1-2.7-0.1c-0.1,0-0.7,0-1.4,0c-0.7,0-1.5,0.1-2,0.1c-0.4,0-0.6-0.1-0.6-0.3
			c0-0.1,0.1-0.2,0.3-0.2c0.3,0,0.7-0.1,1.1-0.1c0.7-0.1,0.9-0.9,1-1.9c0.2-1.5,0.2-4.2,0.2-7.6V149.9z"/>
		<path d="M218.8,165.7c-0.5-0.2-0.5-0.4-0.5-1.3c0-1.8,0.1-3.2,0.2-3.7c0-0.4,0.1-0.6,0.3-0.6c0.2,0,0.2,0.1,0.2,0.4
			c0,0.3,0,0.8,0.1,1.3c0.5,2.6,2.8,3.6,5.2,3.6c3.4,0,5-2.4,5-4.7c0-2.4-1-3.8-4-6.3l-1.6-1.3c-3.7-3-4.5-5.2-4.5-7.6
			c0-3.7,2.8-6.3,7.2-6.3c1.4,0,2.4,0.1,3.3,0.3c0.7,0.1,0.9,0.2,1.2,0.2c0.3,0,0.4,0.1,0.4,0.2s-0.1,1.3-0.1,3.7
			c0,0.6-0.1,0.8-0.2,0.8c-0.2,0-0.2-0.2-0.3-0.5c0-0.4-0.2-1.4-0.5-1.8c-0.2-0.4-1.2-1.9-4.4-1.9c-2.4,0-4.3,1.5-4.3,4.1
			c0,2,0.9,3.3,4.3,5.9l1,0.8c4.1,3.3,5.1,5.4,5.1,8.2c0,1.4-0.6,4.1-3,5.8c-1.5,1-3.4,1.5-5.3,1.5
			C221.8,166.7,220.2,166.4,218.8,165.7z"/>
	</g>
	<g>
		<path d="M53.8,122.1c2.9-6.6,9.5-24,10.6-27.5c0.2-0.7,0.4-1.4,0.4-1.9c0-0.4-0.1-0.9-0.6-1.1c-0.6-0.2-1.3-0.2-1.9-0.2
			c-0.3,0-0.5,0-0.5-0.3c0-0.3,0.3-0.4,1.1-0.4c2,0,4.3,0.1,4.9,0.1c0.3,0,2.4-0.1,3.9-0.1c0.5,0,0.8,0.1,0.8,0.3
			c0,0.2-0.2,0.3-0.6,0.3c-0.3,0-1.4,0-2.4,0.6c-0.6,0.4-1.4,1.3-2.7,4.7c-0.5,1.4-3,7.3-5.6,13.4c-3,7.2-5.3,12.6-6.4,15
			c-1.4,3-1.6,3.8-2.1,3.8c-0.6,0-0.8-0.7-1.8-3.1L38.8,95.4c-1.1-2.8-1.8-3.3-3.6-3.8c-0.7-0.2-1.6-0.2-1.9-0.2
			c-0.3,0-0.4-0.1-0.4-0.3c0-0.3,0.5-0.3,1.3-0.3c2.4,0,5.2,0.1,5.8,0.1c0.5,0,2.7-0.1,4.6-0.1c0.9,0,1.3,0.1,1.3,0.3
			c0,0.2-0.1,0.3-0.5,0.3c-0.5,0-1.4,0-1.9,0.2c-0.5,0.2-0.6,0.6-0.6,1c0,0.6,0.6,2.2,1.3,4.1L53.8,122.1z"/>
		<path d="M90.5,113.8c0,4.8,0,8.7,0.2,10.8c0.1,1.4,0.4,2.5,1.9,2.7c0.7,0.1,1.8,0.2,2.2,0.2c0.3,0,0.4,0.1,0.4,0.3
			c0,0.2-0.2,0.4-0.8,0.4c-2.7,0-5.9-0.1-6.1-0.1c-0.2,0-3.4,0.1-4.9,0.1c-0.5,0-0.8-0.1-0.8-0.4c0-0.1,0.1-0.3,0.4-0.3
			c0.4,0,1-0.1,1.5-0.2c1-0.2,1.2-1.3,1.4-2.7c0.2-2.1,0.2-6,0.2-10.8V105c0-7.7,0-9.1-0.1-10.7c-0.1-1.7-0.6-2.5-1.7-2.8
			c-0.5-0.1-1.2-0.2-1.5-0.2c-0.2,0-0.4-0.1-0.4-0.3c0-0.3,0.2-0.4,0.8-0.4c1.6,0,4.8,0.1,5,0.1c0.2,0,3.4-0.1,4.9-0.1
			c0.5,0,0.8,0.1,0.8,0.4c0,0.2-0.2,0.3-0.4,0.3c-0.3,0-0.6,0-1.2,0.1c-1.3,0.2-1.7,1.1-1.8,2.8c-0.1,1.6-0.1,3-0.1,10.7V113.8z"/>
		<path d="M111.2,105c0-7.7,0-9.1-0.1-10.7c-0.1-1.7-0.5-2.5-2.1-2.8c-0.4-0.1-1.2-0.1-1.7-0.1c-0.2,0-0.4-0.1-0.4-0.3
			c0-0.3,0.2-0.4,0.8-0.4c2.2,0,5.2,0.1,5.5,0.1c0.4,0,3.3-0.1,4.8-0.1c0.5,0,0.8,0.1,0.8,0.4c0,0.2-0.2,0.3-0.4,0.3
			c-0.3,0-0.6,0-1.2,0.1c-1.3,0.2-1.7,1.1-1.8,2.8c-0.1,1.6-0.1,3-0.1,10.7v3h0.2c0.8-0.9,9.8-10.1,11.6-12c1.4-1.4,2.7-2.7,2.7-3.6
			c0-0.6-0.2-0.9-0.6-1c-0.2-0.1-0.4-0.2-0.4-0.4c0-0.2,0.2-0.3,0.6-0.3c1,0,2.5,0.1,3.7,0.1c0.2,0,3.5-0.1,4.8-0.1
			c0.5,0,0.7,0.1,0.7,0.3c0,0.2-0.1,0.3-0.5,0.3c-0.7,0-1.8,0.2-2.8,0.7c-2,0.9-3.1,2.1-5.4,4.3c-1.2,1.2-9.9,9.6-10.9,10.9
			c1.3,1.4,11.6,12.1,13.6,14c4.2,3.9,5,4.7,7.4,5.7c1.3,0.5,2.7,0.6,3.1,0.6c0.3,0,0.6,0.1,0.6,0.3c0,0.2-0.2,0.4-1.1,0.4h-2.5
			c-1.4,0-2.3,0-3.4-0.1c-2.6-0.2-3.9-1.3-6-3c-2.2-1.8-12.7-13.2-15.1-16.1h-0.2v4.9c0,4.8,0,8.7,0.2,10.8c0.1,1.4,0.4,2.5,1.9,2.7
			c0.7,0.1,1.5,0.2,1.9,0.2c0.3,0,0.4,0.1,0.4,0.3c0,0.2-0.2,0.4-0.8,0.4c-2.4,0-5.3-0.1-5.7-0.1c-0.4,0-3.3,0.1-4.8,0.1
			c-0.5,0-0.8-0.1-0.8-0.4c0-0.1,0.1-0.3,0.4-0.3c0.4,0,1-0.1,1.5-0.2c1-0.2,1.2-1.3,1.4-2.7c0.2-2.1,0.2-6,0.2-10.8V105z"/>
		<path d="M159.5,113.8c0,4.8,0,8.7,0.2,10.8c0.1,1.4,0.4,2.5,1.9,2.7c0.7,0.1,1.8,0.2,2.2,0.2c0.3,0,0.4,0.1,0.4,0.3
			c0,0.2-0.2,0.4-0.8,0.4c-2.7,0-5.9-0.1-6.1-0.1s-3.4,0.1-4.9,0.1c-0.5,0-0.8-0.1-0.8-0.4c0-0.1,0.1-0.3,0.4-0.3
			c0.4,0,1-0.1,1.5-0.2c1-0.2,1.2-1.3,1.4-2.7c0.2-2.1,0.2-6,0.2-10.8V105c0-7.7,0-9.1-0.1-10.7c-0.1-1.7-0.6-2.5-1.7-2.8
			c-0.5-0.1-1.2-0.2-1.5-0.2c-0.2,0-0.4-0.1-0.4-0.3c0-0.3,0.2-0.4,0.8-0.4c1.6,0,4.8,0.1,5,0.1s3.4-0.1,4.9-0.1
			c0.5,0,0.8,0.1,0.8,0.4c0,0.2-0.2,0.3-0.4,0.3c-0.3,0-0.6,0-1.2,0.1c-1.3,0.2-1.7,1.1-1.8,2.8c-0.1,1.6-0.1,3-0.1,10.7V113.8z"/>
		<path d="M182,121.4c0.1,4.1,0.6,5.4,1.9,5.8c0.9,0.2,2,0.3,2.5,0.3c0.2,0,0.4,0.1,0.4,0.3c0,0.3-0.3,0.4-0.9,0.4
			c-2.8,0-4.8-0.1-5.3-0.1c-0.4,0-2.5,0.1-4.8,0.1c-0.5,0-0.8,0-0.8-0.4c0-0.2,0.1-0.3,0.4-0.3c0.4,0,1.3,0,2-0.3
			c1.2-0.3,1.5-1.8,1.5-6.3l0-28.4c0-1.9,0.1-2.5,0.5-2.5c0.4,0,1.2,1.1,1.7,1.6c0.7,0.8,8.1,8.8,15.8,17
			c4.9,5.3,10.3,11.3,11.9,12.9l-0.5-25.2c0-3.2-0.4-4.3-1.9-4.7c-0.9-0.2-2-0.2-2.4-0.2c-0.3,0-0.4-0.1-0.4-0.3
			c0-0.3,0.4-0.3,1-0.3c2.2,0,4.6,0.1,5.2,0.1c0.5,0,2.2-0.1,4.2-0.1c0.5,0,0.9,0,0.9,0.3c0,0.2-0.2,0.3-0.5,0.3
			c-0.2,0-0.6,0-1.2,0.1c-1.6,0.3-1.8,1.4-1.8,4.4l-0.1,29.1c0,3.3-0.1,3.5-0.4,3.5c-0.4,0-1-0.5-3.6-3.2
			c-0.5-0.5-7.7-7.8-12.9-13.4c-5.8-6.2-11.4-12.4-12.9-14.2L182,121.4z"/>
		<path d="M253.4,115.5c0-4-0.2-4.6-2.2-5.1c-0.4-0.1-1.2-0.2-1.7-0.2c-0.2,0-0.4-0.1-0.4-0.3c0-0.3,0.2-0.4,0.8-0.4
			c2.2,0,5.4,0.1,5.6,0.1c0.2,0,3.4-0.1,4.9-0.1c0.5,0,0.8,0.1,0.8,0.4c0,0.2-0.2,0.3-0.4,0.3c-0.3,0-0.6,0.1-1.2,0.2
			c-1.3,0.2-1.7,1.1-1.8,2.8c-0.1,1.6-0.1,3.1-0.1,5.2v5.6c0,2.2,0,2.3-0.6,2.7c-3.2,1.7-7.6,2.2-10.5,2.2c-3.8,0-10.8-0.5-16.3-5.3
			c-3-2.6-5.9-7.9-5.9-14.1c0-7.9,3.9-13.5,8.3-16.3c4.5-2.8,9.4-3.1,13.2-3.1c3.1,0,6.6,0.6,7.6,0.8c1,0.2,2.8,0.4,4,0.5
			c0.5,0,0.6,0.2,0.6,0.4c0,0.7-0.3,2.1-0.3,7c0,0.8-0.1,1-0.4,1c-0.2,0-0.3-0.3-0.3-0.7c-0.1-0.7-0.3-2.1-1-3.3
			c-1.2-1.9-5.3-4-11.7-4c-3.1,0-6.8,0.3-10.6,3.3c-2.9,2.3-4.9,6.8-4.9,12.6c0,7,3.5,12.1,5.3,13.7c3.9,3.8,8.4,5.3,13,5.3
			c1.8,0,4.4-0.3,5.7-1c0.6-0.3,1-0.9,1-1.7V115.5z"/>
	</g>
	<g>
		<path d="M293.4,182.5c1.8,0,3.3,1.5,3.3,3.4c0,1.9-1.5,3.4-3.3,3.4c-1.8,0-3.3-1.5-3.3-3.4C290,184,291.5,182.5,293.4,182.5
			L293.4,182.5z M293.4,183c-1.5,0-2.7,1.3-2.7,2.8c0,1.6,1.2,2.9,2.7,2.9c1.5,0,2.7-1.3,2.7-2.8C296.1,184.3,294.9,183,293.4,183
			L293.4,183z M292.8,187.8h-0.6V184c0.3,0,0.6-0.1,1.1-0.1c0.6,0,0.9,0.1,1.2,0.3c0.2,0.2,0.3,0.4,0.3,0.8c0,0.5-0.3,0.8-0.7,0.9v0
			c0.3,0.1,0.6,0.4,0.6,0.9c0.1,0.6,0.2,0.8,0.2,0.9h-0.6c-0.1-0.1-0.2-0.5-0.3-1c-0.1-0.5-0.3-0.7-0.8-0.7h-0.4V187.8z
			 M292.8,185.7h0.4c0.5,0,0.9-0.2,0.9-0.6c0-0.3-0.2-0.7-0.9-0.7c-0.2,0-0.3,0-0.4,0V185.7z"/>
		<g>
			<path d="M10.9,182.3c0.7-2.3,0.7-2.6-0.5-2.8l-0.5-0.1c-0.1-0.2-0.1-0.5,0.1-0.6c0.4,0,0.8,0,1.3,0c0.4,0,0.9,0,1.4,0h4.5
				c1.5,0,2.7,0,3.4-0.1c-0.2,0.4-0.7,2.3-1,3.2c-0.1,0.2-0.5,0.2-0.6,0c0.1-1.2,0.2-1.8-0.8-2.1c-0.6-0.1-1.3-0.2-2.5-0.2h-1.4
				c-0.6,0-0.7,0.1-0.9,0.8l-1.5,4.9c-0.2,0.7-0.2,0.7,0.4,0.7h1.2c2.3,0,2.8-0.1,3.3-1.2l0.4-0.7c0.1-0.2,0.6-0.1,0.6,0
				c-0.2,0.4-0.5,1.4-0.8,2.3c-0.3,0.9-0.5,1.8-0.6,2.3c-0.1,0.2-0.5,0.2-0.6,0v-0.7c0-1.2-0.6-1.3-2.5-1.3H12c-0.7,0-0.7,0-0.9,0.7
				l-1,3.2c-0.4,1.3-0.6,2.2-0.4,2.6c0.2,0.3,0.6,0.5,2.7,0.5c2.6,0,3.6-0.1,5.1-2.5c0.2-0.1,0.5-0.1,0.6,0.1
				c-0.2,0.7-1,2.5-1.7,3.2c-0.8,0-1.7,0-2.7,0c-0.9,0-1.9,0-2.8,0H8c-1,0-1.8,0-2.9,0.1c-0.2-0.1-0.2-0.5,0-0.6l0.8-0.1
				c1.2-0.1,1.4-0.4,2.2-2.9L10.9,182.3z"/>
			<path d="M22.1,187.7c-0.3-0.7-0.4-1.1-0.7-1.1c-0.4,0-0.8,0.7-1.1,1.2c-0.2,0.1-0.5,0-0.4-0.3c0.4-1.3,1.6-2.6,2.2-2.6
				c0.4,0,0.7,0.3,1.1,1.2l1,2.8c0.2-0.2,0.4-0.6,1.6-2c1.2-1.4,1.9-2.1,2.7-2.1c0.6,0,1,0.6,1,1.1c0,0.8-0.6,1.4-1,1.4
				c-0.2,0-0.3-0.1-0.3-0.4c-0.1-0.3-0.3-0.6-0.5-0.6c-0.4,0-1.1,0.7-3.2,3.3l0.9,2.3c0.3,0.8,0.6,1.4,0.9,1.4
				c0.3,0,0.7-0.7,1.1-1.4c0.2-0.2,0.5-0.1,0.5,0.1c-0.3,1.6-1.2,3-2.1,3c-0.6,0-1-0.7-1.4-1.7l-0.9-2.3c-0.4,0.4-1.1,1.3-1.8,2.1
				c-1.4,1.6-2.1,1.9-2.6,1.9c-0.6,0-0.9-0.4-0.9-0.9c0-0.5,0.3-1.1,0.7-1.4c0.3-0.2,0.4-0.3,0.5-0.3c0.1,0,0.2,0.2,0.2,0.3
				c0.1,0.4,0.2,0.7,0.4,0.7c0.2,0,0.5-0.3,1-0.7c0.7-0.7,1.3-1.5,2.1-2.4L22.1,187.7z"/>
			<path d="M34.7,185.3c0.2,0,0.5,0,0.9,0c1.1,0,3.3,0.5,3.3,2.7c0,2.2-1.3,4.2-3.2,5.7c-1.5,1.3-3.3,1.4-3.4,1.4
				c-0.2,0-0.4,0-0.7-0.1c-0.2,0-0.3,0.2-0.4,0.4l-1,2.8c-0.6,1.8-0.6,2.1,0.2,2.2l1,0.1c0.1,0.2,0.1,0.4-0.1,0.5
				c-1.8,0-3.6,0.1-5.2,0.1c-0.2-0.1-0.2-0.4,0-0.5l0.5-0.1c1.3-0.2,1.4-0.8,1.8-1.8l4.5-12.5c-0.9,0.2-1.4,0.5-2.4,1
				c-0.2,0-0.3-0.2-0.2-0.5c0.8-0.6,1.8-1,3-1.3l0.7-1.9c0.3-0.3,1.3,0,1.4,0.3L34.7,185.3z M32,193c-0.1,0.3-0.1,0.5,0,0.6
				c0.1,0.2,0.5,0.6,0.9,0.6c0.3,0,1.7-0.3,2.7-1.9c1.2-1.8,1.4-3.5,1.4-4.5c0-1.2-0.9-1.8-1.9-1.8c-0.3,0-0.5,0-0.6,0L32,193z"/>
			<path d="M42.2,193.2c-0.2,0.6-0.2,0.8,0.1,0.8c0.5,0,1.7-1.2,2.8-2.4c0.2,0,0.4,0.1,0.4,0.3c-0.6,1.2-2.1,3.2-4.1,3.2
				c-0.7,0-0.9-0.3-0.9-0.7c0-0.4,0.1-0.8,0.5-2l3.8-11.4c0.6-1.7,0.3-1.9,0-2.1l-0.4-0.2c-0.1-0.1-0.1-0.3,0-0.4
				c0.4-0.2,1.9-0.6,3-0.7l0.1,0.1c-0.3,0.9-0.6,1.5-1.4,4.1L42.2,193.2z"/>
			<path d="M54.6,188c-0.1,1.3-0.8,3.6-2.5,5.4c-1.5,1.5-2.8,1.7-3.4,1.7c-1.5,0-2.5-1.1-2.4-3.2c0.1-1.5,1-3.8,2.6-5.4
				c1.2-1.2,2.3-1.6,3.3-1.6C53.9,184.9,54.7,186.2,54.6,188z M50.3,186.8c-1.4,1.9-2.3,4.7-2.4,6c0,0.8,0.3,1.5,1,1.5
				c0.5,0,1.1-0.2,1.9-1.2c1.1-1.4,2.2-4.6,2.2-5.9c0-0.7-0.1-1.6-1-1.6C51.5,185.7,50.9,185.9,50.3,186.8z"/>
			<path d="M59.9,187.2l-1,3H59c0.7-1.3,1.9-3.3,2.5-4.1c0.6-0.7,1.2-1.2,1.8-1.2c0.8,0,1,0.8,1,1.2c0,0.4-0.2,1.1-0.5,1.4
				c-0.3,0.4-0.7,0.4-0.8-0.1c-0.1-0.6-0.3-0.9-0.5-0.9c-0.2,0-0.5,0.2-0.8,0.7c-1.5,1.9-2.8,4.8-4.1,7.6c-0.1,0.2-0.2,0.3-0.4,0.3
				c-0.3,0-1-0.1-0.8-0.6c0.3-1,1.8-5.2,2.5-7.6c0.1-0.3,0-0.5-0.2-0.5c-0.6,0-1.3,0.7-1.7,1.2c-0.2,0-0.4-0.1-0.4-0.4
				c0.8-1.3,1.7-2.3,2.8-2.3C60.6,184.9,60.2,186.6,59.9,187.2z"/>
			<path d="M67.3,186.9c0.1-0.3,0.1-0.5,0-0.5s-0.8,0.3-2,1.3c-0.2,0-0.4-0.2-0.3-0.4c1.3-1.5,3.2-2.4,4-2.4c0.2,0,0.3,0.1,0.4,0.2
				c0.1,0.1,0.1,0.4-0.1,1.1l-2.9,6.8c-0.1,0.2-0.1,0.5,0.1,0.5c0.4,0,1.7-0.8,2.5-1.8c0.2,0,0.4,0.2,0.4,0.4
				c-0.4,0.7-2.8,2.9-4.5,2.9c-0.1,0-0.3-0.1-0.4-0.2c-0.1-0.2-0.2-0.4-0.1-0.6L67.3,186.9z M70.4,180.1c0,0.7-0.5,1.5-1.3,1.5
				c-0.6,0-0.9-0.5-0.9-0.9c0-0.5,0.4-1.5,1.3-1.5C70.1,179.2,70.4,179.6,70.4,180.1z"/>
			<path d="M74,190.1L74,190.1c1.8-2.5,4.2-5.2,6-5.2c0.9,0,1.3,0.5,1.3,1.3c0,0.4-0.2,1.1-0.4,1.7c-0.4,1.2-2.2,5.1-2.2,5.3
				c-0.1,0.2-0.1,0.5,0,0.5c0.4,0,1.6-0.8,2.3-1.6c0.3,0,0.4,0.1,0.4,0.3c-0.9,1.5-2.8,2.7-4.1,2.7c-0.2,0-0.6-0.3-0.6-0.6
				c0-0.2,0.1-0.4,0.6-1.6c0.5-1.2,1.4-3.5,1.9-4.7c0.2-0.4,0.5-1.3,0.5-1.8c0-0.3,0-0.6-0.4-0.6c-0.6,0-2,1.2-3.3,2.9
				c-1.3,1.6-2.3,3.5-3.7,6.1c-0.1,0.2-0.2,0.3-0.4,0.3c-0.3,0-0.9-0.1-0.7-0.6c0.1-0.3,2.7-7.2,2.8-7.6c0.1-0.3,0.1-0.6-0.1-0.6
				c-0.6,0-1.4,0.5-2.2,1.2c-0.2,0-0.3-0.2-0.3-0.4c0.9-1.2,2.4-2.2,3.6-2.2c0.6,0,0.8,0.4,0.6,1L74,190.1z"/>
			<path d="M89.4,185.1c0.3,0.1,0.5,0.2,0.6,0.2c0.2,0,0.7,0,1.2-0.1c0.5-0.1,0.9-0.2,1.1-0.2c0.3,0,0.5,0.2,0.5,0.6
				c0,0.6-0.3,0.7-0.5,0.7c-0.2,0-0.6-0.1-0.8-0.1c-0.2-0.1-0.7-0.1-0.9-0.1c-0.1,0-0.2,0.1-0.2,0.1c0,0.2,0.2,0.6,0.2,0.9
				c0,1.9-1.4,3.8-3,4.8c-0.3,0.2-1.2,0.5-1.7,0.6c-0.3,0.1-0.5,0.5-0.5,0.8c0,0.3,0.2,0.7,0.8,1.1c0.6,0.4,1.5,0.9,2.4,1.4
				c1.4,0.8,1.8,1.6,1.8,2.3c0,1.3-1.9,2.9-5.9,2.9c-1.8,0-3.8-0.7-3.8-2.3c0-1.8,2.8-3,4.1-3.4c-0.6-0.4-0.8-0.8-0.8-1.1
				c0-0.4,0.7-1.4,1.1-1.8c-0.5-0.1-1.8-0.6-1.8-2.2c0-1.3,0.7-3,1.9-4c1.2-1,2.3-1.4,3.6-1.4C88.9,184.9,89.1,185.1,89.4,185.1z
				 M88.5,198.8c0-0.4-0.3-0.9-1-1.5c-1-0.7-1.8-1.2-2.2-1.2c-0.6-0.1-1.5,0.4-2.2,0.9c-0.6,0.5-0.9,1-0.9,1.6
				c0,1.1,1.6,1.8,3.2,1.8C86.5,200.4,88.5,199.9,88.5,198.8z M86.7,186.6c-0.9,1.1-2.2,3.2-2.2,4.4c0,0.5,0.3,0.8,0.7,0.8
				c0.3,0,0.9-0.1,1.6-0.9c1.3-1.6,2.2-3.7,2.2-4.5c0-0.5-0.4-0.8-0.7-0.8C87.9,185.6,87.5,185.8,86.7,186.6z"/>
			<path d="M102.4,186.4l-2.2,6.3c-0.1,0.5,0,0.6,0.2,0.6c0.4,0,1.9-1.2,2.7-2.2c0.2,0,0.4,0.1,0.3,0.4c-1.3,2-3.6,3.5-4.6,3.5
				c-0.3,0-0.6-0.4-0.6-0.6c0-0.3,0.1-0.6,0.3-1.4l2.3-6.6h-1.9c0-0.2,0-0.6,0.3-0.7l1.9-0.3l1.3-2.4c0.2-0.1,0.7-0.1,0.9,0.1
				l-0.7,2.4h2.6c0.2,0.2,0,0.7-0.3,0.9H102.4z"/>
			<path d="M111.8,177.7c-0.5,1.3-1.2,3.5-1.7,4.9l-2.5,7.2l0,0c1.7-2.4,2.9-3.3,3.8-4c0.9-0.6,1.6-0.9,2.3-0.9
				c1.1,0,1.4,0.8,1.4,1.6c0,1.7-1,4.1-1.9,5.6c-0.5,0.8-0.9,1.3-1.6,2c-0.8,0.8-1.4,0.9-1.8,0.9c-0.8,0-0.9-0.5-0.9-0.7
				c0-0.4,0.3-0.8,0.6-0.8c0.1,0,0.2,0,0.3,0.1c0.2,0.1,0.5,0.3,0.6,0.3c0.4,0,0.6-0.4,1-1.2c0.6-1.6,1.7-4.9,1.7-6.2
				c0-0.5-0.2-0.7-0.5-0.7c-0.3,0-0.8,0.3-1.3,0.6c-1,0.8-1.8,1.6-3,3.2c-1.1,1.4-2.3,3.8-2.9,5c-0.1,0.2-0.2,0.3-0.4,0.3
				c-0.3,0-0.9-0.1-0.7-0.6l4.6-13.5c0.5-1.6,0.6-1.9,0.3-2.2l-0.5-0.3c0-0.1,0-0.2,0.1-0.3c0.4-0.2,2-0.5,2.8-0.6L111.8,177.7z"/>
			<path d="M124.1,186.4c0,1.8-2.4,3-5.8,4c-0.2,0.4-0.3,1.2-0.3,2.1c0,0.8,0.5,1.4,1.2,1.4c0.9,0,1.5-0.5,2.5-1.4
				c0.2,0,0.4,0.2,0.3,0.4c-1.5,1.8-2.8,2.2-3.8,2.2c-1.4,0-1.9-1.3-1.9-2.5c0-1.5,1-4.4,3.6-6.5c1.2-1,2.2-1.2,2.9-1.2
				C123.6,184.9,124.1,185.7,124.1,186.4z M120.3,186.8c-0.9,1-1.5,2.1-1.8,2.8c1.6-0.5,2.3-0.9,3.2-1.8c0.7-0.7,0.9-1.4,0.9-1.6
				c0-0.2-0.1-0.6-0.6-0.6C121.8,185.7,121.2,185.9,120.3,186.8z"/>
			<path d="M132.7,181.2c-0.2-1.1-0.1-1.5-1.1-1.7l-0.5-0.1c-0.2-0.1-0.1-0.5,0.1-0.6c0.8,0,1.5,0.1,2.3,0.1c0.9,0,1.7,0,2.5-0.1
				c0.2,0.1,0.2,0.5,0,0.6l-0.9,0.1c-0.6,0.1-0.8,0.4-0.7,1.4l1.3,9.1c0.2,1.5,0.3,1.9,0.4,2c0.2-0.1,0.4-0.4,1.5-2l1.6-2.2
				c0.4-0.5,0.5-0.7,0.4-1.3l-0.8-5.5c-0.2-1-0.3-1.3-1.1-1.4l-0.6-0.1c-0.1-0.1-0.1-0.5,0.1-0.6c0.6,0,1.5,0.1,2.4,0.1
				c1,0,1.8,0,2.4-0.1c0.1,0.1,0.2,0.5,0,0.6l-0.8,0.1c-0.6,0.1-0.8,0.3-0.7,1.3l0.6,4.5l0.4-0.6l0.8-1.2c1.1-1.6,2-3.1,2.2-3.4
				c0.2-0.3-0.1-0.5-0.5-0.6l-0.6-0.1c-0.2-0.1-0.1-0.5,0.1-0.6c0.7,0,1.4,0.1,2.1,0.1c0.7,0,1.5,0,2-0.1c0.2,0.1,0.1,0.5,0,0.6
				l-0.5,0.1c-1,0.2-1.2,0.4-2.2,1.7c-1,1.2-2.8,3.8-3.3,4.5c-0.3,0.4-0.5,0.5-0.4,1.1l0.5,3.1c0.2,1.6,0.3,1.9,0.4,2
				c0.1-0.1,0.3-0.3,1.2-1.7c0.5-0.8,4.8-7.2,5.7-8.9c1-1.8,1.1-1.8,0.2-1.9l-0.5-0.1c-0.1-0.1-0.1-0.5,0.1-0.6
				c0.8,0,1.5,0.1,2.2,0.1c0.8,0,1.5,0,2-0.1c0.1,0.1,0.2,0.5,0,0.6l-0.6,0.1c-1.2,0.2-2.1,1.8-2.7,2.7l-3.7,5.5
				c-1.7,2.4-3.2,4.9-4.8,7.4c-0.1,0-0.2,0.1-0.3,0.1c-0.1,0-0.2,0-0.3-0.1c-0.2-2-0.5-4-0.8-5.9l-0.1-0.9l-3.2,4.6
				c-0.5,0.8-1,1.4-1.4,2.2c-0.1,0-0.2,0.1-0.3,0.1c-0.1,0-0.2,0-0.3-0.1c0-0.7-0.4-3.2-0.5-4.4L132.7,181.2z"/>
			<path d="M156.6,188c-0.1,1.3-0.8,3.6-2.5,5.4c-1.5,1.5-2.8,1.7-3.4,1.7c-1.5,0-2.5-1.1-2.4-3.2c0.1-1.5,1-3.8,2.6-5.4
				c1.2-1.2,2.3-1.6,3.3-1.6C155.9,184.9,156.7,186.2,156.6,188z M152.3,186.8c-1.4,1.9-2.3,4.7-2.4,6c0,0.8,0.3,1.5,1,1.5
				c0.5,0,1.1-0.2,1.9-1.2c1.1-1.4,2.2-4.6,2.2-5.9c0-0.7-0.1-1.6-1-1.6C153.5,185.7,153,185.9,152.3,186.8z"/>
			<path d="M162,187.2l-1,3h0.1c0.7-1.3,1.9-3.3,2.5-4.1c0.6-0.7,1.2-1.2,1.8-1.2c0.8,0,1,0.8,1,1.2c0,0.4-0.2,1.1-0.5,1.4
				c-0.3,0.4-0.7,0.4-0.8-0.1c-0.1-0.6-0.3-0.9-0.5-0.9c-0.2,0-0.5,0.2-0.8,0.7c-1.5,1.9-2.8,4.8-4.1,7.6c-0.1,0.2-0.2,0.3-0.4,0.3
				c-0.3,0-1-0.1-0.8-0.6c0.3-1,1.8-5.2,2.5-7.6c0.1-0.3,0-0.5-0.2-0.5c-0.6,0-1.3,0.7-1.7,1.2c-0.2,0-0.4-0.1-0.4-0.4
				c0.8-1.3,1.7-2.3,2.8-2.3C162.6,184.9,162.2,186.6,162,187.2z"/>
			<path d="M167.7,193.2c-0.2,0.6-0.2,0.8,0.1,0.8c0.5,0,1.7-1.2,2.8-2.4c0.2,0,0.4,0.1,0.4,0.3c-0.6,1.2-2.1,3.2-4.1,3.2
				c-0.7,0-0.9-0.3-0.9-0.7c0-0.4,0.1-0.8,0.5-2l3.8-11.4c0.6-1.7,0.3-1.9,0-2.1l-0.4-0.2c-0.1-0.1-0.1-0.3,0-0.4
				c0.4-0.2,1.9-0.6,3-0.7l0.1,0.1c-0.3,0.9-0.6,1.5-1.4,4.1L167.7,193.2z"/>
			<path d="M181.8,180.7c0.5-1.3,0.6-1.8,0.2-2l-0.6-0.4c0-0.1,0-0.2,0.1-0.3c0.5-0.2,1.8-0.5,2.8-0.5l0.1,0.1
				c-0.4,1.3-0.8,2.3-1.5,4.2c-2.4,6.6-3.5,10.4-3.7,11.1c-0.1,0.3-0.1,0.6,0.1,0.6c0.4,0,1.9-1.2,2.6-2.2c0.2,0,0.3,0.1,0.4,0.3
				c-0.6,1.3-2.8,3.3-4.1,3.3c-0.5,0-0.8-0.4-0.8-0.8c0-0.3,0.1-0.7,0.3-1.4l0.8-2.4l-0.1,0c-1.7,2.2-3.5,4.5-5.8,4.5
				c-0.9,0-1.4-0.8-1.4-1.7c0-1.7,1.3-4.6,3.2-6.3c1.6-1.5,3.1-2.1,4.3-2.1c0.4,0,1,0.2,1.2,0.7L181.8,180.7z M177,186.7
				c-1,0.9-2.7,3.2-3.4,4.7c-0.7,1.5-0.7,2-0.7,2.3c0,0.3,0.2,0.5,0.5,0.5c0.4,0,1.6-0.4,3.2-2.1c1.9-1.9,2.6-3.4,2.9-4.6
				c0.3-1,0-1.7-0.6-1.7C178.2,185.7,177.6,186.1,177,186.7z"/>
			<path d="M192.4,186.9c0.1-0.3,0.1-0.5,0-0.5c-0.2,0-0.8,0.3-2,1.3c-0.2,0-0.4-0.2-0.3-0.4c1.3-1.5,3.2-2.4,4-2.4
				c0.2,0,0.3,0.1,0.4,0.2c0.1,0.1,0.1,0.4-0.1,1.1l-2.9,6.8c-0.1,0.2-0.1,0.5,0.1,0.5c0.4,0,1.7-0.8,2.5-1.8c0.2,0,0.4,0.2,0.4,0.4
				c-0.4,0.7-2.8,2.9-4.5,2.9c-0.1,0-0.3-0.1-0.4-0.2c-0.1-0.2-0.2-0.4-0.1-0.6L192.4,186.9z M195.4,180.1c0,0.7-0.5,1.5-1.3,1.5
				c-0.6,0-0.9-0.5-0.9-0.9c0-0.5,0.4-1.5,1.3-1.5C195.1,179.2,195.4,179.6,195.4,180.1z"/>
			<path d="M199,190.1L199,190.1c1.8-2.5,4.2-5.2,6-5.2c0.9,0,1.3,0.5,1.3,1.3c0,0.4-0.2,1.1-0.4,1.7c-0.4,1.2-2.2,5.1-2.2,5.3
				c-0.1,0.2-0.1,0.5,0,0.5c0.4,0,1.6-0.8,2.3-1.6c0.3,0,0.4,0.1,0.4,0.3c-0.9,1.5-2.8,2.7-4.1,2.7c-0.2,0-0.6-0.3-0.6-0.6
				c0-0.2,0.1-0.4,0.6-1.6c0.5-1.2,1.4-3.5,1.9-4.7c0.2-0.4,0.5-1.3,0.5-1.8c0-0.3,0-0.6-0.4-0.6c-0.6,0-2,1.2-3.3,2.9
				c-1.3,1.6-2.3,3.5-3.7,6.1c-0.1,0.2-0.2,0.3-0.4,0.3c-0.3,0-0.9-0.1-0.7-0.6c0.1-0.3,2.7-7.2,2.8-7.6c0.1-0.3,0.1-0.6-0.1-0.6
				c-0.6,0-1.4,0.5-2.2,1.2c-0.2,0-0.3-0.2-0.3-0.4c0.9-1.2,2.4-2.2,3.6-2.2c0.6,0,0.8,0.4,0.6,1L199,190.1z"/>
			<path d="M230.6,179.3c-0.4,0.9-0.9,2.3-1.1,3.2c-0.1,0.2-0.6,0.2-0.6,0c0.5-2.1-0.1-3.2-2.6-3.2c-1.7,0-3.9,0.5-6.1,2.7
				c-1.2,1.2-2.8,4-2.8,7.2c0,3.4,1.6,5.3,4.7,5.3c2.5,0,4-1.5,5.2-3.4c0.2-0.1,0.5,0,0.6,0.2c-0.2,0.6-0.7,1.9-1.6,3.4
				c-0.5,0-1.2,0.1-1.9,0.3c-0.7,0.1-1.5,0.3-2.3,0.3c-3.1,0-6.7-1.4-6.7-6.5c0-2.8,1.5-5.4,3.4-7.2c2-1.8,4.9-2.9,8.1-2.9
				C228.6,178.5,230,179,230.6,179.3z"/>
			<path d="M237.8,188c-0.1,1.3-0.8,3.6-2.5,5.4c-1.5,1.5-2.8,1.7-3.4,1.7c-1.5,0-2.5-1.1-2.4-3.2c0.1-1.5,1-3.8,2.6-5.4
				c1.2-1.2,2.3-1.6,3.3-1.6C237,184.9,237.9,186.2,237.8,188z M233.4,186.8c-1.4,1.9-2.3,4.7-2.4,6c0,0.8,0.3,1.5,1,1.5
				c0.5,0,1.1-0.2,1.9-1.2c1.1-1.4,2.2-4.6,2.2-5.9c0-0.7-0.1-1.6-1-1.6C234.7,185.7,234.1,185.9,233.4,186.8z"/>
			<path d="M248.8,188.1l-0.9,2.2l0.1,0c2.3-3.7,4.1-5.4,5.7-5.4c0.9,0,1.3,0.5,1.3,1.3c0,0.4-0.2,1.1-0.4,1.7
				c-0.4,1.2-2.2,5.1-2.2,5.3c-0.1,0.2-0.1,0.5,0,0.5c0.4,0,1.6-0.8,2.3-1.6c0.3,0,0.4,0.1,0.4,0.3c-0.9,1.5-2.8,2.7-4.1,2.7
				c-0.2,0-0.6-0.3-0.6-0.6c0-0.2,0.1-0.4,0.6-1.6c0.5-1.2,1.5-3.5,1.9-4.7c0.2-0.4,0.5-1.3,0.5-1.8c0-0.3,0-0.6-0.4-0.6
				c-0.7,0-1.8,1.2-3.1,2.9c-1.2,1.5-2.3,3.4-3.8,6.1c-0.1,0.2-0.2,0.3-0.4,0.3c-0.3,0-0.9-0.1-0.7-0.6l2.4-6.3
				c0.1-0.3,1.1-2.3,0.2-2.3c-0.7,0-2,1.2-3.3,2.9c-1.2,1.6-2.2,3.4-3.6,6.1c-0.1,0.2-0.2,0.3-0.4,0.3c-0.3,0-0.9-0.1-0.7-0.6
				c0.1-0.2,2.6-7.2,2.7-7.6c0.1-0.4,0.1-0.7-0.2-0.7c-0.8,0-1.6,0.7-2.1,1.3c-0.2,0-0.4-0.2-0.3-0.4c0.6-1.2,1.9-2.2,3.7-2.2
				c0.6,0,0.8,0.4,0.6,1l-1.7,4.3l0.1,0c1.7-2.8,4-5.4,5.8-5.4C249.8,184.9,249.3,186.8,248.8,188.1z"/>
			<path d="M261,186.2c-0.1,0.4-0.3,1.2-0.6,1.9c-0.8,2.7-1.5,5.3-2.3,8c-0.7,2.2-1.4,3.5-1.9,3.9c-0.3,0.3-1.3,1.2-2.7,1.2
				c-1.1,0-1.6-0.8-1.6-1.2c0-0.5,0.3-0.7,0.5-0.9c0.3-0.3,0.5-0.1,0.7,0.2c0.3,0.6,1,0.9,1.4,0.9c0.4,0,1-0.4,1.5-2
				c1.2-4,2-8.1,3.2-12h-2c-0.2-0.2-0.1-0.7,0.2-0.9h2.1c0.6-2.2,1.2-4,2.7-5.7c1.2-1.4,2.6-2,4-2c1,0,2,0.6,2,1.6
				c0,0.7-0.6,1.5-1,1.5c-0.2,0-0.3-0.2-0.3-0.4c-0.1-1.4-0.8-1.9-1.5-1.9c-0.7,0-1.3,0.5-1.9,1.3c-1.1,1.6-1.6,3.6-2.3,5.6h3
				c0.2,0.3,0.1,0.6-0.2,0.9H261z"/>
			<path d="M271.3,188c-0.1,1.3-0.8,3.6-2.5,5.4c-1.5,1.5-2.8,1.7-3.4,1.7c-1.5,0-2.5-1.1-2.4-3.2c0.1-1.5,1-3.8,2.6-5.4
				c1.2-1.2,2.3-1.6,3.3-1.6C270.5,184.9,271.4,186.2,271.3,188z M266.9,186.8c-1.4,1.9-2.3,4.7-2.4,6c0,0.8,0.3,1.5,1,1.5
				c0.5,0,1.1-0.2,1.9-1.2c1.1-1.4,2.2-4.6,2.2-5.9c0-0.7-0.1-1.6-1-1.6C268.2,185.7,267.6,185.9,266.9,186.8z"/>
			<path d="M276.6,187.2l-1,3h0.1c0.7-1.3,1.9-3.3,2.5-4.1c0.6-0.7,1.2-1.2,1.8-1.2c0.8,0,1,0.8,1,1.2c0,0.4-0.2,1.1-0.5,1.4
				c-0.3,0.4-0.7,0.4-0.8-0.1c-0.1-0.6-0.3-0.9-0.5-0.9c-0.2,0-0.5,0.2-0.8,0.7c-1.5,1.9-2.8,4.8-4.1,7.6c-0.1,0.2-0.2,0.3-0.4,0.3
				c-0.3,0-1-0.1-0.8-0.6c0.3-1,1.8-5.2,2.5-7.6c0.1-0.3,0-0.5-0.2-0.5c-0.6,0-1.3,0.7-1.7,1.2c-0.2,0-0.4-0.1-0.4-0.4
				c0.8-1.3,1.7-2.3,2.8-2.3C277.2,184.9,276.8,186.6,276.6,187.2z"/>
			<path d="M285.4,186.4l-2.2,6.3c-0.1,0.5,0,0.6,0.2,0.6c0.4,0,1.9-1.2,2.7-2.2c0.2,0,0.4,0.1,0.3,0.4c-1.3,2-3.6,3.5-4.6,3.5
				c-0.3,0-0.6-0.4-0.6-0.6c0-0.3,0.1-0.6,0.3-1.4l2.3-6.6h-1.9c0-0.2,0-0.6,0.3-0.7l1.9-0.3l1.3-2.4c0.2-0.1,0.7-0.1,0.9,0.1
				l-0.7,2.4h2.6c0.2,0.2,0,0.7-0.3,0.9H285.4z"/>
		</g>
	</g>
	<g>
		<g>
			<g>
				<path fill-rule="evenodd" clip-rule="evenodd" fill="#CE1141" d="M113.6,10.7h7.3c20.8,14.8,29.5,23.3,28,30.7
					c-1.8,8.7-12.7,15.1-35.2,25l-3.1-0.2c25.7-10.8,34.9-19.7,33-27C141.6,31.6,133.9,26.3,113.6,10.7L113.6,10.7z"/>
				<path fill-rule="evenodd" clip-rule="evenodd" fill="#CE1141" d="M128.1,10.7l7.2,0c21.5,14.7,27,24.5,23.7,30.4
					c-5.7,10.3-18.9,16.8-39.8,25.2l-3,0.2c22.5-9.7,37.4-18,38.2-27.1C155.1,31.8,148.5,26.1,128.1,10.7L128.1,10.7z"/>
				<path fill-rule="evenodd" clip-rule="evenodd" fill="#CE1141" d="M142.5,10.7h7.2c20.8,14.7,24.1,23.7,19.6,30.6
					c-6.8,10.5-22.4,16.8-44,25.1h-3.2c27-11.1,38.4-17.4,42-25.4C168.5,31.7,161,24.9,142.5,10.7L142.5,10.7z"/>
				<path fill-rule="evenodd" clip-rule="evenodd" fill="#CE1141" d="M157,10.7h7.2c19.5,16.4,20.3,24.3,16.1,30.2
					c-7.3,10.2-29.6,20.3-49.1,25.5h-3.2c23.5-8.2,39.9-14.3,46.9-25.7C179.8,32.9,174.8,25.6,157,10.7L157,10.7z"/>
				<path fill-rule="evenodd" clip-rule="evenodd" fill="#CE1141" d="M171.4,10.7h7.2c12,12.5,16.3,23.1,12,30.3
					c-8.5,14.4-36.1,21.3-53.7,25.4h-3.2c24-6.5,45.5-14,51.5-25.5C188.7,34.4,186.6,25.7,171.4,10.7L171.4,10.7z"/>
				<path fill-rule="evenodd" clip-rule="evenodd" fill="#CE1141" d="M200.4,26.8c3.9,30.9-25.3,36.5-25.6,36.8
					c-1.9,0.6-6.3,1.7-6.3,1.7c-17.8,3.5-42.5,3.8-55.3,1.8C99.5,65,90.1,60.6,88,52.4c10.3,16.2,59.7,16.3,85.8,8.3
					c16.9-6.1,24.1-16.8,23.9-32.8l0,0c-0.1-1.7-0.1-5.9,1.7-7.9c2.4-2.7,8.3-1.8,8.9,2.2c0.8,5.8-7.2,5.9-6.9,1.2
					c0.2-2.3,3.9-3.2,4.6-0.9c0.5,1.9-1.6,2.6-2.6,1.9c-0.5-0.4-0.6-0.7-0.4-1c0.3-0.3,0.7-0.3,0.9,0c0.1,0.4,0.5,0.5,0.8,0.3
					c0.7-0.4,0.1-1.9-1.3-1.4c-0.8,0.3-1.4,1.9-0.1,2.9c3.1,1.5,4.6-2.3,2.7-4.2c-0.8-0.9-1.7-0.9-2.4-0.8
					C200.6,20.4,200.2,23.6,200.4,26.8"/>
			</g>
			<path fill-rule="evenodd" clip-rule="evenodd" d="M181.6,76.3c0,0,5.3,0.3,13.4-3.5c7.7-3.6,24.1-15.9,8.2-41.5
				c-0.4,4.5-0.4,18.7-14,28.2c-12.7,10.1-67.4,14.8-90,6C89.9,61,88,55.6,88,55.6s1.9,20,10.8,20.5L181.6,76.3z"/>
		</g>
	</g>
	<path d="M205.8,70.2c1.8,0,3.3,1.5,3.3,3.4c0,1.9-1.5,3.4-3.3,3.4c-1.8,0-3.3-1.5-3.3-3.4C202.5,71.7,204,70.2,205.8,70.2
		L205.8,70.2z M205.8,70.7c-1.5,0-2.7,1.3-2.7,2.8c0,1.6,1.2,2.9,2.7,2.9c1.5,0,2.7-1.3,2.7-2.8C208.5,72,207.3,70.7,205.8,70.7
		L205.8,70.7z M205.2,75.6h-0.6v-3.8c0.3,0,0.6-0.1,1.1-0.1c0.6,0,0.9,0.1,1.2,0.3c0.2,0.2,0.3,0.4,0.3,0.8c0,0.5-0.3,0.8-0.7,0.9v0
		c0.3,0.1,0.6,0.4,0.6,0.9c0.1,0.6,0.2,0.8,0.2,0.9h-0.6c-0.1-0.1-0.2-0.5-0.3-1c-0.1-0.5-0.3-0.7-0.8-0.7h-0.4V75.6z M205.2,73.5
		h0.4c0.5,0,0.9-0.2,0.9-0.6c0-0.3-0.2-0.7-0.9-0.7c-0.2,0-0.3,0-0.4,0V73.5z"/>
	<g>
		<rect x="110.7" y="10.1" width="70.5" height="1"/>
		<rect x="148.1" y="4.7" width="1" height="5.8"/>
	</g>
</g>
</svg>
