<?xml version="1.0" encoding="utf-8"?>
<!-- Generator: Adobe Illustrator 18.1.0, SVG Export Plug-In . SVG Version: 6.00 Build 0)  -->
<svg version="1.1" id="logo" xmlns="http://www.w3.org/2000/svg" xmlns:xlink="http://www.w3.org/1999/xlink" x="0px" y="0px"
	 viewBox="0 0 324 252" enable-background="new 0 0 324 252" xml:space="preserve">
<g>
	<g>
		<path fill="#FFFFFF" d="M81.5,186c-3.4-3-4.2-7-4.2-10.4c0-2.3,0.8-6.4,3.9-9.6c2.1-2.1,5.3-3.7,10.7-3.7c1.4,0,3.4,0.1,5.1,0.4
			c1.3,0.2,2.5,0.5,3.6,0.5c0.4,0,0.5,0.2,0.5,0.4c0,0.3-0.1,0.7-0.2,2c-0.1,1.2-0.1,3.1-0.1,3.6c0,0.5-0.1,0.7-0.3,0.7
			c-0.2,0-0.3-0.2-0.3-0.7c0-1.4-0.6-2.8-1.5-3.6c-1.2-1-3.9-2-7-2c-4.7,0-6.8,1.4-8.1,2.6c-2.6,2.5-3.2,5.6-3.2,9.1
			c0,6.7,5.1,12.8,12.6,12.8c2.6,0,4.7-0.3,6.1-1.8c0.7-0.8,1.2-2.3,1.3-2.9c0.1-0.4,0.1-0.5,0.4-0.5c0.2,0,0.2,0.2,0.2,0.5
			c0,0.2-0.4,3.3-0.8,4.5c-0.2,0.7-0.3,0.7-0.9,1c-1.4,0.6-4.1,0.8-6.3,0.8C87.8,189.7,84.3,188.4,81.5,186z"/>
		<path fill="#FFFFFF" d="M111.4,172.9c0-5.5,0-6.4-0.1-7.6c-0.1-1.2-0.4-1.8-1.5-2c-0.3-0.1-0.9-0.1-1.2-0.1
			c-0.1,0-0.3-0.1-0.3-0.2c0-0.2,0.2-0.3,0.6-0.3c1.6,0,3.8,0.1,4,0.1c0.4,0,3-0.1,4.1-0.1c2.2,0,4.6,0.2,6.4,1.5
			c0.9,0.6,2.4,2.3,2.4,4.8c0,2.6-1.1,5.2-4.2,8.1c2.9,3.7,5.3,6.8,7.3,9c1.9,2,3.4,2.4,4.3,2.5c0.7,0.1,1.2,0.1,1.4,0.1
			c0.2,0,0.3,0.1,0.3,0.2c0,0.2-0.2,0.3-0.8,0.3h-2.5c-2,0-2.8-0.2-3.7-0.7c-1.5-0.8-2.7-2.5-4.7-5.1c-1.5-1.9-3.1-4.3-3.8-5.2
			c-0.1-0.1-0.2-0.2-0.5-0.2l-4.3-0.1c-0.2,0-0.2,0.1-0.2,0.3v0.8c0,3.4,0,6.1,0.2,7.6c0.1,1,0.3,1.8,1.4,1.9
			c0.5,0.1,1.3,0.1,1.6,0.1c0.2,0,0.3,0.1,0.3,0.2c0,0.2-0.2,0.3-0.6,0.3c-1.9,0-4.1-0.1-4.3-0.1c0,0-2.2,0.1-3.3,0.1
			c-0.4,0-0.6-0.1-0.6-0.3c0-0.1,0.1-0.2,0.3-0.2c0.3,0,0.7-0.1,1.1-0.1c0.7-0.1,0.9-0.9,1-1.9c0.2-1.5,0.2-4.2,0.2-7.6V172.9z
			 M114.2,176c0,0.2,0.1,0.3,0.2,0.4c0.5,0.3,2.1,0.6,3.7,0.6c0.8,0,1.8-0.1,2.6-0.7c1.2-0.8,2.1-2.7,2.1-5.4c0-4.4-2.3-7-6.1-7
			c-1.1,0-2,0.1-2.3,0.2c-0.2,0.1-0.3,0.2-0.3,0.4V176z"/>
		<path fill="#FFFFFF" d="M138.1,172.9c0-5.5,0-6.4-0.1-7.6c-0.1-1.2-0.4-1.8-1.5-2c-0.3-0.1-0.9-0.1-1.2-0.1
			c-0.1,0-0.3-0.1-0.3-0.2c0-0.2,0.2-0.3,0.6-0.3c1.6,0,3.7,0.1,4,0.1c0.3,0,2.4-0.1,3.5-0.1c0.4,0,0.6,0.1,0.6,0.3
			c0,0.1-0.1,0.2-0.3,0.2c-0.2,0-0.5,0-0.9,0.1c-0.9,0.1-1.2,0.8-1.3,2c-0.1,1.1-0.1,2.1-0.1,7.6v4.9c0,5,1.1,7.2,2.6,8.6
			c1.7,1.6,3.3,1.9,5.3,1.9c2.1,0,4.2-1,5.5-2.5c1.6-2,2-5,2-8.6v-4.4c0-5.5,0-6.4-0.1-7.6c-0.1-1.2-0.3-1.8-1.5-2
			c-0.3-0.1-0.9-0.1-1.2-0.1c-0.1,0-0.3-0.1-0.3-0.2c0-0.2,0.2-0.3,0.6-0.3c1.6,0,3.5,0.1,3.7,0.1c0.2,0,1.9-0.1,2.9-0.1
			c0.4,0,0.6,0.1,0.6,0.3c0,0.1-0.1,0.2-0.3,0.2c-0.2,0-0.5,0-0.9,0.1c-0.9,0.2-1.2,0.8-1.3,2c-0.1,1.1-0.1,2.1-0.1,7.6v3.7
			c0,3.8-0.4,8-3.2,10.5c-2.5,2.2-5.1,2.6-7.2,2.6c-1.2,0-4.7-0.1-7.2-2.5c-1.7-1.6-3-4.1-3-9.2V172.9z"/>
		<path fill="#FFFFFF" d="M174.2,179.1c0,3.4,0,6.1,0.2,7.6c0.1,1,0.3,1.8,1.4,1.9c0.5,0.1,1.3,0.1,1.6,0.1c0.2,0,0.3,0.1,0.3,0.2
			c0,0.2-0.2,0.3-0.6,0.3c-1.9,0-4.1-0.1-4.3-0.1c-0.2,0-2.4,0.1-3.4,0.1c-0.4,0-0.6-0.1-0.6-0.3c0-0.1,0.1-0.2,0.3-0.2
			c0.3,0,0.7-0.1,1-0.1c0.7-0.1,0.9-0.9,1-1.9c0.2-1.5,0.2-4.2,0.2-7.6v-6.2c0-5.5,0-6.4-0.1-7.6c-0.1-1.2-0.4-1.8-1.2-2
			c-0.4-0.1-0.8-0.1-1.1-0.1c-0.1,0-0.3-0.1-0.3-0.2c0-0.2,0.2-0.3,0.6-0.3c1.2,0,3.4,0.1,3.5,0.1c0.2,0,2.4-0.1,3.4-0.1
			c0.4,0,0.6,0.1,0.6,0.3c0,0.1-0.1,0.2-0.3,0.2c-0.2,0-0.5,0-0.9,0.1c-0.9,0.2-1.2,0.8-1.3,2c-0.1,1.1-0.1,2.1-0.1,7.6V179.1z"/>
		<path fill="#FFFFFF" d="M185.8,188.8c-0.5-0.2-0.5-0.4-0.5-1.3c0-1.8,0.1-3.2,0.2-3.7c0-0.4,0.1-0.6,0.3-0.6
			c0.2,0,0.2,0.1,0.2,0.4c0,0.3,0,0.8,0.1,1.3c0.5,2.6,2.8,3.6,5.2,3.6c3.4,0,5-2.4,5-4.7c0-2.4-1-3.8-4-6.3l-1.6-1.3
			c-3.7-3-4.5-5.2-4.5-7.6c0-3.7,2.8-6.3,7.2-6.3c1.4,0,2.4,0.1,3.3,0.3c0.7,0.1,0.9,0.2,1.2,0.2c0.3,0,0.4,0.1,0.4,0.2
			s-0.1,1.3-0.1,3.7c0,0.6-0.1,0.8-0.2,0.8c-0.2,0-0.2-0.2-0.3-0.5c0-0.4-0.2-1.4-0.5-1.8c-0.2-0.4-1.2-1.9-4.4-1.9
			c-2.4,0-4.3,1.5-4.3,4.1c0,2,0.9,3.3,4.3,5.9l1,0.8c4.1,3.3,5.1,5.4,5.1,8.2c0,1.4-0.6,4.1-3,5.8c-1.5,1-3.4,1.5-5.3,1.5
			C188.8,189.7,187.2,189.5,185.8,188.8z"/>
		<path fill="#FFFFFF" d="M209.2,172.9c0-5.5,0-6.4-0.1-7.6c-0.1-1.2-0.3-1.8-1.5-2c-0.3-0.1-0.9-0.1-1.2-0.1
			c-0.1,0-0.3-0.1-0.3-0.2c0-0.2,0.2-0.3,0.6-0.3c0.8,0,1.8,0,2.5,0l1.4,0.1c0.2,0,7.2,0,8,0c0.7,0,1.2-0.1,1.5-0.2
			c0.2,0,0.3-0.2,0.5-0.2c0.1,0,0.1,0.1,0.1,0.3c0,0.2-0.2,0.7-0.3,1.6c0,0.3-0.1,1.9-0.2,2.3c0,0.2-0.1,0.4-0.2,0.4
			c-0.2,0-0.3-0.2-0.3-0.5c0-0.2,0-0.8-0.2-1.3c-0.2-0.6-0.6-1-2.5-1.2c-0.6-0.1-4.4-0.1-4.8-0.1c-0.1,0-0.2,0.1-0.2,0.3v9.7
			c0,0.2,0,0.3,0.2,0.3c0.5,0,4.8,0,5.6-0.1c0.8-0.1,1.3-0.1,1.6-0.5c0.2-0.3,0.4-0.5,0.5-0.5c0.1,0,0.2,0.1,0.2,0.3
			c0,0.2-0.2,0.8-0.3,2c-0.1,0.7-0.1,2-0.1,2.2c0,0.3,0,0.7-0.2,0.7c-0.2,0-0.2-0.1-0.2-0.3c0-0.3,0-0.7-0.1-1.2
			c-0.1-0.5-0.5-1.1-1.8-1.2c-0.9-0.1-4.4-0.2-5-0.2c-0.2,0-0.2,0.1-0.2,0.2v3.1c0,1.2,0,5.2,0,6c0.1,2.4,0.6,2.9,4.1,2.9
			c0.9,0,2.5,0,3.4-0.4c0.9-0.4,1.3-1.1,1.6-2.5c0.1-0.4,0.1-0.5,0.3-0.5c0.2,0,0.2,0.3,0.2,0.5c0,0.3-0.3,2.7-0.5,3.4
			c-0.2,0.9-0.5,0.9-1.9,0.9c-2.6,0-4.6-0.1-5.9-0.1c-1.4-0.1-2.2-0.1-2.7-0.1c-0.1,0-0.7,0-1.4,0c-0.7,0-1.5,0.1-2,0.1
			c-0.4,0-0.6-0.1-0.6-0.3c0-0.1,0.1-0.2,0.3-0.2c0.3,0,0.7-0.1,1.1-0.1c0.7-0.1,0.9-0.9,1-1.9c0.2-1.5,0.2-4.2,0.2-7.6V172.9z"/>
		<path fill="#FFFFFF" d="M229.9,188.8c-0.5-0.2-0.5-0.4-0.5-1.3c0-1.8,0.1-3.2,0.2-3.7c0-0.4,0.1-0.6,0.3-0.6
			c0.2,0,0.2,0.1,0.2,0.4c0,0.3,0,0.8,0.1,1.3c0.5,2.6,2.8,3.6,5.2,3.6c3.4,0,5-2.4,5-4.7c0-2.4-1-3.8-4-6.3l-1.6-1.3
			c-3.7-3-4.5-5.2-4.5-7.6c0-3.7,2.8-6.3,7.2-6.3c1.4,0,2.4,0.1,3.3,0.3c0.7,0.1,0.9,0.2,1.2,0.2c0.3,0,0.4,0.1,0.4,0.2
			s-0.1,1.3-0.1,3.7c0,0.6-0.1,0.8-0.2,0.8c-0.2,0-0.2-0.2-0.3-0.5c0-0.4-0.2-1.4-0.5-1.8c-0.2-0.4-1.2-1.9-4.4-1.9
			c-2.4,0-4.3,1.5-4.3,4.1c0,2,0.9,3.3,4.3,5.9l1,0.8c4.1,3.3,5.1,5.4,5.1,8.2c0,1.4-0.6,4.1-3,5.8c-1.5,1-3.4,1.5-5.3,1.5
			C233,189.7,231.3,189.5,229.9,188.8z"/>
	</g>
	<g>
		<path fill="#FFFFFF" d="M65,145.2c2.9-6.6,9.5-24,10.6-27.5c0.2-0.7,0.4-1.4,0.4-1.9c0-0.4-0.1-0.9-0.6-1.1
			c-0.6-0.2-1.3-0.2-1.9-0.2c-0.3,0-0.5,0-0.5-0.3c0-0.3,0.3-0.4,1.1-0.4c2,0,4.3,0.1,4.9,0.1c0.3,0,2.4-0.1,3.9-0.1
			c0.5,0,0.8,0.1,0.8,0.3c0,0.2-0.2,0.3-0.6,0.3c-0.3,0-1.4,0-2.4,0.6c-0.6,0.4-1.4,1.3-2.7,4.7c-0.5,1.4-3,7.3-5.6,13.4
			c-3,7.2-5.3,12.6-6.4,15c-1.4,3-1.6,3.8-2.1,3.8c-0.6,0-0.8-0.7-1.8-3.1L50,118.4c-1.1-2.8-1.8-3.3-3.6-3.8
			c-0.7-0.2-1.6-0.2-1.9-0.2c-0.3,0-0.4-0.1-0.4-0.3c0-0.3,0.5-0.3,1.3-0.3c2.4,0,5.2,0.1,5.8,0.1c0.5,0,2.7-0.1,4.6-0.1
			c0.9,0,1.3,0.1,1.3,0.3c0,0.2-0.1,0.3-0.5,0.3c-0.5,0-1.4,0-1.9,0.2c-0.5,0.2-0.6,0.6-0.6,1c0,0.6,0.6,2.2,1.3,4.1L65,145.2z"/>
		<path fill="#FFFFFF" d="M101.6,136.8c0,4.8,0,8.7,0.2,10.8c0.1,1.4,0.4,2.5,1.9,2.7c0.7,0.1,1.8,0.2,2.2,0.2
			c0.3,0,0.4,0.1,0.4,0.3c0,0.2-0.2,0.4-0.8,0.4c-2.7,0-5.9-0.1-6.1-0.1c-0.2,0-3.4,0.1-4.9,0.1c-0.5,0-0.8-0.1-0.8-0.4
			c0-0.1,0.1-0.3,0.4-0.3c0.4,0,1-0.1,1.5-0.2c1-0.2,1.2-1.3,1.4-2.7c0.2-2.1,0.2-6,0.2-10.8v-8.7c0-7.7,0-9.1-0.1-10.7
			c-0.1-1.7-0.6-2.5-1.7-2.8c-0.5-0.1-1.2-0.2-1.5-0.2c-0.2,0-0.4-0.1-0.4-0.3c0-0.3,0.2-0.4,0.8-0.4c1.6,0,4.8,0.1,5,0.1
			c0.2,0,3.4-0.1,4.9-0.1c0.5,0,0.8,0.1,0.8,0.4c0,0.2-0.2,0.3-0.4,0.3c-0.3,0-0.6,0-1.2,0.1c-1.3,0.2-1.7,1.1-1.8,2.8
			c-0.1,1.6-0.1,3-0.1,10.7V136.8z"/>
		<path fill="#FFFFFF" d="M122.3,128.1c0-7.7,0-9.1-0.1-10.7c-0.1-1.7-0.5-2.5-2.1-2.8c-0.4-0.1-1.2-0.1-1.7-0.1
			c-0.2,0-0.4-0.1-0.4-0.3c0-0.3,0.2-0.4,0.8-0.4c2.2,0,5.2,0.1,5.5,0.1c0.4,0,3.3-0.1,4.8-0.1c0.5,0,0.8,0.1,0.8,0.4
			c0,0.2-0.2,0.3-0.4,0.3c-0.3,0-0.6,0-1.2,0.1c-1.3,0.2-1.7,1.1-1.8,2.8c-0.1,1.6-0.1,3-0.1,10.7v3h0.2c0.8-0.9,9.8-10.1,11.6-12
			c1.4-1.4,2.7-2.7,2.7-3.6c0-0.6-0.2-0.9-0.6-1c-0.2-0.1-0.4-0.2-0.4-0.4c0-0.2,0.2-0.3,0.6-0.3c1,0,2.5,0.1,3.7,0.1
			c0.2,0,3.5-0.1,4.8-0.1c0.5,0,0.7,0.1,0.7,0.3c0,0.2-0.1,0.3-0.5,0.3c-0.7,0-1.8,0.2-2.8,0.7c-2,0.9-3.1,2.1-5.4,4.3
			c-1.2,1.2-9.9,9.6-10.9,10.9c1.3,1.4,11.6,12.1,13.6,14c4.2,3.9,5,4.7,7.4,5.7c1.3,0.5,2.7,0.6,3.1,0.6c0.3,0,0.6,0.1,0.6,0.3
			c0,0.2-0.2,0.4-1.1,0.4h-2.5c-1.4,0-2.3,0-3.4-0.1c-2.6-0.2-3.9-1.3-6-3c-2.2-1.8-12.7-13.2-15.1-16.1h-0.2v4.9
			c0,4.8,0,8.7,0.2,10.8c0.1,1.4,0.4,2.5,1.9,2.7c0.7,0.1,1.5,0.2,1.9,0.2c0.3,0,0.4,0.1,0.4,0.3c0,0.2-0.2,0.4-0.8,0.4
			c-2.4,0-5.3-0.1-5.7-0.1c-0.4,0-3.3,0.1-4.8,0.1c-0.5,0-0.8-0.1-0.8-0.4c0-0.1,0.1-0.3,0.4-0.3c0.4,0,1-0.1,1.5-0.2
			c1-0.2,1.2-1.3,1.4-2.7c0.2-2.1,0.2-6,0.2-10.8V128.1z"/>
		<path fill="#FFFFFF" d="M170.6,136.8c0,4.8,0,8.7,0.2,10.8c0.1,1.4,0.4,2.5,1.9,2.7c0.7,0.1,1.8,0.2,2.2,0.2
			c0.3,0,0.4,0.1,0.4,0.3c0,0.2-0.2,0.4-0.8,0.4c-2.7,0-5.9-0.1-6.1-0.1s-3.4,0.1-4.9,0.1c-0.5,0-0.8-0.1-0.8-0.4
			c0-0.1,0.1-0.3,0.4-0.3c0.4,0,1-0.1,1.5-0.2c1-0.2,1.2-1.3,1.4-2.7c0.2-2.1,0.2-6,0.2-10.8v-8.7c0-7.7,0-9.1-0.1-10.7
			c-0.1-1.7-0.6-2.5-1.7-2.8c-0.5-0.1-1.2-0.2-1.5-0.2c-0.2,0-0.4-0.1-0.4-0.3c0-0.3,0.2-0.4,0.8-0.4c1.6,0,4.8,0.1,5,0.1
			s3.4-0.1,4.9-0.1c0.5,0,0.8,0.1,0.8,0.4c0,0.2-0.2,0.3-0.4,0.3c-0.3,0-0.6,0-1.2,0.1c-1.3,0.2-1.7,1.1-1.8,2.8
			c-0.1,1.6-0.1,3-0.1,10.7V136.8z"/>
		<path fill="#FFFFFF" d="M193.1,144.5c0.1,4.1,0.6,5.4,1.9,5.8c0.9,0.2,2,0.3,2.5,0.3c0.2,0,0.4,0.1,0.4,0.3c0,0.3-0.3,0.4-0.9,0.4
			c-2.8,0-4.8-0.1-5.3-0.1c-0.4,0-2.5,0.1-4.8,0.1c-0.5,0-0.8,0-0.8-0.4c0-0.2,0.1-0.3,0.4-0.3c0.4,0,1.3,0,2-0.3
			c1.2-0.3,1.5-1.8,1.5-6.3l0-28.4c0-1.9,0.1-2.5,0.5-2.5c0.4,0,1.2,1.1,1.7,1.6c0.7,0.8,8.1,8.8,15.8,17
			c4.9,5.3,10.3,11.3,11.9,12.9l-0.5-25.2c0-3.2-0.4-4.3-1.9-4.7c-0.9-0.2-2-0.2-2.4-0.2c-0.3,0-0.4-0.1-0.4-0.3
			c0-0.3,0.4-0.3,1-0.3c2.2,0,4.6,0.1,5.2,0.1c0.5,0,2.2-0.1,4.2-0.1c0.5,0,0.9,0,0.9,0.3c0,0.2-0.2,0.3-0.5,0.3
			c-0.2,0-0.6,0-1.2,0.1c-1.6,0.3-1.8,1.4-1.8,4.4l-0.1,29.1c0,3.3-0.1,3.5-0.4,3.5c-0.4,0-1-0.5-3.6-3.2
			c-0.5-0.5-7.7-7.8-12.9-13.4c-5.8-6.2-11.4-12.4-12.9-14.2L193.1,144.5z"/>
		<path fill="#FFFFFF" d="M264.5,138.6c0-4-0.2-4.6-2.2-5.1c-0.4-0.1-1.2-0.2-1.7-0.2c-0.2,0-0.4-0.1-0.4-0.3c0-0.3,0.2-0.4,0.8-0.4
			c2.2,0,5.4,0.1,5.6,0.1c0.2,0,3.4-0.1,4.9-0.1c0.5,0,0.8,0.1,0.8,0.4c0,0.2-0.2,0.3-0.4,0.3c-0.3,0-0.6,0.1-1.2,0.2
			c-1.3,0.2-1.7,1.1-1.8,2.8c-0.1,1.6-0.1,3.1-0.1,5.2v5.6c0,2.2,0,2.3-0.6,2.7c-3.2,1.7-7.6,2.2-10.5,2.2c-3.8,0-10.8-0.5-16.3-5.3
			c-3-2.6-5.9-7.9-5.9-14.1c0-7.9,3.9-13.5,8.3-16.3c4.5-2.8,9.4-3.1,13.2-3.1c3.1,0,6.6,0.6,7.6,0.8c1,0.2,2.8,0.4,4,0.5
			c0.5,0,0.6,0.2,0.6,0.4c0,0.7-0.3,2.1-0.3,7c0,0.8-0.1,1-0.4,1c-0.2,0-0.3-0.3-0.3-0.7c-0.1-0.7-0.3-2.1-1-3.3
			c-1.2-1.9-5.3-4-11.7-4c-3.1,0-6.8,0.3-10.6,3.3c-2.9,2.3-4.9,6.8-4.9,12.6c0,7,3.5,12.1,5.3,13.7c3.9,3.8,8.4,5.3,13,5.3
			c1.8,0,4.4-0.3,5.7-1c0.6-0.3,1-0.9,1-1.7V138.6z"/>
	</g>
	<g>
		<path fill="#FFFFFF" d="M304.6,205.5c1.8,0,3.3,1.5,3.3,3.4c0,1.9-1.5,3.4-3.3,3.4c-1.8,0-3.3-1.5-3.3-3.4
			C301.2,207,302.7,205.5,304.6,205.5L304.6,205.5z M304.5,206.1c-1.5,0-2.7,1.3-2.7,2.8c0,1.6,1.2,2.9,2.7,2.9
			c1.5,0,2.7-1.3,2.7-2.8C307.2,207.3,306.1,206.1,304.5,206.1L304.5,206.1z M303.9,210.9h-0.6v-3.8c0.3,0,0.6-0.1,1.1-0.1
			c0.6,0,0.9,0.1,1.2,0.3c0.2,0.2,0.3,0.4,0.3,0.8c0,0.5-0.3,0.8-0.7,0.9v0c0.3,0.1,0.6,0.4,0.6,0.9c0.1,0.6,0.2,0.8,0.2,0.9h-0.6
			c-0.1-0.1-0.2-0.5-0.3-1c-0.1-0.5-0.3-0.7-0.8-0.7h-0.4V210.9z M303.9,208.8h0.4c0.5,0,0.9-0.2,0.9-0.6c0-0.3-0.2-0.7-0.9-0.7
			c-0.2,0-0.3,0-0.4,0V208.8z"/>
		<g>
			<path fill="#FFFFFF" d="M22,205.4c0.7-2.3,0.7-2.6-0.5-2.8l-0.5-0.1c-0.1-0.2-0.1-0.5,0.1-0.6c0.4,0,0.8,0,1.3,0
				c0.4,0,0.9,0,1.4,0h4.5c1.5,0,2.7,0,3.4-0.1c-0.2,0.4-0.7,2.3-1,3.2c-0.1,0.2-0.5,0.2-0.6,0c0.1-1.2,0.2-1.8-0.8-2.1
				c-0.6-0.1-1.3-0.2-2.5-0.2h-1.4c-0.6,0-0.7,0.1-0.9,0.8l-1.5,4.9c-0.2,0.7-0.2,0.7,0.4,0.7h1.2c2.3,0,2.8-0.1,3.3-1.2l0.4-0.7
				c0.1-0.2,0.6-0.1,0.6,0c-0.2,0.4-0.5,1.4-0.8,2.3c-0.3,0.9-0.5,1.8-0.6,2.3c-0.1,0.2-0.5,0.2-0.6,0v-0.7c0-1.2-0.6-1.3-2.5-1.3
				h-1.2c-0.7,0-0.7,0-0.9,0.7l-1,3.2c-0.4,1.3-0.6,2.2-0.4,2.6c0.2,0.3,0.6,0.5,2.7,0.5c2.6,0,3.6-0.1,5.1-2.5
				c0.2-0.1,0.5-0.1,0.6,0.1c-0.2,0.7-1,2.5-1.7,3.2c-0.8,0-1.7,0-2.7,0c-0.9,0-1.9,0-2.8,0h-2.8c-1,0-1.8,0-2.9,0.1
				c-0.2-0.1-0.2-0.5,0-0.6l0.8-0.1c1.2-0.1,1.4-0.4,2.2-2.9L22,205.4z"/>
			<path fill="#FFFFFF" d="M33.2,210.8c-0.3-0.7-0.4-1.1-0.7-1.1c-0.4,0-0.8,0.7-1.1,1.2c-0.2,0.1-0.5,0-0.4-0.3
				c0.4-1.3,1.6-2.6,2.2-2.6c0.4,0,0.7,0.3,1.1,1.2l1,2.8c0.2-0.2,0.4-0.6,1.6-2c1.2-1.4,1.9-2.1,2.7-2.1c0.6,0,1,0.6,1,1.1
				c0,0.8-0.6,1.4-1,1.4c-0.2,0-0.3-0.1-0.3-0.4c-0.1-0.3-0.3-0.6-0.5-0.6c-0.4,0-1.1,0.7-3.2,3.3l0.9,2.3c0.3,0.8,0.6,1.4,0.9,1.4
				c0.3,0,0.7-0.7,1.1-1.4c0.2-0.2,0.5-0.1,0.5,0.1c-0.3,1.6-1.2,3-2.1,3c-0.6,0-1-0.7-1.4-1.7l-0.9-2.3c-0.4,0.4-1.1,1.3-1.8,2.1
				c-1.4,1.6-2.1,1.9-2.6,1.9c-0.6,0-0.9-0.4-0.9-0.9c0-0.5,0.3-1.1,0.7-1.4c0.3-0.2,0.4-0.3,0.5-0.3c0.1,0,0.2,0.2,0.2,0.3
				c0.1,0.4,0.2,0.7,0.4,0.7c0.2,0,0.5-0.3,1-0.7c0.7-0.7,1.3-1.5,2.1-2.4L33.2,210.8z"/>
			<path fill="#FFFFFF" d="M45.9,208.4c0.2,0,0.5,0,0.9,0c1.1,0,3.3,0.5,3.3,2.7c0,2.2-1.3,4.2-3.2,5.7c-1.5,1.3-3.3,1.4-3.4,1.4
				c-0.2,0-0.4,0-0.7-0.1c-0.2,0-0.3,0.2-0.4,0.4l-1,2.8c-0.6,1.8-0.6,2.1,0.2,2.2l1,0.1c0.1,0.2,0.1,0.4-0.1,0.5
				c-1.8,0-3.6,0.1-5.2,0.1c-0.2-0.1-0.2-0.4,0-0.5l0.5-0.1c1.3-0.2,1.4-0.8,1.8-1.8l4.5-12.5c-0.9,0.2-1.4,0.5-2.4,1
				c-0.2,0-0.3-0.2-0.2-0.5c0.8-0.6,1.8-1,3-1.3l0.7-1.9c0.3-0.3,1.3,0,1.4,0.3L45.9,208.4z M43.2,216.1c-0.1,0.3-0.1,0.5,0,0.6
				c0.1,0.2,0.5,0.6,0.9,0.6c0.3,0,1.7-0.3,2.7-1.9c1.2-1.8,1.4-3.5,1.4-4.5c0-1.2-0.9-1.8-1.9-1.8c-0.3,0-0.5,0-0.6,0L43.2,216.1z"
				/>
			<path fill="#FFFFFF" d="M53.3,216.2c-0.2,0.6-0.2,0.8,0.1,0.8c0.5,0,1.7-1.2,2.8-2.4c0.2,0,0.4,0.1,0.4,0.3
				c-0.6,1.2-2.1,3.2-4.1,3.2c-0.7,0-0.9-0.3-0.9-0.7c0-0.4,0.1-0.8,0.5-2l3.8-11.4c0.6-1.7,0.3-1.9,0-2.1l-0.4-0.2
				c-0.1-0.1-0.1-0.3,0-0.4c0.4-0.2,1.9-0.6,3-0.7l0.1,0.1c-0.3,0.9-0.6,1.5-1.4,4.1L53.3,216.2z"/>
			<path fill="#FFFFFF" d="M65.8,211c-0.1,1.3-0.8,3.6-2.5,5.4c-1.5,1.5-2.8,1.7-3.4,1.7c-1.5,0-2.5-1.1-2.4-3.2
				c0.1-1.5,1-3.8,2.6-5.4c1.2-1.2,2.3-1.6,3.3-1.6C65,208,65.9,209.3,65.8,211z M61.4,209.9c-1.4,1.9-2.3,4.7-2.4,6
				c0,0.8,0.3,1.5,1,1.5c0.5,0,1.1-0.2,1.9-1.2c1.1-1.4,2.2-4.6,2.2-5.9c0-0.7-0.1-1.6-1-1.6C62.7,208.7,62.1,208.9,61.4,209.9z"/>
			<path fill="#FFFFFF" d="M71.1,210.3l-1,3h0.1c0.7-1.3,1.9-3.3,2.5-4.1c0.6-0.7,1.2-1.2,1.8-1.2c0.8,0,1,0.8,1,1.2
				c0,0.4-0.2,1.1-0.5,1.4c-0.3,0.4-0.7,0.4-0.8-0.1c-0.1-0.6-0.3-0.9-0.5-0.9c-0.2,0-0.5,0.2-0.8,0.7c-1.5,1.9-2.8,4.8-4.1,7.6
				c-0.1,0.2-0.2,0.3-0.4,0.3c-0.3,0-1-0.1-0.8-0.6c0.3-1,1.8-5.2,2.5-7.6c0.1-0.3,0-0.5-0.2-0.5c-0.6,0-1.3,0.7-1.7,1.2
				c-0.2,0-0.4-0.1-0.4-0.4c0.8-1.3,1.7-2.3,2.8-2.3C71.7,208,71.3,209.6,71.1,210.3z"/>
			<path fill="#FFFFFF" d="M78.5,210c0.1-0.3,0.1-0.5,0-0.5s-0.8,0.3-2,1.3c-0.2,0-0.4-0.2-0.3-0.4c1.3-1.5,3.2-2.4,4-2.4
				c0.2,0,0.3,0.1,0.4,0.2c0.1,0.1,0.1,0.4-0.1,1.1l-2.9,6.8c-0.1,0.2-0.1,0.5,0.1,0.5c0.4,0,1.7-0.8,2.5-1.8c0.2,0,0.4,0.2,0.4,0.4
				c-0.4,0.7-2.8,2.9-4.5,2.9c-0.1,0-0.3-0.1-0.4-0.2c-0.1-0.2-0.2-0.4-0.1-0.6L78.5,210z M81.6,203.2c0,0.7-0.5,1.5-1.3,1.5
				c-0.6,0-0.9-0.5-0.9-0.9c0-0.5,0.4-1.5,1.3-1.5C81.3,202.2,81.6,202.6,81.6,203.2z"/>
			<path fill="#FFFFFF" d="M85.1,213.2L85.1,213.2c1.8-2.5,4.2-5.2,6-5.2c0.9,0,1.3,0.5,1.3,1.3c0,0.4-0.2,1.1-0.4,1.7
				c-0.4,1.2-2.2,5.1-2.2,5.3c-0.1,0.2-0.1,0.5,0,0.5c0.4,0,1.6-0.8,2.3-1.6c0.3,0,0.4,0.1,0.4,0.3c-0.9,1.5-2.8,2.7-4.1,2.7
				c-0.2,0-0.6-0.3-0.6-0.6c0-0.2,0.1-0.4,0.6-1.6c0.5-1.2,1.4-3.5,1.9-4.7c0.2-0.4,0.5-1.3,0.5-1.8c0-0.3,0-0.6-0.4-0.6
				c-0.6,0-2,1.2-3.3,2.9c-1.3,1.6-2.3,3.5-3.7,6.1c-0.1,0.2-0.2,0.3-0.4,0.3c-0.3,0-0.9-0.1-0.7-0.6c0.1-0.3,2.7-7.2,2.8-7.6
				c0.1-0.3,0.1-0.6-0.1-0.6c-0.6,0-1.4,0.5-2.2,1.2c-0.2,0-0.3-0.2-0.3-0.4c0.9-1.2,2.4-2.2,3.6-2.2c0.6,0,0.8,0.4,0.6,1
				L85.1,213.2z"/>
			<path fill="#FFFFFF" d="M100.5,208.2c0.3,0.1,0.5,0.2,0.6,0.2c0.2,0,0.7,0,1.2-0.1c0.5-0.1,0.9-0.2,1.1-0.2
				c0.3,0,0.5,0.2,0.5,0.6c0,0.6-0.3,0.7-0.5,0.7c-0.2,0-0.6-0.1-0.8-0.1c-0.2-0.1-0.7-0.1-0.9-0.1c-0.1,0-0.2,0.1-0.2,0.1
				c0,0.2,0.2,0.6,0.2,0.9c0,1.9-1.4,3.8-3,4.8c-0.3,0.2-1.2,0.5-1.7,0.6c-0.3,0.1-0.5,0.5-0.5,0.8c0,0.3,0.2,0.7,0.8,1.1
				c0.6,0.4,1.5,0.9,2.4,1.4c1.4,0.8,1.8,1.6,1.8,2.3c0,1.3-1.9,2.9-5.9,2.9c-1.8,0-3.8-0.7-3.8-2.3c0-1.8,2.8-3,4.1-3.4
				c-0.6-0.4-0.8-0.8-0.8-1.1c0-0.4,0.7-1.4,1.1-1.8c-0.5-0.1-1.8-0.6-1.8-2.2c0-1.3,0.7-3,1.9-4c1.2-1,2.3-1.4,3.6-1.4
				C100,208,100.3,208.1,100.5,208.2z M99.7,221.8c0-0.4-0.3-0.9-1-1.5c-1-0.7-1.8-1.2-2.2-1.2c-0.6-0.1-1.5,0.4-2.2,0.9
				c-0.6,0.5-0.9,1-0.9,1.6c0,1.1,1.6,1.8,3.2,1.8C97.6,223.5,99.7,223,99.7,221.8z M97.9,209.7c-0.9,1.1-2.2,3.2-2.2,4.4
				c0,0.5,0.3,0.8,0.7,0.8c0.3,0,0.9-0.1,1.6-0.9c1.3-1.6,2.2-3.7,2.2-4.5c0-0.5-0.4-0.8-0.7-0.8C99.1,208.7,98.6,208.9,97.9,209.7z
				"/>
			<path fill="#FFFFFF" d="M113.5,209.5l-2.2,6.3c-0.1,0.5,0,0.6,0.2,0.6c0.4,0,1.9-1.2,2.7-2.2c0.2,0,0.4,0.1,0.3,0.4
				c-1.3,2-3.6,3.5-4.6,3.5c-0.3,0-0.6-0.4-0.6-0.6c0-0.3,0.1-0.6,0.3-1.4l2.3-6.6h-1.9c0-0.2,0-0.6,0.3-0.7l1.9-0.3l1.3-2.4
				c0.2-0.1,0.7-0.1,0.9,0.1l-0.7,2.4h2.6c0.2,0.2,0,0.7-0.3,0.9H113.5z"/>
			<path fill="#FFFFFF" d="M123,200.8c-0.5,1.3-1.2,3.5-1.7,4.9l-2.5,7.2l0,0c1.7-2.4,2.9-3.3,3.8-4c0.9-0.6,1.6-0.9,2.3-0.9
				c1.1,0,1.4,0.8,1.4,1.6c0,1.7-1,4.1-1.9,5.6c-0.5,0.8-0.9,1.3-1.6,2c-0.8,0.8-1.4,0.9-1.8,0.9c-0.8,0-0.9-0.5-0.9-0.7
				c0-0.4,0.3-0.8,0.6-0.8c0.1,0,0.2,0,0.3,0.1c0.2,0.1,0.5,0.3,0.6,0.3c0.4,0,0.6-0.4,1-1.2c0.6-1.6,1.7-4.9,1.7-6.2
				c0-0.5-0.2-0.7-0.5-0.7c-0.3,0-0.8,0.3-1.3,0.6c-1,0.8-1.8,1.6-3,3.2c-1.1,1.4-2.3,3.8-2.9,5c-0.1,0.2-0.2,0.3-0.4,0.3
				c-0.3,0-0.9-0.1-0.7-0.6l4.6-13.5c0.5-1.6,0.6-1.9,0.3-2.2l-0.5-0.3c0-0.1,0-0.2,0.1-0.3c0.4-0.2,2-0.5,2.8-0.6L123,200.8z"/>
			<path fill="#FFFFFF" d="M135.3,209.4c0,1.8-2.4,3-5.8,4c-0.2,0.4-0.3,1.2-0.3,2.1c0,0.8,0.5,1.4,1.2,1.4c0.9,0,1.5-0.5,2.5-1.4
				c0.2,0,0.4,0.2,0.3,0.4c-1.5,1.8-2.8,2.2-3.8,2.2c-1.4,0-1.9-1.3-1.9-2.5c0-1.5,1-4.4,3.6-6.5c1.2-1,2.2-1.2,2.9-1.2
				C134.7,208,135.3,208.8,135.3,209.4z M131.5,209.9c-0.9,1-1.5,2.1-1.8,2.8c1.6-0.5,2.3-0.9,3.2-1.8c0.7-0.7,0.9-1.4,0.9-1.6
				c0-0.2-0.1-0.6-0.6-0.6C133,208.7,132.3,209,131.5,209.9z"/>
			<path fill="#FFFFFF" d="M143.9,204.2c-0.2-1.1-0.1-1.5-1.1-1.7l-0.5-0.1c-0.2-0.1-0.1-0.5,0.1-0.6c0.8,0,1.5,0.1,2.3,0.1
				c0.9,0,1.7,0,2.5-0.1c0.2,0.1,0.2,0.5,0,0.6l-0.9,0.1c-0.6,0.1-0.8,0.4-0.7,1.4l1.3,9.1c0.2,1.5,0.3,1.9,0.4,2
				c0.2-0.1,0.4-0.4,1.5-2l1.6-2.2c0.4-0.5,0.5-0.7,0.4-1.3L150,204c-0.2-1-0.3-1.3-1.1-1.4l-0.6-0.1c-0.1-0.1-0.1-0.5,0.1-0.6
				c0.6,0,1.5,0.1,2.4,0.1c1,0,1.8,0,2.4-0.1c0.1,0.1,0.2,0.5,0,0.6l-0.8,0.1c-0.6,0.1-0.8,0.3-0.7,1.3l0.6,4.5l0.4-0.6l0.8-1.2
				c1.1-1.6,2-3.1,2.2-3.4c0.2-0.3-0.1-0.5-0.5-0.6l-0.6-0.1c-0.2-0.1-0.1-0.5,0.1-0.6c0.7,0,1.4,0.1,2.1,0.1c0.7,0,1.5,0,2-0.1
				c0.2,0.1,0.1,0.5,0,0.6l-0.5,0.1c-1,0.2-1.2,0.4-2.2,1.7c-1,1.2-2.8,3.8-3.3,4.5c-0.3,0.4-0.5,0.5-0.4,1.1l0.5,3.1
				c0.2,1.6,0.3,1.9,0.4,2c0.1-0.1,0.3-0.3,1.2-1.7c0.5-0.8,4.8-7.2,5.7-8.9c1-1.8,1.1-1.8,0.2-1.9l-0.5-0.1
				c-0.1-0.1-0.1-0.5,0.1-0.6c0.8,0,1.5,0.1,2.2,0.1c0.8,0,1.5,0,2-0.1c0.1,0.1,0.2,0.5,0,0.6l-0.6,0.1c-1.2,0.2-2.1,1.8-2.7,2.7
				l-3.7,5.5c-1.7,2.4-3.2,4.9-4.8,7.4c-0.1,0-0.2,0.1-0.3,0.1c-0.1,0-0.2,0-0.3-0.1c-0.2-2-0.5-4-0.8-5.9l-0.1-0.9l-3.2,4.6
				c-0.5,0.8-1,1.4-1.4,2.2c-0.1,0-0.2,0.1-0.3,0.1c-0.1,0-0.2,0-0.3-0.1c0-0.7-0.4-3.2-0.5-4.4L143.9,204.2z"/>
			<path fill="#FFFFFF" d="M167.8,211c-0.1,1.3-0.8,3.6-2.5,5.4c-1.5,1.5-2.8,1.7-3.4,1.7c-1.5,0-2.5-1.1-2.4-3.2
				c0.1-1.5,1-3.8,2.6-5.4c1.2-1.2,2.3-1.6,3.3-1.6C167,208,167.9,209.3,167.8,211z M163.4,209.9c-1.4,1.9-2.3,4.7-2.4,6
				c0,0.8,0.3,1.5,1,1.5c0.5,0,1.1-0.2,1.9-1.2c1.1-1.4,2.2-4.6,2.2-5.9c0-0.7-0.1-1.6-1-1.6C164.7,208.7,164.1,208.9,163.4,209.9z"
				/>
			<path fill="#FFFFFF" d="M173.1,210.3l-1,3h0.1c0.7-1.3,1.9-3.3,2.5-4.1c0.6-0.7,1.2-1.2,1.8-1.2c0.8,0,1,0.8,1,1.2
				c0,0.4-0.2,1.1-0.5,1.4c-0.3,0.4-0.7,0.4-0.8-0.1c-0.1-0.6-0.3-0.9-0.5-0.9c-0.2,0-0.5,0.2-0.8,0.7c-1.5,1.9-2.8,4.8-4.1,7.6
				c-0.1,0.2-0.2,0.3-0.4,0.3c-0.3,0-1-0.1-0.8-0.6c0.3-1,1.8-5.2,2.5-7.6c0.1-0.3,0-0.5-0.2-0.5c-0.6,0-1.3,0.7-1.7,1.2
				c-0.2,0-0.4-0.1-0.4-0.4c0.8-1.3,1.7-2.3,2.8-2.3C173.8,208,173.3,209.6,173.1,210.3z"/>
			<path fill="#FFFFFF" d="M178.9,216.2c-0.2,0.6-0.2,0.8,0.1,0.8c0.5,0,1.7-1.2,2.8-2.4c0.2,0,0.4,0.1,0.4,0.3
				c-0.6,1.2-2.1,3.2-4.1,3.2c-0.7,0-0.9-0.3-0.9-0.7c0-0.4,0.1-0.8,0.5-2l3.8-11.4c0.6-1.7,0.3-1.9,0-2.1l-0.4-0.2
				c-0.1-0.1-0.1-0.3,0-0.4c0.4-0.2,1.9-0.6,3-0.7l0.1,0.1c-0.3,0.9-0.6,1.5-1.4,4.1L178.9,216.2z"/>
			<path fill="#FFFFFF" d="M192.9,203.8c0.5-1.3,0.6-1.8,0.2-2l-0.6-0.4c0-0.1,0-0.2,0.1-0.3c0.5-0.2,1.8-0.5,2.8-0.5l0.1,0.1
				c-0.4,1.3-0.8,2.3-1.5,4.2c-2.4,6.6-3.5,10.4-3.7,11.1c-0.1,0.3-0.1,0.6,0.1,0.6c0.4,0,1.9-1.2,2.6-2.2c0.2,0,0.3,0.1,0.4,0.3
				c-0.6,1.3-2.8,3.3-4.1,3.3c-0.5,0-0.8-0.4-0.8-0.8c0-0.3,0.1-0.7,0.3-1.4l0.8-2.4l-0.1,0c-1.7,2.2-3.5,4.5-5.8,4.5
				c-0.9,0-1.4-0.8-1.4-1.7c0-1.7,1.3-4.6,3.2-6.3c1.6-1.5,3.1-2.1,4.3-2.1c0.4,0,1,0.2,1.2,0.7L192.9,203.8z M188.1,209.8
				c-1,0.9-2.7,3.2-3.4,4.7c-0.7,1.5-0.7,2-0.7,2.3c0,0.3,0.2,0.5,0.5,0.5c0.4,0,1.6-0.4,3.2-2.1c1.9-1.9,2.6-3.4,2.9-4.6
				c0.3-1,0-1.7-0.6-1.7C189.4,208.7,188.7,209.2,188.1,209.8z"/>
			<path fill="#FFFFFF" d="M203.5,210c0.1-0.3,0.1-0.5,0-0.5c-0.2,0-0.8,0.3-2,1.3c-0.2,0-0.4-0.2-0.3-0.4c1.3-1.5,3.2-2.4,4-2.4
				c0.2,0,0.3,0.1,0.4,0.2c0.1,0.1,0.1,0.4-0.1,1.1l-2.9,6.8c-0.1,0.2-0.1,0.5,0.1,0.5c0.4,0,1.7-0.8,2.5-1.8c0.2,0,0.4,0.2,0.4,0.4
				c-0.4,0.7-2.8,2.9-4.5,2.9c-0.1,0-0.3-0.1-0.4-0.2c-0.1-0.2-0.2-0.4-0.1-0.6L203.5,210z M206.6,203.2c0,0.7-0.5,1.5-1.3,1.5
				c-0.6,0-0.9-0.5-0.9-0.9c0-0.5,0.4-1.5,1.3-1.5C206.3,202.2,206.6,202.6,206.6,203.2z"/>
			<path fill="#FFFFFF" d="M210.1,213.2L210.1,213.2c1.8-2.5,4.2-5.2,6-5.2c0.9,0,1.3,0.5,1.3,1.3c0,0.4-0.2,1.1-0.4,1.7
				c-0.4,1.2-2.2,5.1-2.2,5.3c-0.1,0.2-0.1,0.5,0,0.5c0.4,0,1.6-0.8,2.3-1.6c0.3,0,0.4,0.1,0.4,0.3c-0.9,1.5-2.8,2.7-4.1,2.7
				c-0.2,0-0.6-0.3-0.6-0.6c0-0.2,0.1-0.4,0.6-1.6c0.5-1.2,1.4-3.5,1.9-4.7c0.2-0.4,0.5-1.3,0.5-1.8c0-0.3,0-0.6-0.4-0.6
				c-0.6,0-2,1.2-3.3,2.9c-1.3,1.6-2.3,3.5-3.7,6.1c-0.1,0.2-0.2,0.3-0.4,0.3c-0.3,0-0.9-0.1-0.7-0.6c0.1-0.3,2.7-7.2,2.8-7.6
				c0.1-0.3,0.1-0.6-0.1-0.6c-0.6,0-1.4,0.5-2.2,1.2c-0.2,0-0.3-0.2-0.3-0.4c0.9-1.2,2.4-2.2,3.6-2.2c0.6,0,0.8,0.4,0.6,1
				L210.1,213.2z"/>
			<path fill="#FFFFFF" d="M241.8,202.3c-0.4,0.9-0.9,2.3-1.1,3.2c-0.1,0.2-0.6,0.2-0.6,0c0.5-2.1-0.1-3.2-2.6-3.2
				c-1.7,0-3.9,0.5-6.1,2.7c-1.2,1.2-2.8,4-2.8,7.2c0,3.4,1.6,5.3,4.7,5.3c2.5,0,4-1.5,5.2-3.4c0.2-0.1,0.5,0,0.6,0.2
				c-0.2,0.6-0.7,1.9-1.6,3.4c-0.5,0-1.2,0.1-1.9,0.3c-0.7,0.1-1.5,0.3-2.3,0.3c-3.1,0-6.7-1.4-6.7-6.5c0-2.8,1.5-5.4,3.4-7.2
				c2-1.8,4.9-2.9,8.1-2.9C239.7,201.6,241.2,202.1,241.8,202.3z"/>
			<path fill="#FFFFFF" d="M248.9,211c-0.1,1.3-0.8,3.6-2.5,5.4c-1.5,1.5-2.8,1.7-3.4,1.7c-1.5,0-2.5-1.1-2.4-3.2
				c0.1-1.5,1-3.8,2.6-5.4c1.2-1.2,2.3-1.6,3.3-1.6C248.2,208,249,209.3,248.9,211z M244.5,209.9c-1.4,1.9-2.3,4.7-2.4,6
				c0,0.8,0.3,1.5,1,1.5c0.5,0,1.1-0.2,1.9-1.2c1.1-1.4,2.2-4.6,2.2-5.9c0-0.7-0.1-1.6-1-1.6C245.8,208.7,245.2,208.9,244.5,209.9z"
				/>
			<path fill="#FFFFFF" d="M260,211.1l-0.9,2.2l0.1,0c2.3-3.7,4.1-5.4,5.7-5.4c0.9,0,1.3,0.5,1.3,1.3c0,0.4-0.2,1.1-0.4,1.7
				c-0.4,1.2-2.2,5.1-2.2,5.3c-0.1,0.2-0.1,0.5,0,0.5c0.4,0,1.6-0.8,2.3-1.6c0.3,0,0.4,0.1,0.4,0.3c-0.9,1.5-2.8,2.7-4.1,2.7
				c-0.2,0-0.6-0.3-0.6-0.6c0-0.2,0.1-0.4,0.6-1.6c0.5-1.2,1.5-3.5,1.9-4.7c0.2-0.4,0.5-1.3,0.5-1.8c0-0.3,0-0.6-0.4-0.6
				c-0.7,0-1.8,1.2-3.1,2.9c-1.2,1.5-2.3,3.4-3.8,6.1c-0.1,0.2-0.2,0.3-0.4,0.3c-0.3,0-0.9-0.1-0.7-0.6l2.4-6.3
				c0.1-0.3,1.1-2.3,0.2-2.3c-0.7,0-2,1.2-3.3,2.9c-1.2,1.6-2.2,3.4-3.6,6.1c-0.1,0.2-0.2,0.3-0.4,0.3c-0.3,0-0.9-0.1-0.7-0.6
				c0.1-0.2,2.6-7.2,2.7-7.6c0.1-0.4,0.1-0.7-0.2-0.7c-0.8,0-1.6,0.7-2.1,1.3c-0.2,0-0.4-0.2-0.3-0.4c0.6-1.2,1.9-2.2,3.7-2.2
				c0.6,0,0.8,0.4,0.6,1l-1.7,4.3l0.1,0c1.7-2.8,4-5.4,5.8-5.4C261,208,260.4,209.9,260,211.1z"/>
			<path fill="#FFFFFF" d="M272.2,209.2c-0.1,0.4-0.3,1.2-0.6,1.9c-0.8,2.7-1.5,5.3-2.3,8c-0.7,2.2-1.4,3.5-1.9,3.9
				c-0.3,0.3-1.3,1.2-2.7,1.2c-1.1,0-1.6-0.8-1.6-1.2c0-0.5,0.3-0.7,0.5-0.9c0.3-0.3,0.5-0.1,0.7,0.2c0.3,0.6,1,0.9,1.4,0.9
				c0.4,0,1-0.4,1.5-2c1.2-4,2-8.1,3.2-12h-2c-0.2-0.2-0.1-0.7,0.2-0.9h2.1c0.6-2.2,1.2-4,2.7-5.7c1.2-1.4,2.6-2,4-2
				c1,0,2,0.6,2,1.6c0,0.7-0.6,1.5-1,1.5c-0.2,0-0.3-0.2-0.3-0.4c-0.1-1.4-0.8-1.9-1.5-1.9c-0.7,0-1.3,0.5-1.9,1.3
				c-1.1,1.6-1.6,3.6-2.3,5.6h3c0.2,0.3,0.1,0.6-0.2,0.9H272.2z"/>
			<path fill="#FFFFFF" d="M282.4,211c-0.1,1.3-0.8,3.6-2.5,5.4c-1.5,1.5-2.8,1.7-3.4,1.7c-1.5,0-2.5-1.1-2.4-3.2
				c0.1-1.5,1-3.8,2.6-5.4c1.2-1.2,2.3-1.6,3.3-1.6C281.7,208,282.5,209.3,282.4,211z M278,209.9c-1.4,1.9-2.3,4.7-2.4,6
				c0,0.8,0.3,1.5,1,1.5c0.5,0,1.1-0.2,1.9-1.2c1.1-1.4,2.2-4.6,2.2-5.9c0-0.7-0.1-1.6-1-1.6C279.3,208.7,278.7,208.9,278,209.9z"/>
			<path fill="#FFFFFF" d="M287.7,210.3l-1,3h0.1c0.7-1.3,1.9-3.3,2.5-4.1c0.6-0.7,1.2-1.2,1.8-1.2c0.8,0,1,0.8,1,1.2
				c0,0.4-0.2,1.1-0.5,1.4c-0.3,0.4-0.7,0.4-0.8-0.1c-0.1-0.6-0.3-0.9-0.5-0.9c-0.2,0-0.5,0.2-0.8,0.7c-1.5,1.9-2.8,4.8-4.1,7.6
				c-0.1,0.2-0.2,0.3-0.4,0.3c-0.3,0-1-0.1-0.8-0.6c0.3-1,1.8-5.2,2.5-7.6c0.1-0.3,0-0.5-0.2-0.5c-0.6,0-1.3,0.7-1.7,1.2
				c-0.2,0-0.4-0.1-0.4-0.4c0.8-1.3,1.7-2.3,2.8-2.3C288.4,208,288,209.6,287.7,210.3z"/>
			<path fill="#FFFFFF" d="M296.5,209.5l-2.2,6.3c-0.1,0.5,0,0.6,0.2,0.6c0.4,0,1.9-1.2,2.7-2.2c0.2,0,0.4,0.1,0.3,0.4
				c-1.3,2-3.6,3.5-4.6,3.5c-0.3,0-0.6-0.4-0.6-0.6c0-0.3,0.1-0.6,0.3-1.4l2.3-6.6H293c0-0.2,0-0.6,0.3-0.7l1.9-0.3l1.3-2.4
				c0.2-0.1,0.7-0.1,0.9,0.1l-0.7,2.4h2.6c0.2,0.2,0,0.7-0.3,0.9H296.5z"/>
		</g>
	</g>
	<g>
		<g>
			<g>
				<path fill-rule="evenodd" clip-rule="evenodd" fill="#FFFFFF" d="M124.8,33.8h7.3c20.8,14.8,29.5,23.3,28,30.7
					c-1.8,8.7-12.7,15.1-35.2,25l-3.1-0.2c25.7-10.8,34.9-19.7,33-27C152.7,54.7,145.1,49.3,124.8,33.8L124.8,33.8z"/>
				<path fill-rule="evenodd" clip-rule="evenodd" fill="#FFFFFF" d="M139.2,33.8l7.2,0c21.5,14.7,27,24.5,23.7,30.4
					c-5.7,10.3-18.9,16.8-39.8,25.2l-3,0.2c22.5-9.7,37.4-18,38.2-27.1C166.3,54.8,159.7,49.2,139.2,33.8L139.2,33.8z"/>
				<path fill-rule="evenodd" clip-rule="evenodd" fill="#FFFFFF" d="M153.7,33.8h7.2c20.8,14.7,24.1,23.7,19.6,30.6
					c-6.8,10.5-22.4,16.8-44,25.1h-3.2c27-11.1,38.4-17.4,42-25.4C179.6,54.7,172.1,48,153.7,33.8L153.7,33.8z"/>
				<path fill-rule="evenodd" clip-rule="evenodd" fill="#FFFFFF" d="M168.1,33.8h7.2c19.5,16.4,20.3,24.3,16.1,30.2
					c-7.3,10.2-29.6,20.3-49.1,25.5H139c23.5-8.2,39.9-14.3,46.9-25.7C190.9,55.9,186,48.7,168.1,33.8L168.1,33.8z"/>
				<path fill-rule="evenodd" clip-rule="evenodd" fill="#FFFFFF" d="M182.5,33.8h7.2c12,12.5,16.3,23.1,12,30.3
					c-8.5,14.4-36.1,21.3-53.7,25.4h-3.2c24-6.5,45.5-14,51.5-25.5C199.8,57.5,197.8,48.8,182.5,33.8L182.5,33.8z"/>
				<path fill-rule="evenodd" clip-rule="evenodd" fill="#FFFFFF" d="M211.5,49.9c3.9,30.9-25.3,36.5-25.6,36.8
					c-1.9,0.6-6.3,1.7-6.3,1.7c-17.8,3.5-42.5,3.8-55.3,1.8c-13.7-2.1-23.1-6.5-25.2-14.7c10.3,16.2,59.7,16.3,85.8,8.3
					C201.8,77.7,209,67,208.8,51l0,0c-0.1-1.7-0.1-5.9,1.7-7.9c2.4-2.7,8.3-1.8,8.9,2.2c0.8,5.8-7.2,5.9-6.9,1.2
					c0.2-2.3,3.9-3.2,4.6-0.9c0.5,1.9-1.6,2.6-2.6,1.9c-0.5-0.4-0.6-0.7-0.4-1c0.3-0.3,0.7-0.3,0.9,0c0.1,0.4,0.5,0.5,0.8,0.3
					c0.7-0.4,0.1-1.9-1.3-1.4c-0.8,0.3-1.4,1.9-0.1,2.9c3.1,1.5,4.6-2.3,2.7-4.2c-0.8-0.9-1.7-0.9-2.4-0.8
					C211.8,43.5,211.3,46.7,211.5,49.9"/>
			</g>
			<path fill-rule="evenodd" clip-rule="evenodd" fill="#FFFFFF" d="M192.7,99.3c0,0,5.3,0.3,13.4-3.5c7.7-3.6,24.1-15.9,8.2-41.5
				c-0.4,4.5-0.4,18.7-14,28.2c-12.7,10.1-67.4,14.8-90,6c-9.3-4.5-11.2-9.9-11.2-9.9s1.9,20,10.8,20.5L192.7,99.3z"/>
		</g>
	</g>
	<path fill="#FFFFFF" d="M217,93.3c1.8,0,3.3,1.5,3.3,3.4c0,1.9-1.5,3.4-3.3,3.4c-1.8,0-3.3-1.5-3.3-3.4
		C213.6,94.8,215.1,93.3,217,93.3L217,93.3z M217,93.8c-1.5,0-2.7,1.3-2.7,2.8c0,1.6,1.2,2.9,2.7,2.9c1.5,0,2.7-1.3,2.7-2.8
		C219.7,95.1,218.5,93.8,217,93.8L217,93.8z M216.3,98.6h-0.6v-3.8c0.3,0,0.6-0.1,1.1-0.1c0.6,0,0.9,0.1,1.2,0.3
		c0.2,0.2,0.3,0.4,0.3,0.8c0,0.5-0.3,0.8-0.7,0.9v0c0.3,0.1,0.6,0.4,0.6,0.9c0.1,0.6,0.2,0.8,0.2,0.9h-0.6c-0.1-0.1-0.2-0.5-0.3-1
		c-0.1-0.5-0.3-0.7-0.8-0.7h-0.4V98.6z M216.3,96.5h0.4c0.5,0,0.9-0.2,0.9-0.6c0-0.3-0.2-0.7-0.9-0.7c-0.2,0-0.3,0-0.4,0V96.5z"/>
	<g>
		<rect x="121.9" y="33.1" fill="#FFFFFF" width="70.5" height="1"/>
		<rect x="159.3" y="27.7" fill="#FFFFFF" width="1" height="5.8"/>
	</g>
</g>
</svg>
