<?xml version="1.0" standalone="no"?>
<!DOCTYPE svg PUBLIC "-//W3C//DTD SVG 1.1//EN" "http://www.w3.org/Graphics/SVG/1.1/DTD/svg11.dtd" >
<svg xmlns="http://www.w3.org/2000/svg">
<metadata>
This is a custom SVG webfont generated by Font Squirrel.
Designer    : Christian Schwartz
Foundry URL : httpwwwhouseindustriescom
</metadata>
<defs>
<font id="webfont3oxLaxBv" horiz-adv-x="2048" >
<font-face units-per-em="4096" ascent="3277" descent="-819" />
<missing-glyph horiz-adv-x="819" />
<glyph unicode=" "  horiz-adv-x="819" />
<glyph unicode="&#x09;" horiz-adv-x="819" />
<glyph unicode="&#xa0;" horiz-adv-x="819" />
<glyph unicode="!" horiz-adv-x="1159" d="M360 946l-90 1839h619l-90 -1839h-439zM582 -25q-144 0 -246 99q-103 100 -103 250q0 145 103 245q102 99 246 99q139 0 241 -99q103 -100 103 -245q0 -151 -101 -250t-243 -99z" />
<glyph unicode="&#x22;" horiz-adv-x="1671" d="M995 1774l-65 1011h594l-62 -1011h-467zM209 1774l-62 1011h590l-61 -1011h-467z" />
<glyph unicode="#" d="M504 1720h-225v418h331l99 397h417l-98 -397h287l98 397h418l-98 -397h217v-418h-320l-78 -307h217v-418h-323l-103 -413h-417l102 413h-291l-102 -413h-418l102 413h-221v418h328zM1208 1720h-286l-78 -307h4h4h4h4h4h4h4h5h4h4h4h4h4h4h8h4h5h4h4h8h4h4h8h4h4h9h4h8h4 h8h4h9h4h8h8h4h8h8h5h8h8h4h8h8h9h36z" />
<glyph unicode="$" d="M893 -29q-541 45 -787 500l406 229q77 -134 160 -206q84 -73 221 -97v4v5v4v4v4v4v4v4v4v4v4v4v5v4v4v4v4v4v4v4v4v4v9v4v4v4v4v4v8v4v4v5v4v8v4v4v8v4v4v9v4v8v4v4v8v4v9v4v8v4v8v4v8v5v8v8v4v8v4v9v8v4v8v8v4v8v9v4v8v8v8v4v9v8v8v8v4v8v9v37q-369 114 -522 276 q-154 163 -154 412t172 415q173 167 504 191v414h274v-422q360 -52 590 -361l-356 -270q-107 156 -234 201v-410q705 -217 705 -717q0 -594 -705 -639v-442h-274v446zM893 1757q-176 -29 -176 -155q0 -74 39 -119t137 -82v356zM1167 397q193 33 193 181t-193 217v-4v-5v-4 v-4v-4v-4v-4v-4v-4v-4v-4v-5v-4v-4v-4v-4v-8v-4v-4v-4v-4v-5v-4v-4v-8v-4v-4v-4v-8v-5v-4v-8v-4v-4v-8v-4v-9v-4v-4v-8v-4v-8v-4v-8v-9v-4v-8v-4v-8v-4v-9v-8v-4v-8v-8v-4v-8v-9v-8v-4v-8v-8v-9v-4v-8v-37z" />
<glyph unicode="%" horiz-adv-x="3072" d="M655 889q-259 0 -428 180q-170 181 -170 463q0 277 170 461q169 182 428 182q255 0 424 -182q170 -184 170 -461t-170 -461q-169 -182 -424 -182zM586 0l1351 2138h545l-1352 -2138h-544zM2421 -37q-259 0 -428 180q-170 181 -170 463q0 277 170 461q169 182 428 182 q255 0 424 -182q170 -184 170 -461t-170 -461q-169 -182 -424 -182zM655 1286q164 0 164 246t-164 246q-163 0 -163 -246t163 -246zM2421 360q164 0 164 246t-164 246t-164 -246t164 -246z" />
<glyph unicode="&#x26;" horiz-adv-x="2433" d="M1356 1151l315 -381q81 145 86 356h475q-5 -422 -250 -733l328 -393h-622l-78 94q-251 -131 -545 -131q-428 0 -664 184q-237 185 -237 488q0 209 117 342q116 133 387 256q-136 207 -136 422q0 226 173 373t462 147q271 0 437 -139q165 -138 165 -373q0 -307 -413 -512z M1126 1430q185 95 185 217q0 57 -39 96t-105 39q-64 0 -108 -41q-43 -40 -43 -99q0 -86 106 -208zM1315 446l-426 512q-176 -95 -176 -282q0 -123 100 -199t256 -76q123 0 246 45z" />
<glyph unicode="'" horiz-adv-x="884" d="M209 1774l-62 1011h590l-61 -1011h-467z" />
<glyph unicode="(" horiz-adv-x="1228" d="M803 -270q-321 333 -506 712q-186 381 -186 934q0 554 186 936q187 384 506 711l340 -258q-238 -314 -344 -631q-107 -321 -107 -758q0 -432 107 -755q106 -320 344 -633z" />
<glyph unicode=")" horiz-adv-x="1228" d="M426 -270l-340 258q238 313 344 633q107 323 107 755q0 437 -107 758q-106 317 -344 631l340 258q319 -327 506 -711q186 -382 186 -936q0 -553 -186 -934q-185 -379 -506 -712z" />
<glyph unicode="*" horiz-adv-x="1740" d="M627 1475l118 454l-335 -336l-238 410l463 127l-463 127l238 409l335 -335l-118 454h483l-119 -454l336 335l242 -409l-475 -127l475 -127l-242 -410l-336 336l119 -454h-483z" />
<glyph unicode="+" d="M1270 848v-533h-496v533h-516v483h516v533h496v-533h516v-483h-516z" />
<glyph unicode="," horiz-adv-x="819" d="M119 -471l155 491q-196 90 -196 295q0 137 98 228q100 92 234 92t231 -92q96 -91 96 -236q0 -111 -119 -332l-237 -446h-262z" />
<glyph unicode="-" horiz-adv-x="1236" d="M147 745v492h943v-492h-943z" />
<glyph unicode="." horiz-adv-x="819" d="M410 -25q-139 0 -236 95q-96 94 -96 237q0 145 96 236q97 92 236 92q134 0 231 -92q96 -91 96 -236q0 -143 -96 -237q-97 -95 -231 -95z" />
<glyph unicode="/" horiz-adv-x="1654" d="M-66 -524l1143 3481h541l-1143 -3481h-541z" />
<glyph unicode="0" d="M1024 -37q-410 0 -664 305t-254 805q0 504 254 803t664 299q414 0 666 -299q252 -298 252 -803q0 -500 -254 -805t-664 -305zM1024 455q332 0 332 618q0 610 -332 610t-332 -610q0 -618 332 -618z" />
<glyph unicode="1" d="M782 459v1220h-442v459h1003v-1679h439v-459h-1475v459h475z" />
<glyph unicode="2" d="M90 0v45l860 901q279 291 279 500q0 102 -60 164q-60 61 -174 61q-217 0 -340 -307l-503 139q83 316 307 494t557 178q356 0 569 -195t213 -510q0 -333 -368 -720l-132 -140q-67 -70 -192 -151q127 16 233 16h459v-475h-1708z" />
<glyph unicode="3" d="M999 -37q-658 0 -888 541l475 221q58 -129 145 -197q89 -69 248 -69q146 0 231 80q84 79 84 206q0 132 -92 218t-260 86q-169 0 -303 -54l-25 37l295 438q61 89 197 213q-202 -28 -311 -28h-484v483h1557v-45l-344 -504q-39 -54 -84 -98q-43 -42 -76 -66l-29 -20 q241 -61 387 -240t146 -456q0 -361 -248 -553q-249 -193 -621 -193z" />
<glyph unicode="4" d="M1642 705h263v-439h-263v-266h-532v266h-999v430l1486 1463h45v-1454zM1135 680v242l20 258q-101 -129 -172 -197l-188 -176q-40 -35 -86 -70q-40 -30 -82 -57l-33 -21q135 21 246 21h295z" />
<glyph unicode="5" d="M1008 -37q-321 0 -547 143q-227 144 -334 345l463 254q135 -246 389 -246q135 0 223 73t88 193q0 135 -102 209q-103 74 -295 74q-271 0 -537 -152l-32 16v1266h1347v-479h-876v-250q84 37 233 37q390 0 610 -201q222 -202 222 -532q0 -339 -234 -545 q-233 -205 -618 -205z" />
<glyph unicode="6" d="M1020 -37q-380 0 -627 230q-246 229 -246 561q0 269 226 606l528 778h627l-303 -438q-42 -58 -97 -115q-66 -67 -96 -94l-41 -33q69 21 148 21q318 0 538 -203q219 -202 219 -526q0 -333 -245 -560t-631 -227zM1016 451q155 0 233 90t78 217q0 136 -76 221 q-77 86 -235 86q-148 0 -232 -88q-84 -89 -84 -219q0 -123 86 -215t230 -92z" />
<glyph unicode="7" d="M324 0l786 1655h-942v483h1749v-45l-987 -2093h-606z" />
<glyph unicode="8" d="M573 1253q-229 135 -229 385q0 234 201 385q202 152 479 152q278 0 477 -152t199 -385q0 -250 -225 -385q405 -168 405 -557q0 -319 -235 -526t-621 -207q-384 0 -618 207t-234 526q0 389 401 557zM1024 1413q74 0 123 43t49 117t-49 117t-123 43t-123 -43t-49 -117 t49 -117t123 -43zM1024 438q127 0 205 82t78 205t-78 205t-205 82t-205 -82t-78 -205t78 -205t205 -82z" />
<glyph unicode="9" d="M467 0l340 438q43 61 100 119q59 60 101 90l36 33q-62 -21 -135 -21q-323 0 -544 203q-222 204 -222 527q0 328 250 557t635 229q382 0 627 -229q246 -230 246 -562q0 -306 -246 -630l-570 -754h-618zM1032 1073q148 0 232 88q84 89 84 219q0 123 -86 215q-87 93 -230 93 q-154 0 -237 -91q-82 -89 -82 -217q0 -130 80 -219q79 -88 239 -88z" />
<glyph unicode=":" horiz-adv-x="819" d="M410 934q-141 0 -236 94q-96 94 -96 238q0 139 98 233t234 94t231 -94q96 -95 96 -233q0 -144 -96 -238q-95 -94 -231 -94zM410 -25q-139 0 -236 95q-96 94 -96 237q0 145 96 236q97 92 236 92q134 0 231 -92q96 -91 96 -236q0 -143 -96 -237q-97 -95 -231 -95z" />
<glyph unicode=";" horiz-adv-x="819" d="M410 934q-141 0 -236 94q-96 94 -96 238q0 139 98 233t234 94t231 -94q96 -95 96 -233q0 -144 -96 -238q-95 -94 -231 -94zM119 -471l155 491q-196 90 -196 295q0 137 98 228q100 92 234 92t231 -92q96 -91 96 -236q0 -111 -119 -332l-237 -446h-262z" />
<glyph unicode="&#x37e;" horiz-adv-x="819" d="M410 934q-141 0 -236 94q-96 94 -96 238q0 139 98 233t234 94t231 -94q96 -95 96 -233q0 -144 -96 -238q-95 -94 -231 -94zM119 -471l155 491q-196 90 -196 295q0 137 98 228q100 92 234 92t231 -92q96 -91 96 -236q0 -111 -119 -332l-237 -446h-262z" />
<glyph unicode="&#x3c;" d="M1667 213l-1425 766v41l1425 758v-480l-602 -303l602 -303v-479z" />
<glyph unicode="=" d="M246 1143v471h1556v-471h-1556zM246 471v471h1556v-471h-1556z" />
<glyph unicode="&#x3e;" d="M381 213v479l602 303l-602 303v480l1425 -766v-41z" />
<glyph unicode="?" horiz-adv-x="2101" d="M713 946v651h188q237 0 348 111t111 279q0 134 -96 239t-248 105q-160 0 -256 -66q-95 -65 -178 -201l-443 258q230 500 877 500q417 0 663 -246t246 -589q0 -333 -180 -541t-516 -258v-242h-516zM967 -25q-144 0 -246 99q-103 100 -103 250q0 145 103 245q102 99 246 99 q139 0 241 -99q103 -100 103 -245q0 -151 -101 -250q-100 -99 -243 -99z" />
<glyph unicode="@" horiz-adv-x="3788" d="M1954 -848q-786 0 -1290 447t-504 1208q0 492 248 881t651 596q402 206 870 206q763 0 1231 -417q469 -418 469 -1106q0 -480 -197 -734q-196 -253 -561 -253q-439 0 -569 315q-168 -332 -557 -332q-306 0 -512 230q-205 229 -205 585q0 357 205 590q205 234 504 234 q307 0 442 -246l-8 205h532v-922q0 -136 43 -197t146 -61q270 0 270 577q0 566 -323 840q-325 275 -910 275q-565 0 -915 -347t-350 -915q0 -579 333 -909q335 -332 949 -332q324 0 651 115l172 -385q-375 -148 -815 -148zM1901 410q123 0 202 106q80 107 80 262t-80 262 t-202 107q-140 0 -224 -100q-84 -101 -84 -269t84 -268t224 -100z" />
<glyph unicode="A" horiz-adv-x="2719" d="M86 0l1225 2810h49l1274 -2810h-602l-131 315h-1131l-131 -315h-553zM963 795h733l-201 483q-36 83 -78 211q-45 139 -65 207l-25 82q-85 -311 -164 -500z" />
<glyph unicode="B" horiz-adv-x="2498" d="M291 0v2785h1077q376 0 594 -207q217 -207 217 -514q0 -384 -393 -512q565 -135 565 -692q0 -380 -252 -620t-682 -240h-1126zM864 1757h443q139 0 223 72t84 190q0 124 -74 193t-205 69h-471v-524zM864 504h529q171 0 276 106t105 279q0 171 -111 276t-303 105h-496 v-766z" />
<glyph unicode="C" horiz-adv-x="2928" d="M1630 -37q-602 0 -1018 408q-415 408 -415 1022q0 616 413 1020q414 405 1020 405q750 0 1114 -569l-438 -312q-225 365 -676 365q-372 0 -608 -258q-236 -259 -236 -651q0 -393 236 -656q235 -262 608 -262q253 0 420 107q166 106 297 303l446 -307 q-393 -615 -1163 -615z" />
<glyph unicode="D" horiz-adv-x="2805" d="M291 0v2785h856q643 0 1055 -389q411 -388 411 -1003q0 -616 -409 -1004q-410 -389 -1057 -389h-856zM864 504h254q446 0 674 241q227 240 227 648q0 407 -227 647q-228 241 -674 241h-254v-1777z" />
<glyph unicode="E" horiz-adv-x="2433" d="M291 0v2785h1843v-504h-1270v-884h1118v-492h-1118v-401h1327v-504h-1900z" />
<glyph unicode="F" horiz-adv-x="2277" d="M291 0v2785h1794v-504h-1221v-921h1110v-512h-1110v-848h-573z" />
<glyph unicode="G" horiz-adv-x="3026" d="M1708 -37q-675 0 -1094 404q-417 402 -417 1026q0 623 397 1024t1024 401q676 0 1012 -385l-389 -385q-116 120 -259 188q-140 66 -364 66q-373 0 -602 -256q-230 -257 -230 -653q0 -402 246 -660t676 -258q334 0 545 103v409h-672v504h1196v-1204q-148 -124 -436 -224 t-633 -100z" />
<glyph unicode="H" horiz-adv-x="2920" d="M291 0v2785h573v-1425h1192v1425h574v-2785h-574v848h-1192v-848h-573z" />
<glyph unicode="I" horiz-adv-x="1175" d="M303 0v2785h574v-2785h-574z" />
<glyph unicode="J" horiz-adv-x="2031" d="M913 -37q-614 0 -860 524l467 283q61 -109 94 -154q38 -52 109 -96q72 -45 166 -45q151 0 229 78t78 283v1949h573v-1958q0 -430 -229 -647t-627 -217z" />
<glyph unicode="K" horiz-adv-x="2658" d="M827 1356q129 289 238 434l737 995h652l-934 -1261l1048 -1524h-692l-741 1094l-271 -324v-770h-573v2785h573v-962q0 -156 -37 -467z" />
<glyph unicode="L" horiz-adv-x="2297" d="M291 0v2785h573v-2281h1262v-504h-1835z" />
<glyph unicode="M" horiz-adv-x="3399" d="M291 0v2814h45l1372 -1507l1352 1507h49v-2814h-553v1044l20 488q-166 -244 -299 -393l-553 -619h-53l-553 619q-60 69 -133 164q-84 109 -121 163l-45 66q21 -298 21 -488v-1044h-549z" />
<glyph unicode="N" horiz-adv-x="2871" d="M2523 -25l-1405 1319q-54 50 -145 154q-84 96 -137 162l-50 65q41 -311 41 -508v-1167h-536v2810h57l1405 -1319q54 -50 143 -152q105 -120 136 -159l49 -70q-37 311 -37 508v1167h536v-2810h-57z" />
<glyph unicode="O" horiz-adv-x="3276" d="M1638 -37q-606 0 -1024 408q-417 407 -417 1022t417 1022t1024 407t1024 -407q418 -408 418 -1022t-418 -1022t-1024 -408zM1638 475q378 0 615 262q237 263 237 656t-237 655t-615 262q-377 0 -614 -262q-238 -264 -238 -655q0 -392 238 -656q237 -262 614 -262z" />
<glyph unicode="P" horiz-adv-x="2461" d="M291 0v2785h770q582 0 913 -286q332 -287 332 -791q0 -503 -332 -788t-913 -285h-197v-635h-573zM864 1139h180q348 0 510 141t162 428q0 573 -672 573h-180v-1142z" />
<glyph unicode="Q" horiz-adv-x="3276" d="M2687 393l389 -446l-381 -316l-414 475q-305 -143 -643 -143q-606 0 -1024 408q-417 407 -417 1022t417 1022t1024 407t1024 -407q418 -408 418 -1022q0 -595 -393 -1000zM1921 516l-332 381l385 315l353 -405q163 233 163 586q0 393 -237 655t-615 262q-377 0 -614 -262 q-238 -264 -238 -655q0 -392 238 -656q237 -262 614 -262q158 0 283 41z" />
<glyph unicode="R" horiz-adv-x="2514" d="M1769 868l578 -868h-664l-458 705q-85 -13 -164 -13h-197v-692h-573v2785h770q591 0 917 -272q328 -274 328 -780q0 -623 -537 -865zM864 1192h180q357 0 515 125q157 124 157 416q0 290 -162 419t-510 129h-180v-1089z" />
<glyph unicode="S" horiz-adv-x="2199" d="M1094 -37q-379 0 -645 160q-264 159 -400 426l467 270q213 -348 565 -348q176 0 283 80q106 79 106 203q0 95 -57 164t-129 108q-81 44 -231 109l-144 61q-340 147 -514 342t-174 522q0 328 232 543t608 215q279 0 477 -108q197 -108 338 -351l-446 -286 q-134 245 -369 245q-123 0 -199 -69t-76 -176q0 -124 78 -193q81 -72 275 -156l143 -61q397 -172 580 -367q182 -194 182 -534q0 -376 -264 -588q-263 -211 -686 -211z" />
<glyph unicode="T" horiz-adv-x="2424" d="M926 0v2281h-795v504h2163v-504h-795v-2281h-573z" />
<glyph unicode="U" horiz-adv-x="2809" d="M1409 -37q-504 0 -817 268t-313 777v1777h573v-1745q0 -300 133 -430q134 -131 424 -131q287 0 418 131t131 430v1745h573v-1777q0 -509 -311 -777t-811 -268z" />
<glyph unicode="V" horiz-adv-x="2719" d="M1356 -25l-1270 2810h614l480 -1073q104 -232 217 -631q107 391 213 631l467 1073h557l-1221 -2810h-57z" />
<glyph unicode="W" horiz-adv-x="3923" d="M1118 -25l-1028 2810h606l406 -1118l147 -504q83 317 172 504l537 1143h57l545 -1143q89 -187 172 -504q78 312 147 504l402 1118h557l-1012 -2810h-57l-627 1344q-26 55 -71 172l-64 172l-20 70q-83 -251 -160 -414l-651 -1344h-58z" />
<glyph unicode="X" horiz-adv-x="2703" d="M111 0l909 1532l-758 1253h651l283 -479q34 -56 82 -158l74 -157l28 -66q79 239 160 381l270 479h611l-746 -1257l926 -1528h-655l-439 741q-33 59 -86 164t-78 164l-28 66q-85 -244 -172 -394l-430 -741h-602z" />
<glyph unicode="Y" horiz-adv-x="2793" d="M1143 0v885l-1057 1900h635l491 -897q50 -86 105 -219l88 -219l33 -90q112 330 217 528l471 897h586l-992 -1859v-926h-577z" />
<glyph unicode="Z" horiz-adv-x="2416" d="M111 0v49l1278 2232h-1053v504h1937v-49l-1274 -2232h1205v-504h-2093z" />
<glyph unicode="[" horiz-adv-x="1228" d="M168 -254v3252h971v-467h-418v-2318h418v-467h-971z" />
<glyph unicode="\" horiz-adv-x="1650" d="M1126 -254l-1142 3252h540l1143 -3252h-541z" />
<glyph unicode="]" horiz-adv-x="1228" d="M86 -254v467h418v2318h-418v467h971v-3252h-971z" />
<glyph unicode="^" horiz-adv-x="1798" d="M221 1831l656 983h45l655 -983h-442l-238 291l-233 -291h-443z" />
<glyph unicode="_" horiz-adv-x="1159" d="M-8 -524v491h1175v-491h-1175z" />
<glyph unicode="`" d="M811 2048l-426 770h631l213 -770h-418z" />
<glyph unicode="a" horiz-adv-x="2211" d="M78 0l1003 2163h45l1008 -2163h-578l-73 172h-791l-74 -172h-540zM844 549h499l-90 213q-90 210 -159 450q-57 -230 -156 -450z" />
<glyph unicode="b" horiz-adv-x="2097" d="M229 0v2138h893q304 0 480 -153t176 -379q0 -320 -279 -422q213 -50 326 -197q112 -146 112 -369q0 -291 -202 -454q-203 -164 -551 -164h-955zM766 1356h307q74 0 121 47t47 121q0 72 -47 116q-46 43 -121 43h-307v-327zM766 459h381q111 0 176 65q66 66 66 172t-66 174 t-176 68h-381v-479z" />
<glyph unicode="c" horiz-adv-x="2408" d="M1303 -37q-513 0 -820 313t-307 793q0 479 309 793q309 313 801 313q615 0 914 -467l-443 -295q-168 270 -471 270q-250 0 -395 -172q-146 -173 -146 -442t150 -442q150 -172 403 -172q370 0 517 303l450 -258q-123 -250 -373 -394q-249 -143 -589 -143z" />
<glyph unicode="d" horiz-adv-x="2289" d="M229 0v2138h770q483 0 799 -293t316 -776q0 -478 -316 -774q-314 -295 -799 -295h-770zM786 483h185q573 0 573 586q0 279 -141 432q-142 154 -432 154h-185v-1172z" />
<glyph unicode="e" horiz-adv-x="1966" d="M229 0v2138h1520v-479h-963v-463h803v-455h-803v-262h1004v-479h-1561z" />
<glyph unicode="f" horiz-adv-x="1880" d="M229 0v2138h1487v-487h-930v-508h832v-488h-832v-655h-557z" />
<glyph unicode="g" horiz-adv-x="2396" d="M1356 -37q-540 0 -860 309t-320 797t324 797t803 309q516 0 819 -320l-357 -368q-172 196 -462 196q-258 0 -408 -176q-150 -175 -150 -438q0 -283 146 -459t465 -176q185 0 332 58v245h-435v447h942v-1008q-114 -80 -344 -147q-225 -66 -495 -66z" />
<glyph unicode="h" horiz-adv-x="2363" d="M229 0v2138h557v-995h791v995h557v-2138h-557v647h-791v-647h-557z" />
<glyph unicode="i" horiz-adv-x="1032" d="M238 0v2138h557v-2138h-557z" />
<glyph unicode="j" horiz-adv-x="1736" d="M782 -37q-523 0 -729 455l451 254q45 -85 74 -125q31 -42 77 -70q51 -31 115 -31q193 0 193 238v1454h557v-1470q0 -360 -201 -533q-200 -172 -537 -172z" />
<glyph unicode="k" horiz-adv-x="2269" d="M741 1044q160 302 295 492l443 602h610l-729 -950l827 -1188h-659l-549 799l-193 -221v-578h-557v2138h557v-557q0 -210 -45 -537z" />
<glyph unicode="l" horiz-adv-x="1892" d="M229 0v2138h557v-1655h943v-483h-1500z" />
<glyph unicode="m" horiz-adv-x="2686" d="M229 0v2167h41l1082 -1147l1061 1147h41v-2167h-537v651l29 418q-134 -207 -279 -364l-303 -332h-41l-311 332q-64 67 -133 159q-62 83 -105 148l-37 57q29 -246 29 -418v-651h-537z" />
<glyph unicode="n" horiz-adv-x="2277" d="M2003 -33l-995 860q-165 144 -308 320q41 -278 41 -451v-696h-512v2167h45l988 -852q73 -62 153 -148l117 -127l37 -49q-33 279 -33 455v692h512v-2171h-45z" />
<glyph unicode="o" horiz-adv-x="2654" d="M1327 -37q-480 0 -815 313q-336 314 -336 793q0 483 336 795q335 311 815 311t815 -311q336 -312 336 -795q0 -479 -336 -793q-335 -313 -815 -313zM1327 455q258 0 420 170q162 169 162 444q0 269 -162 442q-162 172 -420 172t-420 -172q-162 -173 -162 -442 q0 -275 162 -444q162 -170 420 -170z" />
<glyph unicode="p" horiz-adv-x="2068" d="M229 0v2138h701q458 0 727 -219q268 -219 268 -621q0 -397 -268 -616q-269 -219 -727 -219h-144v-463h-557zM786 942h132q220 0 327 84t107 272q0 357 -434 357h-132v-713z" />
<glyph unicode="q" horiz-adv-x="2654" d="M2081 -315l-307 360q-212 -82 -447 -82q-480 0 -815 313q-336 314 -336 793q0 483 336 795q335 311 815 311t815 -311q336 -312 336 -795q0 -463 -315 -770l278 -324zM1327 438q29 0 107 8l-230 267l361 291l258 -304q86 148 86 369q0 269 -162 442q-162 172 -420 172 t-420 -172q-162 -173 -162 -442q0 -279 162 -455t420 -176z" />
<glyph unicode="r" horiz-adv-x="2117" d="M1556 668l410 -668h-627l-299 516q-25 -4 -86 -4h-168v-512h-557v2138h725q448 0 713 -205q266 -206 266 -614q0 -454 -377 -651zM786 983h156q222 0 322 78t100 258q0 181 -100 260q-101 80 -322 80h-156v-676z" />
<glyph unicode="s" horiz-adv-x="1880" d="M942 -37q-316 0 -547 135q-230 135 -342 361l434 254q159 -279 447 -279q114 0 188 41t74 115t-61 119t-230 114l-90 37q-294 118 -442 275t-148 421q0 280 195 449q196 170 506 170q236 0 403 -84q165 -83 293 -285l-422 -241q-94 151 -258 151q-81 0 -133 -41 q-51 -41 -51 -110q0 -55 33 -95q33 -41 71 -61q30 -16 117 -53l90 -37q343 -139 512 -293q168 -153 168 -432q0 -298 -215 -465q-214 -166 -592 -166z" />
<glyph unicode="t" horiz-adv-x="2068" d="M754 0v1655h-607v483h1774v-483h-606v-1655h-561z" />
<glyph unicode="u" horiz-adv-x="2277" d="M1143 -37q-421 0 -674 230q-252 229 -252 651v1294h557v-1286q0 -393 365 -393q364 0 364 393v1286h557v-1294q0 -422 -252 -651q-253 -230 -665 -230z" />
<glyph unicode="v" horiz-adv-x="2220" d="M1090 -29l-1020 2167h614l274 -622q51 -117 95 -248q44 -130 61 -211l21 -74q67 288 176 533l274 622h565l-1011 -2167h-49z" />
<glyph unicode="w" horiz-adv-x="3072" d="M901 -29l-831 2167h598l241 -659q36 -103 68 -213q32 -112 51 -189l16 -69q56 253 160 475l324 680h45l336 -680q45 -92 92 -221q40 -108 59 -189l17 -65q57 250 135 471l237 659h553l-819 -2167h-49l-414 815q-94 189 -168 447q-69 -258 -168 -447l-434 -815h-49z" />
<glyph unicode="x" horiz-adv-x="2322" d="M82 0l729 1184l-602 954h622l177 -299q103 -174 155 -381q68 213 160 381l168 299h594l-594 -958l750 -1180h-631l-267 426q-120 192 -204 430q-83 -237 -197 -430l-258 -426h-602z" />
<glyph unicode="y" horiz-adv-x="2240" d="M856 0v700l-795 1438h635l258 -491q115 -219 197 -537q86 330 192 537l246 491h590l-766 -1429v-709h-557z" />
<glyph unicode="z" horiz-adv-x="2031" d="M131 0v45l913 1614h-753v479h1601v-45l-913 -1614h848v-479h-1696z" />
<glyph unicode="{" horiz-adv-x="1228" d="M950 -254q-647 0 -647 590v377q0 145 -55 207q-56 63 -178 63h-74v467h74q122 0 178 63q55 62 55 207v688q0 590 647 590h193v-467h-144q-82 0 -110 -32q-29 -34 -29 -107v-741q0 -373 -381 -434q381 -61 381 -435v-430q0 -72 29 -106q29 -33 110 -33h144v-467h-193z" />
<glyph unicode="|" horiz-adv-x="1138" d="M303 -258v3256h533v-3256h-533z" />
<glyph unicode="}" horiz-adv-x="1228" d="M86 -254v467h143q83 0 111 33q29 34 29 106v430q0 374 381 435q-381 61 -381 434v741q0 73 -29 107q-28 32 -111 32h-143v467h193q647 0 647 -590v-688q0 -145 55 -207q55 -63 178 -63h74v-467h-74q-123 0 -178 -63q-55 -62 -55 -207v-377q0 -590 -647 -590h-193z" />
<glyph unicode="~" horiz-adv-x="1671" d="M508 840l-373 37q17 279 141 426t314 147q128 0 258 -82l59 -39l54 -35q20 -13 40 -20q24 -8 43 -8q103 0 119 184l373 -37q-17 -280 -139 -426q-123 -147 -316 -147q-128 0 -258 82l-59 39l-51 34q-20 14 -41 21q-26 8 -45 8q-103 0 -119 -184z" />
<glyph unicode="&#xa1;" horiz-adv-x="1159" d="M578 2810q144 0 245 -98q103 -100 103 -250q0 -146 -103 -246q-101 -98 -245 -98q-141 0 -242 98q-103 100 -103 246q0 151 101 250q99 98 244 98zM799 1839l90 -1839h-619l90 1839h439z" />
<glyph unicode="&#xa2;" d="M1294 -29v-446h-274v446q-332 45 -545 269t-213 542q0 324 213 549t545 266v410h274v-410q357 -45 549 -299l-356 -307q-79 115 -193 148v-713q118 28 217 135l344 -315q-221 -242 -561 -275zM1020 438v692q-213 -82 -213 -348t213 -344z" />
<glyph unicode="&#xa3;" d="M623 872h-381v361h196q-61 155 -61 299q0 286 201 465q200 178 561 178q548 0 749 -397l-442 -267q-94 189 -279 189q-204 0 -204 -217q0 -83 61 -250h549v-361h-414q33 -123 33 -249q0 -37 -8 -115q134 -49 246 -49q146 0 253 119l332 -357q-112 -137 -239 -198 q-124 -60 -306 -60q-234 0 -475 180q-189 -180 -458 -180q-209 0 -338 111t-129 282q0 172 112 283t297 111q89 0 205 -29q-25 75 -61 151zM688 393q-84 58 -164 58q-110 0 -110 -82q0 -41 30 -74t80 -33q114 0 164 131z" />
<glyph unicode="&#xa4;" d="M266 1130h-184v332h4h4h4h4h4h4h5h4h4h4h4h4h4h4h4h9h4h4h8h4h4h8h4h9h4h8h4h8h8h4h9h8h4h8h8h4h41q99 333 336 523q236 190 570 190q495 0 753 -381l-381 -291q-75 113 -155 158q-83 47 -209 47q-249 0 -348 -246h475v-332h-533v-57v-86h533v-332h-471q95 -221 352 -221 q221 0 365 250l417 -254q-258 -467 -786 -467q-326 0 -567 187q-239 185 -338 505h-246v332h184v86v57z" />
<glyph unicode="&#xa5;" d="M750 0v299h-594v356h594v86l-29 58h-565v356h385l-496 983h627l246 -549q42 -94 71 -200q33 -122 43 -177l8 -69q40 243 131 446l250 549h578l-488 -983h390v-356h-566l-28 -58v-86h594v-356h-594v-299h-557z" />
<glyph unicode="&#xa6;" horiz-adv-x="995" d="M512 709q-145 0 -246 98q-102 99 -102 250q0 147 102 246q101 98 246 98q141 0 242 -98q102 -99 102 -246q0 -151 -100 -250q-99 -98 -244 -98z" />
<glyph unicode="&#xa7;" d="M549 1180q-152 157 -152 417q0 251 178 414q179 164 486 164q410 0 627 -311l-410 -267q-78 119 -193 119q-131 0 -131 -102q0 -78 119 -131l365 -164q430 -192 430 -520q0 -299 -348 -451q151 -172 151 -381q0 -271 -188 -420t-529 -149q-250 0 -458 108 q-210 109 -312 281l422 274q110 -200 303 -200q185 0 185 98q0 65 -107 115l-422 188q-385 172 -385 479q0 321 369 439zM1241 549q115 45 115 127q0 40 -23 74q-21 31 -47 47q-13 8 -74 34l-393 177h-4q-4 4 -8 4q-53 -8 -86 -41t-33 -82q0 -89 107 -139l438 -197q4 0 4 -2 t4 -2z" />
<glyph unicode="&#xa8;" d="M1470 2073q-122 0 -217 92q-94 91 -94 219t94 219q95 92 217 92q123 0 218 -92q94 -91 94 -219t-94 -219q-95 -92 -218 -92zM578 2073q-123 0 -218 92q-94 91 -94 219t94 219q95 92 218 92q122 0 217 -92q94 -91 94 -219t-94 -219q-95 -92 -217 -92z" />
<glyph unicode="&#xa9;" horiz-adv-x="2433" d="M1225 -20q-452 0 -779 315t-327 782q0 468 327 783t779 315q447 0 768 -315t321 -783q0 -467 -321 -782t-768 -315zM1225 221q351 0 594 238q241 237 241 618q0 382 -241 619t-594 237q-361 0 -607 -237q-245 -236 -245 -619q0 -382 245 -618q247 -238 607 -238z M1245 475q-278 0 -454 170q-177 171 -177 432q0 267 174 439q173 172 441 172q301 0 508 -222l-291 -270q-69 90 -180 90q-185 0 -185 -209q0 -88 52 -149q51 -60 141 -60q114 0 176 86l295 -258q-189 -221 -500 -221z" />
<glyph unicode="&#xaa;" horiz-adv-x="1753" d="M1065 1540q-12 225 -234 225q-187 0 -331 -135l-299 283q262 262 692 262q291 0 481 -168q191 -168 191 -496v-847h-500l12 184q-152 -221 -422 -221q-230 0 -379 118t-149 345q0 221 164 335q165 115 434 115h340zM1065 1245h-295q-147 0 -147 -119q0 -49 43 -82 q42 -32 125 -32q139 0 206 55q68 56 68 137v41z" />
<glyph unicode="&#xab;" horiz-adv-x="2064" d="M1401 131l-389 688v33l389 676h532l-401 -692l401 -705h-532zM520 131l-389 688v33l389 676h533l-402 -692l402 -705h-533z" />
<glyph unicode="&#xac;" horiz-adv-x="995" d="M512 709q-145 0 -246 98q-102 99 -102 250q0 147 102 246q101 98 246 98q141 0 242 -98q102 -99 102 -246q0 -151 -100 -250q-99 -98 -244 -98z" />
<glyph unicode="&#xad;" horiz-adv-x="1236" d="M147 745v492h943v-492h-943z" />
<glyph unicode="&#xae;" horiz-adv-x="2060" d="M1024 1036q-380 0 -643 254q-262 253 -262 639q0 389 262 641q263 252 643 252q386 0 651 -252q267 -253 267 -641q0 -384 -267 -639q-266 -254 -651 -254zM1024 1233q308 0 504 186t196 502q0 327 -196 516t-504 189q-304 0 -496 -189t-192 -516q0 -316 192 -502 t496 -186zM1290 1761l152 -274h-279l-110 221h-103v-221h-270v889h381q172 0 274 -99q103 -100 103 -229q0 -192 -148 -287zM950 1921h119q102 0 102 115q0 54 -32 80t-70 26h-119v-221z" />
<glyph unicode="&#xaf;" d="M524 2154v406h1000v-406h-1000z" />
<glyph unicode="&#x2c9;" d="M524 2154v406h1000v-406h-1000z" />
<glyph unicode="&#xb0;" horiz-adv-x="1359" d="M680 1098q-235 0 -404 157q-170 158 -170 383q0 230 168 383q169 154 406 154q236 0 405 -154q168 -153 168 -383q0 -226 -168 -383q-167 -157 -405 -157zM680 1425q90 0 147 60q58 61 58 153q0 94 -58 152q-57 57 -147 57q-91 0 -148 -57t-57 -152q0 -93 57 -153 t148 -60z" />
<glyph unicode="&#xb2;" horiz-adv-x="995" d="M512 709q-145 0 -246 98q-102 99 -102 250q0 147 102 246q101 98 246 98q141 0 242 -98q102 -99 102 -246q0 -151 -100 -250q-99 -98 -244 -98z" />
<glyph unicode="&#xb3;" horiz-adv-x="995" d="M512 709q-145 0 -246 98q-102 99 -102 250q0 147 102 246q101 98 246 98q141 0 242 -98q102 -99 102 -246q0 -151 -100 -250q-99 -98 -244 -98z" />
<glyph unicode="&#xb4;" d="M819 2048l213 770h631l-426 -770h-418z" />
<glyph unicode="&#xb5;" horiz-adv-x="995" d="M512 709q-145 0 -246 98q-102 99 -102 250q0 147 102 246q101 98 246 98q141 0 242 -98q102 -99 102 -246q0 -151 -100 -250q-99 -98 -244 -98z" />
<glyph unicode="&#x3bc;" horiz-adv-x="995" d="M512 709q-145 0 -246 98q-102 99 -102 250q0 147 102 246q101 98 246 98q141 0 242 -98q102 -99 102 -246q0 -151 -100 -250q-99 -98 -244 -98z" />
<glyph unicode="&#xb6;" horiz-adv-x="2899" d="M1249 0v995h-135q-467 0 -725 252t-258 629t260 643t723 266h1495v-2785h-545v2306h-270v-2306h-545zM1130 1475h119v831h-119q-172 0 -282 -104q-111 -105 -111 -310q0 -208 111 -313q110 -104 282 -104z" />
<glyph unicode="&#xb7;" horiz-adv-x="1019" d="M512 709q-145 0 -246 98q-102 99 -102 250q0 147 102 246q101 98 246 98q141 0 242 -98q102 -99 102 -246q0 -151 -100 -250q-99 -98 -244 -98z" />
<glyph unicode="&#x2219;" horiz-adv-x="1019" d="M512 709q-145 0 -246 98q-102 99 -102 250q0 147 102 246q101 98 246 98q141 0 242 -98q102 -99 102 -246q0 -151 -100 -250q-99 -98 -244 -98z" />
<glyph unicode="&#xb8;" d="M1061 -983q-339 0 -483 246l262 159q62 -114 176 -114q61 0 104 37t43 102q0 139 -168 139h-139v414h283v-160q154 -28 260 -137q104 -107 104 -289q0 -175 -133 -286q-134 -111 -309 -111z" />
<glyph unicode="&#xb9;" horiz-adv-x="995" d="M512 709q-145 0 -246 98q-102 99 -102 250q0 147 102 246q101 98 246 98q141 0 242 -98q102 -99 102 -246q0 -151 -100 -250q-99 -98 -244 -98z" />
<glyph unicode="&#xba;" horiz-adv-x="1961" d="M983 623q-348 0 -586 221q-237 220 -237 557q0 333 239 553q241 221 584 221q346 0 582 -223q237 -224 237 -551q0 -337 -237 -557q-238 -221 -582 -221zM983 1044q138 0 223 97q84 96 84 260q0 156 -84 252t-223 96q-144 0 -223 -94q-80 -95 -80 -254q0 -163 80 -260 t223 -97z" />
<glyph unicode="&#xbb;" horiz-adv-x="2064" d="M1012 131l401 692l-401 705h532l389 -688v-33l-389 -676h-532zM131 131l401 692l-401 705h533l389 -688v-33l-389 -676h-533z" />
<glyph unicode="&#xbc;" horiz-adv-x="995" d="M512 709q-145 0 -246 98q-102 99 -102 250q0 147 102 246q101 98 246 98q141 0 242 -98q102 -99 102 -246q0 -151 -100 -250q-99 -98 -244 -98z" />
<glyph unicode="&#xbd;" horiz-adv-x="995" d="M512 709q-145 0 -246 98q-102 99 -102 250q0 147 102 246q101 98 246 98q141 0 242 -98q102 -99 102 -246q0 -151 -100 -250q-99 -98 -244 -98z" />
<glyph unicode="&#xbe;" horiz-adv-x="995" d="M512 709q-145 0 -246 98q-102 99 -102 250q0 147 102 246q101 98 246 98q141 0 242 -98q102 -99 102 -246q0 -151 -100 -250q-99 -98 -244 -98z" />
<glyph unicode="&#xbf;" horiz-adv-x="2101" d="M1135 2810q144 0 245 -98q103 -100 103 -250q0 -146 -103 -246q-101 -98 -245 -98q-141 0 -242 98q-102 99 -102 246q0 151 100 250q99 98 244 98zM1389 1839v-651h-189q-237 0 -348 -111t-111 -278q0 -134 97 -240q95 -104 247 -104q161 0 256 65q97 67 179 201 l442 -258q-230 -500 -877 -500q-417 0 -663 246t-246 590q0 331 180 540t516 258v242h517z" />
<glyph unicode="&#xc0;" horiz-adv-x="2719" d="M1147 3064l-426 770h631l213 -770h-418zM86 0l1225 2810h49l1274 -2810h-602l-131 315h-1131l-131 -315h-553zM963 795h733l-201 483q-36 83 -78 211q-45 139 -65 207l-25 82q-85 -311 -164 -500z" />
<glyph unicode="&#xc1;" horiz-adv-x="2719" d="M1135 3064l213 770h630l-426 -770h-417zM86 0l1225 2810h49l1274 -2810h-602l-131 315h-1131l-131 -315h-553zM963 795h733l-201 483q-36 83 -78 211q-45 139 -65 207l-25 82q-85 -311 -164 -500z" />
<glyph unicode="&#xc2;" horiz-adv-x="2719" d="M659 3064l652 885h45l651 -885h-442l-230 266l-233 -266h-443zM86 0l1225 2810h49l1274 -2810h-602l-131 315h-1131l-131 -315h-553zM963 795h733l-201 483q-36 83 -78 211q-45 139 -65 207l-25 82q-85 -311 -164 -500z" />
<glyph unicode="&#xc3;" horiz-adv-x="2719" d="M999 3064l-372 37q17 279 141 426t313 147q128 0 258 -82l60 -39l53 -35q19 -13 41 -20q24 -8 43 -8q103 0 119 184l373 -37q-16 -278 -140 -426q-123 -147 -315 -147q-128 0 -258 82l-60 39l-51 34q-20 14 -41 21q-26 8 -45 8q-103 0 -119 -184zM86 0l1225 2810h49 l1274 -2810h-602l-131 315h-1131l-131 -315h-553zM963 795h733l-201 483q-36 83 -78 211q-45 139 -65 207l-25 82q-85 -311 -164 -500z" />
<glyph unicode="&#xc4;" horiz-adv-x="2719" d="M1806 3088q-121 0 -217 93q-94 91 -94 219t94 219q95 92 217 92t217 -92t95 -219t-95 -219q-96 -93 -217 -93zM913 3088q-121 0 -217 93q-94 91 -94 219t94 219q95 92 217 92t217 -92t95 -219t-95 -219q-96 -93 -217 -93zM86 0l1225 2810h49l1274 -2810h-602l-131 315 h-1131l-131 -315h-553zM963 795h733l-201 483q-36 83 -78 211q-45 139 -65 207l-25 82q-85 -311 -164 -500z" />
<glyph unicode="&#xc5;" horiz-adv-x="2719" d="M1360 2957q-222 0 -375 144q-154 145 -154 344t154 344q152 143 375 143t375 -143q153 -144 153 -344t-153 -344t-375 -144zM86 0l1225 2810h49l1274 -2810h-602l-131 315h-1131l-131 -315h-553zM1360 3260q77 0 127 50q49 49 49 135t-49 135t-127 49t-127 -49t-49 -135 t49 -135q50 -50 127 -50zM963 795h733l-201 483q-36 83 -78 211q-45 139 -65 207l-25 82q-85 -311 -164 -500z" />
<glyph unicode="&#xc6;" horiz-adv-x="4055" d="M61 0l1913 2785h1782v-504h-1270v-884h1118v-492h-1118v-401h1327v-504h-1900v315h-1032l-213 -315h-607zM1217 811h696v795q0 78 10 172l19 159l12 62q-83 -215 -176 -352z" />
<glyph unicode="&#xc7;" horiz-adv-x="2973" d="M1409 -20q-525 73 -868 466q-344 394 -344 947q0 616 413 1020q414 405 1020 405q750 0 1114 -569l-438 -312q-225 365 -676 365q-372 0 -608 -258q-236 -259 -236 -651q0 -393 236 -656q235 -262 608 -262q253 0 420 107q166 106 297 303l446 -307q-382 -587 -1101 -615 v-123q154 -28 260 -137q104 -107 104 -289q0 -175 -133 -286t-309 -111q-340 0 -484 246l263 159q61 -114 176 -114q61 0 104 37t43 102q0 139 -168 139h-139v394z" />
<glyph unicode="&#xc8;" horiz-adv-x="2433" d="M1057 3064l-426 770h631l213 -770h-418zM291 0v2785h1843v-504h-1270v-884h1118v-492h-1118v-401h1327v-504h-1900z" />
<glyph unicode="&#xc9;" horiz-adv-x="2433" d="M1008 3064l213 770h630l-426 -770h-417zM291 0v2785h1843v-504h-1270v-884h1118v-492h-1118v-401h1327v-504h-1900z" />
<glyph unicode="&#xca;" horiz-adv-x="2433" d="M553 3064l651 885h45l652 -885h-443l-229 266l-234 -266h-442zM291 0v2785h1843v-504h-1270v-884h1118v-492h-1118v-401h1327v-504h-1900z" />
<glyph unicode="&#xcb;" horiz-adv-x="2433" d="M1671 3088q-121 0 -217 93q-94 91 -94 219t94 219q95 92 217 92t217 -92q94 -91 94 -219t-94 -219q-96 -93 -217 -93zM778 3088q-121 0 -217 93q-94 91 -94 219t94 219q95 92 217 92t217 -92t95 -219t-95 -219q-96 -93 -217 -93zM291 0v2785h1843v-504h-1270v-884h1118 v-492h-1118v-401h1327v-504h-1900z" />
<glyph unicode="&#xcc;" horiz-adv-x="1175" d="M373 3064l-426 770h631l213 -770h-418zM303 0v2785h574v-2785h-574z" />
<glyph unicode="&#xcd;" horiz-adv-x="1175" d="M381 3064l213 770h631l-426 -770h-418zM303 0v2785h574v-2785h-574z" />
<glyph unicode="&#xce;" horiz-adv-x="1175" d="M-90 3064l651 885h45l651 -885h-442l-229 266l-234 -266h-442zM303 0v2785h574v-2785h-574z" />
<glyph unicode="&#xcf;" horiz-adv-x="1175" d="M1032 3088q-121 0 -217 93q-94 91 -94 219t94 219q95 92 217 92t217 -92q94 -91 94 -219t-94 -219q-96 -93 -217 -93zM139 3088q-121 0 -217 93q-94 91 -94 219t94 219q95 92 217 92t217 -92t95 -219t-95 -219q-96 -93 -217 -93zM303 0v2785h574v-2785h-574z" />
<glyph unicode="&#xd0;" horiz-adv-x="2805" d="M291 0v975h-242v495h242v1315h856q643 0 1055 -389q411 -388 411 -1003q0 -616 -409 -1004q-410 -389 -1057 -389h-856zM864 504h254q446 0 674 241q227 240 227 648q0 407 -227 647q-228 241 -674 241h-254v-811h619v-495h-619v-471z" />
<glyph unicode="&#xd1;" horiz-adv-x="2871" d="M1106 3064l-373 37q17 279 141 426t314 147q128 0 258 -82l59 -39l54 -35q20 -13 40 -20q24 -8 43 -8q103 0 119 184l373 -37q-17 -280 -139 -426q-123 -147 -316 -147q-128 0 -258 82l-59 39l-51 34q-20 14 -41 21q-26 8 -45 8q-103 0 -119 -184zM2523 -25l-1405 1319 q-54 50 -145 154q-84 96 -137 162l-50 65q41 -311 41 -508v-1167h-536v2810h57l1405 -1319q54 -50 143 -152q105 -120 136 -159l49 -70q-37 311 -37 508v1167h536v-2810h-57z" />
<glyph unicode="&#xd2;" horiz-adv-x="3276" d="M1425 3064l-426 770h631l213 -770h-418zM1638 -37q-606 0 -1024 408q-417 407 -417 1022t417 1022t1024 407t1024 -407q418 -408 418 -1022t-418 -1022t-1024 -408zM1638 475q378 0 615 262q237 263 237 656t-237 655t-615 262q-377 0 -614 -262q-238 -264 -238 -655 q0 -392 238 -656q237 -262 614 -262z" />
<glyph unicode="&#xd3;" horiz-adv-x="3276" d="M1434 3064l213 770h630l-426 -770h-417zM1638 -37q-606 0 -1024 408q-417 407 -417 1022t417 1022t1024 407t1024 -407q418 -408 418 -1022t-418 -1022t-1024 -408zM1638 475q378 0 615 262q237 263 237 656t-237 655t-615 262q-377 0 -614 -262q-238 -264 -238 -655 q0 -392 238 -656q237 -262 614 -262z" />
<glyph unicode="&#xd4;" horiz-adv-x="3276" d="M963 3064l651 885h45l651 -885h-442l-230 266l-233 -266h-442zM1638 -37q-606 0 -1024 408q-417 407 -417 1022t417 1022t1024 407t1024 -407q418 -408 418 -1022t-418 -1022t-1024 -408zM1638 475q378 0 615 262q237 263 237 656t-237 655t-615 262q-377 0 -614 -262 q-238 -264 -238 -655q0 -392 238 -656q237 -262 614 -262z" />
<glyph unicode="&#xd5;" horiz-adv-x="3276" d="M1311 3064l-373 37q16 279 141 426t314 147q128 0 258 -82l59 -39l53 -35q19 -13 41 -20q24 -8 43 -8q103 0 119 184l373 -37q-17 -280 -139 -426q-123 -147 -316 -147q-128 0 -258 82l-59 39l-51 34q-20 14 -41 21q-26 8 -45 8q-103 0 -119 -184zM1638 -37 q-606 0 -1024 408q-417 407 -417 1022t417 1022t1024 407t1024 -407q418 -408 418 -1022t-418 -1022t-1024 -408zM1638 475q378 0 615 262q237 263 237 656t-237 655t-615 262q-377 0 -614 -262q-238 -264 -238 -655q0 -392 238 -656q237 -262 614 -262z" />
<glyph unicode="&#xd6;" horiz-adv-x="3276" d="M2085 3088q-121 0 -217 93q-94 91 -94 219t94 219q95 92 217 92t217 -92q94 -91 94 -219t-94 -219q-96 -93 -217 -93zM1192 3088q-121 0 -217 93q-94 91 -94 219t94 219q95 92 217 92t217 -92q94 -91 94 -219t-94 -219q-96 -93 -217 -93zM1638 -37q-606 0 -1024 408 q-417 407 -417 1022t417 1022t1024 407t1024 -407q418 -408 418 -1022t-418 -1022t-1024 -408zM1638 475q378 0 615 262q237 263 237 656t-237 655t-615 262q-377 0 -614 -262q-238 -264 -238 -655q0 -392 238 -656q237 -262 614 -262z" />
<glyph unicode="&#xd7;" d="M1024 754l-430 -430l-336 335l430 431l-430 430l336 335l430 -430l430 430l336 -335l-430 -430l430 -431l-336 -335z" />
<glyph unicode="&#xd8;" horiz-adv-x="3276" d="M467 -41l-320 315l304 287q-254 373 -254 832q0 615 417 1022t1024 407q496 0 877 -282l295 282l319 -315l-303 -287q254 -365 254 -827q0 -614 -418 -1022t-1024 -408q-491 0 -872 279zM868 963l1258 1204q-206 147 -488 147q-376 0 -616 -264t-240 -657q0 -237 86 -430 zM1638 471q377 0 617 264q239 263 239 658q0 240 -81 426l-1262 -1205q204 -143 487 -143z" />
<glyph unicode="&#xd9;" horiz-adv-x="2809" d="M1192 3064l-426 770h631l213 -770h-418zM1409 -37q-504 0 -817 268t-313 777v1777h573v-1745q0 -300 133 -430q134 -131 424 -131q287 0 418 131t131 430v1745h573v-1777q0 -509 -311 -777t-811 -268z" />
<glyph unicode="&#xda;" horiz-adv-x="2809" d="M1200 3064l213 770h631l-426 -770h-418zM1409 -37q-504 0 -817 268t-313 777v1777h573v-1745q0 -300 133 -430q134 -131 424 -131q287 0 418 131t131 430v1745h573v-1777q0 -509 -311 -777t-811 -268z" />
<glyph unicode="&#xdb;" horiz-adv-x="2809" d="M729 3064l651 885h45l652 -885h-443l-229 266l-234 -266h-442zM1409 -37q-504 0 -817 268t-313 777v1777h573v-1745q0 -300 133 -430q134 -131 424 -131q287 0 418 131t131 430v1745h573v-1777q0 -509 -311 -777t-811 -268z" />
<glyph unicode="&#xdc;" horiz-adv-x="2809" d="M1851 3088q-121 0 -217 93q-94 91 -94 219t94 219q95 92 217 92t217 -92t95 -219t-95 -219q-96 -93 -217 -93zM958 3088q-121 0 -217 93q-94 91 -94 219t94 219q95 92 217 92q123 0 218 -92q94 -91 94 -219t-94 -219q-96 -93 -218 -93zM1409 -37q-504 0 -817 268 t-313 777v1777h573v-1745q0 -300 133 -430q134 -131 424 -131q287 0 418 131t131 430v1745h573v-1777q0 -509 -311 -777t-811 -268z" />
<glyph unicode="&#xdd;" horiz-adv-x="2793" d="M1200 3064l213 770h631l-426 -770h-418zM1143 0v885l-1057 1900h635l491 -897q50 -86 105 -219l88 -219l33 -90q112 330 217 528l471 897h586l-992 -1859v-926h-577z" />
<glyph unicode="&#xde;" horiz-adv-x="2461" d="M291 0v2785h573v-299h197q582 0 913 -286q332 -287 332 -791q0 -503 -332 -788t-913 -285h-197v-336h-573zM864 840h180q348 0 510 141t162 428q0 573 -672 573h-180v-1142z" />
<glyph unicode="&#xdf;" horiz-adv-x="3760" d="M2822 -37q-316 0 -547 135q-230 135 -342 361l434 254q159 -279 447 -279q114 0 188 41t74 115t-61 119t-230 114l-90 37q-294 118 -442 275t-148 421q0 280 195 449q196 170 506 170q236 0 403 -84q165 -83 293 -285l-422 -241q-94 151 -258 151q-81 0 -133 -41 q-51 -41 -51 -110q0 -55 33 -95q33 -41 71 -61q30 -16 117 -53l90 -37q343 -139 512 -293q168 -153 168 -432q0 -298 -215 -465q-214 -166 -592 -166zM942 -37q-316 0 -547 135q-230 135 -342 361l434 254q159 -279 447 -279q114 0 188 41t74 115t-61 119t-230 114l-90 37 q-294 118 -442 275t-148 421q0 280 195 449q196 170 506 170q236 0 403 -84q165 -83 293 -285l-422 -241q-94 151 -258 151q-81 0 -133 -41q-51 -41 -51 -110q0 -55 33 -95q33 -41 71 -61q30 -16 117 -53l90 -37q343 -139 512 -293q168 -153 168 -432q0 -298 -215 -465 q-214 -166 -592 -166z" />
<glyph unicode="&#xe0;" horiz-adv-x="2211" d="M893 2400l-426 770h631l213 -770h-418zM78 0l1003 2163h45l1008 -2163h-578l-73 172h-791l-74 -172h-540zM844 549h499l-90 213q-90 210 -159 450q-57 -230 -156 -450z" />
<glyph unicode="&#xe1;" horiz-adv-x="2211" d="M901 2400l213 770h631l-426 -770h-418zM78 0l1003 2163h45l1008 -2163h-578l-73 172h-791l-74 -172h-540zM844 549h499l-90 213q-90 210 -159 450q-57 -230 -156 -450z" />
<glyph unicode="&#xe2;" horiz-adv-x="2211" d="M422 2400l651 885h45l651 -885h-442l-229 266l-234 -266h-442zM78 0l1003 2163h45l1008 -2163h-578l-73 172h-791l-74 -172h-540zM844 549h499l-90 213q-90 210 -159 450q-57 -230 -156 -450z" />
<glyph unicode="&#xe3;" horiz-adv-x="2211" d="M750 2400l-373 37q17 279 141 426q125 148 313 148q129 0 259 -82l59 -39l53 -35q22 -15 41 -21q24 -8 43 -8q98 0 119 185l373 -37q-16 -278 -140 -426t-315 -148q-128 0 -258 82l-59 39q-38 24 -52 35q-17 13 -41 20q-29 9 -45 9q-97 0 -118 -185zM78 0l1003 2163h45 l1008 -2163h-578l-73 172h-791l-74 -172h-540zM844 549h499l-90 213q-90 210 -159 450q-57 -230 -156 -450z" />
<glyph unicode="&#xe4;" horiz-adv-x="2211" d="M1548 2425q-122 0 -217 92q-94 91 -94 219t94 219q95 92 217 92t217 -92t95 -219t-95 -219t-217 -92zM655 2425q-122 0 -217 92q-94 91 -94 219t94 219q95 92 217 92t217 -92t95 -219t-95 -219t-217 -92zM78 0l1003 2163h45l1008 -2163h-578l-73 172h-791l-74 -172h-540z M844 549h499l-90 213q-90 210 -159 450q-57 -230 -156 -450z" />
<glyph unicode="&#xe5;" horiz-adv-x="2211" d="M1098 2294q-223 0 -375 143q-154 145 -154 344t154 344q153 144 375 144t375 -144t153 -344t-153 -344q-152 -143 -375 -143zM78 0l1003 2163h45l1008 -2163h-578l-73 172h-791l-74 -172h-540zM1098 2597q78 0 127 49t49 135t-49 135q-50 50 -127 50t-127 -50 q-49 -49 -49 -135t49 -135t127 -49zM844 549h499l-90 213q-90 210 -159 450q-57 -230 -156 -450z" />
<glyph unicode="&#xe6;" horiz-adv-x="3272" d="M57 0l1532 2138h1467v-479h-963v-463h803v-455h-803v-262h1004v-479h-1561v209h-741l-148 -209h-590zM1090 627h446v368q0 78 10 172q3 32 19 160l8 66q-97 -225 -189 -353z" />
<glyph unicode="&#xe7;" horiz-adv-x="2408" d="M1061 -16q-411 74 -647 370q-238 298 -238 715q0 479 309 793q309 313 801 313q615 0 914 -467l-443 -295q-168 270 -471 270q-250 0 -395 -172q-146 -173 -146 -442t150 -442q150 -172 403 -172q370 0 517 303l450 -258q-118 -240 -356 -385q-238 -144 -566 -152v-123 q155 -28 261 -137q104 -107 104 -289q0 -175 -133 -286t-309 -111q-340 0 -484 246l262 159q62 -114 177 -114q61 0 104 37t43 102q0 139 -168 139h-139v398z" />
<glyph unicode="&#xe8;" horiz-adv-x="1966" d="M807 2400l-426 770h631l213 -770h-418zM229 0v2138h1520v-479h-963v-463h803v-455h-803v-262h1004v-479h-1561z" />
<glyph unicode="&#xe9;" horiz-adv-x="1966" d="M795 2400l213 770h630l-426 -770h-417zM229 0v2138h1520v-479h-963v-463h803v-455h-803v-262h1004v-479h-1561z" />
<glyph unicode="&#xea;" horiz-adv-x="1966" d="M315 2400l652 885h45l651 -885h-442l-230 266l-233 -266h-443zM229 0v2138h1520v-479h-963v-463h803v-455h-803v-262h1004v-479h-1561z" />
<glyph unicode="&#xeb;" horiz-adv-x="1966" d="M1446 2425q-122 0 -217 92q-94 91 -94 219t94 219q95 92 217 92t217 -92q94 -91 94 -219t-94 -219q-95 -92 -217 -92zM553 2425q-122 0 -217 92q-94 91 -94 219t94 219q95 92 217 92t217 -92q94 -91 94 -219t-94 -219q-95 -92 -217 -92zM229 0v2138h1520v-479h-963v-463 h803v-455h-803v-262h1004v-479h-1561z" />
<glyph unicode="&#xec;" horiz-adv-x="1032" d="M315 2400l-426 770h631l213 -770h-418zM238 0v2138h557v-2138h-557z" />
<glyph unicode="&#xed;" horiz-adv-x="1032" d="M291 2400l213 770h631l-426 -770h-418zM238 0v2138h557v-2138h-557z" />
<glyph unicode="&#xee;" horiz-adv-x="1032" d="M-164 2400l651 885h45l652 -885h-443l-229 266l-233 -266h-443zM238 0v2138h557v-2138h-557z" />
<glyph unicode="&#xef;" horiz-adv-x="1032" d="M958 2425q-122 0 -217 92q-94 91 -94 219t94 219q95 92 217 92q123 0 218 -92q94 -91 94 -219t-94 -219q-95 -92 -218 -92zM66 2425q-123 0 -218 92q-94 91 -94 219t94 219q95 92 218 92q122 0 217 -92q94 -91 94 -219t-94 -219q-95 -92 -217 -92zM238 0v2138h557v-2138 h-557z" />
<glyph unicode="&#xf0;" horiz-adv-x="2289" d="M229 0v750h-155v462h155v926h770q483 0 799 -293t316 -776q0 -478 -316 -774q-314 -295 -799 -295h-770zM786 483h185q573 0 573 586q0 279 -141 432q-142 154 -432 154h-185v-443h422v-462h-422v-267z" />
<glyph unicode="&#xf1;" horiz-adv-x="2277" d="M799 2400l-373 37q16 279 141 426q125 148 314 148q128 0 258 -82l59 -39l53 -35q22 -15 41 -21q24 -8 43 -8q98 0 119 185l373 -37q-17 -280 -139 -426q-124 -148 -316 -148q-128 0 -258 82l-59 39q-28 18 -51 35q-17 13 -41 20q-29 9 -45 9q-98 0 -119 -185zM2003 -33 l-995 860q-165 144 -308 320q41 -278 41 -451v-696h-512v2167h45l988 -852q73 -62 153 -148l117 -127l37 -49q-33 279 -33 455v692h512v-2171h-45z" />
<glyph unicode="&#xf2;" horiz-adv-x="2654" d="M1114 2400l-426 770h631l213 -770h-418zM1327 -37q-480 0 -815 313q-336 314 -336 793q0 483 336 795q335 311 815 311t815 -311q336 -312 336 -795q0 -479 -336 -793q-335 -313 -815 -313zM1327 455q258 0 420 170q162 169 162 444q0 269 -162 442q-162 172 -420 172 t-420 -172q-162 -173 -162 -442q0 -275 162 -444q162 -170 420 -170z" />
<glyph unicode="&#xf3;" horiz-adv-x="2654" d="M1122 2400l213 770h631l-426 -770h-418zM1327 -37q-480 0 -815 313q-336 314 -336 793q0 483 336 795q335 311 815 311t815 -311q336 -312 336 -795q0 -479 -336 -793q-335 -313 -815 -313zM1327 455q258 0 420 170q162 169 162 444q0 269 -162 442q-162 172 -420 172 t-420 -172q-162 -173 -162 -442q0 -275 162 -444q162 -170 420 -170z" />
<glyph unicode="&#xf4;" horiz-adv-x="2654" d="M651 2400l652 885h45l651 -885h-443l-229 266l-233 -266h-443zM1327 -37q-480 0 -815 313q-336 314 -336 793q0 483 336 795q335 311 815 311t815 -311q336 -312 336 -795q0 -479 -336 -793q-335 -313 -815 -313zM1327 455q258 0 420 170q162 169 162 444q0 269 -162 442 q-162 172 -420 172t-420 -172q-162 -173 -162 -442q0 -275 162 -444q162 -170 420 -170z" />
<glyph unicode="&#xf5;" horiz-adv-x="2654" d="M999 2400l-372 37q17 279 141 426q125 148 313 148q128 0 258 -82l60 -39l53 -35q22 -15 41 -21q24 -8 43 -8q102 0 119 185l373 -37q-16 -278 -140 -426t-315 -148q-128 0 -258 82l-60 39q-28 18 -51 35q-17 13 -41 20q-29 9 -45 9q-102 0 -119 -185zM1327 -37 q-480 0 -815 313q-336 314 -336 793q0 483 336 795q335 311 815 311t815 -311q336 -312 336 -795q0 -479 -336 -793q-335 -313 -815 -313zM1327 455q258 0 420 170q162 169 162 444q0 269 -162 442q-162 172 -420 172t-420 -172q-162 -173 -162 -442q0 -275 162 -444 q162 -170 420 -170z" />
<glyph unicode="&#xf6;" horiz-adv-x="2654" d="M1774 2425q-123 0 -218 92q-94 91 -94 219t94 219q95 92 218 92q122 0 217 -92q94 -91 94 -219t-94 -219q-95 -92 -217 -92zM881 2425q-122 0 -217 92t-95 219t95 219t217 92t217 -92q94 -91 94 -219t-94 -219q-95 -92 -217 -92zM1327 -37q-480 0 -815 313 q-336 314 -336 793q0 483 336 795q335 311 815 311t815 -311q336 -312 336 -795q0 -479 -336 -793q-335 -313 -815 -313zM1327 455q258 0 420 170q162 169 162 444q0 269 -162 442q-162 172 -420 172t-420 -172q-162 -173 -162 -442q0 -275 162 -444q162 -170 420 -170z" />
<glyph unicode="&#xf7;" d="M1024 1475q-141 0 -236 94q-96 95 -96 237q0 144 96 236q97 92 236 92q134 0 231 -92t97 -236q0 -142 -97 -237q-95 -94 -231 -94zM258 848v483h1528v-483h-1528zM1024 45q-141 0 -236 94q-96 95 -96 238t96 235q98 93 236 93q133 0 231 -93q97 -92 97 -235t-97 -238 q-95 -94 -231 -94z" />
<glyph unicode="&#xf8;" horiz-adv-x="2654" d="M2286 1700q192 -279 192 -631q0 -479 -336 -793q-335 -313 -815 -313q-389 0 -692 213l-238 -217l-254 266l230 213q-197 275 -197 631q0 483 336 795q335 311 815 311q393 0 696 -213l234 213l254 -266zM774 807l873 807q-136 86 -320 86q-265 0 -432 -176 q-166 -175 -166 -455q0 -139 45 -262zM1880 1327l-872 -807q139 -82 319 -82q266 0 432 172t166 459q0 135 -45 258z" />
<glyph unicode="&#xf9;" horiz-adv-x="2277" d="M938 2400l-426 770h631l213 -770h-418zM1143 -37q-421 0 -674 230q-252 229 -252 651v1294h557v-1286q0 -393 365 -393q364 0 364 393v1286h557v-1294q0 -422 -252 -651q-253 -230 -665 -230z" />
<glyph unicode="&#xfa;" horiz-adv-x="2277" d="M954 2400l213 770h631l-426 -770h-418zM1143 -37q-421 0 -674 230q-252 229 -252 651v1294h557v-1286q0 -393 365 -393q364 0 364 393v1286h557v-1294q0 -422 -252 -651q-253 -230 -665 -230z" />
<glyph unicode="&#xfb;" horiz-adv-x="2277" d="M463 2400l651 885h45l651 -885h-442l-229 266l-234 -266h-442zM1143 -37q-421 0 -674 230q-252 229 -252 651v1294h557v-1286q0 -393 365 -393q364 0 364 393v1286h557v-1294q0 -422 -252 -651q-253 -230 -665 -230z" />
<glyph unicode="&#xfc;" horiz-adv-x="2277" d="M1585 2425q-122 0 -217 92q-94 91 -94 219t94 219q95 92 217 92t217 -92q94 -91 94 -219t-94 -219q-95 -92 -217 -92zM692 2425q-122 0 -217 92q-94 91 -94 219t94 219q95 92 217 92t217 -92t95 -219t-95 -219t-217 -92zM1143 -37q-421 0 -674 230q-252 229 -252 651 v1294h557v-1286q0 -393 365 -393q364 0 364 393v1286h557v-1294q0 -422 -252 -651q-253 -230 -665 -230z" />
<glyph unicode="&#xfd;" horiz-adv-x="2240" d="M975 2400l213 770h631l-426 -770h-418zM856 0v700l-795 1438h635l258 -491q115 -219 197 -537q86 330 192 537l246 491h590l-766 -1429v-709h-557z" />
<glyph unicode="&#xfe;" horiz-adv-x="2068" d="M229 0v2138h557v-217h144q458 0 727 -219q268 -219 268 -621q0 -397 -268 -616q-269 -219 -727 -219h-144v-246h-557zM786 725h132q220 0 327 84t107 272q0 357 -434 357h-132v-713z" />
<glyph unicode="&#xff;" horiz-adv-x="2240" d="M1585 2425q-122 0 -217 92q-94 91 -94 219t94 219q95 92 217 92t217 -92q94 -91 94 -219t-94 -219q-95 -92 -217 -92zM692 2425q-122 0 -217 92q-94 91 -94 219t94 219q95 92 217 92t217 -92t95 -219t-95 -219t-217 -92zM856 0v700l-795 1438h635l258 -491 q115 -219 197 -537q86 330 192 537l246 491h590l-766 -1429v-709h-557z" />
<glyph unicode="&#x152;" horiz-adv-x="4083" d="M1659 0q-643 0 -1055 389q-411 389 -411 1004t409 1003q410 389 1057 389h2126v-504h-1270v-884h1118v-492h-1118v-401h1327v-504h-2183zM1688 504h254v1777h-254q-446 0 -674 -241q-228 -242 -228 -647q0 -407 228 -648t674 -241z" />
<glyph unicode="&#x153;" horiz-adv-x="3239" d="M1290 0q-482 0 -798 293t-316 776q0 478 316 774q314 295 798 295h1733v-479h-963v-463h803v-455h-803v-262h1004v-479h-1774zM1319 483h184v1172h-184q-574 0 -574 -586q0 -278 142 -432t432 -154z" />
<glyph unicode="&#x178;" horiz-adv-x="2793" d="M1843 3088q-121 0 -217 93q-94 91 -94 219t94 219q95 92 217 92t217 -92q94 -91 94 -219t-94 -219q-96 -93 -217 -93zM950 3088q-121 0 -217 93q-94 91 -94 219t94 219q95 92 217 92t217 -92t95 -219t-95 -219q-96 -93 -217 -93zM1143 0v885l-1057 1900h635l491 -897 q50 -86 105 -219l88 -219l33 -90q112 330 217 528l471 897h586l-992 -1859v-926h-577z" />
<glyph unicode="&#x2c6;" d="M348 2048l651 885h45l652 -885h-443l-229 266l-233 -266h-443z" />
<glyph unicode="&#x2dc;" d="M696 2048l-372 37q16 279 141 426t313 147q128 0 258 -82l60 -39l53 -34q22 -15 41 -21q24 -8 43 -8q103 0 119 184l372 -37q-17 -280 -139 -426q-123 -147 -315 -147q-128 0 -258 82l-60 39q-28 18 -51 35q-17 13 -41 20q-26 8 -45 8q-103 0 -119 -184z" />
<glyph unicode="&#x2000;" horiz-adv-x="1974" />
<glyph unicode="&#x2001;" horiz-adv-x="3948" />
<glyph unicode="&#x2002;" horiz-adv-x="1974" />
<glyph unicode="&#x2003;" horiz-adv-x="3948" />
<glyph unicode="&#x2004;" horiz-adv-x="1314" />
<glyph unicode="&#x2005;" horiz-adv-x="987" />
<glyph unicode="&#x2006;" horiz-adv-x="655" />
<glyph unicode="&#x2007;" horiz-adv-x="655" />
<glyph unicode="&#x2008;" horiz-adv-x="491" />
<glyph unicode="&#x2009;" horiz-adv-x="786" />
<glyph unicode="&#x200a;" horiz-adv-x="217" />
<glyph unicode="&#x2010;" horiz-adv-x="1236" d="M147 745v492h943v-492h-943z" />
<glyph unicode="&#x2011;" horiz-adv-x="1236" d="M147 745v492h943v-492h-943z" />
<glyph unicode="&#x2013;" horiz-adv-x="1662" d="M123 684v492h1417v-492h-1417z" />
<glyph unicode="&#x2014;" horiz-adv-x="2691" d="M123 684v492h2445v-492h-2445z" />
<glyph unicode="&#x2018;" horiz-adv-x="991" d="M500 1692q-136 0 -236 94t-100 229q0 139 123 352l245 418h267l-156 -467q184 -85 184 -299q0 -139 -98 -233t-229 -94z" />
<glyph unicode="&#x2019;" horiz-adv-x="991" d="M193 1720l155 467q-184 85 -184 299q0 140 98 234t230 94q135 0 235 -94t100 -230q0 -141 -122 -352l-246 -418h-266z" />
<glyph unicode="&#x201a;" horiz-adv-x="991" d="M193 -418l155 467q-184 85 -184 299q0 140 98 234t230 94q135 0 235 -94t100 -230q0 -141 -122 -352l-246 -418h-266z" />
<glyph unicode="&#x201c;" horiz-adv-x="1880" d="M1389 1692q-136 0 -236 94t-100 229q0 139 123 352l245 418h267l-156 -467q184 -85 184 -299q0 -139 -98 -233t-229 -94zM500 1692q-136 0 -236 94t-100 229q0 139 123 352l245 418h267l-156 -467q184 -85 184 -299q0 -139 -98 -233t-229 -94z" />
<glyph unicode="&#x201d;" horiz-adv-x="1880" d="M1081 1720l156 467q-184 85 -184 299q0 140 98 234t229 94q136 0 236 -94t100 -230q0 -139 -123 -352l-245 -418h-267zM193 1720l155 467q-184 85 -184 299q0 140 98 234t230 94q135 0 235 -94t100 -230q0 -141 -122 -352l-246 -418h-266z" />
<glyph unicode="&#x201e;" horiz-adv-x="1880" d="M1081 -418l156 467q-184 85 -184 299q0 140 98 234t229 94q136 0 236 -94t100 -230q0 -139 -123 -352l-245 -418h-267zM193 -418l155 467q-184 85 -184 299q0 140 98 234t230 94q135 0 235 -94t100 -230q0 -141 -122 -352l-246 -418h-266z" />
<glyph unicode="&#x2022;" horiz-adv-x="1134" d="M565 696q-177 0 -307 129q-131 129 -131 314q0 187 129 315q128 127 309 127q182 0 312 -127q131 -128 131 -315q0 -185 -134 -314t-309 -129z" />
<glyph unicode="&#x2026;" horiz-adv-x="3026" d="M2519 -25q-144 0 -246 99t-102 250q0 146 102 245t246 99q140 0 242 -99t102 -245q0 -151 -100 -250q-101 -99 -244 -99zM1516 -25q-144 0 -246 99q-103 100 -103 250q0 145 103 245q102 99 246 99q139 0 241 -99q103 -100 103 -245q0 -151 -101 -250t-243 -99zM512 -25 q-144 0 -246 99t-102 250q0 146 102 245t246 99q140 0 242 -99t102 -245q0 -151 -100 -250t-244 -99z" />
<glyph unicode="&#x202f;" horiz-adv-x="786" />
<glyph unicode="&#x2039;" horiz-adv-x="1183" d="M520 131l-389 688v33l389 676h533l-402 -692l402 -705h-533z" />
<glyph unicode="&#x203a;" horiz-adv-x="1183" d="M131 131l401 692l-401 705h533l389 -688v-33l-389 -676h-533z" />
<glyph unicode="&#x205f;" horiz-adv-x="987" />
<glyph unicode="&#x20ac;" d="M266 1130h-184v332h4h4h4h4h4h4h5h4h4h4h4h4h4h4h4h9h4h4h8h4h4h8h4h9h4h8h4h8h8h4h9h8h4h8h8h4h41q99 333 336 523q236 190 570 190q495 0 753 -381l-381 -291q-75 113 -155 158q-83 47 -209 47q-249 0 -348 -246h475v-332h-533v-57v-86h533v-332h-471q95 -221 352 -221 q221 0 365 250l417 -254q-258 -467 -786 -467q-326 0 -567 187q-239 185 -338 505h-246v332h184v86v57z" />
<glyph unicode="&#x2122;" horiz-adv-x="2912" d="M1397 1548v1254h41l602 -602l602 602h41v-1254h-369v504l-254 -291h-37l-258 291v-504h-368zM475 1548v934h-332v303h1041v-303h-332v-934h-377z" />
</font>
</defs>
</svg>
