<?xml version="1.0" standalone="no"?>
<!DOCTYPE svg PUBLIC "-//W3C//DTD SVG 1.1//EN" "http://www.w3.org/Graphics/SVG/1.1/DTD/svg11.dtd" >
<svg xmlns="http://www.w3.org/2000/svg">
<metadata>
This is a custom SVG webfont generated by Font Squirrel.
Designer    : Christian Schwartz
Foundry URL : httpwwwhouseindustriescom
</metadata>
<defs>
<font id="webfontaPz86Lxh" horiz-adv-x="450" >
<font-face units-per-em="2048" ascent="1638" descent="-410" />
<missing-glyph horiz-adv-x="468" />
<glyph unicode=" "  horiz-adv-x="468" />
<glyph unicode="&#x09;" horiz-adv-x="468" />
<glyph unicode="&#xa0;" horiz-adv-x="468" />
<glyph unicode="!" horiz-adv-x="536" d="M129 127q0 59 41 99t98.5 40t98.5 -40t41 -99t-41 -99t-98.5 -40t-98.5 40t-41 99zM152 1393h233l-35 -963h-164z" />
<glyph unicode="&#x22;" horiz-adv-x="704" d="M78 1393h221l-23 -467h-174zM403 1393h224l-25 -467h-174z" />
<glyph unicode="#" horiz-adv-x="1009" d="M63 541v159h162l47 189h-129v162h168l56 211h163l-53 -211h180l54 211h166l-54 -211h123v-162h-162l-47 -189h127v-159h-168l-53 -213h-166l53 213h-180l-51 -213h-166l53 213h-123zM391 700h180l47 189h-178z" />
<glyph unicode="$" horiz-adv-x="956" d="M33 223l155 86q80 -137 234 -159v311q-330 82 -330 313q0 117 87 200t243 91v213h113v-217q199 -29 296 -178l-137 -101q-53 92 -159 119v-276q180 -45 269 -125t89 -205q0 -139 -91 -221t-267 -90v-224h-113v224q-147 14 -245.5 81.5t-143.5 157.5zM283 791 q0 -51 29.5 -81t109.5 -53v250q-139 -12 -139 -116zM535 147q164 14 163 129q0 57 -35.5 93.5t-127.5 62.5v-285z" />
<glyph unicode="%" horiz-adv-x="1656" d="M55 756q0 133 94.5 222t225.5 89t225 -89t94 -222t-94 -221.5t-225 -88.5t-225.5 88.5t-94.5 221.5zM229 755.5q0 -67.5 43 -109.5t102.5 -42t102.5 42t43 109.5t-43 110.5t-102.5 43t-102.5 -43t-43 -110.5zM395 0l660 1051h207l-660 -1051h-207zM963 293q0 133 94 222 t225 89t225.5 -89t94.5 -222q0 -135 -94.5 -223t-225.5 -88t-225 88t-94 223zM1139 292.5q0 -67.5 42 -109.5t101 -42t102 42t43 109.5t-43 109.5t-102 42t-101 -42t-42 -109.5z" />
<glyph unicode="&#x26;" horiz-adv-x="1378" d="M80 377q0 152 82 247t258 185q-117 143 -117 293q0 131 91 219t241 88q147 0 237.5 -84t90.5 -219q0 -197 -256 -334l266 -328q55 133 55 304h195q0 -264 -119 -463l231 -285h-256l-106 131q-172 -150 -404 -149q-227 0 -358 108.5t-131 286.5zM303 391 q0 -106 67.5 -163.5t198.5 -57.5q166 0 285 106l-332 408q-115 -59 -167 -128t-52 -165zM502 1104q0 -82 78 -178l22 -27q170 96 170 207q0 61 -37 97t-96 36q-61 0 -99 -37t-38 -98z" />
<glyph unicode="'" horiz-adv-x="376" d="M78 1393h221l-23 -467h-174z" />
<glyph unicode="(" horiz-adv-x="645" d="M94 596q0 506 371 877l127 -105q-279 -328 -279 -772t279 -772l-127 -105q-371 371 -371 877z" />
<glyph unicode=")" horiz-adv-x="645" d="M53 -176q279 328 279 772t-279 772l127 105q371 -375 371 -877t-371 -877z" />
<glyph unicode="*" horiz-adv-x="837" d="M96 993l236 80l-236 82l90 156l185 -158l-45 240h184l-45 -240l186 158l90 -156l-239 -82l239 -80l-90 -155l-186 157l45 -241h-184l45 241l-185 -157z" />
<glyph unicode="+" horiz-adv-x="800" d="M80 438v183h227v241h187v-241h227v-183h-227v-241h-187v241h-227z" />
<glyph unicode="," horiz-adv-x="460" d="M90 131q0 57 42 97t99.5 40t98.5 -40t41 -99q0 -53 -43 -127l-121 -235h-109l78 237q-86 35 -86 127z" />
<glyph unicode="-" horiz-adv-x="602" d="M84 391v187h432v-187h-432z" />
<glyph unicode="." horiz-adv-x="456" d="M88 129q0 59 42 99t99.5 40t98.5 -40t41 -99t-41 -100t-98.5 -41t-99.5 41t-42 100z" />
<glyph unicode="/" horiz-adv-x="851" d="M0 -262l594 1741h205l-594 -1741h-205z" />
<glyph unicode="0" horiz-adv-x="1265" d="M78 526q0 233 165 387t388 154q227 0 392 -153.5t165 -387.5q0 -231 -166 -387.5t-391 -156.5q-223 0 -388 156.5t-165 387.5zM297 526.5q0 -157.5 96 -258t238 -100.5q145 0 241.5 100.5t96.5 257.5q0 160 -96.5 258.5t-241.5 98.5q-143 0 -238.5 -99.5t-95.5 -257z" />
<glyph unicode="1" horiz-adv-x="628" d="M51 877v174h428v-1051h-211v877h-217z" />
<glyph unicode="2" horiz-adv-x="974" d="M51 0v20l412 406q111 109 153.5 169t42.5 130q0 72 -46 113t-119 41q-150 0 -213 -189l-197 55q39 152 147.5 237t260.5 85q180 0 281 -93t101 -237q0 -188 -227 -395l-96 -88q-39 -35 -113 -84q90 8 127 8h328v-178h-842z" />
<glyph unicode="3" horiz-adv-x="1040" d="M39 66l180 92q80 -182 283 -183q109 0 177.5 67t68.5 183q0 119 -74 184.5t-195 65.5q-94 0 -172 -35l-16 21l272 350q12 18 30 37l28 29l10 8q-59 -8 -111 -8h-370v174h790v-19l-274 -350q-27 -35 -60 -59q160 -20 260.5 -126t100.5 -276q0 -184 -125 -308t-340 -124 q-166 0 -285 76t-178 201z" />
<glyph unicode="4" horiz-adv-x="1099" d="M47 23v127l811 917h25v-881h147v-163h-147v-216h-205v216h-631zM291 180q51 6 102 6h285v328l8 125q-37 -55 -70 -92l-245 -291z" />
<glyph unicode="5" horiz-adv-x="1015" d="M49 35l178 92q76 -152 252 -152q109 0 175.5 67t66.5 173q0 111 -66.5 175.5t-191.5 64.5q-154 0 -279 -105l-20 8v693h682v-174h-508v-287q70 43 180 43q188 0 306 -120t118 -300q0 -182 -123 -303t-338 -121q-162 0 -272.5 70t-159.5 176z" />
<glyph unicode="6" horiz-adv-x="1060" d="M78 401q0 166 151 381l324 465h233l-266 -381q-16 -25 -45 -53.5t-49 -46.5l-18 -16q82 57 180 57q170 0 282.5 -111.5t112.5 -289.5q0 -188 -129 -306t-321.5 -118t-323.5 118.5t-131 300.5zM289 406q0 -102 65.5 -171t175.5 -69q106 0 174 68.5t68 171.5 q0 104 -65.5 171.5t-176.5 67.5q-109 0 -175 -70.5t-66 -168.5z" />
<glyph unicode="7" horiz-adv-x="958" d="M63 877v174h840v-21l-551 -1223h-215l486 1070h-560z" />
<glyph unicode="8" horiz-adv-x="1083" d="M76 377q0 123 70.5 209t189.5 125q-162 76 -162 243q0 127 102.5 219.5t266.5 92.5q166 0 267 -92.5t101 -219.5q0 -168 -161 -243q119 -39 188.5 -125t69.5 -209q0 -174 -129 -284.5t-336 -110.5q-205 0 -336 110.5t-131 284.5zM295 391q0 -98 67.5 -160.5t180 -62.5 t180.5 62.5t68 160.5q0 100 -68 166t-180.5 66t-180 -66t-67.5 -166zM379 940q0 -68 46 -110t117.5 -42t118 42t46.5 110t-46.5 111t-118 43t-117.5 -43t-46 -111z" />
<glyph unicode="9" horiz-adv-x="1067" d="M78 643q0 186 130 305t324.5 119t325.5 -115.5t131 -304.5q0 -96 -37 -181t-116 -204l-310 -455h-235l260 377q16 25 44 53.5l46 45.5l18 14q-76 -57 -174 -57q-176 0 -291.5 111.5t-115.5 291.5zM289 643q0 -104 66.5 -173t177 -69t177 71t66.5 171q0 102 -66.5 171 t-177.5 69q-109 0 -176 -69t-67 -171z" />
<glyph unicode=":" horiz-adv-x="477" d="M98 129q0 59 42 100t99.5 41t98.5 -41t41 -100t-41 -100t-98.5 -41t-99.5 41t-42 100zM98 594q0 59 42 100t99.5 41t98.5 -41t41 -100q0 -61 -42 -102t-97 -41q-57 0 -99.5 41t-42.5 102z" />
<glyph unicode=";" horiz-adv-x="481" d="M100 131q0 57 42 97t99.5 40t98.5 -40t41 -99q0 -53 -43 -127l-121 -235h-108l77 237q-86 35 -86 127zM100 594q0 59 42 100t99.5 41t98.5 -41t41 -100q0 -61 -41 -102t-98.5 -41t-99.5 41t-42 102z" />
<glyph unicode="&#x37e;" horiz-adv-x="481" d="M100 131q0 57 42 97t99.5 40t98.5 -40t41 -99q0 -53 -43 -127l-121 -235h-108l77 237q-86 35 -86 127zM100 594q0 59 42 100t99.5 41t98.5 -41t41 -100q0 -61 -41 -102t-98.5 -41t-99.5 41t-42 102z" />
<glyph unicode="&#x3c;" horiz-adv-x="731" d="M61 489v21l582 313v-182l-285 -143l285 -142v-184z" />
<glyph unicode="=" horiz-adv-x="792" d="M80 274v181h633v-181h-633zM80 573v181h633v-181h-633z" />
<glyph unicode="&#x3e;" horiz-adv-x="731" d="M88 172v182l283 144l-283 141v184l582 -317v-21z" />
<glyph unicode="?" horiz-adv-x="1005" d="M63 1161q109 250 418 250q195 0 312.5 -115.5t117.5 -289.5q0 -164 -96 -269.5t-262 -124.5v-186h-195v344h80q125 0 192.5 67.5t67.5 168.5q0 94 -60 156.5t-157 62.5q-166 0 -250 -160zM313 127q0 59 41 99t98.5 40t98.5 -40t41 -99t-41 -99t-98.5 -40t-98.5 40t-41 99 z" />
<glyph unicode="@" horiz-adv-x="1853" d="M90 395q0 238 118 429.5t311.5 295t418.5 103.5q365 0 595 -213t230 -547q0 -233 -93 -353t-255 -120q-211 0 -260 174q-86 -182 -287 -182q-152 0 -255 112.5t-103 286.5t102.5 289.5t253.5 115.5q168 0 248 -151l-4 131h201v-469q0 -80 25.5 -117t84.5 -37 q162 0 162 318q0 283 -173 442.5t-472 159.5q-289 0 -472 -187.5t-183 -480.5q0 -295 177 -476t484 -181q178 0 332 67l67 -145q-176 -84 -397 -84q-371 0 -613.5 225t-242.5 594zM723 381q0 -100 54 -164.5t145 -64.5q82 0 137 66.5t55 162.5q0 98 -55 165.5t-137 67.5 q-90 0 -144.5 -65.5t-54.5 -167.5z" />
<glyph unicode="A" horiz-adv-x="1349" d="M59 0l596 1407h25l610 -1407h-225l-80 197h-637l-80 -197h-209zM422 379h485l-174 434q-16 37 -33.5 88t-27.5 86l-8 33q-33 -125 -68 -207z" />
<glyph unicode="B" horiz-adv-x="1247" d="M168 0v1393h506q188 0 290.5 -99.5t102.5 -251.5q0 -205 -188 -268q137 -33 210.5 -126t73.5 -228q0 -186 -119.5 -303t-332.5 -117h-543zM385 190h313q123 0 185.5 64.5t62.5 173.5t-66.5 173.5t-191.5 64.5h-303v-476zM385 850h279q94 0 142 47t48 129t-48 129t-147 47 h-274v-352z" />
<glyph unicode="C" horiz-adv-x="1474" d="M104 696q0 307 207 510t508 203q373 0 557 -276l-166 -119q-129 201 -391 200q-215 0 -354 -147t-139 -370.5t139 -372t354 -148.5q264 0 412 219l166 -116q-195 -297 -578 -297q-301 0 -508 202.5t-207 511.5z" />
<glyph unicode="D" horiz-adv-x="1396" d="M168 0v1393h383q334 0 538.5 -191.5t204.5 -505t-203.5 -505t-539.5 -191.5h-383zM385 190h152q262 0 397 137.5t135 369t-135 368.5t-397 137h-152v-1012z" />
<glyph unicode="E" horiz-adv-x="1202" d="M168 0v1393h885v-191h-668v-540h592v-187h-592v-285h696v-190h-913z" />
<glyph unicode="F" horiz-adv-x="1136" d="M168 0v1393h866v-191h-649v-559h590v-192h-590v-451h-217z" />
<glyph unicode="G" horiz-adv-x="1517" d="M104 696.5q0 311.5 202 512t513 200.5q328 0 494 -186l-146 -146q-131 137 -348 137t-355 -147t-138 -371q0 -225 143 -372.5t377 -147.5q213 0 344 90v246h-375v190h574v-542q-80 -72 -222.5 -125t-320.5 -53q-326 0 -534 201.5t-208 513z" />
<glyph unicode="H" horiz-adv-x="1439" d="M168 0v1393h217v-750h670v750h217v-1393h-217v451h-670v-451h-217z" />
<glyph unicode="I" horiz-adv-x="565" d="M176 0v1393h215v-1393h-215z" />
<glyph unicode="J" horiz-adv-x="1001" d="M47 217l176 109q84 -150 209 -150q193 0 193 217v1000h217v-1004q0 -201 -108.5 -304t-291.5 -103q-276 -1 -395 235z" />
<glyph unicode="K" horiz-adv-x="1284" d="M168 0v1393h217v-574q0 -90 -16 -205q61 129 106 189l451 590h245l-493 -652l549 -741h-262l-430 582l-150 -183v-399h-217z" />
<glyph unicode="L" horiz-adv-x="1114" d="M168 0v1393h217v-1203h643v-190h-860z" />
<glyph unicode="M" horiz-adv-x="1705" d="M168 0v1407h22l666 -778l660 778h22v-1407h-207v723l8 201q-68 -104 -125 -168l-350 -422h-24l-351 422l-122 168q8 -123 8 -201v-723h-207z" />
<glyph unicode="N" horiz-adv-x="1447" d="M168 0v1407h29l768 -825l129 -156q-14 123 -15 201v766h201v-1407h-27l-768 827l-131 156q14 -115 15 -201v-768h-201z" />
<glyph unicode="O" horiz-adv-x="1644" d="M104 696.5q0 309.5 208 512t511 202.5q301 0 509 -202.5t208 -512t-208 -512t-509 -202.5q-303 0 -511 202.5t-208 512zM326 696.5q0 -223.5 140 -372t357 -148.5t356.5 148.5t139.5 372t-139.5 372t-356.5 148.5t-357 -148.5t-140 -372z" />
<glyph unicode="P" horiz-adv-x="1212" d="M168 0v1393h350q285 0 441.5 -142.5t156.5 -388.5q0 -244 -157.5 -387t-440.5 -143h-133v-332h-217zM385 522h125q385 0 385 340t-385 340h-125v-680z" />
<glyph unicode="Q" horiz-adv-x="1642" d="M104 696.5q0 309.5 208 512t511 202.5q301 0 509 -202.5t208 -512.5q0 -303 -203 -506l203 -225l-143 -121l-209 232q-164 -94 -365 -94q-303 0 -511 202.5t-208 512zM326 696.5q0 -223.5 140 -372t357 -148.5q125 0 230 49l-193 215l146 121l196 -219q117 139 117 354 q0 223 -139.5 372t-356.5 149t-357 -148.5t-140 -372z" />
<glyph unicode="R" horiz-adv-x="1239" d="M168 0v1393h348q287 0 443.5 -139.5t156.5 -381.5q0 -319 -278 -442l295 -430h-250l-250 367q-78 -8 -117 -9h-131v-358h-217zM385 545h123q387 0 387 327q0 330 -387 330h-123v-657z" />
<glyph unicode="S" horiz-adv-x="1091" d="M43 270l178 99q57 -94 130 -144.5t190 -50.5q106 0 173.5 52.5t67.5 138.5q0 84 -54 135t-179 106l-92 41q-166 74 -246 165t-80 243q0 156 109.5 255t281.5 99q270 0 393 -219l-170 -105q-41 72 -92 104t-131 32q-82 0 -131 -45.5t-49 -116.5q0 -76 45 -120t156 -93 l90 -41q190 -84 277 -181.5t87 -256.5q0 -178 -126 -281.5t-326 -103.5q-186 0 -312.5 79.5t-189.5 208.5z" />
<glyph unicode="T" horiz-adv-x="1173" d="M66 1202v191h1042v-191h-414v-1202h-215v1202h-413z" />
<glyph unicode="U" horiz-adv-x="1380" d="M160 489v904h217v-891q0 -326 313 -326q315 0 316 326v891h215v-904q0 -246 -147.5 -376.5t-383.5 -130.5q-238 0 -384 130.5t-146 376.5z" />
<glyph unicode="V" horiz-adv-x="1349" d="M59 1393h232l313 -748q41 -92 84 -248q39 154 82 248l309 748h211l-594 -1407h-26z" />
<glyph unicode="W" horiz-adv-x="1955" d="M59 1393h228l245 -742l54 -198q35 119 67 198l320 756h26l322 -756q33 -78 65 -198q29 121 56 198l246 742h210l-481 -1407h-26l-347 829l-57 170q-33 -102 -61 -170l-355 -829h-26z" />
<glyph unicode="X" horiz-adv-x="1325" d="M72 0l467 762l-392 631h240l211 -340q14 -25 31.5 -60t25.5 -59l11 -23q31 86 63 142l207 340h233l-385 -631l471 -762h-239l-289 467l-70 143q-31 -86 -65 -143l-287 -467h-233z" />
<glyph unicode="Y" horiz-adv-x="1368" d="M59 1393h240l315 -574q43 -78 84 -201q43 123 84 201l305 574h224l-506 -940v-453h-217v440z" />
<glyph unicode="Z" horiz-adv-x="1200" d="M68 0v23l704 1179h-592v191h930v-23l-700 -1180h686v-190h-1028z" />
<glyph unicode="[" horiz-adv-x="655" d="M139 -262v1741h449v-176h-240v-1389h240v-176h-449z" />
<glyph unicode="\" horiz-adv-x="851" d="M53 1479h205l594 -1741h-205z" />
<glyph unicode="]" horiz-adv-x="657" d="M68 -86h241v1389h-241v176h450v-1741h-450v176z" />
<glyph unicode="^" horiz-adv-x="874" d="M125 932l303 475h21l301 -475h-168l-144 203l-145 -203h-168z" />
<glyph unicode="_" horiz-adv-x="550" d="M-4 -78h559v-184h-559v184z" />
<glyph unicode="`" horiz-adv-x="1024" d="M231 1411h238l123 -389h-160z" />
<glyph unicode="a" horiz-adv-x="980" d="M78 254q0 129 92 192.5t246 65.5h235q0 195 -172 195q-135 0 -225 -103l-119 121q129 154 361 154q164 0 263 -94.5t99 -276.5v-508h-207l6 123q-94 -141 -270 -141q-137 0 -223 67.5t-86 204.5zM281 260q0 -113 163 -113q92 0 149.5 42t57.5 112v68h-221 q-149 0 -149 -109z" />
<glyph unicode="b" horiz-adv-x="1128" d="M131 0v1479h209v-768q98 168 299 168q170 0 284.5 -127t114.5 -319.5t-116.5 -321.5t-286.5 -129q-213 0 -301 174l6 -156h-209zM332 432q0 -121 68.5 -194.5t181 -73.5t178 73.5t65.5 194.5q0 117 -66.5 189.5t-176.5 72.5q-113 0 -181.5 -72.5t-68.5 -189.5z" />
<glyph unicode="c" horiz-adv-x="964" d="M88 430.5q0 192.5 131 320.5t328 128q217 0 348 -164l-147 -119q-70 100 -201 100q-113 0 -179.5 -74.5t-66.5 -191.5t66.5 -191.5t179.5 -74.5q125 0 211 96l141 -123q-135 -156 -352 -155q-197 0 -328 128t-131 320.5z" />
<glyph unicode="d" horiz-adv-x="1128" d="M90 432.5q0 192.5 117 319.5t282 127q201 0 299 -168v768h209v-1479h-209l7 156q-88 -174 -301 -174q-170 0 -287 129t-117 321.5zM303 432q0 -121 65.5 -194.5t178 -73.5t181.5 73.5t69 194.5q0 117 -69 189.5t-181 72.5q-111 0 -177.5 -72.5t-66.5 -189.5z" />
<glyph unicode="e" horiz-adv-x="1079" d="M88 430q0 190 132 319.5t327 129.5q217 0 336 -145q109 -133 109 -338q0 -18 -1 -36h-692q41 -205 272 -204q147 0 244 92l121 -127q-139 -139 -363 -139q-219 0 -352 125.5t-133 322.5zM299 504h483q-33 203 -233 203q-100 0 -166 -53.5t-84 -149.5z" />
<glyph unicode="f" horiz-adv-x="712" d="M68 686v174h141v340q0 305 276 305q156 0 244 -106l-123 -131q-43 51 -100 51q-90 0 -90 -117v-342h231v-174h-231v-686h-207v686h-141z" />
<glyph unicode="g" horiz-adv-x="987" d="M33 -172q0 145 182 205q-113 51 -113 168q0 113 117 164q-84 84 -84 204q0 135 99.5 222.5t257.5 87.5q70 0 124 -19h322v-151h-147q49 -57 49 -140q0 -137 -96.5 -225t-251.5 -88q-106 0 -179 39q-45 -27 -45 -74q0 -68 101 -74l215 -14q367 -23 366 -276 q0 -143 -118.5 -227.5t-348.5 -84.5q-215 0 -332.5 77t-117.5 206zM236 -150q0 -147 247 -147q254 0 254 141q0 53 -41 77t-151 32l-240 16q-69 -41 -69 -119zM322 569q0 -74 44 -116.5t121 -42.5q80 0 124 43t44 116q0 70 -45 112t-122.5 42t-121.5 -42t-44 -112z" />
<glyph unicode="h" horiz-adv-x="1069" d="M131 0v1479h207v-770q88 170 287 170q145 0 233 -98.5t88 -270.5v-510h-207v494q0 195 -178 194q-102 0 -162.5 -58.5t-60.5 -162.5v-467h-207z" />
<glyph unicode="i" horiz-adv-x="483" d="M104 1194q0 57 41 96t96.5 39t96.5 -39t41 -96q0 -59 -40 -98t-97.5 -39t-97.5 39t-40 98zM137 0v860h209v-860h-209z" />
<glyph unicode="j" horiz-adv-x="481" d="M-133 -360l104 131q43 -39 86 -39q41 0 60.5 20.5t19.5 71.5v1036h209v-1030q0 -137 -70.5 -211t-197.5 -74q-133 1 -211 95zM104 1194q0 57 41 96t96.5 39t96.5 -39t41 -96q0 -59 -40 -98t-97.5 -39t-97.5 39t-40 98z" />
<glyph unicode="k" horiz-adv-x="978" d="M131 0v1479h207v-854q0 -39 -10 -152l344 387h235l-317 -358l360 -502h-243l-261 367l-108 -113v-254h-207z" />
<glyph unicode="l" horiz-adv-x="485" d="M139 0v1479h207v-1479h-207z" />
<glyph unicode="m" horiz-adv-x="1583" d="M131 0v860h207l-4 -147q88 166 256 166q180 0 252 -164q109 164 295 164q152 0 237.5 -94.5t85.5 -260.5v-524h-207v504q0 92 -37.5 138t-123.5 46q-92 0 -142.5 -55t-50.5 -162v-471h-207v504q0 92 -37 138t-123 46q-94 0 -144 -55t-50 -162v-471h-207z" />
<glyph unicode="n" horiz-adv-x="1069" d="M131 0v860h207l-4 -160q39 84 116.5 131.5t174.5 47.5q145 0 233 -98.5t88 -270.5v-510h-207v494q0 195 -178 194q-102 0 -162.5 -58.5t-60.5 -162.5v-467h-207z" />
<glyph unicode="o" horiz-adv-x="1103" d="M88 430.5q0 190.5 134 319.5t331 129t330 -128t133 -320.5t-133 -320.5t-330 -128t-331 129t-134 319.5zM301 430q0 -119 68.5 -194.5t183.5 -75.5t182.5 75.5t67.5 194.5t-67.5 193.5t-182.5 74.5t-183.5 -74.5t-68.5 -193.5z" />
<glyph unicode="p" horiz-adv-x="1128" d="M131 -434v1294h209l-6 -160q92 178 305 179q168 0 283.5 -127t115.5 -319.5t-116.5 -321.5t-286.5 -129q-104 0 -180 45t-115 120v-581h-209zM332 432q0 -121 68.5 -194.5t181 -73.5t178 73.5t65.5 194.5q0 117 -66.5 189.5t-176.5 72.5q-113 0 -181.5 -72.5 t-68.5 -189.5z" />
<glyph unicode="q" horiz-adv-x="1128" d="M90 432.5q0 192.5 117 319.5t282 127q213 0 308 -179l-6 160h206v-1294h-206v581q-88 -166 -297 -165q-170 0 -287 129t-117 321.5zM303 432q0 -121 65.5 -194.5t178 -73.5t181.5 73.5t69 194.5q0 117 -69 189.5t-181 72.5q-111 0 -177.5 -72.5t-66.5 -189.5z" />
<glyph unicode="r" horiz-adv-x="763" d="M131 0v860h207l-2 -162q76 178 250 179q82 0 141 -37l-70 -187q-57 29 -112 29q-207 0 -207 -264v-418h-207z" />
<glyph unicode="s" horiz-adv-x="849" d="M53 160l142 98q78 -111 231 -111q152 0 152 93q0 43 -35 63.5t-135 46.5q-25 6 -39 10q-117 33 -185.5 91.5t-68.5 173.5q0 123 86 188.5t221 65.5q180 0 299 -129l-121 -119q-74 84 -178 84q-121 0 -121 -80q0 -45 37 -65.5t151 -49.5q61 -16 103.5 -32.5t87.5 -46 t68.5 -78t23.5 -113.5q0 -121 -81 -194.5t-253 -73.5q-137 0 -237.5 51t-147.5 127z" />
<glyph unicode="t" horiz-adv-x="733" d="M68 686v174h129v449h206v-449h230v-174h-230v-399q0 -127 86 -127q53 0 103 41l98 -140q-86 -82 -221 -81q-272 0 -272 311v395h-129z" />
<glyph unicode="u" horiz-adv-x="1064" d="M123 348v512h207v-495q0 -195 178 -195q102 0 160.5 59.5t58.5 163.5v467h207v-860h-207l4 158q-41 -84 -115.5 -130t-173.5 -46q-143 0 -231 97t-88 269z" />
<glyph unicode="v" horiz-adv-x="972" d="M35 860h229l174 -381q33 -72 60 -186q25 115 55 186l174 381h211l-436 -878h-27z" />
<glyph unicode="w" horiz-adv-x="1402" d="M35 860h229l137 -352l52 -162q27 98 59 162l184 369h21l190 -385q31 -61 62 -162q27 98 51 162l141 368h207l-377 -880h-22l-213 417q-12 25 -24.5 61t-18.5 60l-6 25q-25 -90 -54 -146l-221 -417h-22z" />
<glyph unicode="x" horiz-adv-x="1007" d="M49 0l336 453l-293 407h246l117 -166q12 -18 25.5 -44.5t19.5 -43.5l8 -18q20 63 51 106l123 166h227l-286 -391l335 -469h-245l-154 215q-14 20 -30.5 50t-24.5 50l-8 19q-29 -74 -62 -119l-158 -215h-227z" />
<glyph unicode="y" horiz-adv-x="974" d="M35 860h229l180 -430q12 -29 24.5 -74t18.5 -73l7 -31q18 113 47 178l184 430h215l-563 -1294h-213l223 512z" />
<glyph unicode="z" horiz-adv-x="878" d="M57 0v23l443 669h-394v168h711v-22l-444 -670h422v-168h-738z" />
<glyph unicode="{" horiz-adv-x="798" d="M53 465v178h117q61 0 90 32t29 107v402q0 295 297 295h145v-176h-129q-55 0 -79.5 -29t-24.5 -96v-422q0 -172 -160 -201q160 -33 160 -203v-313q0 -68 24.5 -96.5t79.5 -28.5h129v-176h-145q-297 0 -297 295v295q0 76 -29 106.5t-90 30.5h-117z" />
<glyph unicode="|" horiz-adv-x="526" d="M164 -262v1741h198v-1741h-198z" />
<glyph unicode="}" horiz-adv-x="798" d="M68 -86h129q55 0 78.5 28.5t23.5 96.5v313q0 172 162 201q-162 33 -162 205v420q0 68 -23.5 96.5t-78.5 28.5h-129v176h145q295 0 295 -295v-402q0 -76 29.5 -107.5t91.5 -31.5h116v-178h-116q-61 0 -91 -32t-30 -105v-295q0 -295 -295 -295h-145v176z" />
<glyph unicode="~" horiz-adv-x="819" d="M86 455q6 123 61.5 189.5t139.5 66.5q66 0 135 -56q72 -53 100 -53q57 0 66 107l145 -15q-6 -125 -60.5 -190.5t-140.5 -65.5q-66 0 -135 56q-6 4 -18 14t-17.5 13t-13.5 9.5t-12 7.5t-11.5 4t-13.5 4t-12 1q-59 0 -68 -107z" />
<glyph unicode="&#xa1;" horiz-adv-x="548" d="M129 1259.5q0 61.5 43 103.5t102.5 42t102.5 -42t43 -103.5t-43 -103.5t-102.5 -42t-102.5 42t-43 103.5zM158 0l35 954h163l35 -954h-233z" />
<glyph unicode="&#xa2;" horiz-adv-x="972" d="M88 430q0 176 111.5 300t285.5 144v222h113v-219q184 -14 303 -162l-145 -117q-53 80 -158 98v-534q92 12 168 96l137 -121q-121 -139 -305 -153v-222h-113v224q-174 23 -285.5 145.5t-111.5 298.5zM297 430q0 -102 50 -174t138 -92v530q-88 -20 -138 -91t-50 -173z" />
<glyph unicode="&#xa3;" horiz-adv-x="1150" d="M49 188q0 88 61.5 140.5t153.5 52.5q70 0 142 -31q-14 68 -60 168h-196v162h124q-51 131 -51 221q0 158 113 261.5t303 103.5q139 0 240.5 -63.5t154.5 -174.5l-172 -100q-39 80 -90 115.5t-133 35.5q-94 0 -149.5 -49t-55.5 -139q0 -84 47 -211h328v-162h-264 q51 -145 51 -260v-18q121 -76 209 -76q102 0 176 84l125 -125q-109 -141 -293 -141q-143 0 -285 110q-96 -111 -239 -110q-109 0 -174.5 57t-65.5 149zM205 182.5q0 -30.5 22.5 -50t59.5 -19.5q88 0 123 80q-76 57 -125 57q-37 0 -58.5 -18.5t-21.5 -49z" />
<glyph unicode="&#xa4;" horiz-adv-x="1249" d="M68 324v147h133q-2 18 -2 55t2 54h-133v147h165q59 154 197.5 247t310.5 93q264 0 412 -188l-145 -121q-98 131 -267 131q-199 0 -288 -162h356v-147h-401q-2 -16 -2 -54q0 -10 1 -28.5t1 -26.5h401v-147h-354q90 -162 286 -162q178 0 275 143l155 -112 q-74 -109 -177 -160t-253 -51q-172 0 -308 93t-197 249h-168z" />
<glyph unicode="&#xa5;" horiz-adv-x="1157" d="M68 1051h231l219 -400q39 -74 68 -174q31 100 69 174l219 400h216l-246 -422h203v-148h-287l-74 -125h361v-147h-363v-209h-213v209h-362v147h358l-72 125h-286v148h202z" />
<glyph unicode="&#xa6;" d="M86 514q0 59 42 99t99.5 40t98.5 -40t41 -99q0 -61 -41 -102t-98.5 -41t-99.5 41t-42 102z" />
<glyph unicode="&#xa7;" horiz-adv-x="1042" d="M61 578q0 78 47.5 136t127.5 89q-49 76 -50 168q0 129 95.5 212t240.5 83q240 0 344 -207l-166 -80q-61 119 -170 119q-70 0 -107.5 -33t-37.5 -88q0 -96 111 -137l206 -80q279 -104 279 -301q0 -156 -168 -230q49 -66 49 -159q0 -129 -93 -205t-261 -76 q-139 0 -243.5 62.5t-147.5 156.5l166 86q63 -135 217 -135q72 0 113.5 29.5t41.5 79.5q0 43 -28.5 71.5t-96.5 55.5l-186 71q-147 55 -215 129t-68 183zM256 608q0 -57 29.5 -92t107.5 -65l191 -72q82 -33 129 -60q76 31 75 105q0 55 -31.5 89t-111.5 65l-205 79 q-72 27 -116 62q-68 -35 -68 -111z" />
<glyph unicode="&#xa8;" horiz-adv-x="1024" d="M188 1171q0 49 38 86t87 37t86 -35.5t37 -87t-37 -88t-86 -36.5t-87 36.5t-38 87.5zM588 1171q0 49 37 86t86 37t87 -36.5t38 -86.5q0 -51 -38 -87.5t-87 -36.5t-86 36.5t-37 87.5z" />
<glyph unicode="&#xa9;" horiz-adv-x="1220" d="M70 526q0 231 159.5 386t382.5 155q221 0 380 -154.5t159 -386.5q0 -229 -158.5 -383.5t-380 -154.5t-382 154.5t-160.5 383.5zM176 526.5q0 -192.5 126 -315.5t310 -123q182 0 307 123t125 315.5t-124.5 316.5t-307.5 124q-184 0 -310 -124t-126 -316.5zM313 526 q0 133 87 220.5t216 87.5q145 0 244 -109l-115 -104q-45 57 -116 57q-61 0 -98 -42t-37 -110q0 -63 37.5 -106t99.5 -43q76 0 119 59l114 -102q-92 -111 -243 -111q-133 0 -220.5 86t-87.5 217z" />
<glyph unicode="&#xaa;" horiz-adv-x="849" d="M72 532.5q0 110.5 82 168t211 57.5h192q-2 84 -38 118.5t-103 34.5q-106 0 -189 -86l-114 105q115 137 321 137q139 0 226.5 -78t87.5 -237v-428h-191l4 92q-78 -111 -221 -111q-117 0 -192.5 58.5t-75.5 169zM260 545q0 -90 127 -90q78 0 124 33.5t46 93.5v47h-174 q-123 0 -123 -84z" />
<glyph unicode="&#xab;" horiz-adv-x="919" d="M72 406v16l192 330h207l-199 -338l199 -342h-207zM449 406v16l194 330h205l-199 -338l199 -342h-205z" />
<glyph unicode="&#xac;" d="M86 514q0 59 42 99t99.5 40t98.5 -40t41 -99q0 -61 -41 -102t-98.5 -41t-99.5 41t-42 102z" />
<glyph unicode="&#xad;" horiz-adv-x="602" d="M84 391v187h432v-187h-432z" />
<glyph unicode="&#xae;" horiz-adv-x="1044" d="M70 972.5q0 190.5 131 317.5t319 127q190 0 322.5 -127t132.5 -317.5t-132 -316.5t-323 -126q-188 0 -319 126t-131 316.5zM166 971q0 -162 99.5 -259.5t254.5 -97.5q158 0 259.5 98.5t101.5 258.5q0 164 -101.5 262t-259.5 98q-156 0 -255 -98t-99 -262zM354 743v465 h170q94 0 146.5 -51t52.5 -123q0 -102 -84 -151l86 -140h-119l-67 115h-11h-61v-115h-113zM467 946h59q86 0 86 84q0 39 -23.5 60.5t-62.5 21.5h-59v-166z" />
<glyph unicode="&#xaf;" horiz-adv-x="1024" d="M281 1079v156h462v-156h-462z" />
<glyph unicode="&#x2c9;" horiz-adv-x="1024" d="M281 1079v156h462v-156h-462z" />
<glyph unicode="&#xb0;" horiz-adv-x="671" d="M74 817q0 106 76.5 178t185.5 72q111 0 186.5 -71.5t75.5 -178.5q0 -102 -77 -176t-185.5 -74t-185 74t-76.5 176zM219 817q0 -53 33 -87t84 -34q53 0 86 34t33 87q0 55 -33 89t-86 34t-85 -34t-32 -89z" />
<glyph unicode="&#xb2;" d="M86 514q0 59 42 99t99.5 40t98.5 -40t41 -99q0 -61 -41 -102t-98.5 -41t-99.5 41t-42 102z" />
<glyph unicode="&#xb3;" d="M86 514q0 59 42 99t99.5 40t98.5 -40t41 -99q0 -61 -41 -102t-98.5 -41t-99.5 41t-42 102z" />
<glyph unicode="&#xb4;" horiz-adv-x="1024" d="M432 1022l123 389h238l-201 -389h-160z" />
<glyph unicode="&#xb5;" d="M86 514q0 59 42 99t99.5 40t98.5 -40t41 -99q0 -61 -41 -102t-98.5 -41t-99.5 41t-42 102z" />
<glyph unicode="&#x3bc;" d="M86 514q0 59 42 99t99.5 40t98.5 -40t41 -99q0 -61 -41 -102t-98.5 -41t-99.5 41t-42 102z" />
<glyph unicode="&#xb6;" horiz-adv-x="1361" d="M86 973q0 174 119 297t325 123h664v-1393h-205v1210h-149v-1210h-207v561h-103q-207 0 -325.5 118t-118.5 294zM313 976.5q0 -110.5 61.5 -172t162.5 -61.5h96v467h-96q-100 0 -162 -61.5t-62 -172z" />
<glyph unicode="&#xb7;" horiz-adv-x="456" d="M88 514q0 59 42 99t99.5 40t98.5 -40t41 -99q0 -61 -41 -102t-98.5 -41t-99.5 41t-42 102z" />
<glyph unicode="&#x2219;" horiz-adv-x="456" d="M88 514q0 59 42 99t99.5 40t98.5 -40t41 -99q0 -61 -41 -102t-98.5 -41t-99.5 41t-42 102z" />
<glyph unicode="&#xb8;" horiz-adv-x="1024" d="M303 -360l107 63q33 -68 102 -68q37 0 61.5 21.5t24.5 60.5t-26.5 62.5t-73.5 23.5h-56v197h117v-94q76 -14 126 -65.5t50 -133.5q0 -86 -61.5 -138t-145.5 -52q-157 0 -225 123z" />
<glyph unicode="&#xb9;" d="M86 514q0 59 42 99t99.5 40t98.5 -40t41 -99q0 -61 -41 -102t-98.5 -41t-99.5 41t-42 102z" />
<glyph unicode="&#xba;" horiz-adv-x="954" d="M82 686q0 162 114.5 271.5t280.5 109.5t280.5 -109.5t114.5 -271.5q0 -164 -114.5 -272.5t-280.5 -108.5t-280.5 108.5t-114.5 272.5zM281 686q0 -98 53 -159.5t143 -61.5t145.5 61.5t55.5 159.5t-55.5 158.5t-145.5 60.5t-143 -60.5t-53 -158.5z" />
<glyph unicode="&#xbb;" horiz-adv-x="919" d="M72 72l198 338l-198 342h204l195 -334v-17l-195 -329h-204zM449 72l198 338l-198 342h206l193 -334v-17l-193 -329h-206z" />
<glyph unicode="&#xbc;" d="M86 514q0 59 42 99t99.5 40t98.5 -40t41 -99q0 -61 -41 -102t-98.5 -41t-99.5 41t-42 102z" />
<glyph unicode="&#xbd;" d="M86 514q0 59 42 99t99.5 40t98.5 -40t41 -99q0 -61 -41 -102t-98.5 -41t-99.5 41t-42 102z" />
<glyph unicode="&#xbe;" d="M86 514q0 59 42 99t99.5 40t98.5 -40t41 -99q0 -61 -41 -102t-98.5 -41t-99.5 41t-42 102z" />
<glyph unicode="&#xbf;" horiz-adv-x="989" d="M94 381q0 166 88 268.5t260 130.5v189h199v-361h-84q-125 0 -185.5 -64.5t-60.5 -162.5q0 -88 55.5 -150.5t147.5 -62.5t147.5 39t96.5 125l168 -96q-102 -254 -412 -254q-199 0 -309.5 111.5t-110.5 287.5zM399 1259.5q0 61.5 43 103.5t103 42q57 0 101 -42t44 -103.5 t-44 -103.5t-101 -42q-59 0 -102.5 42t-43.5 103.5z" />
<glyph unicode="&#xc0;" horiz-adv-x="1349" d="M59 0l596 1407h25l610 -1407h-225l-80 197h-637l-80 -197h-209zM391 1927h238l123 -389h-160zM422 379h485l-174 434q-16 37 -33.5 88t-27.5 86l-8 33q-33 -125 -68 -207z" />
<glyph unicode="&#xc1;" horiz-adv-x="1349" d="M59 0l596 1407h25l610 -1407h-225l-80 197h-637l-80 -197h-209zM422 379h485l-174 434q-16 37 -33.5 88t-27.5 86l-8 33q-33 -125 -68 -207zM592 1538l123 389h237l-200 -389h-160z" />
<glyph unicode="&#xc2;" horiz-adv-x="1349" d="M59 0l596 1407h25l610 -1407h-225l-80 197h-637l-80 -197h-209zM362 1536l293 418h23l293 -418h-170l-133 170l-136 -170h-170zM422 379h485l-174 434q-16 37 -33.5 88t-27.5 86l-8 33q-33 -125 -68 -207z" />
<glyph unicode="&#xc3;" horiz-adv-x="1349" d="M59 0l596 1407h25l610 -1407h-225l-80 197h-637l-80 -197h-209zM340 1546q6 123 61.5 189.5t139.5 66.5q68 0 135 -53q6 -6 21 -17l20 -15q4 -3 14 -9t15.5 -8t13.5 -4t16 -2q57 0 66 106l145 -14q-6 -123 -60.5 -189.5t-140.5 -66.5q-66 0 -135 55q-8 6 -24.5 19.5 t-22.5 16.5t-16 9t-17.5 8t-17.5 2q-57 0 -68 -108zM422 379h485l-174 434q-16 37 -33.5 88t-27.5 86l-8 33q-33 -125 -68 -207z" />
<glyph unicode="&#xc4;" horiz-adv-x="1349" d="M59 0l596 1407h25l610 -1407h-225l-80 197h-637l-80 -197h-209zM352 1688q0 49 38 85.5t87 36.5t86 -35.5t37 -87t-37 -88t-86 -36.5t-87 37t-38 88zM422 379h485l-174 434q-16 37 -33.5 88t-27.5 86l-8 33q-33 -125 -68 -207zM752 1688q0 49 36.5 85.5t86 36.5t87 -36.5 t37.5 -85.5q0 -51 -37.5 -88t-87 -37t-86 37t-36.5 88z" />
<glyph unicode="&#xc5;" horiz-adv-x="1349" d="M59 0l596 1407h25l610 -1407h-225l-80 197h-637l-80 -197h-209zM422 379h485l-174 434q-16 37 -33.5 88t-27.5 86l-8 33q-33 -125 -68 -207zM436 1706q0 94 69.5 159.5t170 65.5t170 -65.5t69.5 -159.5q0 -92 -69.5 -157.5t-170 -65.5t-170 65.5t-69.5 157.5zM578 1706 q0 -47 27.5 -74.5t70.5 -27.5t70.5 27.5t27.5 74.5q0 49 -27.5 76.5t-70.5 27.5t-70.5 -27.5t-27.5 -76.5z" />
<glyph unicode="&#xc6;" horiz-adv-x="1988" d="M43 0l942 1393h854v-191h-668v-540h592v-187h-592v-285h697v-190h-912v197h-553l-131 -197h-229zM530 383h426v518q0 35 4.5 81t8.5 75l4 28q-41 -96 -86 -163z" />
<glyph unicode="&#xc7;" horiz-adv-x="1488" d="M104 696q0 307 207 510t508 203q373 0 557 -276l-166 -119q-129 201 -391 200q-215 0 -354 -147t-139 -370.5t139 -372t354 -148.5q264 0 412 219l166 -116q-193 -291 -563 -297v-76q76 -14 126 -65.5t50 -133.5q0 -86 -61.5 -138t-145.5 -52q-158 0 -225 123l106 63 q33 -68 102 -68q37 0 61.5 21.5t24.5 60.5t-26.5 62.5t-73.5 23.5h-55v185q-264 37 -438.5 232t-174.5 476z" />
<glyph unicode="&#xc8;" horiz-adv-x="1202" d="M168 0v1393h885v-191h-668v-540h592v-187h-592v-285h696v-190h-913zM352 1927h238l123 -389h-160z" />
<glyph unicode="&#xc9;" horiz-adv-x="1202" d="M168 0v1393h885v-191h-668v-540h592v-187h-592v-285h696v-190h-913zM528 1538l123 389h238l-201 -389h-160z" />
<glyph unicode="&#xca;" horiz-adv-x="1202" d="M168 0v1393h885v-191h-668v-540h592v-187h-592v-285h696v-190h-913zM313 1536l293 418h23l293 -418h-170l-134 170l-135 -170h-170z" />
<glyph unicode="&#xcb;" horiz-adv-x="1202" d="M168 0v1393h885v-191h-668v-540h592v-187h-592v-285h696v-190h-913zM293 1688q0 49 38 85.5t87 36.5t86 -35.5t37 -87t-37 -88t-86 -36.5t-87 37t-38 88zM692 1688q0 49 37 85.5t86 36.5t87 -36.5t38 -85.5q0 -51 -38 -88t-87 -37t-86 37t-37 88z" />
<glyph unicode="&#xcc;" horiz-adv-x="565" d="M-2 1927h238l122 -389h-159zM176 0v1393h215v-1393h-215z" />
<glyph unicode="&#xcd;" horiz-adv-x="565" d="M176 0v1393h215v-1393h-215zM205 1538l123 389h237l-200 -389h-160z" />
<glyph unicode="&#xce;" horiz-adv-x="567" d="M-23 1536l293 418h23l293 -418h-170l-133 170l-136 -170h-170zM176 0v1393h215v-1393h-215z" />
<glyph unicode="&#xcf;" horiz-adv-x="563" d="M-43 1688q0 49 38 85.5t87 36.5t86 -35.5t37 -87t-37 -88t-86 -36.5t-87 37t-38 88zM176 0v1393h215v-1393h-215zM356 1688q0 49 37 85.5t86 36.5t87 -36.5t38 -85.5q0 -51 -38 -88t-87 -37t-86 37t-37 88z" />
<glyph unicode="&#xd0;" horiz-adv-x="1396" d="M27 492v186h141v715h391q330 0 532.5 -193.5t202.5 -503t-202.5 -503t-532.5 -193.5h-391v492h-141zM385 190h162q258 0 390 137.5t132 369t-132 368.5t-390 137h-162v-524h342v-186h-342v-302z" />
<glyph unicode="&#xd1;" horiz-adv-x="1447" d="M168 0v1407h29l768 -825l129 -156q-14 123 -15 201v766h201v-1407h-27l-768 827l-131 156q14 -115 15 -201v-768h-201zM399 1546q6 123 61.5 189.5t139.5 66.5q68 0 135 -53q6 -6 22 -17l19 -15q4 -3 14.5 -9t15.5 -8t13 -4t17 -2q57 0 65 106l146 -14 q-6 -123 -60.5 -189.5t-140.5 -66.5q-66 0 -135 55q-8 6 -24.5 19.5t-23 16.5t-16.5 9t-17 8t-18 2q-57 0 -67 -108z" />
<glyph unicode="&#xd2;" horiz-adv-x="1644" d="M104 696.5q0 309.5 208 512t511 202.5q301 0 509 -202.5t208 -512t-208 -512t-509 -202.5q-303 0 -511 202.5t-208 512zM326 696.5q0 -223.5 140 -372t357 -148.5t356.5 148.5t139.5 372t-139.5 372t-356.5 148.5t-357 -148.5t-140 -372zM543 1927h237l123 -389h-160z " />
<glyph unicode="&#xd3;" horiz-adv-x="1644" d="M104 696.5q0 309.5 208 512t511 202.5q301 0 509 -202.5t208 -512t-208 -512t-509 -202.5q-303 0 -511 202.5t-208 512zM326 696.5q0 -223.5 140 -372t357 -148.5t356.5 148.5t139.5 372t-139.5 372t-356.5 148.5t-357 -148.5t-140 -372zM743 1538l123 389h238l-201 -389 h-160z" />
<glyph unicode="&#xd4;" horiz-adv-x="1644" d="M104 696.5q0 309.5 208 512t511 202.5q301 0 509 -202.5t208 -512t-208 -512t-509 -202.5q-303 0 -511 202.5t-208 512zM326 696.5q0 -223.5 140 -372t357 -148.5t356.5 148.5t139.5 372t-139.5 372t-356.5 148.5t-357 -148.5t-140 -372zM518 1536l293 418h23l292 -418 h-170l-133 170l-135 -170h-170z" />
<glyph unicode="&#xd5;" horiz-adv-x="1644" d="M104 696.5q0 309.5 208 512t511 202.5q301 0 509 -202.5t208 -512t-208 -512t-509 -202.5q-303 0 -511 202.5t-208 512zM326 696.5q0 -223.5 140 -372t357 -148.5t356.5 148.5t139.5 372t-139.5 372t-356.5 148.5t-357 -148.5t-140 -372zM500 1546q6 123 61 189.5 t139 66.5q68 0 136 -53q6 -6 21 -17l20 -15q4 -3 14 -9t15 -8t13.5 -4t16.5 -2q57 0 65 106l146 -14q-6 -123 -60.5 -189.5t-140.5 -66.5q-66 0 -135 55q-8 6 -24.5 19.5t-22.5 16.5t-16.5 9t-17.5 8t-17 2q-57 0 -68 -108z" />
<glyph unicode="&#xd6;" horiz-adv-x="1644" d="M104 696.5q0 309.5 208 512t511 202.5q301 0 509 -202.5t208 -512t-208 -512t-509 -202.5q-303 0 -511 202.5t-208 512zM326 696.5q0 -223.5 140 -372t357 -148.5t356.5 148.5t139.5 372t-139.5 372t-356.5 148.5t-357 -148.5t-140 -372zM500 1688q0 49 37.5 85.5 t87 36.5t86.5 -35.5t37 -87t-37 -88t-86.5 -36.5t-87 37t-37.5 88zM899 1688q0 49 37 85.5t86 36.5t87 -36.5t38 -85.5q0 -51 -38 -88t-87 -37t-86 37t-37 88z" />
<glyph unicode="&#xd7;" d="M86 514q0 59 42 99t99.5 40t98.5 -40t41 -99q0 -61 -41 -102t-98.5 -41t-99.5 41t-42 102z" />
<glyph unicode="&#xd8;" horiz-adv-x="1640" d="M88 98l162 158q-147 190 -148 440q0 307 208 511t511 204q256 0 451 -156l160 156l120 -119l-159 -157q145 -188 145 -439q0 -305 -208 -509.5t-509 -204.5q-258 0 -450 153l-162 -155zM324 696q0 -166 82 -288l720 708q-125 102 -305 103q-217 0 -357 -150t-140 -373z M514 276q129 -102 307 -102q217 0 357.5 149.5t140.5 372.5q0 162 -82 289z" />
<glyph unicode="&#xd9;" horiz-adv-x="1380" d="M160 489v904h217v-891q0 -326 313 -326q315 0 316 326v891h215v-904q0 -246 -147.5 -376.5t-383.5 -130.5q-238 0 -384 130.5t-146 376.5zM410 1927h237l123 -389h-160z" />
<glyph unicode="&#xda;" horiz-adv-x="1380" d="M160 489v904h217v-891q0 -326 313 -326q315 0 316 326v891h215v-904q0 -246 -147.5 -376.5t-383.5 -130.5q-238 0 -384 130.5t-146 376.5zM610 1538l123 389h238l-201 -389h-160z" />
<glyph unicode="&#xdb;" horiz-adv-x="1380" d="M160 489v904h217v-891q0 -326 313 -326q315 0 316 326v891h215v-904q0 -246 -147.5 -376.5t-383.5 -130.5q-238 0 -384 130.5t-146 376.5zM385 1536l293 418h22l293 -418h-170l-133 170l-135 -170h-170z" />
<glyph unicode="&#xdc;" horiz-adv-x="1380" d="M160 489v904h217v-891q0 -326 313 -326q315 0 316 326v891h215v-904q0 -246 -147.5 -376.5t-383.5 -130.5q-238 0 -384 130.5t-146 376.5zM367 1688q0 49 37.5 85.5t87 36.5t86 -35.5t36.5 -87t-36.5 -88t-86 -36.5t-87 37t-37.5 88zM766 1688q0 49 37 85.5t86 36.5 t87 -36.5t38 -85.5q0 -51 -38 -88t-87 -37t-86 37t-37 88z" />
<glyph unicode="&#xdd;" horiz-adv-x="1368" d="M59 1393h240l315 -574q43 -78 84 -201q43 123 84 201l305 574h224l-506 -940v-453h-217v440zM606 1538l123 389h238l-201 -389h-160z" />
<glyph unicode="&#xde;" horiz-adv-x="1212" d="M168 0v1393h217v-156h139q281 0 436.5 -144.5t155.5 -388t-155.5 -386t-436.5 -142.5h-139v-176h-217zM385 365h131q379 0 379 340q0 342 -379 342h-131v-682z" />
<glyph unicode="&#xdf;" horiz-adv-x="1146" d="M131 0v1090q0 201 112.5 308t291.5 107q176 0 280.5 -101t104.5 -276q0 -213 -181 -299q150 -37 235 -139t85 -262q0 -197 -115 -317.5t-319 -120.5q-106 0 -166 22l30 170q53 -16 103 -16q125 0 189.5 70.5t64.5 197.5q0 141 -88 214t-246 69v166q96 12 152.5 70.5 t56.5 167t-50 160.5t-136 52q-88 0 -142.5 -59.5t-54.5 -179.5v-1094h-207z" />
<glyph unicode="&#xe0;" horiz-adv-x="980" d="M78 254q0 129 92 192.5t246 65.5h235q0 195 -172 195q-135 0 -225 -103l-119 121q129 154 361 154q164 0 263 -94.5t99 -276.5v-508h-207l6 123q-94 -141 -270 -141q-137 0 -223 67.5t-86 204.5zM227 1411h238l123 -389h-160zM281 260q0 -113 163 -113q92 0 149.5 42 t57.5 112v68h-221q-149 0 -149 -109z" />
<glyph unicode="&#xe1;" horiz-adv-x="980" d="M78 254q0 129 92 192.5t246 65.5h235q0 195 -172 195q-135 0 -225 -103l-119 121q129 154 361 154q164 0 263 -94.5t99 -276.5v-508h-207l6 123q-94 -141 -270 -141q-137 0 -223 67.5t-86 204.5zM281 260q0 -113 163 -113q92 0 149.5 42t57.5 112v68h-221 q-149 0 -149 -109zM395 1022l123 389h238l-201 -389h-160z" />
<glyph unicode="&#xe2;" horiz-adv-x="980" d="M78 254q0 129 92 192.5t246 65.5h235q0 195 -172 195q-135 0 -225 -103l-119 121q129 154 361 154q164 0 263 -94.5t99 -276.5v-508h-207l6 123q-94 -141 -270 -141q-137 0 -223 67.5t-86 204.5zM184 1020l293 418h23l293 -418h-170l-134 170l-135 -170h-170zM281 260 q0 -113 163 -113q92 0 149.5 42t57.5 112v68h-221q-149 0 -149 -109z" />
<glyph unicode="&#xe3;" horiz-adv-x="980" d="M78 254q0 129 92 192.5t246 65.5h235q0 195 -172 195q-135 0 -225 -103l-119 121q129 154 361 154q164 0 263 -94.5t99 -276.5v-508h-207l6 123q-94 -141 -270 -141q-137 0 -223 67.5t-86 204.5zM156 1030q6 123 61 189.5t139 66.5q68 0 136 -53q6 -6 21 -18l19 -14 q4 -3 14.5 -9t15.5 -8t13.5 -4t16.5 -2q57 0 65 106l146 -14q-6 -123 -60.5 -189.5t-140.5 -66.5q-66 0 -135 55q-8 6 -24.5 19.5t-22.5 16.5t-16.5 9t-17.5 8t-17 2q-57 0 -68 -108zM281 260q0 -113 163 -113q92 0 149.5 42t57.5 112v68h-221q-149 0 -149 -109z" />
<glyph unicode="&#xe4;" horiz-adv-x="980" d="M78 254q0 129 92 192.5t246 65.5h235q0 195 -172 195q-135 0 -225 -103l-119 121q129 154 361 154q164 0 263 -94.5t99 -276.5v-508h-207l6 123q-94 -141 -270 -141q-137 0 -223 67.5t-86 204.5zM168 1171q0 49 38 86t87 37t86 -35.5t37 -87t-37 -88t-86 -36.5t-87 36.5 t-38 87.5zM281 260q0 -113 163 -113q92 0 149.5 42t57.5 112v68h-221q-149 0 -149 -109zM567 1171q0 49 37 86t86 37t87 -36.5t38 -86.5q0 -51 -38 -87.5t-87 -36.5t-86 36.5t-37 87.5z" />
<glyph unicode="&#xe5;" horiz-adv-x="980" d="M78 254q0 129 92 192.5t246 65.5h235q0 195 -172 195q-135 0 -225 -103l-119 121q129 154 361 154q164 0 263 -94.5t99 -276.5v-508h-207l6 123q-94 -141 -270 -141q-137 0 -223 67.5t-86 204.5zM250 1204q0 94 69.5 160t170 66t170 -66t69.5 -160q0 -92 -69.5 -157.5 t-170 -65.5t-170 65.5t-69.5 157.5zM281 260q0 -113 163 -113q92 0 149.5 42t57.5 112v68h-221q-149 0 -149 -109zM391 1204q0 -47 27.5 -74.5t70.5 -27.5t71 27.5t28 74.5q0 49 -28 77t-71 28t-70.5 -28t-27.5 -77z" />
<glyph unicode="&#xe6;" horiz-adv-x="1642" d="M78 254q0 129 92 193.5t246 64.5h235q0 195 -172 195q-135 0 -225 -103l-119 121q129 154 361 154q209 0 280 -166q119 166 334 166q217 0 336 -144.5t108 -374.5h-694q18 -94 89 -149t184 -55q150 0 245 92l121 -127q-139 -139 -364 -139q-250 0 -369 176 q-43 -84 -134 -130t-210 -46q-158 0 -251 65.5t-93 206.5zM281 260q0 -113 163 -113q92 0 149.5 42t57.5 112v68h-221q-149 0 -149 -109zM860 504h486q-33 203 -236 203q-100 0 -166 -53.5t-84 -149.5z" />
<glyph unicode="&#xe7;" horiz-adv-x="968" d="M88 430q0 193 131 321t328 128q217 0 348 -164l-147 -119q-70 100 -201 100q-113 0 -179.5 -74.5t-66.5 -191.5t66.5 -191.5t179.5 -74.5q125 0 211 96l141 -123q-133 -154 -346 -155v-76q76 -14 126 -65.5t50 -133.5q0 -86 -61.5 -138t-145.5 -52q-158 0 -225 123 l106 63q35 -68 103 -68q37 0 61.5 21.5t24.5 60.5t-26.5 62.5t-73.5 23.5h-56v191q-156 35 -252 153.5t-96 282.5z" />
<glyph unicode="&#xe8;" horiz-adv-x="1079" d="M88 430q0 190 132 319.5t327 129.5q217 0 335.5 -144.5t108.5 -374.5h-692q41 -205 272 -204q147 0 244 92l121 -127q-139 -139 -363 -139q-219 0 -352 125.5t-133 322.5zM272 1411h238l123 -389h-160zM299 504h483q-33 203 -233 203q-100 0 -166 -53.5t-84 -149.5z" />
<glyph unicode="&#xe9;" horiz-adv-x="1079" d="M88 430q0 190 132 319.5t327 129.5q217 0 335.5 -144.5t108.5 -374.5h-692q41 -205 272 -204q147 0 244 92l121 -127q-139 -139 -363 -139q-219 0 -352 125.5t-133 322.5zM299 504h483q-33 203 -233 203q-100 0 -166 -53.5t-84 -149.5zM459 1022l123 389h237l-201 -389 h-159z" />
<glyph unicode="&#xea;" horiz-adv-x="1079" d="M88 430q0 190 132 319.5t327 129.5q217 0 335.5 -144.5t108.5 -374.5h-692q41 -205 272 -204q147 0 244 92l121 -127q-139 -139 -363 -139q-219 0 -352 125.5t-133 322.5zM233 1020l293 418h23l293 -418h-170l-133 170l-136 -170h-170zM299 504h483q-33 203 -233 203 q-100 0 -166 -53.5t-84 -149.5z" />
<glyph unicode="&#xeb;" horiz-adv-x="1079" d="M88 430q0 190 132 319.5t327 129.5q217 0 335.5 -144.5t108.5 -374.5h-692q41 -205 272 -204q147 0 244 92l121 -127q-139 -139 -363 -139q-219 0 -352 125.5t-133 322.5zM215 1171q0 49 38 86t87 37t86 -35.5t37 -87t-37 -88t-86 -36.5t-87 36.5t-38 87.5zM299 504h483 q-33 203 -233 203q-100 0 -166 -53.5t-84 -149.5zM614 1171q0 49 37 86t86 37t87 -36.5t38 -86.5q0 -51 -38 -87.5t-87 -36.5t-86 36.5t-37 87.5z" />
<glyph unicode="&#xec;" horiz-adv-x="483" d="M-41 1411h238l122 -389h-159zM137 0v860h209v-860h-209z" />
<glyph unicode="&#xed;" horiz-adv-x="483" d="M137 0v860h209v-860h-209zM156 1022l123 389h237l-201 -389h-159z" />
<glyph unicode="&#xee;" horiz-adv-x="485" d="M-63 1020l292 418h23l293 -418h-170l-133 170l-136 -170h-169zM137 0v860h209v-860h-209z" />
<glyph unicode="&#xef;" horiz-adv-x="483" d="M-82 1171q0 49 38 86t87 37t86 -35.5t37 -87t-37 -88t-86 -36.5t-87 36.5t-38 87.5zM137 0v860h209v-860h-209zM317 1171q0 49 37 86t86 37t87 -36.5t38 -86.5q0 -51 -38 -87.5t-87 -36.5t-86 36.5t-37 87.5z" />
<glyph unicode="&#xf0;" horiz-adv-x="1103" d="M88 430.5q0 190.5 130 319.5t304 129q143 0 230 -93q-51 162 -195 344l-129 -122l-98 98l135 129q-82 84 -156 147l111 131q96 -74 176 -149l125 121l100 -99l-129 -124q324 -365 324 -801q0 -217 -131 -348t-332 -131q-197 0 -331 129t-134 319.5zM301 430 q0 -119 68.5 -194.5t183.5 -75.5t182.5 76.5t67.5 197.5q0 117 -67.5 190.5t-182.5 73.5t-183.5 -74.5t-68.5 -193.5z" />
<glyph unicode="&#xf1;" horiz-adv-x="1069" d="M131 0v860h207l-4 -160q39 84 116.5 131.5t174.5 47.5q145 0 233 -98.5t88 -270.5v-510h-207v494q0 195 -178 194q-102 0 -162.5 -58.5t-60.5 -162.5v-467h-207zM209 1030q6 123 61.5 189.5t139.5 66.5q68 0 135 -53q6 -6 21 -18l20 -14q4 -3 14 -9t15.5 -8t13.5 -4 t16 -2q57 0 66 106l145 -14q-6 -123 -60.5 -189.5t-140.5 -66.5q-66 0 -135 55q-8 6 -24.5 19.5t-22.5 16.5t-16.5 9t-17.5 8t-17 2q-57 0 -68 -108z" />
<glyph unicode="&#xf2;" horiz-adv-x="1103" d="M88 430.5q0 190.5 134 319.5t331 129t330 -128t133 -320.5t-133 -320.5t-330 -128t-331 129t-134 319.5zM266 1411h238l123 -389h-160zM301 430q0 -119 68.5 -194.5t183.5 -75.5t182.5 75.5t67.5 194.5t-67.5 193.5t-182.5 74.5t-183.5 -74.5t-68.5 -193.5z" />
<glyph unicode="&#xf3;" horiz-adv-x="1103" d="M88 430.5q0 190.5 134 319.5t331 129t330 -128t133 -320.5t-133 -320.5t-330 -128t-331 129t-134 319.5zM301 430q0 -119 68.5 -194.5t183.5 -75.5t182.5 75.5t67.5 194.5t-67.5 193.5t-182.5 74.5t-183.5 -74.5t-68.5 -193.5zM475 1022l123 389h238l-201 -389h-160z" />
<glyph unicode="&#xf4;" horiz-adv-x="1103" d="M88 430.5q0 190.5 134 319.5t331 129t330 -128t133 -320.5t-133 -320.5t-330 -128t-331 129t-134 319.5zM246 1020l293 418h22l293 -418h-170l-133 170l-135 -170h-170zM301 430q0 -119 68.5 -194.5t183.5 -75.5t182.5 75.5t67.5 194.5t-67.5 193.5t-182.5 74.5 t-183.5 -74.5t-68.5 -193.5z" />
<glyph unicode="&#xf5;" horiz-adv-x="1103" d="M88 430.5q0 190.5 134 319.5t331 129t330 -128t133 -320.5t-133 -320.5t-330 -128t-331 129t-134 319.5zM227 1030q6 123 61.5 189.5t139.5 66.5q68 0 135 -53q6 -6 22 -18l19 -14q4 -3 14.5 -9t15.5 -8t13 -4t17 -2q57 0 65 106l145 -14q-6 -123 -60 -189.5t-140 -66.5 q-66 0 -135 55q-8 6 -24.5 19.5t-23 16.5t-16.5 9t-17 8t-18 2q-57 0 -67 -108zM301 430q0 -119 68.5 -194.5t183.5 -75.5t182.5 75.5t67.5 194.5t-67.5 193.5t-182.5 74.5t-183.5 -74.5t-68.5 -193.5z" />
<glyph unicode="&#xf6;" horiz-adv-x="1103" d="M88 430.5q0 190.5 134 319.5t331 129t330 -128t133 -320.5t-133 -320.5t-330 -128t-331 129t-134 319.5zM227 1171q0 49 38 86t87 37t86 -35.5t37 -87t-37 -88t-86 -36.5t-87 36.5t-38 87.5zM301 430q0 -119 68.5 -194.5t183.5 -75.5t182.5 75.5t67.5 194.5t-67.5 193.5 t-182.5 74.5t-183.5 -74.5t-68.5 -193.5zM627 1171q0 49 36.5 86t86 37t87 -36.5t37.5 -86.5q0 -51 -37.5 -87.5t-87 -36.5t-86 36.5t-36.5 87.5z" />
<glyph unicode="&#xf7;" d="M86 514q0 59 42 99t99.5 40t98.5 -40t41 -99q0 -61 -41 -102t-98.5 -41t-99.5 41t-42 102z" />
<glyph unicode="&#xf8;" horiz-adv-x="1103" d="M49 72l119 104q-80 115 -80 254q0 190 134 319.5t331 129.5q166 0 293 -101l123 109l86 -101l-119 -104q80 -113 80 -252q0 -193 -133 -320.5t-330 -127.5q-168 0 -295 100l-123 -109zM291 430q0 -66 22 -123l396 350q-63 47 -156 48q-117 0 -189.5 -77t-72.5 -198z M393 203q68 -51 160 -51q117 0 188.5 77.5t71.5 200.5q0 66 -22 123z" />
<glyph unicode="&#xf9;" horiz-adv-x="1064" d="M123 348v512h207v-495q0 -195 178 -195q102 0 160.5 59.5t58.5 163.5v467h207v-860h-207l4 158q-41 -84 -115.5 -130t-173.5 -46q-143 0 -231 97t-88 269zM252 1411h237l123 -389h-159z" />
<glyph unicode="&#xfa;" horiz-adv-x="1064" d="M123 348v512h207v-495q0 -195 178 -195q102 0 160.5 59.5t58.5 163.5v467h207v-860h-207l4 158q-41 -84 -115.5 -130t-173.5 -46q-143 0 -231 97t-88 269zM453 1022l122 389h238l-201 -389h-159z" />
<glyph unicode="&#xfb;" horiz-adv-x="1064" d="M123 348v512h207v-495q0 -195 178 -195q102 0 160.5 59.5t58.5 163.5v467h207v-860h-207l4 158q-41 -84 -115.5 -130t-173.5 -46q-143 0 -231 97t-88 269zM227 1020l293 418h23l293 -418h-170l-134 170l-135 -170h-170z" />
<glyph unicode="&#xfc;" horiz-adv-x="1064" d="M123 348v512h207v-495q0 -195 178 -195q102 0 160.5 59.5t58.5 163.5v467h207v-860h-207l4 158q-41 -84 -115.5 -130t-173.5 -46q-143 0 -231 97t-88 269zM209 1171q0 49 38 86t87 37t86 -35.5t37 -87t-37 -88t-86 -36.5t-87 36.5t-38 87.5zM608 1171q0 49 37 86t86 37 t87 -36.5t38 -86.5q0 -51 -38 -87.5t-87 -36.5t-86 36.5t-37 87.5z" />
<glyph unicode="&#xfd;" horiz-adv-x="974" d="M35 860h229l180 -430q12 -29 24.5 -74t18.5 -73l7 -31q18 113 47 178l184 430h215l-563 -1294h-213l223 512zM418 1022l123 389h237l-200 -389h-160z" />
<glyph unicode="&#xfe;" horiz-adv-x="1134" d="M137 -434v1913h207v-768q102 168 303 168q168 0 282.5 -127t114.5 -319.5t-116.5 -321.5t-284.5 -129q-104 0 -181 45t-118 120v-581h-207zM338 432q0 -121 68.5 -194.5t181.5 -73.5q111 0 176 73.5t65 194.5q0 117 -65.5 189.5t-175.5 72.5q-113 0 -181.5 -72.5 t-68.5 -189.5z" />
<glyph unicode="&#xff;" horiz-adv-x="974" d="M35 860h229l180 -430q12 -29 24.5 -74t18.5 -73l7 -31q18 113 47 178l184 430h215l-563 -1294h-213l223 512zM162 1171q0 49 38 86t87 37t86 -35.5t37 -87t-37 -88t-86 -36.5t-87 36.5t-38 87.5zM561 1171q0 49 37 86t86 37t87 -36.5t38 -86.5q0 -51 -38 -87.5t-87 -36.5 t-86 36.5t-37 87.5z" />
<glyph unicode="&#x152;" horiz-adv-x="2031" d="M102 696.5q0 309.5 202 503t532 193.5h1046v-191h-668v-540h592v-187h-592v-285h697v-190h-1075q-330 0 -532 193.5t-202 503zM324 696.5q0 -231.5 133 -369t391 -137.5h149v1012h-149q-258 0 -391 -137t-133 -368.5z" />
<glyph unicode="&#x153;" horiz-adv-x="1792" d="M88 430.5q0 190.5 134 319.5t331 129q248 0 354 -195q51 90 142.5 142.5t210.5 52.5q215 0 333.5 -144.5t108.5 -374.5h-692q41 -205 272 -204q147 0 244 92l121 -127q-139 -139 -363 -139q-262 0 -375 196q-51 -92 -143 -144t-213 -52q-197 0 -331 129t-134 319.5z M301 430q0 -119 68.5 -194.5t183.5 -75.5t182.5 75.5t67.5 194.5t-67.5 193.5t-182.5 74.5t-183.5 -74.5t-68.5 -193.5zM1010 504h483q-33 203 -233 203q-100 0 -166 -53.5t-84 -149.5z" />
<glyph unicode="&#x178;" horiz-adv-x="1368" d="M59 1393h240l315 -574q43 -78 84 -201q43 123 84 201l305 574h224l-506 -940v-453h-217v440zM360 1688q0 49 38 85.5t87.5 36.5t86 -35.5t36.5 -87t-36.5 -88t-86 -36.5t-87.5 37t-38 88zM760 1688q0 49 37 85.5t86 36.5t87 -36.5t38 -85.5q0 -51 -38 -88t-87 -37t-86 37 t-37 88z" />
<glyph unicode="&#x2c6;" horiz-adv-x="1024" d="M207 1020l293 418h22l293 -418h-170l-133 170l-135 -170h-170z" />
<glyph unicode="&#x2dc;" horiz-adv-x="1024" d="M188 1030q6 123 61.5 189.5t139.5 66.5q68 0 135 -53q6 -6 22 -18l19 -14q4 -3 14.5 -9t15.5 -8t13 -4t17 -2q57 0 65 106l146 -14q-6 -123 -60.5 -189.5t-140.5 -66.5q-66 0 -135 55q-8 6 -24.5 19.5t-23 16.5t-16.5 9t-17 8t-18 2q-57 0 -67 -108z" />
<glyph unicode="&#x2000;" horiz-adv-x="976" />
<glyph unicode="&#x2001;" horiz-adv-x="1953" />
<glyph unicode="&#x2002;" horiz-adv-x="976" />
<glyph unicode="&#x2003;" horiz-adv-x="1953" />
<glyph unicode="&#x2004;" horiz-adv-x="651" />
<glyph unicode="&#x2005;" horiz-adv-x="487" />
<glyph unicode="&#x2006;" horiz-adv-x="325" />
<glyph unicode="&#x2007;" horiz-adv-x="325" />
<glyph unicode="&#x2008;" horiz-adv-x="243" />
<glyph unicode="&#x2009;" horiz-adv-x="389" />
<glyph unicode="&#x200a;" horiz-adv-x="108" />
<glyph unicode="&#x2010;" horiz-adv-x="602" d="M84 391v187h432v-187h-432z" />
<glyph unicode="&#x2011;" horiz-adv-x="602" d="M84 391v187h432v-187h-432z" />
<glyph unicode="&#x2013;" horiz-adv-x="819" d="M68 338v184h684v-184h-684z" />
<glyph unicode="&#x2014;" horiz-adv-x="1310" d="M68 338v184h1175v-184h-1175z" />
<glyph unicode="&#x2018;" d="M90 1044q0 53 43 130l117 219h104l-73 -224q33 -12 56 -45.5t23 -76.5q0 -57 -39.5 -96.5t-95 -39.5t-95.5 39t-40 94z" />
<glyph unicode="&#x2019;" d="M90 1272q0 57 40 96t93 39q55 0 96 -39t41 -94q0 -53 -43 -129l-118 -219h-105l74 223q-33 12 -55.5 46t-22.5 77z" />
<glyph unicode="&#x201a;" d="M90 137q0 55 40 95t93 40q55 0 96 -39.5t41 -95.5q0 -53 -43 -127l-118 -219h-105l74 223q-33 12 -55.5 46t-22.5 77z" />
<glyph unicode="&#x201c;" horiz-adv-x="831" d="M90 1044q0 53 43 130l117 219h104l-73 -224q33 -12 56 -45.5t23 -76.5q0 -57 -39.5 -96.5t-95 -39.5t-95.5 39t-40 94zM471 1044q0 49 45 130l117 219h104l-73 -224q33 -12 56 -45.5t23 -76.5q0 -57 -39.5 -96.5t-95 -39.5t-96.5 39t-41 94z" />
<glyph unicode="&#x201d;" horiz-adv-x="831" d="M90 1272q0 57 40 96t93 39q55 0 96 -39t41 -94q0 -53 -43 -129l-118 -219h-105l74 223q-33 12 -55.5 46t-22.5 77zM471 1272q0 57 41 96t94 39q55 0 96 -39t41 -94q0 -47 -43 -129l-118 -219h-105l74 223q-33 12 -56.5 46t-23.5 77z" />
<glyph unicode="&#x201e;" horiz-adv-x="831" d="M90 137q0 55 40 95t93 40q55 0 96 -39.5t41 -95.5q0 -53 -43 -127l-118 -219h-105l74 223q-33 12 -55.5 46t-22.5 77zM471 137q0 55 41 95t94 40q55 0 96 -39.5t41 -95.5q0 -47 -43 -127l-118 -219h-105l74 223q-33 12 -56.5 46t-23.5 77z" />
<glyph unicode="&#x2022;" horiz-adv-x="569" d="M78 553q0 88 61.5 147.5t145.5 59.5t145.5 -59.5t61.5 -147.5q0 -86 -62.5 -146.5t-144.5 -60.5q-84 0 -145.5 60.5t-61.5 146.5z" />
<glyph unicode="&#x2026;" horiz-adv-x="1380" d="M88 129q0 59 42 99t99.5 40t98.5 -40t41 -99t-41 -100t-98.5 -41t-99.5 41t-42 100zM549 129q0 59 42 99t99.5 40t99 -40t41.5 -99t-41.5 -100t-99 -41t-99.5 41t-42 100zM1010 129q0 59 43 99t100 40t98 -40t41 -99t-41 -100t-98 -41t-100 41t-43 100z" />
<glyph unicode="&#x202f;" horiz-adv-x="389" />
<glyph unicode="&#x2039;" horiz-adv-x="542" d="M72 406v16l192 330h207l-199 -338l199 -342h-207z" />
<glyph unicode="&#x203a;" horiz-adv-x="542" d="M72 72l198 338l-198 342h204l195 -334v-17l-195 -329h-204z" />
<glyph unicode="&#x205f;" horiz-adv-x="487" />
<glyph unicode="&#x20ac;" horiz-adv-x="1249" d="M68 324v147h133q-2 18 -2 55t2 54h-133v147h165q59 154 197.5 247t310.5 93q264 0 412 -188l-145 -121q-98 131 -267 131q-199 0 -288 -162h356v-147h-401q-2 -16 -2 -54q0 -10 1 -28.5t1 -26.5h401v-147h-354q90 -162 286 -162q178 0 275 143l155 -112 q-74 -109 -177 -160t-253 -51q-172 0 -308 93t-197 249h-168z" />
<glyph unicode="&#x2122;" horiz-adv-x="1470" d="M86 1270v123h498v-123h-174v-490h-150v490h-174zM705 780v621h18l297 -316l299 316h18v-621h-147v320l-160 -189h-18l-162 189v-320h-145z" />
</font>
</defs>
</svg>
