<?xml version="1.0" encoding="utf-8"?>
<!-- Generator: Adobe Illustrator 18.1.1, SVG Export Plug-In . SVG Version: 6.00 Build 0)  -->
<!DOCTYPE svg PUBLIC "-//W3C//DTD SVG 1.1//EN" "http://www.w3.org/Graphics/SVG/1.1/DTD/svg11.dtd">
<svg version="1.1" xmlns="http://www.w3.org/2000/svg" xmlns:xlink="http://www.w3.org/1999/xlink" x="0px" y="0px"
	 viewBox="0 0 1051.2 216" enable-background="new 0 0 1051.2 216" xml:space="preserve">
<g id="greeksLogo">
<g fill="#066a8a">
	<path d="M69.8,29.7v108.1H57V29.7H17.5v-9.9h92.4v9.9H69.8z"/>
	<path d="M211,137.8V81.3h-64.5v56.5h-12.4V19.8h12.4v51.6H211V19.8h12.4v118.1H211z"/>
	<path d="M263.3,137.8V19.8h56.2v9.9h-43.8v41.7h40.9v9.9h-40.9v46.3h45.9v10.3H263.3z"/>
	<path d="M456,141.2c-34.6,0-64.9-22.5-64.9-62.4c0-39.9,30.1-62.4,64.9-62.4c25.2,0,41.1,12.4,41.1,12.4v21.6
		c0,0-16.1-16.8-41.1-16.8c-23.8,0-41.7,16.5-41.7,45.2s18.1,46.1,41.7,46.1c16,0,25.9-6.7,25.9-6.7V84.5h22.3v43.1
		C498,132.1,481,141.2,456,141.2z"/>
	<path d="M604.4,137.8l-18.4-25c-12.9-17.7-17-25.3-26.4-25.3v50.3h-22.2V19.8h33.1c21.3,0,41.3,7.6,41.3,31.7
		c0,24.1-26.8,30.5-28.9,30.8V83c0,0,8.7,4.1,17,15.2l29.2,39.5H604.4z M567.7,35.5h-8.2v36.3h7.4c13.5,0,22.3-7.6,22.3-20.4
		S580.6,35.5,567.7,35.5z"/>
	<path d="M648.7,137.8V19.8h65.4v16H671v33h40.2v16H671v36.9h45.2v16.3H648.7z"/>
	<path d="M744.4,137.8V19.8h65.4v16h-43.1v33H807v16h-40.2v36.9h45.2v16.3H744.4z"/>
	<path d="M840,137.8V19.8h22.7v118.1H840z M911.7,137.8l-46.3-61.7l46.1-56.4h25.9c-44,52.6-47.5,55.8-47.5,55.8s3.9,3.5,49.1,62.2
		H911.7z"/>
	<path d="M1026.6,43.7c0,0-17.7-11.9-32.4-11.9c-11.7,0-16.7,6.2-16.7,15.1c0,28.9,56,16.7,56,61.3c0,20.6-12.4,33-39.4,33
		c-20.7,0-37-13.1-37-13.1l-1.8-19.7c0,0,21.3,17,38.8,17c11.9,0,17-6,17-15.1c0-30.5-55.1-16.1-55.1-61.5
		c0-19.3,13.6-32.4,38.1-32.4c17.5,0,30.7,9.2,30.7,9.2L1026.6,43.7z"/>
</g>
<g fill="#066a8a">
	<path d="M47.5,199.5c0,0-2.1,0-3.5,0c-1.4,0-3.8,0-3.8,0s-0.4-0.5,0-1.1c0.8,0,1.6-0.3,1.6-1.2c0-0.3-0.1-0.5-0.5-1.6l-2.1-5.7
		c0,0-2.8-0.3-6.1-0.3c-3.3,0-5.7,0.3-5.7,0.3l-2.6,6.4c-0.7,1.7,0.5,2.1,1.5,2.1c0.4,0.5,0,1.1,0,1.1s-1.5,0-3.2,0
		c-1.6,0-3.4,0-3.4,0s-0.4-0.5,0-1.1c1.1,0,1.8-0.4,2.4-1.9l10-24.7c0.6-1.5,0.7-2,0.7-2.6l1.4-0.4l10.8,27.5
		c0.7,1.7,1.4,2.1,2.4,2.1C47.9,198.9,47.5,199.5,47.5,199.5z M34.2,177.2c-0.4-1-0.8-2.6-0.8-2.6s-0.5,1.7-0.9,2.7l-4.3,10.9
		c0,0,2-0.2,4.9-0.2c3,0,5.3,0.2,5.3,0.2L34.2,177.2z"/>
	<path d="M79.3,194.7c0,1.1,0.1,2.8,0.1,2.8c-2.3,1.5-6.6,2.6-10.9,2.6c-8.2,0-15.1-5.9-15.1-15.2c0-8.7,5.9-15.3,14.8-15.3
		c6.4,0,10.2,2.6,10.2,2.6l-0.4,4.2c0,0-0.6,0.6-1.4,0c0-3.8-5-4.8-8.3-4.8c-7,0-10.9,5.5-10.9,13.2c0,7.3,4.9,13,11.5,13.1
		c3.2,0,5.6-0.6,7.5-1.5c0,0,0.1-2.4,0-4.6c0-1.3-1-1.7-2.3-1.7c0,0-0.4-0.5,0-1.1c2.6-0.3,5.3-1.4,5.3-1.4l0.3,0.3
		C79.5,188,79.3,191.2,79.3,194.7z"/>
	<path d="M116,199.5c0,0-2.1,0-3.5,0c-1.4,0-3.8,0-3.8,0s-0.4-0.5,0-1.1c0.8,0,1.6-0.3,1.6-1.2c0-0.3-0.1-0.5-0.5-1.6l-2.1-5.7
		c0,0-2.8-0.3-6.1-0.3c-3.3,0-5.7,0.3-5.7,0.3l-2.6,6.4c-0.7,1.7,0.5,2.1,1.5,2.1c0.4,0.5,0,1.1,0,1.1s-1.5,0-3.2,0
		c-1.6,0-3.4,0-3.4,0s-0.4-0.5,0-1.1c1.1,0,1.8-0.4,2.4-1.9l10-24.7c0.6-1.5,0.7-2,0.7-2.6l1.4-0.4l10.8,27.5
		c0.7,1.7,1.4,2.1,2.4,2.1C116.5,198.9,116,199.5,116,199.5z M102.7,177.2c-0.4-1-0.8-2.6-0.8-2.6s-0.5,1.7-0.9,2.7l-4.3,10.9
		c0,0,2-0.2,4.9-0.2c3,0,5.3,0.2,5.3,0.2L102.7,177.2z"/>
	<path d="M161.6,199.5c0,0-2.3-0.1-3.5-0.1c-1.1,0-3.8,0.1-3.8,0.1s-0.4-0.5,0-1.1c1.1,0,1.7-0.5,1.5-2.6l-1.9-15.9
		c-0.2-1.3-0.4-3.3-0.4-3.3s-0.7,2-1.2,3.3l-9.1,21.3h-0.5l-9.4-21.7c-0.4-1.1-1.2-3.3-1.2-3.3s-0.2,2.3-0.4,3.6l-1.9,16
		c-0.2,2,0.4,2.5,1.4,2.5c0.4,0.5,0,1.1,0,1.1s-1.9-0.1-3.1-0.1c-1.1,0-3.1,0.1-3.1,0.1s-0.4-0.6,0-1.1c1,0,2.1-0.6,2.3-2.5
		l3.4-27.2c0.4-0.2,0.9,0,0.9,0L142,192c0.7,1.5,1.2,3.3,1.2,3.3s0.6-2,1.2-3.4l10-23.1c0.4-0.2,0.8,0,0.8,0l3.8,27.1
		c0.3,2,1.6,2.6,2.6,2.6C162,198.9,161.6,199.5,161.6,199.5z"/>
	<path d="M188.6,174.4c0,0-0.4,0.5-1.3,0.5c-0.3-1-1.5-2.6-3.4-2.7c-3.2-0.1-7.6,0-7.6,0v11.2c0,0,4.9,0,7,0c1.2,0,2.3-0.9,2.3-1.9
		c0.6-0.3,1.1,0,1.1,0s-0.4,2.6-0.4,5.7c0,0-0.5,0.4-1.1,0c0-1.1-0.6-1.9-1.9-1.9c-2.2,0-7,0-7,0v12.4c0,0,2.7,0.1,5.2,0.1
		c1.8,0,3.2-0.1,4-0.5c1-0.5,1.9-1.5,2.3-2.6c1,0,1.2,0.5,1.2,0.5l-1.4,4.5c-1.8-0.1-7.9-0.1-13-0.1c-1.1,0-3.3,0-3.3,0
		s-0.4-0.6,0-1.1c1.1,0,1.6-0.4,1.6-1.6c0.1-8,0.2-15.1,0-23.5c0-1.6-0.6-2-2.1-2c0,0-0.5-0.6,0-1.2c0,0,2.6,0.1,3.7,0.1
		c1.1,0,5.9,0,9.7,0c1.9,0,2.9-0.2,2.9-0.2L188.6,174.4z"/>
	<path d="M234.5,199.5c0,0-2.3-0.1-3.5-0.1c-1.1,0-3.8,0.1-3.8,0.1s-0.4-0.5,0-1.1c1.1,0,1.7-0.5,1.5-2.6l-1.9-15.9
		c-0.2-1.3-0.4-3.3-0.4-3.3s-0.7,2-1.2,3.3l-9.1,21.3h-0.5l-9.4-21.7c-0.4-1.1-1.2-3.3-1.2-3.3s-0.2,2.3-0.4,3.6l-1.9,16
		c-0.2,2,0.4,2.5,1.4,2.5c0.4,0.5,0,1.1,0,1.1s-1.9-0.1-3.1-0.1c-1.1,0-3.1,0.1-3.1,0.1s-0.4-0.6,0-1.1c1,0,2.1-0.6,2.3-2.5
		l3.4-27.2c0.4-0.2,0.9,0,0.9,0l10.3,23.2c0.7,1.5,1.2,3.3,1.2,3.3s0.6-2,1.2-3.4l10-23.1c0.4-0.2,0.8,0,0.8,0l3.8,27.1
		c0.3,2,1.6,2.6,2.6,2.6C234.9,198.9,234.5,199.5,234.5,199.5z"/>
	<path d="M271.1,171.2c-1,0-1.6,0.4-1.6,1.6c-0.2,9.3-0.2,18.5,0,27.9h-0.7l-18.6-22.2c-1-1.2-2-2.8-2-2.8s0.1,1.8,0.1,3.3
		c0,0,0,11.3,0,17.8c0,1.2,1.1,1.6,2.1,1.6c0.4,0.5,0,1.1,0,1.1s-2.3-0.1-3.4-0.1c-1.1,0-2.9,0.1-2.9,0.1s-0.4-0.6,0-1.1
		c1.1,0,1.6-0.4,1.6-1.6c0.2-9.3,0.2-18.6,0-28.1h0.8l18.3,22c1.1,1.3,2.3,3.1,2.3,3.1s-0.1-2.2-0.1-4c0-8.4,0.1-15.1,0-17.1
		c0-1.1-0.5-1.6-2.1-1.6c0,0-0.4-0.6,0-1.1c0,0,2.3,0.1,3.4,0.1c1.1,0,2.8-0.1,2.8-0.1C271.5,170.6,271.1,171.2,271.1,171.2z"/>
	<path d="M295.6,200.1c-8.2,0-15.1-6.3-15.1-15.3c0-9,6.9-15.2,15.1-15.2c8.3,0,15.1,6.3,15.1,15.2
		C310.7,193.8,303.8,200.1,295.6,200.1z M295.5,171.7c-6.8,0-11.2,5.7-11.2,13.2c0,6.8,4.4,13.1,11.2,13.1c6.8,0,11.3-6.4,11.3-13.1
		C306.8,177.3,302.3,171.7,295.5,171.7z"/>
	<path d="M347.2,171.2c-1,0-1.6,0.4-1.6,1.6c-0.2,9.3-0.2,18.5,0,27.9h-0.7l-18.6-22.2c-1-1.2-2-2.8-2-2.8s0.1,1.8,0.1,3.3
		c0,0,0,11.3,0,17.8c0,1.2,1.1,1.6,2.1,1.6c0.4,0.5,0,1.1,0,1.1s-2.3-0.1-3.4-0.1c-1.1,0-2.9,0.1-2.9,0.1s-0.4-0.6,0-1.1
		c1.1,0,1.6-0.4,1.6-1.6c0.2-9.3,0.2-18.6,0-28.1h0.8l18.3,22c1.1,1.3,2.3,3.1,2.3,3.1s-0.1-2.2-0.1-4c0-8.4,0.1-15.1,0-17.1
		c0-1.1-0.5-1.6-2.1-1.6c0,0-0.4-0.6,0-1.1c0,0,2.3,0.1,3.4,0.1c1.1,0,2.8-0.1,2.8-0.1C347.7,170.6,347.2,171.2,347.2,171.2z"/>
	<path d="M397.4,174.3c0,0-0.2,0.5-1.1,0.5c-0.6-1.6-1.6-2.6-3.8-2.6c-3.2,0-6.4,0.1-6.4,0.1c-0.1,8.3-0.2,16.2,0,24.6
		c0,1.1,0.7,1.6,1.7,1.6c0.4,0.5,0,1.1,0,1.1s-2.2-0.1-3.3-0.1c-1.1,0-3.3,0.1-3.3,0.1s-0.5-0.5,0-1.1c1.1,0,1.6-0.4,1.6-1.6
		c0.1-8.3,0.2-16.2,0-24.6c0,0-3.3-0.1-6.7-0.1c-2.3,0-3.3,1.1-3.8,2.6c-1,0-1.2-0.5-1.2-0.5l1.3-4.3c0,0,1.3,0.2,3.4,0.2H393
		c1.9,0,3-0.2,3-0.2L397.4,174.3z"/>
	<path d="M418.5,200.1c-8.2,0-15.1-6.3-15.1-15.3c0-9,6.9-15.2,15.1-15.2c8.3,0,15.1,6.3,15.1,15.2
		C433.6,193.8,426.8,200.1,418.5,200.1z M418.5,171.7c-6.8,0-11.2,5.7-11.2,13.2c0,6.8,4.4,13.1,11.2,13.1c6.8,0,11.3-6.4,11.3-13.1
		C429.8,177.3,425.2,171.7,418.5,171.7z"/>
	<path d="M486,199.5c0,0-2.1,0-3.5,0s-3.8,0-3.8,0s-0.4-0.5,0-1.1c0.8,0,1.6-0.3,1.6-1.2c0-0.3-0.1-0.5-0.5-1.6l-2.1-5.7
		c0,0-2.8-0.3-6.1-0.3c-3.3,0-5.7,0.3-5.7,0.3l-2.6,6.4c-0.7,1.7,0.5,2.1,1.5,2.1c0.4,0.5,0,1.1,0,1.1s-1.5,0-3.2,0
		c-1.6,0-3.4,0-3.4,0s-0.4-0.5,0-1.1c1.1,0,1.8-0.4,2.4-1.9l10-24.7c0.6-1.5,0.7-2,0.7-2.6l1.4-0.4l10.8,27.5
		c0.7,1.7,1.4,2.1,2.4,2.1C486.4,198.9,486,199.5,486,199.5z M472.7,177.2c-0.4-1-0.8-2.6-0.8-2.6s-0.5,1.7-0.9,2.7l-4.3,10.9
		c0,0,2-0.2,4.9-0.2c3,0,5.3,0.2,5.3,0.2L472.7,177.2z"/>
	<path d="M511.6,199.6c-1.7-0.1-7.9-0.2-13-0.2c-1.1,0-3.3,0.1-3.3,0.1s-0.4-0.5,0-1.1c1.1,0,1.6-0.4,1.6-1.6c0-8.1,0.1-15.4,0-23.9
		c0-1.1-0.7-1.6-1.6-1.6c0,0-0.5-0.6,0-1.2c0,0,2.2,0.1,3.3,0.1c1.1,0,3.8-0.1,3.8-0.1c0.4,0.6,0,1.1,0,1.1c-1.4,0-2.1,0.4-2.1,1.6
		c-0.1,8.3-0.1,16.1,0,24.6c0,0,3,0.2,7.1,0.2c2.9,0,4.3-2.4,4.6-3.4c0.8,0,1.2,0.5,1.2,0.5L511.6,199.6z"/>
	<path d="M538.8,174.4c0,0-0.4,0.5-1.3,0.5c-0.3-1-1.5-2.6-3.4-2.7c-3.2-0.1-7.6,0-7.6,0v11.2c0,0,4.9,0,7,0c1.2,0,2.3-0.9,2.3-1.9
		c0.6-0.3,1.1,0,1.1,0s-0.4,2.6-0.4,5.7c0,0-0.5,0.4-1.1,0c0-1.1-0.6-1.9-1.9-1.9c-2.2,0-7,0-7,0v12.4c0,0,2.7,0.1,5.2,0.1
		c1.8,0,3.2-0.1,4-0.5c1-0.5,1.9-1.5,2.3-2.6c1,0,1.2,0.5,1.2,0.5l-1.4,4.5c-1.8-0.1-7.9-0.1-13-0.1c-1.1,0-3.3,0-3.3,0
		s-0.4-0.6,0-1.1c1.1,0,1.6-0.4,1.6-1.6c0.1-8,0.2-15.1,0-23.5c0-1.6-0.6-2-2.1-2c0,0-0.5-0.6,0-1.2c0,0,2.6,0.1,3.7,0.1
		c1.1,0,5.9,0,9.7,0c1.9,0,2.9-0.2,2.9-0.2L538.8,174.4z"/>
	<path d="M575.3,199.5c0,0-3.3-0.1-4.4-0.1c-1.1,0-3.8,0.1-3.8,0.1s-0.5-0.5,0-1.1c0.7,0,1.4-0.3,1.4-1c0-0.4-0.2-0.8-1.5-2.7
		l-4.7-6.6c-0.6-0.8-1.2-1.9-1.2-1.9s-0.6,1-1.2,1.9l-4.2,5.7c-1.5,2-2.1,2.8-2.1,3.5c0,0.8,0.7,1.1,1.6,1.1c0.4,0.6,0,1.1,0,1.1
		s-2-0.1-3.2-0.1c-1.1,0-4.4,0.1-4.4,0.1s-0.5-0.5,0-1.1c0.9,0,2.1-0.5,3.1-1.9l7.4-9.7c0.8-1.1,1.5-2.1,1.5-2.1s-0.8-0.9-1.5-1.9
		l-7.4-10.4c-0.5-0.7-1.4-1.1-2.5-1.1c0,0-0.5-0.6,0-1.2c0,0,3.2,0.1,4.4,0.1c1.1,0,3.4-0.1,3.4-0.1c0.4,0.5,0,1.1,0,1.1
		c-0.8,0-1.2,0.3-1.2,0.8c0,0.3,0.1,0.6,0.8,1.6l4.1,6c0.7,1.1,1.9,2.9,1.9,2.9s0.8-1.3,1.5-2.3l4.5-6.1c1.2-1.6,1.2-1.8,1.2-2
		c0-0.6-0.7-0.8-1.7-0.8c0,0-0.5-0.6,0-1.1c0,0,1.7,0.1,2.9,0.1c1.1,0,4-0.1,4-0.1c0.4,0.5,0,1.1,0,1.1c-1,0-1.8,0.4-2.3,1.2
		l-7.2,9.6c-0.7,0.9-1.6,2-1.6,2s1.1,1.3,1.8,2.3l7.1,10c1.1,1.6,2.6,2.1,3.5,2.1C575.8,198.9,575.3,199.5,575.3,199.5z"/>
	<path d="M611.2,199.5c0,0-2.1,0-3.5,0s-3.8,0-3.8,0s-0.4-0.5,0-1.1c0.8,0,1.6-0.3,1.6-1.2c0-0.3-0.1-0.5-0.5-1.6l-2.1-5.7
		c0,0-2.8-0.3-6.1-0.3s-5.7,0.3-5.7,0.3l-2.6,6.4c-0.7,1.7,0.5,2.1,1.5,2.1c0.4,0.5,0,1.1,0,1.1s-1.5,0-3.2,0c-1.6,0-3.4,0-3.4,0
		s-0.4-0.5,0-1.1c1.1,0,1.8-0.4,2.4-1.9l10-24.7c0.6-1.5,0.7-2,0.7-2.6l1.4-0.4l10.8,27.5c0.7,1.7,1.4,2.1,2.4,2.1
		C611.6,198.9,611.2,199.5,611.2,199.5z M597.9,177.2c-0.4-1-0.8-2.6-0.8-2.6s-0.5,1.7-0.9,2.7l-4.3,10.9c0,0,2-0.2,4.9-0.2
		c3,0,5.3,0.2,5.3,0.2L597.9,177.2z"/>
	<path d="M647.5,171.2c-1,0-1.6,0.4-1.6,1.6c-0.2,9.3-0.2,18.5,0,27.9h-0.7l-18.6-22.2c-1-1.2-2-2.8-2-2.8s0.1,1.8,0.1,3.3
		c0,0,0,11.3,0,17.8c0,1.2,1.1,1.6,2.1,1.6c0.4,0.5,0,1.1,0,1.1s-2.3-0.1-3.4-0.1c-1.1,0-2.9,0.1-2.9,0.1s-0.4-0.6,0-1.1
		c1.1,0,1.6-0.4,1.6-1.6c0.2-9.3,0.2-18.6,0-28.1h0.8l18.3,22c1.1,1.3,2.3,3.1,2.3,3.1s-0.1-2.2-0.1-4c0-8.4,0.1-15.1,0-17.1
		c0-1.1-0.5-1.6-2.1-1.6c0,0-0.4-0.6,0-1.1c0,0,2.3,0.1,3.4,0.1c1.1,0,2.8-0.1,2.8-0.1C647.9,170.6,647.5,171.2,647.5,171.2z"/>
	<path d="M671,199.6c-2.2,0-5.8-0.1-9.5-0.1c-1.1,0-3.3,0.1-3.3,0.1s-0.5-0.5,0-1.1c1.1,0,1.7-0.4,1.7-1.6c0.1-8.1,0.1-15.2,0-23.5
		c0-1.6-0.7-2-2.1-2c0,0-0.5-0.6,0-1.2c0,0,2.6,0.1,3.8,0.1c2.8,0,5.7-0.2,9.3-0.2c8.9,0.2,15.1,5.7,15.1,14
		C685.9,193.2,680.4,199.6,671,199.6z M669.3,172c-3.1,0-5.8,0.1-5.8,0.1c-0.1,5.4-0.1,19.7,0,25.1c0,0,3.8,0.3,7,0.3
		c6.7,0,11.7-4.2,11.7-13.6C682.1,175.9,675.5,172,669.3,172z"/>
	<path d="M712.9,174.4c0,0-0.4,0.5-1.3,0.5c-0.3-1-1.5-2.6-3.4-2.7c-3.2-0.1-7.6,0-7.6,0v11.2c0,0,4.9,0,7,0c1.2,0,2.3-0.9,2.3-1.9
		c0.6-0.3,1.1,0,1.1,0s-0.4,2.6-0.4,5.7c0,0-0.5,0.4-1.1,0c0-1.1-0.6-1.9-1.9-1.9c-2.2,0-7,0-7,0v12.4c0,0,2.7,0.1,5.2,0.1
		c1.8,0,3.2-0.1,4-0.5c1-0.5,1.9-1.5,2.3-2.6c1,0,1.2,0.5,1.2,0.5l-1.4,4.5c-1.8-0.1-7.9-0.1-13-0.1c-1.1,0-3.3,0-3.3,0
		s-0.4-0.6,0-1.1c1.1,0,1.6-0.4,1.6-1.6c0.1-8,0.2-15.1,0-23.5c0-1.6-0.6-2-2.1-2c0,0-0.5-0.6,0-1.2c0,0,2.6,0.1,3.7,0.1
		c1.1,0,5.9,0,9.7,0c1.9,0,2.9-0.2,2.9-0.2L712.9,174.4z"/>
	<path d="M747.4,199.5c0,0-1.2,0.1-2.4,0.1c-4.5,0-5.7-3.2-8.5-6.8c-4.1-5.3-5-6.9-8.7-6.9c0,0,0,6.6,0.1,11c0,1.3,0.7,1.6,1.7,1.6
		c0.5,0.6,0,1.1,0,1.1s-2.3-0.1-3.4-0.1c-1.1,0-3.3,0.1-3.3,0.1s-0.4-0.6,0-1.1c1.1,0,1.5-0.4,1.6-1.6c0.2-8,0.2-15.6,0-23.9
		c0-1.1-0.7-1.6-1.6-1.6c0,0-0.4-0.6,0-1.2c0,0,2.1,0.1,3.3,0.1c1.9,0,5.1-0.2,6.2-0.2c4.2,0,8.4,2,8.4,7.2c0,4.6-3.4,7.3-7.6,8.1
		c2.2,0.9,3.9,2.9,5.4,4.8l2.3,3c4,5.2,5.2,5.4,6.5,5.4C747.9,199,747.4,199.5,747.4,199.5z M731.1,171.8c-1,0-3.3,0.1-3.3,0.1v12.2
		c0,0,0.7,0.1,1.1,0.1c3.8,0,8.4-1.7,8.4-6.7C737.3,173.7,735,171.8,731.1,171.8z"/>
	<path d="M794.3,174.3c0,0-0.2,0.5-1.1,0.5c-0.6-1.6-1.6-2.6-3.8-2.6c-3.2,0-6.4,0.1-6.4,0.1c-0.1,8.3-0.2,16.2,0,24.6
		c0,1.1,0.7,1.6,1.7,1.6c0.4,0.5,0,1.1,0,1.1s-2.2-0.1-3.3-0.1c-1.1,0-3.3,0.1-3.3,0.1s-0.5-0.5,0-1.1c1.1,0,1.6-0.4,1.6-1.6
		c0.1-8.3,0.2-16.2,0-24.6c0,0-3.3-0.1-6.7-0.1c-2.3,0-3.3,1.1-3.8,2.6c-1,0-1.2-0.5-1.2-0.5l1.3-4.3c0,0,1.3,0.2,3.4,0.2h17.1
		c1.9,0,3-0.2,3-0.2L794.3,174.3z"/>
	<path d="M828.1,199.5c0,0-2.2-0.1-3.3-0.1c-1.1,0-3.3,0.1-3.3,0.1s-0.5-0.5,0-1.1c1.1,0,1.6-0.4,1.7-1.6c0.2-5.4,0.1-11.6,0.1-11.6
		h-16.1c0,0-0.2,6.3,0,11.6c0,1.1,0.8,1.6,1.7,1.6c0.4,0.5,0,1.1,0,1.1s-2.2-0.1-3.3-0.1c-1.1,0-3.3,0.1-3.3,0.1s-0.4-0.6,0-1.1
		c1,0,1.5-0.4,1.6-1.6c0.3-8,0.2-15.6,0-23.9c0-1.1-0.7-1.6-1.6-1.6c0,0-0.5-0.6,0-1.2c0,0,2.2,0.1,3.3,0.1c1.1,0,3.4-0.1,3.4-0.1
		c0.4,0.6,0,1.1,0,1.1c-1,0-1.6,0.5-1.7,1.6c-0.1,4.9-0.1,10.4-0.1,10.4h16.1c0,0,0.1-5.6-0.1-10.4c0-1.1-0.8-1.6-1.7-1.6
		c0,0-0.5-0.6,0-1.1c0,0,2.2,0.1,3.3,0.1c1.1,0,3.3-0.1,3.3-0.1c0.4,0.5,0,1.1,0,1.1c-1,0-1.5,0.4-1.6,1.6c-0.1,5.4-0.2,18.6,0,24
		c0,1.1,0.6,1.6,1.6,1.6C828.5,198.9,828.1,199.5,828.1,199.5z"/>
	<path d="M856,174.4c0,0-0.4,0.5-1.3,0.5c-0.3-1-1.5-2.6-3.4-2.7c-3.2-0.1-7.6,0-7.6,0v11.2c0,0,4.9,0,7,0c1.2,0,2.3-0.9,2.3-1.9
		c0.6-0.3,1.1,0,1.1,0s-0.4,2.6-0.4,5.7c0,0-0.5,0.4-1.1,0c0-1.1-0.6-1.9-1.9-1.9c-2.2,0-7,0-7,0v12.4c0,0,2.7,0.1,5.2,0.1
		c1.8,0,3.2-0.1,4-0.5c1-0.5,1.9-1.5,2.3-2.6c1,0,1.2,0.5,1.2,0.5l-1.4,4.5c-1.8-0.1-7.9-0.1-13-0.1c-1.1,0-3.3,0-3.3,0
		s-0.4-0.6,0-1.1c1.1,0,1.6-0.4,1.6-1.6c0.1-8,0.2-15.1,0-23.5c0-1.6-0.6-2-2.1-2c0,0-0.5-0.6,0-1.2c0,0,2.6,0.1,3.7,0.1
		c1.1,0,5.9,0,9.7,0c1.9,0,2.9-0.2,2.9-0.2L856,174.4z"/>
	<path d="M907.9,194.7c0,1.1,0.1,2.8,0.1,2.8c-2.3,1.5-6.6,2.6-10.9,2.6c-8.2,0-15.1-5.9-15.1-15.2c0-8.7,5.9-15.3,14.8-15.3
		c6.4,0,10.2,2.6,10.2,2.6l-0.4,4.2c0,0-0.6,0.6-1.4,0c0-3.8-5-4.8-8.3-4.8c-7,0-10.9,5.5-10.9,13.2c0,7.3,4.9,13,11.5,13.1
		c3.2,0,5.6-0.6,7.5-1.5c0,0,0.1-2.4,0-4.6c0-1.3-1-1.7-2.3-1.7c0,0-0.4-0.5,0-1.1c2.6-0.3,5.3-1.4,5.3-1.4l0.3,0.3
		C908.1,188,907.9,191.2,907.9,194.7z"/>
	<path d="M943.1,199.5c0,0-1.2,0.1-2.4,0.1c-4.5,0-5.7-3.2-8.5-6.8c-4.1-5.3-5-6.9-8.7-6.9c0,0,0,6.6,0.1,11c0,1.3,0.7,1.6,1.7,1.6
		c0.5,0.6,0,1.1,0,1.1s-2.3-0.1-3.4-0.1c-1.1,0-3.3,0.1-3.3,0.1s-0.4-0.6,0-1.1c1.1,0,1.5-0.4,1.6-1.6c0.2-8,0.2-15.6,0-23.9
		c0-1.1-0.7-1.6-1.6-1.6c0,0-0.4-0.6,0-1.2c0,0,2.1,0.1,3.3,0.1c1.9,0,5.1-0.2,6.2-0.2c4.2,0,8.4,2,8.4,7.2c0,4.6-3.4,7.3-7.6,8.1
		c2.2,0.9,3.9,2.9,5.4,4.8l2.3,3c4,5.2,5.2,5.4,6.5,5.4C943.6,199,943.1,199.5,943.1,199.5z M926.8,171.8c-1,0-3.3,0.1-3.3,0.1v12.2
		c0,0,0.7,0.1,1.1,0.1c3.8,0,8.4-1.7,8.4-6.7C933,173.7,930.7,171.8,926.8,171.8z"/>
	<path d="M969.3,174.4c0,0-0.4,0.5-1.3,0.5c-0.3-1-1.5-2.6-3.4-2.7c-3.2-0.1-7.6,0-7.6,0v11.2c0,0,4.9,0,7,0c1.2,0,2.3-0.9,2.3-1.9
		c0.6-0.3,1.1,0,1.1,0s-0.4,2.6-0.4,5.7c0,0-0.5,0.4-1.1,0c0-1.1-0.6-1.9-1.9-1.9c-2.2,0-7,0-7,0v12.4c0,0,2.7,0.1,5.2,0.1
		c1.8,0,3.2-0.1,4-0.5c1-0.5,1.9-1.5,2.3-2.6c1,0,1.2,0.5,1.2,0.5l-1.4,4.5c-1.8-0.1-7.9-0.1-13-0.1c-1.1,0-3.3,0-3.3,0
		s-0.4-0.6,0-1.1c1.1,0,1.6-0.4,1.6-1.6c0.1-8,0.2-15.1,0-23.5c0-1.6-0.6-2-2.1-2c0,0-0.5-0.6,0-1.2c0,0,2.6,0.1,3.7,0.1
		c1.1,0,5.9,0,9.7,0c1.9,0,2.9-0.2,2.9-0.2L969.3,174.4z"/>
	<path d="M1005.3,199.5c0,0-2.1,0-3.5,0s-3.8,0-3.8,0s-0.4-0.5,0-1.1c0.8,0,1.6-0.3,1.6-1.2c0-0.3-0.1-0.5-0.5-1.6l-2.1-5.7
		c0,0-2.8-0.3-6.1-0.3c-3.3,0-5.7,0.3-5.7,0.3l-2.6,6.4c-0.7,1.7,0.5,2.1,1.5,2.1c0.4,0.5,0,1.1,0,1.1s-1.5,0-3.2,0s-3.4,0-3.4,0
		s-0.4-0.5,0-1.1c1.1,0,1.8-0.4,2.4-1.9l10-24.7c0.6-1.5,0.7-2,0.7-2.6l1.4-0.4l10.8,27.5c0.7,1.7,1.4,2.1,2.4,2.1
		C1005.8,198.9,1005.3,199.5,1005.3,199.5z M992.1,177.2c-0.4-1-0.8-2.6-0.8-2.6s-0.5,1.7-0.9,2.7l-4.3,10.9c0,0,2-0.2,4.9-0.2
		c3,0,5.3,0.2,5.3,0.2L992.1,177.2z"/>
	<path d="M1033.7,174.3c0,0-0.2,0.5-1.1,0.5c-0.6-1.6-1.6-2.6-3.8-2.6c-3.2,0-6.4,0.1-6.4,0.1c-0.1,8.3-0.2,16.2,0,24.6
		c0,1.1,0.7,1.6,1.7,1.6c0.4,0.5,0,1.1,0,1.1s-2.2-0.1-3.3-0.1c-1.1,0-3.3,0.1-3.3,0.1s-0.5-0.5,0-1.1c1.1,0,1.6-0.4,1.6-1.6
		c0.1-8.3,0.2-16.2,0-24.6c0,0-3.3-0.1-6.7-0.1c-2.3,0-3.3,1.1-3.8,2.6c-1,0-1.2-0.5-1.2-0.5l1.3-4.3c0,0,1.3,0.2,3.4,0.2h17.1
		c1.9,0,3-0.2,3-0.2L1033.7,174.3z"/>
</g>
</g>
</svg>
