<?xml version="1.0" encoding="utf-8"?>
<!-- Generator: Adobe Illustrator 19.1.0, SVG Export Plug-In . SVG Version: 6.00 Build 0)  -->
<!DOCTYPE svg PUBLIC "-//W3C//DTD SVG 1.1//EN" "http://www.w3.org/Graphics/SVG/1.1/DTD/svg11.dtd">
<svg version="1.1" xmlns="http://www.w3.org/2000/svg" xmlns:xlink="http://www.w3.org/1999/xlink" x="0px" y="0px"
	 viewBox="0 0 315.1 848" enable-background="new 0 0 315.1 848" xml:space="preserve">
<g id="natgeo">
	<g>
		<g>
			<g>
				<g>
					<path fill="#FFD520" d="M0,92.6V0h64.6v92.6H0z M55.3,83.2V9.3h-46v73.9H55.3z"/>
				</g>
			</g>
		</g>
		<path d="M107.5,41.5h-4c-5.2-7.4-10.4-14.8-15.7-23.1h0v23.1h-4.4V9.3h4c5.2,7.4,10.4,14.7,15.6,23h0.1v-23h4.4V41.5z"/>
		<path d="M118,28.8c1.3-4.2,2.6-8.1,3.7-13.1h0.1c1.3,5,2.4,8.9,3.6,13.1H118z M120.1,9.3L109,41.5h4.8l2.8-8.8h9.7l2.5,8.8h6.2
			L124.7,9.3H120.1z"/>
		<path d="M140.2,41.5V13.6h-8.5V9.3h22.5v4.3h-8.5v27.9H140.2z"/>
		<path d="M156,41.5V9.3h5.5v32.2H156z"/>
		<path d="M178.5,37.5c-5.8,0-7.8-6.4-7.8-12.5c0-5.9,2.3-11.6,7.8-11.6c5.5,0,7.8,5.7,7.8,11.6C186.3,31.1,184.3,37.5,178.5,37.5z
			 M178.5,42.1c8.4,0,13.7-7.5,13.7-17.1c0-9-5.8-16.2-13.7-16.2c-7.9,0-13.7,7.2-13.7,16.2C164.8,34.6,170.1,42.1,178.5,42.1z"/>
		<path d="M219.7,41.5h-4c-5.2-7.4-10.4-14.8-15.7-23.1h0v23.1h-4.4V9.3h4c5.2,7.4,10.4,14.7,15.6,23h0.1v-23h4.4V41.5z"/>
		<path d="M230.1,28.8c1.3-4.2,2.6-8.1,3.7-13.1h0.1c1.3,5,2.4,8.9,3.6,13.1H230.1z M232.3,9.3l-11.1,32.2h4.8l2.8-8.8h9.7l2.5,8.8
			h6.2L236.9,9.3H232.3z"/>
		<path d="M248.7,9.3h5.5v27.9h10.9v4.3h-16.4V9.3z"/>
		<path d="M104.1,68.5v13.3c-2.9,1.2-6,2-9.2,2c-9.5,0-15.5-7.4-15.5-16.8c0-8.8,6-16.5,15.7-16.5c3,0,6,1.1,7.8,2.5l-1.8,3.8
			c-1.5-0.9-3.8-1.7-5.9-1.7c-5.9,0-9.9,4.6-9.9,12c0,7.6,4.6,12.2,9.3,12.2c1.5,0,2.7-0.2,3.9-0.8v-9.9H104.1z"/>
		<path d="M123.9,55.3h-9.2v8.8h9v4.3h-9v10.4h10.9v4.3h-16.4V51h14.7V55.3z"/>
		<path d="M140.9,79.2c-5.8,0-7.8-6.4-7.8-12.5c0-5.9,2.3-11.6,7.8-11.6c5.5,0,7.8,5.7,7.8,11.6C148.7,72.8,146.7,79.2,140.9,79.2z
			 M140.9,83.8c8.4,0,13.7-7.5,13.7-17.1c0-9-5.8-16.2-13.7-16.2c-7.9,0-13.7,7.2-13.7,16.2C127.2,76.3,132.5,83.8,140.9,83.8z"/>
		<path d="M181.1,68.5v13.3c-2.9,1.2-6,2-9.2,2c-9.5,0-15.5-7.4-15.5-16.8c0-8.8,6-16.5,15.7-16.5c3,0,6,1.1,7.8,2.5l-1.8,3.8
			c-1.5-0.9-3.8-1.7-5.9-1.7c-5.9,0-9.9,4.6-9.9,12c0,7.6,4.6,12.2,9.3,12.2c1.5,0,2.7-0.2,3.9-0.8v-9.9H181.1z"/>
		<path d="M191.7,55.3h2.4c3.3,0,5.1,1.9,5.1,5.2c0,4.3-2.6,6.3-5.2,6.4c-0.6,0-1.8,0.1-2.3,0.1V55.3z M205.7,83.2l-6.5-13.3
			c3.5-1.9,5.6-5.7,5.6-9.6c0-6.3-3.8-9.3-10-9.3h-8.6v32.2h5.5V71.1h2.4h0.1l5.2,12.2H205.7z"/>
		<path d="M214.8,70.5c1.3-4.2,2.6-8.1,3.7-13.1h0.1c1.3,5,2.4,8.9,3.6,13.1H214.8z M216.9,51l-11.1,32.2h4.8l2.8-8.8h9.7l2.5,8.8
			h6.2L221.5,51H216.9z"/>
		<path d="M239,83.2h-5.5V51h8.6c6.2,0,10,3,10,9.3c0,5.4-4,10.8-10.6,10.8h-2.6v-4c0.3,0,1.8-0.1,2.4-0.1c2.6-0.1,5.2-2.1,5.2-6.4
			c0-3.3-1.8-5.2-5.1-5.2H239V83.2z"/>
		<path d="M277.7,83.2h-5.5V67.7h-11.5v15.5h-5.5V51h5.5v12.4h11.5V51.1h5.5V83.2z"/>
		<path d="M283,83.2V51h5.5v32.2H283z"/>
		<path d="M313.3,56.8c-1.3-0.8-3.5-1.8-5.7-1.8c-5.6,0-9.7,4.6-9.7,12c0,7.6,4.5,12.2,9.9,12.2c2.1,0,4.1-0.7,5.5-1.6l1.5,4
			c-1.7,1.2-4.6,2.2-7.3,2.2c-9.5,0-15.5-7.4-15.5-16.8c0-8.8,5.9-16.5,15.6-16.5c2.9,0,5.5,1.2,7.4,2.5L313.3,56.8z"/>
	</g>
</g>
<g id="cmh">
	<path fill="#E32726" d="M49.9,751.8c15.3,9.9,30.1,24.7,37.8,47v43.9h43.8V700.2C93.4,708.2,67.1,730.4,49.9,751.8"/>
	<path fill="#8A8C8C" d="M87.7,798.8H43.8v43.8H0V733.1C0,733.1,67.8,741,87.7,798.8"/>
	<path fill="#8A8C8C" d="M181.2,712.7c-3.6,0-6.3-2.7-6.3-6.3c0-3.5,2.7-6.2,6.2-6.2c2.3,0,4,0.8,5.2,2.5l-2.3,1.6
		c-0.4-0.6-1.2-1.4-2.8-1.4c-1.8,0-3,1.5-3,3.6c0,2.1,1.3,3.6,3.1,3.6c1.8,0,2.5-0.9,2.9-1.7l2.4,1.5
		C185.4,711.8,183.7,712.7,181.2,712.7"/>
	<path fill="#8A8C8C" d="M233.4,709.9h1.2c2,0,3.3-1.4,3.3-3.5c0-2.1-1.3-3.5-3.3-3.5h-1.2V709.9z M230.3,712.5v-12.2h4.7
		c3.7,0,6.2,2.5,6.2,6.1c0,3.6-2.5,6.1-6.2,6.1H230.3z"/>
	<rect x="244.4" y="700.3" fill="#8A8C8C" width="3.1" height="12.2"/>
	<path fill="#8A8C8C" d="M197.3,734.5c-3.3,0-5.3-1.8-5.3-4.9v-7.5h3.1v7.5c0,1.5,0.7,2.3,2.2,2.3c1.4,0,2.2-0.8,2.2-2.3v-7.5h3.1
		v7.5C202.6,732.7,200.6,734.5,197.3,734.5"/>
	<path fill="#8A8C8C" d="M210.7,734.5c-2.8,0-4.3-1.3-5-2.2l2.2-1.7c0.5,0.6,1.3,1.3,2.6,1.3c1.1,0,1.7-0.4,1.7-1.1
		c0-0.6-0.5-0.9-1.3-1.1l-1.5-0.5c-2-0.7-3-1.9-3-3.6c0-2.5,2.1-3.6,4.1-3.6c2.2,0,3.5,0.8,4.1,1.5l-1.8,1.8
		c-0.6-0.6-1.3-0.9-2.1-0.9c-1,0-1.3,0.5-1.3,1c0,0.6,0.4,0.8,0.9,1l1.6,0.5c2.3,0.8,3.2,1.8,3.2,3.7
		C215.3,733.2,213.6,734.5,210.7,734.5"/>
	<polygon fill="#8A8C8C" points="218.8,734.4 218.8,722.2 227.3,722.2 227.3,724.8 221.9,724.8 221.9,727 226.4,727 226.4,729.4 
		221.9,729.4 221.9,731.8 227.5,731.8 227.5,734.4 	"/>
	<path fill="#8A8C8C" d="M236.3,734.5c-3.3,0-5.3-1.8-5.3-4.9v-7.5h3.1v7.5c0,1.5,0.7,2.3,2.2,2.3c1.4,0,2.2-0.8,2.2-2.3v-7.5h3.1
		v7.5C241.6,732.7,239.6,734.5,236.3,734.5"/>
	<path fill="#8A8C8C" d="M181.4,746.6c-2,0-3.4,1.4-3.4,3.6c0,2.1,1.4,3.6,3.4,3.6c2,0,3.4-1.4,3.4-3.6
		C184.8,748,183.4,746.6,181.4,746.6 M181.4,756.4c-3.7,0-6.5-2.7-6.5-6.3c0-3.5,2.9-6.2,6.5-6.2c3.7,0,6.5,2.7,6.5,6.2
		C188,753.6,185.1,756.4,181.4,756.4"/>
	<polygon fill="#8A8C8C" points="191.1,756.2 191.1,744 199.3,744 199.3,746.6 194.2,746.6 194.2,749.3 198.7,749.3 198.7,751.9 
		194.2,751.9 194.2,756.2 	"/>
	<polygon fill="#8A8C8C" points="216.1,756.2 216.1,751.4 211.6,751.4 211.6,756.2 208.5,756.2 208.5,744 211.6,744 211.6,748.8 
		216.1,748.8 216.1,744 219.2,744 219.2,756.2 	"/>
	<rect x="223.5" y="744" fill="#8A8C8C" width="3.1" height="12.2"/>
	<path fill="#8A8C8C" d="M234.9,756.4c-2.8,0-4.3-1.3-5-2.2l2.2-1.7c0.5,0.6,1.3,1.3,2.6,1.3c1.1,0,1.7-0.4,1.7-1.1
		c0-0.6-0.5-0.9-1.3-1.1l-1.5-0.5c-2-0.7-3-1.9-3-3.6c0-2.5,2.1-3.6,4.1-3.6c2.2,0,3.4,0.8,4.1,1.5l-1.8,1.8
		c-0.6-0.6-1.3-0.9-2.1-0.9c-1,0-1.3,0.5-1.3,1c0,0.6,0.4,0.8,0.9,1l1.6,0.5c2.3,0.8,3.2,1.8,3.2,3.7
		C239.5,755,237.8,756.4,234.9,756.4"/>
	<polygon fill="#8A8C8C" points="245.1,756.2 245.1,746.6 241.9,746.6 241.9,744 251.5,744 251.5,746.6 248.3,746.6 248.3,756.2 	
		"/>
	<path fill="#8A8C8C" d="M260.1,746.6c-2,0-3.4,1.4-3.4,3.6c0,2.1,1.3,3.6,3.4,3.6c2,0,3.4-1.4,3.4-3.6
		C263.4,748,262.1,746.6,260.1,746.6 M260.1,756.4c-3.7,0-6.5-2.7-6.5-6.3c0-3.5,2.9-6.2,6.5-6.2c3.7,0,6.5,2.7,6.5,6.2
		C266.6,753.6,263.7,756.4,260.1,756.4"/>
	<path fill="#8A8C8C" d="M272.9,750h1.6c1.2,0,1.8-0.6,1.8-1.7c0-1.1-0.6-1.7-1.8-1.7h-1.6V750z M276.4,756.2l-2.2-3.9h-1.3v3.9
		h-3.1V744h4.9c2.9,0,4.8,1.7,4.8,4.3c0,1.6-0.8,2.9-2.2,3.5l-0.1,0l2.5,4.3H276.4z"/>
	<polygon fill="#8A8C8C" points="285.8,756.2 285.8,751.5 281.5,744 285,744 287.5,748.7 290,744 293.2,744 289,751.4 289,756.2 	
		"/>
	<path fill="#8A8C8C" d="M175.9,722c0-0.1,0.1-0.1,0.2,0l5.8,6.6l5.8-6.6c0.1-0.1,0.1-0.1,0.2,0l0.7,12.3h-3.1l-0.3-5.3l-3.1,3.6
		c-0.1,0.1-0.1,0.1-0.2,0l-3.3-3.6l-0.3,5.3h-3.1L175.9,722z"/>
	<path fill="#8A8C8C" d="M245.8,722c0-0.1,0.1-0.1,0.2,0l5.8,6.6l5.8-6.6c0.1-0.1,0.1-0.1,0.2,0l0.7,12.3h-3.1l-0.3-5.3l-3.1,3.6
		c-0.1,0.1-0.1,0.1-0.2,0l-3.3-3.6l-0.3,5.3h-3.1L245.8,722z"/>
	<path fill="#8A8C8C" d="M205.5,706.3v6.2h-2.9v-12.4c0-0.1,0.1-0.2,0.3,0l7.8,6.4v-6.2h2.9v12.3c0,0.1-0.1,0.2-0.2,0L205.5,706.3z"
		/>
	<path fill="#8A8C8C" d="M268.1,706.3v6.2h-2.9v-12.4c0-0.1,0.1-0.2,0.3,0l7.8,6.4v-6.2h2.9v12.3c0,0.1-0.1,0.2-0.2,0L268.1,706.3z"
		/>
	<path fill="#8A8C8C" d="M192.7,708.9l1.4-3.3l1.4,3.3H192.7z M194.3,700.1c-0.1-0.1-0.2-0.1-0.2,0l-5.9,12.4h3.1l0.6-1.5h4.4
		l0.6,1.5h3.2L194.3,700.1z"/>
	<path fill="#8A8C8C" d="M220.4,708.9l1.4-3.3l1.4,3.3H220.4z M222,700.1c-0.1-0.1-0.2-0.1-0.2,0l-5.9,12.4h3.1l0.6-1.5h4.4l0.6,1.5
		h3.2L222,700.1z"/>
	<path fill="#8A8C8C" d="M255,708.9l1.4-3.3l1.4,3.3H255z M256.6,700.1c-0.1-0.1-0.2-0.1-0.2,0l-5.9,12.4h3.1l0.6-1.5h4.4l0.6,1.5
		h3.2L256.6,700.1z"/>
	<path fill="#8A8C8C" d="M197.3,799c-3.3,0-5.3-1.8-5.3-4.9v-7.5h3.1v7.5c0,1.5,0.7,2.3,2.2,2.3c1.4,0,2.2-0.8,2.2-2.3v-7.5h3.1v7.5
		C202.6,797.2,200.6,799,197.3,799"/>
	<path fill="#8A8C8C" d="M210.7,799c-2.8,0-4.3-1.3-5-2.2l2.2-1.7c0.5,0.6,1.3,1.3,2.6,1.3c1.1,0,1.7-0.4,1.7-1.1
		c0-0.6-0.5-0.9-1.3-1.1l-1.5-0.5c-2-0.7-3-1.9-3-3.6c0-2.5,2.1-3.6,4.1-3.6c2.2,0,3.5,0.8,4.1,1.5l-1.8,1.8
		c-0.6-0.6-1.3-0.9-2.1-0.9c-1,0-1.3,0.5-1.3,1c0,0.6,0.4,0.8,0.9,1l1.6,0.5c2.3,0.8,3.2,1.8,3.2,3.7
		C215.3,797.6,213.6,799,210.7,799"/>
	<polygon fill="#8A8C8C" points="218.9,798.8 218.9,786.6 227.4,786.6 227.4,789.2 222,789.2 222,791.4 226.5,791.4 226.5,793.9 
		222,793.9 222,796.2 227.6,796.2 227.6,798.8 	"/>
	<polygon fill="#8A8C8C" points="231.8,798.8 231.8,786.6 240.2,786.6 240.2,789.2 234.9,789.2 234.9,791.4 239.4,791.4 
		239.4,793.9 234.9,793.9 234.9,796.2 240.5,796.2 240.5,798.8 	"/>
	<path fill="#8A8C8C" d="M181.2,820.8c-3.6,0-6.3-2.7-6.3-6.3c0-3.5,2.7-6.2,6.2-6.2c2.3,0,4,0.8,5.2,2.5l-2.3,1.6
		c-0.4-0.6-1.2-1.4-2.8-1.4c-1.8,0-3,1.5-3,3.6c0,2.1,1.3,3.6,3.1,3.6c1.8,0,2.5-0.9,2.9-1.7l2.4,1.5
		C185.4,819.9,183.7,820.8,181.2,820.8"/>
	<path fill="#8A8C8C" d="M233.3,818h1.2c2,0,3.3-1.4,3.3-3.5c0-2.1-1.3-3.5-3.3-3.5h-1.2V818z M230.2,820.6v-12.2h4.7
		c3.7,0,6.2,2.4,6.2,6.1s-2.5,6.1-6.2,6.1H230.2z"/>
	<rect x="244.5" y="808.5" fill="#8A8C8C" width="3.1" height="12.2"/>
	<polygon fill="#8A8C8C" points="251.8,820.6 251.8,808.5 260.3,808.5 260.3,811.1 254.9,811.1 254.9,813.3 259.4,813.3 
		259.4,815.7 254.9,815.7 254.9,818.1 260.5,818.1 260.5,820.6 	"/>
	<path fill="#8A8C8C" d="M178.6,839.9h1.2c2,0,3.3-1.4,3.3-3.5s-1.3-3.5-3.3-3.5h-1.2V839.9z M175.5,842.5v-12.2h4.7
		c3.7,0,6.2,2.5,6.2,6.1c0,3.6-2.5,6.1-6.2,6.1H175.5z"/>
	<polygon fill="#8A8C8C" points="189.8,842.5 189.8,830.3 198.3,830.3 198.3,832.9 193,832.9 193,835.1 197.4,835.1 197.4,837.6 
		193,837.6 193,839.9 198.6,839.9 198.6,842.5 	"/>
	<polygon fill="#8A8C8C" points="208.4,842.5 208.4,830.3 211.5,830.3 211.5,839.9 216.8,839.9 216.8,842.5 	"/>
	<path fill="#8A8C8C" d="M217.7,834.8l0.6-1.7l-0.1,0c-0.6-0.2-0.9-0.7-0.9-1.4c0-0.9,0.7-1.5,1.6-1.5c0.9,0,1.6,0.6,1.6,1.5
		c0,0.5-0.2,1.1-0.6,1.7l-1,1.5H217.7z"/>
	<polygon fill="#8A8C8C" points="231.7,842.5 231.7,837.7 227.2,837.7 227.2,842.5 224.1,842.5 224.1,830.3 227.2,830.3 
		227.2,835.1 231.7,835.1 231.7,830.3 234.8,830.3 234.8,842.5 	"/>
	<rect x="238.7" y="830.3" fill="#8A8C8C" width="3.1" height="12.2"/>
	<path fill="#8A8C8C" d="M250.1,842.7c-2.8,0-4.3-1.3-5-2.2l2.3-1.7c0.5,0.6,1.3,1.3,2.6,1.3c1.1,0,1.7-0.4,1.7-1.1
		c0-0.6-0.5-0.9-1.3-1.1l-1.5-0.5c-2-0.7-3-1.9-3-3.6c0-2.5,2.1-3.6,4.1-3.6c2.2,0,3.5,0.8,4.1,1.5l-1.8,1.8
		c-0.6-0.6-1.3-0.8-2.1-0.8c-1,0-1.3,0.5-1.3,0.9c0,0.6,0.4,0.8,0.9,1l1.6,0.5c2.3,0.8,3.2,1.8,3.2,3.7
		C254.7,841.3,253.1,842.7,250.1,842.7"/>
	<polygon fill="#8A8C8C" points="260.4,842.5 260.4,832.9 257.1,832.9 257.1,830.3 266.8,830.3 266.8,832.9 263.5,832.9 
		263.5,842.5 	"/>
	<path fill="#8A8C8C" d="M275.3,832.9c-2,0-3.4,1.4-3.4,3.6c0,2.1,1.3,3.6,3.4,3.6c2,0,3.4-1.4,3.4-3.6
		C278.7,834.3,277.3,832.9,275.3,832.9 M275.3,842.7c-3.7,0-6.5-2.7-6.5-6.3c0-3.5,2.9-6.2,6.5-6.2c3.7,0,6.5,2.7,6.5,6.2
		C281.9,839.9,279,842.7,275.3,842.7"/>
	<rect x="285.4" y="830.3" fill="#8A8C8C" width="3.1" height="12.2"/>
	<path fill="#8A8C8C" d="M295.9,836.3h1.6c1.2,0,1.8-0.6,1.8-1.7c0-1.1-0.6-1.7-1.8-1.7h-1.6V836.3z M299.4,842.5l-2.2-3.9h-1.3v3.9
		h-3.1v-12.2h4.9c2.9,0,4.8,1.7,4.8,4.3c0,1.6-0.8,2.9-2.2,3.5l-0.1,0l2.5,4.3H299.4z"/>
	<polygon fill="#8A8C8C" points="306.3,842.5 306.3,830.3 314.8,830.3 314.8,832.9 309.5,832.9 309.5,835.1 313.9,835.1 
		313.9,837.6 309.5,837.6 309.5,839.9 315.1,839.9 315.1,842.5 	"/>
	<polygon fill="#8A8C8C" points="223.2,782.5 222.6,785.2 224.5,785.2 225.9,782.5 	"/>
	<path fill="#8A8C8C" d="M205.3,814.4v6.2h-2.9v-12.4c0-0.1,0.1-0.2,0.3,0l7.8,6.4v-6.2h2.9v12.3c0,0.1-0.1,0.2-0.2,0L205.3,814.4z"
		/>
	<path fill="#8A8C8C" d="M267.2,814.4v6.2h-2.9v-12.4c0-0.1,0.1-0.2,0.2,0l7.8,6.4v-6.2h2.9v12.3c0,0.1-0.1,0.2-0.3,0L267.2,814.4z"
		/>
	<path fill="#8A8C8C" d="M175.9,786.5c0-0.1,0.1-0.1,0.2,0l5.8,6.6l5.8-6.6c0.1-0.1,0.1-0.1,0.2,0l0.7,12.3h-3.1l-0.3-5.3l-3.1,3.6
		c-0.1,0.1-0.1,0.1-0.2,0l-3.3-3.6l-0.3,5.3h-3.1L175.9,786.5z"/>
	<path fill="#8A8C8C" d="M192.5,817l1.4-3.3l1.4,3.3H192.5z M194.1,808.2c-0.1-0.1-0.2-0.1-0.2,0l-5.9,12.4h3.1l0.6-1.5h4.4l0.6,1.5
		h3.2L194.1,808.2z"/>
	<path fill="#8A8C8C" d="M220.1,817l1.4-3.3l1.4,3.3H220.1z M221.7,808.2c-0.1-0.1-0.2-0.1-0.2,0l-5.9,12.4h3.1l0.6-1.5h4.4l0.6,1.5
		h3.2L221.7,808.2z"/>
	<rect x="175.5" y="770.3" fill="#8A8C8C" width="4.1" height="2.3"/>
</g>
<g id="nhm">
	<rect x="0" y="231" fill-rule="evenodd" clip-rule="evenodd" fill="#007DB0" width="315.2" height="216.8"/>
	<rect x="0" y="454.8" fill-rule="evenodd" clip-rule="evenodd" fill="#007DB0" width="314.9" height="13.7"/>
	<g>
		<path fill="#FFFFFF" d="M36.7,293v-38.2l26.1,27.3v-24.9h5.4v38L42.1,268V293H36.7z"/>
		<path fill="#FFFFFF" d="M98.6,284.3H83.3l-4,8.7h-5.8l17.7-38l17.1,38h-5.9L98.6,284.3z M96.4,279.2l-5.3-12.2l-5.6,12.2H96.4z"/>
		<path fill="#FFFFFF" d="M120.9,262.3V293h-5.4v-30.7h-8.2v-5.1h21.8v5.1H120.9z"/>
		<path fill="#FFFFFF" d="M141.5,257.2V293h-5.4v-35.8H141.5z"/>
		<path fill="#FFFFFF" d="M148.6,275c0-5,1.7-9.4,5.1-13c3.4-3.6,7.5-5.4,12.3-5.4c4.8,0,8.8,1.8,12.2,5.5c3.4,3.6,5.1,8,5.1,13.1
			c0,5.1-1.7,9.5-5.1,13.1c-3.4,3.6-7.6,5.4-12.4,5.4c-4.3,0-8.1-1.6-11.6-4.8C150.5,285.3,148.6,280.7,148.6,275z M153.7,275
			c0,4,1.2,7.2,3.7,9.7c2.5,2.5,5.3,3.8,8.5,3.8c3.5,0,6.4-1.3,8.8-3.9c2.4-2.6,3.6-5.8,3.6-9.6c0-3.8-1.2-7-3.6-9.6
			c-2.3-2.6-5.3-3.9-8.7-3.9c-3.5,0-6.4,1.3-8.8,3.9C154.9,268.1,153.7,271.2,153.7,275z"/>
		<path fill="#FFFFFF" d="M188.8,293v-38.2l26.1,27.3v-24.9h5.4v38L194.2,268V293H188.8z"/>
		<path fill="#FFFFFF" d="M249.6,284.3h-15.3l-4,8.7h-5.8l17.7-38l17.1,38h-5.9L249.6,284.3z M247.4,279.2l-5.3-12.2l-5.6,12.2
			H247.4z"/>
		<path fill="#FFFFFF" d="M268.8,257.2v30.7h10.5v5.1h-15.9v-35.8H268.8z"/>
		<path fill="#FFFFFF" d="M42.1,329.8h15.4v-14h5.4v35.8h-5.4v-16.7H42.1v16.7h-5.4v-35.8h5.4V329.8z"/>
		<path fill="#FFFFFF" d="M95.6,320.9H81.3v8.6h13.9v5.1H81.3v12h14.3v5.1H75.9v-35.8h19.7V320.9z"/>
		<path fill="#FFFFFF" d="M112.5,315.8v30.7h10.5v5.1h-15.9v-35.8H112.5z"/>
		<path fill="#FFFFFF" d="M138,315.8v30.7h10.5v5.1h-15.9v-35.8H138z"/>
		<path fill="#FFFFFF" d="M179.9,320.9h-14.3v8.6h13.9v5.1h-13.9v12h14.3v5.1h-19.7v-35.8h19.7V320.9z"/>
		<path fill="#FFFFFF" d="M190.4,351.6v-38.2l26.1,27.3v-24.9h5.4v38l-26.1-27.2v25.1H190.4z"/>
		<path fill="#FFFFFF" d="M240.6,315.8v35.8h-5.4v-35.8H240.6z"/>
		<path fill="#FFFFFF" d="M278.6,317.7v6.4c-3.1-2.6-6.4-3.9-9.7-3.9c-3.7,0-6.8,1.3-9.3,3.9c-2.5,2.6-3.8,5.9-3.8,9.6
			c0,3.7,1.3,6.9,3.8,9.5c2.5,2.6,5.6,3.9,9.3,3.9c1.9,0,3.5-0.3,4.9-0.9c0.7-0.3,1.5-0.7,2.3-1.3c0.8-0.5,1.6-1.1,2.5-1.9v6.5
			c-3.1,1.8-6.4,2.6-9.8,2.6c-5.1,0-9.5-1.8-13.1-5.4c-3.6-3.6-5.4-7.9-5.4-13c0-4.5,1.5-8.6,4.5-12.2c3.7-4.4,8.5-6.6,14.4-6.6
			C272.5,315.1,275.6,316,278.6,317.7z"/>
		<path fill="#FFFFFF" d="M35.4,410.2l7.5-38.4l12.3,27.8L68,371.7l6.8,38.4h-5.5l-3.4-21.6l-10.6,23.2l-10.3-23.3L41,410.2H35.4z"
			/>
		<path fill="#FFFFFF" d="M94.4,374.4v21.5c0,3.1,0.5,5.3,1.5,6.7c1.5,2.1,3.6,3.1,6.3,3.1c2.7,0,4.8-1,6.3-3.1
			c1-1.4,1.5-3.6,1.5-6.7v-21.5h5.4v23c0,3.8-1.2,6.9-3.5,9.3c-2.6,2.7-5.9,4.1-9.7,4.1c-3.8,0-7.1-1.4-9.7-4.1
			c-2.3-2.4-3.5-5.5-3.5-9.3v-23H94.4z"/>
		<path fill="#FFFFFF" d="M150.9,379.7l-4.4,2.6c-0.8-1.4-1.6-2.4-2.3-2.8c-0.8-0.5-1.8-0.7-3-0.7c-1.5,0-2.7,0.4-3.7,1.3
			c-1,0.8-1.5,1.9-1.5,3.2c0,1.7,1.3,3.1,3.9,4.2l3.6,1.5c2.9,1.2,5,2.6,6.4,4.3c1.3,1.7,2,3.8,2,6.2c0,3.3-1.1,6-3.3,8.2
			c-2.2,2.2-4.9,3.3-8.2,3.3c-3.1,0-5.7-0.9-7.7-2.8c-2-1.8-3.2-4.4-3.7-7.8l5.5-1.2c0.3,2.1,0.7,3.6,1.3,4.4
			c1.1,1.6,2.7,2.3,4.9,2.3c1.7,0,3.1-0.6,4.2-1.7c1.1-1.1,1.7-2.5,1.7-4.3c0-0.7-0.1-1.4-0.3-1.9c-0.2-0.6-0.5-1.1-0.9-1.6
			c-0.4-0.5-0.9-0.9-1.6-1.4c-0.7-0.4-1.4-0.8-2.3-1.2l-3.4-1.4c-4.9-2.1-7.4-5.1-7.4-9.1c0-2.7,1-4.9,3.1-6.8
			c2.1-1.8,4.6-2.7,7.7-2.7C145.4,373.7,148.6,375.7,150.9,379.7z"/>
		<path fill="#FFFFFF" d="M184.7,379.5h-14.3v8.6h13.9v5.1h-13.9v12h14.3v5.1H165v-35.8h19.7V379.5z"/>
		<path fill="#FFFFFF" d="M203.8,374.4v21.5c0,3.1,0.5,5.3,1.5,6.7c1.5,2.1,3.6,3.1,6.3,3.1c2.7,0,4.9-1,6.4-3.1
			c1-1.4,1.5-3.6,1.5-6.7v-21.5h5.4v23c0,3.8-1.2,6.9-3.5,9.3c-2.6,2.7-5.9,4.1-9.7,4.1c-3.8,0-7.1-1.4-9.7-4.1
			c-2.4-2.4-3.5-5.5-3.5-9.3v-23H203.8z"/>
		<path fill="#FFFFFF" d="M238.9,410.2l7.5-38.4l12.3,27.8l12.7-27.8l6.8,38.4h-5.6l-3.4-21.6l-10.6,23.2l-10.3-23.3l-3.8,21.6
			H238.9z"/>
	</g>
	<g>
		<polygon fill="#007DB0" points="100.5,111.5 100.5,182.8 68.8,182.8 68.8,168.8 86.8,168.8 86.8,127.6 27.5,127.6 27.5,211.8 
			41.3,211.8 41.3,141.3 73,141.3 73,155.1 55,155.1 55,196.5 114.3,196.5 114.3,111.5 		"/>
		<path fill="#007DB0" d="M256.2,155.4v41.5h59.3V110l0,0v-10H0v96.6h13.8v-82.8h187.4v69.3l-31.8,0v-13.9h18v-41.3h-59.3v82.4H0
			v13.8h315.5v-13.8h-73v-68.7h31.8v13.7H256.2z M228.7,127.9v82.4h-86.8v-68.7h31.7v13.7h-18v41.5h59.3v-83.1h86.8v69.3l-31.7,0
			v-13.9h18v-41.3H228.7z"/>
	</g>
</g>
<g id="pac">
	<path fill="#003263" d="M82.2,542.8c0-1.5-0.4-2-1.2-2.1c-1.4-0.2-1.6-0.2-1.6-0.7c0-0.3,0.1-0.6,0.7-0.6c1.3,0,2.5,0.2,3.6,0.2
		c1.6,0,3.5-0.2,5.1-0.2c4.6,0,8.2,2.8,8.2,8c0,4.4-3.6,7.4-7.9,7.4c-2.3,0-2.8-0.4-3.5-0.4c-0.4,0-0.4,0.3-0.4,0.7v9
		c0,1.5,0.4,2.1,1.3,2.3c1.5,0.2,2.3,0.2,2.3,0.7c0,0.3-0.3,0.6-0.8,0.6c-0.7,0-1.5-0.2-4-0.2c-2.6,0-3.1,0.2-3.6,0.2
		c-0.7,0-0.9-0.1-0.9-0.4c0-0.5,0.3-0.6,1.8-0.8c0.8-0.1,1.1-0.7,1.1-1.8V542.8z M85.1,552.1c0,0.7,0.7,1.7,2.6,1.7
		c3.9,0,6-2.7,6-6.6c0-4.1-2.1-6.8-6.1-6.8c-1.8,0-2.4,0.4-2.4,1.5V552.1z"/>
	<path fill="#003263" d="M105.1,546.3c3.8,0,7.3,4.7,7.3,10.9c0,6.2-3.5,10.9-7.3,10.9c-3.8,0-7.3-4.7-7.3-10.9
		C97.9,550.9,101.3,546.3,105.1,546.3z M105.1,567.2c2.1,0,4.6-2.6,4.6-10.1s-2.5-10.1-4.6-10.1c-2.1,0-4.6,2.6-4.6,10.1
		S103,567.2,105.1,567.2z"/>
	<path fill="#003263" d="M118.4,564.9c0,0.9,0.2,1.5,1.1,1.7c0.6,0.1,1.3,0.2,1.3,0.6c0,0.2-0.1,0.3-0.7,0.3c-0.3,0-0.5-0.1-2.7-0.1
		s-2.4,0.1-2.7,0.1c-0.4,0-0.6,0-0.6-0.4c0-0.4,0.6-0.4,1.2-0.6c1-0.2,1.1-0.4,1.1-1.5v-16.3c0-0.9-0.3-1.1-0.9-1.2
		c-1.1-0.2-1.4,0-1.4-0.5c0-0.2,0.2-0.4,0.7-0.4c0.8,0,1.7,0.1,2.7,0.1c1,0,2.1-0.1,2.8-0.1c0.5,0,0.7,0.1,0.7,0.4
		c0,0.4-0.4,0.3-1.5,0.5c-0.7,0.1-0.9,0.6-0.9,1.2V564.9z"/>
	<path fill="#003263" d="M136.2,567.2c0,0.9,0,1-0.4,1c-0.4,0-0.3-0.4-5.3-9.6c-4.5-8.2-4.4-8.7-4.8-8.7c-0.2,0-0.2,0.1-0.2,0.7
		v11.6c0,3.2,0.2,4.3,1,4.5c0.9,0.2,1.7,0,1.7,0.6c0,0.3-0.2,0.3-0.5,0.3c-0.4,0-0.5-0.1-2.3-0.1c-1.6,0-2.1,0.1-2.6,0.1
		c-0.3,0-0.4-0.1-0.4-0.3c0-0.4,1.1-0.5,1.4-0.6c0.6-0.2,0.8-0.9,0.8-1.9v-15.3c0-1.2-0.1-1.7-0.8-1.8c-0.8-0.1-1.1-0.1-1.1-0.5
		c0-0.4,0.5-0.4,0.7-0.4c0.7,0,1.8,0.1,2.3,0.1l0.7,0c0.5,0,0.6,0.7,1,1.5l4.7,9c2.7,5.2,2.9,5.4,3,5.4c0.1,0,0.2-0.2,0.2-0.5V550
		c0-1.8-0.4-2.3-1.2-2.4c-0.7-0.1-1.1-0.2-1.1-0.5c0-0.2,0.2-0.4,0.4-0.4c0.4,0,0.8,0.1,2.3,0.1c0.7,0,1.4-0.1,2-0.1
		c0.4,0,0.5,0.1,0.5,0.4c0,0.4-0.3,0.4-1.1,0.5c-0.8,0.1-1,0.7-1,1.7V567.2z"/>
	<path fill="#003263" d="M147.5,565c0,1.1,0.3,1.6,0.8,1.6c0.9,0.2,1.6,0.1,1.6,0.5c0,0.4-0.3,0.4-0.7,0.4c-0.4,0-1-0.1-2.8-0.1
		c-2.1,0-2.4,0.1-2.8,0.1c-0.5,0-0.7-0.1-0.7-0.4c0-0.3,0.1-0.4,1.4-0.5c0.8-0.1,1-0.5,1-1.7v-16.9c0-0.4-0.1-0.5-1.6-0.5
		c-3,0-3.1,4.7-3.9,4.7c-0.3,0-0.4-0.1-0.4-0.8c0-1,0.2-1.9,0.4-3.1c0.3-2.2,0.6-2.5,0.7-2.5c0.6,0,0.4,0.9,1.2,0.9h9.7
		c1.7,0,1.2-0.9,1.8-0.9c0.3,0,0.4,0.2,0.4,0.9c0,1.2,0,1.9-0.1,2.9c-0.2,2.1-0.3,2.6-0.7,2.6c-0.9,0,0-4.7-3.5-4.7
		c-1.7,0-1.8,0-1.8,0.5V565z"/>
	<path fill="#003263" d="M156.6,548.7c0-0.7-0.2-1-0.6-1.1c-0.8-0.2-1.3-0.1-1.3-0.5c0-0.2,0.2-0.4,0.8-0.4c0.8,0,2.2,0.1,5,0.1
		c3.2,0,4.8-0.1,5.5-0.1c0.7,0,0.8,0.1,0.8,1.4c0,3.7,0,3.9-0.4,3.9c-0.3,0-0.3-0.1-0.6-0.9c-0.9-2.7-2.1-3.7-5-3.7
		c-1.9,0-2.1,0.2-2.1,0.8v7.2c0,0.5,0.1,0.6,1.5,0.6c2.1,0,2.8-0.3,3.2-1.5c0.4-1.2,0.4-1.4,0.7-1.4c0.2,0,0.3,0.2,0.3,0.7
		c0,0.7-0.1,1.3-0.1,2.6c0,1.1,0.1,2.2,0.1,3.2c0,0.4-0.1,0.5-0.4,0.5c-0.2,0-0.3-0.3-0.6-1.1c-0.5-1.7-1-2.3-2.8-2.3
		c-1.8,0-1.8,0.1-1.8,0.5v7.2c0,1.6,0.9,2.3,2.9,2.3c3.2,0,4-1.2,4.7-4c0.3-1,0.4-1.1,0.7-1.1c0.3,0,0.3,0.1,0.3,3.3
		c0,2.5,0,2.6-1,2.6c-1.9,0-4.5-0.1-6.8-0.1c-1.7,0-2.8,0.1-4.1,0.1c-0.7,0-1-0.1-1-0.4c0-0.3,0.3-0.4,0.9-0.5
		c1-0.2,1.3-0.5,1.3-1.8V548.7z"/>
	<path fill="#003263" d="M170.2,559.9c-0.4,0-0.5,0-0.5-0.2c0-0.1,0.1-0.3,0.2-0.6c0.3-0.7,0.4-0.9,0.8-0.9h6.1c0.4,0,0.5,0,0.5,0.2
		c0,0.1-0.1,0.3-0.2,0.6c-0.3,0.7-0.4,0.9-0.8,0.9H170.2z"/>
	<path fill="#003263" d="M185.3,545.7l-3.7-2.5c-0.5-0.3-0.8-0.5-0.8-1.1c0-0.4,0.3-0.8,0.8-0.8c0.5,0,0.9,0.3,1.3,0.8l3.3,3.5
		H185.3z M182.1,560.1c-0.5,0-0.7,0.1-1.1,1.7c-0.7,3-0.9,3.6-0.9,4c0,0.4,0.1,0.8,1,0.9c0.6,0.1,1.1,0.1,1.1,0.5
		c0,0.3-0.2,0.4-0.6,0.4c-0.6,0-1.3-0.1-2-0.1c-1.5,0-1.6,0.1-1.8,0.1c-0.2,0-0.4-0.1-0.4-0.4c0-0.6,1-0.2,1.3-1.1
		c1.8-5.5,3.4-12.6,5.1-18.8c0.2-0.7,0.3-1,0.6-1c0.3,0,0.4,0.2,0.6,0.8c1.6,5.8,2.8,9.9,5.1,18.4c0.2,0.6,0.5,1.2,0.8,1.3
		c0.4,0.1,1,0.2,1,0.5c0,0.2-0.2,0.3-0.7,0.3c-0.7,0-1.3-0.1-2-0.1c-0.9,0-1.7,0.1-2.3,0.1c-0.3,0-0.6-0.1-0.6-0.4
		c0-0.3,0.3-0.4,0.9-0.4c0.5,0,0.9-0.1,0.9-0.8c0-0.3-0.3-1.3-1.1-4.2c-0.4-1.4-0.5-1.6-1.1-1.6H182.1z M183.4,552.6
		c-1.4,5.4-1.6,6.3-1.6,6.5c0,0.2,0.1,0.2,2,0.2c2.3,0,2.4,0,2.4-0.3c0-0.4-0.7-2.6-1.8-6.9c-0.1-0.5-0.3-0.7-0.5-0.7
		C183.7,551.5,183.7,551.7,183.4,552.6z"/>
	<path fill="#003263" d="M192.4,559.9c-0.4,0-0.5,0-0.5-0.2c0-0.1,0.1-0.3,0.2-0.6c0.3-0.7,0.4-0.9,0.8-0.9h6.1c0.4,0,0.5,0,0.5,0.2
		c0,0.1-0.1,0.3-0.2,0.6c-0.3,0.7-0.4,0.9-0.8,0.9H192.4z"/>
	<path fill="#003263" d="M212.3,567.1c2.9,0,4.3-2.6,4.9-5.6c0.4-2.3,0.4-2.9,0.9-2.9c0.4,0,0.7,0,0.7,1.2l0,5.6
		c0,0.8-0.1,1.1-0.6,1.4c-0.9,0.8-3.6,1.4-5.6,1.4c-6.1,0-10.8-5.4-10.8-14.6c0-8.8,4.3-14.7,10.7-14.7c2.7,0,4.9,0.9,5.4,1.3
		c0.3,0.3,0.4,0.5,0.4,4.8c0,2,0,2.1-0.4,2.1c-0.4,0-0.5-0.1-1.2-2.2c-1.1-3.3-2.7-5-4.9-5c-2.9,0-6.5,3.4-6.5,13.1
		C205.4,563.6,208.8,567.1,212.3,567.1z"/>
	<path fill="#003263" d="M224.4,560.1c-0.5,0-0.7,0.1-1.1,1.7c-0.7,3-0.9,3.6-0.9,4c0,0.4,0.1,0.8,1,0.9c0.6,0.1,1.1,0.1,1.1,0.5
		c0,0.3-0.2,0.4-0.6,0.4c-0.6,0-1.3-0.1-2-0.1c-1.5,0-1.7,0.1-1.8,0.1c-0.2,0-0.4-0.1-0.4-0.4c0-0.6,1-0.2,1.3-1.1
		c1.8-5.5,3.4-12.6,5.1-18.8c0.2-0.7,0.3-1,0.6-1c0.3,0,0.4,0.2,0.6,0.8c1.6,5.8,2.8,9.9,5.1,18.4c0.2,0.6,0.5,1.2,0.8,1.3
		c0.4,0.1,1,0.2,1,0.5c0,0.2-0.2,0.3-0.7,0.3c-0.7,0-1.3-0.1-2-0.1c-0.9,0-1.7,0.1-2.3,0.1c-0.3,0-0.6-0.1-0.6-0.4
		c0-0.3,0.3-0.4,0.9-0.4c0.5,0,0.9-0.1,0.9-0.8c0-0.3-0.3-1.3-1.1-4.2c-0.4-1.4-0.5-1.6-1.1-1.6H224.4z M225.7,552.6
		c-1.4,5.4-1.6,6.3-1.6,6.5c0,0.2,0.1,0.2,2,0.2c2.3,0,2.4,0,2.4-0.3c0-0.4-0.7-2.6-1.8-6.9c-0.1-0.5-0.3-0.7-0.5-0.7
		C226,551.5,225.9,551.7,225.7,552.6z"/>
	<path fill="#003263" d="M238.7,564.3c0,1.7,0.6,2.5,2.3,2.5c2.2,0,3.7-1.2,4.4-3.7c0.3-1,0.3-1.3,0.6-1.3c0.3,0,0.3,0.1,0.3,2.4
		c0,3.3,0,3.4-0.5,3.4c-1.3,0-1.7-0.1-6.9-0.1c-2.7,0-3.3,0.1-4,0.1c-0.5,0-0.7-0.1-0.7-0.4c0-0.3,0.3-0.5,1.2-0.6
		c0.9-0.1,1.2-0.5,1.2-1.5v-15.3c0-1.7-0.2-2.1-0.9-2.2c-1-0.1-1.5-0.1-1.5-0.5c0-0.2,0.2-0.4,0.7-0.4c0.7,0,1.4,0.1,3.2,0.1
		c1.7,0,2.2-0.1,2.6-0.1c0.4,0,0.6,0.2,0.6,0.4c0,0.4-0.5,0.4-1.5,0.6c-0.9,0.2-1,0.5-1,1.4V564.3z"/>
	<path fill="#003263" d="M251.9,564.3c0,1.7,0.6,2.5,2.3,2.5c2.2,0,3.7-1.2,4.4-3.7c0.3-1,0.3-1.3,0.6-1.3c0.3,0,0.3,0.1,0.3,2.4
		c0,3.3,0,3.4-0.5,3.4c-1.3,0-1.7-0.1-6.9-0.1c-2.7,0-3.3,0.1-4,0.1c-0.5,0-0.7-0.1-0.7-0.4c0-0.3,0.3-0.5,1.2-0.6
		c0.9-0.1,1.2-0.5,1.2-1.5v-15.3c0-1.7-0.2-2.1-0.9-2.2c-1-0.1-1.5-0.1-1.5-0.5c0-0.2,0.2-0.4,0.7-0.4c0.7,0,1.4,0.1,3.2,0.1
		c1.7,0,2.2-0.1,2.6-0.1c0.4,0,0.6,0.2,0.6,0.4c0,0.4-0.5,0.4-1.5,0.6c-0.9,0.2-1,0.5-1,1.4V564.3z"/>
	<path fill="#003263" d="M265.4,564.9c0,0.9,0.2,1.5,1.1,1.7c0.6,0.1,1.3,0.2,1.3,0.6c0,0.2-0.1,0.3-0.7,0.3c-0.3,0-0.5-0.1-2.7-0.1
		c-2.3,0-2.4,0.1-2.7,0.1c-0.4,0-0.6,0-0.6-0.4c0-0.4,0.6-0.4,1.2-0.6c1-0.2,1.1-0.4,1.1-1.5v-16.3c0-0.9-0.3-1.1-0.9-1.2
		c-1.1-0.2-1.4,0-1.4-0.5c0-0.2,0.2-0.4,0.7-0.4c0.8,0,1.7,0.1,2.7,0.1c1,0,2.1-0.1,2.8-0.1c0.5,0,0.7,0.1,0.7,0.4
		c0,0.4-0.4,0.3-1.5,0.5c-0.7,0.1-0.9,0.6-0.9,1.2V564.9z"/>
	<path fill="#003263" d="M277.8,545.5l-3.7-2.5c-0.5-0.3-0.8-0.5-0.8-1.1c0-0.4,0.3-0.8,0.8-0.8c0.5,0,0.9,0.3,1.3,0.8l3.3,3.5
		H277.8z M272,548.7c0-0.7-0.2-1-0.6-1.1c-0.8-0.2-1.3-0.1-1.3-0.5c0-0.2,0.2-0.4,0.8-0.4c0.8,0,2.2,0.1,5,0.1
		c3.2,0,4.8-0.1,5.5-0.1c0.7,0,0.8,0.1,0.8,1.4c0,3.7,0,3.9-0.4,3.9c-0.3,0-0.3-0.1-0.6-0.9c-0.9-2.7-2.1-3.7-5-3.7
		c-1.9,0-2.1,0.2-2.1,0.8v7.2c0,0.5,0.1,0.6,1.5,0.6c2.1,0,2.8-0.3,3.2-1.5c0.4-1.2,0.4-1.4,0.7-1.4c0.2,0,0.3,0.2,0.3,0.7
		c0,0.7-0.1,1.3-0.1,2.6c0,1.1,0.1,2.2,0.1,3.2c0,0.4-0.1,0.5-0.4,0.5c-0.2,0-0.3-0.3-0.6-1.1c-0.5-1.7-1-2.3-2.8-2.3
		c-1.8,0-1.8,0.1-1.8,0.5v7.2c0,1.6,0.9,2.3,2.9,2.3c3.2,0,4-1.2,4.7-4c0.3-1,0.4-1.1,0.7-1.1c0.3,0,0.3,0.1,0.3,3.3
		c0,2.5,0,2.6-1,2.6c-1.9,0-4.5-0.1-6.8-0.1c-1.7,0-2.8,0.1-4.1,0.1c-0.7,0-1-0.1-1-0.4c0-0.3,0.3-0.4,0.9-0.5
		c1-0.2,1.3-0.5,1.3-1.8V548.7z"/>
	<path fill="#003263" d="M289.5,565c0,0.8,0.2,1.4,1,1.6c1,0.3,1.5,0.2,1.5,0.6c0,0.2-0.2,0.4-0.6,0.4c-0.3,0-0.9-0.1-2.9-0.1
		c-2.2,0-2.5,0.1-2.9,0.1c-0.6,0-0.8-0.1-0.8-0.3c0-0.4,0.3-0.3,1.6-0.6c0.7-0.2,0.9-0.6,0.9-1.7v-15.5c0-1.2-0.1-1.6-0.9-1.8
		c-0.8-0.2-1.5-0.1-1.5-0.5c0-0.3,0.2-0.4,0.7-0.4c0.8,0,1.6,0.1,2.5,0.1c1.4,0,2.6-0.1,3.9-0.1c3.9,0,6.3,2.2,6.3,5.1
		c0,1.9-0.9,3.4-2.8,4.4c-1.3,0.7-1.9,0.5-1.9,0.7c0,0.2,0.4,0.1,0.8,1c2.4,5,3.3,8.4,4.6,8.8c1.1,0.4,1.5,0.1,1.5,0.6
		c0,0.3-0.2,0.4-0.5,0.4c-0.4,0-0.7-0.1-1.6-0.1c-0.6,0-1.3,0.1-1.8,0.1c-0.6,0-0.6-1-3.8-8.4c-0.5-1.3-1-1.6-2.2-1.6
		c-1,0-1.2,0.1-1.2,0.6V565z M289.5,556.4c0,0.2,0,0.4,1.3,0.4c2.7,0,5.1-1.6,5.1-4.7c0-3.1-1.6-4.6-4.3-4.6c-1.8,0-2.1,0.4-2.1,1.5
		V556.4z"/>
	<path fill="#003263" d="M303.8,548.7c0-0.7-0.2-1-0.6-1.1c-0.8-0.2-1.3-0.1-1.3-0.5c0-0.2,0.2-0.4,0.8-0.4c0.8,0,2.2,0.1,5,0.1
		c3.2,0,4.9-0.1,5.5-0.1c0.7,0,0.8,0.1,0.8,1.4c0,3.7,0,3.9-0.4,3.9c-0.3,0-0.3-0.1-0.6-0.9c-0.9-2.7-2.1-3.7-5-3.7
		c-1.9,0-2.1,0.2-2.1,0.8v7.2c0,0.5,0.1,0.6,1.5,0.6c2.1,0,2.8-0.3,3.2-1.5c0.4-1.2,0.4-1.4,0.7-1.4c0.2,0,0.3,0.2,0.3,0.7
		c0,0.7-0.1,1.3-0.1,2.6c0,1.1,0.1,2.2,0.1,3.2c0,0.4-0.1,0.5-0.4,0.5c-0.2,0-0.3-0.3-0.6-1.1c-0.5-1.7-1-2.3-2.8-2.3
		c-1.8,0-1.8,0.1-1.8,0.5v7.2c0,1.6,0.9,2.3,2.9,2.3c3.2,0,4-1.2,4.7-4c0.3-1,0.4-1.1,0.7-1.1c0.3,0,0.3,0.1,0.3,3.3
		c0,2.5,0,2.6-1,2.6c-1.9,0-4.5-0.1-6.8-0.1c-1.7,0-2.8,0.1-4.1,0.1c-0.7,0-1-0.1-1-0.4c0-0.3,0.3-0.4,0.9-0.5
		c1-0.2,1.3-0.5,1.3-1.8V548.7z"/>
	<g>
		<rect x="78.4" y="534.3" fill="#003263" width="236.7" height="0.9"/>
	</g>
	<g>
		<rect x="78.4" y="575.4" fill="#003263" width="236.7" height="0.9"/>
	</g>
	<g>
		<polygon fill="#003263" points="32.8,500 34.9,500 34.9,510.4 37.1,510.4 37.1,534.4 34.9,534.4 34.9,541 32.8,541 		"/>
		<g>
			<rect x="32.8" y="551.8" fill="#003263" width="2.2" height="2.2"/>
		</g>
		<g>
			<rect x="32.8" y="560.6" fill="#003263" width="2.2" height="27.9"/>
		</g>
		<polygon fill="#003263" points="27.9,524.5 30.7,524.5 30.7,534.4 27.9,534.4 27.9,533 29.3,533 29.3,530.1 26.4,530.1 26.4,533 
			27.9,533 27.9,534.4 25.1,534.4 25.1,524.5 27.9,524.5 27.9,525.8 26.4,525.8 26.4,528.7 29.3,528.7 29.3,525.8 27.9,525.8 		"/>
		<path fill="#FBB482" d="M0,534.4c0.2,0.7,0.4,1.3,0.7,1.8c1,1.7,3.9,3.8,5,5.6c1.1,1.8,1.5,5.4,2.5,7.1c1,1.7,3.9,3.8,5,5.6
			c1.1,1.8,1.5,5.4,2.5,7.1c1,1.7,3.9,3.8,5,5.6c1.1,1.8,1.5,5.4,2.5,7.1c0.2,0.4,0.6,0.8,1,1.3v-41.4L0,534.4z"/>
		<polygon fill="#003263" points="37.1,575.8 37.1,573.7 38.2,573.7 		"/>
		<polygon fill="#003263" points="38.7,572.9 37.1,572.9 37.1,570.9 39.9,570.8 		"/>
		<polygon fill="#003263" points="40.4,570.1 37.1,570.1 37.1,568.1 41.6,568.1 		"/>
		<polygon fill="#003263" points="42.1,567.3 37.1,567.3 37.1,565.3 43.2,565.3 		"/>
		<polygon fill="#003263" points="43.7,564.4 37.1,564.5 37.1,562.5 44.8,562.6 		"/>
		<polygon fill="#003263" points="45.4,561.6 37.1,561.7 37.1,559.7 46.5,559.8 		"/>
		<polygon fill="#003263" points="47.1,558.7 37.1,558.9 37.1,556.9 48.1,557 		"/>
		<polygon fill="#003263" points="48.8,555.9 37.1,556.1 37.1,554.1 49.7,554.3 		"/>
		<polygon fill="#003263" points="50.4,553.1 37.1,553.3 37.1,551.3 51.3,551.5 		"/>
		<polygon fill="#003263" points="52.1,550.2 37.1,550.5 37.1,548.5 53,548.8 		"/>
		<polygon fill="#003263" points="53.8,547.4 37.1,547.7 37.1,545.7 54.6,546 		"/>
		<polygon fill="#003263" points="57.2,541.7 45.8,541.9 45.8,540.2 57.9,540.5 		"/>
		<polygon fill="#003263" points="58.8,538.8 37.1,539.3 37.1,537.3 59.5,537.7 		"/>
		<polygon fill="#003263" points="60.5,535.9 37.1,536.4 37.1,534.4 61.1,534.9 		"/>
		<polygon fill="#003263" points="55.5,544.5 37.1,544.9 37.1,542.9 56.2,543.2 		"/>
	</g>
	<g>
		<g>
			<g>
				<path fill="#003263" d="M79.2,654.6h4.1l5.3,14.4h0.1l5.3-14.4h3.9v17.7h-2.7V657h-0.1l-5.6,15.3h-2.3L81.5,657h-0.1v15.3h-2.3
					V654.6z"/>
				<path fill="#003263" d="M99.9,666.2c0-4.1,1.9-6.4,5.8-6.4c3.9,0,5.9,2.3,5.9,6.4c0,4.1-2,6.4-5.9,6.4
					C101.9,672.6,99.9,670.3,99.9,666.2z M105.7,671.5c2.5,0,2.8-3.1,2.8-5.3c0-2.2-0.3-5.3-2.8-5.3c-2.5,0-2.8,3.1-2.8,5.3
					C103,668.4,103.3,671.5,105.7,671.5z"/>
				<path fill="#003263" d="M113.8,660.1h2.8v2.9h0.1c0.4-0.9,1.7-3.2,4.6-3.2c2.3,0,3.3,1.8,3.3,3.6v8.9h-2.8v-7.7
					c0-1.5-0.2-2.9-1.7-2.9c-2.8,0-3.6,4-3.6,5.5v5.1h-2.8V660.1z"/>
				<path fill="#003263" d="M134.6,672.4c-0.6,0.1-1.3,0.2-1.9,0.2c-2.6,0-4.2-0.7-4.2-3.1v-8.1h-2.1v-1.3h2.1v-2.9l2.8-1.6v4.4h3.6
					v1.3h-3.6v7c0,1.8,0.2,2.7,2,2.7c0.4,0,0.9,0,1.3-0.2V672.4z"/>
				<path fill="#003263" d="M136.7,660.1h2.8v3.1h0.1c0.9-1.6,1.9-3.2,4.3-3.4v2.7c-2.7,0.1-4.3,0.9-4.3,4.2v5.6h-2.8V660.1z"/>
				<path fill="#003263" d="M155.3,671.9c-1.2,0.4-2.2,0.7-3.9,0.7c-3.7,0-6.6-2-6.6-6.9c0-3.4,1.5-5.9,5.6-5.9c4.3,0,5.1,2.6,5.1,5
					h-7.9c0,2.4,1.2,6.4,5.1,6.4c0.9,0,1.7-0.2,2.5-0.5V671.9z M152.8,663.6c0-1-0.4-2.7-2.4-2.7c-2.2,0-2.6,2.1-2.6,2.7H152.8z
					 M150.8,654.6h2.9l-2.7,3.4h-2.1L150.8,654.6z"/>
				<path fill="#003263" d="M164.5,670.6L164.5,670.6c-0.5,0.7-1.7,2-3.8,2c-2.1,0-3.6-1.4-3.6-3.1c0-3.8,5.6-4,7.4-4v-1.1
					c0-1.3,0-3.5-1.9-3.5c-1.7,0-2,1.2-2.1,2.7h-2.9c0.1-1.8,0.9-3.8,5.1-3.8c4.3,0,4.7,2.2,4.7,4.6v7.9h-2.8V670.6z M164.5,666.6
					c-1.2,0.1-4.3,0.3-4.3,2.6c0,1.1,0.7,1.8,1.6,1.8c1,0,2.7-0.9,2.7-3V666.6z"/>
				<path fill="#003263" d="M170.2,654.6h2.8v17.7h-2.8V654.6z"/>
			</g>
		</g>
		<path fill="#003263" d="M190.8,652.2c-0.9-1.3-2.3-2.1-3.7-2.1c-2.4,0-4.4,1.9-4.4,4.4c0,0.2,0.1,0.6,0.1,1c-0.2,0-0.6-0.1-1-0.1
			c-2.5,0-4.4,1.9-4.4,4.4c0,1.4,0.8,2.8,2.1,3.7c-1.3,0.9-2.1,2.2-2.1,3.6c0,2.4,2,4.4,4.4,4.4c0.3,0,0.7-0.1,1-0.1
			c-0.1,0.4-0.1,0.7-0.1,1c0,2.5,1.9,4.4,4.4,4.4c1.5,0,2.8-0.8,3.7-2c0.8,1.2,2.3,2,3.7,2c2.4,0,4.4-1.9,4.4-4.4
			c0-0.3-0.1-0.7-0.1-1c0.4,0.1,0.7,0.1,1,0.1c2.4,0,4.4-2,4.4-4.4c0-1.4-0.8-2.8-2-3.7c1.3-0.8,2-2.2,2-3.7c0-2.4-2-4.4-4.4-4.4
			c-0.3,0-0.7,0.1-1,0.1c0-0.2,0.1-0.7,0.1-1c0-2.5-1.9-4.4-4.4-4.4C193,650.1,191.6,650.9,190.8,652.2z M185,656.6L185,656.6
			c-0.2-0.2-0.9-0.9-0.9-2.1c0,0,0,0,0,0c0-1.8,1.5-3,3-3c0.8,0,1.5,0.3,2.1,0.9c0.6,0.6,0.9,1.3,0.9,2.1v6.9c0,0.8-0.8,1.3-1.3,1.3
			h-6.9c-0.8,0-1.6-0.3-2.1-0.9c-0.4-0.4-0.8-1.1-0.8-2.1c0-0.8,0.3-1.6,0.9-2.1c0.5-0.5,1.3-0.9,2.1-0.9c1,0,1.7,0.5,2.1,0.9
			c0,0,0.3,0.3,0.3,0.3c-0.1,0.2-0.1,0.4-0.1,0.6c0,1,0.8,1.8,1.8,1.8c0.5,0,0.9-0.2,1.2-0.5c0.3-0.3,0.5-0.8,0.5-1.3
			c0-0.5-0.2-1-0.5-1.3c-0.3-0.3-0.8-0.5-1.3-0.5c-0.3,0-0.5,0.1-0.6,0.1C185.3,656.9,185,656.6,185,656.6z M191.5,654.5
			c0-0.8,0.3-1.6,0.9-2.1c0.4-0.4,1.1-0.8,2.1-0.9c0.8,0,1.6,0.3,2.1,0.9c0.5,0.5,0.9,1.3,0.9,2.1c0,0,0,0,0,0c0,1-0.5,1.7-0.9,2.1
			c0,0-0.3,0.3-0.3,0.3c-0.2-0.1-0.4-0.1-0.6-0.1c-1,0-1.8,0.8-1.8,1.8c0,0.5,0.2,0.9,0.5,1.2c0.3,0.3,0.8,0.5,1.3,0.5c0,0,0,0,0,0
			c0.5,0,0.9-0.2,1.3-0.5c0.3-0.3,0.5-0.8,0.5-1.2c0,0,0,0,0,0c0-0.3-0.1-0.5-0.1-0.6c0.1-0.1,0.3-0.4,0.3-0.4
			c0.2-0.2,0.9-0.9,2.1-0.9c1.8,0,3,1.5,3,3c0,0.8-0.3,1.5-0.9,2.1c-0.6,0.6-1.3,0.9-2.1,0.9h-6.9c-0.8,0-1.3-0.8-1.3-1.3l0,0V654.5
			z M179.8,669.3c-0.6-0.6-0.9-1.3-0.9-2.1l0,0c0-0.8,0.3-1.5,0.9-2.1c0.6-0.6,1.3-0.9,2.1-0.9h6.9c0.8,0,1.3,0.8,1.3,1.3v6.9
			c0,0.8-0.3,1.6-0.9,2.1c-0.4,0.4-1.1,0.8-2.1,0.8c-1.6,0-3-1.3-3-2.9c0,0,0,0,0,0c0-1,0.5-1.7,0.9-2.1c0,0,0.3-0.3,0.3-0.3
			c0.2,0.1,0.4,0.1,0.6,0.1c1,0,1.8-0.8,1.8-1.8c0-0.5-0.2-0.9-0.5-1.2c-0.3-0.3-0.8-0.5-1.3-0.5c-0.5,0-1,0.2-1.3,0.5
			c-0.3,0.3-0.5,0.8-0.5,1.2c0,0,0,0,0,0c0,0.3,0.1,0.5,0.1,0.6c-0.1,0.1-0.3,0.4-0.3,0.4c-0.2,0.2-0.9,0.9-2.1,0.9
			C181.1,670.1,180.3,669.8,179.8,669.3z M192.4,674.5c-0.6-0.6-0.9-1.3-0.9-2.1v-6.9c0-0.8,0.8-1.3,1.3-1.3h6.9c1.4,0,3,1.1,3,2.9
			c0,1.6-1.3,3-2.9,3c-1,0-1.7-0.5-2.1-0.9c0,0-0.3-0.3-0.3-0.3c0.1-0.2,0.1-0.4,0.1-0.6l0,0c0-1-0.8-1.8-1.8-1.8
			c-0.5,0-0.9,0.2-1.2,0.5c-0.3,0.3-0.5,0.8-0.5,1.3c0,0.5,0.2,1,0.5,1.3c0.3,0.3,0.8,0.5,1.3,0.5c0.3,0,0.5-0.1,0.6-0.1
			c0.1,0.1,0.4,0.3,0.4,0.3c0.2,0.2,0.9,0.9,0.9,2.1c0,0,0,0,0,0c0,1.8-1.5,3-3,3C193.7,675.3,193,675,192.4,674.5z"/>
	</g>
	<g>
		<path fill="#003263" d="M87.9,601.8L87.9,601.8c3.2-10.1,3-10.2,3.5-10.2c1,0,1.6,0.1,2.5,0.1c0.8,0,1.5-0.1,2.5-0.1
			c0.3,0,0.5,0.1,0.5,0.4c0,0.4-0.5,0.4-1.1,0.6c-0.3,0.1-0.5,0.5-0.5,1.3c0,1,0.3,10.2,0.4,12.1c0.1,1.2,0.3,1.6,0.8,1.7
			c0.7,0.2,1.1,0.2,1.1,0.7c0,0.3-0.3,0.4-1,0.4c-0.4,0-1.2-0.1-3-0.1c-2.6,0-3,0.1-3.4,0.1c-0.3,0-0.5-0.1-0.5-0.4
			c0-0.5,0.5-0.4,0.9-0.6c0.7-0.3,1-0.4,1-1.7c0-2.7-0.1-5.3-0.2-8.5c0-0.7,0-1.5-0.2-1.5c-0.2,0-0.2,0.3-0.3,0.7
			c-0.4,1.1-1.2,3.8-3.4,10.6c-0.3,1-0.5,1.1-1,1.1c-0.6,0-0.7-0.1-1-1.1l-3.2-10.6c-0.1-0.5-0.2-0.9-0.4-0.9
			c-0.2,0-0.2,0.5-0.2,1.1c-0.2,1.8-0.3,5.2-0.3,9.4c0,1.1,0.5,1.3,1.1,1.4c0.6,0.1,1.1,0.1,1.1,0.5c0,0.3-0.2,0.4-0.6,0.4
			c-0.4,0-1.1-0.1-2-0.1c-1.3,0-1.8,0.1-2.1,0.1c-0.3,0-0.5-0.1-0.5-0.4c0-0.4,0.5-0.5,0.9-0.6c0.5-0.2,0.7-0.4,0.8-1.6
			c0.1-0.7,0.5-9.9,0.5-12.9c0-1.4-1.5-0.7-1.5-1.4c0-0.3,0.2-0.3,0.5-0.3c0.9,0,1.7,0.1,2.5,0.1c1,0,1.8-0.1,2.5-0.1
			c0.4,0,0.5,0.2,1,1.6L87.9,601.8z"/>
		<path fill="#003263" d="M98.3,602.6c0-3.6,2.6-6.6,6.1-6.6c3.5,0,6.1,2.9,6.1,6.6c0,3.6-2.6,6.6-6.1,6.6
			C101,609.1,98.3,606.2,98.3,602.6z M104.9,608.4c0.8,0,1.6-1.2,1.6-4.2c0-5-1-7.4-2.4-7.4c-1.1,0-1.7,1.8-1.7,4.2
			C102.4,605.1,103.2,608.4,104.9,608.4z"/>
		<path fill="#003263" d="M116.5,607c0,1.5,1.1,0.7,1.1,1.5c0,0.3-0.3,0.4-0.6,0.4c-0.6,0-1.5-0.1-2.3-0.1c-1,0-1.9,0.1-2.3,0.1
			c-0.5,0-0.7-0.1-0.7-0.4c0-0.7,1.2-0.2,1.2-1.2v-7.6c0-1.1-1.3-0.7-1.3-1.2c0-0.3,0.2-0.4,0.5-0.5c1.8-0.4,3.7-1.9,3.9-1.9
			c0.1,0,0.2,0.1,0.2,0.4v1.1c0,0.2,0.1,0.3,0.2,0.3c0.2,0,0.3-0.2,0.8-0.6c0.6-0.5,1.5-1.2,2.6-1.2c2.1,0,3.3,1.4,3.3,3.9v6.3
			c0,0.6,0.2,1.5,0.5,1.6c0.5,0.2,1,0.1,1,0.5c0,0.3-0.2,0.4-0.6,0.4c-1,0-1.7-0.1-2.7-0.1c-1,0-1.6,0.1-2.1,0.1
			c-0.5,0-0.7-0.1-0.7-0.4c0-0.7,1-0.1,1-1.2v-7.7c0-1.1-0.6-1.7-1.5-1.7c-0.9,0-1.5,0.5-1.5,1.7V607z"/>
		<path fill="#003263" d="M132.2,596.4c0.2,0,0.4,0.1,0.4,0.5c0,0.5-0.1,0.7-0.3,0.7h-1.7c-0.2,0-0.5,0.1-0.5,0.4v7.3
			c0,1.3,0.5,1.8,1.1,1.8c0.9,0,0.8-0.9,1.2-0.9c0.2,0,0.3,0.2,0.3,0.5c0,0.8-1.4,2.6-3.3,2.6c-2.1,0-2.9-1.4-2.9-4.1v-7.1
			c0-1-1.8-0.2-1.8-0.9c0-0.6,1-0.7,1.7-1.2c2.3-1.5,2.6-3.1,3.1-3.1c0.3,0,0.4,0,0.4,0.3l0.1,3c0,0.3,0.1,0.5,0.4,0.5H132.2z"/>
		<path fill="#003263" d="M142.9,598.7c0,1-0.5,2.1-1.8,2.1c-2.1,0-1.2-2-2-2c-0.6,0-1.2,0.9-1.2,2.5v4.4c0,1.8,0.2,2.2,1.5,2.3
			c0.3,0,0.6,0.1,0.6,0.4c0,0.3-0.1,0.4-0.5,0.4c-0.6,0-1.2-0.1-3.4-0.1c-1.8,0-2.3,0.1-2.8,0.1c-0.3,0-0.5-0.2-0.5-0.5
			c0-0.8,1.7-0.1,1.7-1.8v-6.1c0-2.2-1.7-0.9-1.7-1.8c0-0.5,0.5-0.2,3.1-1.9c1-0.6,1.2-0.8,1.5-0.8c0.2,0,0.2,0.1,0.2,0.4v1.8
			c0,0.2,0.1,0.3,0.2,0.3c0.5,0,1-2.2,3-2.2C142,596.2,142.9,597.1,142.9,598.7z"/>
		<path fill="#003263" d="M148.1,601.6c-0.4,0-0.5,0.2-0.5,1c0,2,1,4.5,3.4,4.5c0.9,0,1.5-0.4,1.9-0.8c0.6-0.7,0.7-1.2,1-1.2
			c0.2,0,0.4,0.1,0.4,0.4c0,0.5-0.5,1.5-1.2,2.2c-1.1,1-2.2,1.5-3.5,1.5c-3.5,0-5.9-2.9-5.9-6.6c0-3.6,2.2-6.6,6-6.6
			c3.3,0,4.8,2.4,4.8,4.6c0,0.8-0.2,1-1.5,1H148.1z M147.3,594.5l3.5-4.2c0.5-0.7,1.1-0.8,1.5-0.8c0.6,0,1.2,0.4,1.2,1.1
			c0,0.4-0.2,0.9-1,1.4l-3.7,2.5H147.3z M148.4,600.8c1.6,0,2.7-0.4,2.7-2.2c0-1-0.4-1.7-1.5-1.7c-1.2,0-2,1.6-2,3.2
			C147.6,600.6,147.8,600.8,148.4,600.8z"/>
		<path fill="#003263" d="M165.5,605.9c0,0.8,0.2,1.2,0.6,1.2c0.5,0,0.8-0.8,1.1-0.8c0.2,0,0.3,0.1,0.3,0.3c0,0.9-1,2.5-3.1,2.5
			c-1,0-1.5-0.4-1.9-1.2c-0.3-0.5-0.3-1-0.5-1c-0.3,0-0.5,0.2-1.4,1c-0.8,0.7-1.6,1.1-2.4,1.1c-1.6,0-2.7-1.1-2.7-2.7
			c0-1.8,1.3-2.9,4.7-4.5c1.8-0.8,2-0.9,2-1.6v-2c0-1-0.3-1.4-1-1.4c-1,0-1.7,0.9-2,2.5c-0.2,1.3-2,1.9-2.6,1.9
			c-0.5,0-0.9-0.3-0.9-1.1c0-1.9,2.9-4.2,6.4-4.2c2.3,0,3.7,0.7,3.7,2.7V605.9z M160.5,606.9c0.8,0,1.5-0.9,1.5-2.5v-2.2
			c0-0.1-0.1-0.2-0.1-0.2c-0.1,0-0.2,0.1-0.3,0.1c-1.1,0.7-2.5,1.6-2.5,3.1C159.1,606.2,159.6,606.9,160.5,606.9z"/>
		<path fill="#003263" d="M169,592.7c0-1.3-1.6-0.7-1.6-1.3c0-0.3,0.2-0.4,0.8-0.5c3.1-0.5,3.7-1.1,4.1-1.1c0.1,0,0.2,0.1,0.2,0.5
			v16.6c0,1.6,1.6,0.8,1.6,1.6c0,0.3-0.3,0.4-0.9,0.4c-0.8,0-1.4-0.1-2.8-0.1c-0.9,0-1.8,0.1-2.5,0.1c-0.4,0-0.7-0.1-0.7-0.4
			c0-0.7,1.6-0.2,1.6-1.2V592.7z"/>
		<path fill="#003263" d="M185.1,603.2c-0.3,0-0.5,0.2-0.6,0.5c-0.2,1-0.6,2.3-0.6,3.1c0,0.5,0.4,1,1,1.1c0.5,0.1,1,0.1,1,0.5
			c0,0.3-0.2,0.4-0.5,0.4c-0.4,0-0.8-0.1-1.9-0.1c-1.4,0-1.9,0.1-2.1,0.1c-0.2,0-0.4-0.2-0.4-0.4c0-0.6,1.1-0.2,1.6-1.8l4.3-14.2
			c0.2-0.7,0.3-0.8,0.5-0.8h1.3c0.3,0,0.4,0.3,0.6,1l4.4,14.1c0.2,0.8,0.4,1.2,0.9,1.3c0.4,0.1,0.7,0.1,0.7,0.4
			c0,0.3-0.2,0.5-0.7,0.5c-1.1,0-2.3-0.1-3.4-0.1c-0.8,0-1.7,0.1-2.4,0.1c-0.4,0-0.5-0.1-0.5-0.5c0-0.3,0.4-0.4,0.8-0.5
			c0.3-0.1,0.5-0.3,0.5-0.7c0-0.2-0.3-1.1-1-3.5c-0.1-0.4-0.2-0.5-0.8-0.5H185.1z M185.3,601.3c0,0.1-0.1,0.2-0.1,0.4
			c0,0.2,0.2,0.3,1.8,0.3c1.1,0,1.2-0.1,1.2-0.2c0-0.1-0.1-0.4-0.2-0.7l-1.2-3.9c0-0.1-0.1-0.2-0.2-0.2c-0.1,0-0.2,0.2-0.2,0.4
			L185.3,601.3z"/>
		<path fill="#003263" d="M205.5,598.7c0,1-0.5,2.1-1.8,2.1c-2.1,0-1.2-2-2-2c-0.6,0-1.2,0.9-1.2,2.5v4.4c0,1.8,0.2,2.2,1.5,2.3
			c0.3,0,0.6,0.1,0.6,0.4c0,0.3-0.1,0.4-0.5,0.4c-0.6,0-1.2-0.1-3.4-0.1c-1.8,0-2.3,0.1-2.8,0.1c-0.3,0-0.5-0.2-0.5-0.5
			c0-0.8,1.7-0.1,1.7-1.8v-6.1c0-2.2-1.7-0.9-1.7-1.8c0-0.5,0.5-0.2,3.1-1.9c1-0.6,1.2-0.8,1.5-0.8c0.2,0,0.2,0.1,0.2,0.4v1.8
			c0,0.2,0.1,0.3,0.2,0.3c0.5,0,1-2.2,3-2.2C204.6,596.2,205.5,597.1,205.5,598.7z"/>
		<path fill="#003263" d="M212.1,596c1.4,0,2.7,0.4,2.9,0.6c0.2,0.1,0.2,0.6,0.2,3.4c0,0.5-0.3,0.8-0.8,0.8c-1.3,0-1.4-4-2.7-4
			c-1.1,0-2,2.3-2,5.3c0,2.2,1,5,3,5c0.7,0,1.2-0.3,1.7-1.1c0.3-0.5,0.4-0.9,0.7-0.9c0.2,0,0.4,0.2,0.4,0.4c0,0.7-1,3.6-4.2,3.6
			c-3,0-5.5-2.9-5.5-6.2C205.9,598.9,208.3,596,212.1,596z"/>
		<path fill="#003263" d="M227.9,606.7c0,1.6,1.2,0.9,1.2,1.6c0,0.3-0.3,0.4-0.7,0.4c-0.8,0-1.4-0.1-2.4-0.1c-1,0-1.6,0.1-2.1,0.1
			c-0.5,0-0.7-0.1-0.7-0.4c0-0.7,1.1-0.2,1.1-1.2v-7.9c0-1.2-0.7-1.7-1.5-1.7c-0.9,0-1.6,0.8-1.6,1.6v7.7c0,1.6,1.1,0.8,1.1,1.6
			c0,0.3-0.2,0.4-0.7,0.4c-0.6,0-1.4-0.1-2.3-0.1c-1,0-2,0.1-2.6,0.1c-0.4,0-0.7-0.1-0.7-0.4c0-0.7,1.6,0,1.6-1.8v-13.9
			c0-1.3-1.6-0.7-1.6-1.3c0-0.3,0.2-0.4,0.8-0.5c3.1-0.5,3.7-1.1,4-1.1c0.2,0,0.2,0.1,0.2,0.5v6.7c0,0.3,0.1,0.4,0.2,0.4
			c0.1,0,0.2-0.1,0.5-0.2c0.8-0.6,1.7-1.1,2.9-1.1c2.2,0,3,1.5,3,3.7V606.7z"/>
		<path fill="#003263" d="M240.2,605.9c0,0.8,0.2,1.2,0.6,1.2c0.5,0,0.8-0.8,1.1-0.8c0.2,0,0.3,0.1,0.3,0.3c0,0.9-1,2.5-3.1,2.5
			c-1,0-1.5-0.4-1.9-1.2c-0.3-0.5-0.3-1-0.5-1c-0.3,0-0.5,0.2-1.4,1c-0.8,0.7-1.6,1.1-2.4,1.1c-1.6,0-2.7-1.1-2.7-2.7
			c0-1.8,1.3-2.9,4.7-4.5c1.8-0.8,2-0.9,2-1.6v-2c0-1-0.3-1.4-1-1.4c-1,0-1.7,0.9-2,2.5c-0.2,1.3-2,1.9-2.6,1.9
			c-0.5,0-0.9-0.3-0.9-1.1c0-1.9,2.9-4.2,6.4-4.2c2.3,0,3.7,0.7,3.7,2.7V605.9z M235.2,606.9c0.8,0,1.5-0.9,1.5-2.5v-2.2
			c0-0.1-0.1-0.2-0.1-0.2c-0.1,0-0.2,0.1-0.3,0.1c-1.1,0.7-2.5,1.6-2.5,3.1C233.8,606.2,234.3,606.9,235.2,606.9z"/>
		<path fill="#003263" d="M246.9,601.6c-0.4,0-0.5,0.2-0.5,1c0,2,1,4.5,3.4,4.5c0.9,0,1.5-0.4,1.9-0.8c0.6-0.7,0.7-1.2,1-1.2
			c0.2,0,0.4,0.1,0.4,0.4c0,0.5-0.5,1.5-1.2,2.2c-1.1,1-2.2,1.5-3.5,1.5c-3.5,0-5.9-2.9-5.9-6.6c0-3.6,2.2-6.6,6-6.6
			c3.3,0,4.8,2.4,4.8,4.6c0,0.8-0.2,1-1.5,1H246.9z M247.1,600.8c1.6,0,2.7-0.4,2.7-2.2c0-1-0.4-1.7-1.5-1.7c-1.2,0-2,1.6-2,3.2
			C246.4,600.6,246.6,600.8,247.1,600.8z"/>
		<path fill="#003263" d="M254.4,602.6c0-3.6,2.6-6.6,6.1-6.6c3.5,0,6.1,2.9,6.1,6.6c0,3.6-2.6,6.6-6.1,6.6
			C257,609.1,254.4,606.2,254.4,602.6z M261,608.4c0.8,0,1.6-1.2,1.6-4.2c0-5-1-7.4-2.4-7.4c-1.1,0-1.7,1.8-1.7,4.2
			C258.5,605.1,259.3,608.4,261,608.4z"/>
		<path fill="#003263" d="M269.3,592.7c0-1.3-1.6-0.7-1.6-1.3c0-0.3,0.2-0.4,0.8-0.5c3.1-0.5,3.7-1.1,4.1-1.1c0.1,0,0.2,0.1,0.2,0.5
			v16.6c0,1.6,1.6,0.8,1.6,1.6c0,0.3-0.3,0.4-0.9,0.4c-0.8,0-1.4-0.1-2.8-0.1c-0.9,0-1.8,0.1-2.5,0.1c-0.4,0-0.7-0.1-0.7-0.4
			c0-0.7,1.6-0.2,1.6-1.2V592.7z"/>
		<path fill="#003263" d="M275.6,602.6c0-3.6,2.6-6.6,6.1-6.6c3.5,0,6.1,2.9,6.1,6.6c0,3.6-2.6,6.6-6.1,6.6
			C278.2,609.1,275.6,606.2,275.6,602.6z M282.1,608.4c0.8,0,1.6-1.2,1.6-4.2c0-5-1-7.4-2.4-7.4c-1.1,0-1.7,1.8-1.7,4.2
			C279.6,605.1,280.4,608.4,282.1,608.4z"/>
		<path fill="#003263" d="M296.1,606.7c3.5,0,4.6,1.8,4.6,3.9c0,2.5-3.2,4.5-6.6,4.5c-2.8,0-5.4-1.1-5.4-3.2c0-0.8,0.3-1.2,1-1.6
			c1.3-0.8,1.7-0.8,1.7-1.1c0-0.6-2.3-2.1-2.3-2.7c0-0.5,2.5-1.4,2.5-1.7c0-0.2-0.6-0.5-1.1-1.1c-0.6-0.6-1.2-1.5-1.2-2.9
			c0-2.9,2.3-4.8,4.9-4.8c0.9,0,1.5,0.2,2,0.4c0.5,0.2,0.9,0.4,1.3,0.4h2.5c0.5,0,0.5,0.1,0.5,0.5v0.4c0,0.4-0.1,0.5-0.5,0.5h-0.7
			c-0.3,0-0.4,0.2-0.4,0.3c0,0.4,0.5,0.7,0.5,2.1c0,2.9-2,4.7-5.8,4.7c-1,0-1.4,0.2-1.4,0.7c0,0.2,0.4,0.9,1.5,0.9H296.1z
			 M298.2,612.1c0-1.5-1.1-1.9-2.5-1.9c-0.8,0-2-0.1-2.6-0.2c-0.4-0.1-0.6-0.2-0.7-0.2c-0.5,0-1,0.7-1,1.7c0,1.8,1.8,2.9,3.4,2.9
			C296.1,614.3,298.2,613.6,298.2,612.1z M294.6,604.4c0.8,0,1.1-1.3,1.1-3.5c0-2.7-0.8-4.2-1.5-4.2c-1,0-1.2,1-1.2,3
			C293,603,293.6,604.4,294.6,604.4z"/>
		<path fill="#003263" d="M305.5,613.4c-0.2,0.8-0.7,1.3-1.8,1.3c-1.2,0-1.5-0.3-1.5-1.1c0-1.7,0.2-1.8,1.2-2
			c1.7-0.2,2.1-0.7,2.1-2.3c0-0.5-4-11.2-4.3-11.6c-0.5-0.9-1.1-0.3-1.1-1c0-0.2,0.1-0.4,0.5-0.4c0.9,0,1.8,0.1,2.6,0.1
			c0.9,0,1.8-0.1,2.6-0.1c0.2,0,0.4,0.1,0.4,0.3c0,0.6-1.2,0.1-1.2,1.2c0,0.3,0.3,1,2.2,6.5h0.1c1.2-4.3,1.7-5.1,1.7-6.4
			c0-1.3-1.4-0.6-1.4-1.2c0-0.3,0.1-0.4,0.4-0.4c0.6,0,1.1,0.1,1.7,0.1c0.5,0,1.1-0.1,1.7-0.1c0.2,0,0.3,0,0.3,0.3
			c0,0.5-1.2,0-2.1,2.9L305.5,613.4z"/>
		<path fill="#003263" d="M88.6,632.7c0,0.8,0.2,1.2,0.6,1.2c0.5,0,0.8-0.8,1.1-0.8c0.2,0,0.3,0.1,0.3,0.3c0,0.9-1,2.5-3.1,2.5
			c-1,0-1.5-0.4-1.9-1.2c-0.3-0.5-0.3-1-0.5-1c-0.3,0-0.5,0.2-1.4,1c-0.8,0.7-1.6,1.1-2.4,1.1c-1.6,0-2.7-1.1-2.7-2.7
			c0-1.8,1.3-2.9,4.7-4.5c1.8-0.8,2-0.9,2-1.6v-2c0-1-0.3-1.4-1-1.4c-1,0-1.7,0.9-2,2.5c-0.2,1.3-2,1.9-2.6,1.9
			c-0.5,0-0.9-0.3-0.9-1.1c0-1.9,2.9-4.2,6.4-4.2c2.3,0,3.7,0.7,3.7,2.7V632.7z M83.6,633.7c0.8,0,1.5-0.9,1.5-2.5V629
			c0-0.1-0.1-0.2-0.1-0.2c-0.1,0-0.2,0.1-0.3,0.1c-1.1,0.7-2.5,1.6-2.5,3.1C82.2,633,82.7,633.7,83.6,633.7z"/>
		<path fill="#003263" d="M95.4,633.8c0,1.5,1.1,0.7,1.1,1.5c0,0.3-0.3,0.4-0.6,0.4c-0.6,0-1.5-0.1-2.3-0.1c-1,0-1.9,0.1-2.3,0.1
			c-0.5,0-0.7-0.1-0.7-0.4c0-0.7,1.2-0.2,1.2-1.2v-7.6c0-1.1-1.3-0.7-1.3-1.2c0-0.3,0.2-0.4,0.5-0.5c1.8-0.4,3.7-1.9,3.9-1.9
			c0.1,0,0.2,0.1,0.2,0.4v1.1c0,0.2,0.1,0.3,0.2,0.3c0.2,0,0.3-0.2,0.8-0.6c0.6-0.5,1.5-1.2,2.6-1.2c2.1,0,3.3,1.4,3.3,3.9v6.3
			c0,0.6,0.2,1.5,0.5,1.6c0.5,0.2,1,0.1,1,0.5c0,0.3-0.2,0.4-0.6,0.4c-1,0-1.7-0.1-2.7-0.1c-1,0-1.6,0.1-2.1,0.1
			c-0.5,0-0.7-0.1-0.7-0.4c0-0.7,1-0.1,1-1.2v-7.7c0-1.1-0.6-1.7-1.5-1.7c-0.9,0-1.5,0.5-1.5,1.7V633.8z"/>
		<path fill="#003263" d="M112,619.5c0-1.3-1.6-0.7-1.6-1.3c0-0.3,0.2-0.4,0.8-0.5c3.1-0.5,3.7-1.1,4.1-1.1c0.1,0,0.2,0.2,0.2,0.5
			v16c0,0.4,0.3,0.6,0.6,0.6c0.4,0,0.4-0.8,0.9-0.8c0.1,0,0.3,0.1,0.3,0.3c0,0.9-0.1,1-0.4,1.2c-1.1,0.6-2.3,1.1-3.4,1.5
			c-0.4,0.1-0.7,0.2-1,0.2c-0.3,0-0.3-0.3-0.4-0.5l-0.1-0.7c0-0.2-0.1-0.3-0.2-0.3c-0.2,0-0.3,0.1-0.5,0.2c-1,0.7-1.8,1.2-2.8,1.2
			c-2.1,0-4.3-1.6-4.3-6.3c0-4.4,2.5-6.8,5.1-6.8c1.2,0,2.4,0.7,2.6,0.7V619.5z M112,626.2c0-1.2-0.4-2.3-1.6-2.3c-1.2,0-2,2-2,5.2
			c0,3.8,1.1,5,2.3,5c0.9,0,1.3-0.4,1.3-2V626.2z"/>
		<path fill="#003263" d="M130.2,633.6c0,0.8,0.4,1,0.9,1.1c0.5,0.1,0.6,0.2,0.6,0.6c0,0.3-0.3,0.4-0.6,0.4c-0.6,0-1.3-0.1-3-0.1
			c-1.7,0-2.6,0.1-3.1,0.1c-0.5,0-0.7-0.1-0.7-0.4c0-0.4,0.3-0.5,0.9-0.7c0.4-0.1,0.9-0.2,0.9-1v-13.1c0-1.6-1.7-0.8-1.7-1.6
			c0-0.3,0.4-0.4,0.7-0.4c0.5,0,1.3,0.1,3,0.1c1.7,0,2.4-0.1,3-0.1c0.4,0,0.6,0.1,0.6,0.4c0,0.3-0.3,0.4-0.7,0.6
			c-0.5,0.3-0.8,0.4-0.8,1.1v4.9c0,0.3,0.2,0.5,0.7,0.5h3c0.6,0,0.7-0.1,0.7-0.4v-4.7c0-1-0.2-1.2-0.6-1.4c-0.5-0.1-0.8-0.3-0.8-0.6
			c0-0.2,0.2-0.4,0.6-0.4c0.4,0,1.1,0.1,2.9,0.1c1.7,0,2.6-0.1,3-0.1c0.5,0,0.7,0.1,0.7,0.4c0,0.4-0.3,0.5-0.8,0.7
			c-0.6,0.2-0.8,0.4-0.8,1.2v12.8c0,0.9,0.3,1.1,0.7,1.2c0.4,0.1,1,0.2,1,0.6c0,0.3-0.4,0.4-0.7,0.4c-0.6,0-1.4-0.1-3.1-0.1
			c-1.7,0-2.4,0.1-2.9,0.1c-0.3,0-0.6-0.1-0.6-0.4c0-0.4,0.2-0.5,0.9-0.7c0.3-0.1,0.5-0.2,0.5-1v-6.2c0-0.2-0.2-0.3-0.5-0.3h-3.3
			c-0.4,0-0.6,0.1-0.6,0.4V633.6z"/>
		<path fill="#003263" d="M146.2,633.6c0,1.6,1.6,0.8,1.6,1.6c0,0.3-0.3,0.4-0.9,0.4c-0.8,0-1.6-0.1-2.4-0.1c-1.3,0-2.3,0.1-2.6,0.1
			c-0.4,0-0.7-0.1-0.7-0.4c0-0.7,1.4-0.2,1.4-1.2v-7.6c0-1.1-1.5-0.7-1.5-1.2c0-0.3,0.3-0.4,0.5-0.5c1.8-0.4,3.9-1.9,4.2-1.9
			c0.2,0,0.3,0.2,0.3,0.9V633.6z M144.4,617.7c1.2,0,2,0.9,2,2c0,1.1-0.8,2-2,2c-1.2,0-2-0.9-2-2
			C142.4,618.6,143.2,617.7,144.4,617.7z"/>
		<path fill="#003263" d="M153.3,634.9c1.1,0,2-0.5,2-1.9c0-2.5-6.4-1.7-6.4-6c0-2.6,2.6-4.2,4.8-4.2c1.8,0,3.6,0.5,3.7,0.8
			c0.1,0.3,0.1,0.6,0.1,2c0,0.5-0.2,0.6-0.5,0.6c-1.2,0-1.5-2.6-3.5-2.6c-1,0-1.5,0.7-1.5,1.5c0,2.5,6.4,1.8,6.4,6
			c0,3.1-3.1,4.7-5.9,4.7c-1.7,0-2.7-0.5-3.2-0.8c-0.1-0.1-0.2-0.2-0.2-3c0-0.5,0.2-0.7,0.5-0.7
			C150.7,631.5,150.5,634.9,153.3,634.9z"/>
		<path fill="#003263" d="M166.1,623.2c0.2,0,0.4,0.1,0.4,0.5c0,0.5-0.1,0.7-0.3,0.7h-1.7c-0.2,0-0.5,0.1-0.5,0.4v7.3
			c0,1.3,0.5,1.8,1.1,1.8c0.9,0,0.8-0.9,1.2-0.9c0.2,0,0.3,0.2,0.3,0.5c0,0.8-1.4,2.6-3.3,2.6c-2.1,0-2.9-1.4-2.9-4.1v-7.1
			c0-1-1.8-0.2-1.8-0.9c0-0.6,1-0.7,1.7-1.2c2.3-1.5,2.6-3.2,3.1-3.2c0.3,0,0.4,0,0.4,0.3l0.1,3c0,0.3,0.1,0.5,0.4,0.5H166.1z"/>
		<path fill="#003263" d="M167,629.4c0-3.6,2.6-6.6,6.1-6.6c3.5,0,6.1,2.9,6.1,6.6c0,3.6-2.6,6.6-6.1,6.6
			C169.6,635.9,167,633,167,629.4z M173.5,635.2c0.8,0,1.6-1.2,1.6-4.2c0-5-1-7.4-2.4-7.4c-1.1,0-1.7,1.8-1.7,4.2
			C171,632,171.8,635.2,173.5,635.2z"/>
		<path fill="#003263" d="M190.4,625.5c0,1-0.5,2.1-1.8,2.1c-2.1,0-1.2-2-2-2c-0.6,0-1.2,0.9-1.2,2.5v4.4c0,1.8,0.2,2.2,1.5,2.3
			c0.3,0,0.6,0.1,0.6,0.4c0,0.3-0.1,0.4-0.5,0.4c-0.6,0-1.2-0.1-3.4-0.1c-1.8,0-2.3,0.1-2.8,0.1c-0.3,0-0.5-0.2-0.5-0.5
			c0-0.8,1.7-0.1,1.7-1.8v-6.1c0-2.2-1.7-0.9-1.7-1.8c0-0.5,0.5-0.2,3.1-1.9c1-0.6,1.2-0.8,1.5-0.8c0.2,0,0.2,0.1,0.2,0.4v1.8
			c0,0.2,0.1,0.3,0.2,0.3c0.5,0,1-2.2,3-2.2C189.5,623,190.4,623.9,190.4,625.5z"/>
		<path fill="#003263" d="M195.5,640.2c-0.2,0.8-0.7,1.3-1.8,1.3c-1.2,0-1.5-0.3-1.5-1.1c0-1.7,0.2-1.8,1.2-2
			c1.7-0.2,2.1-0.7,2.1-2.3c0-0.5-4-11.2-4.3-11.6c-0.5-0.9-1.1-0.3-1.1-1c0-0.2,0.1-0.4,0.5-0.4c0.9,0,1.8,0.1,2.6,0.1
			c0.9,0,1.8-0.1,2.6-0.1c0.2,0,0.4,0.1,0.4,0.3c0,0.6-1.2,0.1-1.2,1.2c0,0.3,0.3,1,2.2,6.5h0.1c1.2-4.3,1.7-5.1,1.7-6.4
			c0-1.3-1.4-0.6-1.4-1.2c0-0.3,0.1-0.4,0.4-0.4c0.6,0,1.1,0.1,1.7,0.1c0.5,0,1.1-0.1,1.7-0.1c0.2,0,0.3,0,0.3,0.3
			c0,0.5-1.2,0-2.1,2.9L195.5,640.2z"/>
		<path fill="#003263" d="M220.1,622.5c0,0.7-0.2,0.8-0.8,0.8c-1,0-1.5-4.3-3.3-4.3c-1.3,0-3,2-3,8.2c0,5.2,1.4,7.9,3.3,7.9
			c1.2,0,1.7-1.1,2.1-2.3c0.8-2.4,0.5-2.9,1.4-2.9c0.4,0,0.7,0.2,0.7,1.1c0,0.8-0.1,2.4-0.2,3.3c-0.1,1.4-3,1.7-4.2,1.7
			c-5.1,0-7.6-4.1-7.6-8.8c0-5.6,3.4-9.1,7.6-9.1c1.4,0,3.8,0.3,3.9,1.1L220.1,622.5z"/>
		<path fill="#003263" d="M222,629.4c0-3.6,2.6-6.6,6.1-6.6c3.5,0,6.1,2.9,6.1,6.6c0,3.6-2.6,6.6-6.1,6.6
			C224.7,635.9,222,633,222,629.4z M228.6,635.2c0.8,0,1.6-1.2,1.6-4.2c0-5-1-7.4-2.4-7.4c-1.1,0-1.7,1.8-1.7,4.2
			C226.1,632,226.9,635.2,228.6,635.2z"/>
		<path fill="#003263" d="M246.5,633.9c0,1.1,1.1,0.5,1.1,1.2c0,0.3-0.3,0.4-0.7,0.4c-0.5,0-1.2-0.1-2.2-0.1c-1.6,0-2,0.1-2.2,0.1
			c-0.4,0-0.5-0.1-0.5-0.4c0-0.8,1.1-0.2,1.1-1.2v-7.5c0-1.4-0.4-1.9-1.3-1.9c-0.6,0-1.6,0.5-1.6,1.5v7.7c0,1,1,0.7,1,1.4
			c0,0.2-0.2,0.4-0.6,0.4c-0.6,0-1.5-0.1-2.3-0.1c-1,0-1.9,0.1-2.6,0.1c-0.5,0-0.7-0.1-0.7-0.4c0-0.9,1.6-0.2,1.6-1.2v-7.6
			c0-1.1-1.4-0.7-1.4-1.2c0-0.4,0.3-0.5,1.7-1.1c2.1-0.9,2.2-1.4,2.7-1.4c0.2,0,0.3,0.1,0.3,0.4v1c0,0.2,0,0.3,0.2,0.3
			c0.1,0,0.2-0.1,0.5-0.2c0.6-0.5,1.5-1.5,2.8-1.5c2.3,0,2.5,1.8,3.1,1.8c0.4,0,1.5-1.8,3.3-1.8c2.3,0,3.3,1.7,3.3,4v7
			c0,1.2,1.4,0.6,1.4,1.4c0,0.3-0.3,0.4-0.7,0.4c-0.5,0-1.2-0.1-2.5-0.1c-1.1,0-1.8,0.1-2.3,0.1c-0.3,0-0.5-0.1-0.5-0.4
			c0-0.8,1.1-0.2,1.1-1.2v-7.5c0-1.4-0.6-1.9-1.4-1.9c-0.9,0-1.5,0.7-1.5,1.2V633.9z"/>
		<path fill="#003263" d="M259.8,639.1c0,1.4,0.6,1.8,1.2,1.8c0.5,0,1,0.1,1,0.5c0,0.3-0.3,0.4-0.7,0.4c-1.3,0-2.6-0.1-3.9-0.1
			c-0.4,0-2.3,0.1-2.7,0.1c-0.2,0-0.4-0.2-0.4-0.4c0-0.7,1.9,0,1.9-1.7V627c0-2-1.5-1-1.5-1.7c0-0.3,0.7-0.5,1.7-0.8
			c1.5-0.5,2.9-1.6,3.1-1.6c0.2,0,0.2,0.1,0.2,0.5c0,0.9,0,1,0.2,1c0.2,0,0.6-0.4,1.1-0.8c0.5-0.4,1.2-0.8,2-0.8
			c3.2,0,4.4,3.6,4.4,6.8c0,2.9-2,6.4-5,6.4c-0.8,0-2-0.6-2.3-0.6c-0.1,0-0.3,0.1-0.3,0.4V639.1z M259.8,632.8
			c0,1.3,0.8,2.1,1.6,2.1c1.3,0,2-1.9,2-5.4c0-3.5-1.1-4.8-2.3-4.8c-0.6,0-1.3,0.4-1.3,1V632.8z"/>
		<path fill="#003263" d="M270.1,619.5c0-1.3-1.6-0.7-1.6-1.3c0-0.3,0.2-0.4,0.8-0.5c3.1-0.5,3.7-1.1,4.1-1.1c0.1,0,0.2,0.1,0.2,0.5
			v16.6c0,1.6,1.6,0.8,1.6,1.6c0,0.3-0.3,0.4-0.9,0.4c-0.8,0-1.4-0.1-2.8-0.1c-0.9,0-1.8,0.1-2.5,0.1c-0.4,0-0.7-0.1-0.7-0.4
			c0-0.7,1.6-0.2,1.6-1.2V619.5z"/>
		<path fill="#003263" d="M280.9,628.5c-0.4,0-0.5,0.2-0.5,1c0,2,1,4.5,3.4,4.5c0.9,0,1.5-0.4,1.9-0.8c0.6-0.7,0.7-1.2,1-1.2
			c0.2,0,0.4,0.1,0.4,0.4c0,0.5-0.5,1.5-1.2,2.2c-1.1,1-2.2,1.5-3.5,1.5c-3.5,0-5.9-2.9-5.9-6.6c0-3.6,2.2-6.6,6-6.6
			c3.3,0,4.8,2.4,4.8,4.6c0,0.8-0.2,1-1.5,1H280.9z M281.1,627.6c1.6,0,2.7-0.4,2.7-2.2c0-1-0.4-1.7-1.5-1.7c-1.2,0-2,1.6-2,3.2
			C280.4,627.4,280.6,627.6,281.1,627.6z"/>
		<path fill="#003263" d="M298.7,634.3c0.4,0.9,1.3,0.4,1.3,1c0,0.2-0.2,0.3-0.7,0.3c-1,0-1.9-0.1-2.7-0.1c-1.6,0-2.4,0.1-2.7,0.1
			c-0.2,0-0.5-0.1-0.5-0.4c0-0.5,1.1-0.3,1.1-1c0-0.5-0.7-1.7-1.1-2.6c-0.2-0.5-0.4-0.9-0.6-0.9c-0.2,0-0.4,0.5-0.6,1
			c-0.4,0.8-0.9,1.7-0.9,2.3c0,1,1,0.8,1,1.3c0,0.2-0.1,0.3-0.3,0.3c-0.5,0-1.2-0.1-2.3-0.1c-0.8,0-1.3,0.1-1.8,0.1
			c-0.2,0-0.4-0.1-0.4-0.3c0-0.7,1-0.1,2.2-1.3c0.5-0.6,2.4-3.7,2.4-4.3c0-0.6-2.8-5.1-3.1-5.5c-0.4-0.4-1.4-0.2-1.4-0.7
			c0-0.2,0.2-0.4,0.4-0.4c0.9,0,1.8,0.1,2.8,0.1c0.9,0,1.8-0.1,2.7-0.1c0.3,0,0.5,0.1,0.5,0.2c0,0.5-0.8,0.4-0.8,0.9
			c0,0.4,1.5,2.7,1.8,3.1c0.3-0.4,1.5-2.4,1.5-2.9c0-0.8-1.1-0.5-1.1-1c0-0.2,0.2-0.3,0.4-0.3c0.5,0,1.1,0.1,1.7,0.1
			c0.5,0,1.1-0.1,1.6-0.1c0.4,0,0.7,0.1,0.7,0.2c0,0.2-0.2,0.5-1,0.6c-1.2,0.2-3.1,3.7-3.1,4.6C295.5,628.9,298.3,633.5,298.7,634.3
			z"/>
	</g>
</g>
</svg>
