<?xml version="1.0" encoding="utf-8"?>
<!-- Generator: Adobe Illustrator 18.1.1, SVG Export Plug-In . SVG Version: 6.00 Build 0)  -->
<!DOCTYPE svg PUBLIC "-//W3C//DTD SVG 1.1//EN" "http://www.w3.org/Graphics/SVG/1.1/DTD/svg11.dtd">
<svg version="1.1" xmlns="http://www.w3.org/2000/svg" xmlns:xlink="http://www.w3.org/1999/xlink" x="0px" y="0px"
	 viewBox="0 0 1020 100" enable-background="new 0 0 1020 100" xml:space="preserve">
<line fill="none" stroke="#DEDDDD" stroke-width="3" stroke-miterlimit="10" x1="10" y1="0" x2="10" y2="100"/>
<line fill="none" stroke="#DEDDDD" stroke-width="3" stroke-miterlimit="10" x1="30" y1="100" x2="30" y2="50"/>
<line fill="none" stroke="#DEDDDD" stroke-width="3" stroke-miterlimit="10" x1="50" y1="100" x2="50" y2="50"/>
<line fill="none" stroke="#DEDDDD" stroke-width="3" stroke-miterlimit="10" x1="70" y1="100" x2="70" y2="50"/>
<line fill="none" stroke="#DEDDDD" stroke-width="3" stroke-miterlimit="10" x1="90" y1="100" x2="90" y2="50"/>
<line fill="none" stroke="#DEDDDD" stroke-width="3" stroke-miterlimit="10" x1="110" y1="100" x2="110" y2="50"/>
<line fill="none" stroke="#DEDDDD" stroke-width="3" stroke-miterlimit="10" x1="130" y1="100" x2="130" y2="50"/>
<line fill="none" stroke="#DEDDDD" stroke-width="3" stroke-miterlimit="10" x1="150" y1="100" x2="150" y2="50"/>
<line fill="none" stroke="#DEDDDD" stroke-width="3" stroke-miterlimit="10" x1="170" y1="100" x2="170" y2="50"/>
<line fill="none" stroke="#DEDDDD" stroke-width="3" stroke-miterlimit="10" x1="190" y1="100" x2="190" y2="50"/>
<line fill="none" stroke="#DEDDDD" stroke-width="3" stroke-miterlimit="10" x1="210" y1="0" x2="210" y2="100"/>
<line fill="none" stroke="#DEDDDD" stroke-width="3" stroke-miterlimit="10" x1="230" y1="100" x2="230" y2="50"/>
<line fill="none" stroke="#DEDDDD" stroke-width="3" stroke-miterlimit="10" x1="250" y1="100" x2="250" y2="50"/>
<line fill="none" stroke="#DEDDDD" stroke-width="3" stroke-miterlimit="10" x1="270" y1="100" x2="270" y2="50"/>
<line fill="none" stroke="#DEDDDD" stroke-width="3" stroke-miterlimit="10" x1="290" y1="100" x2="290" y2="50"/>
<line fill="none" stroke="#DEDDDD" stroke-width="3" stroke-miterlimit="10" x1="310" y1="100" x2="310" y2="50"/>
<line fill="none" stroke="#DEDDDD" stroke-width="3" stroke-miterlimit="10" x1="330" y1="100" x2="330" y2="50"/>
<line fill="none" stroke="#DEDDDD" stroke-width="3" stroke-miterlimit="10" x1="350" y1="100" x2="350" y2="50"/>
<line fill="none" stroke="#DEDDDD" stroke-width="3" stroke-miterlimit="10" x1="370" y1="100" x2="370" y2="50"/>
<line fill="none" stroke="#DEDDDD" stroke-width="3" stroke-miterlimit="10" x1="390" y1="100" x2="390" y2="50"/>
<line fill="none" stroke="#DEDDDD" stroke-width="3" stroke-miterlimit="10" x1="410" y1="0" x2="410" y2="100"/>
<line fill="none" stroke="#DEDDDD" stroke-width="3" stroke-miterlimit="10" x1="430" y1="100" x2="430" y2="50"/>
<line fill="none" stroke="#DEDDDD" stroke-width="3" stroke-miterlimit="10" x1="450" y1="100" x2="450" y2="50"/>
<line fill="none" stroke="#DEDDDD" stroke-width="3" stroke-miterlimit="10" x1="470" y1="100" x2="470" y2="50"/>
<line fill="none" stroke="#DEDDDD" stroke-width="3" stroke-miterlimit="10" x1="490" y1="100" x2="490" y2="50"/>
<line fill="none" stroke="#DEDDDD" stroke-width="3" stroke-miterlimit="10" x1="510" y1="100" x2="510" y2="50"/>
<line fill="none" stroke="#DEDDDD" stroke-width="3" stroke-miterlimit="10" x1="530" y1="100" x2="530" y2="50"/>
<line fill="none" stroke="#DEDDDD" stroke-width="3" stroke-miterlimit="10" x1="550" y1="100" x2="550" y2="50"/>
<line fill="none" stroke="#DEDDDD" stroke-width="3" stroke-miterlimit="10" x1="570" y1="100" x2="570" y2="50"/>
<line fill="none" stroke="#DEDDDD" stroke-width="3" stroke-miterlimit="10" x1="590" y1="100" x2="590" y2="50"/>
<line fill="none" stroke="#DEDDDD" stroke-width="3" stroke-miterlimit="10" x1="610" y1="0" x2="610" y2="100"/>
<line fill="none" stroke="#DEDDDD" stroke-width="3" stroke-miterlimit="10" x1="630" y1="100" x2="630" y2="50"/>
<line fill="none" stroke="#DEDDDD" stroke-width="3" stroke-miterlimit="10" x1="650" y1="100" x2="650" y2="50"/>
<line fill="none" stroke="#DEDDDD" stroke-width="3" stroke-miterlimit="10" x1="670" y1="100" x2="670" y2="50"/>
<line fill="none" stroke="#DEDDDD" stroke-width="3" stroke-miterlimit="10" x1="690" y1="100" x2="690" y2="50"/>
<line fill="none" stroke="#DEDDDD" stroke-width="3" stroke-miterlimit="10" x1="710" y1="100" x2="710" y2="50"/>
<line fill="none" stroke="#DEDDDD" stroke-width="3" stroke-miterlimit="10" x1="730" y1="100" x2="730" y2="50"/>
<line fill="none" stroke="#DEDDDD" stroke-width="3" stroke-miterlimit="10" x1="750" y1="100" x2="750" y2="50"/>
<line fill="none" stroke="#DEDDDD" stroke-width="3" stroke-miterlimit="10" x1="770" y1="100" x2="770" y2="50"/>
<line fill="none" stroke="#DEDDDD" stroke-width="3" stroke-miterlimit="10" x1="790" y1="100" x2="790" y2="50"/>
<line fill="none" stroke="#DEDDDD" stroke-width="3" stroke-miterlimit="10" x1="810" y1="0" x2="810" y2="100"/>
<line fill="none" stroke="#DEDDDD" stroke-width="3" stroke-miterlimit="10" x1="830" y1="100" x2="830" y2="50"/>
<line fill="none" stroke="#DEDDDD" stroke-width="3" stroke-miterlimit="10" x1="850" y1="100" x2="850" y2="50"/>
<line fill="none" stroke="#DEDDDD" stroke-width="3" stroke-miterlimit="10" x1="870" y1="100" x2="870" y2="50"/>
<line fill="none" stroke="#DEDDDD" stroke-width="3" stroke-miterlimit="10" x1="890" y1="100" x2="890" y2="50"/>
<line fill="none" stroke="#DEDDDD" stroke-width="3" stroke-miterlimit="10" x1="910" y1="100" x2="910" y2="50"/>
<line fill="none" stroke="#DEDDDD" stroke-width="3" stroke-miterlimit="10" x1="930" y1="100" x2="930" y2="50"/>
<line fill="none" stroke="#DEDDDD" stroke-width="3" stroke-miterlimit="10" x1="950" y1="100" x2="950" y2="50"/>
<line fill="none" stroke="#DEDDDD" stroke-width="3" stroke-miterlimit="10" x1="970" y1="100" x2="970" y2="50"/>
<line fill="none" stroke="#DEDDDD" stroke-width="3" stroke-miterlimit="10" x1="990" y1="100" x2="990" y2="50"/>
<line fill="none" stroke="#DEDDDD" stroke-width="3" stroke-miterlimit="10" x1="1010" y1="0" x2="1010" y2="100"/>
</svg>
