<?xml version="1.0" encoding="utf-8"?>
<!-- Generator: Adobe Illustrator 19.1.0, SVG Export Plug-In . SVG Version: 6.00 Build 0)  -->
<!DOCTYPE svg PUBLIC "-//W3C//DTD SVG 1.1//EN" "http://www.w3.org/Graphics/SVG/1.1/DTD/svg11.dtd">
<svg version="1.1" xmlns="http://www.w3.org/2000/svg" xmlns:xlink="http://www.w3.org/1999/xlink" x="0px" y="0px"
	 viewBox="0 0 81 19" enable-background="new 0 0 81 19" xml:space="preserve">
<circle fill="#d4625d" cx="40.5" cy="9.5" r="9.5"/>
<rect y="3" opacity="0.1" width="1" height="7"/>
<circle cx="0.5" cy="10.5" r="0.5"/>
<rect x="20" y="3" opacity="0.1" width="1" height="7"/>
<circle cx="20.5" cy="10.5" r="0.5"/>
<rect x="40" y="3" opacity="0.1" width="1" height="7"/>
<circle cx="40.5" cy="10.5" r="0.5"/>
<rect x="60" y="3" opacity="0.1" width="1" height="7"/>
<circle cx="60.5" cy="10.5" r="0.5"/>
<rect x="80" y="3" opacity="0.1" width="1" height="7"/>
<circle cx="80.5" cy="10.5" r="0.5"/>
<rect x="4" y="7" opacity="0.1" width="1" height="3"/>
<circle cx="4.5" cy="10.5" r="0.5"/>
<rect x="8" y="7" opacity="0.1" width="1" height="3"/>
<circle cx="8.5" cy="10.5" r="0.5"/>
<rect x="12" y="7" opacity="0.1" width="1" height="3"/>
<circle cx="12.5" cy="10.5" r="0.5"/>
<rect x="16" y="7" opacity="0.1" width="1" height="3"/>
<circle cx="16.5" cy="10.5" r="0.5"/>
<rect x="24" y="7" opacity="0.1" width="1" height="3"/>
<circle cx="24.5" cy="10.5" r="0.5"/>
<rect x="28" y="7" opacity="0.1" width="1" height="3"/>
<circle cx="28.5" cy="10.5" r="0.5"/>
<rect x="32" y="7" opacity="0.1" width="1" height="3"/>
<circle cx="32.5" cy="10.5" r="0.5"/>
<rect x="36" y="7" opacity="0.1" width="1" height="3"/>
<circle cx="36.5" cy="10.5" r="0.5"/>
<rect x="44" y="7" opacity="0.1" width="1" height="3"/>
<circle cx="44.5" cy="10.5" r="0.5"/>
<rect x="48" y="7" opacity="0.1" width="1" height="3"/>
<circle cx="48.5" cy="10.5" r="0.5"/>
<rect x="52" y="7" opacity="0.1" width="1" height="3"/>
<circle cx="52.5" cy="10.5" r="0.5"/>
<rect x="56" y="7" opacity="0.1" width="1" height="3"/>
<circle cx="56.5" cy="10.5" r="0.5"/>
<rect x="64" y="7" opacity="0.1" width="1" height="3"/>
<circle cx="64.5" cy="10.5" r="0.5"/>
<rect x="68" y="7" opacity="0.1" width="1" height="3"/>
<circle cx="68.5" cy="10.5" r="0.5"/>
<rect x="72" y="7" opacity="0.1" width="1" height="3"/>
<circle cx="72.5" cy="10.5" r="0.5"/>
<rect x="76" y="7" opacity="0.1" width="1" height="3"/>
<circle cx="76.5" cy="10.5" r="0.5"/>
</svg>
