<svg class="icon" version="1.1" xmlns="http://www.w3.org/2000/svg" xmlns:xlink="http://www.w3.org/1999/xlink" x="0px" y="0px" viewBox="10 0 180 100" enable-background="new 0 0 380 120" xml:space="preserve">
	<path id="ticket-3" d="M190,36.6V10H10v26.6c10.4,1.9,18.2,11,18.2,21.9s-7.9,20-18.2,21.9v28.9h180V80.4
							c-10.4-1.9-18.2-11-18.2-21.9S179.6,38.5,190,36.6z M54.9,104.1h-4.8v-4.8h4.8V104.1z M54.9,94.8h-4.8V90h4.8V94.8z M54.9,85.4h-4.8
							v-4.8h4.8V85.4z M54.9,76.1h-4.8v-4.8h4.8V76.1z M54.9,66.7h-4.8v-4.8h4.8V66.7z M54.9,57.4h-4.8v-4.8h4.8V57.4z M54.9,48h-4.8v-4.8
							h4.8V48z M54.9,38.7h-4.8v-4.8h4.8V38.7z M54.9,29.4h-4.8v-4.8h4.8V29.4z M54.9,20h-4.8v-4.8h4.8V20z M119.2,88.1L100,78l-19.2,10
							l3.7-21.2L69,51.8l21.4-3.1l9.6-19.3l9.6,19.3l21.4,3.1l-15.5,15L119.2,88.1z M144.9,104.1h-4.8v-4.8h4.8V104.1z M144.9,94.8h-4.8
							V90h4.8V94.8z M144.9,85.4h-4.8v-4.8h4.8V85.4z M144.9,76.1h-4.8v-4.8h4.8V76.1z M144.9,66.7h-4.8v-4.8h4.8V66.7z M144.9,57.4h-4.8
							v-4.8h4.8V57.4z M144.9,48h-4.8v-4.8h4.8V48z M144.9,38.7h-4.8v-4.8h4.8V38.7z M144.9,29.4h-4.8v-4.8h4.8V29.4z M144.9,20h-4.8v-4.8
							h4.8V20z"/></svg>
