<?xml version="1.0" encoding="utf-8"?>
<!-- Generator: Adobe Illustrator 18.1.1, SVG Export Plug-In . SVG Version: 6.00 Build 0)  -->
<!DOCTYPE svg PUBLIC "-//W3C//DTD SVG 1.1//EN" "http://www.w3.org/Graphics/SVG/1.1/DTD/svg11.dtd">
<svg version="1.1" id="thor-color" xmlns="http://www.w3.org/2000/svg" xmlns:xlink="http://www.w3.org/1999/xlink" x="0px" y="0px"
	 viewBox="0 0 518.2 1284.1" enable-background="new 0 0 518.2 1284.1" xml:space="preserve">
<g>
	<defs>
		<path id="SVGID_1_" d="M440.3,1211l13.7-82.1l8.1-41.3l3-22.7l6.1-32.8c0,0,6.6-39.8,11.1-45.9s2.2-12.3,13-18.7
			c14-8.2,36-76.5,12.7-99.2c-11.4-0.8,2.6-98.3,0.5-122.4c-1.2-13.6-5.5-64.6-5.5-64.6s-3.5-43.3-3.5-41.8c0,1.5-0.5-4.5-0.5-4.5
			l-0.5-9.1l2.5-15.1l3-18.6v-23.2l-3.5-12.6l-5.6-36.3l-9.6-30.2l-8.6-24.2l-8.1-41.8c0,0-12.3-49.8-38.6-105.9
			c-39.5-84.6-83-170.1-185.7-174.8C155,152.4,99.7,245.4,64.4,348.2C26.5,458.9,9,568.4,9,568.4l1,41.3l-2,76.1l6,153L2.9,864.8
			c0,0-15.1,52.7,23.2,92.7c7.8,15.4,13.5,59.6,19.4,104.1c9.3,69,21.4,145.9,21.4,145.9l10.3,76.6h364L440.3,1211z"/>
	</defs>
	<clipPath id="SVGID_2_">
		<use xlink:href="#SVGID_1_"  overflow="visible"/>
	</clipPath>
	<g clip-path="url(#SVGID_2_)">
		
			<image overflow="visible" width="891" height="708" id="Layer_1_2_" xlink:href="379E22419D4279A3.png"  transform="matrix(0.75 0 0 0.75 -60.5935 0)">
		</image>
	</g>
	<g transform="matrix(1 0 0 1 0 0)" clip-path="url(#SVGID_2_)">
		
			<image overflow="visible" width="891" height="1125" id="gRFbft_2_" xlink:href="379E22419D4279A1.jpg"  transform="matrix(0.7517 0 0 0.7517 -61.7161 531.013)">
		</image>
	</g>
</g>
</svg>
