<svg version="1.1" xmlns="http://www.w3.org/2000/svg" xmlns:xlink="http://www.w3.org/1999/xlink">

    <!-- viewBox="0 0 98 32" -->
    <g id="arrowRight--large">
        <path class="icon-arrowRight--large" d="M82.2 0l15.8 16-15.8 16-2.8-3 11-11h-90.4v-4h90.4l-11-11.2z"></path>
    </g>

    <!-- viewBox="0 0 55 32" -->
    <g id="arrowRight--small">
        <path class="icon-arrowLeft--small" d="M39.612 2.036l14.642 13.964-14.642 13.964-2.569-2.532 10.189-9.718h-46.643v-3.43h46.643l-10.189-9.8 2.569-2.45z"></path>
    </g>

    <!-- viewBox="0 0 55 32" -->
    <g id="arrowLeft--small">
        <path class="icon-arrowLeft--small" d="M15.557 31.837l-15.557-14.837 15.557-14.837 2.729 2.69-10.826 10.325h49.559v3.644h-49.559l10.826 10.412-2.729 2.603z"></path>
    </g>

    <!-- viewBox="0 0 62 32" -->
    <g id="arrowDown">
        <path class="icon-arrowDown" d="M30.933 31.289l-30.044-26.489 3.556-4.089 26.489 23.467 27.022-23.467 3.378 4.089z"></path>
    </g>

    <!-- viewBox="0 0 19 19" -->
    <g id="closeBox">
        <path class="icon-close" d="M9.11833008,7.88779654 L16.6130095,0.393117094 L18.225213,2.00532055 L10.7305335,9.5 L18.225213,16.9946794 L16.6130095,18.6068829 L9.11833008,11.1122035 L1.62365063,18.6068829 L0.011447172,16.9946794 L7.50612662,9.5 L0.011447172,2.00532055 L1.62365063,0.393117094 L9.11833008,7.88779654 Z"></path>
    </g>

    <!--  viewBox="0 0 30 32" -->
    <g id="shareIcon">
        <path class="icon-share" d="M24.417 22.187c0.853 0 1.493 0.213 2.347 0.64 0.64 0.427 1.28 0.853 1.707 1.707s0.64 1.493 0.64 2.133c0 0.853-0.213 1.493-0.64 2.133s-1.067 1.28-1.707 1.707c-0.64 0.427-1.493 0.64-2.347 0.64s-1.493-0.213-2.347-0.64c-0.64-0.427-1.28-1.067-1.707-1.707s-0.64-1.493-0.64-2.133c0-0.427 0-0.853 0-1.067l-11.093-6.187c-0.853 0.853-1.92 1.28-3.2 1.28-0.853 0-1.707-0.213-2.347-0.64s-1.28-1.067-1.707-1.707-0.64-1.493-0.64-2.347c0-0.853 0.213-1.493 0.64-2.347 0.427-0.64 1.067-1.28 1.707-1.707s1.493-0.64 2.347-0.64c1.28 0 2.347 0.427 3.2 1.28l11.093-5.973c0-0.64 0-0.853 0-1.067 0-0.853 0.213-1.493 0.64-2.347s1.067-1.28 1.707-1.707 1.493-0.64 2.347-0.64c0.853 0 1.707 0.213 2.347 0.64s1.28 1.067 1.707 1.707 0.64 1.493 0.64 2.347-0.213 1.493-0.64 2.347c-0.427 0.64-1.067 1.28-1.707 1.707s-1.493 0.64-2.347 0.64c-1.067 0-2.347-0.427-3.2-1.28l-11.093 5.973c0 0.427 0.213 0.853 0.213 1.067s0 0.64-0.213 1.067l11.307 6.187c0.853-0.64 1.92-1.067 2.987-1.067v0z"></path>
    </g>

    <!-- viewBox="0 0 68 32" -->
    <g id="menuIcon">
        <path class="icon-menu" d="M66.987 6.4v-6.4h-65.707v6.4h65.707zM66.987 19.2v-6.4h-65.707v6.4h65.707zM66.987 32v-6.4h-65.707v6.4h65.707z"></path>
    </g>

    <!-- viewBox="0 0 61 34" -->
    <g id="ticketIcon">
        <path class="icon-ticket" d="M44.2 10.2v13.6h-27.2v-13.6h27.2zM46.58 6.8h-31.96c-0.51 0-1.020 0.51-1.020 1.020v18.36c0 0.51 0.51 1.020 1.020 1.020h31.96c0.51 0 1.020-0.51 1.020-1.020v-18.36c0-0.51-0.51-1.020-1.020-1.020v0zM59.5 34h-57.8c-1.020 0-1.7-0.68-1.7-1.7v-7.48c0-1.020 0.85-1.87 1.87-1.87 1.19 0 5.1-1.7 5.1-5.95s-4.25-5.78-5.1-5.78c-1.020 0.17-1.87-0.68-1.87-1.7v-7.82c0-1.020 0.68-1.7 1.7-1.7h57.8c1.020 0 1.7 0.68 1.7 1.7v7.99c0 1.020-0.68 1.7-1.7 1.7-1.19 0-5.1 1.7-5.1 5.95s4.25 5.78 5.1 5.78c1.020 0 1.7 0.68 1.7 1.7v7.48c0 1.020-0.68 1.7-1.7 1.7zM3.4 30.6h54.4v-4.42c-2.89-0.85-6.8-4.080-6.8-9.010 0-5.1 3.74-8.16 6.8-9.010v-4.76h-54.4v4.76c3.060 0.85 6.97 3.91 6.97 9.010 0 5.27-3.91 8.33-6.97 9.18v4.25z"></path>
    </g>

    <!-- viewBox="0 0 32 32" -->
    <g id="instagram">
        <path class="icon-instagram" d="M16 3c4.2 0 4.8 0 6.4 0s2.4 0.4 3 0.6c0.8 0.2 1.2 0.6 1.8 1.2s1 1 1.2 1.8c0.2 0.6 0.4 1.4 0.6 3 0 1.6 0 2.2 0 6.4s0 4.8 0 6.4c0 1.6-0.4 2.4-0.6 3-0.2 0.8-0.6 1.2-1.2 1.8s-1 1-1.8 1.2c-0.6 0.2-1.4 0.4-3 0.6-1.6 0-2.2 0-6.4 0s-4.8 0-6.4 0c-1.6 0-2.4-0.4-3-0.6-0.8-0.2-1.2-0.6-1.8-1.2s-1-1-1.2-1.8c-0.2-0.6-0.4-1.4-0.6-3 0-1.6 0-2.2 0-6.4s0-4.8 0-6.4c0-1.6 0.4-2.4 0.6-3 0.2-0.8 0.6-1.2 1.2-1.8s1-1 1.8-1.2c0.6-0.2 1.4-0.4 3-0.6 1.6 0 2.2 0 6.4 0zM16 0.2c-4.4 0-4.8 0-6.6 0s-2.8 0.4-3.8 0.8c-1 0.4-2 1-2.8 1.8s-1.4 1.8-1.8 2.8c-0.4 1-0.6 2.2-0.8 3.8 0 1.8 0 2.2 0 6.6s0 4.8 0 6.6 0.4 2.8 0.8 3.8c0.4 1 1 2 1.8 2.8s1.8 1.4 2.8 1.8c1 0.4 2.2 0.6 3.8 0.8 1.8 0 2.2 0 6.6 0s4.8 0 6.6 0 2.8-0.4 3.8-0.8c1-0.4 2-1 2.8-1.8s1.4-1.8 1.8-2.8c0.4-1 0.6-2.2 0.8-3.8 0-1.8 0-2.2 0-6.6s0-4.8 0-6.6-0.4-2.8-0.8-3.8c-0.4-1-1-2-1.8-2.8s-1.8-1.4-2.8-1.8c-1-0.4-2.2-0.6-3.8-0.8-1.8 0-2.2 0-6.6 0zM16 8c-4.6 0-8.2 3.6-8.2 8.2s3.6 8.2 8.2 8.2c4.6 0 8.2-3.6 8.2-8.2s-3.6-8.2-8.2-8.2v0zM16 21.6c-3 0-5.4-2.4-5.4-5.4s2.4-5.4 5.4-5.4 5.4 2.4 5.4 5.4-2.4 5.4-5.4 5.4v0zM26.4 7.6c0 1-0.8 2-2 2s-2-0.8-2-2 0.8-2 2-2 2 1 2 2z"></path>
    </g>

    <!-- viewBox="0 0 39 32" -->
    <g id="twitter">
        <path class="icon-twitter" fill="#1da1f2" d="M12.449 31.98c14.843 0 22.961-12.297 22.961-22.961 0-0.349 0-0.697-0.024-1.043 1.585-1.155 2.921-2.539 3.989-4.119-1.313 0.557-2.878 1.004-4.52 1.204 1.59-1.003 2.845-2.554 3.454-4.399-1.459 0.833-3.175 1.513-5.004 1.884-1.581-1.55-3.67-2.526-5.988-2.526-4.461 0-8.077 3.616-8.077 8.077 0 0.648 0.076 1.278 0.22 1.881-6.733-0.402-12.646-3.596-16.61-8.445-0.719 1.122-1.125 2.521-1.125 4.015 0 2.788 1.413 5.247 3.562 6.698-1.322-0.023-2.578-0.392-3.674-1.013 0.040 0.054 0.040 0.088 0.040 0.123 0.001 3.892 2.756 7.14 6.422 7.902-0.583 0.189-1.313 0.293-2.068 0.293-0.539 0-1.066-0.053-1.575-0.154 1.114 3.24 4.074 5.544 7.583 5.612-2.718 2.158-6.205 3.461-9.998 3.461-0.006 0-0.011 0-0.017 0-0.678-0.001-1.345-0.044-2-0.124 3.568 2.277 7.836 3.627 12.419 3.627 0.011 0 0.021 0 0.032 0z"></path>
    </g>

    <!-- viewBox="0 0 32 32" -->
    <g id="chatIcon">
        <path class="icon-chat" d="M6.4 32v-6.4h-3.2c-1.707 0-3.2-1.493-3.2-3.2v-19.2c0-1.707 1.493-3.2 3.2-3.2h25.6c1.707 0 3.2 1.493 3.2 3.2v19.2c0 1.707-1.493 3.2-3.2 3.2h-13.867l-8.533 6.4zM3.2 3.2v19.2h6.4v3.2l4.267-3.2h14.933v-19.2h-25.6z"></path>
    </g>

    <!-- viewBox="0 0 36 32" -->
    <g id="heartIcon">
        <path class="icon-heart" d="M33.493 2.773c-3.627-3.627-9.6-3.627-13.227 0l-2.133 2.347-2.133-2.347c-3.627-3.627-9.6-3.627-13.227 0s-3.627 9.813 0 13.44l2.133 2.347 13.227 13.44 13.227-13.44 2.133-2.347c3.627-3.627 3.627-9.6 0-13.44v0zM26.88 18.56l-8.747 8.96-8.747-8.96-4.48-4.48c-2.347-2.56-2.347-6.4 0-8.96s6.4-2.56 8.747 0l4.48 4.48 4.48-4.48c2.347-2.56 6.4-2.56 8.747 0s2.347 6.4 0 8.96l-4.48 4.48z"></path>
    </g>

    <!-- viewBox="0 0 63 72" -->
    <polygon id="play" style="fill:#ffffff;" points="0,0 0,72 63,36 "/>
</svg>
