<svg version="1.1" xmlns="http://www.w3.org/2000/svg" xmlns:xlink="http://www.w3.org/1999/xlink"

<!-- viewBox="0 0 174 32" -->
    <g id="logo--mqb">
        <path d="M7.096 5.704v1.252c0.417 0.417 0.974 1.113 1.67 1.948v0.417l-0.696 0.557c-0.974-0.696-1.948-1.53-2.783-2.643-0.557 0.417-0.974 0.835-1.252 1.252-0.696 0.835-1.113 1.252-1.391 1.252-0.139 0-0.417-0.139-0.835-0.417v-0.417c0.557-0.557 1.113-1.113 1.67-1.67v-1.67c-0.557-0.278-1.252-0.557-2.226-0.835-0.557-0.139-0.835-0.278-1.113-0.417v-0.696c0.139-0.139 0.278-0.139 0.417-0.278 0.696 0 1.948 0.139 3.757 0.278 0.278-0.696 0.417-1.391 0.417-1.948 0-0.278 0-0.696 0.139-1.113s0.278-0.696 0.696-0.557c0.417 0.278 0.696 0.696 0.696 1.252 0 0.278 0 0.417-0.139 0.696 0 0.417 0 0.974 0.139 1.53 0.557 0.139 0.974 0.139 1.391 0.139 0.139 0 0.696-0.139 1.391-0.278 0.278 0 0.417 0 0.417 0 0.278 0 0.696 0.139 1.113 0.417v0.417c-0.417 0.278-0.974 0.557-1.67 0.835-0.557 0.278-1.113 0.417-1.809 0.696zM37.287 31.722c-1.113 0-1.809-0.278-2.643-0.974l1.252-1.252c0.278 0.278 0.696 0.557 1.252 0.557 0.974 0 1.53-0.557 1.53-1.67v-6.678h1.948v6.817c0.278 1.948-1.53 3.2-3.339 3.2zM46.47 24.487l-1.252 3.617h2.504l-1.252-3.617zM48.835 31.583l-0.557-1.809h-3.617l-0.557 1.809h-2.087l3.617-10.017h1.53l3.617 10.017h-1.948zM55.513 31.722c-1.113 0-1.948-0.417-2.783-1.113-0.974-0.974-0.974-2.226-0.974-4.035s0-3.061 0.974-4.035c0.696-0.696 1.67-1.113 2.783-1.113 1.948 0 3.339 1.113 3.757 3.2h-1.948c-0.139-0.835-0.696-1.391-1.67-1.391-0.557 0-0.974 0.139-1.252 0.557-0.417 0.417-0.557 0.974-0.557 2.783 0 1.948 0.139 2.365 0.557 2.783 0.278 0.278 0.696 0.557 1.252 0.557 0.974 0 1.53-0.557 1.67-1.391h1.948c-0.417 2.087-1.948 3.2-3.757 3.2zM65.67 23.652c-0.278-0.278-0.696-0.557-1.252-0.557s-0.974 0.278-1.252 0.557c-0.417 0.417-0.417 0.835-0.417 2.783s0.139 2.365 0.417 2.783c0.278 0.278 0.696 0.557 1.252 0.557 0.278 0 0.417 0 0.696-0.139l-0.835-0.835 1.113-0.974 0.696 0.696c0.139-0.417 0.139-0.974 0.139-2.087 0-1.809-0.139-2.365-0.557-2.783v0 0zM67.339 32l-0.835-0.835c-0.557 0.417-1.252 0.557-2.087 0.557-1.113 0-2.087-0.417-2.783-1.113-0.974-0.974-0.974-2.226-0.974-4.035s0-3.061 0.974-4.035c0.696-0.696 1.53-1.113 2.783-1.113 1.113 0 1.948 0.417 2.783 1.113 0.974 0.974 0.974 2.226 0.974 4.035 0 1.53 0 2.643-0.557 3.617l0.835 0.835-1.113 0.974zM73.878 31.722c-2.087 0-3.757-1.391-3.757-3.478v-6.678h1.948v6.539c0 1.113 0.696 1.809 1.809 1.809s1.809-0.696 1.809-1.809v-6.539h1.948v6.678c-0.139 1.948-1.809 3.478-3.757 3.478zM79.861 31.583v-10.017h6.678v1.809h-4.73v2.365h4.035v1.809h-4.035v2.504h4.73v1.809h-6.678zM91.409 31.722c-1.53 0-2.643-0.278-3.617-1.391l1.252-1.252c0.696 0.696 1.53 0.835 2.504 0.835 1.113 0 1.809-0.417 1.809-1.252 0-0.417-0.139-0.696-0.278-0.835s-0.417-0.278-0.835-0.417l-1.252-0.139c-0.835-0.139-1.53-0.417-1.948-0.835s-0.696-1.113-0.696-1.948c0-1.809 1.391-3.061 3.478-3.061 1.391 0 2.365 0.278 3.2 1.113l-1.252 1.252c-0.696-0.557-1.391-0.696-2.087-0.696-1.113 0-1.53 0.557-1.53 1.252 0 0.278 0.139 0.557 0.278 0.696s0.557 0.278 0.974 0.417l1.252 0.139c0.974 0.139 1.53 0.417 1.948 0.835 0.557 0.557 0.835 1.252 0.835 2.087-0.417 2.087-1.948 3.2-4.035 3.2zM103.93 31.722c-1.113 0-1.948-0.417-2.783-1.113-0.974-0.974-0.974-2.226-0.974-4.035s0-3.061 0.974-4.035c0.696-0.696 1.67-1.113 2.783-1.113 1.948 0 3.339 1.113 3.757 3.2h-1.948c-0.139-0.835-0.696-1.391-1.67-1.391-0.557 0-0.974 0.139-1.252 0.557-0.417 0.417-0.557 0.974-0.557 2.783 0 1.948 0.139 2.365 0.557 2.783 0.278 0.278 0.696 0.557 1.252 0.557 0.974 0 1.53-0.557 1.67-1.391h1.948c-0.417 2.087-1.948 3.2-3.757 3.2zM114.783 31.583v-4.174h-3.478v4.174h-1.948v-10.017h1.948v4.174h3.478v-4.174h1.948v10.017h-1.948zM119.235 31.583h1.948v-10.017h-1.948v10.017zM127.583 23.235h-1.809v2.643h1.809c0.835 0 1.391-0.557 1.391-1.391s-0.557-1.252-1.391-1.252v0 0zM129.113 31.583l-1.948-4.035h-1.391v4.035h-1.948v-10.017h3.896c2.087 0 3.339 1.391 3.339 3.061 0 1.391-0.835 2.226-1.809 2.643l2.226 4.313h-2.365zM136.487 24.487l-1.252 3.617h2.504l-1.252-3.617zM138.852 31.583l-0.557-1.809h-3.617l-0.557 1.809h-2.087l3.617-10.017h1.53l3.617 10.017h-1.948zM145.53 31.722c-1.113 0-1.948-0.417-2.783-1.113-0.974-0.974-0.974-2.226-0.974-4.035s0-3.061 0.974-4.035c0.696-0.696 1.67-1.113 2.783-1.113 1.948 0 3.339 1.113 3.757 3.2h-1.948c-0.139-0.835-0.696-1.391-1.67-1.391-0.557 0-0.974 0.139-1.252 0.557-0.417 0.417-0.557 0.974-0.557 2.783 0 1.948 0.139 2.365 0.557 2.783 0.278 0.278 0.696 0.557 1.252 0.557 0.974 0 1.53-0.557 1.67-1.391h1.948c-0.417 2.087-1.809 3.2-3.757 3.2zM19.478 17.113v-7.652l-2.783 6.122h-0.974l-2.783-6.122v7.652h-1.113v-10.157h1.113l3.339 7.096 3.2-7.096h1.113v10.017h-1.113zM26.991 17.113c-2.087 0-3.478-1.391-3.478-3.478v-6.678h1.113v6.678c0 1.53 0.974 2.504 2.504 2.504s2.504-0.974 2.504-2.504v-6.678h1.113v6.678c-0.278 2.087-1.67 3.478-3.757 3.478zM36.035 17.113c-1.53 0-2.504-0.417-3.478-1.391l0.696-0.696c0.835 0.835 1.67 1.113 2.783 1.113 1.53 0 2.365-0.696 2.365-1.809 0-0.557-0.139-0.974-0.417-1.252s-0.557-0.417-1.252-0.417l-1.113-0.139c-0.835-0.139-1.391-0.417-1.809-0.696-0.557-0.417-0.696-1.113-0.696-1.948 0-1.67 1.252-2.783 3.2-2.783 1.252 0 2.087 0.278 3.061 1.113l-0.696 0.696c-0.557-0.557-1.252-0.835-2.365-0.835-1.391 0-2.087 0.696-2.087 1.809 0 0.557 0.139 0.835 0.417 1.113s0.835 0.417 1.391 0.557l1.113 0.139c0.974 0.139 1.391 0.278 1.809 0.696 0.557 0.417 0.835 1.113 0.835 1.948-0.278 1.809-1.67 2.783-3.757 2.783zM45.078 5.983h-0.974l1.252-2.226h1.252l-1.53 2.226zM41.878 17.113v-10.157h6.261v0.974h-5.148v3.617h4.452v0.974h-4.452v3.617h5.148v0.974h-6.261zM50.504 17.113v-10.157h6.261v0.974h-5.148v3.617h4.452v0.974h-4.452v3.617h5.148v0.974h-6.261zM68.174 8.765c-0.557-0.557-1.252-0.696-1.948-0.696h-2.226v8.209h2.226c0.835 0 1.391-0.139 1.948-0.696 0.696-0.696 0.696-2.226 0.696-3.478s0-2.643-0.696-3.339v0 0zM68.87 16.139c-0.557 0.557-1.53 0.974-2.504 0.974h-3.478v-10.157h3.478c1.113 0 1.948 0.278 2.504 0.974 1.113 1.113 0.974 2.643 0.974 4.035s0 3.2-0.974 4.174v0 0zM75.965 17.113c-2.087 0-3.478-1.391-3.478-3.478v-6.678h1.113v6.678c0 1.53 0.974 2.504 2.504 2.504s2.504-0.974 2.504-2.504v-6.678h1.113v6.678c-0.278 2.087-1.809 3.478-3.757 3.478zM90.435 9.183c-0.278-0.278-0.696-0.557-1.252-0.557s-0.974 0.278-1.252 0.557c-0.417 0.417-0.417 0.835-0.417 2.783s0.139 2.365 0.417 2.783c0.278 0.278 0.696 0.557 1.252 0.557 0.278 0 0.417 0 0.696-0.139l-0.835-0.835 1.113-0.974 0.696 0.696c0.139-0.417 0.139-0.974 0.139-2.087-0.139-1.809-0.278-2.365-0.557-2.783v0 0zM92.104 17.53l-0.835-0.835c-0.557 0.417-1.252 0.557-2.087 0.557-1.113 0-2.087-0.417-2.783-1.113-0.974-0.974-0.974-2.226-0.974-4.035s0-3.061 0.974-4.035c0.696-0.696 1.53-1.113 2.783-1.113 1.113 0 1.948 0.417 2.783 1.113 0.974 0.974 0.974 2.226 0.974 4.035 0 1.53 0 2.643-0.557 3.617l0.835 0.835-1.113 0.974zM98.504 17.113c-2.087 0-3.757-1.391-3.757-3.478v-6.678h1.948v6.539c0 1.113 0.696 1.809 1.809 1.809s1.809-0.696 1.809-1.809v-6.539h1.948v6.678c0 2.087-1.67 3.478-3.757 3.478zM107.965 10.017l-1.252 3.617h2.504l-1.252-3.617zM110.33 17.113l-0.557-1.809h-3.617l-0.557 1.809h-2.087l3.617-10.017h1.53l3.617 10.017h-1.948zM113.809 17.113h1.948v-10.157h-1.948v10.157zM125.635 12.8h-2.087v2.504h2.087c0.835 0 1.252-0.557 1.252-1.252 0.139-0.696-0.278-1.252-1.252-1.252v0 0zM125.496 8.765h-1.948v2.365h1.948c0.835 0 1.252-0.417 1.252-1.113 0.139-0.835-0.417-1.252-1.252-1.252v0 0zM125.913 17.113h-4.174v-10.157h4.035c1.948 0 3.061 1.113 3.061 2.783 0 1.113-0.696 1.809-1.252 2.087 0.557 0.278 1.391 0.974 1.391 2.226 0 1.948-1.252 3.061-3.061 3.061v0 0zM134.957 8.765h-1.809v2.643h1.809c0.835 0 1.391-0.557 1.391-1.391 0-0.696-0.557-1.252-1.391-1.252v0 0zM136.487 17.113l-1.948-4.035h-1.391v4.035h-1.948v-10.157h3.896c2.087 0 3.339 1.391 3.339 3.061 0 1.391-0.835 2.226-1.809 2.643l2.226 4.313h-2.365v0.139zM143.861 10.017l-1.252 3.617h2.504l-1.252-3.617zM146.226 17.113l-0.557-1.809h-3.617l-0.557 1.809h-2.087l3.617-10.017h1.53l3.617 10.017h-1.948zM155.687 17.113l-4.035-6.122v6.122h-1.948v-10.157h1.809l4.035 6.122v-6.122h1.948v10.017h-1.809zM159.861 17.113v-10.157h1.948v8.348h4.591v1.809h-6.539zM170.852 12.939v4.174h-1.948v-4.174l-3.061-5.983h2.087l1.948 4.035 1.809-4.035h2.087l-2.922 5.983z"></path>
    </g>

    <!-- viewBox="0 0 240 32" -->
    <g id="logo--tattoo">
        <path d="M220 31.2c-10.4-0.32-16.16-7.040-16.16-15.36 0-9.28 7.68-14.4 14.72-15.040v0.32c-0.64 0.16-1.92 0.48-2.72 0.96-2.88 1.76-4.48 5.6-4.48 13.12 0 7.2 1.6 12.64 5.76 14.72 0.96 0.48 1.92 0.8 2.88 0.8v0.48zM220.48 0.8c10.4 0.32 16.16 7.040 16.16 15.36 0 9.28-7.68 14.4-14.72 15.040v-0.32c0.64-0.16 1.92-0.48 2.72-0.96 2.88-1.76 4.64-5.6 4.64-13.12 0-7.2-1.6-12.64-5.76-14.72-0.96-0.48-1.92-0.8-2.88-0.8l-0.16-0.48zM175.040 31.2c-10.4-0.32-16.16-7.040-16.16-15.36 0-9.28 7.68-14.4 14.72-15.040v0.32c-0.64 0.16-1.92 0.48-2.72 0.96-2.88 1.92-4.48 5.6-4.48 13.28 0 7.2 1.6 12.64 5.76 14.72 0.96 0.48 1.92 0.8 2.88 0.8v0.32zM175.36 0.8c10.4 0.32 16.16 7.040 16.16 15.36 0 9.28-7.68 14.4-14.72 15.040v-0.32c0.64-0.16 1.92-0.48 2.72-0.96 2.88-1.76 4.64-5.6 4.64-13.12 0-7.2-1.6-12.64-5.76-14.72-0.96-0.48-1.92-0.8-2.88-0.8l-0.16-0.48zM127.040 1.44c-1.6 0.32-2.88 0.96-4.32 2.080-2.080 1.6-3.52 4-4.48 7.2h-0.48l0.32-9.6h8.96v0.32zM135.68 24.96c0 4 0.96 5.12 4 5.44v0.32h-14.72v-0.32c2.88-0.48 4-1.44 4-5.44v-23.84h6.88l-0.16 23.84zM137.44 1.12h8.96l0.32 9.6h-0.48c-0.8-3.2-2.24-5.6-4.32-7.2-1.6-1.12-2.88-1.76-4.48-2.080v-0.32zM85.92 1.44c-1.6 0.32-2.88 0.96-4.32 2.080-2.080 1.6-3.52 4-4.48 7.2h-0.32l0.32-9.6h8.8v0.32zM94.56 24.96c0 4 0.96 5.12 4 5.44v0.32h-14.72v-0.32c2.88-0.48 4-1.44 4-5.44v-23.84h6.88l-0.16 23.84zM96.32 1.12h8.96l0.32 9.6h-0.48c-0.8-3.2-2.24-5.6-4.32-7.2-1.6-1.12-2.88-1.76-4.48-2.080v-0.32zM38.72 30.88v-0.32c1.6-0.16 3.040-0.96 4.16-2.24 1.44-1.44 2.080-2.88 2.88-4.96l0.32 0.16c-0.16 0.96-0.32 2.080-0.32 3.040 0 2.24 1.44 3.52 4 3.84v0.32l-11.040 0.16zM55.68 19.68h-8.48l0.48-1.44h7.52l-3.68-10.080 2.88-7.36h1.44l9.44 24.32c1.44 3.68 3.2 5.12 5.44 5.44v0.32h-15.52v-0.32c2.080-0.16 3.2-0.8 3.2-2.56 0-0.96-0.48-2.24-0.96-3.84l-1.76-4.48zM12.8 1.44c-1.6 0.32-2.88 0.96-4.48 2.080-2.080 1.6-3.52 4-4.48 7.2h-0.32l0.32-9.6h8.96v0.32zM21.28 24.96c0 4 0.96 5.12 4 5.44v0.32h-14.72v-0.32c2.88-0.48 4-1.44 4-5.44v-23.84h6.88l-0.16 23.84zM23.2 1.12h8.8l0.32 9.6h-0.32c-0.8-3.040-2.24-5.6-4.32-7.2-1.6-1.12-2.88-1.76-4.48-2.080v-0.32z"></path>
    </g>
</svg>
