<svg height='0' width='0' style='position:absolute;margin-left: -100%;'>
  <path id='twitter' d='M444.359,230.913c28.082-2.317,47.125-15.083,54.461-32.406
    c-10.136,6.223-41.58,13.004-58.941,6.543c-0.857-4.08-1.802-7.953-2.734-11.453c-13.237-48.589-58.541-87.734-106.012-83.008
    c3.842-1.551,7.736-2.995,11.622-4.292c5.218-1.872,35.882-6.863,31.054-17.681c-4.08-9.516-41.526,7.193-48.578,9.38
    c9.31-3.5,24.707-9.521,26.355-20.22c-14.269,1.953-28.266,8.702-39.084,18.506c3.906-4.204,6.869-9.326,7.497-14.843
    c-38.054,24.3-60.274,73.296-78.254,120.828c-14.128-13.683-26.639-24.463-37.869-30.448c-31.5-16.895-69.163-34.516-128.288-56.467
    c-1.813,19.563,9.678,45.573,42.773,62.869c-7.172-0.96-20.28,1.183-30.773,3.694c4.275,22.412,18.218,40.875,56.002,49.799
    c-17.265,1.139-26.184,5.067-34.267,13.531c7.855,15.583,27.039,33.931,61.545,30.16c-38.357,16.537-15.636,47.168,15.581,42.596
    C133.193,373.014,49.221,368.979,1,322.965C126.901,494.516,400.566,424.42,441.344,259.18
    c30.555,0.261,48.523-10.586,59.656-22.538C483.401,239.631,457.891,236.545,444.359,230.913z'/>
  <path id='facebook' d='M195.266,123.188c0,10.431,0,56.997,0,56.997h-41.758v69.698h41.758v207.109h85.779V249.883
    h57.561c0,0,5.391-33.417,8-69.96c-7.492,0-65.236,0-65.236,0s0-40.549,0-47.653c0-7.12,9.352-16.702,18.597-16.702
    c9.226,0,28.703,0,46.734,0c0-9.491,0-42.279,0-72.559c-24.077,0-51.466,0-63.544,0C193.145,43.008,195.266,112.771,195.266,123.188
    z'/>
  <path id="googlePlus" d="M310.454,43.008H198.423c-29.36,0-66.338,4.334-97.324,29.852
    c-23.413,20.118-34.805,47.802-34.805,72.804c0,42.369,32.63,85.308,90.272,85.308c5.435,0,11.391-0.548,17.419-1.078
    c-2.722,6.496-5.471,11.931-5.471,21.185c0,16.845,8.706,27.149,16.315,36.933c-24.445,1.617-70.138,4.331-103.873,24.967
    c-32.083,19.051-41.893,46.736-41.893,66.303c0,40.204,38.083,77.712,116.945,77.712c93.542,0,143.044-51.613,143.044-102.715
    c0-37.449-21.759-55.952-45.684-76.05l-19.585-15.201c-5.956-4.9-14.114-11.4-14.114-23.367c0-11.944,8.158-19.567,15.21-26.626
    c22.828-17.919,45.684-36.936,45.684-77.137c0-41.302-26.125-63.036-38.622-73.352h33.735L310.454,43.008z M262.632,375.48
    c0,33.686-27.751,58.66-79.966,58.66c-58.181,0-95.716-27.711-95.716-66.261c0-38.601,34.813-51.604,46.762-55.953
    c22.856-7.618,52.215-8.696,57.103-8.696c5.444,0,8.167,0,12.532,0.529C244.691,333.093,262.632,347.782,262.632,375.48z
     M219.113,200.548c-8.706,8.676-23.403,15.201-37.004,15.201c-46.753,0-67.956-60.319-67.956-96.704
    c0-14.132,2.722-28.785,11.949-40.202c8.706-10.866,23.925-17.934,38.074-17.934c45.127,0,68.54,60.854,68.54,99.957
    C232.716,170.664,231.611,188.033,219.113,200.548z M397.147,230.129c-1.739,0-2.319,2.029-2.319,2.609v59.99
    c0,6.666-11.882,8.985-17.388,8.985c-3.771,0-6.378-1.739-6.378-7.245v-60.572c0-2.318-3.767-3.767-5.506-3.767l-55.355-0.29
    c-5.795,0-7.825-4.638-7.825-7.246c0-4.637,3.479-13.911,7.536-13.911l58.831-0.291c0.872,0,2.319-2.318,2.319-2.897v-58.543
    c0-4.058,12.752-7.245,17.39-7.245c3.478,0,6.956,2.897,6.956,7.535l-0.58,58.253c0,2.318,2.319,2.897,2.608,2.897l59.701,0.291
    c4.348,0,5.798,4.637,5.798,6.375c0,7.826-3.479,14.491-7.245,14.491L397.147,230.129z"/>
  <path id="search" d="M493.175,421.381l-3.02-3.02l0,0l-120.54-120.648c16.757-28.873,26.479-62.365,26.701-98.142
    C397.026,90.042,308.867,0.688,199.446,0c-0.443,0-0.887,0-1.331,0C89.293,0,0.714,87.957,0.004,197.041
    c-0.688,109.528,87.447,198.883,196.891,199.571c0.444,0,0.866,0,1.31,0c36.354,0,70.447-9.855,99.788-27.01l120.43,120.559
    l0.022-0.021l2.996,3.018c9.122,9.121,23.882,9.1,32.981,0l38.753-38.773C502.274,445.283,502.274,430.502,493.175,421.381z
     M192.233,340.904c-81.433-0.533-147.285-67.227-146.774-148.679c0.532-80.921,66.784-146.771,147.685-146.771h0.999
    c39.44,0.244,76.462,15.847,104.16,43.922c27.745,28.075,42.881,65.272,42.614,104.757c-0.266,39.283-15.758,76.171-43.612,103.847
    s-64.832,42.924-104.095,42.924H192.233z"/>
  <path id="bus" d="M475.693,268.979c0-15.08-1.133-39.67-2.443-54.692L459.838,52.086c-1.312-14.992-14.606-28.912-29.568-30.938
    c0,0-44.47-15.32-180.292-15.32c-135.824,0-180.293,15.32-180.293,15.32c-14.932,2.027-28.226,15.946-29.567,30.938L26.765,214.287
    c-1.371,15.021-2.444,39.612-2.444,54.692v148.64h35.021v37.257c0,21.698,17.615,39.283,39.283,39.283s39.284-17.585,39.284-39.283
    v-37.257h224.165v37.257c0,21.669,17.587,39.283,39.284,39.283c21.699,0,39.283-17.614,39.283-39.283v-37.257h35.052V268.979z
     M193.198,27.615h113.619c12.28,0,22.294,10.015,22.294,22.295c0,12.339-10.014,22.294-22.294,22.294H193.198
    c-12.339,0-22.324-9.955-22.324-22.294C170.874,37.63,180.858,27.615,193.198,27.615 M98.625,385.607
    c-17.973,0-32.577-14.575-32.577-32.548c0-17.972,14.604-32.518,32.577-32.518s32.547,14.546,32.547,32.518
    C131.173,371.032,116.598,385.607,98.625,385.607 M73.082,275.06v-12.429c0-11.803,0.835-31.117,1.908-42.83l10.492-100.027
    c1.013-11.773,11.564-21.4,23.397-21.4h282.257c11.803,0,22.324,9.627,23.396,21.4l10.492,100.027
    c1.043,11.713,1.907,31.027,1.907,42.83v12.429H73.082z M401.358,385.607c-17.973,0-32.547-14.575-32.547-32.548
    c0-17.972,14.574-32.518,32.547-32.518c18.002,0,32.548,14.546,32.548,32.518C433.906,371.032,419.36,385.607,401.358,385.607"/>
  <path id="car" d="M475.693,243.898c0-15.886-12.876-28.792-28.793-28.792h-13.412L395.874,95.557l-0.416-0.924
    c-5.723-13.531-15.529-23.874-26.886-31.503c-11.445-7.541-24.678-12.608-39.401-12.727H166.493
    c-14.694,0.119-27.988,5.186-39.418,12.727c-11.341,7.629-21.132,17.972-26.87,31.503l-0.417,0.954l-37.584,119.52h-9.076
    c-15.917,0-28.822,12.906-28.822,28.792v129.371h27.332v37.018c0,21.759,17.585,39.283,39.283,39.283s39.284-17.524,39.284-39.283
    v-37.018h238.25v37.018c0,21.698,17.584,39.283,39.283,39.283c21.697,0,39.284-17.585,39.284-39.283v-37.018h28.672V243.898z
     M407.737,257.758c18.003,0,32.547,14.545,32.547,32.531c0,18.003-14.544,32.549-32.547,32.549
    c-18.002,0-32.548-14.546-32.548-32.549C375.189,272.303,389.735,257.758,407.737,257.758 M141.709,110.996
    c1.521-3.188,5.291-7.629,10.104-10.759c5.171-3.547,11.251-5.305,14.679-5.216h162.678c3.426-0.089,9.537,1.669,14.663,5.216
    c4.858,3.13,8.614,7.571,10.134,10.759l32.757,104.11H108.923L141.709,110.996z M90.921,322.838
    c-17.988,0-32.577-14.546-32.577-32.549c0-17.986,14.589-32.531,32.577-32.531c17.973,0,32.533,14.545,32.533,32.531
    C123.454,308.292,108.894,322.838,90.921,322.838"/>
  <path id="train" d="M394.683,360.273V75.527c0,0-6.379-75.526-144.676-75.526c-138.356,0-144.675,75.467-144.675,75.467v284.806
    c0,15.915,11.982,28.791,26.766,28.791h58.09L108.67,500.001h45.334l14.217-19.314h165.717l14.069,19.314h45.243l-80.832-110.937
    h55.438C382.671,389.064,394.683,376.188,394.683,360.273 M195.046,444.145l14.545-19.789h83.306l14.426,19.789H195.046z
     M230.306,20.775h39.343c12.311,0,22.294,9.984,22.294,22.294s-9.983,22.294-22.294,22.294h-39.343
    c-12.31,0-22.265-9.985-22.265-22.294S217.996,20.775,230.306,20.775 M145.032,104.946c0-7.75,7.75-14.039,17.347-14.039h175.257
    c9.537,0,17.315,6.289,17.315,14.039v98c0,0-15.647,26.915-104.944,26.915c-89.326,0-104.975-26.944-104.975-26.944V104.946z
     M144.496,322.539c0-17.941,14.575-32.548,32.547-32.548s32.548,14.606,32.548,32.548c0,18.003-14.575,32.548-32.548,32.548
    S144.496,340.542,144.496,322.539 M325.415,355.087c-17.974,0-32.547-14.545-32.547-32.548c0-17.941,14.573-32.548,32.547-32.548
    c17.973,0,32.547,14.606,32.547,32.548C357.962,340.542,343.388,355.087,325.415,355.087"/>
  <path id="warning" d="M250,0 C111.92778,0 0,111.92778 0,250 C0,388.070897 111.92778,500 250,500 C388.070897,500 500,388.070897 500,250 C500,111.92778 388.070897,0 250,0 L250,0 Z M214.285714,333.333333 L285.714286,333.333333 L285.714286,404.761905 L214.285714,404.761905 L214.285714,333.333333 Z M285.714286,170.698882 L267.229031,309.52381 L233.225118,309.52381 L214.285714,170.698882 L214.285714,95.2380952 L285.714286,95.2380952 L285.714286,170.698882 L285.714286,170.698882 Z"/>
</svg>
