<?xml version="1.0" encoding="utf-8"?>
<!-- Generator: Adobe Illustrator 18.1.1, SVG Export Plug-In . SVG Version: 6.00 Build 0)  -->
<!DOCTYPE svg PUBLIC "-//W3C//DTD SVG 1.1//EN" "http://www.w3.org/Graphics/SVG/1.1/DTD/svg11.dtd">
<svg version="1.1" id="Layer_1" xmlns="http://www.w3.org/2000/svg" xmlns:xlink="http://www.w3.org/1999/xlink" x="0px" y="0px"
	 viewBox="242 0 124 175" enable-background="new 242 0 124 175" xml:space="preserve">
<linearGradient id="SVGID_1_" gradientUnits="userSpaceOnUse" x1="397" y1="-399" x2="397" y2="175" gradientTransform="matrix(0.2691 0 0 -0.2691 197.4174 47.1009)">
	<stop  offset=".25" style="stop-color:#000000;stop-opacity:0"/>
	<stop  offset="1" style="stop-color:#000000"/>
</linearGradient>
<rect x="211.7" y="0" fill="url(#SVGID_1_)" width="185.2" height="154.5"/>
<linearGradient id="SVGID_2_" gradientUnits="userSpaceOnUse" x1="304" y1="175" x2="304" y2="-10.3084">
	<stop  offset="0" style="stop-color:#161107;stop-opacity:.125"/>
	<stop  offset="0.66" style="stop-color:#161107"/>
</linearGradient>
<path fill="url(#SVGID_2_)" d="M304-10.3c-6.2,0-10.3,4.1-10.3,10.3s4.1,10.3,10.3,10.3S314.3,6.2,314.3,0S310.2-10.3,304-10.3z
	 M242.2,20.6c10.3,0,18.5,7.2,20.6,16.5c3.1-2.1,5.1-5.1,8.2-7.2c-4.1-11.3-15.4-19.6-28.8-19.6s-24.7,8.2-28.8,19.6
	c3.1,2,6.2,4.1,8.2,7.2C223.7,27.8,231.9,20.6,242.2,20.6z M242.2,30.9c-6.2,0-10.3,4.1-10.3,10.3s4.1,10.3,10.3,10.3
	s10.3-4.1,10.3-10.3S248.4,30.9,242.2,30.9z M242.2,0c17.5,0,31.9,10.3,38.1,25.7c3.1-2.1,6.2-3.1,9.3-3.1
	c-7.2-19.5-25.7-32.9-47.3-32.9s-40.2,13.4-47.3,32.9c3.1,0,6.2,1,9.3,3.1C210.3,10.3,224.7,0,242.2,0z M365.8,20.6
	c10.3,0,18.5,7.2,20.6,16.5c3.1-2.1,5.1-5.1,8.2-7.2c-4.1-11.3-15.4-19.6-28.8-19.6c-13.4,0-24.7,8.2-28.8,19.6
	c3.1,2,6.2,4.1,8.2,7.2C347.2,27.8,355.5,20.6,365.8,20.6z M365.8,30.9c-6.2,0-10.3,4.1-10.3,10.3s4.1,10.3,10.3,10.3
	c6.2,0,10.3-4.1,10.3-10.3S372,30.9,365.8,30.9z M365.8,0c17.5,0,31.9,10.3,38.1,25.7c3.1-1,6.2-2.1,9.3-3.1
	c-7.2-19.6-25.7-32.9-47.4-32.9s-40.1,13.4-47.3,33c3.1,0,6.2,1,9.3,3.1C333.8,10.3,348.3,0,365.8,0z M304,61.8
	c10.3,0,18.5,7.2,20.6,16.5c3.1-2,5.1-5.1,8.2-7.2c-4.1-11.3-15.4-19.6-28.8-19.6s-24.7,8.2-28.8,19.6c3.1,2,6.2,4.1,8.2,7.2
	C285.5,69,293.7,61.8,304,61.8z M304,72.1c-6.2,0-10.3,4.1-10.3,10.3c0,6.2,4.1,10.3,10.3,10.3s10.3-4.1,10.3-10.3
	S310.2,72.1,304,72.1z M304,41.2c17.5,0,31.9,10.3,38.1,25.7c3.1-1,6.2-2,9.3-3.1c-7.2-19.6-25.7-32.9-47.3-32.9
	s-40.2,13.4-47.3,32.9c3.1,0,6.2,1,9.3,3.1C272.1,51.5,286.5,41.2,304,41.2z M365.8,82.4c17.5,0,31.9,10.3,38.1,25.7
	c3.1-1,6.2-2,9.3-3.1c-7.2-19.6-25.7-32.9-47.4-32.9s-40.2,13.4-47.3,32.9c3.1,1,6.2,2,9.3,3.1C333.8,92.6,348.3,82.4,365.8,82.4z
	 M242.2,82.4c17.5,0,31.9,10.3,38.1,25.7c3.1-1,6.2-2,9.3-3.1c-7.2-19.6-25.7-32.9-47.3-32.9s-40.2,13.4-47.3,32.9
	c3.1,1,6.2,2.1,9.3,3.1C210.3,92.6,224.7,82.4,242.2,82.4z M242.2,102.9c10.3,0,18.5,7.2,20.6,16.5c3.1-2,5.1-5.1,8.2-7.2
	c-4.1-11.3-15.4-19.6-28.8-19.6s-24.7,8.2-28.8,19.6c3.1,2,6.2,4.1,8.2,7.2C223.7,110.2,231.9,102.9,242.2,102.9z M242.2,113.3
	c-6.2,0-10.3,4.1-10.3,10.3s4.1,10.3,10.3,10.3s10.3-4.1,10.3-10.3S248.4,113.3,242.2,113.3z M365.8,102.9
	c10.3,0,18.5,7.2,20.6,16.5c3.1-2,5.1-5.1,8.2-7.2c-4.1-11.3-15.4-19.6-28.8-19.6c-13.4,0-24.7,8.2-28.8,19.6c3.1,2,6.2,4.1,8.2,7.2
	C347.2,110.2,355.5,102.9,365.8,102.9z M365.8,113.3c-6.2,0-10.3,4.1-10.3,10.3s4.1,10.3,10.3,10.3c6.2,0,10.3-4.1,10.3-10.3
	S372,113.3,365.8,113.3z M304,144.1c10.3,0,18.5,7.2,20.6,16.5c3.1-2,5.1-5.1,8.2-7.2c-4.1-11.3-15.4-19.6-28.8-19.6
	s-24.7,8.2-28.8,19.6c3.1,2,6.2,4.1,8.2,7.2C285.5,151.3,293.7,144.1,304,144.1z M304,154.4c-6.2,0-10.3,4.1-10.3,10.3
	c0,6.2,4.1,10.3,10.3,10.3s10.3-4.1,10.3-10.3C314.3,158.6,310.2,154.4,304,154.4z M304,123.5c17.5,0,31.9,10.3,38.1,25.7
	c3.1-1,6.2-2,9.3-3.1c-7.2-19.6-25.7-32.9-47.3-32.9s-40.2,13.4-47.3,32.9c3.1,1,6.2,2.1,9.3,3.1C272.1,133.8,286.5,123.5,304,123.5
	z"/>
</svg>
