<?xml version="1.0" encoding="utf-8"?>
<!-- Generator: Adobe Illustrator 18.1.1, SVG Export Plug-In . SVG Version: 6.00 Build 0)  -->
<!DOCTYPE svg PUBLIC "-//W3C//DTD SVG 1.1//EN" "http://www.w3.org/Graphics/SVG/1.1/DTD/svg11.dtd">
<svg version="1.1" xmlns="http://www.w3.org/2000/svg" xmlns:xlink="http://www.w3.org/1999/xlink" x="0px" y="0px"
	 viewBox="0 0 12 8" enable-background="new 0 0 12 8" xml:space="preserve">
<circle fill="#161107" cx="6" cy="0" r="1"/>
<path fill="#161107" d="M0,2c1,0,1.8,0.7,2,1.6c0.3-0.2,0.5-0.5,0.8-0.7C2.4,1.8,1.3,1,0,1s-2.4,0.8-2.8,1.9C-2.5,3.1-2.2,3.3-2,3.6
	C-1.8,2.7-1,2,0,2z"/>
<circle fill="#161107" cx="0" cy="4" r="1"/>
<path fill="#161107" d="M0,0c1.7,0,3.1,1,3.7,2.5C4,2.3,4.3,2.2,4.6,2.2C3.9,0.3,2.1-1,0-1s-3.9,1.3-4.6,3.2C-4.3,2.2-4,2.3-3.7,2.5
	C-3.1,1-1.7,0,0,0z"/>
<path fill="#161107" d="M12,2c1,0,1.8,0.7,2,1.6c0.3-0.2,0.5-0.5,0.8-0.7C14.4,1.8,13.3,1,12,1S9.6,1.8,9.2,2.9
	C9.5,3.1,9.8,3.3,10,3.6C10.2,2.7,11,2,12,2z"/>
<circle fill="#161107" cx="12" cy="4" r="1"/>
<path fill="#161107" d="M12,0c1.7,0,3.1,1,3.7,2.5c0.3-0.1,0.6-0.2,0.9-0.3C15.9,0.3,14.1-1,12-1S8.1,0.3,7.4,2.2
	C7.7,2.2,8,2.3,8.3,2.5C8.9,1,10.3,0,12,0z"/>
<path fill="#161107" d="M6,6c1,0,1.8,0.7,2,1.6c0.3-0.2,0.5-0.5,0.8-0.7C8.4,5.8,7.3,5,6,5S3.6,5.8,3.2,6.9C3.5,7.1,3.8,7.3,4,7.6
	C4.2,6.7,5,6,6,6z"/>
<circle fill="#161107" cx="6" cy="8" r="1"/>
<path fill="#161107" d="M6,4c1.7,0,3.1,1,3.7,2.5c0.3-0.1,0.6-0.2,0.9-0.3C9.9,4.3,8.1,3,6,3S2.1,4.3,1.4,6.2C1.7,6.2,2,6.3,2.3,6.5
	C2.9,5,4.3,4,6,4z"/>
<path fill="#161107" d="M12,8c1.7,0,3.1,1,3.7,2.5c0.3-0.1,0.6-0.2,0.9-0.3C15.9,8.3,14.1,7,12,7s-3.9,1.3-4.6,3.2
	c0.3,0.1,0.6,0.2,0.9,0.3C8.9,9,10.3,8,12,8z"/>
<path fill="#161107" d="M0,8c1.7,0,3.1,1,3.7,2.5c0.3-0.1,0.6-0.2,0.9-0.3C3.9,8.3,2.1,7,0,7s-3.9,1.3-4.6,3.2
	c0.3,0.1,0.6,0.2,0.9,0.3C-3.1,9-1.7,8,0,8z"/>
</svg>
