<?xml version="1.0" encoding="utf-8"?>
<!-- Generator: Adobe Illustrator 18.1.1, SVG Export Plug-In . SVG Version: 6.00 Build 0)  -->
<!DOCTYPE svg PUBLIC "-//W3C//DTD SVG 1.1//EN" "http://www.w3.org/Graphics/SVG/1.1/DTD/svg11.dtd">
<svg version="1.1" xmlns="http://www.w3.org/2000/svg" xmlns:xlink="http://www.w3.org/1999/xlink" x="0px" y="0px"
	 viewBox="0 0 12 16" enable-background="new 0 0 12 16" xml:space="preserve">
<g id="Layer_3">
	<linearGradient id="SVGID_1_" gradientUnits="userSpaceOnUse" x1="6" y1="24" x2="6" y2="-8">
		<stop  offset="0.3333" style="stop-color:#100B07;stop-opacity:0"/>
		<stop  offset="0.75" style="stop-color:#161107"/>
	</linearGradient>
	<rect x="-4" y="-8" fill="url(#SVGID_1_)" width="20" height="32"/>
</g>
<g>
	<linearGradient id="SVGID_2_" gradientUnits="userSpaceOnUse" x1="6" y1="24" x2="6" y2="-8">
		<stop  offset="0.33" style="stop-color:#000000;stop-opacity:0"/>
		<stop  offset="0.6667" style="stop-color:#000000"/>
	</linearGradient>
	<path fill="url(#SVGID_2_)" d="M16,24H-4V-8h20V24z M6-1C5.4-1,5-0.6,5,0s0.4,1,1,1s1-0.4,1-1S6.6-1,6-1z M0,2c1,0,1.8,0.7,2,1.6
		c0.3-0.2,0.5-0.5,0.8-0.7C2.4,1.8,1.3,1,0,1s-2.4,0.8-2.8,1.9C-2.5,3.1-2.2,3.3-2,3.6C-1.8,2.7-1,2,0,2z M0,3c-0.6,0-1,0.4-1,1
		s0.4,1,1,1s1-0.4,1-1S0.6,3,0,3z M0,0c1.7,0,3.1,1,3.7,2.5C4,2.3,4.3,2.2,4.6,2.2C3.9,0.3,2.1-1,0-1s-3.9,1.3-4.6,3.2
		C-4.3,2.2-4,2.3-3.7,2.5C-3.1,1-1.7,0,0,0z M12,2c1,0,1.8,0.7,2,1.6c0.3-0.2,0.5-0.5,0.8-0.7C14.4,1.8,13.3,1,12,1S9.6,1.8,9.2,2.9
		C9.5,3.1,9.8,3.3,10,3.6C10.2,2.7,11,2,12,2z M12,3c-0.6,0-1,0.4-1,1s0.4,1,1,1s1-0.4,1-1S12.6,3,12,3z M12,0c1.7,0,3.1,1,3.7,2.5
		c0.3-0.1,0.6-0.2,0.9-0.3C15.9,0.3,14.1-1,12-1S8.1,0.3,7.4,2.2C7.7,2.2,8,2.3,8.3,2.5C8.9,1,10.3,0,12,0z M6,6c1,0,1.8,0.7,2,1.6
		c0.3-0.2,0.5-0.5,0.8-0.7C8.4,5.8,7.3,5,6,5S3.6,5.8,3.2,6.9C3.5,7.1,3.8,7.3,4,7.6C4.2,6.7,5,6,6,6z M6,7C5.4,7,5,7.4,5,8
		s0.4,1,1,1s1-0.4,1-1S6.6,7,6,7z M6,4c1.7,0,3.1,1,3.7,2.5c0.3-0.1,0.6-0.2,0.9-0.3C9.9,4.3,8.1,3,6,3S2.1,4.3,1.4,6.2
		C1.7,6.2,2,6.3,2.3,6.5C2.9,5,4.3,4,6,4z M12,8c1.7,0,3.1,1,3.7,2.5c0.3-0.1,0.6-0.2,0.9-0.3C15.9,8.3,14.1,7,12,7
		s-3.9,1.3-4.6,3.2c0.3,0.1,0.6,0.2,0.9,0.3C8.9,9,10.3,8,12,8z M0,8c1.7,0,3.1,1,3.7,2.5c0.3-0.1,0.6-0.2,0.9-0.3
		C3.9,8.3,2.1,7,0,7s-3.9,1.3-4.6,3.2c0.3,0.1,0.6,0.2,0.9,0.3C-3.1,9-1.7,8,0,8z M0,10c1,0,1.8,0.7,2,1.6c0.3-0.2,0.5-0.5,0.8-0.7
		C2.4,9.8,1.3,9,0,9s-2.4,0.8-2.8,1.9c0.3,0.2,0.6,0.4,0.8,0.7C-1.8,10.7-1,10,0,10z M0,11c-0.6,0-1,0.4-1,1s0.4,1,1,1s1-0.4,1-1
		S0.6,11,0,11z M12,10c1,0,1.8,0.7,2,1.6c0.3-0.2,0.5-0.5,0.8-0.7C14.4,9.8,13.3,9,12,9s-2.4,0.8-2.8,1.9c0.3,0.2,0.6,0.4,0.8,0.7
		C10.2,10.7,11,10,12,10z M12,11c-0.6,0-1,0.4-1,1s0.4,1,1,1s1-0.4,1-1S12.6,11,12,11z M6,14c1,0,1.8,0.7,2,1.6
		c0.3-0.2,0.5-0.5,0.8-0.7C8.4,13.8,7.3,13,6,13s-2.4,0.8-2.8,1.9c0.3,0.2,0.6,0.4,0.8,0.7C4.2,14.7,5,14,6,14z M6,15
		c-0.6,0-1,0.4-1,1c0,0.6,0.4,1,1,1s1-0.4,1-1C7,15.4,6.6,15,6,15z M6,12c1.7,0,3.1,1,3.7,2.5c0.3-0.1,0.6-0.2,0.9-0.3
		C9.9,12.3,8.1,11,6,11s-3.9,1.3-4.6,3.2c0.3,0.1,0.6,0.2,0.9,0.3C2.9,13,4.3,12,6,12z M12,16c1.7,0,3.1,1,3.7,2.5
		c0.3-0.1,0.6-0.2,0.9-0.3C15.9,16.3,14.1,15,12,15s-3.9,1.3-4.6,3.2c0.3,0.1,0.6,0.2,0.9,0.3C8.9,17,10.3,16,12,16z M0,16
		c1.7,0,3.1,1,3.7,2.5c0.3-0.1,0.6-0.2,0.9-0.3C3.9,16.3,2.1,15,0,15s-3.9,1.3-4.6,3.2c0.3,0.1,0.6,0.2,0.9,0.3C-3.1,17-1.7,16,0,16
		z"/>
</g>
</svg>
