<?xml version="1.0" encoding="utf-8"?>
<!-- Generator: Adobe Illustrator 18.1.1, SVG Export Plug-In . SVG Version: 6.00 Build 0)  -->
<!DOCTYPE svg PUBLIC "-//W3C//DTD SVG 1.1//EN" "http://www.w3.org/Graphics/SVG/1.1/DTD/svg11.dtd">
<svg version="1.1" xmlns="http://www.w3.org/2000/svg" xmlns:xlink="http://www.w3.org/1999/xlink" x="0px" y="0px"
	 viewBox="71.9 0 131.2 175" enable-background="new 71.9 0 131.2 175" xml:space="preserve">
<g id="Layer_3">
	
	<linearGradient id="SVGID_1_" gradientUnits="userSpaceOnUse" x1="6" y1="151" x2="6" y2="183" gradientTransform="matrix(10.9375 0 0 -10.9375 71.875 1914.0625)">
		<stop  offset="0.25" style="stop-color:#161107"/>
		<stop  offset="0.66" style="stop-color:#161107;stop-opacity:0"/>
	</linearGradient>
	<rect x="28.1" y="-87.5" fill="url(#SVGID_1_)" width="218.8" height="350"/>
</g>
<g>
	
		<linearGradient id="SVGID_2_" gradientUnits="userSpaceOnUse" x1="6" y1="151" x2="6" y2="183" gradientTransform="matrix(10.9375 0 0 -10.9375 71.875 1914.0625)">
		<stop  offset="0.33" style="stop-color:#000000"/>
		<stop  offset="0.75" style="stop-color:#000000;stop-opacity:0"/>
	</linearGradient>
	<path fill="url(#SVGID_2_)" d="M246.9,262.5H28.1v-350h218.8V262.5z M212-19.3L50.3-14.7l10.6,58.4c0,6.6,4.4,10.9,10.9,10.9
		c3.1,0,5.8-1,7.7-2.8c2.1-1.9,15-13.5,15-13.5s16.1-18,43-18s43,18,43,18s12.8,11.3,14.7,13.2c1.9,1.9,4.6,3,7.9,3
		c6.6,0,10.9-4.4,10.9-10.9L212-19.3z M137.5,65.6c10.9,0,19.7,7.7,21.9,17.5c3.3-2.2,5.5-5.5,8.8-7.7c-4.4-12-16.4-20.8-30.6-20.8
		s-26.2,8.8-30.6,20.8c3.3,2.2,6.6,4.4,8.8,7.7C117.8,73.3,126.6,65.6,137.5,65.6z M137.5,76.6c-6.6,0-10.9,4.4-10.9,10.9
		c0,6.6,4.4,10.9,10.9,10.9s10.9-4.4,10.9-10.9S144.1,76.6,137.5,76.6z M137.5,43.8c18.6,0,33.9,10.9,40.5,27.3
		c3.3-1.1,6.6-2.2,9.8-3.3c-7.7-20.8-27.3-35-50.3-35S94.8,47,87.2,67.8c3.3,0,6.6,1.1,9.8,3.3C103.6,54.7,118.9,43.8,137.5,43.8z
		 M203.1,87.5c18.6,0,33.9,10.9,40.5,27.3c3.3-1.1,6.6-2.2,9.8-3.3c-7.7-20.8-27.3-35-50.3-35s-42.7,14.2-50.3,35
		c3.3,1.1,6.6,2.2,9.8,3.3C169.2,98.4,184.5,87.5,203.1,87.5z M71.9,87.5c18.6,0,33.9,10.9,40.5,27.3c3.3-1.1,6.6-2.2,9.8-3.3
		c-7.7-20.8-27.3-35-50.3-35s-42.7,14.2-50.3,35c3.3,1.1,6.6,2.2,9.8,3.3C38,98.4,53.3,87.5,71.9,87.5z M71.9,109.4
		c10.9,0,19.7,7.7,21.9,17.5c3.3-2.2,5.5-5.5,8.8-7.7c-4.4-12-16.4-20.8-30.6-20.8s-26.2,8.8-30.6,20.8c3.3,2.2,6.6,4.4,8.8,7.7
		C52.2,117,60.9,109.4,71.9,109.4z M71.9,120.3c-6.6,0-10.9,4.4-10.9,10.9c0,6.6,4.4,10.9,10.9,10.9s10.9-4.4,10.9-10.9
		C82.8,124.7,78.4,120.3,71.9,120.3z M203.1,109.4c10.9,0,19.7,7.7,21.9,17.5c3.3-2.2,5.5-5.5,8.8-7.7c-4.4-12-16.4-20.8-30.6-20.8
		s-26.2,8.8-30.6,20.8c3.3,2.2,6.6,4.4,8.8,7.7C183.4,117,192.2,109.4,203.1,109.4z M203.1,120.3c-6.6,0-10.9,4.4-10.9,10.9
		c0,6.6,4.4,10.9,10.9,10.9s10.9-4.4,10.9-10.9C214.1,124.7,209.7,120.3,203.1,120.3z M137.5,153.1c10.9,0,19.7,7.7,21.9,17.5
		c3.3-2.2,5.5-5.5,8.8-7.7c-4.4-12-16.4-20.8-30.6-20.8s-26.2,8.8-30.6,20.8c3.3,2.2,6.6,4.4,8.8,7.7
		C117.8,160.8,126.6,153.1,137.5,153.1z M137.5,164.1c-6.6,0-10.9,4.4-10.9,10.9s4.4,10.9,10.9,10.9s10.9-4.4,10.9-10.9
		S144.1,164.1,137.5,164.1z M137.5,131.2c18.6,0,33.9,10.9,40.5,27.3c3.3-1.1,6.6-2.2,9.8-3.3c-7.7-20.8-27.3-35-50.3-35
		s-42.7,14.2-50.3,35c3.3,1.1,6.6,2.2,9.8,3.3C103.6,142.2,118.9,131.2,137.5,131.2z M203.1,175c18.6,0,33.9,10.9,40.5,27.3
		c3.3-1.1,6.6-2.2,9.8-3.3c-7.7-20.8-27.3-35-50.3-35s-42.7,14.2-50.3,35c3.3,1.1,6.6,2.2,9.8,3.3C169.2,185.9,184.5,175,203.1,175z
		 M71.9,175c18.6,0,33.9,10.9,40.5,27.3c3.3-1.1,6.6-2.2,9.8-3.3c-7.7-20.8-27.3-35-50.3-35s-42.7,14.2-50.3,35
		c3.3,1.1,6.6,2.2,9.8,3.3C38,185.9,53.3,175,71.9,175z"/>
</g>
</svg>
