<svg id="boa-logo__color" xmlns="http://www.w3.org/2000/svg" viewBox="0 0 360 72">
    <defs>
        <style>
            .a {
                fill: #2b59a8;
            }
            .b {
                fill: #2b72b9;
            }
            .c {
                fill: #c42032;
            }
            .d {
                fill: #e21d38;
            }
            .e {
                fill: none;
            }
            .f {
                fill: #232c65;
            }
            .g {
                fill: #0c1323;
            }
            .h {
                fill: #fff;
                fill-rule: evenodd;
            }
        </style>
    </defs>
    <!-- <title>boa__color-clock</title> -->
    <rect class="a" x="213.49" width="33.28" height="72"/>
    <path class="b" d="M246.77,72V0H243q-14.76,5.91-29.51,12.42V72h33.28Z"/>
    <rect class="c" width="213.49" height="72"/>
    <path class="d" d="M213.49,72H97.83A1138.55,1138.55,0,0,1,213.49,12.55V72ZM206.12,2.63Q202.89,1.31,199.59,0H49c29,10,60,21.43,89.18,33.16C161.55,21.78,182.9,12.1,206.12,2.63ZM59.53,15.14C42.12,22.08,21.74,31.34,0,42.24V72H65.46C85.15,60.57,105,49.78,124.34,40.1,102,31.15,77,21.43,59.53,15.14ZM16.36,0H0V29.63c16.1-7.31,31.65-13.84,46.09-19.3C37,7,26.62,3.46,16.36,0Z"/>
    <rect class="e" width="213.49" height="72"/>
    <rect class="f" x="246.77" width="26.5" height="72"/>
    <path class="a" d="M246.77,0V72H252q10.67-5.73,21.26-11.14V0h-26.5Z"/>
    <rect class="g" x="273.27" width="86.73" height="72"/>
    <path class="f" d="M360,72H286.45C310.86,58.58,335.51,46.19,360,35.15V72Zm0-72H273.27V60.86C303,45.66,332.19,32.37,360,21.32V0Z"/>
    <path class="h" d="M314.57,55.46a1.68,1.68,0,1,1,1.68,1.65,1.65,1.65,0,0,1-1.68-1.65m0.33,0a1.35,1.35,0,1,0,1.35-1.28,1.31,1.31,0,0,0-1.35,1.28m2.19,0.94h-0.32l-0.54-.86H315.9V56.4h-0.27V54.57h0.81a0.85,0.85,0,0,1,.45.08,0.45,0.45,0,0,1,.2.39,0.5,0.5,0,0,1-.59.5Zm-0.89-1.09c0.27,0,.62.06,0.62-0.29s-0.2-.25-0.44-0.25H315.9v0.54h0.3ZM103.6,36.56c5.92,0,8.84,4.35,8.84,10.21,0,6.1-2.81,10.35-8.84,10.35s-8.82-4.25-8.82-10.35c0-5.86,2.93-10.21,8.82-10.21m0,16.59c1.59,0,2.26-1.41,2.26-6.39,0-4.54-.46-6.21-2.26-6.21s-2.24,1.67-2.24,6.21c0,5,.69,6.39,2.24,6.39m12.93,3.55h6.33V41.55h3.44V37.1h-3.44v-2c0-1.2.59-1.86,2.27-1.86a5.34,5.34,0,0,1,1.17.17V28.57a23.51,23.51,0,0,0-3.23-.25c-4.16,0-6.55,1.77-6.55,6.58v2.2H114v4.45h2.57V56.7ZM42.7,42.55c0-1.17-.54-1.95-1.66-1.95-1.51,0-2,1.43-2,2.57L33.47,42c0.71-3.86,4.23-5.42,7.82-5.42,3.81,0,7.74,1.64,7.74,6V53.53c0,2.25.35,2.91,0.6,3.19H43.07c-0.11-.55-0.15-1.47-0.18-1.8a7,7,0,0,1-4.83,2.17,5.21,5.21,0,0,1-5.44-5.74c0.1-5.12,5.89-6.63,10.09-7.1v-1.7Zm0,4.74c-2.24.2-3.88,1-3.88,3.55a1.77,1.77,0,0,0,1.83,2.07,2.8,2.8,0,0,0,2-1.21V47.29Zm16.35-4.61a2.75,2.75,0,0,1,2.06-1.22c1.08,0,1.48.6,1.48,1.73V56.71h6.35V41.19c0-2.7-1.61-4.56-4.37-4.56A7.55,7.55,0,0,0,59,39.1H58.94l0-2H52.74V56.71h6.31v-14m13.78,14h6.33v-7l1.34-1.53h0.08l3.11,8.57h6.55L84.91,43.12l5.29-6H83.92L79.25,43H79.16V28.89H72.84V56.7Zm-47-14.47a7.2,7.2,0,0,1,5.21,7c0,4.76-3.81,7.45-9.11,7.45H11.2V28.89h11c4.92,0,8.15,2.94,8.15,6.78A6.71,6.71,0,0,1,25.85,42v0.21Zm-7.8,9.33h2.57A3.26,3.26,0,0,0,24.2,48a3.25,3.25,0,0,0-3.58-3.44H18.05v7Zm0-11.65h2.31c2.53,0,3.55-1.38,3.55-3,0-2.66-1.79-3.06-3.4-3.06H18.05v6.1Zm236.58,2.64c0-1.17-.52-1.95-1.63-1.95-1.52,0-2,1.43-2.08,2.57L245.42,42c0.68-3.86,4.21-5.42,7.81-5.42,3.8,0,7.73,1.64,7.73,6V53.53c0,2.25.38,2.91,0.61,3.19H255c-0.11-.55-0.15-1.47-0.2-1.8A7,7,0,0,1,250,57.09a5.22,5.22,0,0,1-5.46-5.74c0.14-5.12,5.91-6.63,10.08-7.1v-1.7Zm0,4.74c-2.2.2-3.87,1-3.87,3.55a1.79,1.79,0,0,0,1.84,2.07,2.69,2.69,0,0,0,2-1.21V47.29Zm-65.1,1c-0.08,1.73.38,4.63,2.94,4.63a3.24,3.24,0,0,0,3.13-2.67l4.25,1.54A8,8,0,0,1,192,57.11c-6.06,0-8.78-4.87-8.78-10.29s2.88-10.26,8.71-10.26c6.1,0,8.19,5.25,8.19,10.36v1.35H189.53Zm4.75-3.77c0.06-1.81-.2-3.93-2.38-3.93-1.8,0-2.46,2.1-2.36,3.93h4.75Zm22.93,12.22h6.35V37.1h-6.35V56.72Zm0-22.21h6.35V28.89h-6.35v5.61ZM243,44.35c0-2-1-7.79-7.75-7.79-6,0-8.94,5.36-8.94,10.73,0,4.85,3,9.82,8.67,9.82,4.6,0,7.33-2.47,7.81-7.25l-4.92-.69c0,1.49-.19,3.74-2.42,3.74-1.66,0-2.36-1.45-2.36-5.86,0-3.91.24-6.49,2.36-6.49a1.83,1.83,0,0,1,1.82,1.33,7.6,7.6,0,0,1,.31,2.46H243ZM137.32,28.89h9.22l5.95,27.82h-6.82l-1.09-5.62H138.1l-1.21,5.62h-6.11Zm1.75,17.26h4.5l-2-11.34h-0.16Zm63.67,10.56h6.33V44a4.35,4.35,0,0,1,3.48-1.52,6.22,6.22,0,0,1,2.57.55v-6.4A7,7,0,0,0,209,39.77h-0.09l-0.06-2.67h-6.14V56.72Zm-32.14-14a3.15,3.15,0,0,1,2.17-1.18c1.15,0,1.47.68,1.47,1.74V56.71h6.21V41.06A4.17,4.17,0,0,0,176,36.63a7.75,7.75,0,0,0-5.65,2.62h-0.07a4,4,0,0,0-3.83-2.62,8.46,8.46,0,0,0-5.67,2.47h-0.06l0-2h-6.17V56.71h6.21v-14a3,3,0,0,1,2.15-1.18c1.17,0,1.48.68,1.48,1.74V56.71h6.2v-14M300.35,25.3A153.85,153.85,0,0,0,278.09,36c2.47,1.13,4.92,2.31,7.33,3.57a163.35,163.35,0,0,1,22.3-11.09c-2.42-1.14-4.87-2.19-7.37-3.17m-9.2-3.24a126.64,126.64,0,0,0-23,9.89c2.31,0.85,4.65,1.74,6.92,2.7a132.34,132.34,0,0,1,22.37-10.48c-2.06-.74-4.13-1.47-6.25-2.11m26,2.92a137.86,137.86,0,0,0-19.59-7.65c-2.36.66-4.73,1.42-7,2.23a135.17,135.17,0,0,1,20.16,7.76c2.14-.81,4.3-1.58,6.47-2.33m10.26-3.07a146.76,146.76,0,0,0-19.93-7c-2.16.44-4.33,0.93-6.44,1.52a135.56,135.56,0,0,1,19.67,7.45c2.22-.7,4.46-1.33,6.71-1.94m16.52,5.55a173.41,173.41,0,0,0-45,23c3.41,2.09,6.77,4.33,10,6.69A182.74,182.74,0,0,1,351.6,31.84c-2.53-1.53-5.11-3-7.71-4.37m-11.12-5.28a158.33,158.33,0,0,0-46.9,21.08c3.2,1.57,6.36,3.27,9.45,5a164.26,164.26,0,0,1,46-22.15c-2.83-1.41-5.67-2.73-8.57-4"/>
</svg>
