<?xml version="1.0" encoding="utf-8"?>
<!-- Generator: Adobe Illustrator 19.2.0, SVG Export Plug-In . SVG Version: 6.00 Build 0)  -->
<!DOCTYPE svg PUBLIC "-//W3C//DTD SVG 1.1//EN" "http://www.w3.org/Graphics/SVG/1.1/DTD/svg11.dtd">
<svg version="1.1" id="Layer_1" xmlns:sketch="http://www.bohemiancoding.com/sketch/ns"
	 xmlns="http://www.w3.org/2000/svg" xmlns:xlink="http://www.w3.org/1999/xlink" x="0px" y="0px" viewBox="0 0 2640 200"
	 style="enable-background:new 0 0 2640 200;" xml:space="preserve">
<style type="text/css">
	.st0{fill:#FFFFFF;}
</style>
<title>brush-stroke</title>
<desc>Created with Sketch.</desc>
<g id="Page-1" sketch:type="MSPage">
	<g id="Shared-stories-Copy-3" transform="translate(0.000000, -1377.000000)" sketch:type="MSArtboardGroup">
		<g id="brush-stroke" transform="translate(-583.000000, 1367.000000)" sketch:type="MSLayerGroup">
			<path id="Fill-1" sketch:type="MSShapeGroup" class="st0" d="M2238.1,85.6C2238.1,85.6,2238.1,85.6,2238.1,85.6
				c-0.1,0-0.1-0.1-0.2-0.1L2238.1,85.6z"/>
			<path id="Fill-3" sketch:type="MSShapeGroup" class="st0" d="M2077.4,88.3c13.6-0.7,26.9,0.4,40.4,0.7c2.9,0.1,6.1-1.5,9.5-2.4
				c10.6,2.9,21,2.8,32-0.2c-1.8-0.7-2.9-1.5-3.9-1.5c-25.8,0.2-51.6,0.5-77.4,0.8c-1.2,0-2.3,0.7-3.8,1.2
				C2075.4,87.5,2076.6,88.4,2077.4,88.3"/>
			<path id="Fill-5" sketch:type="MSShapeGroup" class="st0" d="M1977.9,89.6c27-0.3,53.9-0.6,80.9-1c2.9,0,5.7-0.8,8.5-1.2
				c-0.2-0.5-0.4-1.1-0.6-1.6c-30,1.5-60.2,0.6-91.3,1.9C1977,88.9,1977.5,89.6,1977.9,89.6"/>
			<path id="Fill-7" sketch:type="MSShapeGroup" class="st0" d="M2238,85.6c0.1,0-0.1,0-0.1,0c0,0-0.1,0-0.1,0
				C2237.9,85.6,2237.9,85.6,2238,85.6"/>
			<path id="Fill-9" sketch:type="MSShapeGroup" class="st0" d="M2169.9,84.6c-1.2,0-2.1,1.1-3.6,2c25,1.7,48.3,0.3,71.5-1
				c-4.5-0.8-9-2.2-13.4-2.1C2206.2,83.6,2188.1,84.1,2169.9,84.6"/>
			<path id="Fill-11" sketch:type="MSShapeGroup" class="st0" d="M2473.8,69.4c0.1,0,0.3,0,0.4,0.1c0,0,0,0,0,0c0,0,0.1,0,0.1,0
				c-0.2,0-0.4-0.1-0.6-0.1C2473.8,69.3,2473.8,69.4,2473.8,69.4"/>
			<path id="Fill-13" sketch:type="MSShapeGroup" class="st0" d="M2429.5,69.5c2,2,3.4,3.4,4.8,4.7c11.9-1,21.8-2.6,33.1-0.5
				c6.4,1.2,9.3-0.8,6.4-4.3C2459.6,66.9,2445.7,70.4,2429.5,69.5"/>
			<path id="Fill-15" sketch:type="MSShapeGroup" class="st0" d="M1886.5,91.6c-10.7-3-32.5-3.1-49.2,0
				C1855.5,92.4,1870.3,91.5,1886.5,91.6"/>
			<path id="Fill-17" sketch:type="MSShapeGroup" class="st0" d="M2405.5,72.2c-0.2-0.5-0.3-1-0.5-1.6c-13.4,0.6-26.9,1.1-40.3,1.7
				c0.2,0.5,0.3,1,0.5,1.4C2378.9,74.1,2392.9,75,2405.5,72.2"/>
			<path id="Fill-19" sketch:type="MSShapeGroup" class="st0" d="M1962.8,89.2c-14.6-2.6-26.3-1.2-37.9,0.2
				C1936.7,90,1948.5,91.8,1962.8,89.2"/>
			<path id="Fill-21" sketch:type="MSShapeGroup" class="st0" d="M1556,92.6c0-0.4,0.1-0.8,0.1-1.2c-11.5-0.1-23-0.2-34.5-0.3
				c-0.3,0.5-0.5,0.9-0.8,1.4C1532.5,94.6,1544.3,92.5,1556,92.6"/>
			<path id="Fill-23" sketch:type="MSShapeGroup" class="st0" d="M2294.9,76c-0.1-0.5-0.2-1-0.3-1.5c-9.3,0.3-18.5,0.6-27.8,0.9
				c0.1,0.3,0.1,0.7,0.2,1C2276.3,76.2,2285.6,76.1,2294.9,76"/>
			<path id="Fill-25" sketch:type="MSShapeGroup" class="st0" d="M2380.1,158c9.1,0.1,18.2,0.2,27.3,0.2c0-0.3,0-0.6,0.1-0.9
				c-9.1-0.1-18.2-0.2-27.3-0.2C2380.1,157.5,2380.1,157.7,2380.1,158"/>
			<path id="Fill-29" sketch:type="MSShapeGroup" class="st0" d="M1906.3,88.7c-8-0.2-13.1-1.1-16,1.7
				C1896,91.8,1900.2,91.7,1906.3,88.7"/>
			<path id="Fill-31" sketch:type="MSShapeGroup" class="st0" d="M2426.1,72.4c-2.1-0.8-3.9-1.7-6.3-2.2c-0.6-0.1-3.1,0.8-6.1,1.7
				c3.2,0.7,5.1,1.4,7.2,1.5C2422.5,73.5,2424.4,72.8,2426.1,72.4"/>
			<path id="Fill-33" sketch:type="MSShapeGroup" class="st0" d="M2324.7,74.3c-7-0.1-14.2-0.1-23.5-0.2
				C2310.6,75.7,2314.7,75.7,2324.7,74.3"/>
			<path id="Fill-35" sketch:type="MSShapeGroup" class="st0" d="M2423.7,157.7c0,0.3,0,0.6,0,0.9c6.5,0.1,13.1,0.1,19.6,0.2
				c-0.3-0.3-0.5-0.6-0.8-0.9C2436.2,157.8,2430,157.8,2423.7,157.7"/>
			<path id="Fill-37" sketch:type="MSShapeGroup" class="st0" d="M2502.5,64.5c0-0.4-0.1-0.8-0.1-1.2c-4.7,0.1-9.4,0.2-14.1,0.3
				c0,0.3,0,0.5,0,0.8C2493,64.4,2497.7,64.4,2502.5,64.5"/>
			<path id="Fill-39" sketch:type="MSShapeGroup" class="st0" d="M2607.6,160c4,0.1,8.1,0.2,12.1,0.3c0-0.2,0.1-0.3,0.1-0.4
				c-4.1,0-8.1-0.1-12.2-0.1C2607.7,159.9,2607.7,159.9,2607.6,160"/>
			<path id="Fill-43" sketch:type="MSShapeGroup" class="st0" d="M2356.1,72.7c-3.5,0.1-6.9,0.2-10.4,0.4c-0.1,0.5-0.1,1.1-0.2,1.6
				c3.7-0.2,7.3-0.3,11-0.5C2356.4,73.7,2356.3,73.2,2356.1,72.7"/>
			<path id="Fill-45" sketch:type="MSShapeGroup" class="st0" d="M2226.9,77.5c0.1-0.4,0.1-0.9,0.2-1.3l-8.9,0.5
				c0.1,0.3,0.3,0.7,0.4,1C2221.3,77.7,2224.1,77.6,2226.9,77.5"/>
			<path id="Fill-47" sketch:type="MSShapeGroup" class="st0" d="M2537.3,63.7c0-0.4,0-0.9,0-1.3c-3.1,0.2-6.2,0.3-9.3,0.5
				c0.1,0.2,0.1,0.5,0.2,0.7C2531.2,63.6,2534.3,63.7,2537.3,63.7"/>
			<path id="Fill-49" sketch:type="MSShapeGroup" class="st0" d="M2500.2,158.5c0,0.3,0,0.6,0,0.8c4.6,0,9.1,0.1,13.7,0.1
				c0-0.4,0-0.7,0-1.1C2509.3,158.4,2504.7,158.5,2500.2,158.5"/>
			<path id="Fill-51" sketch:type="MSShapeGroup" class="st0" d="M2517.5,64.3c1.4-0.2,2.5-0.6,3.7-0.8c-1-0.3-1.9-0.6-3.4-1.1
				c-1.2,0.6-2,1-2.8,1.4C2515.9,64,2516.9,64.4,2517.5,64.3"/>
			<path id="Fill-53" sketch:type="MSShapeGroup" class="st0" d="M2468.2,64.8c-0.2-0.3-0.3-0.6-0.5-0.8c-2.9,0.3-5.8,0.6-8.8,0.8
				c0.1,0.2,0.3,0.4,0.4,0.6C2462.3,65.2,2465.3,65,2468.2,64.8"/>
			<path id="Fill-55" sketch:type="MSShapeGroup" class="st0" d="M1532,171.3C1532,171.3,1532,171.3,1532,171.3
				c0.1,0,0.1,0.1,0.2,0.1L1532,171.3z"/>
			<path id="Fill-57" sketch:type="MSShapeGroup" class="st0" d="M2897.3,151c-2.4,0-4.9,0-7.3-0.1c0-0.3,0-0.6,0.1-0.8
				c2.4,0,4.9,0,7.3,0.1C2897.3,150.4,2897.3,150.7,2897.3,151L2897.3,151z M2561.8,68.4c-7.6,0.3-15.2,0.6-22.8,0.9
				c-36.4,1.4-72.7,3.1-109.1,4.3c-62,2-124.1,3.8-186.2,5.3c-22.1,0.5-44.8,1.3-66.4-1.5c-7.5-1-13.6,2.2-21.4-0.2
				c-4.8-1.5-13.3-1.2-19.5-1.6c-6.2,4.2,3.8,3.3,9.3,5.4c-23.3,0.2-44.4,1.3-65,0.4c-42.5-1.8-84.8-4.7-127.2-7.1
				c-0.3,0-0.6-0.4-1.6-1c15.1-0.2,29.5-0.4,43.9-0.6c21-0.2,42-0.6,62.6,1.9c3.2,0.4,7.8-1.1,12-1.8c15.7,4.3,34.8,3.4,52.8,4.9
				c-0.3-3.6-0.3-3.6-18.5-5c0.2-0.4,0.4-1,0.7-1c15.2-0.4,30.2-3.5,45.6-0.4c1.5,0.3,3.7,0.2,5.6,0.1c3.7-0.1,8.8-1,10.9-0.3
				c6.6,2.1,13.1,0.2,19.2,0.2c34.3-0.1,68.6-0.5,102.9-1c5.4-0.1,10.8-0.8,16.3-0.9c25.3-0.4,50.6-0.7,75.9-1.1
				c24.8-0.4,49.6-0.9,74.4-1.3c9.2-0.1,18.4,0,27.6-0.1c16-0.1,31.9-0.2,47.9-0.4c3.9,0,7.8-0.5,11.6-0.4
				c6.3,0.2,12.5,0.7,18.8,1.1C2562.1,67.7,2562,68,2561.8,68.4L2561.8,68.4z M2190.4,85.8c-3.3-0.2-6.7-0.3-10-0.5
				c0.2-0.4,0.3-0.8,0.5-1.3c3.3,0.2,6.7,0.4,10,0.6C2190.7,85.1,2190.6,85.4,2190.4,85.8L2190.4,85.8z M1963.1,156
				c2.4-1.1,4.6-2.1,7.7-3.6c7.9,4.5,19.3,1.2,29.5,1.7c22.6,1,45.5,0.7,68.2,1c22.1,0.3,44.2,0.5,66.3,0.9c5,0.1,10,0.5,15,0.8
				C2086.9,158.9,2025,158.8,1963.1,156L1963.1,156z M1925,155.8l-1-1.1c2.8-0.4,5.6-0.8,8.5-1.3c0.3,0.4,0.7,0.7,1,1.1
				C1930.7,155,1927.8,155.4,1925,155.8L1925,155.8z M1839.7,66.3c-0.3-0.4-0.7-0.7-1-1.1c2.8-0.4,5.7-0.8,8.5-1.2
				c0.3,0.4,0.7,0.7,1,1.1L1839.7,66.3z M1776.1,147.2c-21,0.2-42,0.6-62.6-1.9c-3.2-0.4-7.8,1.1-12,1.8
				c-15.7-4.3-34.8-3.4-52.8-4.9c0.3,3.6,0.3,3.6,18.5,5c-0.2,0.4-0.4,1-0.7,1c-15.2,0.4-30.2,3.5-45.6,0.4
				c-1.5-0.3-3.7-0.2-5.6-0.1c-3.7,0.1-8.8,1-10.9,0.3c-6.6-2.1-13.1-0.2-19.2-0.2c-34.3,0.1-68.6,0.5-102.9,1
				c-5.4,0.1-10.8,0.8-16.3,0.9c-25.3,0.4-50.6,0.7-75.9,1.1c-24.8,0.4-49.6,0.9-74.4,1.3c-9.2,0.1-18.4,0-27.6,0.1
				c-16,0.1-31.9,0.2-47.9,0.4c-3.9,0-7.8,0.5-11.6,0.4c-6.3-0.2-12.5-0.7-18.8-1c0.1-0.4,0.2-0.8,0.3-1.2
				c7.6-0.3,15.2-0.6,22.8-0.9c36.4-1.4,72.7-3.1,109.1-4.3c62-2,124.1-3.8,186.2-5.4c22.1-0.5,44.8-1.3,66.4,1.5
				c7.5,1,13.6-2.2,21.4,0.2c4.8,1.5,13.3,1.2,19.5,1.6c6.2-4.2-3.8-3.3-9.3-5.4c23.3-0.2,44.4-1.3,65-0.4
				c42.6,1.8,84.8,4.7,127.2,7.1c0.3,0,0.6,0.4,1.6,1C1805,146.8,1790.6,147,1776.1,147.2L1776.1,147.2z M1581.7,133.9
				c3.3,0.2,6.7,0.3,10,0.5c-0.2,0.4-0.3,0.8-0.5,1.3l-10-0.6C1581.4,134.7,1581.5,134.3,1581.7,133.9L1581.7,133.9z M1809.1,63.8
				c-2.4,1.1-4.6,2.1-7.7,3.6c-7.9-4.5-19.3-1.2-29.5-1.7c-22.6-1-45.5-0.7-68.2-1c-22.1-0.3-44.2-0.5-66.3-0.9
				c-5-0.1-10-0.5-15-0.8C1685.3,60.8,1747.1,61,1809.1,63.8L1809.1,63.8z M882.1,69.7c-2.4,0-4.9,0-7.3-0.1c0-0.3,0-0.6,0.1-0.8
				c2.4,0,4.9,0,7.3,0.1C882.1,69.1,882.1,69.4,882.1,69.7L882.1,69.7z M3195.5,65.2c-13.5,0.3-15.9-0.8-14.8-5.8
				c1.8-8.9-5.3-16.2-25.7-21.1c-19.6-4.7-39-9.4-62.3-10.8c-5.6-0.3-12.1-0.5-14.7-3.2c6.3-1.3,11.9-2.4,18.6-3.7
				c-5.8-1.7-9.5-3.3-13.9-3.9c-5.1-0.7-11.7,0.2-16.3-0.6c-18.3-3.4-38.1-2.9-57.2-3.8c-28.6-1.3-57.4,0.7-86.5-1.3
				c-16.2-1.1-34.4-1.5-51.4,0.9c-3.5,0.5-7.7,0.3-11.5,0.4c-23.9,0.5-47.8,0.7-71.6,1.5c-27.4,0.9-54.6,2.6-82.2,2.9
				c-11.3,0.1-23.5,1.1-33.4,3.1c-7,1.4-13.8,3.1-19.4,1.2c-6.9-2.4-13,3.5-18.4-0.3c-0.2-0.1-1.1-0.1-2.1-0.2
				c-3.5,1.5-7.1,3.1-10.7,4.6c-13.6-2.8-37-1.5-46,2.2c-5.8-0.7-11.2-1.3-16.6-2c-8.4,2.8-18.5,6.2-26.1,5.5
				c-17.8-1.7-33.8,2.1-50.9,1.1c-2.1-0.1-4.7,1.2-7,2c8.2,2.1,15.4,4.7,27.2,3.8c14.9-1.2,30.2-1.7,45.4-2.1
				c22.1-0.6,44.2-0.9,66.3-1.3c14.2-0.3,28.4-0.4,42.6-0.6c-6.7,1.4-13.6,1.6-20.5,1.9c-41.3,1.9-82.5,4-123.8,5.6
				c-48.6,1.9-97.2,3.4-145.8,4.9c-20.4,0.6-41,0.7-61.4,1.2c-18.8,0.4-37.6,1-56.4,1.7c-3.9,0.1-9.6-0.2-9.9,2.4c2,0.4,4,1,5.9,1
				c31.4-0.6,62.8-1.3,94.2-1.9c12.5-0.3,24.9-0.7,37.4-0.9c13.7-0.2,27.4,0.1,41.1-0.1c10.1-0.1,20.2-0.4,30.4-0.6
				c8.8-0.2,17.8,0.5,25.7-1.9c1.2-0.4,4.5,0.2,7.3,0.4c-1.1,0.7-1.3,0.9-1.6,1c-8.6,2.7-19,0.8-28.1,1.6
				c-15.6,1.4-31.3,1.8-46.9,2.2c-21.6,0.5-42.8,2.1-64.4,2.6c-31.1,0.7-62,2.3-93,3.1c-24.8,0.6-49.7,1.1-74.6,0.9
				c-25.2-0.2-49.9,1.8-75.3,1.6c-18.2-0.1-37.8-1.2-55.5,2.3c-1.3,0.3-3.3,0.1-4.9,0c-25.3-2.6-51-1.3-76-0.1
				c-18.4,0.9-36.3,0.7-54.4,0.1c-26.7-0.9-53.3-1.9-80.2-2.8c3.3-1.2,6.5-2.3,10-3.5c-13.4-3.2-18.6,0.7-23.8,3.2
				c-6.5-1.1-12.3-3-17-2.7c-13.1,0.9-26,0.6-39.1,0.5c-26.7-0.3-53.4-0.8-80.1-0.9c-33.4-0.1-66.8,0.1-100.1,0.3
				c-1.8,0-3.5,1.1-6.1,2c8.9,2,19.2-0.3,26,2.7c-11.7,0.9-22.9,2.1-34.1,2.4c-26.7,0.8-53.5,1.2-80.3,1.6
				c-44.5,0.7-89.1,0.8-133.5,2.3c-15,0.5-30.7,1.4-45.8,3.8c-9.3,1.5-23.1,5.1-32.9-0.4c-3.6,1.4-5.9,2.9-9.3,3.5
				c-2.6,0.4-5.2,0.8-7.9,1.2c-15.5-0.3-31-0.7-46.5-0.9c-8-0.1-15.9-0.2-23.9-0.2c0.8,0,1.6-0.1,2.4-0.1c-0.1-0.4-0.2-0.8-0.3-1.2
				c-3.3,0.1-6.6,0.2-9.9,0.3c-0.1,0.3-0.2,0.6-0.2,1c-23.3-0.2-46.6-0.3-69.9-0.4c-6,0-11.9,0.9-15.9,1.3
				c-7.3-0.7-13.1-1.6-19.1-1.7c-7.5-0.2-15-0.3-22.5-0.5c-0.3-0.2-0.6-0.3-0.9-0.5c-0.4,0.2-0.8,0.3-1.2,0.4
				c-9.9-0.2-19.8-0.3-29.7-0.4c-16.3-0.2-32.7-0.5-49-0.7c-0.8-0.1-1.5-0.2-2.3-0.3c-14.3-1.8-30.8-0.8-46.4-0.8
				c-7,0-13.7,0.1-21.4-2.5c10-0.6,17.3-1,25.1-1.4c-1.4-0.8-1.9-1.5-2.5-1.5c-26.6-1-53.1-2.1-79.8-2.9c-32.5-1-65.1-1.7-97.5-2.7
				c-24.3-0.7-48.6-1.7-72.8-2.7c-21-0.9-41.9-2.2-62.9-3.2c-7.5-0.4-14.8-1-22.2-1.6v102.4c7.8,0.3,9.3,1.7,8.5,5.8
				c-1.8,8.9,5.3,16.2,25.7,21.1c19.6,4.7,39,9.4,62.3,10.8c5.6,0.3,12.1,0.5,14.7,3.2c-6.3,1.3-11.9,2.4-18.6,3.7
				c5.8,1.7,9.5,3.3,13.9,3.9c5.1,0.7,11.7-0.2,16.3,0.6c18.3,3.4,38.1,2.9,57.2,3.8c28.6,1.3,57.4-0.7,86.5,1.3
				c16.2,1.1,34.4,1.5,51.4-0.9c3.5-0.5,7.7-0.3,11.5-0.4c23.9-0.5,47.8-0.7,71.6-1.5c27.4-0.9,54.6-2.6,82.2-2.9
				c11.3-0.1,23.5-1.1,33.4-3.1c7-1.4,13.8-3.1,19.4-1.2c6.9,2.4,13-3.5,18.4,0.3c0.2,0.1,1.1,0.1,2.1,0.2c3.5-1.5,7.1-3.1,10.7-4.6
				c13.6,2.8,37,1.5,46-2.2c5.8,0.7,11.2,1.3,16.6,2c8.4-2.8,18.5-6.2,26.1-5.5c17.8,1.7,33.8-2.1,50.9-1.1c2.1,0.1,4.7-1.3,7-2
				c-8.2-2.1-15.4-4.7-27.2-3.8c-14.9,1.2-30.2,1.7-45.4,2.1c-22.1,0.6-44.2,0.9-66.3,1.3c-14.2,0.3-28.4,0.4-42.6,0.6
				c6.7-1.4,13.6-1.6,20.5-1.9c41.3-1.9,82.5-4,123.8-5.6c48.6-1.9,97.2-3.4,145.8-4.9c20.4-0.6,41-0.7,61.4-1.2
				c18.8-0.4,37.6-1,56.4-1.7c3.9-0.1,9.6,0.2,9.9-2.4c-2-0.4-4-1-5.9-1c-31.4,0.6-62.8,1.3-94.2,1.9c-12.5,0.3-24.9,0.7-37.4,0.9
				c-13.7,0.2-27.4-0.1-41.1,0.1c-10.1,0.1-20.2,0.4-30.4,0.6c-8.8,0.2-17.8-0.5-25.7,1.9c-1.2,0.4-4.5-0.2-7.3-0.4
				c1.1-0.7,1.3-0.9,1.6-1c8.6-2.7,19-0.8,28.1-1.6c15.6-1.4,31.3-1.8,46.9-2.2c21.6-0.5,42.8-2.1,64.4-2.6c31.1-0.7,62-2.3,93-3.1
				c24.8-0.6,49.7-1.1,74.6-0.9c25.2,0.2,49.9-1.8,75.3-1.6c18.2,0.1,37.8,1.2,55.5-2.3c1.3-0.3,3.3-0.1,4.9,0
				c25.3,2.6,51,1.3,76,0.1c18.4-0.9,36.3-0.7,54.4-0.1c26.7,0.9,53.3,1.9,80.2,2.8c-3.3,1.2-6.5,2.3-10,3.5
				c13.4,3.2,18.6-0.7,23.8-3.2c6.5,1.1,12.3,3,17,2.7c13.1-0.9,26-0.6,39.1-0.5c26.7,0.3,53.4,0.8,80.1,0.9
				c33.4,0.1,66.8-0.1,100.1-0.3c1.8,0,3.5-1.1,6.1-2c-8.9-2-19.2,0.3-26-2.7c11.7-0.9,22.9-2.1,34.1-2.4
				c26.7-0.8,53.5-1.2,80.3-1.6c44.5-0.7,89.1-0.8,133.5-2.3c15-0.5,30.7-1.4,45.8-3.8c9.3-1.5,23.1-5.1,32.9,0.4
				c3.6-1.4,5.9-2.9,9.3-3.5c2.6-0.4,5.2-0.8,7.9-1.2c15.5,0.3,31,0.7,46.5,0.9c8,0.1,15.9,0.2,23.9,0.2c-0.8,0-1.6,0.1-2.4,0.1
				c0.1,0.4,0.2,0.8,0.3,1.2c3.3-0.1,6.6-0.2,9.9-0.3c0.1-0.3,0.2-0.6,0.2-1c23.3,0.2,46.6,0.3,69.9,0.4c6,0,11.9-0.9,15.9-1.3
				c7.3,0.7,13.1,1.6,19.1,1.7c7.5,0.2,15,0.3,22.5,0.5c0.3,0.2,0.6,0.3,0.9,0.5c0.4-0.2,0.8-0.3,1.2-0.4c9.9,0.2,19.8,0.3,29.7,0.4
				c16.3,0.2,32.7,0.5,49,0.7c0.8,0.1,1.5,0.2,2.3,0.3c14.3,1.8,30.8,0.8,46.4,0.8c7,0,13.7-0.1,21.4,2.5c-10,0.6-17.3,1-25.1,1.4
				c1.4,0.8,1.9,1.4,2.5,1.5c26.6,1,53.1,2.1,79.8,2.9c32.5,1,65.1,1.7,97.5,2.7c24.3,0.7,48.6,1.7,72.8,2.7
				c21,0.9,41.9,2.2,62.9,3.2c12.5,0.6,24.7,1.8,36.9,2.8c6.2,0.5,12.7,0.9,19.1,1.1V64.5C3213.9,64.7,3204.6,65.1,3195.5,65.2
				L3195.5,65.2z"/>
			<path id="Fill-59" sketch:type="MSShapeGroup" class="st0" d="M1692.7,168.6c-13.6,0.7-26.9-0.4-40.4-0.7
				c-2.9-0.1-6.1,1.5-9.5,2.4c-10.6-2.9-21-2.8-32,0.2c1.8,0.7,2.9,1.5,3.9,1.5c25.8-0.2,51.6-0.5,77.4-0.8c1.2,0,2.3-0.7,3.8-1.2
				C1694.7,169.5,1693.5,168.6,1692.7,168.6"/>
			<path id="Fill-61" sketch:type="MSShapeGroup" class="st0" d="M1792.2,167.4c-27,0.3-53.9,0.6-80.9,1c-2.9,0-5.7,0.8-8.5,1.2
				c0.2,0.5,0.4,1.1,0.6,1.6c30-1.5,60.2-0.6,91.3-1.9C1793.1,168.1,1792.6,167.4,1792.2,167.4"/>
			<path id="Fill-63" sketch:type="MSShapeGroup" class="st0" d="M1532.1,171.3c-0.1,0,0.1,0,0.1,0c0,0,0.1,0,0.1,0
				C1532.2,171.4,1532.1,171.3,1532.1,171.3"/>
			<path id="Fill-65" sketch:type="MSShapeGroup" class="st0" d="M1600.2,172.3c1.2,0,2.1-1.1,3.6-2c-25-1.7-48.3-0.3-71.5,1
				c4.5,0.8,9,2.2,13.4,2.1C1563.9,173.4,1582,172.8,1600.2,172.3"/>
			<path id="Fill-67" sketch:type="MSShapeGroup" class="st0" d="M1340.6,187.5c-2-2-3.4-3.4-4.8-4.7c-11.9,1-21.8,2.6-33.1,0.5
				c-6.4-1.2-9.3,0.8-6.4,4.3C1310.5,190.1,1324.4,186.6,1340.6,187.5"/>
			<path id="Fill-69" sketch:type="MSShapeGroup" class="st0" d="M1296.2,187.5c-0.1,0-0.3,0-0.4-0.1c0,0,0,0,0,0c0,0-0.1,0-0.1,0
				c0.2,0,0.4,0.1,0.6,0.1C1296.3,187.6,1296.3,187.6,1296.2,187.5"/>
			<path id="Fill-71" sketch:type="MSShapeGroup" class="st0" d="M1883.6,165.4c10.7,3,32.5,3.1,49.2,0
				C1914.6,164.5,1899.7,165.5,1883.6,165.4"/>
			<path id="Fill-73" sketch:type="MSShapeGroup" class="st0" d="M1364.6,184.7c0.2,0.5,0.3,1,0.5,1.6c13.4-0.6,26.9-1.1,40.3-1.7
				c-0.2-0.5-0.3-1-0.5-1.4C1391.1,182.8,1377.2,181.9,1364.6,184.7"/>
			<path id="Fill-75" sketch:type="MSShapeGroup" class="st0" d="M1807.3,167.7c14.6,2.6,26.3,1.2,37.9-0.2
				C1833.4,166.9,1821.6,165.1,1807.3,167.7"/>
			<path id="Fill-77" sketch:type="MSShapeGroup" class="st0" d="M2214.1,164.3c0,0.4-0.1,0.8-0.1,1.2c11.5,0.1,23,0.2,34.5,0.3
				c0.3-0.5,0.5-0.9,0.8-1.4C2237.6,162.3,2225.8,164.4,2214.1,164.3"/>
			<path id="Fill-79" sketch:type="MSShapeGroup" class="st0" d="M1475.2,181c0.1,0.5,0.2,1,0.3,1.5c9.3-0.3,18.5-0.6,27.8-0.9
				c-0.1-0.3-0.1-0.7-0.2-1C1493.8,180.7,1484.5,180.9,1475.2,181"/>
			<path id="Fill-81" sketch:type="MSShapeGroup" class="st0" d="M1390,98.9c-9.1-0.1-18.2-0.2-27.3-0.2c0,0.3,0,0.6-0.1,0.9
				c9.1,0.1,18.2,0.2,27.3,0.2C1390,99.5,1390,99.2,1390,98.9"/>
			<path id="Fill-85" sketch:type="MSShapeGroup" class="st0" d="M1863.8,168.3c8,0.2,13.1,1.1,16-1.7
				C1874.1,165.1,1869.9,165.2,1863.8,168.3"/>
			<path id="Fill-87" sketch:type="MSShapeGroup" class="st0" d="M1344,184.5c2.1,0.8,3.9,1.7,6.3,2.2c0.6,0.1,3.1-0.8,6.1-1.7
				c-3.2-0.7-5.1-1.4-7.2-1.5C1347.6,183.4,1345.7,184.1,1344,184.5"/>
			<path id="Fill-89" sketch:type="MSShapeGroup" class="st0" d="M1445.4,182.6c7,0.1,14.2,0.1,23.5,0.2
				C1459.5,181.2,1455.4,181.3,1445.4,182.6"/>
			<path id="Fill-91" sketch:type="MSShapeGroup" class="st0" d="M1346.4,99.2c0-0.3,0-0.6,0-0.9c-6.5-0.1-13.1-0.1-19.6-0.2
				c0.3,0.3,0.5,0.6,0.8,0.9C1333.9,99.1,1340.1,99.1,1346.4,99.2"/>
			<path id="Fill-93" sketch:type="MSShapeGroup" class="st0" d="M1267.6,192.5c0,0.4,0.1,0.8,0.1,1.2c4.7-0.1,9.4-0.2,14.1-0.3
				c0-0.3,0-0.5,0-0.8C1277.1,192.5,1272.4,192.5,1267.6,192.5"/>
			<path id="Fill-99" sketch:type="MSShapeGroup" class="st0" d="M1414,184.2c3.5-0.1,6.9-0.2,10.4-0.4c0.1-0.5,0.1-1.1,0.2-1.6
				c-3.7,0.2-7.3,0.3-11,0.5C1413.7,183.2,1413.8,183.7,1414,184.2"/>
			<path id="Fill-101" sketch:type="MSShapeGroup" class="st0" d="M1543.2,179.4c-0.1,0.4-0.1,0.9-0.2,1.3c3-0.2,6-0.3,8.9-0.5
				c-0.1-0.3-0.3-0.7-0.4-1C1548.8,179.3,1546,179.3,1543.2,179.4"/>
			<path id="Fill-103" sketch:type="MSShapeGroup" class="st0" d="M1232.8,193.2c0,0.4,0,0.9,0,1.3c3.1-0.2,6.2-0.3,9.3-0.5
				c-0.1-0.2-0.1-0.5-0.2-0.7C1238.9,193.3,1235.8,193.3,1232.8,193.2"/>
			<path id="Fill-105" sketch:type="MSShapeGroup" class="st0" d="M1269.9,98.4c0-0.3,0-0.6,0-0.8c-4.6,0-9.1-0.1-13.7-0.1
				c0,0.4,0,0.7,0,1.1C1260.8,98.5,1265.4,98.5,1269.9,98.4"/>
			<path id="Fill-107" sketch:type="MSShapeGroup" class="st0" d="M1252.6,192.6c-1.4,0.2-2.5,0.6-3.7,0.8c1,0.3,1.9,0.6,3.4,1.1
				c1.2-0.6,2-1,2.8-1.4C1254.2,193,1253.2,192.5,1252.6,192.6"/>
			<path id="Fill-109" sketch:type="MSShapeGroup" class="st0" d="M1301.9,192.1c0.2,0.3,0.3,0.6,0.5,0.8c2.9-0.3,5.8-0.6,8.8-0.8
				c-0.1-0.2-0.3-0.4-0.4-0.6C1307.8,191.7,1304.8,191.9,1301.9,192.1"/>
		</g>
	</g>
</g>
</svg>
