<?xml version="1.0" encoding="utf-8"?>
<!-- Generator: Adobe Illustrator 18.1.1, SVG Export Plug-In . SVG Version: 6.00 Build 0)  -->
<!DOCTYPE svg PUBLIC "-//W3C//DTD SVG 1.1//EN" "http://www.w3.org/Graphics/SVG/1.1/DTD/svg11.dtd">
<svg version="1.1" xmlns="http://www.w3.org/2000/svg" xmlns:xlink="http://www.w3.org/1999/xlink" x="0px" y="0px"
	 viewBox="0 0 474.1 266.2" enable-background="new 0 0 474.1 266.2" xml:space="preserve">
<g id="chinaTypeLogo">
	<path fill="#FFFFFF" d="M415,231.3c-0.5-1.2-0.6-2.1-0.3-2.9c0.7-1.9,1.6-2.3,2.6-1.5c0.1,0.1,0.4,0.5,0.8,1.1
		c0.4,0.6,0.8,1.1,1.3,1.5c0.5,0.4,0.9,0.8,1.2,1.2c0.1,0.2,0,0.6-0.3,1c-0.3,0.6-1,0.7-2,0.6c-1-0.1-1.8-0.2-2.4-0.2
		C415.4,231.9,415.1,231.7,415,231.3L415,231.3z M406.2,232.9c3.1-4.2,6-9.3,8.8-15.6c0.2-0.6,0.4-1.2,0.8-1.8
		c0.3-0.6,1.3-0.4,3.3,0.5c1.9,1,2.3,1.7,1.3,2.2c-0.9,0.7-1.8,1.6-2.6,2.6c2.6,0.4,4.8,1.1,6.8,1.9c0.4,0.1,0.5,1,0.5,2.6
		c-0.1,1.6-0.4,2.6-0.8,2.8c-0.5,0.2-1,0.2-1.2-0.2c-0.3-0.4-0.8-0.9-1.4-1.6c-2.1-1.6-3.9-2.9-5.1-4c-0.5,0.7-1,1.5-1.5,2.2
		c-2,2.9-3.4,5-4,6.1c-0.8,1.2-1.2,2.5-1,3.8c-0.1,0.4-0.3,0.8-0.3,1.2c0.2-0.1,0.6-0.1,1.3,0.1c0,0,0.1,0.1,0.3,0.1
		c0.3,0,0.5,0,0.8,0c1-0.2,2.1-0.5,3.5-1c3.1-1,5.2-1.3,6.2-1c1.2,0.3,2.2,0.8,3.5,1.3c1.1,0.5,1.2,1,0.4,1.5
		c-1.9,1.7-2.9,5-3.1,9.9c0.3,1.2-0.7,1.7-2.7,1.6c-2.2,0.1-4.5,0.5-6.5,1c-0.9,0.2-1.5,0.4-2,0.5c-0.8,4-0.8,6.6-0.1,7.6
		c0.9,0.9,3.3,0,7.2-2.6c-0.4-0.2-0.7-0.4-0.8-0.7c-0.5-0.1-0.6-0.9-0.1-2.4c0.3-1.6,0.8-2.5,1.5-2.8c0.6-0.3,1-0.1,1.3,0.6
		c1.2,2,2.7,3.7,4.6,5.3c0.6,0.6,0.8,1.2,0.4,1.8c-0.5,0.6-1.1,0.8-1.7,0.6c-0.5-0.2-1.4-0.6-2.8-1c-0.4-0.1-0.6-0.2-0.8-0.3
		c-2.2,2.2-3.8,3.9-4.9,4.8c-1.6,1.3-2.8,2.2-3.4,2.9c-0.8,1-1.5,0.9-2-0.3c-0.6-1.2-1.1-2.6-1.5-4.3c-0.6-1.8-0.6-5.3,0.1-10.4
		c0.6-5,0.9-8.9,0.8-11.8c-0.6,0.6-1.4,1.2-2.1,1.8c-1.9,1.2-4.3,2.5-7.1,3.7c-1.7,0.7-2.1,0.3-1.1-1
		C400.7,238.8,403.1,236.1,406.2,232.9L406.2,232.9z M419.3,236.8c-0.6-0.4-2.4-0.1-5.2,0.9c-0.5,0.1-1,0.2-1.2,0.4
		c-0.1,0.7-0.2,1.5-0.2,2.4c0.1,0.1,0.4,0.1,0.8,0c1.2-0.2,2.3-0.4,3.7-0.7c0.4-0.1,0.6,0.3,0.7,1.1c0,0.8-0.1,1.3-0.3,1.3
		c-1.2,0.1-2.4,0.4-3.6,0.7c-0.6,0.1-1.2,0.3-1.6,0.6c-0.2,1-0.4,2.1-0.6,3.1c1.3-0.4,2.4-0.7,3.1-0.9c0.8-0.2,1.6-0.4,2.2-0.6
		c0.5-0.1,0.8-0.2,1-0.4c0.4-0.7,0.8-2,1.3-4C420,238.7,419.9,237.4,419.3,236.8L419.3,236.8z M434.3,221.7
		c-0.8-1.9-1.2-3.4-0.8-4.7c0.7-2.3,1.7-2.9,2.9-1.9c0.3,0.2,0.6,0.8,1.3,1.5c0.5,0.9,1.1,1.6,1.7,2.1c0.6,0.6,1.2,1.2,1.7,1.7
		c0.3,0.3,0.1,0.7-0.3,1.3c-0.5,0.6-1.3,0.9-2.4,0.7c-1.3-0.1-2.2-0.1-2.9-0.1C435,222.4,434.4,222.2,434.3,221.7L434.3,221.7z
		 M424.5,231.5c1-1.3,2.3-2.8,4-4.5c0.1-0.1,0.3-0.1,0.5-0.1c0.1,0.1,0.1,0.2,0.1,0.4c-0.6,2.4-0.8,4.3-0.6,5.6
		c0.2,1.2,0,1.7-0.7,1.6c-0.8-0.1-1.7-0.5-2.6-1.2c-1.2-0.7-1.6-1.2-1.2-1.3C424.2,231.9,424.4,231.7,424.5,231.5L424.5,231.5z
		 M438,224.5c3.1-1.1,6.3-1.4,9.5-0.9c2.5,0.8,5,3.9,7.4,9.2c0.4,0.7-0.7,1.1-3.2,1.3c-1.7,0.1-3.1,0.1-4.5,0
		c-0.1,0.1-0.3,0.2-0.3,0.3c-1.5,1.2-2.4,3.8-2.8,7.6c0.3,1.3-0.7,1.9-2.8,1.7c-2.5,0.1-4.9,0.4-7.3,1c-0.4,0.1-0.9,0.2-1.3,0.4
		c-0.1,1.2-0.2,2.4-0.1,3.7c0,0.1,0,0.2,0,0.3c0.4,0.1,0.8,0,1.3-0.1c1-0.4,2.7-0.9,4.9-1.4c2.1-0.5,4.2-0.6,6.3-0.2
		c5.1,0.9,6.9,1.7,5.3,2.5c-2.8,3.1-4.2,6.2-4.4,9.4c0,0.6-0.4,0.9-1,0.9c-0.7-0.1-1.8-0.1-3.1-0.1c-2.2,0.4-4.4,0.8-6.5,1.3
		c-1.2,0.2-2,0.5-2.6,0.6c0,0.6,0.1,1.1,0.2,1.3c0.3,1.1-0.4,1.6-1.8,1.5c-1.5,0-2.2-0.6-2.1-1.7c-0.1-19.8,0.7-30,2.5-30.7
		c0.4-0.1,1.3,0.2,2.6,0.9c0.6-0.2,1.4-0.4,2.3-0.7c3.1-1,5.2-1.3,6.1-1.1c0.6,0.2,1.3,0.5,2,0.7c2.3-0.6,3.6-1.4,4.2-2.6
		c0.3-1.8-0.8-3.3-2.9-4.5c-0.4-0.1-1.5,0.2-3.5,1c-2,0.8-4,1.3-5.9,1.5c-2.2,0.2-3.6,0.5-4.2,0.7c-0.9,0.4-1.4,0.2-1.6-1
		c-0.3-1.1,0.1-1.5,1-1.3C432.5,226.2,434.6,225.7,438,224.5L438,224.5z M440.1,234.7c-0.6-0.4-2.4-0.1-5.2,0.9h-0.1
		c-1,1.2-1.7,3.5-2,6.7c1.3-0.5,2.4-0.8,3.2-0.9c1-0.2,1.8-0.4,2.4-0.6c0.6-0.1,1-0.2,1.2-0.4c0.3-0.5,0.5-1.5,0.8-2.9
		C440.6,236.1,440.5,235.2,440.1,234.7L440.1,234.7z M438,250.6c-2.2,0.7-3.8,1.1-4.6,1.3c-0.4,0.1-0.7,0.2-0.8,0.2
		c0,2.3,0,4.3,0.1,5.8c0.4,0.1,0.8,0.1,1.3,0c1.2-0.2,2.4-0.4,3.7-0.6c1.3-0.2,2.1-0.4,2.8-0.7c1-0.6,1.6-1.7,2-3.1
		c0.3-1.5,0.1-2.5-0.3-3.2C441.5,249.9,440.1,250,438,250.6L438,250.6z"/>
	<path fill="#FFFFFF" d="M338,242.6c-1.3-1.9-2.1-3.9-2.1-5.9c-0.4-0.5-0.3-0.7,0.3-0.9c0.4,0,1.7-0.4,4.1-1.2
		c2.2-0.9,4.1-1.2,5.6-1c2.8,0.9,3.9,1.6,3.4,2.1c-0.6,0.4-1.2,1.4-1.9,2.9c-0.6,1.6-1,2.8-0.9,3.4c0.1,0.4-0.1,0.7-0.6,0.8
		c-2.9,0-5.2,0.5-6.7,1.3c-0.4,0.1-0.6,0.1-0.6-0.2C338.6,243.6,338.4,243.2,338,242.6L338,242.6z M343.4,239.8
		c1.2-1.3,1.2-2.5,0.3-3.6c-0.4-0.3-1-0.2-2,0.2c-1.1,0.5-1.7,0.9-1.9,1.1c-0.8,1.2-0.8,2.3,0.1,3.1c0.1,0.1,0.6,0.1,1.6-0.2
		C342.3,240.2,343,239.9,343.4,239.8L343.4,239.8z M343.4,245.6c2.5-0.9,4.2-1.4,5-1.6c0.3,0,0.4,0.4,0.4,1
		c-0.1,0.7-0.5,1.3-1.2,1.7c-2.1,1.2-4.2,2.2-6.1,2.9c-2,0.7-3.3,1.3-3.9,1.7c-0.6,0.6-1.3,0.3-2-0.8c-0.7-1-1-1.7-0.9-2
		c0-0.2,0.3-0.4,1-0.6C338.2,247.3,340.7,246.6,343.4,245.6L343.4,245.6z M329.2,246c0.1-6.4,0.7-14.6,1.7-24.4c0-1,0.4-1.5,1.3-1.5
		c0.7,0.1,2.4-0.2,4.9-0.8c3.7-1.1,8.5-2.1,14.3-3.1c5.8-0.9,9.9-1.2,12.4-0.9c5.5,1,7.9,2.6,7.2,4.8c-0.8,2.9-1.3,6.4-1.5,10.5
		c-0.4,4-0.3,9.2,0.4,15.6c0.4,6.4,0.8,12.6,1,18.5c0.1,1.5-0.5,1.9-1.9,1c-1.4-0.9-2.8-1.8-4.1-2.6c-1.5-0.7-2.8-1.6-3.8-2.6
		c-0.8-0.6-1.2-1.1-1.3-1.7c-0.3-0.5-0.8-0.7-1.5-0.9c-11.4,1-18.8,1.8-22.2,2.5c-1.6,0.2-2.8,0.6-3.4,1c-0.7,0.4-1.3,0.1-1.7-1.2
		C329.7,257.3,329,252.6,329.2,246L329.2,246z M355.2,225.1c-0.4-0.8-0.6-1.6-0.4-2.4c0.3-1.7,0.9-2.2,1.9-1.6
		c0.4,0.2,0.8,0.8,1.3,1.5c0.5,0.9,1.1,1.6,1.8,2.1c0.6,0.6,1.2,1.2,1.8,1.7c0.1,0.2,0.1,0.5-0.1,0.9c-0.3,0.5-0.8,0.7-1.7,0.7
		c-0.8,0-1.5,0.1-2,0.1c-0.5,0.1-0.9,0.1-1-0.3c-1.6,0.2-3.2,0.4-4.9,0.8c1,4.3,2,8.2,3,11.5c0.1-0.3,0.3-0.6,0.7-1.1
		c1.9-3.6,2.8-5.8,2.8-6.9c0-0.2,0.7-0.1,2.2,0.4c1.3,0.6,1.9,1.3,1.5,1.9c-2.5,4-4.5,7.1-6,9.1c1,3.1,1.9,4.6,2.9,4.5
		c1.3-0.2,2-2.3,2.1-6.3c0-1.6,0.3-1.7,0.9-0.5c0.5,1.3,0.9,3.4,1.3,6c0.3,2.6,0.3,4.7,0.1,6.2c-0.5,2.5-2.7,1.2-6.5-4.1
		c-0.8-1-1.7-2.3-2.4-4c-1.6,1.9-2.4,3.1-2.3,3.8c0,0.5-0.8,1.2-2.4,2.3c-1.7,1.1-3.9,1.3-6.5,0.7c-0.6-0.1-0.6-0.3,0.1-0.6
		c2.5-1.3,4.6-2.7,6.3-4.2c1.3-1.2,2.5-2.7,3.8-4.7c-0.1-0.2-0.2-0.3-0.1-0.4c-1.3-3.1-2.5-7.5-3.8-13.1c-0.9,0.1-1.7,0.3-2.4,0.4
		c-3.9,1-6.1,1.7-6.5,2c-1.5,0.9-2.4,1-2.6,0.4c-0.2-0.7-0.6-1.5-1.1-2.3c-0.6-0.7-0.6-1.2,0-1.2c0.5,0,1-0.1,1.7-0.2
		c2-0.5,4.9-1,8.7-1.7c0.4-0.1,0.9-0.2,1.5-0.4c-0.7-3.2-1.3-5.3-1.5-6.2c-3,0.5-5.3,1.1-6.9,1.8c-2.6,1-4.2,1.9-4.5,2.5
		c-0.6,0.7-1.4,5.8-2.4,15.4c-1.1,9.5-1.1,15.2,0,17c0.3,0.3,3.1,0,8.6-1c5.4-0.9,10.8-1.5,16.3-1.6c0.8,0.1,1.2,0.7,1.3,1.6
		c0.1,1,0.4,1.7,0.8,1.8c1.7,0.9,3.3,1.2,4.5,1c0.5-0.7,0.6-4.7,0.2-12c-0.5-7.3-0.7-13.4-0.6-18.2c-0.1-4.8-1-7.6-2.4-8.5
		c-1.5-1.2-4.9-1.5-10-0.7c-0.5,0-0.9,0.1-1.2,0.1c-0.1,0.1-0.2,0.2-0.1,0.2c-0.5,0.4-0.4,2.5,0.4,6.2
		C352.4,225.7,353.7,225.4,355.2,225.1L355.2,225.1z"/>
	<path fill="#FFFFFF" d="M278.4,221.4c6.7-1,12.1-0.6,16.4,1.3c1.7,0.9,3.2,1.7,4.4,2.6c1.2,0.9,1,1.5-0.3,1.9
		c-1.3,0.8-2.8,2.1-4.7,4.2c-1.9,2-2.8,4-2.8,5.8c0,0.7-0.1,1.2-0.2,1.3c-0.2,0.2-0.8,0.2-1.6,0c-3-0.3-6.7-0.2-11,0.2
		c-0.3,0-0.4,0-0.5,0c-0.1,4.6-0.3,9-0.4,13.3c-0.4,5.2-0.4,7.9-0.2,8.3c0.7,1.3,0.1,1.8-1.8,1.5c-2-0.2-2.8-0.6-2.4-0.9
		c0.4-0.4,0.6-1.6,0.7-3.8c0-3-0.1-6.2-0.2-9.7c-0.1-1.8-0.3-4.5-0.3-8.2c-3,0.4-6.1,1-9.1,2c-0.7,0.4-1.4-0.1-1.9-1.4
		c-0.5-0.8-1.7-2.3-3.6-4.5c-1.9-2.1-3.1-4.6-3.5-7.6c-0.1-1.4,0.4-2,1.5-1.8c2.8,0,6.1-0.5,10.1-1.8c2.1-0.6,4.2-1.2,6.4-1.7
		c-0.1-6.8-0.3-10.5-0.3-11c-0.7-2,0.3-2.8,3.3-2.4c2.9,0.4,3.6,1.3,2.4,2.5c-0.4,0.5-0.6,3.2-0.4,8.1c0,0.6-0.1,1.3-0.1,1.8
		C278.3,221.4,278.3,221.4,278.4,221.4L278.4,221.4z M278.3,224.7c0,3-0.1,6.2-0.1,9.5c2.8-0.3,5.2-0.6,7.4-0.7
		c2-0.3,3.3-1.6,3.9-3.7c0.5-2.1,0.6-3.5,0.2-4.3c-1.9-1.2-5.4-1.5-10.6-0.8C278.8,224.7,278.5,224.7,278.3,224.7L278.3,224.7z
		 M273.5,235.1c-0.1-2.3-0.2-4.9-0.1-7.8c-0.1-0.6-0.2-1.1-0.1-1.7c-5.4,1.1-9,2.4-10.6,4c-0.6,0.9-0.6,2.2,0.2,4.2
		c0.6,1.9,1.4,2.9,2.2,2.8c1,0.1,2.4-0.1,4.2-0.5C270.3,235.7,271.7,235.4,273.5,235.1L273.5,235.1z"/>
	<path fill="#FFFFFF" d="M203,247c-0.8-0.7-0.5-1.1,0.8-1.1c5.6,2,10.4,4.2,14.6,6.9c0.4,0.2,0.4,1.5,0.1,3.7
		c-0.4,2.2-1,3.4-1.7,3.7c-0.7,0.2-1.3,0.1-1.6-0.4c-0.4-0.6-1-1.3-1.6-2.4C209,252.8,205.5,249.5,203,247L203,247z M224.7,245.5
		c-6.8-1.5-14.7-1.9-23.7-1.1c-0.7,0.1-1.5,0.1-2.1,0.2c-1.1,3.1-2.9,5.8-5.4,8c-1.5,1.5-2.2,2.6-2.2,3.4c0,0.8-1,1.5-2.8,2.3
		c-3,1.2-5.4,1.5-7.3,1.2c-2-0.3-2.5-0.8-1.5-1.4c1.4-0.9,3.2-1.8,5.5-3.1c2.2-1.2,4.1-2.5,5.5-4c1.8-1.7,3.1-3.6,4.2-5.9
		c-7.7,1-14,2.2-18.4,3.7c-0.6,0.4-1.5-0.3-2.4-2c-1-1.7-0.4-2.3,1.8-1.7c3.3-0.7,6.8-1.3,10.9-2c0.1-0.2,0.2-0.4,0.3-0.6
		c0-0.7-0.3-1.9-1-3.7c-0.6-1.8-1.2-3.2-1.6-4.4c-0.8-0.7,0.1-1.2,2.5-1.6c3.7-1,6.8-1.6,9.4-2c0,0,0.1,0,0.2,0
		c0-1.9-0.1-3.1-0.1-3.6c-0.4-1,0.5-1.5,2.7-1.3c2.1,0.1,2.9,0.7,2.4,1.5c-0.4,0.7-0.7,1.7-0.8,2.8c1-0.1,2-0.2,2.9-0.4
		c2.3-0.4,4.6-0.2,7,0.6c3.7,1.5,5.1,2.8,4.1,3.7c-2,1.7-3.1,3.6-3.3,5.7c0,0.1,0,0.1,0,0.2c1.4-0.1,2.7-0.1,4.1-0.2
		c4.2-0.1,6.7-0.4,7.6-0.7c0.4-0.1,0.7,0.2,1.1,0.9c0.3,0.8,0.6,1.3,1.2,1.7c0.5,0.3,0.7,1.2,0.6,2.6
		C226,245.6,225.5,246.1,224.7,245.5L224.7,245.5z M200.4,234.3c-0.1,2.3-0.4,4.5-0.8,6.8c0.8-0.1,1.5-0.2,2.4-0.3
		c1.2-0.1,2.2-0.2,3.5-0.4c1.1-2.3,1.7-3.9,2-4.9c0.1-1.1,0.1-1.8-0.1-2.2c-0.5-0.9-2.5-1-5.9-0.6c-0.5,0.1-0.9,0.1-1.2,0.2
		C200.4,233.3,200.4,233.8,200.4,234.3L200.4,234.3z M195.8,241.6c0.4-3,0.6-5.7,0.7-8.1c-1.2,0.2-2.3,0.5-3.1,0.7
		c-2,0.4-3.3,1-3.7,1.7c-0.6,1.9-0.6,3.7,0.3,5.5c0.1,0.2,0.3,0.5,0.8,0.9C192.4,242,194,241.9,195.8,241.6L195.8,241.6z
		 M182.4,221.3c1-0.2,2.5-0.6,4.7-1.1c0.7-0.2,1.9-0.5,3.5-0.9c-1.3-3.6-1.9-5.5-1.3-5.8c0.5-0.3,1.7-0.2,3.7,0.2
		c2,0.4,2.7,0.8,2.2,1.2c-0.8,0.6-0.9,2.2-0.3,5.1c0.4,2.9,0.8,4.5,1,5c0.4,0.7,0,1.2-1,1.4c-1.2,0.2-1.8,0-1.9-0.9
		c-0.4-0.9-0.6-1.5-0.9-2.1c-0.1,0-0.2,0-0.2-0.1c-1.4,0.2-2.9,0.4-4.4,0.7c-1.7,0.4-2.8,0.7-2.9,0.8c-1.7,1.1-2.6,1.3-2.8,0.5
		c-0.4-0.8-0.8-1.6-1.3-2.5c-0.6-0.9-0.6-1.3,0-1.4C181.2,221.5,181.8,221.5,182.4,221.3L182.4,221.3z M204.1,218.4
		c0.8-2.2,1.6-4.6,2.4-7.2c0.3-0.8,1-1,2.1-0.5c1.1,0.5,2,1,2.8,1.4c0.8,0.4,0.7,1-0.1,1.7c-0.9,1.2-1.8,2.5-2.6,4
		c0.5-0.1,1.2-0.1,1.9-0.2c1.5-0.1,4-0.4,7.5-0.7c0.5-0.2,0.8,0.7,1,2.7c0,2-0.8,2.6-2.2,1.8c-2.1,0-4.4,0.1-6.6,0.1
		c-2.2,0.2-3.7,0.4-4.2,0.6c-0.2,0.4-0.4,0.7-0.6,1c-1.2,1.2-2,2-2.4,2.3c-1.9,1.4-2.4,1.2-1.4-1c0.4-0.9,0.8-1.9,1.2-2.9
		c-0.3-0.6-0.6-1.2-0.8-1.8c-0.5-0.9-0.4-1.3,0.2-1.3C202.8,218.4,203.4,218.4,204.1,218.4L204.1,218.4z"/>
	<path fill="#FFFFFF" d="M130.3,218.8c4.7-0.6,8.6-0.1,11.7,1.4c1.3,0.8,2.6,1.7,3.6,2.5c0.9,0.8,0.8,1.4-0.3,1.7
		c-0.9,0.7-2,2-3.3,3.7c-1.4,1.8-1.9,3.4-1.7,5c0.1,0.6,0.1,1,0,1.2c-0.1,0.2-0.6,0.2-1.4,0.1c-2.4-0.2-5.3-0.2-8.7,0
		c-0.1,0-0.2,0-0.1,0c-0.1,5.5-0.3,10.8-0.5,15.8c-0.4,5.3-0.5,8.3-0.3,8.6c0.7,1.2,0.1,1.7-1.8,1.4c-2-0.2-2.8-0.6-2.4-0.9
		c0.4-0.3,0.6-1.7,0.8-3.9c0-3-0.1-6.3-0.1-9.9c-0.1-2.3-0.2-5.9-0.1-10.8c-2.2,0.3-4.5,0.8-6.7,1.5c-0.7,0.2-1.3-0.2-1.7-1.5
		c-0.4-0.8-1.3-2.1-2.8-4.2c-1.5-2-2.3-4.3-2.4-6.9c-0.3-1.3,0.1-1.9,1.2-1.8c2.1,0,4.6-0.4,7.6-1.1c1.5-0.4,3.1-0.9,4.8-1.2
		c0-7.1-0.1-11-0.1-11.5c-0.6-1.8,0.4-2.6,3.1-2.2c2.6,0.4,3.4,1.2,2.2,2.3c-0.4,0.5-0.6,3.3-0.6,8.4
		C130.3,217.3,130.2,218.1,130.3,218.8L130.3,218.8z M130.3,222.1c-0.1,2.5-0.2,5.1-0.1,7.8c1.8-0.2,3.3-0.3,4.8-0.4
		c1-0.2,1.7-1.2,2.1-3.1c0.3-1.8,0.3-3,0.1-3.6C135.9,221.9,133.6,221.7,130.3,222.1L130.3,222.1z M125.7,230.7c0-2,0-4,0.1-6.1
		c0-0.6,0-1.2,0-1.7c-3.5,0.7-5.8,1.7-6.8,2.6c-0.6,0.6-0.8,1.8-0.5,3.4c0.3,1.7,0.6,2.6,1.3,2.6c0.8,0.1,1.8,0.1,3.1-0.3
		C123.5,231.1,124.4,230.9,125.7,230.7L125.7,230.7z M99.5,226.9c3.3-4.5,6.2-10,9-16.6c0.3-0.7,0.6-1.5,1-2.2
		c0.3-0.6,1.5-0.4,3.8,0.6c2.1,1.1,2.6,1.8,1.5,2.3c-1.7,1.6-3.7,3.9-5.7,7c-2.1,3.1-3.5,5.3-4.3,6.4c-0.6,0.9-1,1.7-1.1,2.7
		c0.8,0.4,1.6,0.8,2.4,1.3c0.6,0.4,0.8,1,0.6,1.7c-0.6,2-0.9,5.3-0.8,9.9c0,4.7-0.1,8.5-0.4,11.4c-0.1,0.7,0,1.5,0.3,2.1
		c0.5,1-0.8,1.3-4,0.6c-0.8-0.1-1-0.6-0.7-1.2c0.5-3.4,0.8-7.9,0.8-13.5c0-3-0.1-5.5-0.3-7.5c-0.4,0.3-0.8,0.6-1.1,0.9
		c-2,1.3-4.5,2.7-7.6,4.1c-1.6,0.6-2,0.3-1-1C93.8,233.6,96.3,230.6,99.5,226.9L99.5,226.9z"/>
	<path fill="#FFFFFF" d="M42,214.5c-0.5-2.1-0.4-3.8,0.4-5c1.5-2.2,2.7-2.6,3.7-1.3c0.3,0.3,0.5,0.9,0.9,2c0.3,1,0.7,1.9,1.3,2.6
		c0.5,0.8,1,1.5,1.3,2.1c0.1,0.4-0.1,0.9-0.7,1.4c-0.6,0.5-1.5,0.6-2.7,0.2c-1.2-0.4-2.2-0.7-3-0.9C42.4,215.4,42,215,42,214.5
		L42,214.5z M47.8,245.6c3.8-0.5,6.8-0.1,9.3,1.2c1.5,0.7,2.8,1.5,3.9,2.2c1,0.8,0.9,1.3-0.2,1.7c-1,0.6-2.2,1.7-3.6,3.2
		c-1.5,1.5-2.2,3.1-2,4.5c0,0.6-0.1,1-0.3,1.2c-0.3,0.1-0.8,0.1-1.5-0.2c-1.7-0.2-3.8-0.3-6.1-0.2c-2.6,0-5.4,0.4-8.1,0.9
		c-0.6,0.4-1.2,0-1.7-1.1c-0.5-0.6-1.5-1.7-2.9-3.4c-1.5-1.7-2.4-3.6-2.8-5.8c-0.1-1.3,0.3-1.8,1.3-1.7c1.7,0.1,3.8-0.2,6.4-0.9
		c0.4-0.1,1-0.2,1.8-0.5c0.1-0.2,0.3-0.5,0.5-0.9c0.1-0.4,0.3-1.3,0.5-3.1c-1.9,0.3-3.7,0.7-5.4,1c-2.6,0.7-3.8,0.7-3.8,0.2
		c-0.1-0.5-0.3-1-0.3-1.5c-0.1-0.4,0.1-0.6,0.6-0.7c3.8-0.9,6.8-1.5,9.1-2c0-1,0.1-2.3,0.3-3.6c-4.2,0.7-7.7,1.4-10.3,2.3
		c-0.5,0.3-1.2-0.3-2.1-1.8c-0.1-0.1-0.2-0.1-0.1-0.2c-1.5,3.4-3.1,6.5-4.8,9.4c-0.4,0.5-0.5,1.3-0.4,2.5c0,1.3-0.6,2.3-1.5,3.1
		c-3.3,2.4-6.4,3.6-9.3,3.3c-1-0.1-1-0.6,0.3-1.3c4.6-3,7.9-7.2,10-12.6c3.9-9.2,5.7-15.4,5.4-18.7c-0.4-0.9-0.1-1.4,1-1.4
		c5.2-0.5,9-1,11.3-1.7c2.2-0.6,4.5-1,7-1.2c2.4-0.2,4-0.6,5.2-0.9c1.3-0.7,2.1-0.7,2.4-0.1c0.1,0.6,0.4,1.2,1.1,1.7
		c0.4,0.5,0.8,1.3,1,2.5c0,1.2-0.6,1.7-2,1.4c-1.7-0.4-4.7-0.4-8.8-0.1c-0.4,0.8-0.5,1.5-0.5,2c-0.1,0.3-0.2,0.8-0.1,1.7
		c4.1-0.9,6.9-1,8.4-0.4c1.2,0.5,2.4,1,3.6,1.5c1.3,0.6,1.4,1.2,0.4,1.7c-0.8,0.6-1.4,1.4-1.8,2.4c0.2,0,0.4,0,0.8,0
		c2.9-0.1,4.7-0.3,5.2-0.6c0.4-0.1,0.7,0.2,1,0.8c0.3,0.7,0.6,1.1,1.1,1.3c0.3,0.2,0.5,1,0.5,2.3c-0.1,1.3-0.5,1.7-1.2,1.2
		c-2.8-0.6-5.7-0.9-8.7-1c-0.4,1.6-0.6,3.3-0.6,5.2c0.1,1.3-0.8,1.9-3,1.6c-2.1,0.1-4.2,0.2-6.1,0.4c0,1.3,0.1,2.1,0.3,2.4
		C47.5,244.9,47.7,245.3,47.8,245.6L47.8,245.6z M47,248.6c-4.7,0.8-7.6,1.7-8.8,2.8c-0.5,0.6-0.5,1.5,0.1,2.9
		c0.4,1.3,0.9,2,1.5,1.9c0.5,0.1,1.2,0.1,2.1-0.2c0.8-0.2,2.2-0.4,4-0.6c1.7-0.1,3-0.2,4.2-0.3c1.3-0.2,2.2-1.1,2.6-2.7
		c0.4-1.7,0.4-2.7,0.1-3.3C51.8,248.5,49.8,248.3,47,248.6L47,248.6z M31.9,235c3.3-0.7,7-1.3,11.1-2.1c0-1.3,0-2.5,0.1-3.4
		c-0.5,0.1-0.9,0.2-1.2,0.2c-2.8,0.7-4.9,1.2-6.2,1.7c-0.8,0.4-1.2,0-1.2-1.3c-0.1-1.2,0.1-1.9,0.6-2c0.4-0.1,1-0.1,1.8-0.2
		c1.7-0.2,3.7-0.6,6.1-1.2c-0.1-1.8-0.4-3.1-0.8-3.9c-1.8,0.3-3.6,0.7-5.5,1c-1.8,0.4-2.8,1.5-3,3.4c-0.9,2.6-1.9,5.1-2.8,7.4
		C31.1,234.8,31.5,234.9,31.9,235L31.9,235z M52.8,228.7c-0.8-0.6-2.6-0.7-5.4-0.2c-0.1,1-0.2,2.3-0.1,3.6c0.7-0.1,1.5-0.2,2.5-0.3
		c1.2-0.2,2.4-0.3,3.6-0.4C53.4,230.1,53.2,229.2,52.8,228.7L52.8,228.7z M52.9,235c-1.3,0.1-2.5,0.2-3.6,0.3
		c-0.8,0.1-1.5,0.1-2.2,0.2c-0.1,1.3-0.2,2.4-0.1,3.4c0.8-0.1,1.6-0.1,2.4-0.2c1.2-0.1,2-0.2,2.4-0.6
		C52.1,237.6,52.4,236.6,52.9,235L52.9,235z"/>
	<path fill="#FFFFFF" d="M100.6,169.5l-10.4-10.6c-7.1,7.5-19.1,11.9-30.6,11.9c-25,0-42.5-19.4-42.5-44.3c0-25,17.5-44.8,42.5-44.8
		c12.4,0,23.6,5.3,31.8,13.3l8.3-13.2c-10.3-9.6-24.7-15.2-40.1-15.2C26.8,66.7,0,93.5,0,126.2s26.8,59.5,59.5,59.5
		C75.6,185.7,90.2,179.8,100.6,169.5L100.6,169.5z M203.3,182.4c0,0-0.5-8.8-0.5-13.3V86.4c0-2.4,0.3-17.3,0.5-19.9l-17,2.9
		c0,0,1,10.3,1,18.3V130h-58.9V86.4c0-2.4,0.3-17.3,0.3-19.9l-17,2.9c0,0,1,10.3,1,18.3v81.5c0,2.4-0.3,13.2-0.3,13.2h16.4
		c0,0-0.3-8.8-0.3-13.3v-25.4h58.9v25.5c0,2.4-0.3,13.2-0.3,13.2H203.3L203.3,182.4z M242.4,182.4c0,0-0.8-8.8-0.8-13.2V85.9
		c0-2.2,0.3-17.2,0.3-19.6l-16.7,2.9c0,0,0.8,10.3,0.8,17.8v82.3c0,2.4-0.6,13-0.6,13H242.4L242.4,182.4z M358.8,68.4
		c-2.6,0-17.2-1-17.2-1c0.2,3.2,1.6,20.2,1.8,26.2c0.2,6.1,1.1,54.6,1.1,54.6l-46.2-51l-32.6-34.3c0,0-0.6,23.7-0.6,29.5V170
		c0,2.1-0.2,12.4-0.2,12.4h15.4c0,0-0.3-8.5-0.3-12.5V99.2l78.3,87.4c0,0,0-87.9,0-93.4C358.3,88.2,358.8,68.4,358.8,68.4
		L358.8,68.4z M474.1,182.4c0,0-1-1.1-5-10.3L418.8,57.7l-50.4,114.4c-4,9.1-5,10.3-5,10.3h18c0,0,0.3-1.8,3.4-9l12.4-29.7h43.3
		l12.4,29.7c3,7.2,3.4,9,3.4,9H474.1L474.1,182.4z M434.5,129.6H403L418.8,93L434.5,129.6L434.5,129.6z"/>
	<path fill="#FFFFFF" d="M40.5,24.6c-1.1,2.8-3.2,7.9-9.2,7.9c-5,0-10.2-3.8-10.2-12.5c0-9.1,4.9-13.3,10.3-13.3
		c1.7,0,5.3,0.5,6.9,4.1c0.5,1.1,0.7,2.1,0.8,3.2l7.7-2.1C45.9,8.5,43.1,0,31.2,0c-13.5,0-18,10.6-18,19.6c0,5.9,1.9,11.3,5,14.7
		c2.5,2.7,6.8,5.3,12.9,5.3c6.8,0,13.1-3.3,16.2-11.8L40.5,24.6L40.5,24.6z M67.2,12l-5.4,18.7L56.6,12h-6.8l8.5,26.2
		c0.1,0.4,0.2,0.7,0.2,1.1c0,1.8-1.9,2.6-4,2.6c-1,0-1.5-0.1-2.1-0.2v5.7c1.1,0.2,2,0.3,3.7,0.3c6.3,0,7.4-3,8.6-6.5L74,12H67.2
		L67.2,12z M85.6,26.3c0.1-2.4,0.1-6,4.1-7.6c0.8-0.4,2.1-0.7,3.8-0.7c0.4,0,0.6,0,1.3,0.1v-6.3c-0.5-0.1-1.1-0.2-2.1-0.2
		c-2.6,0-5.1,1-7.3,4.1V12h-6.6v26.5h6.8V26.3L85.6,26.3z M99.1,29.1c0,2.2,0,5.1,2.1,7.5c1.3,1.4,3.7,2.8,7.2,2.8
		c4.2,0,6.3-2.1,7.5-3.3v2.5h6.7V12h-6.9v13.4c-0.1,2.1-0.2,5.4-3.1,7c-0.7,0.4-1.5,0.6-2.3,0.6c-1.6,0-3.8-1-4.2-4.1
		c-0.1-0.6-0.1-1.3-0.1-2V12h-6.9V29.1L99.1,29.1z M151.3,15.8c-0.8-0.9-1.6-1.8-3.2-2.7c-2.4-1.4-5.1-1.9-7.5-1.9
		c-6.3,0-11.1,3.7-11.1,9c0,5.8,5.4,7,8.7,7.7c3,0.6,4.5,0.9,5,1.1c0.5,0.2,2,0.6,2,1.9c0,1.2-1.9,2.6-4.8,2.6
		c-1.7,0-3.7-0.5-5.2-1.6c-1.2-0.8-1.7-1.6-2.2-2.3l-5.1,4.3c0.7,1,1.5,2.1,3.6,3.2c2.7,1.5,5.6,2.1,8.5,2.1c8,0,12.4-4.2,12.4-9.3
		c0-6.4-6.4-7.5-9.8-8.1c-3.3-0.5-6.1-0.8-6.1-2.8c0-1,1.1-2.6,4.1-2.6c3.3,0,5.3,2,6.4,3.3L151.3,15.8L151.3,15.8z M181.6,7.4h10.6
		V1.1h-28.7v6.3h10.5v31.2h7.6V7.4L181.6,7.4z M213.5,38.5c-1-2.8-1-4.1-1.1-6.6v-12c0-3.3-0.4-5-2.9-6.8c-2.3-1.6-6.4-1.9-8.3-1.9
		c-2.4,0-5.7,0.4-8,1.9c-3.2,2.2-3.4,5.4-3.6,7h6.3c0.2-1.5,0.5-3.6,5-3.6c4.7,0,4.7,2.4,4.7,4c-1.4,0.6-2.2,0.8-5.5,1.4
		c-5.4,0.8-8.9,1.4-10.7,5.2c-0.5,1.2-0.7,2.5-0.7,3.8c0,5.6,4,8.4,9.3,8.4c2.9,0,5.8-0.8,7.8-2.9c0.2,1.2,0.2,1.6,0.3,2.1H213.5
		L213.5,38.5z M205.7,25.9c0,3.6,0,4.6-1.5,6c-1.2,1-2.8,1.6-4.5,1.6c-2.8,0-3.9-1.4-3.9-2.9c0-2.6,2.8-3.1,5.2-3.6
		C204,26.5,204.7,26.3,205.7,25.9L205.7,25.9z M243.2,21.7c-0.1-3-0.3-7.8-5.6-9.8c-1.5-0.5-2.8-0.6-3.6-0.6c-4,0-6.3,2.1-7.6,3.3
		l0.1-2.5h-6.7v26.5h6.9V25.1c0.1-2.1,0.2-5.4,3.1-7c0.7-0.4,1.6-0.6,2.3-0.6c2.1,0,3.1,1.4,3.3,1.8c0.8,1.3,0.8,2.9,0.9,4.3v14.9
		h6.9V21.7L243.2,21.7z M267.5,12v1.9c-1-1-2.6-2.6-6.7-2.6c-7.2,0-12.5,5.4-12.5,13c0,7.5,4.7,12.9,12.3,12.9
		c4.1,0,5.8-1.6,6.6-2.3c0,2.6,0,4.3-1.6,5.6c-1.1,0.9-3,1.2-4.6,1.2c-4.2,0-4.5-1.8-4.6-2.9h-7.3c0.2,3.3,1.3,8.1,11.4,8.1
		c3,0,7.2-0.5,9.9-2.3c3.6-2.3,3.8-5.5,3.7-11.8V12H267.5L267.5,12z M267.4,24c0.1,1.4,0,3.9-1.2,5.5c-0.7,1-2.1,2.1-4.5,2.1
		c-1.9,0-5-0.9-6.1-4.6c-0.2-0.8-0.3-1.7-0.3-2.8c0-4.8,2.9-6.9,6.1-6.9c2.5,0,4,1.1,4.8,2.3C267.2,20.9,267.3,22.8,267.4,24
		L267.4,24z M325.3,1.1h-7.6v13.3H302V1.1h-7.6v37.4h7.6V21.3h15.7v17.2h7.6V1.1L325.3,1.1z M356.2,38.5c-1-2.8-1-4.1-1.1-6.6v-12
		c0-3.3-0.4-5-2.9-6.8c-2.3-1.6-6.4-1.9-8.3-1.9c-2.4,0-5.7,0.4-7.9,1.9c-3.2,2.2-3.4,5.4-3.6,7h6.3c0.2-1.5,0.5-3.6,5-3.6
		c4.7,0,4.7,2.4,4.7,4c-1.4,0.6-2.2,0.8-5.5,1.4c-5.4,0.8-8.9,1.4-10.7,5.2c-0.5,1.2-0.7,2.5-0.7,3.8c0,5.6,4,8.4,9.3,8.4
		c2.9,0,5.8-0.8,7.8-2.9c0.2,1.2,0.2,1.6,0.3,2.1H356.2L356.2,38.5z M348.4,25.9c0,3.6,0,4.6-1.5,6c-1.2,1-2.8,1.6-4.5,1.6
		c-2.8,0-3.9-1.4-3.9-2.9c0-2.6,2.8-3.1,5.2-3.6C346.8,26.5,347.5,26.3,348.4,25.9L348.4,25.9z M370,1.1h-6.9v37.4h6.9V1.1L370,1.1z
		 M385.3,1.1h-6.9v37.4h6.9V1.1L385.3,1.1z M426.9,24.1c-0.4-6.1-4.3-12.8-13.3-12.8c-9.4,0-13.7,6.9-13.7,13.9c0,4.1,1.6,8,4,10.4
		c2.3,2.3,5.7,3.7,9.4,3.7c4.7,0,8.5-2.1,10.7-4.8C426.1,31.8,427.2,27.7,426.9,24.1L426.9,24.1z M419.7,24.9
		c0.3,5.5-2.8,8.1-6.2,8.1c-3.1,0-6.5-2.3-6.5-7.8c0-4.7,2.4-7.7,6.3-7.7C417.3,17.5,419.5,20.6,419.7,24.9L419.7,24.9z M440.2,16.7
		h5.5V12h-5.5c0-2.5,0-2.9,0.1-3.2c0.1-0.7,0.3-2.1,3.3-2.1c0.3,0,0.8,0,2.1,0.2V0.9c-1.2-0.2-2.4-0.3-4.4-0.3c-7.8,0-8,4.9-8,7.8
		V12h-4v4.7h4v21.8h6.9V16.7L440.2,16.7z"/>
</g>
</svg>
