<?xml version="1.0" encoding="utf-8"?>
<!-- Generator: Adobe Illustrator 18.1.1, SVG Export Plug-In . SVG Version: 6.00 Build 0)  -->
<!DOCTYPE svg PUBLIC "-//W3C//DTD SVG 1.1//EN" "http://www.w3.org/Graphics/SVG/1.1/DTD/svg11.dtd">
<svg version="1.1" xmlns="http://www.w3.org/2000/svg" xmlns:xlink="http://www.w3.org/1999/xlink" x="0px" y="0px"
	 viewBox="165.8 80.5 462.2 450.7" enable-background="new 165.8 80.5 462.2 450.7" xml:space="preserve">
<g id="qin">
	<path display="inline" fill="#333333" d="M586.5,397.6c-59.2,1-89.1-1-89.1-6.4c-1-5.4-2-10.8-2.4-15.2
		c-4.9-19.1-22-40.6-50.4-64.6c-16.6-12.7-31.8-22-45.5-28.9c-3.9,0.5-7.8,1-11.3,1.5c-15.2,2-29.4,4.4-42.1,6.4
		c-22.5,30.8-47.5,58.3-73.9,82.3c-8.3,7.3-12.7,14.2-12.7,20.1c-1,6.4-8.8,11.3-23,16.2c-15.2,4.9-27.9,7.3-36.2,7.3
		c-5.9,0.5-14.7,1-25.5,1.5c-11.8,0.5-9.3-4.4,7.3-15.2c18.1-9.8,38.7-21.5,61.7-34.3c21.5-16.6,44.1-40.6,67.6-71
		c-24,4.9-44.6,10.8-60.7,17.1c-3.9,2.4-9.3-2.4-16.6-14.7c-7.8-11.3-3.9-15.2,11.3-11.8c25-6.9,52.9-12.7,83.7-19.1
		c3.9-8.8,7.8-18.1,12.7-28.9c-14.7,3.4-23,5.9-25.9,7.8c-11.3,6.9-17.6,7.8-18.6,2c-2-5.4-4.9-11.3-7.8-17.1
		c-3.9-6.4-3.9-9.8,0.5-9.8c3.9,0,8.3,0,13.2-1c11.3-2.9,26.9-5.4,48-9.3c2.9-9.8,5.9-20.1,9.3-31.8c-32.8,5.9-51.4,10.3-55.3,13.2
		c-12.7,7.3-20.1,8.3-20.6,2c-2-5.9-4.9-12.2-8.3-19.6c-3.9-6.4-3.9-9.8,1-10.3c3.9,0,7.8,0,13.7-1c17.1-3.9,42.6-8.3,75.9-13.2
		c6.9-31.8,9.8-51.9,8.8-61.2c-2.9-10.3,3.9-12.7,20.6-7.8c15.2,4.9,21.1,10.8,18.1,17.1c-2,2-6.9,17.1-13.2,46
		c19.1-2.9,45-6.9,77.8-11.8c3.9-2,6.9,4.4,8.8,19.6c1,15.2-4.4,20.1-15.2,14.2c-25.5,1.5-52.4,4.4-79.8,7.8c-1,1-1.5,2-0.5,2
		c-3.9,10.3-6.4,19.6-8.3,28.9c18.1-3.4,45-8.3,82.3-13.7c2.4-2,4.9,3.9,7.3,17.6c1,13.2-3.4,17.6-12.7,12.2
		c-26.9,2-55.8,5.9-86.7,11.3c-4.9,10.3-8.8,20.1-11.8,28.4c9.3-2,19.6-3.4,30.4-5.4c26.9-3.4,52.4-6.4,76.4-8.3
		c24-2,38.7-3.9,43.1-6.4c2.9-1,5.4,1,7.3,5.9c2,4.9,4.4,8.3,8.3,9.8c2.4,2,3.9,8.3,3.9,18.1c0,9.3-2.4,12.7-8.3,9.3
		c-23-4.9-48-6.9-74.9-6.9c5.9,7.8,13.7,16.6,24,25.5c18.1,18.1,39.7,34.3,65.1,46.5c35.3,12.2,63.6,24,85.7,34.3
		c3.9,3.4,1.5,6.4-6.4,8.8C608,396.1,597.7,397.6,586.5,397.6z M265.3,469c16.6-14.2,36.7-28.9,60.7-45.5c2-1,3.4-1,4.9,0
		c1,1,0.5,2.4-0.5,4.4c-18.1,26.4-29.4,48-34.3,64.6c-1,12.2-4.9,17.1-10.8,13.7c-6.4-2.9-13.2-8.8-20.1-18.6
		c-7.3-9.3-9.8-14.7-6.4-15.7C260.9,471.5,262.8,470.5,265.3,469z M304.4,356.4c34.8-19.1,60.2-31.3,76.9-37.2
		c16.2-4.4,25.9-8.3,29.9-11.8c2-3.4,4.9-2.4,9.3,2.4c2.9,4.9,6.4,10.3,12.2,17.1c4.9,6.9,4.4,10.3-0.5,10.3
		c-15.2,1-32.3,3.9-51.4,9.3c6.4,1.5,12.2,2.9,18.1,4.4c6.9,1,7.8,3.9,3.4,8.3c-3.9,2.9-6.4,7.8-7.3,13.7
		c14.2-2.4,28.9-4.4,43.1-5.9c17.1-1.5,27.4-2.9,30.4-4.9c2-1,3.9,1,6.9,5.4c2,4.9,4.4,8.3,7.3,9.8c2.9,2,4.4,6.9,4.9,15.7
		c0,8.8-2.9,11.8-8.3,8.8c-25-4.9-53.4-5.4-85.2-2c-1,24-1,54.3,0.5,90.6c2,23,0,34.8-4.9,34.8c-13.2-2.9-24.5-7.3-33.3-12.2
		c-7.8-3.4-7.8-7.3,0.5-11.8c6.9-3.9,9.8-9.3,9.8-15.7c-1.5-31.3-2.9-58.3-3.9-81.3c-33.8,5.9-59.7,12.7-78.8,19.6
		c-3.9,2.4-9.3-2-16.2-12.7c-7.3-11.3-3.9-14.7,10.8-11.8c24-6.9,51.4-13.7,83.7-20.6c0-4.9,0-9.3,0-14.2c0-5.4-0.5-9.8-0.5-12.7
		c-22,6.4-40.1,9.3-54.3,9.8C301,361.8,300,359.9,304.4,356.4z M424.4,429.4c-5.9-4.9-4.4-7.3,3.9-8.3c31.8,5.4,59.2,13.2,82.3,23.5
		c2.9,1.5,3.9,10.3,3.4,25.5c-1,15.7-3.9,24.5-7.8,26.9c-4.9,2.4-8.8,1.5-11.3-2.4c-2.9-3.4-6.9-8.8-12.7-15.2
		C457.2,457.8,437.6,441.1,424.4,429.4z"/>
</g>
<g id="han">
	<path display="inline" fill="#333333" d="M202.1,376.5c-3.9-28.9,0-58.8,11.8-90.6c9.3-31.3,18.1-44.1,25.9-38.2
		c7.3,5.9,14.7,12.2,22.5,19.6c6.4,7.8,2.9,15.2-9.8,22.5c-15.2,11.8-25,32.3-28.4,62.2c-3.4,29.4-1.5,46.5,5.9,49.4
		c11.8,4.9,25.9-1,43.6-18.1c16.2-16.6,29.9-36.7,41.1-60.2c5.9-13.2,7.8-10.3,6.4,7.8c-5.9,22-13.2,41.6-21.1,57.8
		c-8.8,16.6-21.1,33.3-37.2,50.9c-6.9,6.9-12.7,14.7-17.6,22.5c-5.4,8.8-12.2,3.9-19.6-15.2C212.4,428.9,204.1,405.4,202.1,376.5z
		 M265.8,209.5c-10.3-21.1-14.2-38.2-10.3-52.9c6.9-18.1,14.2-22.5,23.5-15.2c2.9,2.4,5.9,8.3,10.3,16.6c3.9,9.3,8.8,17.1,15.2,23
		c5.4,6.9,10.3,13.2,14.7,18.6c2,2.4,1,6.4-2.4,11.3c-3.9,4.9-10.3,6.4-18.1,5.4c-9.8-0.5-17.1-1-22-1.5
		C270.7,214.9,266.7,213.5,265.8,209.5z M431.3,368.7c-24.5,32.3-57.8,55.3-97.9,68.1c-11.3,3.9-22,4.4-30.8,2
		c-9.8-2.4-10.3-5.4-1.5-8.8c36.2-13.2,67.6-38.2,95.5-74.4c2-2.9,3.9-5.9,5.9-9.3c-18.1-13.2-29.4-24-33.3-32.3
		c-5.4-10.8-14.7-16.2-25.9-17.6c-15.7-2.9-18.6-13.7-9.8-32.3c7.8-18.1,14.2-22,21.1-12.2c1,9.8,7.3,18.1,19.1,24
		c8.8,4.9,23.5,20.1,45.5,43.6c14.2-23.5,24-44.1,28.9-62.2c6.9-25.9,5.9-39.7-2-40.6c-13.7-1.5-35.7,3.9-65.1,17.6
		c-3.9,2-9.3-1-15.2-9.3c-7.8-7.3-7.8-11.3,0-13.2c18.1-7.8,38.7-15.7,61.2-25.5c22-9.3,39.2-10.8,51.4-6.4
		c10.3,2.4,22.5,8.3,36.2,17.6c13.7,9.8,14.7,17.1,3.9,21.5c-16.2,5.9-29.4,21.5-38.7,47.5c-10.8,26.4-22,52.4-33.3,79.3
		c-1,1.5-2,2.9-2.4,3.9c21.1,24,40.1,41.6,58.3,52.9c9.3,6.9,23,13.7,40.6,19.6c17.1,6.9,40.1,18.1,69,32.8
		c10.8,6.4,16.2,9.8,16.2,11.8c-1,2-13.7,4.4-37.2,6.9c-36.2,2-73.9-2.9-112.1-14.7c-8.8-3.4-12.2-6.9-11.3-10.3
		c0.5-2.9,1-7.3,1-13.7C462.1,408.3,449.4,386.3,431.3,368.7z"/>
</g>
<g id="tang">
	<path display="inline" fill="#333333" d="M427.8,385.8c28.9-3.9,52.4-0.5,71.5,9.8c11.3,5.4,21.1,11.8,29.9,17.6
		c7.3,6.4,6.9,10.8-1.5,13.7c-7.8,4.9-17.1,13.7-27.4,25.5c-11.8,12.2-16.6,24.5-15.7,35.7c0,4.9-1,8.3-2,9.3c-2,1-5.9,0.5-11.3-1.5
		c-13.2-2-28.9-2.4-47-1.5c-20.1,0-41.1,2.9-62.2,7.3c-4.9,2.9-9.3,0-13.2-8.8c-3.9-4.9-11.3-13.7-22-27.4
		c-11.3-13.2-18.6-28.4-21.5-46.5c-1-10.3,2.4-14.7,10.3-13.2c13.2,0.5,29.4-2,49-7.3c3.4-1,7.8-2,13.7-3.9c1-2,2-3.9,3.9-6.9
		c1-2.9,2-10.8,3.9-25c-14.7,2.4-28.4,5.4-41.6,8.3c-19.6,5.4-28.9,5.9-28.9,1.5c-1-3.9-2-7.8-2-11.8c-1-2.9,0.5-4.9,4.4-5.9
		c29.4-6.9,52.4-12.2,69.5-16.2c0-8.3,0.5-18.1,2-28.9c-32.3,5.4-58.8,11.3-78.8,18.1c-3.9,2.4-9.3-2.4-16.2-14.7c-1-0.5-1.5-1-1-2
		c-11.3,27.4-24,51.9-36.7,74.9c-2.9,3.9-3.9,10.8-2.9,20.1c0,10.3-4.4,18.1-11.8,25c-25,19.1-49,28.4-71,26.4
		c-7.8-1-7.3-4.4,2.4-10.3c35.3-24,60.7-57.3,76.4-100.9c29.9-73.4,43.6-123.4,41.6-149.3c-2.9-7.3-0.5-11.3,7.8-11.3
		c40.1-3.9,68.5-8.3,86.7-13.2c17.1-4.9,34.8-7.8,53.4-9.8c18.1-2,30.8-4.4,39.7-7.3c10.3-5.4,16.2-5.9,18.1-1
		c1,4.9,3.4,9.3,8.3,13.2c3.4,3.9,5.9,10.3,7.3,19.6c0,9.3-4.9,13.2-15.2,11.3c-13.2-3.4-35.7-3.4-67.6-1
		c-2.9,6.4-3.9,11.8-3.9,16.2c-1,2.4-1.5,6.4-0.5,13.2c31.3-6.9,52.9-7.8,64.1-2.9c8.8,3.9,18.1,8.3,27.9,12.2
		c9.8,4.4,10.8,9.3,2.9,13.7c-5.9,4.9-10.8,11.3-13.7,19.1c1.5,0,3.4,0,6.4,0c22-1,35.7-2.4,40.1-4.9c2.9-1,5.4,1.5,7.3,6.4
		c2,5.4,4.4,8.8,8.3,10.8c2.4,2,3.9,8.3,3.9,18.1c-1,10.3-3.9,13.7-9.3,9.8c-21.1-4.9-43.6-7.3-66.6-8.3
		c-2.9,12.7-4.9,26.4-4.9,41.6c1,10.8-6.4,15.2-23,12.7c-16.2,0.5-31.8,1.5-47,2.9c0,10.3,0.5,17.1,2.4,19.6
		C425.9,380.4,426.8,383.4,427.8,385.8z M305.9,301.1c25-5.4,53.4-10.8,85.2-16.6c0-10.3,0-19.6,0.5-27.4c-3.9,0.5-6.9,1.5-9.3,2
		c-21.1,5.4-37.2,9.8-47.5,13.2c-5.9,3.4-9.3,0-9.3-10.3c-0.5-9.8,0.5-15.2,4.9-15.7c2.9-0.5,7.3-1,13.7-1.5
		c13.2-2,28.4-4.9,46.5-9.3c-1-14.7-3.4-24.5-5.9-30.8c-13.7,2.4-27.9,5.4-42.1,8.3c-13.7,2.9-21.1,12.2-23,27.4
		c-6.9,21.1-14.2,41.1-21.1,59.2C300.5,299.6,303,300.1,305.9,301.1z M421.9,410.3c-35.7,6.4-57.8,13.2-67.6,22
		c-3.9,4.9-3.9,12.2,1,23c2.9,10.3,6.9,15.7,11.3,15.2c3.9,1,9.3,0.5,16.2-1.5c6.4-1.5,16.6-2.9,30.8-4.9c12.7-1,23-1.5,31.8-2.4
		c10.3-1.5,16.6-8.8,19.6-21.5c2.9-13.2,2.9-21.5,1-26.4C458.2,408.8,443.5,407.8,421.9,410.3z M383.3,137.1
		c-3.9-17.1-2.9-30.4,2.9-40.1c11.8-17.6,20.6-21.1,28.4-10.3c2,2.4,3.9,7.3,6.9,15.7c2,8.3,5.4,15.2,9.8,21.1
		c3.9,6.4,7.3,11.8,10.3,17.1c1,2.9-1,6.9-5.4,11.3c-4.9,3.9-11.8,4.4-20.6,1.5c-9.3-3.4-17.1-5.9-23-7.3
		C386.7,144.4,383.8,141.5,383.3,137.1z M467,301.6c-9.8,0.5-19.1,1.5-27.4,2.4c-5.9,0.5-11.8,1-16.6,1.5c-1,10.3-1.5,19.1-0.5,27.4
		c6.4-0.5,12.2-1,18.1-1.5c9.3-0.5,15.2-2,18.1-4.9C460.6,321.7,463.1,313.8,467,301.6z M466.5,251.2c-5.9-4.9-19.6-5.4-41.6-1.5
		c-1,8.3-1.5,18.6-1,28.9c5.4-1,11.8-1.5,19.1-2.4c9.3-1.5,18.6-2.4,27.9-3.4C470.9,261.9,469,255.1,466.5,251.2z"/>
</g>
<g id="yuan">
	<path display="inline" fill="#333333" d="M251.1,294.7c38.2-12.2,84.7-25,139-38.2c25-5.9,49-10.3,73-13.7
		c23-2.9,36.2-5.4,40.6-7.8c2.9-1.5,5.4,0.5,8.8,5.9c2.9,5.9,6.4,9.8,10.8,11.8c3.9,2,5.9,8.8,6.9,20.6c0,11.3-2.9,15.7-9.8,12.2
		c-37.2-5.4-80.3-2.9-129.3,7.3c-3.9,1-6.9,2-9.8,2c-6.9,9.3-14.2,21.1-20.6,34.3c-16.2,29.9-30.4,50.4-40.6,63.2
		c-11.8,12.2-16.6,24-15.7,33.3c2,8.8-2,15.7-11.8,20.6c-25,20.1-52.4,31.8-82.3,34.3c-6.9,0.5-7.3-2.4-0.5-9.3
		c16.2-16.6,33.3-31.8,52.9-46.5c11.3-10.3,27.9-33.3,50.9-69c14.2-24,19.6-39.7,16.2-48.5c-28.4,7.8-51.9,15.7-69,24
		c-5.9,3.9-14.2-2-24.5-18.1C224.6,297.2,229.5,290.8,251.1,294.7z M315.7,168.4c-4.9-8.8,0-12.7,15.2-12.2
		c26.9-1.5,50.4-5.9,70.5-13.2c20.1-6.9,35.7-10.3,47-12.2c6.9-1,10.8,3.9,12.7,15.2c1,10.8-1.5,17.6-6.4,20.1
		c-19.1,8.8-36.2,16.6-51.4,24.5c-16.6,7.3-27.9,10.3-34.3,7.8c-6.4-2-16.6,0-29.4,5.9c-7.8,4.9-12.7,2.4-14.2-7.8
		C324,187,320.6,177.7,315.7,168.4z M524.8,491.1c-33.8,1.5-59.2,1.5-76.9-1c-8.3-1-15.2-1.5-20.1-2c-5.4,0-16.2-15.7-31.3-48
		c-7.8-17.1-8.8-40.1-2.4-70c4.9-29.9,6.9-49,5.9-58.3c-1-7.8,6.4-9.8,22.5-6.9c15.2,3.4,18.6,9.8,10.3,19.1
		c-9.3,18.6-14.7,39.2-15.2,61.7c-2,22.5,0.5,37.2,7.8,45c10.3,12.2,31.3,20.1,63.6,22c31.8,2.4,53.9-1.5,66.1-11.8
		c7.8-12.2,8.3-42.1,1.5-90.6c-2-7.8-0.5-8.8,4.4-2.9c19.1,40.1,31.8,74.4,39.7,103.3c4.9,17.6,6.9,27.9,6.9,29.9
		c-1,2-4.9,3.9-11.3,4.9C582,487.6,558.1,489.6,524.8,491.1z"/>
</g>
<g id="ming">
	<path display="inline" fill="#333333" d="M240.8,348.1c1-60.2,2.4-111.6,4.4-153.7c-1-7.3,1-12.2,5.9-14.2
		c7.8-2.9,16.2-4.9,26.4-5.9c8.3-1,20.6-4.9,36.2-11.8c14.2-6.4,27.4-6.9,39.7-1c10.8,2.9,18.1,6.4,23.5,10.3
		c4.9,3.9,5.4,7.3,2.4,9.3c-3.9,2.4-7.3,5.9-10.3,10.3c-8.3,29.9-11.3,77.8-7.8,143.9c2.9,65.6,2,97.9-2,96
		c-2.9,1-19.6-8.3-50.4-27.4c-18.1-13.2-22.5-19.6-12.2-19.1c16.2,7.3,26.9,9.3,31.3,6.4c2-8.8,2.4-27.4,2.4-55.8
		c-59.2,44.1-89.6,68.5-91.6,74.4c-5.9,10.3-15.7,9.3-28.9-3.4c-13.2-11.8-13.2-19.6,0.5-23.5c2-1,11.3-5.9,28.4-16.2
		C239.8,361.3,240.3,355.4,240.8,348.1z M329.4,286.9c-2.9-57.3-4.9-88.1-6.9-92.5c-2-3.9-8.3-5.4-18.1-4.9c-11.8,1-20.1,4.4-24,8.8
		c-5.9,4.9-9.3,22.5-10.3,53.4c2.9,1,5.9,1,9.8-0.5c6.4-2,13.7-3.9,22.5-6.9c3.4-1,6.4,2.9,8.8,11.3c1,8.3,0,13.2-2.9,14.2
		c-6.4,2-13.7,4.9-20.6,7.8c-7.3,2.4-13.7,5.9-17.6,9.8c0,15.7,0.5,33.3,2,53.4c-1,2.9-1,5.4,0,6.9c12.2-7.8,27.4-16.2,45.5-26.9
		c4.9-3.9,8.3-7.3,12.2-9.8C329.9,303.1,329.4,295.7,329.4,286.9z M393.1,390.2c9.8-25.5,13.7-103.8,12.7-235.5
		c0-5.4,3.9-7.8,13.2-7.8c6.9,0,15.7-1,27.9-3.4c10.3-2.4,23-5.9,39.7-9.8c14.2-3.9,29.4-3.4,46.5,0.5c21.1,0.5,28.9,5.9,24,15.2
		c-11.3,14.7-16.2,55.3-14.2,121.9c1,67.1,2.9,130.2,6.9,190c-2,33.3-3.9,51.4-5.9,54.3c-2.9,3.4-12.7,1.5-28.9-5.4
		c-34.3-17.1-59.2-38.7-73.4-66.1c-5.9-9.3-4.4-11.3,4.4-6.4c19.1,12.7,33.3,20.6,43.6,22.5c9.8,2,16.2,2,19.1-0.5
		c2.4-8.3,2.9-37.7,1.5-87.1c-2.4-49.9-2.9-97.4-0.5-143.5c2-46-1-70-9.8-73c-4.9-1.5-16.2,1-33.8,8.3
		c-19.1,7.3-29.4,11.8-29.9,14.7c-3.9,5.4-5.9,19.1-5.4,41.6c3.9,3.9,8.8,4.9,14.7,2.4c10.3-2,21.5-4.4,33.3-7.3
		c4.9-1,7.8,2.4,8.8,10.8c1,8.8-0.5,13.2-3.4,14.2c-9.8,2.4-20.6,5.4-32.3,9.3c-8.3,2.9-15.7,6.9-20.6,11.8c-1,14.7-2,27.9-2.4,39.2
		c2.9,1,5.9,1,9.8-0.5c14.2-3.4,28.9-7.3,43.6-12.2c3.9-1,6.4,2.9,8.8,10.8c1,8.8,0,13.7-2.4,14.7c-12.7,3.4-26.4,7.3-41.6,13.2
		c-9.8,3.9-18.1,9.3-23.5,15.7c-2,9.8-3.9,17.6-5.4,24c-3.9,13.2-4.9,30.4-2,49.9c-1,5.4-8.3,17.6-21.5,34.8
		c-14.2,18.1-35.3,31.3-63.2,39.2c-6.4,1.5-7.3-1-2.4-7.3C368.1,430.4,389.1,399.5,393.1,390.2z"/>
</g>
<g id="qing">
	<path display="inline" fill="#333333" d="M212.4,393.1c-2.9-31.8,2-64.1,14.2-98.4c8.8-30.8,16.6-43.1,25-37.7
		c6.9,6.4,13.7,13.2,21.5,20.1c6.9,6.4,3.4,13.7-9.3,21.1c-18.1,13.7-29.4,37.7-33.8,71.5c-4.9,34.3-2.9,53.4,5.9,57.3
		c13.2,2.9,27.9-6.4,44.1-26.9c15.2-21.1,25.9-45,33.3-72.5c3.9-13.7,6.4-11.3,7.3,6.9c-2.9,25-8.3,46.5-15.2,65.6
		c-7.3,19.1-19.1,39.2-33.8,59.7c-4.9,6.9-9.3,14.7-13.7,23c-4.9,8.8-11.8,4.9-20.1-12.2C223.2,450.4,214.8,424.5,212.4,393.1z
		 M252.5,213c-9.3-20.1-12.7-37.2-9.3-50.9c6.4-19.6,14.7-25,25-16.2c2.9,2,6.4,7.8,10.8,16.2c3.9,8.8,8.8,16.2,15.7,22.5
		c5.9,6.4,10.3,11.8,14.7,17.6c2,2.4,1,6.4-2,11.8c-3.4,5.4-10.3,7.8-20.1,6.4c-9.3-1-17.6-1.5-23.5-2
		C257.4,218.4,253.5,216.4,252.5,213z M379.4,214c2.9,0,18.1-2.9,47-9.8c-1-8.3-1-16.6,0-26.4c-25,5.4-40.1,11.3-46,17.1
		c-2.9,3.9-7.3-0.5-12.2-15.2c-5.4-13.7-6.4-20.1-2-19.1c2,1,22-2.9,60.7-11.3c0-29.9,0-47-1-52.9c-5.9-14.7,0.5-19.6,19.6-14.2
		c18.1,5.4,25,11.3,21.5,17.6c-2,2.9-3.9,16.6-4.9,41.1c10.3-2,22-4.4,34.3-7.3c14.2-4.9,21.5-5.4,22.5-2c0,2.9,0,7.8,1,13.7
		c0,6.4-3.9,9.8-10.8,11.8c-14.2,5.9-30.4,10.8-48.5,14.7c0,2.4,0,4.4,0,7.3c-1,5.9-1.5,11.8-0.5,16.6c6.9-1,14.2-2.4,23.5-4.4
		c24-8.3,35.3-8.3,34.3,0c-1,8.3-1,15.2,0,20.1c0,4.9-8.8,5.9-25.5,3.9c-12.2,2.4-23.5,4.9-32.8,6.4c0,11.8,0,20.1,1,25
		c1,0,2.9,0,5.9-1c23.5-4.4,46-7.8,68.1-9.3c22-2,35.3-3.9,38.7-6.4c2.9-1,5.4,1.5,7.8,6.4c2,4.9,4.9,8.3,9.3,10.3
		c2.4,2.4,3.9,8.8,4.9,19.1c0,10.8-3.4,14.2-9.3,10.8c-34.8-7.3-75.4-7.8-121.4-1.5c-53.9,7.3-95.5,17.1-124.4,27.4
		c-3.9,2.4-9.8-2.4-17.1-13.7c-7.8-11.3-3.9-15.7,11.3-12.7c25.9-7.3,55.8-14.7,90.6-22c0-5.4,0-13.2,1-23.5
		c-21.1,5.4-32.8,8.8-33.8,10.8c-7.3,5.9-14.2,2.4-20.1-10.3C365.6,217.9,367.6,212.5,379.4,214z M369.1,468.5
		c0-43.6,2.4-89.6,7.8-139.5c1-12.2,5.4-17.6,13.2-16.2c2.9,2,17.1-1.5,43.6-11.3c25.9-8.8,47-12.2,64.1-10.3
		c24,2.9,34.3,8.8,31.3,18.1c-4.4,9.3-6.4,41.6-4.9,95.5c1,54.3,2,88.6,3.9,103.8c1.5,14.2,0.5,22-4.4,22.5
		c-10.8-3.9-25.9-9.3-45.5-17.6c-20.1-7.8-36.2-17.6-48-30.4c-10.3-11.3-11.3-15.2-2-12.2c25.9,14.2,44.6,17.6,57.3,9.8
		c3.4-17.6,3.9-47,1.5-90.1c-3.9-43.1-7.8-67.1-10.8-72.5c-4.9-4.9-12.7-4.9-24.5-1c-12.2,3.9-22.5,7.3-28.9,10.3
		c-7.8,2.9-12.2,6.4-13.2,9.3c-2.9,3.4-4.4,9.3-5.4,17.1c2.4,1.5,5.4,1.5,9.3,0c9.8-2.9,19.1-5.9,28.9-9.3c3.9-1,5.9,2.9,7.8,10.8
		c1,7.8,0,12.2-2,13.2c-8.3,2.4-17.6,5.9-26.9,9.8c-9.8,3.4-17.1,9.3-23,16.2c-1,3.9-1.5,7.8-1.5,12.2c3.9,2.4,7.8,2.9,11.3,1
		c11.8-2.9,22.5-5.9,34.3-9.3c3.9-1,5.9,2.4,7.8,10.3c1,8.3,0,12.2-2.4,13.2c-10.3,2.4-21.1,5.9-32.3,10.3
		c-8.8,2.9-15.7,7.3-20.6,12.7c-1,8.3-1.5,16.6-1,25.5c1,20.1-2.9,30.8-10.3,32.3c-8.8,2-13.2-0.5-13.2-7.3
		C369.6,489.1,369.1,480.3,369.1,468.5z"/>
</g>
</svg>
