<?xml version="1.0" encoding="utf-8"?>
<!-- Generator: Adobe Illustrator 19.2.0, SVG Export Plug-In . SVG Version: 6.00 Build 0)  -->
<!DOCTYPE svg PUBLIC "-//W3C//DTD SVG 1.1//EN" "http://www.w3.org/Graphics/SVG/1.1/DTD/svg11.dtd">
<svg version="1.1" xmlns="http://www.w3.org/2000/svg" xmlns:xlink="http://www.w3.org/1999/xlink" x="0px" y="0px"
	 viewBox="0 0 10 10" style="enable-background:new 0 0 10 10;" xml:space="preserve">
<style type="text/css">
	.circle{fill:#FFFFFF;}
	.arrow{fill:none;stroke:#FFFFFF;stroke-width:0.25;stroke-linecap:round;stroke-miterlimit:10;}
</style>
<g id="scrollDown">
	<path class="circle" d="M5,0.2c2.6,0,4.8,2.1,4.8,4.8S7.6,9.8,5,9.8C2.4,9.8,0.2,7.6,0.2,5S2.4,0.2,5,0.2 M5,0C2.2,0,0,2.2,0,5
		s2.2,5,5,5c2.8,0,5-2.2,5-5S7.8,0,5,0L5,0z"/>
	<polyline class="arrow" style="fill:none;" points="3,5.5 5,7.5 7,5.5 "/>
	<polyline class="arrow" style="fill:none;" points="3,3.5 5,5.5 7,3.5 "/>
</g>
</svg>
