<?xml version="1.0" encoding="utf-8"?>
<!-- Generator: Adobe Illustrator 19.2.0, SVG Export Plug-In . SVG Version: 6.00 Build 0)  -->
<!DOCTYPE svg PUBLIC "-//W3C//DTD SVG 1.1//EN" "http://www.w3.org/Graphics/SVG/1.1/DTD/svg11.dtd">
<svg version="1.1" id="Layer_1" xmlns="http://www.w3.org/2000/svg" xmlns:xlink="http://www.w3.org/1999/xlink" x="0px" y="0px"
	 viewBox="0 0 50 450" style="enable-background:new 0 0 50 450;" xml:space="preserve" preserveAspectRatio="none">
<style type="text/css">
	.st0{fill:none;stroke:#FFFFFF;stroke-width:2.5;stroke-linecap:round;stroke-linejoin:round;stroke-miterlimit:10;}
	.st1{fill:none;stroke:#FFFFFF;stroke-width:2.5;stroke-linecap:square;stroke-miterlimit:10;}
	.st2{fill:#808080;}
	.st3{fill:#FFFFFF;}
	.st4{opacity:0.2;fill:#FFFFFF;enable-background:new    ;}
</style>
<polygon class="st0" points="25,410 15,420 5,420 5,430 15,430 25,440 "/>
<line class="st1" x1="35" y1="430" x2="45" y2="420"/>
<line class="st1" x1="45" y1="430" x2="35" y2="420"/>
<polygon class="st2" points="18,19.5 19.5,18 25,23.5 30.5,18 32,19.5 26.5,25 32,30.5 30.5,32 25,26.5 19.5,32 18,30.5 23.5,25 "/>
<rect x="20" y="68" class="st3" width="3.5" height="14"/>
<rect x="26.5" y="68" class="st3" width="3.5" height="14"/>
<polygon class="st3" points="32.1,125 20,132 20,118 "/>
<rect x="16.5" y="168.5" class="st4" width="2" height="13"/>
<rect x="21.5" y="168.5" class="st4" width="2" height="13"/>
<rect x="26.5" y="168.5" class="st4" width="2" height="13"/>
<rect x="31.5" y="168.5" class="st4" width="2" height="13"/>
<rect x="16.5" y="368.5" class="st3" width="2" height="13"/>
<rect x="21.5" y="368.5" class="st3" width="2" height="13"/>
<rect x="26.5" y="368.5" class="st3" width="2" height="13"/>
<rect x="31.5" y="368.5" class="st3" width="2" height="13"/>
<rect x="16.5" y="218.5" class="st3" width="2" height="13"/>
<rect x="21.5" y="218.5" class="st4" width="2" height="13"/>
<rect x="26.5" y="218.5" class="st4" width="2" height="13"/>
<rect x="31.5" y="218.5" class="st4" width="2" height="13"/>
<rect x="16.5" y="268.5" class="st3" width="2" height="13"/>
<rect x="21.5" y="268.5" class="st3" width="2" height="13"/>
<rect x="26.5" y="268.5" class="st4" width="2" height="13"/>
<rect x="31.5" y="268.5" class="st4" width="2" height="13"/>
<rect x="16.5" y="318.5" class="st3" width="2" height="13"/>
<rect x="21.5" y="318.5" class="st3" width="2" height="13"/>
<rect x="26.5" y="318.5" class="st3" width="2" height="13"/>
<rect x="31.5" y="318.5" class="st4" width="2" height="13"/>
</svg>
