<svg id="Layer_1" data-name="Layer 1" xmlns="http://www.w3.org/2000/svg" viewBox="0 0 76 37"><defs><style>.cls-1{fill:#3b5998;}.cls-2{fill:#fff;}.cls-3{fill:#00b0ed;}</style></defs><title>social-icons</title><rect class="cls-1" width="37" height="37"/><path id="f" class="cls-2" d="M25.53,37V22.67h4.81l0.72-5.58H25.53V13.52c0-1.62.45-2.72,2.77-2.72h3v-5a39.57,39.57,0,0,0-4.31-.22c-4.26,0-7.18,2.6-7.18,7.38v4.12H14.94v5.58h4.82V37h5.77Z" transform="translate(0)"/><rect class="cls-3" x="39" width="37" height="37"/><path class="cls-2" d="M65.55,13.51a6.6,6.6,0,0,1-1.9.52A3.31,3.31,0,0,0,65.1,12.2,6.61,6.61,0,0,1,63,13a3.3,3.3,0,0,0-5.63,3,9.37,9.37,0,0,1-6.8-3.45,3.3,3.3,0,0,0,1,4.41,3.29,3.29,0,0,1-1.5-.41v0a3.3,3.3,0,0,0,2.65,3.24,3.31,3.31,0,0,1-1.49.06,3.3,3.3,0,0,0,3.08,2.29,6.62,6.62,0,0,1-4.1,1.41,6.72,6.72,0,0,1-.79,0,9.39,9.39,0,0,0,14.45-7.91q0-.21,0-0.43a6.71,6.71,0,0,0,1.65-1.71h0Z" transform="translate(0)"/></svg>