<svg id="Layer_1" data-name="Layer 1" xmlns="http://www.w3.org/2000/svg" viewBox="0 0 93.61 73.67"><defs><style>.cls-1{fill:#d4ab00;fill-rule:evenodd;}</style></defs><title>Group 26@1x</title><polygon class="cls-1" points="4.7 5.15 1.78 5.15 1.78 1.79 5.15 1.79 5.14 9.86 6.92 9.86 6.94 0.01 0 0 0 6.93 4.7 6.93 4.7 5.15"/><polygon class="cls-1" points="1.78 34.17 1.78 12.09 9.84 12.09 9.85 10.3 0 10.3 0 34.17 1.78 34.17"/><polygon class="cls-1" points="46.18 1.82 46.18 0.02 10.31 0.02 10.3 4.71 12.08 4.71 12.09 1.8 46.18 1.82"/><polygon class="cls-1" points="5.14 12.53 5.13 17.25 12.06 17.26 12.08 7.38 10.3 7.38 10.28 15.47 6.91 15.47 6.92 12.53 5.14 12.53"/><polygon class="cls-1" points="15.46 10.3 12.52 10.3 12.52 12.09 17.24 12.09 17.24 5.15 7.38 5.15 7.37 6.93 15.46 6.93 15.46 10.3"/><polygon class="cls-1" points="88.91 5.15 91.83 5.15 91.83 1.79 88.46 1.79 88.47 9.86 86.69 9.86 86.67 0.01 93.61 0 93.61 6.93 88.91 6.93 88.91 5.15"/><polygon class="cls-1" points="91.83 34.17 91.83 12.09 83.77 12.09 83.76 10.3 93.61 10.3 93.61 34.17 91.83 34.17"/><polygon class="cls-1" points="47.43 1.82 47.43 0.02 83.3 0.02 83.31 4.71 81.53 4.71 81.52 1.8 47.43 1.82"/><polygon class="cls-1" points="88.47 12.53 88.48 17.25 81.55 17.26 81.53 7.38 83.31 7.38 83.33 15.47 86.69 15.47 86.69 12.53 88.47 12.53"/><polygon class="cls-1" points="78.15 10.3 81.09 10.3 81.09 12.09 76.37 12.09 76.37 5.15 86.23 5.15 86.24 6.93 78.15 6.93 78.15 10.3"/><polygon class="cls-1" points="4.7 68.52 1.78 68.52 1.78 71.88 5.15 71.88 5.14 63.81 6.92 63.81 6.94 73.66 0 73.67 0 66.73 4.7 66.73 4.7 68.52"/><polygon class="cls-1" points="1.78 35.49 1.78 61.58 9.84 61.58 9.85 63.36 0 63.36 0 35.49 1.78 35.49"/><polygon class="cls-1" points="46.18 71.85 46.18 73.65 10.31 73.65 10.3 68.96 12.08 68.96 12.09 71.86 46.18 71.85"/><polygon class="cls-1" points="5.14 61.13 5.13 56.42 12.06 56.41 12.08 66.29 10.3 66.29 10.28 58.2 6.91 58.2 6.92 61.13 5.14 61.13"/><polygon class="cls-1" points="15.46 63.36 12.52 63.36 12.52 61.58 17.24 61.58 17.24 68.52 7.38 68.52 7.37 66.73 15.46 66.73 15.46 63.36"/><polygon class="cls-1" points="88.66 68.52 91.58 68.52 91.58 71.88 88.21 71.88 88.23 63.81 86.44 63.81 86.43 73.66 93.37 73.67 93.37 66.73 88.67 66.73 88.66 68.52"/><polygon class="cls-1" points="91.58 35.49 91.58 61.58 83.52 61.58 83.52 63.36 93.37 63.36 93.37 35.49 91.58 35.49"/><polygon class="cls-1" points="47.18 71.85 47.18 73.65 83.06 73.65 83.07 68.96 81.28 68.96 81.28 71.86 47.18 71.85"/><polygon class="cls-1" points="88.23 61.13 88.24 56.42 81.3 56.41 81.29 66.29 83.07 66.29 83.08 58.2 86.45 58.2 86.45 61.13 88.23 61.13"/><polygon class="cls-1" points="77.91 63.36 80.85 63.36 80.85 61.58 76.13 61.58 76.13 68.52 85.99 68.52 85.99 66.73 77.91 66.73 77.91 63.36"/></svg>