<svg id="Layer_1" data-name="Layer 1" xmlns="http://www.w3.org/2000/svg" viewBox="0 0 389.39 57.73"><defs><style>.cls-1{fill:#fff;}.cls-2{fill:none;stroke:#fff;stroke-miterlimit:10;stroke-width:1.5px;}</style></defs><title>tcw-logo</title><path class="cls-1" d="M1257,338.07c0,1.74,0,3.82.11,4.75A1,1,0,0,0,1258,344c0.29,0,.56.07,1,0.11s0.45,0.09.45,0.25-0.11.2-.51,0.2c-1.52,0-3.68-.07-4-0.07s-2.54.07-3.28,0.07c-0.36,0-.51,0-0.51-0.22s0.18-.22.45-0.22,0.47,0,.71-0.09a1.15,1.15,0,0,0,.71-1.23c0.09-.94.13-2.54,0.13-4.71v-8.75c-0.87,0-2.25,0-3.37,0s-1.74.36-2,1.14a4.47,4.47,0,0,0-.2.51,0.37,0.37,0,0,1-.27.36c-0.2,0-.2-0.18-0.18-0.45,0.09-.92.33-2.12,0.49-3,0-.33.11-0.56,0.25-0.56a6.66,6.66,0,0,1,.76.18,17.17,17.17,0,0,0,2.48.16h9.71a9.39,9.39,0,0,0,1.41-.09,5.61,5.61,0,0,1,.69-0.13c0.2,0,.22.13,0.22,0.69,0,0.31-.13,2.39-0.16,2.95,0,0.31-.09.45-0.22,0.45s-0.22-.13-0.25-0.4,0-.33,0-0.45c-0.09-.69-0.42-1.23-1.74-1.32-0.74-.07-1.9-0.11-3.59-0.11v8.75Z" transform="translate(-1246.98 -287.12)"/><path class="cls-1" d="M1270.7,334.14c0-3.64,0-4.08-.07-4.8a1.06,1.06,0,0,0-.8-1.16c-0.2,0-.51,0-0.74-0.07s-0.4-.11-0.4-0.25,0.13-.2.49-0.2c1.27,0,2.34.07,3.33,0.07l6.3,0a7.82,7.82,0,0,0,1.21-.09,1.62,1.62,0,0,1,.36-0.09c0.11,0,.13.09,0.13,0.2s0,0.33-.11,1c-0.07.45-.11,1.23-0.18,2.39a0.27,0.27,0,0,1-.22.31,0.29,0.29,0,0,1-.22-0.31,2.63,2.63,0,0,0-.11-0.78c-0.11-.51-0.4-0.8-1.47-0.89-0.74-.07-2.68-0.11-3.35-0.11-0.13,0-.18.07-0.18,0.22v4.91c0,0.16,0,.27.18,0.27,0.63,0,2.43,0,3.24,0,1.09,0,1.38-.11,1.63-0.51a0.45,0.45,0,0,1,.31-0.29c0.13,0,.13.13,0.13,0.27s-0.11,1-.18,1.9c0,0.51,0,1.61,0,1.85s-0.07.42-.2,0.42-0.2-.16-0.25-0.36l-0.07-.51c-0.09-.65-0.4-1-1.5-1.09-0.62,0-2.46-.09-3.15-0.09-0.11,0-.13.11-0.13,0.29v1.54c0,0.76,0,2.08,0,2.92,0,1.56.33,1.92,2.81,1.92a6.19,6.19,0,0,0,2.08-.27,2,2,0,0,0,1.09-1.76q0.07-.4.27-0.4c0.18,0,.2.22,0.2,0.49a18.34,18.34,0,0,1-.36,3c-0.16.58-.31,0.6-1.14,0.6-3.08,0-4.75-.13-7.1-0.13-1,0-2,.07-3.21.07-0.4,0-.54-0.07-0.54-0.22s0.11-.22.45-0.22a4.57,4.57,0,0,0,.67-0.09c0.63-.09.71-0.94,0.76-2.34,0-.89.07-2.21,0.07-3.59v-3.93Z" transform="translate(-1246.98 -287.12)"/><path class="cls-1" d="M1289.36,334.14c0-3.46,0-3.91-.07-4.62,0-.92-0.31-1.21-0.85-1.32a8.71,8.71,0,0,0-.89-0.09c-0.27,0-.4-0.11-0.4-0.25s0.16-.2.49-0.2c1,0,3.1.07,3.42,0.07s2.57-.07,3.59-0.07a9.56,9.56,0,0,1,4.55.76,3.79,3.79,0,0,1,2,3.42c0,1.88-1.07,3.3-3,4.49,1.36,2,3,4.35,4.35,5.92,1.18,1.32,1.72,1.7,2.34,1.79,0.25,0,.38,0,0.56.07s0.38,0.09.38,0.22-0.22.22-.45,0.22h-2c-2.3,0-3.28-.22-4.06-0.74a8.47,8.47,0,0,1-2.3-2.79c-1-1.7-1.54-2.61-1.94-3.21a0.35,0.35,0,0,0-.27-0.13h-1.47a0.15,0.15,0,0,0-.18.18V339a33.66,33.66,0,0,0,.11,3.75,1.14,1.14,0,0,0,.87,1.23,5.55,5.55,0,0,0,1,.13c0.36,0,.4.11,0.4,0.25s-0.16.2-.47,0.2c-1.5,0-3.93-.07-4.09-0.07s-2.43.07-3.19,0.07c-0.33,0-.45-0.07-0.45-0.22s0.16-.22.4-0.22,0.51,0,.76-0.09a1.17,1.17,0,0,0,.69-1.27c0.09-.94.11-2.5,0.11-4.67v-3.93Zm3.84,1.5a0.33,0.33,0,0,0,.2.33,4,4,0,0,0,1.72.29,2.24,2.24,0,0,0,1.41-.36,3.64,3.64,0,0,0,.87-2.81c0-3.17-2-4-3.17-4a3,3,0,0,0-.89.09,0.2,0.2,0,0,0-.13.25v6.21Z" transform="translate(-1246.98 -287.12)"/><path class="cls-1" d="M1311.37,334.14c0-3.46,0-3.91-.07-4.62,0-.92-0.31-1.21-0.85-1.32a8.71,8.71,0,0,0-.89-0.09c-0.27,0-.4-0.11-0.4-0.25s0.16-.2.49-0.2c1,0,3.1.07,3.42,0.07s2.57-.07,3.59-0.07a9.56,9.56,0,0,1,4.55.76,3.79,3.79,0,0,1,2,3.42c0,1.88-1.07,3.3-3,4.49,1.36,2,3,4.35,4.35,5.92,1.18,1.32,1.72,1.7,2.34,1.79,0.25,0,.38,0,0.56.07s0.38,0.09.38,0.22-0.22.22-.45,0.22h-2c-2.3,0-3.28-.22-4.06-0.74a8.47,8.47,0,0,1-2.3-2.79c-1-1.7-1.54-2.61-1.94-3.21a0.35,0.35,0,0,0-.27-0.13h-1.47a0.15,0.15,0,0,0-.18.18V339a33.66,33.66,0,0,0,.11,3.75,1.14,1.14,0,0,0,.87,1.23,5.55,5.55,0,0,0,1,.13c0.36,0,.4.11,0.4,0.25s-0.16.2-.47,0.2c-1.5,0-3.93-.07-4.09-0.07s-2.43.07-3.19,0.07c-0.33,0-.45-0.07-0.45-0.22s0.16-.22.4-0.22,0.51,0,.76-0.09a1.17,1.17,0,0,0,.69-1.27c0.09-.94.11-2.5,0.11-4.67v-3.93Zm3.84,1.5a0.33,0.33,0,0,0,.2.33,4,4,0,0,0,1.72.29,2.24,2.24,0,0,0,1.41-.36,3.64,3.64,0,0,0,.87-2.81c0-3.17-2-4-3.17-4a3,3,0,0,0-.89.09,0.2,0.2,0,0,0-.13.25v6.21Z" transform="translate(-1246.98 -287.12)"/><path class="cls-1" d="M1335.35,339.92a0.19,0.19,0,0,0-.2.16l-0.69,1.83a5,5,0,0,0-.36,1.43,0.61,0.61,0,0,0,.67.67c0.25,0,.6.07,0.78,0.09,0.33,0,.4.11,0.4,0.22s-0.18.22-.47,0.22c-1,0-1.76-.07-2.95-0.07-0.25,0-1.72.07-2.83,0.07-0.31,0-.45-0.09-0.45-0.22s0.16-.22.42-0.22a6.42,6.42,0,0,0,.71-0.09c0.78-.16,1.23-0.85,1.7-1.92l6-13.48c0.42-1,.67-1.29.92-1.29s0.42,0.31.8,1.12c0.58,1.25,4.33,9.8,5.85,13.19,0.76,1.74,1.25,2.28,2,2.39a4.53,4.53,0,0,0,.71.09c0.29,0,.42.09,0.42,0.22s-0.16.22-.58,0.22c-2.19,0-4.73,0-6.16-.07-0.36,0-.49-0.07-0.49-0.2a0.31,0.31,0,0,1,.31-0.27,0.29,0.29,0,0,0,.27-0.4l-1.5-3.55a0.19,0.19,0,0,0-.18-0.13h-5.11Zm4.46-1.79c0.13,0,.13-0.07.11-0.11l-2-4.78c-0.07-.16-0.11-0.11-0.16,0l-1.9,4.78a0.08,0.08,0,0,0,.09.11h3.82Z" transform="translate(-1246.98 -287.12)"/><path class="cls-1" d="M1355.15,342.4a8.08,8.08,0,0,1-2.81-6.56,8.25,8.25,0,0,1,2.77-6.18c1.92-1.63,4.15-2.3,7.39-2.3a20,20,0,0,1,3.17.27,18.34,18.34,0,0,0,2.21.29,0.23,0.23,0,0,1,.25.29c0,0.18-.07.71-0.11,1.47s0,2.05-.07,2.61c0,0.33-.07.54-0.27,0.54s-0.25-.16-0.27-0.47a3.33,3.33,0,0,0-.85-2.19c-0.78-.83-2.34-1.41-4.51-1.41a4.77,4.77,0,0,0-3.28,1.07c-1.36,1.18-2,3.26-2,5.65,0,4.6,2.5,7.68,6.25,7.68,1.83,0,3-.16,3.84-1.14a3.47,3.47,0,0,0,.74-1.5c0.11-.47.18-0.62,0.36-0.62s0.18,0.22.18,0.4a31.32,31.32,0,0,1-.49,3.39,0.73,0.73,0,0,1-.58.65,11.77,11.77,0,0,1-3.84.51C1360.36,344.85,1357.5,344.36,1355.15,342.4Z" transform="translate(-1246.98 -287.12)"/><path class="cls-1" d="M1374.67,336.17c0-4.46,3-8.82,9.55-8.82,5.67,0,9.22,3.79,9.22,8.33,0,5.2-3.53,9.17-9.38,9.17C1377.48,344.85,1374.67,340.12,1374.67,336.17Zm14.31,0.49c0-3.71-1.54-7.92-5.49-7.92-2.05,0-4.35,1.14-4.35,6.43,0,4.22,1.76,8.26,5.6,8.26C1386.12,343.43,1389,342.82,1389,336.66Z" transform="translate(-1246.98 -287.12)"/><path class="cls-1" d="M1408.74,338.07c0,1.74,0,3.82.11,4.75a1,1,0,0,0,.87,1.16c0.29,0,.56.07,1,0.11s0.45,0.09.45,0.25-0.11.2-.51,0.2c-1.52,0-3.68-.07-4-0.07s-2.54.07-3.28,0.07c-0.36,0-.51,0-0.51-0.22s0.18-.22.45-0.22,0.47,0,.71-0.09a1.15,1.15,0,0,0,.71-1.23c0.09-.94.13-2.54,0.13-4.71v-8.75c-0.87,0-2.25,0-3.37,0s-1.74.36-2,1.14a4.47,4.47,0,0,0-.2.51,0.37,0.37,0,0,1-.27.36c-0.2,0-.2-0.18-0.18-0.45,0.09-.92.33-2.12,0.49-3,0-.33.11-0.56,0.25-0.56a6.66,6.66,0,0,1,.76.18,17.17,17.17,0,0,0,2.48.16h9.71a9.39,9.39,0,0,0,1.41-.09,5.61,5.61,0,0,1,.69-0.13c0.2,0,.22.13,0.22,0.69,0,0.31-.13,2.39-0.16,2.95,0,0.31-.09.45-0.22,0.45s-0.22-.13-0.25-0.4,0-.33,0-0.45c-0.09-.69-0.42-1.23-1.74-1.32-0.74-.07-1.9-0.11-3.59-0.11v8.75Z" transform="translate(-1246.98 -287.12)"/><path class="cls-1" d="M1430.37,338.07c0,1.74,0,3.82.11,4.75a1,1,0,0,0,.87,1.16c0.29,0,.56.07,1,0.11s0.45,0.09.45,0.25-0.11.2-.51,0.2c-1.52,0-3.68-.07-4-0.07s-2.54.07-3.28,0.07c-0.36,0-.51,0-0.51-0.22s0.18-.22.45-0.22,0.47,0,.71-0.09a1.15,1.15,0,0,0,.71-1.23c0.09-.94.13-2.54,0.13-4.71v-8.75c-0.87,0-2.25,0-3.37,0s-1.74.36-2,1.14a4.47,4.47,0,0,0-.2.51,0.37,0.37,0,0,1-.27.36c-0.2,0-.2-0.18-0.18-0.45,0.09-.92.33-2.12,0.49-3,0-.33.11-0.56,0.25-0.56a6.66,6.66,0,0,1,.76.18,17.17,17.17,0,0,0,2.48.16h9.71a9.38,9.38,0,0,0,1.41-.09,5.63,5.63,0,0,1,.69-0.13c0.2,0,.22.13,0.22,0.69,0,0.31-.13,2.39-0.16,2.95,0,0.31-.09.45-0.22,0.45s-0.22-.13-0.25-0.4,0-.33,0-0.45c-0.09-.69-0.42-1.23-1.74-1.32-0.74-.07-1.9-0.11-3.59-0.11v8.75Z" transform="translate(-1246.98 -287.12)"/><path class="cls-1" d="M1443.88,339.92a0.19,0.19,0,0,0-.2.16l-0.69,1.83a5,5,0,0,0-.36,1.43,0.61,0.61,0,0,0,.67.67c0.25,0,.6.07,0.78,0.09,0.33,0,.4.11,0.4,0.22s-0.18.22-.47,0.22c-1,0-1.76-.07-2.95-0.07-0.25,0-1.72.07-2.83,0.07-0.31,0-.45-0.09-0.45-0.22s0.16-.22.42-0.22a6.43,6.43,0,0,0,.71-0.09c0.78-.16,1.23-0.85,1.7-1.92l6-13.48c0.42-1,.67-1.29.92-1.29s0.42,0.31.8,1.12c0.58,1.25,4.33,9.8,5.85,13.19,0.76,1.74,1.25,2.28,2,2.39a4.53,4.53,0,0,0,.71.09c0.29,0,.42.09,0.42,0.22s-0.16.22-.58,0.22c-2.19,0-4.73,0-6.16-.07-0.36,0-.49-0.07-0.49-0.2a0.32,0.32,0,0,1,.31-0.27,0.29,0.29,0,0,0,.27-0.4l-1.5-3.55a0.19,0.19,0,0,0-.18-0.13h-5.11Zm4.46-1.79c0.13,0,.13-0.07.11-0.11l-2-4.78c-0.07-.16-0.11-0.11-0.16,0l-1.9,4.78a0.08,0.08,0,0,0,.09.11h3.82Z" transform="translate(-1246.98 -287.12)"/><path class="cls-1" d="M1471.6,329.85c-0.36-1-.6-1.45-1.12-1.61a5.65,5.65,0,0,0-.71-0.13c-0.27,0-.36-0.11-0.36-0.25s0.16-.2.47-0.2c1.38,0,2.9.07,3.24,0.07,0.54,0,2.12-.07,3.33-0.07,0.31,0,.47.07,0.47,0.22s-0.16.22-.36,0.22a2.67,2.67,0,0,0-.56.09,0.45,0.45,0,0,0-.4.49,11.86,11.86,0,0,0,.54,2c0.25,0.8,1.92,6,2.66,7.92l4-10.11a0.94,0.94,0,0,1,.63-0.8c0.29,0,.42.4,0.76,1l4.46,9.89c0.65-1.87,1.81-5.67,2.43-7.88a9.72,9.72,0,0,0,.45-1.9c0-.47-0.18-0.65-1.36-0.76a0.34,0.34,0,0,1-.38-0.2c0-.13,0-0.25.47-0.25,1.43,0,2.57.07,2.77,0.07s1.74,0,2.52,0c0.27,0,.45,0,0.45.2s-0.09.22-.36,0.22a3.55,3.55,0,0,0-.71.11c-0.65.13-1,.78-1.56,2.37-1,2.66-3.08,8.66-4.71,12.9-0.27.74-.51,1.36-0.89,1.36s-0.47-.33-0.83-1.12l-4.46-9.58c-0.92,2.28-2.9,7-4,9.42-0.36.8-.62,1.27-1,1.27s-0.45-.33-0.85-1.38Z" transform="translate(-1246.98 -287.12)"/><path class="cls-1" d="M1502,339.92a0.19,0.19,0,0,0-.2.16l-0.69,1.83a5,5,0,0,0-.36,1.43,0.61,0.61,0,0,0,.67.67c0.25,0,.6.07,0.78,0.09,0.33,0,.4.11,0.4,0.22s-0.18.22-.47,0.22c-1,0-1.76-.07-2.95-0.07-0.25,0-1.72.07-2.83,0.07-0.31,0-.45-0.09-0.45-0.22s0.16-.22.42-0.22a6.43,6.43,0,0,0,.71-0.09c0.78-.16,1.23-0.85,1.7-1.92l6-13.48c0.42-1,.67-1.29.92-1.29s0.42,0.31.8,1.12c0.58,1.25,4.33,9.8,5.85,13.19,0.76,1.74,1.25,2.28,2,2.39a4.53,4.53,0,0,0,.71.09c0.29,0,.42.09,0.42,0.22s-0.16.22-.58,0.22c-2.19,0-4.73,0-6.16-.07-0.36,0-.49-0.07-0.49-0.2a0.32,0.32,0,0,1,.31-0.27,0.29,0.29,0,0,0,.27-0.4l-1.5-3.55a0.19,0.19,0,0,0-.18-0.13H1502Zm4.46-1.79c0.13,0,.13-0.07.11-0.11l-2-4.78c-0.07-.16-0.11-0.11-0.16,0l-1.9,4.78a0.08,0.08,0,0,0,.09.11h3.82Z" transform="translate(-1246.98 -287.12)"/><path class="cls-1" d="M1521.46,334.14c0-3.46,0-3.91-.07-4.62,0-.92-0.31-1.21-0.85-1.32a8.71,8.71,0,0,0-.89-0.09c-0.27,0-.4-0.11-0.4-0.25s0.16-.2.49-0.2c1,0,3.1.07,3.42,0.07s2.57-.07,3.59-0.07a9.56,9.56,0,0,1,4.55.76,3.79,3.79,0,0,1,2,3.42c0,1.88-1.07,3.3-3,4.49,1.36,2,3,4.35,4.35,5.92,1.18,1.32,1.72,1.7,2.34,1.79,0.25,0,.38,0,0.56.07s0.38,0.09.38,0.22-0.22.22-.45,0.22h-2c-2.3,0-3.28-.22-4.06-0.74a8.47,8.47,0,0,1-2.3-2.79c-1-1.7-1.54-2.61-1.94-3.21a0.35,0.35,0,0,0-.27-0.13h-1.47a0.15,0.15,0,0,0-.18.18V339a33.66,33.66,0,0,0,.11,3.75,1.14,1.14,0,0,0,.87,1.23,5.55,5.55,0,0,0,1,.13c0.36,0,.4.11,0.4,0.25s-0.16.2-.47,0.2c-1.5,0-3.93-.07-4.08-0.07s-2.43.07-3.19,0.07c-0.33,0-.45-0.07-0.45-0.22s0.16-.22.4-0.22,0.51,0,.76-0.09a1.18,1.18,0,0,0,.69-1.27c0.09-.94.11-2.5,0.11-4.67v-3.93Zm3.84,1.5a0.33,0.33,0,0,0,.2.33,4,4,0,0,0,1.72.29,2.24,2.24,0,0,0,1.41-.36,3.64,3.64,0,0,0,.87-2.81c0-3.17-2-4-3.17-4a3,3,0,0,0-.89.09,0.21,0.21,0,0,0-.13.25v6.21Z" transform="translate(-1246.98 -287.12)"/><path class="cls-1" d="M1543.47,334.14c0-3.46,0-3.91-.07-4.62,0-.92-0.31-1.21-0.85-1.32a8.71,8.71,0,0,0-.89-0.09c-0.27,0-.4-0.11-0.4-0.25s0.16-.2.49-0.2c1,0,3.1.07,3.42,0.07s2.57-.07,3.59-0.07a9.56,9.56,0,0,1,4.55.76,3.79,3.79,0,0,1,2,3.42c0,1.88-1.07,3.3-3,4.49,1.36,2,3,4.35,4.35,5.92,1.18,1.32,1.72,1.7,2.34,1.79,0.25,0,.38,0,0.56.07s0.38,0.09.38,0.22-0.22.22-.45,0.22h-2c-2.3,0-3.28-.22-4.06-0.74a8.47,8.47,0,0,1-2.3-2.79c-1-1.7-1.54-2.61-1.94-3.21a0.35,0.35,0,0,0-.27-0.13h-1.47a0.15,0.15,0,0,0-.18.18V339a33.66,33.66,0,0,0,.11,3.75,1.14,1.14,0,0,0,.87,1.23,5.55,5.55,0,0,0,1,.13c0.36,0,.4.11,0.4,0.25s-0.16.2-.47,0.2c-1.5,0-3.93-.07-4.08-0.07s-2.43.07-3.19,0.07c-0.33,0-.45-0.07-0.45-0.22s0.16-.22.4-0.22,0.51,0,.76-0.09a1.18,1.18,0,0,0,.69-1.27c0.09-.94.11-2.5,0.11-4.67v-3.93Zm3.84,1.5a0.33,0.33,0,0,0,.2.33,4,4,0,0,0,1.72.29,2.24,2.24,0,0,0,1.41-.36,3.64,3.64,0,0,0,.87-2.81c0-3.17-2-4-3.17-4a3,3,0,0,0-.89.09,0.21,0.21,0,0,0-.13.25v6.21Z" transform="translate(-1246.98 -287.12)"/><path class="cls-1" d="M1565.48,334.14c0-3.46,0-4.11-.07-4.82a1,1,0,0,0-.78-1.12,3.83,3.83,0,0,0-.67-0.09c-0.27,0-.42-0.09-0.42-0.25s0.11-.2.49-0.2c0.89,0,3.08.07,3.26,0.07s2.83-.07,3.64-0.07c0.38,0,.49.09,0.49,0.22s-0.2.22-.42,0.22-0.36,0-.65.07a1,1,0,0,0-.85,1.21c-0.07.71-.07,1.29-0.07,4.75v3.93c0,1.76,0,3.84.11,4.78a1,1,0,0,0,.85,1.14,7.47,7.47,0,0,0,1,.11c0.38,0,.47.09,0.47,0.22s-0.11.22-.47,0.22c-1.52,0-3.91-.07-4.11-0.07s-2.46.07-3.21,0.07c-0.36,0-.54,0-0.54-0.22s0.18-.22.45-0.22,0.45,0,.69-0.09a1.11,1.11,0,0,0,.69-1.21c0.09-.94.13-2.54,0.13-4.73v-3.93Z" transform="translate(-1246.98 -287.12)"/><path class="cls-1" d="M1577.81,336.17c0-4.46,3-8.82,9.55-8.82,5.67,0,9.22,3.79,9.22,8.33,0,5.2-3.53,9.17-9.38,9.17C1580.62,344.85,1577.81,340.12,1577.81,336.17Zm14.31,0.49c0-3.71-1.54-7.92-5.49-7.92-2.05,0-4.35,1.14-4.35,6.43,0,4.22,1.76,8.26,5.6,8.26C1589.26,343.43,1592.12,342.82,1592.12,336.66Z" transform="translate(-1246.98 -287.12)"/><path class="cls-1" d="M1605,334.14c0-3.46,0-3.91-.07-4.62,0-.92-0.31-1.21-0.85-1.32a8.71,8.71,0,0,0-.89-0.09c-0.27,0-.4-0.11-0.4-0.25s0.16-.2.49-0.2c1,0,3.1.07,3.42,0.07s2.57-.07,3.59-0.07a9.56,9.56,0,0,1,4.55.76,3.79,3.79,0,0,1,2,3.42c0,1.88-1.07,3.3-3,4.49,1.36,2,3,4.35,4.35,5.92,1.18,1.32,1.72,1.7,2.34,1.79,0.25,0,.38,0,0.56.07s0.38,0.09.38,0.22-0.22.22-.45,0.22h-2c-2.3,0-3.28-.22-4.06-0.74a8.47,8.47,0,0,1-2.3-2.79c-1-1.7-1.54-2.61-1.94-3.21a0.35,0.35,0,0,0-.27-0.13H1609a0.15,0.15,0,0,0-.18.18V339a33.66,33.66,0,0,0,.11,3.75,1.14,1.14,0,0,0,.87,1.23,5.55,5.55,0,0,0,1,.13c0.36,0,.4.11,0.4,0.25s-0.16.2-.47,0.2c-1.5,0-3.93-.07-4.08-0.07s-2.43.07-3.19,0.07c-0.33,0-.45-0.07-0.45-0.22s0.16-.22.4-0.22,0.51,0,.76-0.09a1.18,1.18,0,0,0,.69-1.27c0.09-.94.11-2.5,0.11-4.67v-3.93Zm3.84,1.5a0.33,0.33,0,0,0,.2.33,4,4,0,0,0,1.72.29,2.24,2.24,0,0,0,1.41-.36,3.64,3.64,0,0,0,.87-2.81c0-3.17-2-4-3.17-4a3,3,0,0,0-.89.09,0.21,0.21,0,0,0-.13.25v6.21Z" transform="translate(-1246.98 -287.12)"/><path class="cls-1" d="M1626.39,344.23a0.82,0.82,0,0,1-.49-0.89,28.79,28.79,0,0,1,.13-3.28c0-.4.13-0.54,0.27-0.54s0.18,0.2.2,0.38a4.28,4.28,0,0,0,.11.69,3.74,3.74,0,0,0,3.79,2.88c2.12,0,2.77-1.09,2.77-2.05s-0.18-1.72-2.08-3l-1.38-1c-2.72-1.92-3.48-3.48-3.48-5.45,0-2.57,2.12-4.64,5.69-4.64a12.33,12.33,0,0,1,2.57.22,9.65,9.65,0,0,1,1.09.27,0.3,0.3,0,0,1,.29.31c0,0.71-.09,1.16-0.09,3.15,0,0.4-.07.56-0.25,0.56s-0.2-.07-0.25-0.42a3.11,3.11,0,0,0-.4-1.29,3.46,3.46,0,0,0-3.06-1.47c-1.83,0-2.5,1-2.5,2.05,0,0.76.27,1.63,1.79,2.66l1.14,0.76c3.13,2.08,4.11,3.46,4.11,5.71a4.54,4.54,0,0,1-2.37,4,7.45,7.45,0,0,1-3.88,1A8.91,8.91,0,0,1,1626.39,344.23Z" transform="translate(-1246.98 -287.12)"/><path class="cls-1" d="M1309.5,293.68v0a6.36,6.36,0,0,1,6.38-6.52,6.57,6.57,0,0,1,4.92,2l-1,1a5.48,5.48,0,0,0-4-1.73,5,5,0,0,0-4.88,5.17v0a5,5,0,0,0,4.88,5.21,5.47,5.47,0,0,0,4.07-1.82l0.94,0.92a6.57,6.57,0,0,1-5,2.22A6.29,6.29,0,0,1,1309.5,293.68Z" transform="translate(-1246.98 -287.12)"/><path class="cls-1" d="M1325.17,287.34h1.42v5.6h7.28v-5.6h1.42V300h-1.42v-5.68h-7.28V300h-1.42V287.34Z" transform="translate(-1246.98 -287.12)"/><path class="cls-1" d="M1340.8,287.34h1.42V300h-1.42V287.34Z" transform="translate(-1246.98 -287.12)"/><path class="cls-1" d="M1347.72,287.34h1.33l7.95,10.11V287.34h1.39V300h-1.14l-8.15-10.34V300h-1.39V287.34Z" transform="translate(-1246.98 -287.12)"/><path class="cls-1" d="M1368.43,287.25h1.33l5.75,12.7H1374l-1.48-3.33h-6.87l-1.5,3.33h-1.46Zm3.51,8.07-2.87-6.42-2.88,6.42h5.75Z" transform="translate(-1246.98 -287.12)"/><path class="cls-1" d="M1377.49,290.8a1.44,1.44,0,0,0,1.21-1.57h-0.65v-1.89h1.66V289a2.22,2.22,0,0,1-2,2.47Z" transform="translate(-1246.98 -287.12)"/><path class="cls-1" d="M1383.75,298.11l0.88-1a6,6,0,0,0,4.33,1.78c1.69,0,2.81-.9,2.81-2.14v0c0-1.17-.63-1.84-3.28-2.4-2.9-.63-4.23-1.57-4.23-3.64v0c0-2,1.75-3.44,4.15-3.44a6.58,6.58,0,0,1,4.43,1.55l-0.83,1.1a5.54,5.54,0,0,0-3.64-1.37c-1.64,0-2.69.9-2.69,2v0c0,1.19.65,1.86,3.42,2.45s4.11,1.64,4.11,3.57v0c0,2.16-1.8,3.57-4.31,3.57A7.38,7.38,0,0,1,1383.75,298.11Z" transform="translate(-1246.98 -287.12)"/><path class="cls-1" d="M1405.13,287.34h9.06v1.32h-7.64v4.5h6.83v1.3h-6.83V300h-1.42V287.34Z" transform="translate(-1246.98 -287.12)"/><path class="cls-1" d="M1418.88,287.34h1.42V300h-1.42V287.34Z" transform="translate(-1246.98 -287.12)"/><path class="cls-1" d="M1425.8,287.34h5.42a5,5,0,0,1,3.59,1.26,3.48,3.48,0,0,1,1,2.49v0c0,2.09-1.44,3.32-3.42,3.68l3.87,5.15h-1.75l-3.66-4.9h-3.6V300h-1.42V287.34Zm5.3,6.43c1.89,0,3.24-1,3.24-2.6v0c0-1.55-1.19-2.49-3.23-2.49h-3.89v5.12h3.87Z" transform="translate(-1246.98 -287.12)"/><path class="cls-1" d="M1439.81,298.11l0.88-1a6,6,0,0,0,4.32,1.78c1.69,0,2.81-.9,2.81-2.14v0c0-1.17-.63-1.84-3.28-2.4-2.9-.63-4.24-1.57-4.24-3.64v0c0-2,1.75-3.44,4.14-3.44a6.58,6.58,0,0,1,4.43,1.55l-0.83,1.1a5.54,5.54,0,0,0-3.64-1.37c-1.64,0-2.69.9-2.69,2v0c0,1.19.65,1.86,3.42,2.45s4.11,1.64,4.11,3.57v0c0,2.16-1.8,3.57-4.31,3.57A7.38,7.38,0,0,1,1439.81,298.11Z" transform="translate(-1246.98 -287.12)"/><path class="cls-1" d="M1457,288.65h-4.24v-1.32h9.91v1.32h-4.23V300H1457v-11.3Z" transform="translate(-1246.98 -287.12)"/><path class="cls-1" d="M1474.4,287.34h9.12v1.3h-7.69v4.31h6.88v1.3h-6.88v4.42h7.78V300h-9.21V287.34Z" transform="translate(-1246.98 -287.12)"/><path class="cls-1" d="M1488.28,287.34h1.44l4.6,6.88,4.59-6.88h1.44V300h-1.42V289.73l-4.6,6.76h-0.07l-4.59-6.74V300h-1.39V287.34Z" transform="translate(-1246.98 -287.12)"/><path class="cls-1" d="M1505.72,287.34h4.72c2.85,0,4.72,1.51,4.72,4v0c0,2.72-2.27,4.13-5,4.13h-3.06V300h-1.42V287.34Zm4.54,6.87c2.09,0,3.46-1.12,3.46-2.77v0c0-1.8-1.35-2.74-3.39-2.74h-3.19v5.55h3.12Z" transform="translate(-1246.98 -287.12)"/><path class="cls-1" d="M1519.57,287.34h9.12v1.3H1521v4.31h6.88v1.3H1521v4.42h7.78V300h-9.21V287.34Z" transform="translate(-1246.98 -287.12)"/><path class="cls-1" d="M1533.45,287.34h5.42a5,5,0,0,1,3.59,1.26,3.48,3.48,0,0,1,1,2.49v0c0,2.09-1.44,3.32-3.42,3.68l3.87,5.15h-1.75l-3.66-4.9h-3.6V300h-1.42V287.34Zm5.3,6.43c1.89,0,3.24-1,3.24-2.6v0c0-1.55-1.19-2.49-3.23-2.49h-3.89v5.12h3.87Z" transform="translate(-1246.98 -287.12)"/><path class="cls-1" d="M1547.72,293.68v0a6.43,6.43,0,1,1,12.87,0v0A6.43,6.43,0,1,1,1547.72,293.68Zm11.39,0v0a5,5,0,0,0-5-5.21,5,5,0,0,0-4.94,5.17v0a5,5,0,0,0,5,5.21A5,5,0,0,0,1559.11,293.68Z" transform="translate(-1246.98 -287.12)"/><path class="cls-1" d="M1565.41,287.34h5.42a5,5,0,0,1,3.59,1.26,3.48,3.48,0,0,1,1,2.49v0c0,2.09-1.44,3.32-3.42,3.68l3.87,5.15h-1.75l-3.66-4.9h-3.6V300h-1.42V287.34Zm5.3,6.43c1.89,0,3.24-1,3.24-2.6v0c0-1.55-1.19-2.49-3.23-2.49h-3.89v5.12h3.87Z" transform="translate(-1246.98 -287.12)"/><path class="cls-1" d="M1416.28,315.54a0.1,0.1,0,0,0-.1.08l-0.36.95a2.59,2.59,0,0,0-.19.74,0.32,0.32,0,0,0,.35.35l0.41,0c0.17,0,.21.06,0.21,0.12s-0.09.12-.24,0.12c-0.52,0-.92,0-1.53,0-0.13,0-.89,0-1.47,0-0.16,0-.23,0-0.23-0.12s0.08-.12.22-0.12l0.37,0a1.41,1.41,0,0,0,.88-1l3.09-7a0.93,0.93,0,0,1,.47-0.67,0.84,0.84,0,0,1,.42.58c0.3,0.65,2.25,5.08,3,6.84,0.39,0.9.65,1.18,1.05,1.24a2.39,2.39,0,0,0,.37,0c0.15,0,.22,0,0.22.12s-0.08.12-.3,0.12c-1.14,0-2.46,0-3.2,0-0.19,0-.25,0-0.25-0.1a0.16,0.16,0,0,1,.16-0.14,0.15,0.15,0,0,0,.14-0.21l-0.78-1.84a0.1,0.1,0,0,0-.09-0.07h-2.65Zm2.32-.93c0.07,0,.07,0,0.06-0.06l-1-2.48c0-.08-0.06-0.06-0.08,0l-1,2.48a0,0,0,0,0,0,.06h2Z" transform="translate(-1246.98 -287.12)"/><path class="cls-1" d="M1424.07,309.56c0-.35.06-0.56,0.2-0.56a0.8,0.8,0,0,1,.45.28c0.49,0.41,1.09,1,3.74,3.42,1.18,1.09,2,1.86,2.29,2.14l-0.07-4.34c0-.65-0.08-0.95-0.54-1a3.85,3.85,0,0,0-.51-0.06c-0.15,0-.21-0.06-0.21-0.12s0.1-.12.23-0.12l1.68,0c0.25,0,.83,0,1.32,0,0.17,0,.25,0,0.25.1a0.16,0.16,0,0,1-.2.13,1.42,1.42,0,0,0-.29,0c-0.38,0-.5.24-0.53,1-0.09,2.33-.09,4.64-0.14,7,0,0.59-.08.72-0.23,0.72a3.61,3.61,0,0,1-1.3-.94c-0.79-.7-1.81-1.61-2.5-2.25s-1.81-1.68-2.65-2.5l0.12,3.95c0,0.83.07,1.15,0.39,1.26a3.07,3.07,0,0,0,.61.08c0.17,0,.23,0,0.23.12s-0.09.12-.28,0.12l-1.49,0-1.58,0c-0.16,0-.25,0-0.25-0.12s0.06-.12.22-0.12,0.25,0,.38,0c0.45-.07.51-0.36,0.54-1.44C1424,313.85,1424,311.06,1424.07,309.56Z" transform="translate(-1246.98 -287.12)"/><path class="cls-1" d="M1435,312.54c0-1.7,0-2,0-2.4a0.59,0.59,0,0,0-.52-0.69l-0.43,0c-0.17,0-.22-0.07-0.22-0.13s0.07-.1.27-0.1l1.86,0,1.88,0c2,0,3.53.27,4.59,1.34a4.06,4.06,0,0,1,1.11,2.94,4.45,4.45,0,0,1-1.27,3.17,5.09,5.09,0,0,1-4,1.38c-0.46,0-.86,0-1.24,0s-0.93-.08-1.15-0.08H1435l-0.8,0c-0.2,0-.23-0.06-0.23-0.12s0.09-.12.22-0.12l0.36,0c0.23,0,.35-0.25.38-0.71s0.06-1.38.06-2.37v-2Zm2,1.3c0,1.23,0,2,0,2.25a1.29,1.29,0,0,0,.2.83,1.61,1.61,0,0,0,1.19.42,2.68,2.68,0,0,0,2.11-.81,3.85,3.85,0,0,0,.75-2.72,4.53,4.53,0,0,0-.87-2.65,3.26,3.26,0,0,0-2.66-1.26,1.65,1.65,0,0,0-.62.09,0.19,0.19,0,0,0-.1.21c0,0.39,0,1.23,0,2.17v1.48Z" transform="translate(-1246.98 -287.12)"/><path class="cls-1" d="M1455,312.75a0.07,0.07,0,0,0,.07-0.08v-0.24c0-1.79,0-2,0-2.36a0.56,0.56,0,0,0-.5-0.61l-0.41,0c-0.16,0-.22-0.07-0.22-0.12s0.06-.12.23-0.12c0.67,0,1.71,0,1.83,0l1.93,0c0.17,0,.23,0,0.23.12a0.15,0.15,0,0,1-.17.12l-0.41,0a0.53,0.53,0,0,0-.43.61c0,0.37,0,.67,0,2.47v2c0,1.1,0,2,.06,2.44a0.56,0.56,0,0,0,.47.64l0.51,0c0.14,0,.2.06,0.2,0.12s-0.09.12-.23,0.12c-0.8,0-2,0-2.18,0s-1.09,0-1.66,0c-0.21,0-.25-0.06-0.25-0.13s0.07-.1.22-0.1l0.36,0A0.57,0.57,0,0,0,1455,317c0-.49.07-1.22,0.07-2.32v-0.94a0.07,0.07,0,0,0-.07-0.07h-3.61a0.06,0.06,0,0,0-.07.07V315c0,1.1,0,1.57.06,2.07a0.57,0.57,0,0,0,.49.61l0.49,0.06c0.13,0,.22,0,0.22.12s-0.06.12-.23,0.12c-0.66,0-2,0-2.14,0l-1.69,0c-0.13,0-.25,0-0.25-0.1s0-.13.2-0.13l0.36,0a0.62,0.62,0,0,0,.41-0.68c0-.49.06-1.3,0.06-2.4v-2c0-1.8,0-2.06,0-2.43a0.6,0.6,0,0,0-.56-0.68l-0.32,0c-0.21,0-.23-0.07-0.23-0.13s0.13-.1.25-0.1c0.67,0,1.56,0,1.83,0l1.91,0c0.21,0,.24,0,0.24.12s-0.07.12-.21,0.12l-0.41,0a0.59,0.59,0,0,0-.39.67c0,0.37,0,.85,0,2.29v0.24a0.07,0.07,0,0,0,.07.08H1455Z" transform="translate(-1246.98 -287.12)"/><path class="cls-1" d="M1460.65,312.54c0-1.79,0-2.13,0-2.5a0.54,0.54,0,0,0-.41-0.58,2,2,0,0,0-.35,0c-0.14,0-.22,0-0.22-0.13s0.06-.1.25-0.1l1.69,0,1.89,0c0.2,0,.25,0,0.25.12s-0.1.12-.22,0.12l-0.34,0a0.52,0.52,0,0,0-.44.63c0,0.37,0,.67,0,2.47v2c0,0.91,0,2,.06,2.48a0.54,0.54,0,0,0,.44.59,3.93,3.93,0,0,0,.51.06c0.2,0,.24,0,0.24.12s-0.06.12-.24,0.12c-0.79,0-2,0-2.13,0l-1.67,0c-0.19,0-.28,0-0.28-0.12s0.09-.12.23-0.12l0.36,0a0.58,0.58,0,0,0,.36-0.63c0-.49.07-1.32,0.07-2.45v-2Z" transform="translate(-1246.98 -287.12)"/><path class="cls-1" d="M1465.24,317.77a0.43,0.43,0,0,1-.25-0.46,14.85,14.85,0,0,1,.07-1.7c0-.21.07-0.28,0.14-0.28s0.09,0.1.1,0.2a2.16,2.16,0,0,0,.06.36,1.94,1.94,0,0,0,2,1.49c1.1,0,1.44-.57,1.44-1.06s-0.09-.89-1.08-1.56l-0.72-.5c-1.41-1-1.81-1.81-1.81-2.83,0-1.33,1.1-2.41,3-2.41a6.39,6.39,0,0,1,1.33.12,5,5,0,0,1,.57.14,0.15,0.15,0,0,1,.15.16c0,0.37,0,.6,0,1.63,0,0.21,0,.29-0.13.29s-0.1,0-.13-0.22a1.61,1.61,0,0,0-.21-0.67,1.79,1.79,0,0,0-1.59-.76,1.1,1.1,0,0,0-1.3,1.07,1.62,1.62,0,0,0,.93,1.38l0.59,0.39c1.62,1.08,2.13,1.8,2.13,3a2.35,2.35,0,0,1-1.23,2.1,3.87,3.87,0,0,1-2,.5A4.62,4.62,0,0,1,1465.24,317.77Z" transform="translate(-1246.98 -287.12)"/><line class="cls-2" x1="228.24" y1="25.91" x2="252.17" y2="25.91"/><line class="cls-2" x1="135.96" y1="25.91" x2="159.9" y2="25.91"/></svg>